<svg xmlns="http://www.w3.org/2000/svg" viewBox="0 0 1202.5 529.61" id="el_jOk-O71cw"><style>#el_VbZz02MNoT{opacity: 0.6;}#el_2BhhiUc7EV{fill: #f2b762;}#el_8Tfyfh7iMl{opacity: 0.6;}#el_6PqYkoU_xg{fill: #f2b762;}#el_9elQt6RFCo{opacity: 0.6;}#el_aBmSU2_49s{fill: #f2b762;}#el_6bJIGl81m7{opacity: 0.6;}#el_NfkEPXdeKC{fill: #f2b762;}#el_SNZH_Fj8zb{fill: #f16b38;}#el_5cNgntVxHH{fill: #59c5d1;}#el_Bv-wgk3jjiz{fill: #f2b762;}#el_QAvg5cCbK88{fill: #0094a9;}#el_PTe1BJ7z53T{fill: #f58a30;}#el__gn1TExLZSP{fill: #59c5d1;}#el_gEorGrbKLUm{fill: #b8c4c5;}#el_U2Ng-NL1lsQ{fill: #9aa9aa;}#el_8iLYSx_9_Ww{fill: #59c5d1;}#el_4x1yFZufwpm{fill: #0094a9;}#el_XHDMoXKPzuP{fill: #fcd0a8;}#el_tO8nc1lclG-{fill: #375558;}#el_hZHwzS0u1_5{fill: #9aa9aa;}#el_vmfhBtMz2Bo{fill: #9aa9aa;}#el_shvI1OKreRu{fill: #9aa9aa;}#el_EE_wslcLqEF{fill: #697f82;}#el_e-ZqX6W6MzD{fill: #697f82;}#el_S744xkIEA1s{fill: #697f82;}#el_lBRVvdkkUyM{fill: #f16b38;}#el_M1sfY9L2PoB{fill: #ee363e;}#el_FqR3gLpu-aX{fill: #375558;}#el_N5vbyVlo50K{fill: #ee363e;}#el_SO5p9zRHTBn{fill: #f58a30;}#el_3V1-mgTYRAP{fill: #ee363e;}#el_NeUkSukgJQn{fill: #f58a30;}#el_JlIXdgQ1fkS{fill: #f58a30;}#el_3hf_62h2eU_{fill: #0094a9;}#el_0Iw-gsW9PDE{fill: #375558;}#el_RZSNW941eye{fill: #f58a30;}#el_qVw0uoGr95h{fill: #f58a30;}#el_sLscwWrtRHL{fill: #375558;}#el_6jGFfq9gWXs{fill: #ee363e;}#el_T08O_4L62SK{fill: #59c5d1;transform: translate(10.7px, 588.01px) rotate(-30deg);}#el_cxqUrD3sI5I{fill: #f58a30;}#el_ybhMXlnCCrY{fill: #375558;}#el_sdR4pZ_JTEY{opacity: 0.6;}#el_nN0RQTzRpGQ{fill: #f2b762;}#el_xeykNDscJKq{opacity: 0.6;}#el_1xmkWK1fC83{fill: #f2b762;}#el_f30Je6kWoPI{opacity: 0.6;}#el_56pZ23RpxkO{fill: #f2b762;}#el_U-JGHp4AfKx{fill: #f58a30;}#el_9LNSu7J4Egp{fill: #59c5d1;}#el_Tvpo2ny-AXV{fill: #f2b762;}#el_aGVPf2fVm-y{fill: #0094a9;}#el_din3A2wvezg{fill: #f16b38;}#el_Mk8AQvq6LIO{fill: #f2b762;}#el_BP4Mzue_itQ{fill: #375558;}#el_bFpKOPvWRjR{fill: #375558;}#el_8QhH_ymo5qv{fill: #cdd4d4;}#el_eHHPf919NbI{fill: #cdd4d4;}#el_ueiH_Iw84fl{fill: #cdd4d4;}#el_497Aw-LyYNX{fill: #697f82;}#el_g_aHBJfSYpB{fill: #9aa9aa;}#el_Chm6mdmtPj5{fill: #9aa9aa;}#el_wICFIEZ7rrD{fill: #f2b762;}#el_hCWiyYEtQ6e{fill: #0094a9;}#el_hzCJ19OO4Np{fill: #f2b762;}#el_xqE3UQoVFCP{fill: #ee363e;}#el_p5YXk5VdQGq{fill: #f2b762;}#el_rZv4JqJCFLw{fill: #f2b762;}#el_6su28dF0H5V{fill: #f2b762;}#el_7OxaU58liGQ{fill: #59c5d1;}</style><defs/><title>Opportunities_head_image</title><g id="el_e26RNh0_Gt"><g id="el_VbZz02MNoT"><g id="el_FjYyS1qbUY" data-name="666-gear2.png"><path d="M1066,80a4.28,4.28,0,0,0-3.72-4.25l-6.57-.94a4.34,4.34,0,0,1-3.64-3.46,50.39,50.39,0,0,0-1.6-6.06,4.31,4.31,0,0,1,1.43-4.78l5.22-4.08a4.28,4.28,0,0,0,1.06-5.55l-.58-1a4.33,4.33,0,0,0-5.36-1.83l-6.19,2.48a4.36,4.36,0,0,1-4.87-1.15,48.74,48.74,0,0,0-4.44-4.42,4.31,4.31,0,0,1-1.17-4.86l2.48-6.15a4.28,4.28,0,0,0-1.87-5.34l-1-.58a4.33,4.33,0,0,0-5.55,1.09l-4.08,5.19a4.39,4.39,0,0,1-4.8,1.43,46.88,46.88,0,0,0-6.11-1.6,4.34,4.34,0,0,1-3.47-3.62l-.95-6.54a4.34,4.34,0,0,0-4.29-3.77h-1.17a4.32,4.32,0,0,0-4.29,3.7l-1,6.54a4.32,4.32,0,0,1-3.47,3.62A51.66,51.66,0,0,0,990,35.64a4.35,4.35,0,0,1-4.81-1.42l-4-5.14A4.34,4.34,0,0,0,975.51,28l-1,.58a4.28,4.28,0,0,0-1.85,5.34l2.48,6.15A4.32,4.32,0,0,1,974,44.94a51.9,51.9,0,0,0-4.46,4.44,4.36,4.36,0,0,1-4.88,1.16l-6.18-2.49a4.34,4.34,0,0,0-5.37,1.84l-.55,1a4.32,4.32,0,0,0,1.06,5.55l5.22,4.08a4.34,4.34,0,0,1,1.43,4.78,44,44,0,0,0-1.6,6.06A4.33,4.33,0,0,1,955,74.8l-6.6.94A4.25,4.25,0,0,0,944.7,80v1.15a4.33,4.33,0,0,0,3.71,4.28l6.6.94a4.31,4.31,0,0,1,3.64,3.45,49.42,49.42,0,0,0,1.6,6.06,4.26,4.26,0,0,1-1.43,4.76l-5.22,4.08a4.29,4.29,0,0,0-1.06,5.55l.58,1a4.33,4.33,0,0,0,5.36,1.83l6.19-2.46a4.36,4.36,0,0,1,4.87,1.16,50.05,50.05,0,0,0,4.44,4.42,4.29,4.29,0,0,1,1.17,4.85l-2.48,6.16a4.27,4.27,0,0,0,1.87,5.33l1,.58a4.32,4.32,0,0,0,5.55-1.06l4.1-5.19a4.39,4.39,0,0,1,4.81-1.43,44,44,0,0,0,6.09,1.6,4.3,4.3,0,0,1,3.46,3.62l1,6.56a4.34,4.34,0,0,0,4.3,3.7H1006a4.32,4.32,0,0,0,4.29-3.7l1-6.56a4.32,4.32,0,0,1,3.47-3.62,48.59,48.59,0,0,0,6.09-1.6,4.3,4.3,0,0,1,4.78,1.43l4.1,5.19a4.33,4.33,0,0,0,5.58,1.06l1-.58a4.3,4.3,0,0,0,1.85-5.33l-2.5-6.16a4.31,4.31,0,0,1,1.16-4.85,47.5,47.5,0,0,0,4.44-4.42,4.37,4.37,0,0,1,4.88-1.16l6.19,2.49a4.34,4.34,0,0,0,5.36-1.86l.58-1a4.31,4.31,0,0,0-1.09-5.55l-5.22-4.06a4.32,4.32,0,0,1-1.43-4.76,49.85,49.85,0,0,0,1.6-6.05,4.32,4.32,0,0,1,3.64-3.46l6.6-.94a4.32,4.32,0,0,0,3.71-4.27V80Zm-60.66,30.75a30.18,30.18,0,1,1,30.33-30.17A30.26,30.26,0,0,1,1005.35,110.72Z" id="el_2BhhiUc7EV"/></g></g><g id="el_8Tfyfh7iMl" data-name="gear"><g id="el_wFFqSJuZye" data-name="666-gear2.png"><path d="M1103.78,385.65a8.07,8.07,0,0,0-7-8l-12.42-1.78a8.16,8.16,0,0,1-6.87-6.52,93.43,93.43,0,0,0-3-11.45,8.15,8.15,0,0,1,2.71-9l9.85-7.7a8.1,8.1,0,0,0,2-10.49l-1.1-1.87a8.19,8.19,0,0,0-10.13-3.46L1066.12,330a8.27,8.27,0,0,1-9.22-2.18,89.25,89.25,0,0,0-8.38-8.35,8.14,8.14,0,0,1-2.2-9.16L1051,298.7a8.06,8.06,0,0,0-3.52-10.08l-1.88-1.09a8.19,8.19,0,0,0-10.5,2.05l-7.69,9.8a8.3,8.3,0,0,1-9.08,2.69,91.35,91.35,0,0,0-11.54-3,8.22,8.22,0,0,1-6.56-6.84l-1.78-12.35a8.19,8.19,0,0,0-8.12-7.11h-2.19a8.18,8.18,0,0,0-8.12,7l-1.78,12.36a8.17,8.17,0,0,1-6.55,6.84,96.41,96.41,0,0,0-11.55,3,8.23,8.23,0,0,1-9.07-2.69l-7.66-9.72a8.19,8.19,0,0,0-10.54-2L931,288.62a8.07,8.07,0,0,0-3.48,10.08l4.68,11.63a8.15,8.15,0,0,1-2.2,9.16,96.72,96.72,0,0,0-8.43,8.39,8.23,8.23,0,0,1-9.21,2.19l-11.69-4.7a8.2,8.2,0,0,0-10.13,3.47l-1,1.87a8.13,8.13,0,0,0,2,10.48l9.85,7.71a8.21,8.21,0,0,1,2.7,9,82.7,82.7,0,0,0-3,11.44,8.16,8.16,0,0,1-6.88,6.52l-12.46,1.78a8,8,0,0,0-7,8v2.19a8.16,8.16,0,0,0,7,8.07l12.46,1.78a8.16,8.16,0,0,1,6.88,6.52,92.78,92.78,0,0,0,3,11.44,8,8,0,0,1-2.7,9l-9.85,7.7a8.1,8.1,0,0,0-2,10.49l1.1,1.87a8.19,8.19,0,0,0,10.13,3.46l11.68-4.65a8.26,8.26,0,0,1,9.21,2.19A89.25,89.25,0,0,0,930,454a8.15,8.15,0,0,1,2.2,9.17l-4.68,11.63A8.06,8.06,0,0,0,931,484.91l1.88,1.1a8.17,8.17,0,0,0,10.49-2l7.75-9.8a8.28,8.28,0,0,1,9.07-2.69,84.93,84.93,0,0,0,11.5,3,8.15,8.15,0,0,1,6.55,6.84l1.79,12.4a8.17,8.17,0,0,0,8.11,7h2.2a8.17,8.17,0,0,0,8.11-7l1.79-12.4a8.15,8.15,0,0,1,6.55-6.84,95.52,95.52,0,0,0,11.5-3,8.12,8.12,0,0,1,9,2.69l7.74,9.8a8.19,8.19,0,0,0,10.54,2l1.88-1.1a8.11,8.11,0,0,0,3.48-10.07l-4.72-11.63a8.17,8.17,0,0,1,2.2-9.17,89.25,89.25,0,0,0,8.39-8.34,8.24,8.24,0,0,1,9.21-2.19l11.68,4.7a8.2,8.2,0,0,0,10.13-3.51l1.1-1.87a8.15,8.15,0,0,0-2.06-10.49l-9.85-7.66a8.14,8.14,0,0,1-2.71-9,97.41,97.41,0,0,0,3-11.45,8.16,8.16,0,0,1,6.87-6.52l12.46-1.77a8.18,8.18,0,0,0,7-8.08v-2.23ZM989.23,443.74a57,57,0,1,1,57.27-57A57.16,57.16,0,0,1,989.23,443.74Z" id="el_6PqYkoU_xg"/></g></g><g id="el_9elQt6RFCo" data-name="gear"><g id="el_3hG23rPrl8" data-name="666-gear2.png"><path d="M884,436.43a3.43,3.43,0,0,0-3-3.42l-5.3-.76a3.46,3.46,0,0,1-2.92-2.78,42.42,42.42,0,0,0-1.29-4.87,3.47,3.47,0,0,1,1.15-3.85l4.2-3.29a3.44,3.44,0,0,0,.86-4.46l-.47-.8a3.49,3.49,0,0,0-4.32-1.48l-5,2a3.49,3.49,0,0,1-3.92-.93,40.09,40.09,0,0,0-3.58-3.56,3.45,3.45,0,0,1-.93-3.9l2-5a3.43,3.43,0,0,0-1.51-4.29l-.8-.47a3.49,3.49,0,0,0-4.47.88l-3.28,4.18a3.53,3.53,0,0,1-3.86,1.14,39.2,39.2,0,0,0-4.93-1.28,3.51,3.51,0,0,1-2.79-2.91l-.76-5.27a3.48,3.48,0,0,0-3.46-3h-.93a3.48,3.48,0,0,0-3.46,3l-.76,5.27a3.49,3.49,0,0,1-2.79,2.91,42.26,42.26,0,0,0-4.92,1.28,3.51,3.51,0,0,1-3.87-1.14l-3.26-4.14a3.5,3.5,0,0,0-4.49-.86l-.8.47a3.43,3.43,0,0,0-1.49,4.29l2,5a3.46,3.46,0,0,1-.93,3.9,43.43,43.43,0,0,0-3.6,3.58,3.48,3.48,0,0,1-3.92.93l-5-2a3.49,3.49,0,0,0-4.32,1.48l-.45.79a3.48,3.48,0,0,0,.86,4.47l4.2,3.29a3.5,3.5,0,0,1,1.15,3.85,37.14,37.14,0,0,0-1.29,4.87,3.46,3.46,0,0,1-2.92,2.78l-5.32.76a3.41,3.41,0,0,0-3,3.4v.93a3.48,3.48,0,0,0,3,3.44l5.32.76a3.46,3.46,0,0,1,2.92,2.78,43.14,43.14,0,0,0,1.29,4.88,3.42,3.42,0,0,1-1.15,3.82l-4.2,3.29a3.46,3.46,0,0,0-.86,4.47l.47.79a3.49,3.49,0,0,0,4.32,1.48l5-2a3.49,3.49,0,0,1,3.92.93,40.09,40.09,0,0,0,3.58,3.56,3.45,3.45,0,0,1,.93,3.9l-2,5a3.43,3.43,0,0,0,1.51,4.29l.8.47a3.49,3.49,0,0,0,4.47-.86l3.3-4.18a3.53,3.53,0,0,1,3.86-1.14,36.54,36.54,0,0,0,4.91,1.28,3.49,3.49,0,0,1,2.79,2.92l.76,5.28a3.48,3.48,0,0,0,3.46,3h.93a3.48,3.48,0,0,0,3.46-3l.76-5.28a3.49,3.49,0,0,1,2.79-2.92,41.59,41.59,0,0,0,4.91-1.28,3.46,3.46,0,0,1,3.84,1.14l3.3,4.18a3.5,3.5,0,0,0,4.49.86l.8-.47a3.46,3.46,0,0,0,1.49-4.29l-2-5a3.46,3.46,0,0,1,.93-3.9A40.09,40.09,0,0,0,864,462a3.48,3.48,0,0,1,3.92-.93l5,2a3.5,3.5,0,0,0,4.32-1.5l.47-.79a3.47,3.47,0,0,0-.88-4.47l-4.2-3.27a3.48,3.48,0,0,1-1.15-3.83,44.71,44.71,0,0,0,1.29-4.87,3.46,3.46,0,0,1,2.93-2.78l5.31-.76a3.47,3.47,0,0,0,3-3.44v-.95Zm-48.81,24.75a24.29,24.29,0,1,1,24.4-24.28A24.35,24.35,0,0,1,835.22,461.18Z" id="el_aBmSU2_49s"/></g></g><g id="el_6bJIGl81m7" data-name="gear"><g id="el_p9_xZR_oDx" data-name="666-gear2.png"><path d="M1167.8,165a3,3,0,0,0-2.61-3l-4.62-.67A3,3,0,0,1,1158,159a34.59,34.59,0,0,0-1.13-4.26,3,3,0,0,1,1-3.36l3.67-2.87a3,3,0,0,0,.75-3.9l-.41-.7a3.06,3.06,0,0,0-3.77-1.29l-4.35,1.75a3.06,3.06,0,0,1-3.43-.81,33.92,33.92,0,0,0-3.12-3.11,3,3,0,0,1-.82-3.41l1.74-4.32a3,3,0,0,0-1.31-3.75l-.7-.41a3,3,0,0,0-3.9.76l-2.87,3.65a3.08,3.08,0,0,1-3.37,1,34.34,34.34,0,0,0-4.3-1.12,3.05,3.05,0,0,1-2.44-2.54l-.66-4.6a3,3,0,0,0-3-2.65h-.82a3,3,0,0,0-3,2.6l-.66,4.6a3,3,0,0,1-2.44,2.54,36.16,36.16,0,0,0-4.3,1.12,3,3,0,0,1-3.37-1l-2.85-3.61a3,3,0,0,0-3.92-.75l-.7.41a3,3,0,0,0-1.3,3.75l1.74,4.32a3,3,0,0,1-.82,3.41,37,37,0,0,0-3.14,3.12,3.06,3.06,0,0,1-3.42.82l-4.35-1.75a3,3,0,0,0-3.77,1.29l-.39.7a3,3,0,0,0,.75,3.9l3.66,2.87a3,3,0,0,1,1,3.36,29.88,29.88,0,0,0-1.12,4.25,3,3,0,0,1-2.56,2.43l-4.64.66a3,3,0,0,0-2.61,3v.82a3,3,0,0,0,2.61,3l4.64.66a3,3,0,0,1,2.56,2.43,35,35,0,0,0,1.12,4.26,3,3,0,0,1-1,3.34l-3.66,2.87a3,3,0,0,0-.75,3.9l.41.69a3,3,0,0,0,3.77,1.29l4.34-1.73a3.08,3.08,0,0,1,3.43.82,32.61,32.61,0,0,0,3.12,3.1,3,3,0,0,1,.82,3.41l-1.74,4.33a3,3,0,0,0,1.31,3.75l.7.41a3.05,3.05,0,0,0,3.91-.75L1111,198a3.09,3.09,0,0,1,3.38-1,29.92,29.92,0,0,0,4.28,1.12,3,3,0,0,1,2.43,2.55l.67,4.61a3,3,0,0,0,3,2.6h.82a3,3,0,0,0,3-2.6l.67-4.61a3,3,0,0,1,2.44-2.55A35.35,35.35,0,0,0,1136,197a3,3,0,0,1,3.36,1l2.88,3.65a3,3,0,0,0,3.92.75l.7-.41a3,3,0,0,0,1.29-3.75l-1.75-4.33a3,3,0,0,1,.82-3.41,35.1,35.1,0,0,0,3.12-3.1,3.06,3.06,0,0,1,3.42-.82l4.35,1.75a3,3,0,0,0,3.77-1.31l.41-.69a3,3,0,0,0-.77-3.9l-3.66-2.85a3,3,0,0,1-1-3.35A36.06,36.06,0,0,0,1158,172a3,3,0,0,1,2.55-2.42l4.64-.66a3,3,0,0,0,2.61-3V165Zm-42.63,21.62a21.21,21.21,0,1,1,21.31-21.21A21.27,21.27,0,0,1,1125.17,186.66Z" id="el_NfkEPXdeKC"/></g></g><rect x="1084.29" y="22.81" width="21.49" height="21.49" rx="4.55" id="el_SNZH_Fj8zb"/><rect x="908.13" y="99.11" width="15.2" height="15.2" rx="3.22" id="el_5cNgntVxHH"/><rect x="1142.53" y="326.37" width="21.49" height="21.49" rx="4.55" id="el_Bv-wgk3jjiz"/><rect x="1157.25" y="286.98" width="21.49" height="21.49" rx="4.55" id="el_QAvg5cCbK88"/><rect x="881.6" y="471.48" width="21.49" height="21.49" rx="4.55" id="el_PTe1BJ7z53T"/><rect x="1110.49" y="492.97" width="15.2" height="15.2" rx="3.22" id="el__gn1TExLZSP"/><g id="el_7HUzws0b81Z"><path d="M986.66,390.17h36a.8.8,0,0,1,.8.8v24.3a3.34,3.34,0,0,1-3.34,3.34H989.08a3.34,3.34,0,0,1-3.34-3.34V391.1A.93.93,0,0,1,986.66,390.17Z" id="el_gEorGrbKLUm"/><path d="M1005,417.43l-12.72.16c-3.36,0-6.47-2.67-6.47-6V390.9a2.11,2.11,0,0,1,2.06-1.75H1005Z" id="el_U2Ng-NL1lsQ"/><path d="M990.18,393.94h29.14a3.89,3.89,0,0,0,3.9-3.9l0-132.66V228.21a3.91,3.91,0,0,0-.41-1.75l-14.57-29.14a3.91,3.91,0,0,0-7,0l-14.57,29.14a3.91,3.91,0,0,0-.41,1.75v72.84a2.81,2.81,0,0,0,0,.29l0,88.7A3.91,3.91,0,0,0,990.18,393.94Z" id="el_8iLYSx_9_Ww"/><path d="M1005.11,393.94V195.19l-.4,0a3.89,3.89,0,0,0-2.76,1.14,3.68,3.68,0,0,0-.73,1l-14.57,29.14a3.91,3.91,0,0,0-.41,1.75v72.84a2.81,2.81,0,0,0,0,.29l0,88.7a3.91,3.91,0,0,0,3.9,3.9Z" id="el_4x1yFZufwpm"/><path d="M1022.76,226.46l-14.56-29.14a3.92,3.92,0,0,0-7,0l-14.56,29.14a3.9,3.9,0,0,0,.17,3.8h35.77A3.87,3.87,0,0,0,1022.76,226.46Z" id="el_XHDMoXKPzuP"/><path d="M1002,187.28a3.9,3.9,0,0,1,6.66,2.76v8.83a3.9,3.9,0,0,1-7.8,0V190A3.89,3.89,0,0,1,1002,187.28Z" id="el_tO8nc1lclG-"/><rect x="984.14" y="389.07" width="41.2" height="5.4" rx="1.48" id="el_hZHwzS0u1_5"/><rect x="984.14" y="399.8" width="41.2" height="5.4" rx="1.48" id="el_vmfhBtMz2Bo"/><rect x="984.12" y="409.45" width="41.2" height="5.4" rx="1.48" id="el_shvI1OKreRu"/><path d="M1005.05,389H986.83a2.7,2.7,0,0,0-2.69,2.69h0a2.7,2.7,0,0,0,2.69,2.7h18.22" id="el_EE_wslcLqEF"/><path d="M1005,399.79H986.83a2.7,2.7,0,0,0-2.69,2.69h0a2.7,2.7,0,0,0,2.69,2.7H1005" id="el_e-ZqX6W6MzD"/><path d="M1005,409.47l-18.17,0a2.71,2.71,0,0,0-2.7,2.69h0a2.71,2.71,0,0,0,2.7,2.7l18.17,0" id="el_S744xkIEA1s"/><path d="M985.46,426.74a6.12,6.12,0,0,0,6.1,6.1h25.57a6.11,6.11,0,0,0,6.1-6.1V414.56l-37.76,0Z" id="el_lBRVvdkkUyM"/><path d="M985.5,414.55l0,12.17a6.11,6.11,0,0,0,6.09,6.1H1005V414.53Z" id="el_M1sfY9L2PoB"/><path d="M1095.61,160.32c-2.92-.75-9.4.31-12.22,1.4a9.34,9.34,0,0,0-5.84,6.43c-.8,3.67,1.12,7.49.5,11.2-.7,4.22-4.44,7.23-6.17,11.14a4.33,4.33,0,0,0-.47,2.33c.35,2.63,4.17,3.5,4.84,6.07.77,3-3.11,5.16-3.55,8.18-.32,2.19,1.34,4.29,3.36,5.2a15.57,15.57,0,0,0,6.52.93l5.11,0c1.68,0,3.55-.08,4.74-1.27,1.38-1.37,1.26-3.6,1-5.53-1.43-12-.58-22.82.68-34.82Z" id="el_FqR3gLpu-aX"/><path d="M1114.37,417.23s.2,4.74,1.19,5.72,12.23,5.92,13.41,7.1.79,3.75.79,3.75l-23.48-.39s-.59-.4-.59-4.54.2-11.83.2-11.83Z" id="el_N5vbyVlo50K"/><path d="M1114.51,417.27s.2,4.74,1.18,5.72c.64.64,5.54,2.92,9.26,4.77a3.68,3.68,0,0,1-.45.21,13.46,13.46,0,0,1-7-.08,14.27,14.27,0,0,1-3.21-1,6,6,0,0,1-2.56-2.13,8.78,8.78,0,0,1-1.09-3.95c-.11-1.2-.18-2.41-.23-3.62Z" id="el_SO5p9zRHTBn"/><path d="M1072.8,415.87s-.2,4.73-1.18,5.72-12.23,5.92-13.41,7.1-.79,3.75-.79,3.75l23.47-.4s.59-.39.59-4.53-.2-11.84-.2-11.84Z" id="el_3V1-mgTYRAP"/><path d="M1072.77,415.9s-.2,4.73-1.19,5.72c-.64.64-5.54,2.91-9.26,4.77.16.06.3.15.46.2a13.36,13.36,0,0,0,7-.08,15.12,15.12,0,0,0,3.21-1,6.18,6.18,0,0,0,2.56-2.13,8.8,8.8,0,0,0,1.08-3.95c.12-1.21.19-2.42.23-3.63Z" id="el_NeUkSukgJQn"/><path d="M1081.43,211.1a26.24,26.24,0,0,0-3.75,1.26c-2.55,1.5-4,4.16-5.68,6.5-2,2.78-4.35,5.29-6.53,7.92q-4.8,5.79-9.44,11.72c-1.31,1.68-5.78,9.7-8.63,7.86-2.66-1.77-21.4-14.54-21.4-14.54l-2.93-2.84-6.81.22s-3.33,2.74-3.84,3.18a5.68,5.68,0,0,1-2.3.82c-.29,0,.23,2,1.56,2a18.52,18.52,0,0,0,5.47-1.62c.52-.37,5.92,1.77,5.92,1.77l.15,4.3S1041.7,258,1042.58,259s4.74,3.3,6,3.38a6.13,6.13,0,0,0,3.47-1.11c.89-.6,27.61-27,27.61-27Z" id="el_JlIXdgQ1fkS"/><path d="M1123.45,287.64a364.54,364.54,0,0,0-3,37c-.3,17.46-1.78,29-1.78,29l-.82,66-13.62-.59s-3.9-64.5-4.49-69.53-3.26-40.83-3.26-40.83l-8,74.56-6.21,35.21-14.2-1.78s4.14-57.7,4.14-65.68,0-65.1.32-67.46S1123.45,287.64,1123.45,287.64Z" id="el_3hf_62h2eU_"/><path d="M1094.43,160.1a28.78,28.78,0,0,1,13-1.79c3.15.35,6.52,1.07,8.63,3.43,4.76,5.31,0,14.52,3.78,20.57,1.29,2.07,3.41,3.45,5.12,5.19s3.06,4.27,2.24,6.56c-.46,1.28-1.52,2.27-2,3.54-1.47,4.09,3.73,7.58,4.3,11.89.5,3.75-2.82,7.12-6.45,8.16s-7.51.4-11.27,0c0,0-9.13-4.35-10.32-6.42S1094.43,160.1,1094.43,160.1Z" id="el_0Iw-gsW9PDE"/><path d="M1094.14,164.76s-8,1.77-9.77,11.83-2.37,29.29,8.88,30.77,17.16-2.07,19.23-16.57S1112.48,162.69,1094.14,164.76Z" id="el_RZSNW941eye"/><polygon points="1104.79 215.06 1103.6 202.63 1092.95 202.33 1092.06 215.65 1104.79 215.06" id="el_qVw0uoGr95h"/><path d="M1094,164.64c2.15,2.84,5.63,6.89,9.1,7.69a6.13,6.13,0,0,1,2.94,1c1.7,1.57.07,4.39.36,6.7.36,2.85,3.57,4.34,5.11,6.78.48.77,1,3,.68,6.29-.16,1.75,4.39-3.46,5.47-4.84a6.58,6.58,0,0,0,1-5c-.25-1.73-.87-3.4-1.15-5.13-.68-4.21.45-9.15-2.41-12.31-1.73-1.91-4.42-2.53-6.93-3.06l-9.22-1.94Z" id="el_sLscwWrtRHL"/><path d="M1104.43,210.21s9.92.75,13.74,2.61c.24.12,2.88,1.31,3,1.76.87,3.81-4.21,15.66-4.21,15.66s-2.57,10.25-1,18.93,11.64,36.1,11.64,36.1-11.84,8.68-31,6.51-27-5.92-27-5.92,9.46-33.14,9.07-35.5a53.72,53.72,0,0,0-3.24-10.38c-3.52-6.48-1-13.75,1.54-20.26,1.19-3,2.43-6,3.67-9l11.7-.91S1099.11,216.92,1104.43,210.21Z" id="el_6jGFfq9gWXs"/><rect x="1088.24" y="253.02" width="28.7" height="42.01" rx="2.31" id="el_T08O_4L62SK"/><path d="M1117,213.84c.85-.31,2.93.79,3.57,1.06a13.79,13.79,0,0,1,4.26,2.71c2.76,2.76,24.06,23.28,25.24,24.86s.6,6.51-1.18,8.87-21.7,22.1-21.7,22.1-5.72,6.9-8.28,7.49-10.46-.39-10.46-.39-2.56-3.36-2.17-4,8.09-3,8.09-3l2.57-3.15-2-3.55,3-1.38,3.9.64s12-15.64,14.64-19.38c1-1.38-20.12-15.19-20.12-15.19a4.91,4.91,0,0,1-1.34-1.9,12.36,12.36,0,0,1-1-6.44,23.15,23.15,0,0,1,1-4.88c.3-1,.66-1.93,1-2.86a5.85,5.85,0,0,1,.69-1.57A.57.57,0,0,1,1117,213.84Z" id="el_cxqUrD3sI5I"/><path d="M1104.22,297.24a4.21,4.21,0,0,1-5.74-1.54l-16.81-29.1a4.23,4.23,0,0,1,1.54-5.75Z" id="el_ybhMXlnCCrY"/></g></g><g id="el_1HQt3YGulP6"><g id="el_sdR4pZ_JTEY" data-name="gear"><g id="el_6C0s2aVLaod" data-name="666-gear2.png"><path d="M301,89.7a4.85,4.85,0,0,0-4.22-4.82l-7.47-1.07a4.91,4.91,0,0,1-4.13-3.93A57.42,57.42,0,0,0,283.31,73a4.89,4.89,0,0,1,1.62-5.43l5.93-4.64a4.87,4.87,0,0,0,1.22-6.31l-.67-1.12a4.93,4.93,0,0,0-6.09-2.09l-7,2.83a5,5,0,0,1-5.54-1.32,53.18,53.18,0,0,0-5.05-5,4.89,4.89,0,0,1-1.32-5.51l2.81-7a4.85,4.85,0,0,0-2.12-6.06l-1.13-.66a4.92,4.92,0,0,0-6.31,1.24L255,37.8a5,5,0,0,1-5.46,1.62,54.12,54.12,0,0,0-6.95-1.81,4.93,4.93,0,0,1-3.94-4.11l-1.08-7.44a4.92,4.92,0,0,0-4.88-4.28h-1.32a4.93,4.93,0,0,0-4.88,4.2l-1.07,7.43a4.92,4.92,0,0,1-3.95,4.12,59.38,59.38,0,0,0-6.94,1.81,4.93,4.93,0,0,1-5.46-1.62l-4.61-5.84a4.93,4.93,0,0,0-6.34-1.21l-1.13.66a4.84,4.84,0,0,0-2.09,6.06l2.81,7a4.9,4.9,0,0,1-1.32,5.51A57.64,57.64,0,0,0,191.31,55a5,5,0,0,1-5.54,1.32l-7-2.83a4.92,4.92,0,0,0-6.09,2.08L172,56.65A4.89,4.89,0,0,0,173.23,63l5.93,4.63A5,5,0,0,1,180.78,73,49.79,49.79,0,0,0,179,79.91a4.89,4.89,0,0,1-4.13,3.92l-7.5,1.07a4.82,4.82,0,0,0-4.22,4.8V91a4.92,4.92,0,0,0,4.22,4.86l7.5,1.07a4.89,4.89,0,0,1,4.13,3.92,56.93,56.93,0,0,0,1.82,6.88,4.85,4.85,0,0,1-1.62,5.41l-5.93,4.63A4.87,4.87,0,0,0,172,124.1l.66,1.13a4.92,4.92,0,0,0,6.09,2.08l7-2.79a5,5,0,0,1,5.54,1.31,52,52,0,0,0,5,5,4.91,4.91,0,0,1,1.32,5.52l-2.81,7a4.84,4.84,0,0,0,2.12,6.06l1.13.66a4.91,4.91,0,0,0,6.31-1.2l4.66-5.9a5,5,0,0,1,5.46-1.62,50.3,50.3,0,0,0,6.92,1.81,4.9,4.9,0,0,1,3.94,4.11l1.08,7.47a4.91,4.91,0,0,0,4.88,4.19h1.32a4.92,4.92,0,0,0,4.88-4.19l1.08-7.47a4.9,4.9,0,0,1,3.94-4.11,58,58,0,0,0,6.92-1.81A4.88,4.88,0,0,1,255,143l4.66,5.9a4.92,4.92,0,0,0,6.34,1.2l1.13-.66a4.88,4.88,0,0,0,2.09-6.06l-2.84-7a4.92,4.92,0,0,1,1.33-5.52,53.07,53.07,0,0,0,5-5,5,5,0,0,1,5.54-1.31l7,2.82a4.94,4.94,0,0,0,6.1-2.11l.66-1.13a4.91,4.91,0,0,0-1.24-6.31l-5.93-4.6a4.91,4.91,0,0,1-1.63-5.41,58,58,0,0,0,1.82-6.88A4.93,4.93,0,0,1,289.21,97l7.5-1.07a4.9,4.9,0,0,0,4.21-4.85V89.7Zm-68.92,35a34.29,34.29,0,1,1,34.46-34.29A34.39,34.39,0,0,1,232,124.65Z" id="el_nN0RQTzRpGQ"/></g></g><g id="el_xeykNDscJKq" data-name="gear"><g id="el_ubKU1jXeHZj" data-name="666-gear2.png"><path d="M119,245.41a3.45,3.45,0,0,0-3-3.42l-5.29-.76a3.46,3.46,0,0,1-2.93-2.77,38.83,38.83,0,0,0-1.29-4.88,3.47,3.47,0,0,1,1.15-3.85l4.2-3.28a3.45,3.45,0,0,0,.86-4.47l-.47-.8a3.49,3.49,0,0,0-4.32-1.47l-5,2a3.52,3.52,0,0,1-3.92-.94,38.59,38.59,0,0,0-3.57-3.55,3.46,3.46,0,0,1-.94-3.91l2-4.95a3.44,3.44,0,0,0-1.5-4.3l-.8-.46a3.49,3.49,0,0,0-4.48.87l-3.28,4.18a3.53,3.53,0,0,1-3.86,1.15,37,37,0,0,0-4.92-1.29,3.5,3.5,0,0,1-2.8-2.91l-.76-5.27a3.48,3.48,0,0,0-3.45-3h-.94a3.49,3.49,0,0,0-3.46,3l-.76,5.27a3.46,3.46,0,0,1-2.79,2.91,40.38,40.38,0,0,0-4.92,1.29,3.51,3.51,0,0,1-3.87-1.15l-3.26-4.14a3.48,3.48,0,0,0-4.49-.85l-.8.46a3.44,3.44,0,0,0-1.49,4.3l2,4.95a3.5,3.5,0,0,1-.94,3.91,41.7,41.7,0,0,0-3.59,3.57,3.52,3.52,0,0,1-3.93.94l-5-2a3.49,3.49,0,0,0-4.31,1.48l-.45.8a3.47,3.47,0,0,0,.86,4.47l4.19,3.28a3.5,3.5,0,0,1,1.16,3.85,34,34,0,0,0-1.29,4.88,3.49,3.49,0,0,1-2.93,2.77l-5.31.76a3.41,3.41,0,0,0-3,3.4v.94a3.47,3.47,0,0,0,3,3.43l5.31.76a3.5,3.5,0,0,1,2.93,2.78,39.29,39.29,0,0,0,1.29,4.88A3.43,3.43,0,0,1,32.73,262l-4.19,3.28a3.44,3.44,0,0,0-.86,4.47l.46.8a3.5,3.5,0,0,0,4.32,1.47l5-2a3.52,3.52,0,0,1,3.92.93,38.8,38.8,0,0,0,3.58,3.56,3.48,3.48,0,0,1,.94,3.9l-2,5a3.43,3.43,0,0,0,1.51,4.29l.8.47a3.47,3.47,0,0,0,4.47-.85l3.3-4.18A3.53,3.53,0,0,1,57.83,282a34.61,34.61,0,0,0,4.9,1.28,3.49,3.49,0,0,1,2.79,2.92l.76,5.28a3.5,3.5,0,0,0,3.46,3h.94a3.49,3.49,0,0,0,3.45-3l.76-5.28a3.5,3.5,0,0,1,2.8-2.92,39.12,39.12,0,0,0,4.9-1.28,3.44,3.44,0,0,1,3.84,1.15l3.3,4.18a3.5,3.5,0,0,0,4.5.85l.8-.47a3.45,3.45,0,0,0,1.48-4.29l-2-5a3.45,3.45,0,0,1,.94-3.9A37.49,37.49,0,0,0,99,271a3.53,3.53,0,0,1,3.93-.93l5,2a3.49,3.49,0,0,0,4.31-1.49l.47-.8a3.47,3.47,0,0,0-.88-4.47l-4.2-3.26a3.48,3.48,0,0,1-1.15-3.83,41.24,41.24,0,0,0,1.29-4.88,3.47,3.47,0,0,1,2.93-2.78l5.31-.76a3.48,3.48,0,0,0,3-3.44v-1ZM70.19,270.17A24.29,24.29,0,1,1,94.6,245.88,24.35,24.35,0,0,1,70.19,270.17Z" id="el_1xmkWK1fC83"/></g></g><g id="el_f30Je6kWoPI" data-name="gear"><g id="el_txFA4HdmXOc" data-name="666-gear2.png"><path d="M355.7,402.51a7.67,7.67,0,0,0-6.66-7.62l-11.79-1.69a7.77,7.77,0,0,1-6.53-6.19,87.57,87.57,0,0,0-2.87-10.87,7.72,7.72,0,0,1,2.57-8.57l9.35-7.32a7.68,7.68,0,0,0,1.92-10l-1.05-1.77a7.76,7.76,0,0,0-9.61-3.29l-11.1,4.46a7.82,7.82,0,0,1-8.74-2.08,85,85,0,0,0-8-7.92,7.73,7.73,0,0,1-2.09-8.71l4.44-11a7.65,7.65,0,0,0-3.35-9.56l-1.79-1a7.75,7.75,0,0,0-10,2l-7.31,9.3a7.87,7.87,0,0,1-8.62,2.56,85.59,85.59,0,0,0-11-2.86,7.8,7.8,0,0,1-6.22-6.49l-1.7-11.74a7.76,7.76,0,0,0-7.7-6.75h-2.09a7.76,7.76,0,0,0-7.7,6.62l-1.7,11.74a7.73,7.73,0,0,1-6.22,6.49,93.26,93.26,0,0,0-11,2.86,7.81,7.81,0,0,1-8.62-2.56l-7.26-9.22a7.78,7.78,0,0,0-10-1.9l-1.78,1a7.64,7.64,0,0,0-3.31,9.56l4.44,11a7.75,7.75,0,0,1-2.09,8.71,92.55,92.55,0,0,0-8,8,7.8,7.8,0,0,1-8.74,2.08l-11.1-4.46a7.77,7.77,0,0,0-9.61,3.29l-1,1.78a7.72,7.72,0,0,0,1.91,10l9.36,7.32a7.79,7.79,0,0,1,2.56,8.57,78.71,78.71,0,0,0-2.87,10.87,7.75,7.75,0,0,1-6.53,6.19l-11.83,1.69a7.6,7.6,0,0,0-6.66,7.58v2.07a7.76,7.76,0,0,0,6.66,7.67l11.83,1.69a7.74,7.74,0,0,1,6.53,6.19A89.2,89.2,0,0,0,166,431a7.62,7.62,0,0,1-2.56,8.53l-9.36,7.32a7.69,7.69,0,0,0-1.91,10l1,1.77a7.78,7.78,0,0,0,9.62,3.29L174,457.45a7.84,7.84,0,0,1,8.75,2.07,85.11,85.11,0,0,0,8,7.93,7.71,7.71,0,0,1,2.09,8.7l-4.44,11a7.66,7.66,0,0,0,3.35,9.57l1.78,1a7.77,7.77,0,0,0,10-1.91l7.35-9.31a7.87,7.87,0,0,1,8.61-2.55,80.94,80.94,0,0,0,10.93,2.86,7.73,7.73,0,0,1,6.22,6.49l1.69,11.78a7.77,7.77,0,0,0,7.71,6.62H248a7.75,7.75,0,0,0,7.7-6.62l1.7-11.78a7.73,7.73,0,0,1,6.22-6.49A89.65,89.65,0,0,0,274.55,484a7.72,7.72,0,0,1,8.58,2.55l7.35,9.31a7.79,7.79,0,0,0,10,1.91l1.78-1a7.73,7.73,0,0,0,3.31-9.57l-4.49-11a7.75,7.75,0,0,1,2.09-8.7,85.22,85.22,0,0,0,8-7.93,7.8,7.8,0,0,1,8.74-2.07L331,461.9a7.77,7.77,0,0,0,9.61-3.33l1-1.77a7.76,7.76,0,0,0-2-10l-9.36-7.27a7.75,7.75,0,0,1-2.56-8.53,93.93,93.93,0,0,0,2.87-10.87,7.74,7.74,0,0,1,6.52-6.19L349,412.29a7.75,7.75,0,0,0,6.66-7.66v-2.12ZM246.93,457.66a54.12,54.12,0,1,1,54.38-54.12A54.27,54.27,0,0,1,246.93,457.66Z" id="el_56pZ23RpxkO"/></g></g><rect x="87.3" y="353" width="21.49" height="21.49" rx="4.55" id="el_U-JGHp4AfKx"/><rect x="259.54" y="223.84" width="15.2" height="15.2" rx="3.22" id="el_9LNSu7J4Egp"/><rect x="102.19" y="38.3" width="15.2" height="15.2" rx="3.22" id="el_Tvpo2ny-AXV"/><rect x="60.01" y="429.88" width="21.49" height="21.49" rx="4.55" id="el_aGVPf2fVm-y"/><rect x="329.75" y="485.43" width="14.68" height="14.68" rx="4.55" id="el_din3A2wvezg"/><rect x="391.33" y="423.92" width="21.49" height="21.49" rx="4.55" id="el_Mk8AQvq6LIO"/><g id="el_1xIZDd84A5K"><path d="M188.27,410.11s.26,6.35,1.59,7.68,16.4,7.94,18,9.52,1.06,5,1.06,5l-31.49-.53s-.79-.53-.79-6.08.26-15.88.26-15.88Z" id="el_BP4Mzue_itQ"/><path d="M129.56,410.11s-.27,6.35-1.59,7.68-16.41,7.94-18,9.52-1,5-1,5l31.49-.53s.79-.53.79-6.08-.26-15.88-.26-15.88Z" id="el_bFpKOPvWRjR"/><g id="el_AqYyQZlOZWx" data-name="guy"><path d="M239.27,124.69h-157a2.79,2.79,0,0,0-2.78,2.78v14.85a2.77,2.77,0,0,0,2.78,2.78h157a2.77,2.77,0,0,0,2.78-2.78V127.48A2.78,2.78,0,0,0,239.27,124.69Z" id="el_8QhH_ymo5qv"/><path d="M71.9,100.94H37.76A2.78,2.78,0,0,0,35,103.72v14.85a2.79,2.79,0,0,0,2.79,2.78H63.18v27.09H37.76A2.79,2.79,0,0,0,35,151.23v14.84a2.79,2.79,0,0,0,2.79,2.79H71.9a2.79,2.79,0,0,0,2-.82l.17-.18L88.89,150a2.81,2.81,0,0,0,.64-1.78V121.54a2.82,2.82,0,0,0-.64-1.79L74,101.94A2.76,2.76,0,0,0,71.9,100.94Z" id="el_eHHPf919NbI"/><path d="M283.81,100.94H249.66a2.8,2.8,0,0,0-2.14,1l-14.84,17.81a2.81,2.81,0,0,0-.65,1.79v26.72a2.77,2.77,0,0,0,.65,1.78l14.84,17.82a2.81,2.81,0,0,0,2.14,1h34.15a2.8,2.8,0,0,0,2.78-2.79V151.23a2.78,2.78,0,0,0-2.78-2.78H258.38v-27.1h25.43a2.78,2.78,0,0,0,2.78-2.78V103.72A2.78,2.78,0,0,0,283.81,100.94Z" id="el_ueiH_Iw84fl"/><path d="M79.51,134.64v7.68a2.77,2.77,0,0,0,2.78,2.78h157a2.77,2.77,0,0,0,2.78-2.78v-7.68Z" id="el_497Aw-LyYNX"/><path d="M63.18,134.64v13.81H37.76A2.79,2.79,0,0,0,35,151.23v14.84a2.79,2.79,0,0,0,2.79,2.79H71.9a2.79,2.79,0,0,0,2-.82l.17-.18L88.89,150a2.81,2.81,0,0,0,.64-1.78V134.64Z" id="el_g_aHBJfSYpB"/><path d="M232,148.26a2.77,2.77,0,0,0,.65,1.78l14.84,17.82a2.81,2.81,0,0,0,2.14,1h34.15a2.8,2.8,0,0,0,2.78-2.79V151.23a2.77,2.77,0,0,0-2.78-2.78H258.38V134.64H232Z" id="el_Chm6mdmtPj5"/><path d="M178.94,180.22l-1.08,12.39s-.27,6.74-2.42,11.32-3.24,9.17-5.39,9.44a32.67,32.67,0,0,1-6.74-.54s-10-.54-11.86-2.16-6.74-10.51-6.74-18.06-5.66-13.47,5.12-15.36S178.94,180.22,178.94,180.22Z" id="el_wICFIEZ7rrD"/><path d="M179.73,181.05c2.14-.45,3-1.25,4.58-2.78a8.74,8.74,0,0,0,2.72-5.78,6.08,6.08,0,0,0-2.9-5.5c-2-1.09-4.43-.79-6.55,0s-4.07,1.95-6.22,2.62c-4.1,1.26-8.5.51-12.72-.24s-8.62-1.49-12.71-.22-7.68,5.22-7,9.45a54.2,54.2,0,0,1,1.11,8.1c0,.9-.2,1.8-.17,2.7.12,4,4.67,7.64,5.48,12.76a11.22,11.22,0,0,0,1.17,3.05c1.15,1.85,2.84,3.31,2.78,2.7-.8-9.53-1.22-18.2.32-17.68,2.43.82,3.35,4.49,3.29,4.49s.42,1.62.55.47c.43-3.88,1.41-14.38,4.74-13.34,0,0,6.75,3.56,10.34,3.31a6.75,6.75,0,0,0,4.12-1.79c1.11-1,1.52-2.46,3.17-2.82C177,180.27,178.68,181.27,179.73,181.05Z" id="el_hCWiyYEtQ6e"/><polyline points="151.45 210.67 151.45 220.1 167.14 221.99 166.33 207.17" id="el_hzCJ19OO4Np"/><path d="M184.66,295.86q3.15,58.29,5.3,116.64a1.19,1.19,0,0,1-1.43,1.46l-13.4.79c-.14-4.71-1.92-12.12-2.66-16.78-3.67-23.23-4.7-45.34-7.81-63.33l-5.93-31-8.36,47.43s-7.81,58.75-8.35,60.1-17-2.43-17-2.43,4.58-82.73,4.58-84.62,4-36.38,4-36.38l50.94.21Z" id="el_xqE3UQoVFCP"/><path d="M207.45,141.64l1.89,6.47a29.94,29.94,0,0,1,3.9,2.15c.27.41,2.56,6.2,2.56,6.2l9.17.68,2.68-12-13.43,0a5,5,0,0,1-2.08-1.37c-1.28-1.62-.5-3.79-2.94-4.38C206.21,138.63,207.45,141.64,207.45,141.64Z" id="el_p5YXk5VdQGq"/><path d="M119.26,141.34l-1.88,6.47a30,30,0,0,0-3.91,2.15c-.27.41-2.56,6.2-2.56,6.2l-9.16.67-2.7-11.72,13.29,0a7.73,7.73,0,0,0,2.23-1.66c1.28-1.63,1.57-4,3.2-4.54,1.17-.39,1.77-.31,2,.16C120,139.74,119.26,141.34,119.26,141.34Z" id="el_rZv4JqJCFLw"/><ellipse cx="148.82" cy="194.39" rx="3.41" ry="4.49" id="el_6su28dF0H5V"/><path d="M129.5,235.75a1.56,1.56,0,0,0-.08-.42c-3.61-9.55-18.37-25.46-22.11-34.81-3.9-9.77-9-23.92-6.68-40.86a1.31,1.31,0,0,1,.74-1c2.1-1,8.41-.69,9,.15.25.33.27,5.76.62,8.1,2.14,14.09,8,24.44,16.93,33.75,3.41,3.55,8.6,9.19,12.77,11.8,2.36,1.47,12.23,7.74,22,6.91,10.21-.86,20.33-8.89,23.44-11.24a70.8,70.8,0,0,0,16.47-18.33,86,86,0,0,0,7.75-15.24c.45-1.15,3.51-11.84,4.44-15.25a1.25,1.25,0,0,1,1.36-.9l8,1a1.27,1.27,0,0,1,1.07,1.52l-5.32,24c-1.85,8.36-4,16.12-9.31,23-2.09,3-4.72,6.1-5.46,7l-5.73,7.4c-3.19,4.12-8.45,9-10,14.08-.91,3-.87,6.71-1.26,9.82-1.28,10-.58,20-1.35,30-.15,2-.29,4-.37,6-.1,2.16-.34,4.63-2.08,5.93a7.47,7.47,0,0,1-4.31,1c-15.59.49-31.28-.28-46.88.15a1.25,1.25,0,0,1-1.28-1.25c-.16-17.31-2.11-28.53-2.18-46.15Z" id="el_7OxaU58liGQ"/></g></g></g></svg>