<svg id="el_cYD_grNuC" data-name="Layer 1" xmlns="http://www.w3.org/2000/svg" viewBox="0 0 319 565"><style>@-webkit-keyframes kf_el_cnz8E6aZVAY_an_ZU51h9EPA{0%{opacity: 0;}50%{opacity: 1;}100%{opacity: 0;}}@keyframes kf_el_cnz8E6aZVAY_an_ZU51h9EPA{0%{opacity: 0;}50%{opacity: 1;}100%{opacity: 0;}}@-webkit-keyframes kf_el_cnz8E6aZVAY_an_PtCOlvGjG{0%{-webkit-transform: translate(12.010000228881836px, 286.760009765625px) translate(-12.010000228881836px, -286.760009765625px) translate(0px, 0px);transform: translate(12.010000228881836px, 286.760009765625px) translate(-12.010000228881836px, -286.760009765625px) translate(0px, 0px);}50%{-webkit-transform: translate(12.010000228881836px, 286.760009765625px) translate(-12.010000228881836px, -286.760009765625px) translate(20px, 0px);transform: translate(12.010000228881836px, 286.760009765625px) translate(-12.010000228881836px, -286.760009765625px) translate(20px, 0px);}100%{-webkit-transform: translate(12.010000228881836px, 286.760009765625px) translate(-12.010000228881836px, -286.760009765625px) translate(0px, 0px);transform: translate(12.010000228881836px, 286.760009765625px) translate(-12.010000228881836px, -286.760009765625px) translate(0px, 0px);}}@keyframes kf_el_cnz8E6aZVAY_an_PtCOlvGjG{0%{-webkit-transform: translate(12.010000228881836px, 286.760009765625px) translate(-12.010000228881836px, -286.760009765625px) translate(0px, 0px);transform: translate(12.010000228881836px, 286.760009765625px) translate(-12.010000228881836px, -286.760009765625px) translate(0px, 0px);}50%{-webkit-transform: translate(12.010000228881836px, 286.760009765625px) translate(-12.010000228881836px, -286.760009765625px) translate(20px, 0px);transform: translate(12.010000228881836px, 286.760009765625px) translate(-12.010000228881836px, -286.760009765625px) translate(20px, 0px);}100%{-webkit-transform: translate(12.010000228881836px, 286.760009765625px) translate(-12.010000228881836px, -286.760009765625px) translate(0px, 0px);transform: translate(12.010000228881836px, 286.760009765625px) translate(-12.010000228881836px, -286.760009765625px) translate(0px, 0px);}}@-webkit-keyframes kf_el_qUjc3sj3FO4_an_mvbP3KE4g{0%{opacity: 0.75;}16.67%{opacity: 1;}33.33%{opacity: 0.75;}66.67%{opacity: 1;}100%{opacity: 0.75;}}@keyframes kf_el_qUjc3sj3FO4_an_mvbP3KE4g{0%{opacity: 0.75;}16.67%{opacity: 1;}33.33%{opacity: 0.75;}66.67%{opacity: 1;}100%{opacity: 0.75;}}@-webkit-keyframes kf_el_qUjc3sj3FO4_an_fplYlHpOB{0%{-webkit-transform: translate(280.9200134277344px, 477.0799865722656px) translate(-280.9200134277344px, -477.0799865722656px) translate(0px, -20px);transform: translate(280.9200134277344px, 477.0799865722656px) translate(-280.9200134277344px, -477.0799865722656px) translate(0px, -20px);}16.67%{-webkit-transform: translate(280.9200134277344px, 477.0799865722656px) translate(-280.9200134277344px, -477.0799865722656px) translate(0px, -16px);transform: translate(280.9200134277344px, 477.0799865722656px) translate(-280.9200134277344px, -477.0799865722656px) translate(0px, -16px);}33.33%{-webkit-transform: translate(280.9200134277344px, 477.0799865722656px) translate(-280.9200134277344px, -477.0799865722656px) translate(0px, -20px);transform: translate(280.9200134277344px, 477.0799865722656px) translate(-280.9200134277344px, -477.0799865722656px) translate(0px, -20px);}66.67%{-webkit-transform: translate(280.9200134277344px, 477.0799865722656px) translate(-280.9200134277344px, -477.0799865722656px) translate(0px, -10px);transform: translate(280.9200134277344px, 477.0799865722656px) translate(-280.9200134277344px, -477.0799865722656px) translate(0px, -10px);}100%{-webkit-transform: translate(280.9200134277344px, 477.0799865722656px) translate(-280.9200134277344px, -477.0799865722656px) translate(0px, -20px);transform: translate(280.9200134277344px, 477.0799865722656px) translate(-280.9200134277344px, -477.0799865722656px) translate(0px, -20px);}}@keyframes kf_el_qUjc3sj3FO4_an_fplYlHpOB{0%{-webkit-transform: translate(280.9200134277344px, 477.0799865722656px) translate(-280.9200134277344px, -477.0799865722656px) translate(0px, -20px);transform: translate(280.9200134277344px, 477.0799865722656px) translate(-280.9200134277344px, -477.0799865722656px) translate(0px, -20px);}16.67%{-webkit-transform: translate(280.9200134277344px, 477.0799865722656px) translate(-280.9200134277344px, -477.0799865722656px) translate(0px, -16px);transform: translate(280.9200134277344px, 477.0799865722656px) translate(-280.9200134277344px, -477.0799865722656px) translate(0px, -16px);}33.33%{-webkit-transform: translate(280.9200134277344px, 477.0799865722656px) translate(-280.9200134277344px, -477.0799865722656px) translate(0px, -20px);transform: translate(280.9200134277344px, 477.0799865722656px) translate(-280.9200134277344px, -477.0799865722656px) translate(0px, -20px);}66.67%{-webkit-transform: translate(280.9200134277344px, 477.0799865722656px) translate(-280.9200134277344px, -477.0799865722656px) translate(0px, -10px);transform: translate(280.9200134277344px, 477.0799865722656px) translate(-280.9200134277344px, -477.0799865722656px) translate(0px, -10px);}100%{-webkit-transform: translate(280.9200134277344px, 477.0799865722656px) translate(-280.9200134277344px, -477.0799865722656px) translate(0px, -20px);transform: translate(280.9200134277344px, 477.0799865722656px) translate(-280.9200134277344px, -477.0799865722656px) translate(0px, -20px);}}@-webkit-keyframes kf_el_UMiRROPlQ7w_an_qxZH5RmGE{0%{opacity: 1;}66.67%{opacity: 0;}100%{opacity: 1;}}@keyframes kf_el_UMiRROPlQ7w_an_qxZH5RmGE{0%{opacity: 1;}66.67%{opacity: 0;}100%{opacity: 1;}}@-webkit-keyframes kf_el_UMiRROPlQ7w_an_qTcwTzjv8{0%{-webkit-transform: translate(291.0799865722656px, 372.17999267578125px) translate(-291.0799865722656px, -372.17999267578125px) translate(0px, 15px);transform: translate(291.0799865722656px, 372.17999267578125px) translate(-291.0799865722656px, -372.17999267578125px) translate(0px, 15px);}66.67%{-webkit-transform: translate(291.0799865722656px, 372.17999267578125px) translate(-291.0799865722656px, -372.17999267578125px) translate(0px, 10px);transform: translate(291.0799865722656px, 372.17999267578125px) translate(-291.0799865722656px, -372.17999267578125px) translate(0px, 10px);}100%{-webkit-transform: translate(291.0799865722656px, 372.17999267578125px) translate(-291.0799865722656px, -372.17999267578125px) translate(0px, 15px);transform: translate(291.0799865722656px, 372.17999267578125px) translate(-291.0799865722656px, -372.17999267578125px) translate(0px, 15px);}}@keyframes kf_el_UMiRROPlQ7w_an_qTcwTzjv8{0%{-webkit-transform: translate(291.0799865722656px, 372.17999267578125px) translate(-291.0799865722656px, -372.17999267578125px) translate(0px, 15px);transform: translate(291.0799865722656px, 372.17999267578125px) translate(-291.0799865722656px, -372.17999267578125px) translate(0px, 15px);}66.67%{-webkit-transform: translate(291.0799865722656px, 372.17999267578125px) translate(-291.0799865722656px, -372.17999267578125px) translate(0px, 10px);transform: translate(291.0799865722656px, 372.17999267578125px) translate(-291.0799865722656px, -372.17999267578125px) translate(0px, 10px);}100%{-webkit-transform: translate(291.0799865722656px, 372.17999267578125px) translate(-291.0799865722656px, -372.17999267578125px) translate(0px, 15px);transform: translate(291.0799865722656px, 372.17999267578125px) translate(-291.0799865722656px, -372.17999267578125px) translate(0px, 15px);}}@-webkit-keyframes kf_el_riLQr53a0e_an_NvfpuMC-L{0%{opacity: 1;}50%{opacity: 0;}100%{opacity: 1;}}@keyframes kf_el_riLQr53a0e_an_NvfpuMC-L{0%{opacity: 1;}50%{opacity: 0;}100%{opacity: 1;}}@-webkit-keyframes kf_el_riLQr53a0e_an_gt3FYRxYF{0%{-webkit-transform: translate(50.83000183105469px, 494.5400085449219px) translate(-50.83000183105469px, -494.5400085449219px) translate(0px, 10px);transform: translate(50.83000183105469px, 494.5400085449219px) translate(-50.83000183105469px, -494.5400085449219px) translate(0px, 10px);}50%{-webkit-transform: translate(50.83000183105469px, 494.5400085449219px) translate(-50.83000183105469px, -494.5400085449219px) translate(0px, 0px);transform: translate(50.83000183105469px, 494.5400085449219px) translate(-50.83000183105469px, -494.5400085449219px) translate(0px, 0px);}100%{-webkit-transform: translate(50.83000183105469px, 494.5400085449219px) translate(-50.83000183105469px, -494.5400085449219px) translate(0px, 10px);transform: translate(50.83000183105469px, 494.5400085449219px) translate(-50.83000183105469px, -494.5400085449219px) translate(0px, 10px);}}@keyframes kf_el_riLQr53a0e_an_gt3FYRxYF{0%{-webkit-transform: translate(50.83000183105469px, 494.5400085449219px) translate(-50.83000183105469px, -494.5400085449219px) translate(0px, 10px);transform: translate(50.83000183105469px, 494.5400085449219px) translate(-50.83000183105469px, -494.5400085449219px) translate(0px, 10px);}50%{-webkit-transform: translate(50.83000183105469px, 494.5400085449219px) translate(-50.83000183105469px, -494.5400085449219px) translate(0px, 0px);transform: translate(50.83000183105469px, 494.5400085449219px) translate(-50.83000183105469px, -494.5400085449219px) translate(0px, 0px);}100%{-webkit-transform: translate(50.83000183105469px, 494.5400085449219px) translate(-50.83000183105469px, -494.5400085449219px) translate(0px, 10px);transform: translate(50.83000183105469px, 494.5400085449219px) translate(-50.83000183105469px, -494.5400085449219px) translate(0px, 10px);}}@-webkit-keyframes kf_el_9wjcfi7CpH_an_tOYjwsGDP{0%{opacity: 0.5;}33.33%{opacity: 1;}50%{opacity: 0.75;}66.67%{opacity: 1;}100%{opacity: 0.5;}}@keyframes kf_el_9wjcfi7CpH_an_tOYjwsGDP{0%{opacity: 0.5;}33.33%{opacity: 1;}50%{opacity: 0.75;}66.67%{opacity: 1;}100%{opacity: 0.5;}}@-webkit-keyframes kf_el_9wjcfi7CpH_an_xm77ncDSg{0%{-webkit-transform: translate(20.639999389648438px, 528.4500122070312px) translate(-20.639999389648438px, -528.4500122070312px) translate(20px, 0px);transform: translate(20.639999389648438px, 528.4500122070312px) translate(-20.639999389648438px, -528.4500122070312px) translate(20px, 0px);}33.33%{-webkit-transform: translate(20.639999389648438px, 528.4500122070312px) translate(-20.639999389648438px, -528.4500122070312px) translate(10px, 0px);transform: translate(20.639999389648438px, 528.4500122070312px) translate(-20.639999389648438px, -528.4500122070312px) translate(10px, 0px);}50%{-webkit-transform: translate(20.639999389648438px, 528.4500122070312px) translate(-20.639999389648438px, -528.4500122070312px) translate(15px, 0px);transform: translate(20.639999389648438px, 528.4500122070312px) translate(-20.639999389648438px, -528.4500122070312px) translate(15px, 0px);}66.67%{-webkit-transform: translate(20.639999389648438px, 528.4500122070312px) translate(-20.639999389648438px, -528.4500122070312px) translate(10px, 0px);transform: translate(20.639999389648438px, 528.4500122070312px) translate(-20.639999389648438px, -528.4500122070312px) translate(10px, 0px);}100%{-webkit-transform: translate(20.639999389648438px, 528.4500122070312px) translate(-20.639999389648438px, -528.4500122070312px) translate(20px, 0px);transform: translate(20.639999389648438px, 528.4500122070312px) translate(-20.639999389648438px, -528.4500122070312px) translate(20px, 0px);}}@keyframes kf_el_9wjcfi7CpH_an_xm77ncDSg{0%{-webkit-transform: translate(20.639999389648438px, 528.4500122070312px) translate(-20.639999389648438px, -528.4500122070312px) translate(20px, 0px);transform: translate(20.639999389648438px, 528.4500122070312px) translate(-20.639999389648438px, -528.4500122070312px) translate(20px, 0px);}33.33%{-webkit-transform: translate(20.639999389648438px, 528.4500122070312px) translate(-20.639999389648438px, -528.4500122070312px) translate(10px, 0px);transform: translate(20.639999389648438px, 528.4500122070312px) translate(-20.639999389648438px, -528.4500122070312px) translate(10px, 0px);}50%{-webkit-transform: translate(20.639999389648438px, 528.4500122070312px) translate(-20.639999389648438px, -528.4500122070312px) translate(15px, 0px);transform: translate(20.639999389648438px, 528.4500122070312px) translate(-20.639999389648438px, -528.4500122070312px) translate(15px, 0px);}66.67%{-webkit-transform: translate(20.639999389648438px, 528.4500122070312px) translate(-20.639999389648438px, -528.4500122070312px) translate(10px, 0px);transform: translate(20.639999389648438px, 528.4500122070312px) translate(-20.639999389648438px, -528.4500122070312px) translate(10px, 0px);}100%{-webkit-transform: translate(20.639999389648438px, 528.4500122070312px) translate(-20.639999389648438px, -528.4500122070312px) translate(20px, 0px);transform: translate(20.639999389648438px, 528.4500122070312px) translate(-20.639999389648438px, -528.4500122070312px) translate(20px, 0px);}}@-webkit-keyframes kf_el_LhdRtOgy2Z_an_ve7B56dTR{0%{-webkit-transform: translate(212.5606918334961px, 304.5703582763672px) rotate(0deg) translate(-212.5606918334961px, -304.5703582763672px);transform: translate(212.5606918334961px, 304.5703582763672px) rotate(0deg) translate(-212.5606918334961px, -304.5703582763672px);}100%{-webkit-transform: translate(212.5606918334961px, 304.5703582763672px) rotate(-90deg) translate(-212.5606918334961px, -304.5703582763672px);transform: translate(212.5606918334961px, 304.5703582763672px) rotate(-90deg) translate(-212.5606918334961px, -304.5703582763672px);}}@keyframes kf_el_LhdRtOgy2Z_an_ve7B56dTR{0%{-webkit-transform: translate(212.5606918334961px, 304.5703582763672px) rotate(0deg) translate(-212.5606918334961px, -304.5703582763672px);transform: translate(212.5606918334961px, 304.5703582763672px) rotate(0deg) translate(-212.5606918334961px, -304.5703582763672px);}100%{-webkit-transform: translate(212.5606918334961px, 304.5703582763672px) rotate(-90deg) translate(-212.5606918334961px, -304.5703582763672px);transform: translate(212.5606918334961px, 304.5703582763672px) rotate(-90deg) translate(-212.5606918334961px, -304.5703582763672px);}}@-webkit-keyframes kf_el_awCtI2DLAB_an_e9vg2_4y4{0%{-webkit-transform: translate(165.15898895263672px, 466.79002380371094px) rotate(0deg) translate(-165.15898895263672px, -466.79002380371094px);transform: translate(165.15898895263672px, 466.79002380371094px) rotate(0deg) translate(-165.15898895263672px, -466.79002380371094px);}100%{-webkit-transform: translate(165.15898895263672px, 466.79002380371094px) rotate(-90deg) translate(-165.15898895263672px, -466.79002380371094px);transform: translate(165.15898895263672px, 466.79002380371094px) rotate(-90deg) translate(-165.15898895263672px, -466.79002380371094px);}}@keyframes kf_el_awCtI2DLAB_an_e9vg2_4y4{0%{-webkit-transform: translate(165.15898895263672px, 466.79002380371094px) rotate(0deg) translate(-165.15898895263672px, -466.79002380371094px);transform: translate(165.15898895263672px, 466.79002380371094px) rotate(0deg) translate(-165.15898895263672px, -466.79002380371094px);}100%{-webkit-transform: translate(165.15898895263672px, 466.79002380371094px) rotate(-90deg) translate(-165.15898895263672px, -466.79002380371094px);transform: translate(165.15898895263672px, 466.79002380371094px) rotate(-90deg) translate(-165.15898895263672px, -466.79002380371094px);}}@-webkit-keyframes kf_el_XoG1uo74F7_an_4xg-89pRT{0%{-webkit-transform: translate(70.0596399307251px, 357.67054748535156px) rotate(0deg) translate(-70.0596399307251px, -357.67054748535156px);transform: translate(70.0596399307251px, 357.67054748535156px) rotate(0deg) translate(-70.0596399307251px, -357.67054748535156px);}100%{-webkit-transform: translate(70.0596399307251px, 357.67054748535156px) rotate(90deg) translate(-70.0596399307251px, -357.67054748535156px);transform: translate(70.0596399307251px, 357.67054748535156px) rotate(90deg) translate(-70.0596399307251px, -357.67054748535156px);}}@keyframes kf_el_XoG1uo74F7_an_4xg-89pRT{0%{-webkit-transform: translate(70.0596399307251px, 357.67054748535156px) rotate(0deg) translate(-70.0596399307251px, -357.67054748535156px);transform: translate(70.0596399307251px, 357.67054748535156px) rotate(0deg) translate(-70.0596399307251px, -357.67054748535156px);}100%{-webkit-transform: translate(70.0596399307251px, 357.67054748535156px) rotate(90deg) translate(-70.0596399307251px, -357.67054748535156px);transform: translate(70.0596399307251px, 357.67054748535156px) rotate(90deg) translate(-70.0596399307251px, -357.67054748535156px);}}#el_cYD_grNuC *{-webkit-animation-duration: 3s;animation-duration: 3s;-webkit-animation-iteration-count: infinite;animation-iteration-count: infinite;-webkit-animation-timing-function: cubic-bezier(0, 0, 1, 1);animation-timing-function: cubic-bezier(0, 0, 1, 1);}#el_LhdRtOgy2Z{opacity: 0.15;}#el_I8N6epIHQp{fill: #f2b762;}#el_awCtI2DLAB{opacity: 0.15;}#el_xhRrSdXeFC{fill: #f2b762;}#el_XoG1uo74F7{opacity: 0.15;}#el_q33CkDyLxR{fill: #f2b762;}#el_e3vZ0pNrv1{fill: #f2b762;}#el_riLQr53a0e{fill: #f58a30;-webkit-animation-fill-mode: backwards;animation-fill-mode: backwards;opacity: 1;-webkit-animation-name: kf_el_riLQr53a0e_an_NvfpuMC-L;animation-name: kf_el_riLQr53a0e_an_NvfpuMC-L;-webkit-animation-timing-function: cubic-bezier(0, 0, 1, 1);animation-timing-function: cubic-bezier(0, 0, 1, 1);}#el_naGgtS8NdQ{fill: #59c5d1;}#el_ENpH8AZ6QC{fill: #f16b38;}#el_9wjcfi7CpH{fill: #f2b762;-webkit-animation-fill-mode: backwards;animation-fill-mode: backwards;opacity: 0.5;-webkit-animation-name: kf_el_9wjcfi7CpH_an_tOYjwsGDP;animation-name: kf_el_9wjcfi7CpH_an_tOYjwsGDP;-webkit-animation-timing-function: cubic-bezier(0, 0, 1, 1);animation-timing-function: cubic-bezier(0, 0, 1, 1);}#el_tcqXlEELEM{fill: #f16b38;}#el_C6Is8qiE5rL{fill: #f58a30;-webkit-transform: translate(-186.75px, 700.87px) rotate(-90deg);transform: translate(-186.75px, 700.87px) rotate(-90deg);}#el_qUjc3sj3FO4{fill: #f2b762;-webkit-transform: translate(-196.16px, 767.98px) rotate(-90deg);transform: translate(-196.16px, 767.98px) rotate(-90deg);-webkit-animation-fill-mode: backwards;animation-fill-mode: backwards;opacity: 0.75;-webkit-animation-name: kf_el_qUjc3sj3FO4_an_mvbP3KE4g;animation-name: kf_el_qUjc3sj3FO4_an_mvbP3KE4g;-webkit-animation-timing-function: cubic-bezier(0, 0, 1, 1);animation-timing-function: cubic-bezier(0, 0, 1, 1);}#el_KsGtHzengs7{fill: #f2b762;-webkit-transform: translate(-133.97px, 715.98px) rotate(-90deg);transform: translate(-133.97px, 715.98px) rotate(-90deg);}#el_ufBUpLmlGjB{fill: #59c5d1;-webkit-transform: translate(-254.1px, 807.69px) rotate(-90deg);transform: translate(-254.1px, 807.69px) rotate(-90deg);}#el_cnz8E6aZVAY{fill: #f58a30;-webkit-transform: translate(-274.75px, 312.87px) rotate(-90deg);transform: translate(-274.75px, 312.87px) rotate(-90deg);-webkit-animation-fill-mode: backwards;animation-fill-mode: backwards;opacity: 0;-webkit-animation-name: kf_el_cnz8E6aZVAY_an_ZU51h9EPA;animation-name: kf_el_cnz8E6aZVAY_an_ZU51h9EPA;-webkit-animation-timing-function: cubic-bezier(0, 0, 1, 1);animation-timing-function: cubic-bezier(0, 0, 1, 1);}#el_UMiRROPlQ7w{fill: #f16b38;-webkit-animation-fill-mode: backwards;animation-fill-mode: backwards;opacity: 1;-webkit-animation-name: kf_el_UMiRROPlQ7w_an_qxZH5RmGE;animation-name: kf_el_UMiRROPlQ7w_an_qxZH5RmGE;-webkit-animation-timing-function: cubic-bezier(0, 0, 1, 1);animation-timing-function: cubic-bezier(0, 0, 1, 1);}#el_iUOKJxguU9B{fill: #0094a9;-webkit-transform: translate(-229.2px, 286.93px) rotate(-90deg);transform: translate(-229.2px, 286.93px) rotate(-90deg);}#el_XoG1uo74F7_an_4xg-89pRT{-webkit-animation-fill-mode: backwards;animation-fill-mode: backwards;-webkit-transform: translate(70.0596399307251px, 357.67054748535156px) rotate(0deg) translate(-70.0596399307251px, -357.67054748535156px);transform: translate(70.0596399307251px, 357.67054748535156px) rotate(0deg) translate(-70.0596399307251px, -357.67054748535156px);-webkit-animation-name: kf_el_XoG1uo74F7_an_4xg-89pRT;animation-name: kf_el_XoG1uo74F7_an_4xg-89pRT;-webkit-animation-timing-function: cubic-bezier(0, 0, 1, 1);animation-timing-function: cubic-bezier(0, 0, 1, 1);}#el_awCtI2DLAB_an_e9vg2_4y4{-webkit-animation-fill-mode: backwards;animation-fill-mode: backwards;-webkit-transform: translate(165.15898895263672px, 466.79002380371094px) rotate(0deg) translate(-165.15898895263672px, -466.79002380371094px);transform: translate(165.15898895263672px, 466.79002380371094px) rotate(0deg) translate(-165.15898895263672px, -466.79002380371094px);-webkit-animation-name: kf_el_awCtI2DLAB_an_e9vg2_4y4;animation-name: kf_el_awCtI2DLAB_an_e9vg2_4y4;-webkit-animation-timing-function: cubic-bezier(0, 0, 1, 1);animation-timing-function: cubic-bezier(0, 0, 1, 1);}#el_LhdRtOgy2Z_an_ve7B56dTR{-webkit-animation-fill-mode: backwards;animation-fill-mode: backwards;-webkit-transform: translate(212.5606918334961px, 304.5703582763672px) rotate(0deg) translate(-212.5606918334961px, -304.5703582763672px);transform: translate(212.5606918334961px, 304.5703582763672px) rotate(0deg) translate(-212.5606918334961px, -304.5703582763672px);-webkit-animation-name: kf_el_LhdRtOgy2Z_an_ve7B56dTR;animation-name: kf_el_LhdRtOgy2Z_an_ve7B56dTR;-webkit-animation-timing-function: cubic-bezier(0, 0, 1, 1);animation-timing-function: cubic-bezier(0, 0, 1, 1);}#el_9wjcfi7CpH_an_xm77ncDSg{-webkit-animation-fill-mode: backwards;animation-fill-mode: backwards;-webkit-transform: translate(20.639999389648438px, 528.4500122070312px) translate(-20.639999389648438px, -528.4500122070312px) translate(20px, 0px);transform: translate(20.639999389648438px, 528.4500122070312px) translate(-20.639999389648438px, -528.4500122070312px) translate(20px, 0px);-webkit-animation-name: kf_el_9wjcfi7CpH_an_xm77ncDSg;animation-name: kf_el_9wjcfi7CpH_an_xm77ncDSg;-webkit-animation-timing-function: cubic-bezier(0, 0, 1, 1);animation-timing-function: cubic-bezier(0, 0, 1, 1);}#el_riLQr53a0e_an_gt3FYRxYF{-webkit-transform: translate(50.83000183105469px, 494.5400085449219px) translate(-50.83000183105469px, -494.5400085449219px) translate(0px, 10px);transform: translate(50.83000183105469px, 494.5400085449219px) translate(-50.83000183105469px, -494.5400085449219px) translate(0px, 10px);-webkit-animation-fill-mode: backwards;animation-fill-mode: backwards;-webkit-animation-name: kf_el_riLQr53a0e_an_gt3FYRxYF;animation-name: kf_el_riLQr53a0e_an_gt3FYRxYF;-webkit-animation-timing-function: cubic-bezier(0, 0, 1, 1);animation-timing-function: cubic-bezier(0, 0, 1, 1);}#el_UMiRROPlQ7w_an_qTcwTzjv8{-webkit-animation-fill-mode: backwards;animation-fill-mode: backwards;-webkit-transform: translate(291.0799865722656px, 372.17999267578125px) translate(-291.0799865722656px, -372.17999267578125px) translate(0px, 15px);transform: translate(291.0799865722656px, 372.17999267578125px) translate(-291.0799865722656px, -372.17999267578125px) translate(0px, 15px);-webkit-animation-name: kf_el_UMiRROPlQ7w_an_qTcwTzjv8;animation-name: kf_el_UMiRROPlQ7w_an_qTcwTzjv8;-webkit-animation-timing-function: cubic-bezier(0, 0, 1, 1);animation-timing-function: cubic-bezier(0, 0, 1, 1);}#el_qUjc3sj3FO4_an_fplYlHpOB{-webkit-animation-fill-mode: backwards;animation-fill-mode: backwards;-webkit-transform: translate(280.9200134277344px, 477.0799865722656px) translate(-280.9200134277344px, -477.0799865722656px) translate(0px, -20px);transform: translate(280.9200134277344px, 477.0799865722656px) translate(-280.9200134277344px, -477.0799865722656px) translate(0px, -20px);-webkit-animation-name: kf_el_qUjc3sj3FO4_an_fplYlHpOB;animation-name: kf_el_qUjc3sj3FO4_an_fplYlHpOB;-webkit-animation-timing-function: cubic-bezier(0, 0, 1, 1);animation-timing-function: cubic-bezier(0, 0, 1, 1);}#el_cnz8E6aZVAY_an_PtCOlvGjG{-webkit-animation-fill-mode: backwards;animation-fill-mode: backwards;-webkit-transform: translate(12.010000228881836px, 286.760009765625px) translate(-12.010000228881836px, -286.760009765625px) translate(0px, 0px);transform: translate(12.010000228881836px, 286.760009765625px) translate(-12.010000228881836px, -286.760009765625px) translate(0px, 0px);-webkit-animation-name: kf_el_cnz8E6aZVAY_an_PtCOlvGjG;animation-name: kf_el_cnz8E6aZVAY_an_PtCOlvGjG;-webkit-animation-timing-function: cubic-bezier(0, 0, 1, 1);animation-timing-function: cubic-bezier(0, 0, 1, 1);}</style><defs/><title>Opp-default</title><g id="el_LhdRtOgy2Z_an_ve7B56dTR" data-animator-group="true" data-animator-type="1"><g id="el_LhdRtOgy2Z"><g id="el_eUN6Zzn70p" data-name="666-gear2.png"><path d="M294.12,344.12A6.39,6.39,0,0,0,292,336l-8.18-5.64a6.45,6.45,0,0,1-2.57-7,72.79,72.79,0,0,0,1.88-9.17,6.45,6.45,0,0,1,5.1-5.45l9.69-2A6.41,6.41,0,0,0,303,300l-.13-1.71a6.46,6.46,0,0,0-5.95-6l-9.94-.79a6.52,6.52,0,0,1-5.75-4.79,71.22,71.22,0,0,0-3-8.87,6.45,6.45,0,0,1,1.67-7.27l7.41-6.59a6.4,6.4,0,0,0,1.05-8.39l-.95-1.43a6.47,6.47,0,0,0-8.16-2.24l-8.91,4.23A6.54,6.54,0,0,1,263,254.8a71.57,71.57,0,0,0-7.13-6.19,6.51,6.51,0,0,1-2.23-7.16l3.08-9.38a6.47,6.47,0,0,0-3.24-7.9l-1.56-.78a6.48,6.48,0,0,0-8.2,2.09l-5.62,8.13a6.44,6.44,0,0,1-7.05,2.54,77,77,0,0,0-9.24-1.93,6.52,6.52,0,0,1-5.49-5.11l-2-9.57a6.48,6.48,0,0,0-6.76-5.14l-1.72.12a6.37,6.37,0,0,0-6,5.91l-.79,9.89a6.45,6.45,0,0,1-4.78,5.72,77.22,77.22,0,0,0-8.93,3,6.51,6.51,0,0,1-7.3-1.69l-6.62-7.44a6.48,6.48,0,0,0-8.4-1.11l-1.41.95a6.45,6.45,0,0,0-2.26,8.14l4.27,8.93a6.49,6.49,0,0,1-1.27,7.35,66.68,66.68,0,0,0-6.17,7.05,6.45,6.45,0,0,1-7.16,2.2l-9.46-3.13a6.34,6.34,0,0,0-7.78,3.19L131,265a6.47,6.47,0,0,0,2.12,8.19l8.21,5.64a6.49,6.49,0,0,1,2.58,7.05,72.84,72.84,0,0,0-1.89,9.17,6.35,6.35,0,0,1-5.08,5.41l-9.7,2a6.4,6.4,0,0,0-5.12,6.72l.12,1.71a6.49,6.49,0,0,0,6,6l9.92.82a6.5,6.5,0,0,1,5.75,4.79,71.22,71.22,0,0,0,3,8.87,6.44,6.44,0,0,1-1.67,7.27l-7.41,6.59a6.37,6.37,0,0,0-1,8.38l.94,1.44a6.46,6.46,0,0,0,8.14,2.28l8.94-4.22a6.57,6.57,0,0,1,7.38,1.28,66.16,66.16,0,0,0,7.09,6.19,6.46,6.46,0,0,1,2.24,7.15l-3.1,9.42a6.47,6.47,0,0,0,3.29,7.8l1.56.77a6.45,6.45,0,0,0,8.2-2.09l5.63-8.15a6.46,6.46,0,0,1,7.06-2.54,75,75,0,0,0,9.21,1.91,6.46,6.46,0,0,1,5.45,5.09l2,9.67a6.47,6.47,0,0,0,6.76,5.13l1.72-.11a6.44,6.44,0,0,0,6-5.91l.75-9.91a6.45,6.45,0,0,1,4.78-5.72,69,69,0,0,0,8.88-3,6.53,6.53,0,0,1,7.3,1.7l6.63,7.44a6.47,6.47,0,0,0,8.41,1.08l1.44-.94a6.46,6.46,0,0,0,2.23-8.16l-4.29-8.9a6.44,6.44,0,0,1,1.25-7.31,78,78,0,0,0,6.17-7.05,6.47,6.47,0,0,1,7.17-2.2l9.46,3.13a6.45,6.45,0,0,0,7.81-3.25l.79-1.58ZM192.48,345a45.1,45.1,0,1,1,60.66-20.22A45.23,45.23,0,0,1,192.48,345Z" id="el_I8N6epIHQp"/></g></g></g><g id="el_awCtI2DLAB_an_e9vg2_4y4" data-animator-group="true" data-animator-type="1"><g id="el_awCtI2DLAB" data-name="gear"><g id="el_vJA7rlkBQb" data-name="666-gear2.png"><path d="M231,498.67a5.15,5.15,0,0,0-1.73-6.58l-6.6-4.55a5.24,5.24,0,0,1-2.08-5.69,59.06,59.06,0,0,0,1.52-7.41,5.22,5.22,0,0,1,4.12-4.4l7.83-1.61a5.17,5.17,0,0,0,4.14-5.42l-.1-1.39a5.24,5.24,0,0,0-4.81-4.86l-8-.64a5.26,5.26,0,0,1-4.64-3.87,60.32,60.32,0,0,0-2.43-7.16,5.18,5.18,0,0,1,1.35-5.87l6-5.32a5.15,5.15,0,0,0,.84-6.77l-.76-1.16a5.21,5.21,0,0,0-6.59-1.81l-7.19,3.42a5.32,5.32,0,0,1-6-1,57.32,57.32,0,0,0-5.75-5,5.25,5.25,0,0,1-1.81-5.78l2.49-7.58a5.22,5.22,0,0,0-2.62-6.38l-1.25-.62a5.23,5.23,0,0,0-6.63,1.69l-4.54,6.56a5.21,5.21,0,0,1-5.69,2.05,61.23,61.23,0,0,0-7.47-1.56,5.23,5.23,0,0,1-4.42-4.12l-1.62-7.74a5.24,5.24,0,0,0-5.46-4.14l-1.39.09a5.15,5.15,0,0,0-4.86,4.78l-.63,8a5.2,5.2,0,0,1-3.87,4.62,62.8,62.8,0,0,0-7.21,2.4,5.25,5.25,0,0,1-5.89-1.36l-5.35-6a5.23,5.23,0,0,0-6.78-.9l-1.14.77a5.22,5.22,0,0,0-1.83,6.58l3.45,7.21a5.23,5.23,0,0,1-1,5.93,53.9,53.9,0,0,0-5,5.69,5.19,5.19,0,0,1-5.78,1.78l-7.64-2.53a5.11,5.11,0,0,0-6.28,2.58l-.63,1.25a5.22,5.22,0,0,0,1.72,6.61l6.63,4.56a5.24,5.24,0,0,1,2.08,5.69,61,61,0,0,0-1.53,7.41,5.13,5.13,0,0,1-4.1,4.37L96.25,465a5.15,5.15,0,0,0-4.13,5.43l.09,1.38A5.24,5.24,0,0,0,97,476.69l8,.67a5.26,5.26,0,0,1,4.65,3.87,58.57,58.57,0,0,0,2.43,7.16,5.18,5.18,0,0,1-1.35,5.87l-6,5.32a5.16,5.16,0,0,0-.85,6.77l.77,1.16a5.21,5.21,0,0,0,6.57,1.84l7.22-3.41a5.32,5.32,0,0,1,6,1,54.42,54.42,0,0,0,5.73,5,5.2,5.2,0,0,1,1.8,5.77l-2.5,7.61a5.22,5.22,0,0,0,2.66,6.3l1.26.62A5.21,5.21,0,0,0,140,530.6l4.55-6.59a5.23,5.23,0,0,1,5.7-2,59.28,59.28,0,0,0,7.44,1.55,5.2,5.2,0,0,1,4.4,4.1l1.64,7.82a5.24,5.24,0,0,0,5.46,4.14l1.39-.09a5.2,5.2,0,0,0,4.86-4.78l.6-8a5.2,5.2,0,0,1,3.87-4.62,58.52,58.52,0,0,0,7.17-2.39,5.25,5.25,0,0,1,5.89,1.36l5.36,6a5.21,5.21,0,0,0,6.79.87l1.16-.75a5.21,5.21,0,0,0,1.8-6.59l-3.46-7.19a5.21,5.21,0,0,1,1-5.91,61.55,61.55,0,0,0,5-5.69,5.21,5.21,0,0,1,5.78-1.77l7.64,2.52a5.21,5.21,0,0,0,6.31-2.62l.64-1.28Zm-82.08.67a36.43,36.43,0,1,1,49-16.33A36.52,36.52,0,0,1,149,499.34Z" id="el_xhRrSdXeFC"/></g></g></g><g id="el_XoG1uo74F7_an_4xg-89pRT" data-animator-group="true" data-animator-type="1"><g id="el_XoG1uo74F7" data-name="gear"><g id="el_nH_DPEbiOG" data-name="666-gear2.png"><path d="M121.71,382.73a4.05,4.05,0,0,0-1.36-5.17L115.17,374a4.1,4.1,0,0,1-1.63-4.46,46.12,46.12,0,0,0,1.2-5.81,4.06,4.06,0,0,1,3.23-3.45l6.14-1.27a4.06,4.06,0,0,0,3.25-4.26l-.08-1.08a4.11,4.11,0,0,0-3.78-3.82l-6.29-.5a4.13,4.13,0,0,1-3.65-3,45.84,45.84,0,0,0-1.9-5.62,4.09,4.09,0,0,1,1-4.61l4.7-4.18a4,4,0,0,0,.66-5.31l-.6-.91a4.1,4.1,0,0,0-5.17-1.42l-5.64,2.68a4.17,4.17,0,0,1-4.68-.81,43.48,43.48,0,0,0-4.51-3.93,4.14,4.14,0,0,1-1.42-4.54l2-5.94a4.11,4.11,0,0,0-2.06-5l-1-.49a4.11,4.11,0,0,0-5.2,1.32L86.2,312.7a4.08,4.08,0,0,1-4.46,1.6,48.44,48.44,0,0,0-5.86-1.22,4.13,4.13,0,0,1-3.48-3.23l-1.26-6.07a4.12,4.12,0,0,0-4.29-3.26l-1.09.08A4,4,0,0,0,62,304.34l-.5,6.27a4.07,4.07,0,0,1-3,3.62,50.09,50.09,0,0,0-5.66,1.89,4.11,4.11,0,0,1-4.62-1.07l-4.2-4.72a4.1,4.1,0,0,0-5.32-.7l-.89.6a4.09,4.09,0,0,0-1.44,5.16L39,321.05a4.14,4.14,0,0,1-.8,4.66,42.55,42.55,0,0,0-3.92,4.46,4.08,4.08,0,0,1-4.54,1.4l-6-2a4,4,0,0,0-4.93,2l-.49,1a4.1,4.1,0,0,0,1.35,5.19l5.2,3.58a4.08,4.08,0,0,1,1.63,4.46,48,48,0,0,0-1.2,5.81,4,4,0,0,1-3.21,3.43L16,356.32a4.05,4.05,0,0,0-3.24,4.26l.07,1.09a4.12,4.12,0,0,0,3.78,3.82l6.28.51a4.14,4.14,0,0,1,3.65,3,44.26,44.26,0,0,0,1.91,5.62,4.09,4.09,0,0,1-1.06,4.61l-4.7,4.18a4,4,0,0,0-.66,5.31l.6.91a4.1,4.1,0,0,0,5.16,1.44l5.66-2.67a4.16,4.16,0,0,1,4.68.81,42.87,42.87,0,0,0,4.49,3.92A4.09,4.09,0,0,1,44,397.7l-2,6a4.11,4.11,0,0,0,2.09,4.94l1,.5a4.11,4.11,0,0,0,5.2-1.33l3.57-5.17A4.1,4.1,0,0,1,58.34,401a48.37,48.37,0,0,0,5.83,1.22,4.07,4.07,0,0,1,3.46,3.22l1.29,6.13a4.09,4.09,0,0,0,4.28,3.25l1.09-.07A4.07,4.07,0,0,0,78.1,411l.48-6.27a4.08,4.08,0,0,1,3-3.63,44.74,44.74,0,0,0,5.63-1.87,4.11,4.11,0,0,1,4.62,1.07l4.2,4.72a4.11,4.11,0,0,0,5.33.68l.91-.59a4.09,4.09,0,0,0,1.42-5.17L101,394.3a4.11,4.11,0,0,1,.79-4.64,50.42,50.42,0,0,0,3.92-4.46,4.08,4.08,0,0,1,4.54-1.4l6,2a4.07,4.07,0,0,0,5-2.06l.5-1Zm-64.41.52a28.58,28.58,0,1,1,38.44-12.81A28.65,28.65,0,0,1,57.3,383.25Z" id="el_q33CkDyLxR"/></g></g></g><rect x="66.2" y="459.83" width="13.96" height="13.96" rx="4.55" id="el_e3vZ0pNrv1"/><g id="el_riLQr53a0e_an_gt3FYRxYF" data-animator-group="true" data-animator-type="0"><rect x="50.83" y="494.54" width="14.11" height="14.11" rx="4.55" id="el_riLQr53a0e"/></g><rect x="86.77" y="534.14" width="9.97" height="9.97" rx="3.22" id="el_naGgtS8NdQ"/><rect x="228.08" y="518.18" width="9.87" height="9.87" rx="3.22" id="el_ENpH8AZ6QC"/><g id="el_9wjcfi7CpH_an_xm77ncDSg" data-animator-group="true" data-animator-type="0"><rect x="20.64" y="528.45" width="22.16" height="22.16" rx="3.22" id="el_9wjcfi7CpH"/></g><rect x="20.08" y="426.61" width="37.44" height="37.44" rx="3.22" id="el_tcqXlEELEM"/><rect x="250.01" y="436.76" width="14.11" height="14.11" rx="4.55" id="el_C6Is8qiE5rL"/><g id="el_qUjc3sj3FO4_an_fplYlHpOB" data-animator-group="true" data-animator-type="0"><rect x="280.92" y="477.08" width="9.97" height="9.97" rx="3.22" id="el_qUjc3sj3FO4"/></g><rect x="279.92" y="413.9" width="22.16" height="22.16" rx="3.22" id="el_KsGtHzengs7"/><rect x="258.08" y="512.18" width="37.44" height="37.44" rx="3.22" id="el_ufBUpLmlGjB"/><g id="el_cnz8E6aZVAY_an_PtCOlvGjG" data-animator-group="true" data-animator-type="0"><rect x="12.01" y="286.76" width="14.11" height="14.11" rx="4.55" id="el_cnz8E6aZVAY"/></g><g id="el_UMiRROPlQ7w_an_qTcwTzjv8" data-animator-group="true" data-animator-type="0"><rect x="291.08" y="372.18" width="16.42" height="16.42" rx="3.22" id="el_UMiRROPlQ7w"/></g><rect x="21.81" y="251.01" width="14.11" height="14.11" rx="4.55" id="el_iUOKJxguU9B"/></svg>