<svg id="el_Mf25Oz9Wb" data-name="Layer 1" xmlns="http://www.w3.org/2000/svg" viewBox="0 0 319 565"><style>@-webkit-keyframes kf_el_FfCPpXrSOY_an_-2gHZzpA7{0%{-webkit-transform: translate(280.5899963378906px, 495.9700012207031px) translate(-280.5899963378906px, -495.9700012207031px) translate(0px, 30px);transform: translate(280.5899963378906px, 495.9700012207031px) translate(-280.5899963378906px, -495.9700012207031px) translate(0px, 30px);}47.78%{-webkit-transform: translate(280.5899963378906px, 495.9700012207031px) translate(-280.5899963378906px, -495.9700012207031px) translate(0px, 0px);transform: translate(280.5899963378906px, 495.9700012207031px) translate(-280.5899963378906px, -495.9700012207031px) translate(0px, 0px);}58.89%{-webkit-transform: translate(280.5899963378906px, 495.9700012207031px) translate(-280.5899963378906px, -495.9700012207031px) translate(0px, 10px);transform: translate(280.5899963378906px, 495.9700012207031px) translate(-280.5899963378906px, -495.9700012207031px) translate(0px, 10px);}70%{-webkit-transform: translate(280.5899963378906px, 495.9700012207031px) translate(-280.5899963378906px, -495.9700012207031px) translate(0px, 0px);transform: translate(280.5899963378906px, 495.9700012207031px) translate(-280.5899963378906px, -495.9700012207031px) translate(0px, 0px);}100%{-webkit-transform: translate(280.5899963378906px, 495.9700012207031px) translate(-280.5899963378906px, -495.9700012207031px) translate(0px, 30px);transform: translate(280.5899963378906px, 495.9700012207031px) translate(-280.5899963378906px, -495.9700012207031px) translate(0px, 30px);}}@keyframes kf_el_FfCPpXrSOY_an_-2gHZzpA7{0%{-webkit-transform: translate(280.5899963378906px, 495.9700012207031px) translate(-280.5899963378906px, -495.9700012207031px) translate(0px, 30px);transform: translate(280.5899963378906px, 495.9700012207031px) translate(-280.5899963378906px, -495.9700012207031px) translate(0px, 30px);}47.78%{-webkit-transform: translate(280.5899963378906px, 495.9700012207031px) translate(-280.5899963378906px, -495.9700012207031px) translate(0px, 0px);transform: translate(280.5899963378906px, 495.9700012207031px) translate(-280.5899963378906px, -495.9700012207031px) translate(0px, 0px);}58.89%{-webkit-transform: translate(280.5899963378906px, 495.9700012207031px) translate(-280.5899963378906px, -495.9700012207031px) translate(0px, 10px);transform: translate(280.5899963378906px, 495.9700012207031px) translate(-280.5899963378906px, -495.9700012207031px) translate(0px, 10px);}70%{-webkit-transform: translate(280.5899963378906px, 495.9700012207031px) translate(-280.5899963378906px, -495.9700012207031px) translate(0px, 0px);transform: translate(280.5899963378906px, 495.9700012207031px) translate(-280.5899963378906px, -495.9700012207031px) translate(0px, 0px);}100%{-webkit-transform: translate(280.5899963378906px, 495.9700012207031px) translate(-280.5899963378906px, -495.9700012207031px) translate(0px, 30px);transform: translate(280.5899963378906px, 495.9700012207031px) translate(-280.5899963378906px, -495.9700012207031px) translate(0px, 30px);}}@-webkit-keyframes kf_el_FfCPpXrSOY_an_xAkxsnqc0{0%{opacity: 1;}47.78%{opacity: 1;}58.89%{opacity: 0.5;}70%{opacity: 1;}100%{opacity: 1;}}@keyframes kf_el_FfCPpXrSOY_an_xAkxsnqc0{0%{opacity: 1;}47.78%{opacity: 1;}58.89%{opacity: 0.5;}70%{opacity: 1;}100%{opacity: 1;}}@-webkit-keyframes kf_el_QteXrkCrPBE_an_bsreXjNGi{0%{opacity: 0.5;}33.33%{opacity: 1;}50%{opacity: 0.75;}66.67%{opacity: 1;}100%{opacity: 0.5;}}@keyframes kf_el_QteXrkCrPBE_an_bsreXjNGi{0%{opacity: 0.5;}33.33%{opacity: 1;}50%{opacity: 0.75;}66.67%{opacity: 1;}100%{opacity: 0.5;}}@-webkit-keyframes kf_el_QteXrkCrPBE_an_3f4RCJ4Ti{0%{-webkit-transform: translate(24.239999771118164px, 543.6900024414062px) translate(-24.239999771118164px, -543.6900024414062px) translate(10px, 0px);transform: translate(24.239999771118164px, 543.6900024414062px) translate(-24.239999771118164px, -543.6900024414062px) translate(10px, 0px);}33.33%{-webkit-transform: translate(24.239999771118164px, 543.6900024414062px) translate(-24.239999771118164px, -543.6900024414062px) translate(-10px, 0px);transform: translate(24.239999771118164px, 543.6900024414062px) translate(-24.239999771118164px, -543.6900024414062px) translate(-10px, 0px);}50%{-webkit-transform: translate(24.239999771118164px, 543.6900024414062px) translate(-24.239999771118164px, -543.6900024414062px) translate(-5px, 0px);transform: translate(24.239999771118164px, 543.6900024414062px) translate(-24.239999771118164px, -543.6900024414062px) translate(-5px, 0px);}66.67%{-webkit-transform: translate(24.239999771118164px, 543.6900024414062px) translate(-24.239999771118164px, -543.6900024414062px) translate(-10px, 0px);transform: translate(24.239999771118164px, 543.6900024414062px) translate(-24.239999771118164px, -543.6900024414062px) translate(-10px, 0px);}100%{-webkit-transform: translate(24.239999771118164px, 543.6900024414062px) translate(-24.239999771118164px, -543.6900024414062px) translate(10px, 0px);transform: translate(24.239999771118164px, 543.6900024414062px) translate(-24.239999771118164px, -543.6900024414062px) translate(10px, 0px);}}@keyframes kf_el_QteXrkCrPBE_an_3f4RCJ4Ti{0%{-webkit-transform: translate(24.239999771118164px, 543.6900024414062px) translate(-24.239999771118164px, -543.6900024414062px) translate(10px, 0px);transform: translate(24.239999771118164px, 543.6900024414062px) translate(-24.239999771118164px, -543.6900024414062px) translate(10px, 0px);}33.33%{-webkit-transform: translate(24.239999771118164px, 543.6900024414062px) translate(-24.239999771118164px, -543.6900024414062px) translate(-10px, 0px);transform: translate(24.239999771118164px, 543.6900024414062px) translate(-24.239999771118164px, -543.6900024414062px) translate(-10px, 0px);}50%{-webkit-transform: translate(24.239999771118164px, 543.6900024414062px) translate(-24.239999771118164px, -543.6900024414062px) translate(-5px, 0px);transform: translate(24.239999771118164px, 543.6900024414062px) translate(-24.239999771118164px, -543.6900024414062px) translate(-5px, 0px);}66.67%{-webkit-transform: translate(24.239999771118164px, 543.6900024414062px) translate(-24.239999771118164px, -543.6900024414062px) translate(-10px, 0px);transform: translate(24.239999771118164px, 543.6900024414062px) translate(-24.239999771118164px, -543.6900024414062px) translate(-10px, 0px);}100%{-webkit-transform: translate(24.239999771118164px, 543.6900024414062px) translate(-24.239999771118164px, -543.6900024414062px) translate(10px, 0px);transform: translate(24.239999771118164px, 543.6900024414062px) translate(-24.239999771118164px, -543.6900024414062px) translate(10px, 0px);}}@-webkit-keyframes kf_el_RHGRny1p8n_an_2N8WdEyAN{0%{opacity: 1;}50%{opacity: 0;}100%{opacity: 1;}}@keyframes kf_el_RHGRny1p8n_an_2N8WdEyAN{0%{opacity: 1;}50%{opacity: 0;}100%{opacity: 1;}}@-webkit-keyframes kf_el_RHGRny1p8n_an_aUblirWPz{0%{-webkit-transform: translate(25.450000762939453px, 363.0199890136719px) translate(-25.450000762939453px, -363.0199890136719px) translate(0px, 0px);transform: translate(25.450000762939453px, 363.0199890136719px) translate(-25.450000762939453px, -363.0199890136719px) translate(0px, 0px);}50%{-webkit-transform: translate(25.450000762939453px, 363.0199890136719px) translate(-25.450000762939453px, -363.0199890136719px) translate(0px, 30px);transform: translate(25.450000762939453px, 363.0199890136719px) translate(-25.450000762939453px, -363.0199890136719px) translate(0px, 30px);}100%{-webkit-transform: translate(25.450000762939453px, 363.0199890136719px) translate(-25.450000762939453px, -363.0199890136719px) translate(0px, 0px);transform: translate(25.450000762939453px, 363.0199890136719px) translate(-25.450000762939453px, -363.0199890136719px) translate(0px, 0px);}}@keyframes kf_el_RHGRny1p8n_an_aUblirWPz{0%{-webkit-transform: translate(25.450000762939453px, 363.0199890136719px) translate(-25.450000762939453px, -363.0199890136719px) translate(0px, 0px);transform: translate(25.450000762939453px, 363.0199890136719px) translate(-25.450000762939453px, -363.0199890136719px) translate(0px, 0px);}50%{-webkit-transform: translate(25.450000762939453px, 363.0199890136719px) translate(-25.450000762939453px, -363.0199890136719px) translate(0px, 30px);transform: translate(25.450000762939453px, 363.0199890136719px) translate(-25.450000762939453px, -363.0199890136719px) translate(0px, 30px);}100%{-webkit-transform: translate(25.450000762939453px, 363.0199890136719px) translate(-25.450000762939453px, -363.0199890136719px) translate(0px, 0px);transform: translate(25.450000762939453px, 363.0199890136719px) translate(-25.450000762939453px, -363.0199890136719px) translate(0px, 0px);}}@-webkit-keyframes kf_el_oeNergMnvl_an_mFLD4psp0{0%{-webkit-transform: translate(63.18497657775879px, 503.9049835205078px) rotate(0deg) translate(-63.18497657775879px, -503.9049835205078px);transform: translate(63.18497657775879px, 503.9049835205078px) rotate(0deg) translate(-63.18497657775879px, -503.9049835205078px);}100%{-webkit-transform: translate(63.18497657775879px, 503.9049835205078px) rotate(90deg) translate(-63.18497657775879px, -503.9049835205078px);transform: translate(63.18497657775879px, 503.9049835205078px) rotate(90deg) translate(-63.18497657775879px, -503.9049835205078px);}}@keyframes kf_el_oeNergMnvl_an_mFLD4psp0{0%{-webkit-transform: translate(63.18497657775879px, 503.9049835205078px) rotate(0deg) translate(-63.18497657775879px, -503.9049835205078px);transform: translate(63.18497657775879px, 503.9049835205078px) rotate(0deg) translate(-63.18497657775879px, -503.9049835205078px);}100%{-webkit-transform: translate(63.18497657775879px, 503.9049835205078px) rotate(90deg) translate(-63.18497657775879px, -503.9049835205078px);transform: translate(63.18497657775879px, 503.9049835205078px) rotate(90deg) translate(-63.18497657775879px, -503.9049835205078px);}}@-webkit-keyframes kf_el_OBdD2MkmX7_an_IVwsUSb71{0%{-webkit-transform: translate(106.51499938964844px, 418.9450225830078px) rotate(0deg) translate(-106.51499938964844px, -418.9450225830078px);transform: translate(106.51499938964844px, 418.9450225830078px) rotate(0deg) translate(-106.51499938964844px, -418.9450225830078px);}100%{-webkit-transform: translate(106.51499938964844px, 418.9450225830078px) rotate(-90deg) translate(-106.51499938964844px, -418.9450225830078px);transform: translate(106.51499938964844px, 418.9450225830078px) rotate(-90deg) translate(-106.51499938964844px, -418.9450225830078px);}}@keyframes kf_el_OBdD2MkmX7_an_IVwsUSb71{0%{-webkit-transform: translate(106.51499938964844px, 418.9450225830078px) rotate(0deg) translate(-106.51499938964844px, -418.9450225830078px);transform: translate(106.51499938964844px, 418.9450225830078px) rotate(0deg) translate(-106.51499938964844px, -418.9450225830078px);}100%{-webkit-transform: translate(106.51499938964844px, 418.9450225830078px) rotate(-90deg) translate(-106.51499938964844px, -418.9450225830078px);transform: translate(106.51499938964844px, 418.9450225830078px) rotate(-90deg) translate(-106.51499938964844px, -418.9450225830078px);}}@-webkit-keyframes kf_el_CqfCDSUOgH_an_WlV6WfXJP{0%{-webkit-transform: translate(214.36492156982422px, 449.8650207519531px) rotate(0deg) translate(-214.36492156982422px, -449.8650207519531px);transform: translate(214.36492156982422px, 449.8650207519531px) rotate(0deg) translate(-214.36492156982422px, -449.8650207519531px);}100%{-webkit-transform: translate(214.36492156982422px, 449.8650207519531px) rotate(90deg) translate(-214.36492156982422px, -449.8650207519531px);transform: translate(214.36492156982422px, 449.8650207519531px) rotate(90deg) translate(-214.36492156982422px, -449.8650207519531px);}}@keyframes kf_el_CqfCDSUOgH_an_WlV6WfXJP{0%{-webkit-transform: translate(214.36492156982422px, 449.8650207519531px) rotate(0deg) translate(-214.36492156982422px, -449.8650207519531px);transform: translate(214.36492156982422px, 449.8650207519531px) rotate(0deg) translate(-214.36492156982422px, -449.8650207519531px);}100%{-webkit-transform: translate(214.36492156982422px, 449.8650207519531px) rotate(90deg) translate(-214.36492156982422px, -449.8650207519531px);transform: translate(214.36492156982422px, 449.8650207519531px) rotate(90deg) translate(-214.36492156982422px, -449.8650207519531px);}}@-webkit-keyframes kf_el_RsUt03iqSm_an_lY-nDOsLv{0%{opacity: 1;}100%{opacity: 1;}}@keyframes kf_el_RsUt03iqSm_an_lY-nDOsLv{0%{opacity: 1;}100%{opacity: 1;}}@-webkit-keyframes kf_el_RsUt03iqSm_an_O_Xt4UoHJ{0%{-webkit-transform: translate(159.39499855041504px, 572.3896484375px) translate(-159.39499855041504px, -572.3896484375px) translate(0px, 0px);transform: translate(159.39499855041504px, 572.3896484375px) translate(-159.39499855041504px, -572.3896484375px) translate(0px, 0px);}100%{-webkit-transform: translate(159.39499855041504px, 572.3896484375px) translate(-159.39499855041504px, -572.3896484375px) translate(0px, 0px);transform: translate(159.39499855041504px, 572.3896484375px) translate(-159.39499855041504px, -572.3896484375px) translate(0px, 0px);}}@keyframes kf_el_RsUt03iqSm_an_O_Xt4UoHJ{0%{-webkit-transform: translate(159.39499855041504px, 572.3896484375px) translate(-159.39499855041504px, -572.3896484375px) translate(0px, 0px);transform: translate(159.39499855041504px, 572.3896484375px) translate(-159.39499855041504px, -572.3896484375px) translate(0px, 0px);}100%{-webkit-transform: translate(159.39499855041504px, 572.3896484375px) translate(-159.39499855041504px, -572.3896484375px) translate(0px, 0px);transform: translate(159.39499855041504px, 572.3896484375px) translate(-159.39499855041504px, -572.3896484375px) translate(0px, 0px);}}@-webkit-keyframes kf_el_RsUt03iqSm_an_vi4OVCE0n{0%{-webkit-transform: translate(159.39499855041504px, 572.3896484375px) scale(1, 1) translate(-159.39499855041504px, -572.3896484375px);transform: translate(159.39499855041504px, 572.3896484375px) scale(1, 1) translate(-159.39499855041504px, -572.3896484375px);}100%{-webkit-transform: translate(159.39499855041504px, 572.3896484375px) scale(1, 1) translate(-159.39499855041504px, -572.3896484375px);transform: translate(159.39499855041504px, 572.3896484375px) scale(1, 1) translate(-159.39499855041504px, -572.3896484375px);}}@keyframes kf_el_RsUt03iqSm_an_vi4OVCE0n{0%{-webkit-transform: translate(159.39499855041504px, 572.3896484375px) scale(1, 1) translate(-159.39499855041504px, -572.3896484375px);transform: translate(159.39499855041504px, 572.3896484375px) scale(1, 1) translate(-159.39499855041504px, -572.3896484375px);}100%{-webkit-transform: translate(159.39499855041504px, 572.3896484375px) scale(1, 1) translate(-159.39499855041504px, -572.3896484375px);transform: translate(159.39499855041504px, 572.3896484375px) scale(1, 1) translate(-159.39499855041504px, -572.3896484375px);}}#el_Mf25Oz9Wb *{-webkit-animation-duration: 3s;animation-duration: 3s;-webkit-animation-iteration-count: infinite;animation-iteration-count: infinite;-webkit-animation-timing-function: cubic-bezier(0, 0, 1, 1);animation-timing-function: cubic-bezier(0, 0, 1, 1);}#el_CqfCDSUOgH{opacity: 0.6;}#el_wxnVE9qsHU{fill: #f2b762;}#el_OBdD2MkmX7{opacity: 0.6;}#el_ZIMMg_e0i9{fill: #f2b762;}#el_oeNergMnvl{opacity: 0.6;}#el_dtNBHlr9P1{fill: #f2b762;}#el_QfZzKe9aZx{fill: #f16b38;}#el_BwKzubhlhA{fill: #59c5d1;}#el_RHGRny1p8n{fill: #f2b762;-webkit-animation-fill-mode: forwards;animation-fill-mode: forwards;-webkit-animation-name: kf_el_RHGRny1p8n_an_2N8WdEyAN;animation-name: kf_el_RHGRny1p8n_an_2N8WdEyAN;-webkit-animation-timing-function: cubic-bezier(0, 0, 1, 1);animation-timing-function: cubic-bezier(0, 0, 1, 1);}#el_FfCPpXrSOY{fill: #0094a9;-webkit-animation-fill-mode: forwards;animation-fill-mode: forwards;-webkit-animation-name: kf_el_FfCPpXrSOY_an_xAkxsnqc0;animation-name: kf_el_FfCPpXrSOY_an_xAkxsnqc0;-webkit-animation-timing-function: cubic-bezier(0, 0, 1, 1);animation-timing-function: cubic-bezier(0, 0, 1, 1);}#el_a29FQyBGGI{fill: #f58a30;}#el_QteXrkCrPBE{fill: #59c5d1;-webkit-animation-fill-mode: forwards;animation-fill-mode: forwards;-webkit-animation-name: kf_el_QteXrkCrPBE_an_bsreXjNGi;animation-name: kf_el_QteXrkCrPBE_an_bsreXjNGi;-webkit-animation-timing-function: cubic-bezier(0, 0, 1, 1);animation-timing-function: cubic-bezier(0, 0, 1, 1);}#el__DDfOnSXygr{fill: #b8c4c5;}#el_Mg0_LX3w6mf{fill: #9aa9aa;}#el_m2AWsi0JT28{fill: #59c5d1;}#el_1j4TpV8wyF5{fill: #0094a9;}#el_uhUTdOCQEak{fill: #fcd0a8;}#el_SuHPSw4ThNt{fill: #375558;}#el_SgZ37WNItsU{fill: #9aa9aa;}#el_6XZdJxmGTmV{fill: #9aa9aa;}#el_vpKzk4yE5Dx{fill: #9aa9aa;}#el_ZQrnkC6VZrx{fill: #697f82;}#el_sXTB8CQWi1J{fill: #697f82;}#el_KjAWzeTN7qg{fill: #697f82;}#el_RmjjH7Q2PLG{fill: #f16b38;}#el_POq9rRMwUuA{fill: #ee363e;}#el_CBY3Ygks4WK{fill: #375558;}#el_gX5EADrdQ6t{fill: #f58a30;}#el_9-D-INgq4eM{fill: #375558;}#el_qz3SZUDaImB{fill: #f58a30;}#el_G8RkOSh-8jM{fill: #f58a30;}#el_DakrokxFRM_{fill: #375558;}#el_pSuiSMm7fnV{fill: #ee363e;}#el_z4G96dlLVOW{fill: #59c5d1;-webkit-transform: translate(-246.46px, 169.35px) rotate(-30deg);transform: translate(-246.46px, 169.35px) rotate(-30deg);}#el_j0ACzCuERWW{fill: #f58a30;}#el_MvUrC4MHMsn{fill: #375558;}#el_RsUt03iqSm_an_vi4OVCE0n{-webkit-animation-fill-mode: forwards;animation-fill-mode: forwards;-webkit-animation-name: kf_el_RsUt03iqSm_an_vi4OVCE0n;animation-name: kf_el_RsUt03iqSm_an_vi4OVCE0n;-webkit-animation-timing-function: cubic-bezier(0.42, 0, 0.58, 1);animation-timing-function: cubic-bezier(0.42, 0, 0.58, 1);}#el_RsUt03iqSm_an_O_Xt4UoHJ{-webkit-animation-fill-mode: forwards;animation-fill-mode: forwards;-webkit-animation-name: kf_el_RsUt03iqSm_an_O_Xt4UoHJ;animation-name: kf_el_RsUt03iqSm_an_O_Xt4UoHJ;-webkit-animation-timing-function: cubic-bezier(0, 0, 0.58, 1);animation-timing-function: cubic-bezier(0, 0, 0.58, 1);}#el_RsUt03iqSm{-webkit-animation-fill-mode: forwards;animation-fill-mode: forwards;-webkit-animation-name: kf_el_RsUt03iqSm_an_lY-nDOsLv;animation-name: kf_el_RsUt03iqSm_an_lY-nDOsLv;-webkit-animation-timing-function: cubic-bezier(0, 0, 1, 1);animation-timing-function: cubic-bezier(0, 0, 1, 1);}#el_CqfCDSUOgH_an_WlV6WfXJP{-webkit-animation-fill-mode: forwards;animation-fill-mode: forwards;-webkit-animation-name: kf_el_CqfCDSUOgH_an_WlV6WfXJP;animation-name: kf_el_CqfCDSUOgH_an_WlV6WfXJP;-webkit-animation-timing-function: cubic-bezier(0, 0, 1, 1);animation-timing-function: cubic-bezier(0, 0, 1, 1);}#el_OBdD2MkmX7_an_IVwsUSb71{-webkit-animation-fill-mode: forwards;animation-fill-mode: forwards;-webkit-animation-name: kf_el_OBdD2MkmX7_an_IVwsUSb71;animation-name: kf_el_OBdD2MkmX7_an_IVwsUSb71;-webkit-animation-timing-function: cubic-bezier(0, 0, 1, 1);animation-timing-function: cubic-bezier(0, 0, 1, 1);}#el_oeNergMnvl_an_mFLD4psp0{-webkit-animation-fill-mode: forwards;animation-fill-mode: forwards;-webkit-animation-name: kf_el_oeNergMnvl_an_mFLD4psp0;animation-name: kf_el_oeNergMnvl_an_mFLD4psp0;-webkit-animation-timing-function: cubic-bezier(0, 0, 1, 1);animation-timing-function: cubic-bezier(0, 0, 1, 1);}#el_RHGRny1p8n_an_aUblirWPz{-webkit-animation-fill-mode: forwards;animation-fill-mode: forwards;-webkit-animation-name: kf_el_RHGRny1p8n_an_aUblirWPz;animation-name: kf_el_RHGRny1p8n_an_aUblirWPz;-webkit-animation-timing-function: cubic-bezier(0, 0, 1, 1);animation-timing-function: cubic-bezier(0, 0, 1, 1);}#el_QteXrkCrPBE_an_3f4RCJ4Ti{-webkit-animation-fill-mode: forwards;animation-fill-mode: forwards;-webkit-animation-name: kf_el_QteXrkCrPBE_an_3f4RCJ4Ti;animation-name: kf_el_QteXrkCrPBE_an_3f4RCJ4Ti;-webkit-animation-timing-function: cubic-bezier(0, 0, 1, 1);animation-timing-function: cubic-bezier(0, 0, 1, 1);}#el_FfCPpXrSOY_an_-2gHZzpA7{-webkit-animation-fill-mode: forwards;animation-fill-mode: forwards;-webkit-animation-name: kf_el_FfCPpXrSOY_an_-2gHZzpA7;animation-name: kf_el_FfCPpXrSOY_an_-2gHZzpA7;-webkit-animation-timing-function: cubic-bezier(0, 0, 1, 1);animation-timing-function: cubic-bezier(0, 0, 1, 1);}</style><defs/><title>mobile-opp-design-header</title><g id="el_RsUt03iqSm_an_O_Xt4UoHJ" data-animator-group="true" data-animator-type="0"><g id="el_RsUt03iqSm_an_vi4OVCE0n" data-animator-group="true" data-animator-type="2"><g id="el_RsUt03iqSm"><g id="el_CqfCDSUOgH_an_WlV6WfXJP" data-animator-group="true" data-animator-type="1"><g id="el_CqfCDSUOgH"><g id="el_TMQ6v6-hML" data-name="666-gear2.png"><path d="M288.75,449.08a5.25,5.25,0,0,0-4.55-5.21l-8.06-1.15a5.29,5.29,0,0,1-4.46-4.23,59.56,59.56,0,0,0-2-7.43,5.29,5.29,0,0,1,1.76-5.87l6.39-5a5.25,5.25,0,0,0,1.31-6.81l-.71-1.21a5.32,5.32,0,0,0-6.58-2.25L264.3,413a5.37,5.37,0,0,1-6-1.42,58.08,58.08,0,0,0-5.45-5.42,5.28,5.28,0,0,1-1.42-5.95l3-7.55a5.23,5.23,0,0,0-2.29-6.54l-1.22-.71a5.3,5.3,0,0,0-6.81,1.33l-5,6.36a5.38,5.38,0,0,1-5.89,1.75,57.33,57.33,0,0,0-7.5-1.95,5.32,5.32,0,0,1-4.25-4.44l-1.16-8a5.31,5.31,0,0,0-5.27-4.61h-1.43a5.29,5.29,0,0,0-5.26,4.53l-1.16,8a5.31,5.31,0,0,1-4.26,4.44,62.51,62.51,0,0,0-7.5,2,5.34,5.34,0,0,1-5.89-1.74l-5-6.31a5.31,5.31,0,0,0-6.84-1.3l-1.22.71a5.23,5.23,0,0,0-2.26,6.54l3,7.55a5.31,5.31,0,0,1-1.43,5.95,62.62,62.62,0,0,0-5.48,5.45,5.35,5.35,0,0,1-6,1.42L156.87,410a5.32,5.32,0,0,0-6.58,2.25l-.68,1.21a5.28,5.28,0,0,0,1.31,6.81l6.39,5a5.34,5.34,0,0,1,1.76,5.87,52.75,52.75,0,0,0-2,7.43,5.31,5.31,0,0,1-4.47,4.23l-8.09,1.15a5.2,5.2,0,0,0-4.55,5.18v1.43a5.3,5.3,0,0,0,4.55,5.24l8.09,1.15a5.31,5.31,0,0,1,4.47,4.23,59.54,59.54,0,0,0,2,7.43,5.23,5.23,0,0,1-1.76,5.84l-6.39,5a5.25,5.25,0,0,0-1.31,6.81l.71,1.21a5.32,5.32,0,0,0,6.58,2.25l7.58-3a5.36,5.36,0,0,1,6,1.42,58.08,58.08,0,0,0,5.45,5.42,5.3,5.3,0,0,1,1.43,5.95l-3,7.55a5.23,5.23,0,0,0,2.29,6.54l1.22.71a5.29,5.29,0,0,0,6.81-1.3l5-6.36a5.38,5.38,0,0,1,5.89-1.75,53.61,53.61,0,0,0,7.47,1.95,5.31,5.31,0,0,1,4.26,4.44l1.16,8.06a5.3,5.3,0,0,0,5.26,4.53h1.43a5.32,5.32,0,0,0,5.27-4.53l1.16-8.06a5.29,5.29,0,0,1,4.25-4.44,60.6,60.6,0,0,0,7.47-1.95,5.27,5.27,0,0,1,5.86,1.75l5,6.36a5.3,5.3,0,0,0,6.84,1.3l1.22-.71a5.27,5.27,0,0,0,2.26-6.54l-3.06-7.55a5.29,5.29,0,0,1,1.42-5.95,58.08,58.08,0,0,0,5.45-5.42,5.36,5.36,0,0,1,6-1.42l7.58,3.05a5.32,5.32,0,0,0,6.58-2.28l.71-1.21a5.29,5.29,0,0,0-1.34-6.81l-6.39-5a5.31,5.31,0,0,1-1.76-5.84,62.46,62.46,0,0,0,2-7.43,5.29,5.29,0,0,1,4.46-4.23l8.09-1.15a5.3,5.3,0,0,0,4.55-5.24v-1.46ZM214.38,486.8a37,37,0,1,1,37.18-37A37.11,37.11,0,0,1,214.38,486.8Z" id="el_wxnVE9qsHU"/></g></g></g><g id="el_OBdD2MkmX7_an_IVwsUSb71" data-animator-group="true" data-animator-type="1"><g id="el_OBdD2MkmX7" data-name="gear"><g id="el_P6a0tWA0FZ" data-name="666-gear2.png"><path d="M135.71,418.64a2.06,2.06,0,0,0-1.78-2l-3.16-.45a2.07,2.07,0,0,1-1.75-1.66,23,23,0,0,0-.77-2.91,2.07,2.07,0,0,1,.69-2.3l2.51-2a2.07,2.07,0,0,0,.51-2.67l-.28-.48a2.09,2.09,0,0,0-2.58-.88l-3,1.2a2.12,2.12,0,0,1-2.35-.56,22.44,22.44,0,0,0-2.13-2.12,2.07,2.07,0,0,1-.56-2.33l1.19-3a2.05,2.05,0,0,0-.9-2.57l-.48-.28a2.08,2.08,0,0,0-2.67.53l-2,2.49a2.12,2.12,0,0,1-2.31.69,22.68,22.68,0,0,0-2.94-.77,2.08,2.08,0,0,1-1.67-1.74l-.45-3.15a2.1,2.1,0,0,0-2.07-1.81h-.56a2.08,2.08,0,0,0-2.06,1.78l-.46,3.14a2.06,2.06,0,0,1-1.66,1.74,25.34,25.34,0,0,0-2.94.77,2.1,2.1,0,0,1-2.31-.68l-1.95-2.48a2.08,2.08,0,0,0-2.68-.51l-.48.28a2,2,0,0,0-.88,2.57l1.19,3a2.09,2.09,0,0,1-.56,2.33,25.41,25.41,0,0,0-2.15,2.13,2.1,2.1,0,0,1-2.34.56l-3-1.2a2.08,2.08,0,0,0-2.57.89l-.27.47a2.09,2.09,0,0,0,.51,2.67l2.51,2a2.09,2.09,0,0,1,.69,2.3,19.48,19.48,0,0,0-.77,2.91,2.09,2.09,0,0,1-1.75,1.66l-3.17.45a2,2,0,0,0-1.79,2v.56a2.08,2.08,0,0,0,1.79,2.05l3.17.46a2.07,2.07,0,0,1,1.75,1.65,21.58,21.58,0,0,0,.77,2.92,2,2,0,0,1-.69,2.28l-2.51,2a2.06,2.06,0,0,0-.51,2.67l.28.48a2.09,2.09,0,0,0,2.58.88l3-1.18a2.09,2.09,0,0,1,2.34.55,23.9,23.9,0,0,0,2.14,2.13,2.08,2.08,0,0,1,.56,2.33l-1.19,3a2,2,0,0,0,.89,2.56l.48.28a2.08,2.08,0,0,0,2.67-.51l2-2.5a2.12,2.12,0,0,1,2.31-.68,23,23,0,0,0,2.93.77,2.08,2.08,0,0,1,1.67,1.74l.45,3.15a2.09,2.09,0,0,0,2.06,1.78h.56a2.09,2.09,0,0,0,2.07-1.78l.45-3.15a2.08,2.08,0,0,1,1.67-1.74,25.71,25.71,0,0,0,2.93-.77,2.06,2.06,0,0,1,2.29.68l2,2.5a2.1,2.1,0,0,0,2.69.51l.47-.28a2.06,2.06,0,0,0,.89-2.56l-1.2-3a2.06,2.06,0,0,1,.56-2.33,22.54,22.54,0,0,0,2.13-2.13,2.1,2.1,0,0,1,2.35-.55l3,1.19a2.1,2.1,0,0,0,2.58-.89l.28-.48a2.08,2.08,0,0,0-.53-2.67l-2.51-1.95a2.07,2.07,0,0,1-.68-2.28,26.51,26.51,0,0,0,.77-2.91,2.06,2.06,0,0,1,1.75-1.66l3.17-.46a2.08,2.08,0,0,0,1.78-2.05v-.57Zm-29.15,14.78a14.5,14.5,0,1,1,14.58-14.5A14.54,14.54,0,0,1,106.56,433.42Z" id="el_ZIMMg_e0i9"/></g></g></g><g id="el_oeNergMnvl_an_mFLD4psp0" data-animator-group="true" data-animator-type="1"><g id="el_oeNergMnvl" data-name="gear"><g id="el_Orllo6vGSC" data-name="666-gear2.png"><path d="M99.23,503.57A2.55,2.55,0,0,0,97,501l-3.91-.56a2.6,2.6,0,0,1-2.17-2.05,28.55,28.55,0,0,0-1-3.61,2.58,2.58,0,0,1,.85-2.84L94,489.56a2.56,2.56,0,0,0,.63-3.31l-.35-.59a2.58,2.58,0,0,0-3.18-1.09l-3.68,1.48a2.6,2.6,0,0,1-2.9-.69,29.66,29.66,0,0,0-2.64-2.62,2.57,2.57,0,0,1-.7-2.89l1.47-3.66A2.53,2.53,0,0,0,81.49,473l-.59-.35a2.57,2.57,0,0,0-3.3.65l-2.43,3.08a2.58,2.58,0,0,1-2.85.85,29.93,29.93,0,0,0-3.64-.95,2.57,2.57,0,0,1-2.06-2.15l-.56-3.89A2.58,2.58,0,0,0,63.5,468h-.69a2.56,2.56,0,0,0-2.55,2.2l-.57,3.89a2.57,2.57,0,0,1-2.06,2.15,29.93,29.93,0,0,0-3.64.95,2.58,2.58,0,0,1-2.85-.85l-2.41-3.06a2.59,2.59,0,0,0-3.32-.63l-.59.35a2.54,2.54,0,0,0-1.1,3.17l1.47,3.66a2.57,2.57,0,0,1-.69,2.89,28.8,28.8,0,0,0-2.66,2.64,2.59,2.59,0,0,1-2.9.69l-3.67-1.48a2.56,2.56,0,0,0-3.19,1.09l-.34.59a2.57,2.57,0,0,0,.64,3.3l3.1,2.43a2.57,2.57,0,0,1,.85,2.84,26.5,26.5,0,0,0-.95,3.6,2.57,2.57,0,0,1-2.16,2.06l-3.93.56a2.51,2.51,0,0,0-2.21,2.51v.69a2.58,2.58,0,0,0,2.21,2.54l3.93.56a2.56,2.56,0,0,1,2.16,2.05,29.69,29.69,0,0,0,.95,3.6,2.52,2.52,0,0,1-.85,2.83l-3.1,2.43a2.56,2.56,0,0,0-.64,3.3l.35.59a2.57,2.57,0,0,0,3.19,1.09L39,521.79a2.58,2.58,0,0,1,2.9.69,27.2,27.2,0,0,0,2.64,2.62,2.56,2.56,0,0,1,.69,2.89l-1.47,3.66a2.54,2.54,0,0,0,1.11,3.17l.59.35a2.59,2.59,0,0,0,3.31-.63l2.44-3.09A2.6,2.6,0,0,1,54,530.6a27.17,27.17,0,0,0,3.62.95,2.57,2.57,0,0,1,2.07,2.15l.56,3.91a2.58,2.58,0,0,0,2.55,2.2h.7a2.58,2.58,0,0,0,2.55-2.2l.56-3.91a2.57,2.57,0,0,1,2.07-2.15,28.7,28.7,0,0,0,3.62-.95,2.56,2.56,0,0,1,2.84.85l2.44,3.09a2.59,2.59,0,0,0,3.32.63l.59-.35a2.55,2.55,0,0,0,1.09-3.17L81.12,528a2.57,2.57,0,0,1,.69-2.89,27.2,27.2,0,0,0,2.64-2.62,2.58,2.58,0,0,1,2.9-.69L91,523.27a2.58,2.58,0,0,0,3.19-1.11l.35-.59a2.57,2.57,0,0,0-.65-3.3l-3.11-2.41A2.58,2.58,0,0,1,90,513a31.81,31.81,0,0,0,1-3.6,2.57,2.57,0,0,1,2.16-2.06l3.92-.56a2.56,2.56,0,0,0,2.21-2.54v-.7ZM63.16,521.86a17.95,17.95,0,1,1,18-17.95A18,18,0,0,1,63.16,521.86Z" id="el_dtNBHlr9P1"/></g></g></g><rect x="44.89" y="412.4" width="13.96" height="13.96" rx="4.55" id="el_QfZzKe9aZx"/><rect x="275.83" y="376.37" width="9.87" height="9.87" rx="3.22" id="el_BwKzubhlhA"/><g id="el_RHGRny1p8n_an_aUblirWPz" data-animator-group="true" data-animator-type="0"><rect x="25.45" y="363.02" width="13.96" height="13.96" rx="4.55" id="el_RHGRny1p8n"/></g><g id="el_FfCPpXrSOY_an_-2gHZzpA7" data-animator-group="true" data-animator-type="0"><rect x="280.59" y="495.97" width="13.96" height="13.96" rx="4.55" id="el_FfCPpXrSOY"/></g><rect x="256.88" y="522.61" width="13.96" height="13.96" rx="4.55" id="el_a29FQyBGGI"/><g id="el_QteXrkCrPBE_an_3f4RCJ4Ti" data-animator-group="true" data-animator-type="0"><rect x="24.24" y="543.69" width="9.87" height="9.87" rx="3.22" id="el_QteXrkCrPBE"/></g><g id="el_3N3jDHP6D5O"><path d="M67.09,513.12h38.76a.8.8,0,0,1,.8.8v26.35a3.34,3.34,0,0,1-3.34,3.34H69.51a3.34,3.34,0,0,1-3.34-3.34V514A.93.93,0,0,1,67.09,513.12Z" id="el__DDfOnSXygr"/><path d="M86.76,542.34l-13.64.17c-3.6,0-6.93-2.86-6.93-6.45V513.9a2.26,2.26,0,0,1,2.2-1.88H86.85Z" id="el_Mg0_LX3w6mf"/><path d="M70.93,514.55h31.24a4.18,4.18,0,0,0,4.18-4.18l0-2.68V476.42a4.18,4.18,0,0,0-.44-1.87L90.25,443.31a4.19,4.19,0,0,0-7.48,0L67.15,474.55a4.18,4.18,0,0,0-.44,1.87V554.5c0,.11,0,.21,0,.32l0-44.45A4.18,4.18,0,0,0,70.93,514.55Z" id="el_m2AWsi0JT28"/><path d="M66.73,510.37a4.19,4.19,0,0,0,4.19,4.18h16V441l-.43,0a4.15,4.15,0,0,0-3,1.23,4.2,4.2,0,0,0-.78,1.08L67.14,474.55a4.18,4.18,0,0,0-.44,1.87" id="el_1j4TpV8wyF5"/><path d="M105.86,474.55,90.24,443.31a4.19,4.19,0,0,0-7.48,0L67.14,474.55a4.19,4.19,0,0,0,.18,4.07h38.35A4.19,4.19,0,0,0,105.86,474.55Z" id="el_uhUTdOCQEak"/><path d="M83.58,432.55a4.13,4.13,0,0,1,3-1.22,4.19,4.19,0,0,1,4.19,4.18V445a4.19,4.19,0,1,1-8.37,0v-9.46A4.16,4.16,0,0,1,83.58,432.55Z" id="el_SuHPSw4ThNt"/><rect x="64.45" y="511.93" width="44.16" height="5.78" rx="1.48" id="el_SgZ37WNItsU"/><rect x="64.45" y="523.44" width="44.16" height="5.78" rx="1.48" id="el_6XZdJxmGTmV"/><rect x="64.43" y="533.79" width="44.16" height="5.78" rx="1.48" id="el_vpKzk4yE5Dx"/><path d="M86.87,511.91H67.34a2.9,2.9,0,0,0-2.89,2.89h0a2.91,2.91,0,0,0,2.89,2.9H86.87" id="el_ZQrnkC6VZrx"/><path d="M86.82,523.43H67.34a2.9,2.9,0,0,0-2.89,2.89h0a2.9,2.9,0,0,0,2.89,2.89H86.82" id="el_sXTB8CQWi1J"/><path d="M86.8,533.8l-19.47,0a2.91,2.91,0,0,0-2.9,2.89h0a2.91,2.91,0,0,0,2.9,2.89l19.47,0" id="el_KjAWzeTN7qg"/><path d="M65.87,552.32a6.56,6.56,0,0,0,6.54,6.54H99.82a6.55,6.55,0,0,0,6.53-6.54V539.26l-40.48,0Z" id="el_RmjjH7Q2PLG"/><path d="M65.91,539.25l0,13a6.55,6.55,0,0,0,6.53,6.54H86.83V539.23Z" id="el_POq9rRMwUuA"/><path d="M184,427.12c-3.14-.81-10.09.33-13.1,1.5a10,10,0,0,0-6.27,6.89c-.86,3.94,1.2,8,.54,12-.75,4.52-4.76,7.75-6.62,11.94a4.77,4.77,0,0,0-.5,2.5c.38,2.82,4.48,3.75,5.19,6.5.83,3.18-3.33,5.53-3.81,8.78-.34,2.35,1.44,4.59,3.6,5.57s4.62,1,7,1l5.47,0c1.8,0,3.8-.09,5.08-1.35,1.49-1.47,1.36-3.86,1.11-5.93-1.54-12.84-.62-24.47.72-37.33Z" id="el_CBY3Ygks4WK"/><path d="M168.74,481.56a26.37,26.37,0,0,0-4,1.35c-2.73,1.6-4.31,4.45-6.09,7-2.11,3-4.66,5.68-7,8.49q-5.15,6.21-10.11,12.57c-1.41,1.79-6.2,10.39-9.25,8.42-2.86-1.9-22.94-15.59-22.94-15.59l-3.15-3-7.29.24s-3.57,2.93-4.13,3.41a6.21,6.21,0,0,1-2.45.87c-.32,0,.23,2.14,1.66,2.14a20.08,20.08,0,0,0,5.87-1.74c.55-.4,6.34,1.9,6.34,1.9l.16,4.61s19.81,19.63,20.76,20.74,5.08,3.54,6.42,3.62a6.55,6.55,0,0,0,3.73-1.19c.95-.63,29.59-29,29.59-29Z" id="el_gX5EADrdQ6t"/><path d="M182.68,426.88a30.9,30.9,0,0,1,14-1.92c3.38.38,7,1.15,9.26,3.68,5.1,5.69,0,15.56,4.05,22.05,1.39,2.22,3.66,3.7,5.49,5.57s3.28,4.57,2.4,7c-.49,1.37-1.63,2.43-2.13,3.79-1.57,4.38,4,8.13,4.62,12.75.53,4-3,7.63-6.92,8.75s-8.05.42-12.08,0c0,0-9.79-4.67-11.06-6.89S182.68,426.88,182.68,426.88Z" id="el_9-D-INgq4eM"/><path d="M182.36,431.88s-8.56,1.9-10.46,12.68-2.54,31.4,9.51,33,18.4-2.22,20.62-17.76S202,429.65,182.36,431.88Z" id="el_qz3SZUDaImB"/><polygon points="193.78 485.79 192.51 472.47 181.09 472.16 180.14 486.43 193.78 485.79" id="el_G8RkOSh-8jM"/><path d="M182.19,431.75c2.3,3,6,7.38,9.75,8.25,1.1.25,2.32.32,3.15,1.08,1.83,1.7.07,4.72.39,7.18.38,3.07,3.83,4.67,5.47,7.28.52.82,1.06,3.26.74,6.74-.18,1.88,4.7-3.71,5.86-5.19a7,7,0,0,0,1-5.39c-.27-1.86-.93-3.65-1.23-5.5-.73-4.52.47-9.8-2.59-13.2-1.85-2-4.73-2.71-7.43-3.28l-9.88-2.07Z" id="el_DakrokxFRM_"/><path d="M193.4,480.6s10.63.81,14.72,2.8c.26.13,3.09,1.4,3.2,1.89.93,4.08-4.52,16.78-4.52,16.78s-2.74,11-1.05,20.3,12.5,43.44,12.5,43.44S205.54,574.28,185,572s-29-6.34-29-6.34,10.15-39.44,9.72-42a57.68,57.68,0,0,0-3.47-11.12c-3.77-6.95-1.09-14.74,1.65-21.72,1.27-3.23,2.6-6.44,3.94-9.66l12.53-1S187.69,487.79,193.4,480.6Z" id="el_pSuiSMm7fnV"/><rect x="180.89" y="527.18" width="23.77" height="34.8" rx="2.31" id="el_z4G96dlLVOW"/><path d="M206.87,484.49c.91-.33,3.14.84,3.83,1.14a14.48,14.48,0,0,1,4.56,2.91c3,3,25.8,24.95,27.07,26.64s.63,7-1.27,9.51-23.26,23.69-23.26,23.69-6.13,7.4-8.88,8-11.21-.42-11.21-.42-2.75-3.6-2.32-4.23,8.67-3.17,8.67-3.17l2.74-3.39-2.11-3.8,3.17-1.48,4.18.68s12.83-16.76,15.7-20.77c1-1.48-21.57-16.28-21.57-16.28a5.27,5.27,0,0,1-1.44-2,13.27,13.27,0,0,1-1-6.9,24.57,24.57,0,0,1,1.09-5.23c.32-1,.71-2.07,1.13-3.07a5.92,5.92,0,0,1,.74-1.68A.64.64,0,0,1,206.87,484.49Z" id="el_j0ACzCuERWW"/><path d="M193,564.59a3.44,3.44,0,0,1-4.69-1.25l-13.72-23.76a3.45,3.45,0,0,1,1.26-4.69Z" id="el_MvUrC4MHMsn"/></g></g></g></g></svg>