<svg id="Layer_1" data-name="Layer 1" xmlns="http://www.w3.org/2000/svg" viewBox="0 0 292 262"><defs><style>.cls-1{opacity:0.35;}.cls-2{fill:#f68c31;}.cls-3{fill:#f3b863;}.cls-4{fill:#f36b39;}.cls-5{fill:#5ac7d2;}.cls-6{fill:#b9c5c6;}.cls-7{fill:#9baaab;}.cls-8{fill:#0095aa;}.cls-9{fill:#fdd1aa;}.cls-10{fill:#375659;}.cls-11{fill:#698083;}.cls-12{fill:#ef373f;}</style></defs><title>opportunities-designer-01</title><g id="el_BFcTF94GOQ" data-name="el BFcTF94GOQ" class="cls-1"><g id="el_veOVCfosIF" data-name="el veOVCfosIF"><path id="el_FqMLS2u4aJ" data-name="el FqMLS2u4aJ" class="cls-2" d="M184.33,60.43a1.79,1.79,0,0,0-1.56-1.78l-2.77-.4a1.83,1.83,0,0,1-1.53-1.45,19.9,19.9,0,0,0-.67-2.55,1.8,1.8,0,0,1,.6-2l2.2-1.72a1.8,1.8,0,0,0,.44-2.33l-.24-.42a1.83,1.83,0,0,0-2.26-.77l-2.6,1a1.81,1.81,0,0,1-2-.48A21.88,21.88,0,0,0,172,45.7a1.8,1.8,0,0,1-.49-2l1-2.59a1.79,1.79,0,0,0-.79-2.24l-.42-.24A1.81,1.81,0,0,0,169,39l-1.72,2.19a1.84,1.84,0,0,1-2,.6,19.07,19.07,0,0,0-2.57-.68,1.81,1.81,0,0,1-1.46-1.52l-.4-2.75a1.82,1.82,0,0,0-1.8-1.58h-.5a1.81,1.81,0,0,0-1.8,1.55l-.42,2.75a1.81,1.81,0,0,1-1.46,1.52,22.24,22.24,0,0,0-2.52.66,1.83,1.83,0,0,1-2-.59L148.68,39a1.83,1.83,0,0,0-2.39-.46l-.42.25a1.79,1.79,0,0,0-.78,2.24l1,2.59a1.81,1.81,0,0,1-.48,2,23.57,23.57,0,0,0-1.87,1.87,1.84,1.84,0,0,1-2.05.49l-2.6-1a1.83,1.83,0,0,0-2.26.77l-.23.43a1.81,1.81,0,0,0,.45,2.33l2.19,1.71a1.82,1.82,0,0,1,.6,2,18.76,18.76,0,0,0-.67,2.55,1.83,1.83,0,0,1-1.54,1.45l-2.78.39a1.78,1.78,0,0,0-1.55,1.79v.49a1.82,1.82,0,0,0,1.56,1.8l2.77.39a1.82,1.82,0,0,1,1.53,1.45,22.78,22.78,0,0,0,.67,2.55,1.79,1.79,0,0,1-.6,2l-2.19,1.71a1.82,1.82,0,0,0-.45,2.34l.25.42a1.81,1.81,0,0,0,2.25.77l2.6-1a1.84,1.84,0,0,1,2.05.49,20.52,20.52,0,0,0,1.87,1.86,1.8,1.8,0,0,1,.49,2l-1,2.59a1.79,1.79,0,0,0,.79,2.24l.42.24a1.82,1.82,0,0,0,2.33-.44l1.73-2.19a1.85,1.85,0,0,1,2-.6,18.93,18.93,0,0,0,2.56.68,1.78,1.78,0,0,1,1.45,1.52l.43,2.76a1.82,1.82,0,0,0,1.8,1.55h.49a1.82,1.82,0,0,0,1.8-1.55l.42-2.76a1.81,1.81,0,0,1,1.46-1.52,20.53,20.53,0,0,0,2.56-.68,1.82,1.82,0,0,1,2,.6l1.72,2.19a1.82,1.82,0,0,0,2.35.44l.42-.24a1.82,1.82,0,0,0,.78-2.24l-1.06-2.59a1.82,1.82,0,0,1,.49-2,20.52,20.52,0,0,0,1.87-1.86,1.84,1.84,0,0,1,2-.49l2.6,1a1.84,1.84,0,0,0,2.26-.78l.24-.42a1.82,1.82,0,0,0-.46-2.34l-2.19-1.7a1.8,1.8,0,0,1-.6-2,22.78,22.78,0,0,0,.67-2.55A1.82,1.82,0,0,1,180,63.12l2.77-.4a1.8,1.8,0,0,0,1.56-1.79v-.5Zm-25.5,12.93a12.69,12.69,0,1,1,12.75-12.68,12.69,12.69,0,0,1-12.75,12.68Z"/></g></g><g id="el_wzScLPqPsq" data-name="el wzScLPqPsq" class="cls-1"><g id="el_zgfzd5aa3q" data-name="el zgfzd5aa3q"><path id="el_E7oRD_R84" data-name="el E7oRD  R84" class="cls-2" d="M200.21,188.92a3.4,3.4,0,0,0-2.94-3.36l-5.22-.75a3.42,3.42,0,0,1-2.89-2.74,39.53,39.53,0,0,0-1.26-4.81,3.44,3.44,0,0,1,1.14-3.79l4.14-3.23a3.41,3.41,0,0,0,.84-4.41l-.46-.79a3.45,3.45,0,0,0-4.26-1.45l-4.92,1.94a3.48,3.48,0,0,1-3.88-.92A37.62,37.62,0,0,0,177,161.1a3.41,3.41,0,0,1-.92-3.85l2-4.88a3.38,3.38,0,0,0-1.48-4.24l-.79-.46a3.45,3.45,0,0,0-4.41.87l-3.23,4.12a3.52,3.52,0,0,1-3.82,1.13,37.16,37.16,0,0,0-4.85-1.26,3.45,3.45,0,0,1-2.76-2.88l-.75-5.19a3.45,3.45,0,0,0-3.41-3h-.92a3.45,3.45,0,0,0-3.42,2.94l-.74,5.2a3.43,3.43,0,0,1-2.76,2.87,38.86,38.86,0,0,0-4.85,1.27,3.47,3.47,0,0,1-3.82-1.14l-3.22-4.08a3.45,3.45,0,0,0-4.43-.84l-.78.44a3.4,3.4,0,0,0-1.47,4.24l2,4.89a3.43,3.43,0,0,1-.92,3.85,39.42,39.42,0,0,0-3.55,3.53,3.46,3.46,0,0,1-3.87.92l-4.91-2a3.46,3.46,0,0,0-4.26,1.46l-.42.79a3.41,3.41,0,0,0,.84,4.4l4.14,3.24a3.45,3.45,0,0,1,1.13,3.79,36.18,36.18,0,0,0-1.26,4.81,3.44,3.44,0,0,1-2.89,2.74l-5.24.75a3.36,3.36,0,0,0-2.94,3.36v.92a3.43,3.43,0,0,0,2.94,3.39l5.24.75a3.42,3.42,0,0,1,2.89,2.74,39.53,39.53,0,0,0,1.26,4.81,3.35,3.35,0,0,1-1.13,3.78L111,208.55a3.4,3.4,0,0,0-.84,4.41l.46.79a3.45,3.45,0,0,0,4.26,1.45l4.91-1.95a3.47,3.47,0,0,1,3.87.92,37.3,37.3,0,0,0,3.51,3.49,3.43,3.43,0,0,1,.92,3.85l-2,4.89a3.39,3.39,0,0,0,1.47,4.25l.79.46a3.43,3.43,0,0,0,4.41-.84l3.26-4.12a3.46,3.46,0,0,1,3.81-1.13,35,35,0,0,0,4.83,1.26,3.43,3.43,0,0,1,2.76,2.88l.75,5.21a3.43,3.43,0,0,0,3.41,2.94h.92a3.43,3.43,0,0,0,3.41-2.94l.75-5.21a3.43,3.43,0,0,1,2.76-2.88,40.33,40.33,0,0,0,4.83-1.26,3.43,3.43,0,0,1,3.79,1.13l3.25,4.12a3.43,3.43,0,0,0,4.43.84l.79-.46a3.4,3.4,0,0,0,1.46-4.23l-2-4.89a3.45,3.45,0,0,1,.92-3.86,37.62,37.62,0,0,0,3.53-3.5,3.47,3.47,0,0,1,3.87-.92l4.91,2a3.45,3.45,0,0,0,4.26-1.47L194,213a3.42,3.42,0,0,0-.86-4.41L189,205.33a3.41,3.41,0,0,1-1.14-3.78,40.17,40.17,0,0,0,1.26-4.82A3.44,3.44,0,0,1,192,194l5.24-.74a3.44,3.44,0,0,0,2.94-3.4v-.94Zm-48.15,24.42a24,24,0,1,1,24.07-24A24,24,0,0,1,152.06,213.34Z"/></g></g><g id="el_SP4bMoPOIz" data-name="el SP4bMoPOIz" class="cls-1"><g id="el_UtJud0IMcX" data-name="el UtJud0IMcX"><g id="el_tYQidQwerH_an_oktP3LK38" data-name="el tYQidQwerH an oktP3LK38"><path id="el_tYQidQwerH" data-name="el tYQidQwerH" class="cls-2" d="M107.82,210.27a1.45,1.45,0,0,0-1.26-1.44l-2.23-.32a1.44,1.44,0,0,1-1.23-1.17,18,18,0,0,0-.54-2,1.45,1.45,0,0,1,.48-1.62l1.77-1.38a1.46,1.46,0,0,0,.36-1.88l-.2-.34a1.46,1.46,0,0,0-1.81-.62l-2.1.84a1.47,1.47,0,0,1-1.65-.39,16.33,16.33,0,0,0-1.51-1.49,1.47,1.47,0,0,1-.39-1.64l.84-2.11a1.44,1.44,0,0,0-.63-1.8l-.34-.2a1.47,1.47,0,0,0-1.88.37l-1.38,1.76a1.49,1.49,0,0,1-1.62.48,18.52,18.52,0,0,0-2.07-.54,1.47,1.47,0,0,1-1.17-1.22l-.32-2.22A1.48,1.48,0,0,0,87.48,190h-.39a1.47,1.47,0,0,0-1.45,1.26l-.32,2.22a1.49,1.49,0,0,1-1.18,1.22,18.52,18.52,0,0,0-2.07.54,1.46,1.46,0,0,1-1.62-.48l-1.37-1.74a1.47,1.47,0,0,0-1.89-.36l-.34.2a1.43,1.43,0,0,0-.62,1.8l.84,2.1a1.47,1.47,0,0,1-.39,1.64A16.66,16.66,0,0,0,75.16,200a1.47,1.47,0,0,1-1.64.39l-2.11-.84a1.45,1.45,0,0,0-1.81.62l-.19.33a1.47,1.47,0,0,0,.36,1.88l1.77,1.38a1.49,1.49,0,0,1,.48,1.62,14.38,14.38,0,0,0-.54,2,1.47,1.47,0,0,1-1.23,1.17l-2.24.32a1.43,1.43,0,0,0-1.26,1.43v.39A1.46,1.46,0,0,0,68,212.13l2.24.32a1.47,1.47,0,0,1,1.23,1.17,18.18,18.18,0,0,0,.54,2,1.46,1.46,0,0,1-.48,1.61l-1.77,1.38a1.46,1.46,0,0,0-.36,1.88l.2.33a1.45,1.45,0,0,0,1.81.62l2.1-.84a1.48,1.48,0,0,1,1.65.39,16.45,16.45,0,0,0,1.51,1.5,1.47,1.47,0,0,1,.39,1.64l-.84,2.1a1.45,1.45,0,0,0,.63,1.81l.34.19a1.47,1.47,0,0,0,1.88-.36l1.38-1.76a1.49,1.49,0,0,1,1.63-.47,16,16,0,0,0,2.06.53,1.47,1.47,0,0,1,1.17,1.23l.32,2.22a1.47,1.47,0,0,0,1.46,1.26h.39a1.46,1.46,0,0,0,1.45-1.26l.32-2.22a1.47,1.47,0,0,1,1.18-1.23,16.84,16.84,0,0,0,2.06-.53,1.45,1.45,0,0,1,1.61.47l1.39,1.76a1.47,1.47,0,0,0,1.89.36l.34-.19a1.46,1.46,0,0,0,.62-1.81l-.84-2.1a1.47,1.47,0,0,1,.39-1.64A15.48,15.48,0,0,0,99.41,221a1.47,1.47,0,0,1,1.65-.39l2.1.84a1.48,1.48,0,0,0,1.82-.63l.19-.33a1.45,1.45,0,0,0-.36-1.88L103,217.25a1.46,1.46,0,0,1-.48-1.61,18,18,0,0,0,.54-2,1.44,1.44,0,0,1,1.23-1.17l2.23-.32a1.46,1.46,0,0,0,1.26-1.45v-.4ZM87.3,220.67a10.21,10.21,0,1,1,10.26-10.2,10.19,10.19,0,0,1-10.26,10.2Z"/></g></g></g><g id="el_XsRVSEs4mg" data-name="el XsRVSEs4mg" class="cls-1"><g id="el_5jfYSMpGrb" data-name="el 5jfYSMpGrb"><g id="el_TqBeOCGdvT_an_3KrsWWlIE" data-name="el TqBeOCGdvT an 3KrsWWlIE"><path id="el_TqBeOCGdvT" data-name="el TqBeOCGdvT" class="cls-2" d="M227.12,96.17A1.26,1.26,0,0,0,226,94.9l-1.95-.28a1.25,1.25,0,0,1-1.08-1,14.3,14.3,0,0,0-.47-1.79,1.25,1.25,0,0,1,.42-1.41l1.54-1.21a1.26,1.26,0,0,0,.32-1.64l-.17-.29a1.29,1.29,0,0,0-1.59-.54l-1.83.73a1.27,1.27,0,0,1-1.44-.34,16.19,16.19,0,0,0-1.31-1.31,1.27,1.27,0,0,1-.35-1.43l.74-1.81A1.26,1.26,0,0,0,218.3,81l-.29-.17a1.25,1.25,0,0,0-1.64.32l-1.21,1.53a1.29,1.29,0,0,1-1.41.42,14.15,14.15,0,0,0-1.81-.47,1.3,1.3,0,0,1-1-1.07l-.27-1.93a1.27,1.27,0,0,0-1.26-1.12H209a1.27,1.27,0,0,0-1.26,1.1l-.28,1.93a1.26,1.26,0,0,1-1,1.07,16,16,0,0,0-1.81.47,1.27,1.27,0,0,1-1.42-.42L202,81.16a1.25,1.25,0,0,0-1.64-.31l-.3.17a1.26,1.26,0,0,0-.54,1.58l.73,1.81a1.27,1.27,0,0,1-.35,1.43,18.26,18.26,0,0,0-1.32,1.32,1.3,1.3,0,0,1-1.44.34l-1.82-.73a1.26,1.26,0,0,0-1.59.54l-.16.29a1.26,1.26,0,0,0,.31,1.64l1.54,1.21a1.25,1.25,0,0,1,.42,1.41,12.08,12.08,0,0,0-.47,1.79,1.26,1.26,0,0,1-1.08,1l-2,.28a1.25,1.25,0,0,0-1.09,1.26v.34a1.25,1.25,0,0,0,1.09,1.26l2,.28a1.25,1.25,0,0,1,1.08,1,15.17,15.17,0,0,0,.47,1.79,1.25,1.25,0,0,1-.42,1.41l-1.54,1.2a1.26,1.26,0,0,0-.31,1.64l.17.29a1.26,1.26,0,0,0,1.58.55l1.83-.73a1.3,1.3,0,0,1,1.44.34,14.72,14.72,0,0,0,1.31,1.31,1.27,1.27,0,0,1,.35,1.43l-.73,1.82a1.26,1.26,0,0,0,.55,1.58l.29.17a1.28,1.28,0,0,0,1.64-.32l1.21-1.55a1.28,1.28,0,0,1,1.42-.42,12.2,12.2,0,0,0,1.8.47,1.26,1.26,0,0,1,1,1.07l.28,1.94a1.25,1.25,0,0,0,1.26,1.09h.35a1.26,1.26,0,0,0,1.26-1.09l.28-1.94a1.26,1.26,0,0,1,1-1.07,16.2,16.2,0,0,0,1.82-.47,1.25,1.25,0,0,1,1.41.42l1.21,1.53a1.26,1.26,0,0,0,1.65.32l.29-.17a1.26,1.26,0,0,0,.54-1.58l-.73-1.82a1.27,1.27,0,0,1,.34-1.44,13.4,13.4,0,0,0,1.31-1.3,1.3,1.3,0,0,1,1.44-.34l1.83.73a1.27,1.27,0,0,0,1.59-.55l.17-.29a1.26,1.26,0,0,0-.33-1.64l-1.53-1.2a1.24,1.24,0,0,1-.42-1.4,16.1,16.1,0,0,0,.47-1.78,1.26,1.26,0,0,1,1.08-1l1.95-.28a1.25,1.25,0,0,0,1.09-1.26Zm-17.92,9.08a8.92,8.92,0,1,1,9-8.91,8.91,8.91,0,0,1-9,8.91h0Z"/></g></g></g><rect class="cls-3" x="109.48" y="132.1" width="21.49" height="21.49" rx="4.55"/><rect class="cls-4" x="202.3" y="42.26" width="21.49" height="21.49" rx="4.55"/><rect class="cls-5" x="216.2" y="169.51" width="15.2" height="15.2" rx="3.22"/><rect class="cls-3" x="101.88" y="45.41" width="15.2" height="15.2" rx="3.22"/><rect class="cls-5" x="163.39" y="73.38" width="15.2" height="15.2" rx="3.22"/><rect class="cls-3" x="236.31" y="106.66" width="15.2" height="15.2" rx="3.22"/><g id="girl"><path class="cls-6" d="M138.3,202.14h19a.8.8,0,0,1,.8.8V214.4a3.34,3.34,0,0,1-3.34,3.34h-14a3.34,3.34,0,0,1-3.34-3.34V203.06A.93.93,0,0,1,138.3,202.14Z"/><path class="cls-7" d="M147.92,217.09l-7,.09a3.5,3.5,0,0,1-3.54-3.31V202.54a1.15,1.15,0,0,1,1.13-1H148Z"/><path class="cls-5" d="M139.81,204.21h16a2.15,2.15,0,0,0,2.14-2.15l0-72.76v-16a2.15,2.15,0,0,0-.23-1l-8-16a2.12,2.12,0,0,0-1.91-1.18,2.17,2.17,0,0,0-1.52.62,2.28,2.28,0,0,0-.4.56l-8,16a2.14,2.14,0,0,0-.22,1v88.77A2.14,2.14,0,0,0,139.81,204.21Z"/><path class="cls-8" d="M148,204.21v-109h-.22a2.13,2.13,0,0,0-1.51.62,2,2,0,0,0-.4.56l-8,16a2.29,2.29,0,0,0-.22,1v40.11l0,48.66a2.14,2.14,0,0,0,2.14,2.14Z"/><path class="cls-9" d="M157.69,112.34l-8-16a2.14,2.14,0,0,0-3.42-.56,2,2,0,0,0-.4.56l-8,16a2.14,2.14,0,0,0,.1,2.08h19.62A2.14,2.14,0,0,0,157.69,112.34Z"/><path class="cls-10" d="M146.28,90.85a2.15,2.15,0,0,1,3.66,1.52v4.84a2.14,2.14,0,1,1-4.28,0V92.37A2.16,2.16,0,0,1,146.28,90.85Z"/><rect class="cls-7" x="136.5" y="201.53" width="22.6" height="2.96" rx="1.48"/><rect class="cls-7" x="136.5" y="207.42" width="22.6" height="2.96" rx="1.48"/><rect class="cls-7" x="136.49" y="212.71" width="22.6" height="2.96" rx="1.48"/><path class="cls-11" d="M148,201.52H138A1.48,1.48,0,0,0,136.5,203h0a1.47,1.47,0,0,0,1.48,1.47h10"/><path class="cls-11" d="M148,207.42H138a1.48,1.48,0,0,0-1.48,1.48h0a1.48,1.48,0,0,0,1.48,1.48h10"/><path class="cls-11" d="M147.94,212.72H138a1.49,1.49,0,0,0-1.48,1.48h0a1.49,1.49,0,0,0,1.48,1.48h10"/><path class="cls-4" d="M137.23,222.2a3.35,3.35,0,0,0,3.34,3.34h14a3.35,3.35,0,0,0,3.34-3.34v-6.68l-20.71,0Z"/><path class="cls-12" d="M137.25,215.51v6.68a3.35,3.35,0,0,0,3.35,3.34H148v-10Z"/><path class="cls-10" d="M197.64,76.06c-1.6-.41-5.16.17-6.7.77a5.16,5.16,0,0,0-3.21,3.53c-.43,2,.62,4.11.28,6.14-.38,2.32-2.44,4-3.39,6.11a2.47,2.47,0,0,0-.25,1.28c.19,1.44,2.29,1.92,2.65,3.33.43,1.62-1.7,2.83-2,4.49a2.92,2.92,0,0,0,1.85,2.85,8.61,8.61,0,0,0,3.58.51h2.8a3.65,3.65,0,0,0,2.6-.7c.76-.75.69-2,.56-3-.78-6.57-.32-12.52.37-19.1Z"/><path class="cls-12" d="M207.93,217s.11,2.6.65,3.14,6.71,3.25,7.36,3.89a2.82,2.82,0,0,1,.43,2.06l-12.87-.22s-.33-.21-.33-2.48.11-6.5.11-6.5Z"/><path class="cls-2" d="M208,217s.11,2.6.65,3.14c.35.35,3,1.6,5.08,2.62l-.25.11a7.33,7.33,0,0,1-3.86-.05,8.24,8.24,0,0,1-1.77-.54,3.47,3.47,0,0,1-1.4-1.17,4.79,4.79,0,0,1-.59-2.17c-.07-.66-.11-1.33-.13-2Z"/><path class="cls-12" d="M185.13,216.23s-.11,2.6-.65,3.14-6.71,3.25-7.36,3.9a2.84,2.84,0,0,0-.43,2l12.88-.22s.32-.21.32-2.48-.11-6.5-.11-6.5Z"/><path class="cls-2" d="M185.11,216.25s-.11,2.6-.65,3.14a55.43,55.43,0,0,1-5.08,2.61l.25.12a7.33,7.33,0,0,0,3.86-.05,7.74,7.74,0,0,0,1.77-.55,3.32,3.32,0,0,0,1.4-1.17,4.71,4.71,0,0,0,.59-2.16c.07-.67.11-1.33.13-2Z"/><path class="cls-2" d="M189.86,103.92a12.68,12.68,0,0,0-2.05.69c-1.4.82-2.21,2.28-3.12,3.56-1.08,1.53-2.39,2.91-3.58,4.35-1.76,2.11-3.48,4.26-5.18,6.43-.71.92-3.17,5.32-4.73,4.31s-11.74-8-11.74-8l-1.61-1.56-3.73.12L152,115.59a3.21,3.21,0,0,1-1.26.45c-.16,0,.12,1.09.85,1.09a10.36,10.36,0,0,0,3-.89c.28-.2,3.24,1,3.24,1l.08,2.36s10.14,10.05,10.63,10.62a8.6,8.6,0,0,0,3.28,1.85,3.39,3.39,0,0,0,1.91-.61c.49-.33,15.14-14.83,15.14-14.83Z"/><path class="cls-8" d="M212.91,145.9a200.72,200.72,0,0,0-1.62,20.28c-.17,9.58-1,15.91-1,15.91l-.45,36.19-7.47-.32s-2.14-35.38-2.46-38.14-1.79-22.4-1.79-22.4l-4.4,40.9-3.41,19.31-7.79-1s2.28-31.65,2.28-36,0-35.71.18-37S212.91,145.9,212.91,145.9Z"/><path class="cls-10" d="M197,75.94a15.73,15.73,0,0,1,7.15-1c1.73.19,3.58.59,4.74,1.88,2.61,2.91,0,8,2.07,11.28A18,18,0,0,0,213.77,91c.93,1,1.68,2.34,1.23,3.6-.25.7-.84,1.24-1.09,1.94-.81,2.24,2,4.16,2.36,6.52.27,2.06-1.55,3.91-3.54,4.48s-4.12.22-6.18,0c0,0-5-2.39-5.66-3.52S197,75.94,197,75.94Z"/><path class="cls-2" d="M196.83,78.5s-4.38,1-5.35,6.49-1.3,16.06,4.87,16.88,9.41-1.14,10.54-9.09S206.89,77.36,196.83,78.5Z"/><polygon class="cls-2" points="202.68 106.09 202.03 99.27 196.18 99.11 195.7 106.41 202.68 106.09"/><path class="cls-10" d="M196.74,78.43c1.18,1.56,3.09,3.78,5,4.22a3.45,3.45,0,0,1,1.62.56c.93.86,0,2.41.19,3.67.2,1.57,2,2.39,2.8,3.72a6.48,6.48,0,0,1,.38,3.46c-.09,1,2.41-1.9,3-2.66a3.6,3.6,0,0,0,.53-2.76c-.14-1-.47-1.87-.63-2.82-.37-2.31.25-5-1.32-6.75a6.85,6.85,0,0,0-3.8-1.68l-5.06-1.06Z"/><path class="cls-12" d="M202.48,103.43s5.44.41,7.53,1.43c.14.07,1.58.72,1.64,1,.48,2.09-2.31,8.58-2.31,8.58a28.87,28.87,0,0,0-.54,10.39c.86,4.76,6.38,19.8,6.38,19.8s-6.49,4.76-17,3.57-14.83-3.25-14.83-3.25,5.2-18.17,5-19.47a28.74,28.74,0,0,0-1.78-5.69c-1.93-3.56-.56-7.55.85-11.12.65-1.65,1.33-3.3,2-4.94l6.42-.5S199.56,107.11,202.48,103.43Z"/><rect class="cls-5" x="193.6" y="126.91" width="15.74" height="23.05" rx="2.31" transform="translate(-42.22 119.28) rotate(-30)"/><path class="cls-2" d="M209.38,105.42c.46-.17,1.6.43,2,.58a7.46,7.46,0,0,1,2.34,1.49c1.51,1.51,13.2,12.77,13.85,13.63s.32,3.57-.65,4.87S215,138.11,215,138.11s-3.14,3.78-4.55,4.11-5.73-.22-5.73-.22-1.41-1.84-1.19-2.16,4.43-1.62,4.43-1.62l1.41-1.74-1.08-1.94,1.62-.76,2.14.35s6.56-8.58,8-10.63c.54-.76-11-8.33-11-8.33a2.81,2.81,0,0,1-.73-1,6.7,6.7,0,0,1-.53-3.54,12.93,12.93,0,0,1,.55-2.67c.17-.53.36-1.06.58-1.57a3,3,0,0,1,.38-.86A.24.24,0,0,1,209.38,105.42Z"/><path class="cls-10" d="M202.36,151.16a2.29,2.29,0,0,1-3.14-.84l-9.22-16a2.3,2.3,0,0,1,.84-3.15Z"/></g><rect class="cls-4" x="91.13" y="190.83" width="10.75" height="10.75" rx="2.27"/><rect class="cls-5" x="69.73" y="110.38" width="15.2" height="15.2" rx="3.22"/></svg>