<?xml version="1.0" encoding="UTF-8"?>
<svg width="1027px" height="222px" viewBox="0 0 1027 222" version="1.1" xmlns="http://www.w3.org/2000/svg" xmlns:xlink="http://www.w3.org/1999/xlink">
    <!-- Generator: Sketch 52.5 (67469) - http://www.bohemiancoding.com/sketch -->
    <title>Group 3</title>
    <desc>Created with Sketch.</desc>
    <g id="Symbols" stroke="none" stroke-width="1" fill="none" fill-rule="evenodd">
        <g id="Desktop-(About)" transform="translate(-86.000000, -1077.000000)">
            <g id="Group-3" transform="translate(86.000000, 1077.000000)">
                <g id="Group-2">
                    <polygon id="Path-3" fill="#B6640B" points="158.900073 0 -3.63797881e-12 0 49.3525149 90 -3.63797881e-12 180 149.985985 180"></polygon>
                    <polygon id="Path-3-Copy" fill="#B6640B" transform="translate(946.661957, 90.039706) rotate(-180.000000) translate(-946.661957, -90.039706) " points="1026.11199 0.0397064059 867.21192 0.0397064059 916.564435 90.0397064 867.21192 180.039706 1017.1979 180.039706"></polygon>
                    <rect id="Rectangle" fill="#E88212" x="90" y="48" width="853" height="174"></rect>
                    <polygon id="Path-2" fill="#C46D0F" points="90 48.2485207 157.511593 0 157.511593 48.2485207"></polygon>
                    <polygon id="Path-2-Copy" fill="#C46D0F" points="875 48.2485207 875 4.97379915e-14 942.511593 48.2485207"></polygon>
                </g>
                <path d="M184.4875,144.232 C182.57349,144.232 180.91084,143.806671 179.4995,142.956 C178.08816,142.105329 177.00067,140.882508 176.237,139.2875 C175.47333,137.692492 175.0915,135.822011 175.0915,133.676 C175.0915,131.510656 175.468496,129.635341 176.2225,128.05 C176.976504,126.464659 178.05916,125.246671 179.4705,124.396 C180.88184,123.545329 182.554157,123.12 184.4875,123.12 C186.420843,123.12 188.09316,123.545329 189.5045,124.396 C190.91584,125.246671 191.998496,126.464659 192.7525,128.05 C193.506504,129.635341 193.8835,131.500989 193.8835,133.647 C193.8835,135.812344 193.50167,137.687659 192.738,139.273 C191.97433,140.858341 190.88684,142.081162 189.4755,142.9415 C188.06416,143.801838 186.40151,144.232 184.4875,144.232 Z M184.4875,142.202 C186.672178,142.202 188.373494,141.457674 189.5915,139.969 C190.809506,138.480326 191.4185,136.373014 191.4185,133.647 C191.4185,130.920986 190.814339,128.823341 189.606,127.354 C188.397661,125.884659 186.691511,125.15 184.4875,125.15 C182.283489,125.15 180.572506,125.889493 179.3545,127.3685 C178.136494,128.847507 177.5275,130.94032 177.5275,133.647 C177.5275,136.373014 178.136494,138.480326 179.3545,139.969 C180.572506,141.457674 182.283489,142.202 184.4875,142.202 Z M210.1525,129.413 L210.1525,144 L207.8615,144 L207.8615,141.477 C207.397498,142.366338 206.749837,143.042998 205.9185,143.507 C205.087163,143.971002 204.149505,144.203 203.1055,144.203 C201.384825,144.203 200.079838,143.719672 199.1905,142.753 C198.301162,141.786329 197.8565,140.355676 197.8565,138.461 L197.8565,129.413 L200.2055,129.413 L200.2055,138.403 C200.2055,139.717673 200.476164,140.68433 201.0175,141.303 C201.558836,141.92167 202.380494,142.231 203.4825,142.231 C204.77784,142.231 205.821829,141.810504 206.6145,140.9695 C207.407171,140.128496 207.8035,139.021674 207.8035,137.649 L207.8035,129.413 L210.1525,129.413 Z M221.4625,129.065 C221.945836,129.065 222.390498,129.122999 222.7965,129.239 L222.7385,131.385 C222.293831,131.230333 221.781503,131.153 221.2015,131.153 C219.79016,131.153 218.741337,131.592829 218.055,132.4725 C217.368663,133.352171 217.0255,134.420327 217.0255,135.677 L217.0255,144 L214.6765,144 L214.6765,133.502 C214.6765,131.993992 214.599167,130.631006 214.4445,129.413 L216.6775,129.413 L216.9095,132.11 C217.276835,131.123995 217.866496,130.370003 218.6785,129.848 C219.490504,129.325997 220.418495,129.065 221.4625,129.065 Z M248.9255,129.065 C252.154183,129.065 253.7685,130.988647 253.7685,134.836 L253.7685,144 L251.4195,144 L251.4195,134.952 C251.4195,133.579326 251.182669,132.58367 250.709,131.965 C250.235331,131.34633 249.466839,131.037 248.4035,131.037 C247.16616,131.037 246.199503,131.452663 245.5035,132.284 C244.807497,133.115337 244.4595,134.246326 244.4595,135.677 L244.4595,144 L242.1105,144 L242.1105,134.952 C242.1105,133.59866 241.868836,132.607836 241.3855,131.9795 C240.902164,131.351164 240.128839,131.037 239.0655,131.037 C237.82816,131.037 236.85667,131.452663 236.151,132.284 C235.44533,133.115337 235.0925,134.246326 235.0925,135.677 L235.0925,144 L232.7435,144 L232.7435,133.502 C232.7435,131.993992 232.666167,130.631006 232.5115,129.413 L234.7445,129.413 L234.9765,131.965 C235.382502,131.036995 235.986663,130.321669 236.789,129.819 C237.591337,129.316331 238.524161,129.065 239.5875,129.065 C240.747506,129.065 241.69483,129.296998 242.4295,129.761 C243.16417,130.225002 243.705498,130.940329 244.0535,131.907 C244.498169,131.036996 245.150662,130.345836 246.011,129.8335 C246.871338,129.321164 247.842828,129.065 248.9255,129.065 Z M258.2345,144 L258.2345,129.413 L260.5835,129.413 L260.5835,144 L258.2345,144 Z M258.0025,123.236 L260.8735,123.236 L260.8735,125.904 L258.0025,125.904 L258.0025,123.236 Z M270.0665,144.203 C267.611154,144.203 265.668174,143.574673 264.2375,142.318 L265.0205,140.578 C265.813171,141.19667 266.615496,141.641332 267.4275,141.912 C268.239504,142.182668 269.148162,142.318 270.1535,142.318 C271.255506,142.318 272.091664,142.129502 272.662,141.7525 C273.232336,141.375498 273.5175,140.829337 273.5175,140.114 C273.5175,139.533997 273.324169,139.070002 272.9375,138.722 C272.550831,138.373998 271.912838,138.103334 271.0235,137.91 L268.5585,137.33 C267.340494,137.059332 266.398003,136.576003 265.731,135.88 C265.063997,135.183997 264.7305,134.352672 264.7305,133.386 C264.7305,132.109994 265.242828,131.070837 266.2675,130.2685 C267.292172,129.466163 268.645492,129.065 270.3275,129.065 C271.352172,129.065 272.318829,129.229332 273.2275,129.558 C274.136171,129.886668 274.89983,130.36033 275.5185,130.979 L274.7355,132.69 C273.362826,131.549328 271.893508,130.979 270.3275,130.979 C269.283495,130.979 268.476336,131.177165 267.906,131.5735 C267.335664,131.969835 267.0505,132.525663 267.0505,133.241 C267.0505,133.840336 267.229332,134.313998 267.587,134.662 C267.944668,135.010002 268.519829,135.280666 269.3125,135.474 L271.7775,136.083 C273.13084,136.392335 274.136163,136.87083 274.7935,137.5185 C275.450837,138.16617 275.7795,139.011995 275.7795,140.056 C275.7795,141.312673 275.267172,142.317996 274.2425,143.072 C273.217828,143.826004 271.825842,144.203 270.0665,144.203 Z M284.4505,144.203 C281.995154,144.203 280.052174,143.574673 278.6215,142.318 L279.4045,140.578 C280.197171,141.19667 280.999496,141.641332 281.8115,141.912 C282.623504,142.182668 283.532162,142.318 284.5375,142.318 C285.639506,142.318 286.475664,142.129502 287.046,141.7525 C287.616336,141.375498 287.9015,140.829337 287.9015,140.114 C287.9015,139.533997 287.708169,139.070002 287.3215,138.722 C286.934831,138.373998 286.296838,138.103334 285.4075,137.91 L282.9425,137.33 C281.724494,137.059332 280.782003,136.576003 280.115,135.88 C279.447997,135.183997 279.1145,134.352672 279.1145,133.386 C279.1145,132.109994 279.626828,131.070837 280.6515,130.2685 C281.676172,129.466163 283.029492,129.065 284.7115,129.065 C285.736172,129.065 286.702829,129.229332 287.6115,129.558 C288.520171,129.886668 289.28383,130.36033 289.9025,130.979 L289.1195,132.69 C287.746826,131.549328 286.277508,130.979 284.7115,130.979 C283.667495,130.979 282.860336,131.177165 282.29,131.5735 C281.719664,131.969835 281.4345,132.525663 281.4345,133.241 C281.4345,133.840336 281.613332,134.313998 281.971,134.662 C282.328668,135.010002 282.903829,135.280666 283.6965,135.474 L286.1615,136.083 C287.51484,136.392335 288.520163,136.87083 289.1775,137.5185 C289.834837,138.16617 290.1635,139.011995 290.1635,140.056 C290.1635,141.312673 289.651172,142.317996 288.6265,143.072 C287.601828,143.826004 286.209842,144.203 284.4505,144.203 Z M293.9045,144 L293.9045,129.413 L296.2535,129.413 L296.2535,144 L293.9045,144 Z M293.6725,123.236 L296.5435,123.236 L296.5435,125.904 L293.6725,125.904 L293.6725,123.236 Z M306.8385,144.203 C305.465826,144.203 304.257505,143.89367 303.2135,143.275 C302.169495,142.65633 301.362336,141.776672 300.792,140.636 C300.221664,139.495328 299.9365,138.161341 299.9365,136.634 C299.9365,135.106659 300.221664,133.772672 300.792,132.632 C301.362336,131.491328 302.169495,130.61167 303.2135,129.993 C304.257505,129.37433 305.465826,129.065 306.8385,129.065 C308.211174,129.065 309.419495,129.37433 310.4635,129.993 C311.507505,130.61167 312.314664,131.491328 312.885,132.632 C313.455336,133.772672 313.7405,135.106659 313.7405,136.634 C313.7405,138.161341 313.455336,139.495328 312.885,140.636 C312.314664,141.776672 311.507505,142.65633 310.4635,143.275 C309.419495,143.89367 308.211174,144.203 306.8385,144.203 Z M306.8385,142.26 C308.288507,142.26 309.400163,141.781505 310.1735,140.8245 C310.946837,139.867495 311.3335,138.470676 311.3335,136.634 C311.3335,134.855324 310.937171,133.477838 310.1445,132.5015 C309.351829,131.525162 308.24984,131.037 306.8385,131.037 C305.407826,131.037 304.296171,131.525162 303.5035,132.5015 C302.710829,133.477838 302.3145,134.855324 302.3145,136.634 C302.3145,138.470676 302.705996,139.867495 303.489,140.8245 C304.272004,141.781505 305.388493,142.26 306.8385,142.26 Z M324.6735,129.065 C328.172851,129.065 329.9225,130.988647 329.9225,134.836 L329.9225,144 L327.5735,144 L327.5735,134.952 C327.5735,133.59866 327.302836,132.607836 326.7615,131.9795 C326.220164,131.351164 325.369506,131.037 324.2095,131.037 C322.85616,131.037 321.773504,131.452663 320.9615,132.284 C320.149496,133.115337 319.7435,134.23666 319.7435,135.648 L319.7435,144 L317.3945,144 L317.3945,133.502 C317.3945,131.993992 317.317167,130.631006 317.1625,129.413 L319.3955,129.413 L319.6275,132.023 C320.072169,131.075662 320.739162,130.345836 321.6285,129.8335 C322.517838,129.321164 323.532828,129.065 324.6735,129.065 Z M341.9285,144 L341.9285,129.413 L344.2775,129.413 L344.2775,144 L341.9285,144 Z M341.6965,123.236 L344.5675,123.236 L344.5675,125.904 L341.6965,125.904 L341.6965,123.236 Z M353.7605,144.203 C351.305154,144.203 349.362174,143.574673 347.9315,142.318 L348.7145,140.578 C349.507171,141.19667 350.309496,141.641332 351.1215,141.912 C351.933504,142.182668 352.842162,142.318 353.8475,142.318 C354.949506,142.318 355.785664,142.129502 356.356,141.7525 C356.926336,141.375498 357.2115,140.829337 357.2115,140.114 C357.2115,139.533997 357.018169,139.070002 356.6315,138.722 C356.244831,138.373998 355.606838,138.103334 354.7175,137.91 L352.2525,137.33 C351.034494,137.059332 350.092003,136.576003 349.425,135.88 C348.757997,135.183997 348.4245,134.352672 348.4245,133.386 C348.4245,132.109994 348.936828,131.070837 349.9615,130.2685 C350.986172,129.466163 352.339492,129.065 354.0215,129.065 C355.046172,129.065 356.012829,129.229332 356.9215,129.558 C357.830171,129.886668 358.59383,130.36033 359.2125,130.979 L358.4295,132.69 C357.056826,131.549328 355.587508,130.979 354.0215,130.979 C352.977495,130.979 352.170336,131.177165 351.6,131.5735 C351.029664,131.969835 350.7445,132.525663 350.7445,133.241 C350.7445,133.840336 350.923332,134.313998 351.281,134.662 C351.638668,135.010002 352.213829,135.280666 353.0065,135.474 L355.4715,136.083 C356.82484,136.392335 357.830163,136.87083 358.4875,137.5185 C359.144837,138.16617 359.4735,139.011995 359.4735,140.056 C359.4735,141.312673 358.961172,142.317996 357.9365,143.072 C356.911828,143.826004 355.519842,144.203 353.7605,144.203 Z M373.9155,131.269 L373.9155,139.244 C373.9155,140.326672 374.137831,141.085498 374.5825,141.5205 C375.027169,141.955502 375.655496,142.173 376.4675,142.173 C377.008836,142.173 377.530831,142.086001 378.0335,141.912 L378.0335,143.913 C377.434164,144.106334 376.757504,144.203 376.0035,144.203 C374.611493,144.203 373.524004,143.811504 372.741,143.0285 C371.957996,142.245496 371.5665,141.090341 371.5665,139.563 L371.5665,131.269 L368.7245,131.269 L368.7245,129.413 L371.5665,129.413 L371.5665,125.672 L373.9155,124.831 L373.9155,129.413 L378.0915,129.413 L378.0915,131.269 L373.9155,131.269 Z M386.9655,144.203 C385.592826,144.203 384.384505,143.89367 383.3405,143.275 C382.296495,142.65633 381.489336,141.776672 380.919,140.636 C380.348664,139.495328 380.0635,138.161341 380.0635,136.634 C380.0635,135.106659 380.348664,133.772672 380.919,132.632 C381.489336,131.491328 382.296495,130.61167 383.3405,129.993 C384.384505,129.37433 385.592826,129.065 386.9655,129.065 C388.338174,129.065 389.546495,129.37433 390.5905,129.993 C391.634505,130.61167 392.441664,131.491328 393.012,132.632 C393.582336,133.772672 393.8675,135.106659 393.8675,136.634 C393.8675,138.161341 393.582336,139.495328 393.012,140.636 C392.441664,141.776672 391.634505,142.65633 390.5905,143.275 C389.546495,143.89367 388.338174,144.203 386.9655,144.203 Z M386.9655,142.26 C388.415507,142.26 389.527163,141.781505 390.3005,140.8245 C391.073837,139.867495 391.4605,138.470676 391.4605,136.634 C391.4605,134.855324 391.064171,133.477838 390.2715,132.5015 C389.478829,131.525162 388.37684,131.037 386.9655,131.037 C385.534826,131.037 384.423171,131.525162 383.6305,132.5015 C382.837829,133.477838 382.4415,134.855324 382.4415,136.634 C382.4415,138.470676 382.832996,139.867495 383.616,140.8245 C384.399004,141.781505 385.515493,142.26 386.9655,142.26 Z M410.6875,124.57 C409.914163,124.57 409.310002,124.787498 408.875,125.2225 C408.439998,125.657502 408.2225,126.406661 408.2225,127.47 L408.2225,129.413 L411.7895,129.413 L411.7895,131.269 L408.2225,131.269 L408.2225,144 L405.8735,144 L405.8735,131.269 L403.0315,131.269 L403.0315,129.413 L405.8735,129.413 L405.8735,127.18 C405.8735,125.652659 406.25533,124.497504 407.019,123.7145 C407.78267,122.931496 408.850826,122.54 410.2235,122.54 C410.90017,122.54 411.557497,122.626999 412.1955,122.801 L412.1955,124.802 C411.654164,124.647333 411.151502,124.57 410.6875,124.57 Z M420.7505,144.203 C419.377826,144.203 418.169505,143.89367 417.1255,143.275 C416.081495,142.65633 415.274336,141.776672 414.704,140.636 C414.133664,139.495328 413.8485,138.161341 413.8485,136.634 C413.8485,135.106659 414.133664,133.772672 414.704,132.632 C415.274336,131.491328 416.081495,130.61167 417.1255,129.993 C418.169505,129.37433 419.377826,129.065 420.7505,129.065 C422.123174,129.065 423.331495,129.37433 424.3755,129.993 C425.419505,130.61167 426.226664,131.491328 426.797,132.632 C427.367336,133.772672 427.6525,135.106659 427.6525,136.634 C427.6525,138.161341 427.367336,139.495328 426.797,140.636 C426.226664,141.776672 425.419505,142.65633 424.3755,143.275 C423.331495,143.89367 422.123174,144.203 420.7505,144.203 Z M420.7505,142.26 C422.200507,142.26 423.312163,141.781505 424.0855,140.8245 C424.858837,139.867495 425.2455,138.470676 425.2455,136.634 C425.2455,134.855324 424.849171,133.477838 424.0565,132.5015 C423.263829,131.525162 422.16184,131.037 420.7505,131.037 C419.319826,131.037 418.208171,131.525162 417.4155,132.5015 C416.622829,133.477838 416.2265,134.855324 416.2265,136.634 C416.2265,138.470676 416.617996,139.867495 417.401,140.8245 C418.184004,141.781505 419.300493,142.26 420.7505,142.26 Z M438.0925,129.065 C438.575836,129.065 439.020498,129.122999 439.4265,129.239 L439.3685,131.385 C438.923831,131.230333 438.411503,131.153 437.8315,131.153 C436.42016,131.153 435.371337,131.592829 434.685,132.4725 C433.998663,133.352171 433.6555,134.420327 433.6555,135.677 L433.6555,144 L431.3065,144 L431.3065,133.502 C431.3065,131.993992 431.229167,130.631006 431.0745,129.413 L433.3075,129.413 L433.5395,132.11 C433.906835,131.123995 434.496496,130.370003 435.3085,129.848 C436.120504,129.325997 437.048495,129.065 438.0925,129.065 Z M454.5065,129.413 L454.5065,143.884 C454.5065,146.049344 453.950672,147.687828 452.839,148.7995 C451.727328,149.911172 450.088844,150.467 447.9235,150.467 C445.700156,150.467 443.786175,149.964338 442.1815,148.959 L442.5875,147.045 C443.515505,147.567003 444.390329,147.943999 445.212,148.176 C446.033671,148.408001 446.937495,148.524 447.9235,148.524 C449.33484,148.524 450.398163,148.151837 451.1135,147.4075 C451.828837,146.663163 452.1865,145.556341 452.1865,144.087 L452.1865,140.636 C451.741831,141.564005 451.089338,142.284164 450.229,142.7965 C449.368662,143.308836 448.348839,143.565 447.1695,143.565 C445.893494,143.565 444.757672,143.265336 443.762,142.666 C442.766328,142.066664 441.997836,141.216006 441.4565,140.114 C440.915164,139.011994 440.6445,137.745674 440.6445,136.315 C440.6445,134.884326 440.915164,133.618006 441.4565,132.516 C441.997836,131.413994 442.766328,130.563336 443.762,129.964 C444.757672,129.364664 445.893494,129.065 447.1695,129.065 C448.329506,129.065 449.339662,129.316331 450.2,129.819 C451.060338,130.321669 451.712831,131.027329 452.1575,131.936 L452.1575,129.413 L454.5065,129.413 Z M447.6335,141.593 C449.04484,141.593 450.151663,141.124171 450.954,140.1865 C451.756337,139.248829 452.1575,137.958342 452.1575,136.315 C452.1575,134.671658 451.756337,133.381171 450.954,132.4435 C450.151663,131.505829 449.04484,131.037 447.6335,131.037 C446.202826,131.037 445.076671,131.505829 444.255,132.4435 C443.433329,133.381171 443.0225,134.671658 443.0225,136.315 C443.0225,137.958342 443.433329,139.248829 444.255,140.1865 C445.076671,141.124171 446.202826,141.593 447.6335,141.593 Z M471.2395,136.634 L460.5385,136.634 C460.557833,138.490009 460.987996,139.891662 461.829,140.839 C462.670004,141.786338 463.892825,142.26 465.4975,142.26 C467.198842,142.26 468.764826,141.689672 470.1955,140.549 L470.9785,142.26 C470.340497,142.859336 469.523672,143.332998 468.528,143.681 C467.532328,144.029002 466.512505,144.203 465.4685,144.203 C463.187155,144.203 461.39884,143.531173 460.1035,142.1875 C458.80816,140.843827 458.1605,139.002345 458.1605,136.663 C458.1605,135.174326 458.450497,133.854839 459.0305,132.7045 C459.610503,131.554161 460.422495,130.660003 461.4665,130.022 C462.510505,129.383997 463.699493,129.065 465.0335,129.065 C466.966843,129.065 468.484494,129.69816 469.5865,130.9645 C470.688506,132.23084 471.2395,133.975656 471.2395,136.199 L471.2395,136.634 Z M465.0625,130.892 C463.844494,130.892 462.85367,131.25933 462.09,131.994 C461.32633,132.72867 460.838168,133.762993 460.6255,135.097 L469.1225,135.097 C469.006499,133.724326 468.605337,132.680337 467.919,131.965 C467.232663,131.249663 466.280506,130.892 465.0625,130.892 Z M495.2225,129.413 L495.2225,144 L492.9025,144 L492.9025,141.361 C492.477165,142.269671 491.834338,142.970498 490.974,143.4635 C490.113662,143.956502 489.113172,144.203 487.9725,144.203 C486.67716,144.203 485.541338,143.89367 484.565,143.275 C483.588662,142.65633 482.834669,141.781506 482.303,140.6505 C481.771331,139.519494 481.5055,138.200008 481.5055,136.692 C481.5055,135.183992 481.776164,133.854839 482.3175,132.7045 C482.858836,131.554161 483.617662,130.660003 484.594,130.022 C485.570338,129.383997 486.696494,129.065 487.9725,129.065 C489.113172,129.065 490.108829,129.316331 490.9595,129.819 C491.810171,130.321669 492.457831,131.027329 492.9025,131.936 L492.9025,129.413 L495.2225,129.413 Z M488.4365,142.26 C489.867174,142.26 490.969163,141.771838 491.7425,140.7955 C492.515837,139.819162 492.9025,138.432009 492.9025,136.634 C492.9025,134.835991 492.515837,133.453671 491.7425,132.487 C490.969163,131.520329 489.867174,131.037 488.4365,131.037 C487.005826,131.037 485.889337,131.534828 485.087,132.5305 C484.284663,133.526172 483.8835,134.913324 483.8835,136.692 C483.8835,138.470676 484.279829,139.843329 485.0725,140.81 C485.865171,141.776672 486.986493,142.26 488.4365,142.26 Z M514.6235,129.065 C515.899506,129.065 517.030495,129.37433 518.0165,129.993 C519.002505,130.61167 519.766164,131.486494 520.3075,132.6175 C520.848836,133.748506 521.1195,135.067992 521.1195,136.576 C521.1195,138.084008 520.848836,139.413161 520.3075,140.5635 C519.766164,141.713839 519.002505,142.607997 518.0165,143.246 C517.030495,143.884003 515.899506,144.203 514.6235,144.203 C513.482828,144.203 512.487171,143.951669 511.6365,143.449 C510.785829,142.946331 510.138169,142.231005 509.6935,141.303 L509.6935,144 L507.3445,144 L507.3445,122.656 L509.6935,122.656 L509.6935,131.994 C510.118835,131.046662 510.761662,130.321669 511.622,129.819 C512.482338,129.316331 513.482828,129.065 514.6235,129.065 Z M514.1885,142.26 C515.59984,142.26 516.701829,141.762172 517.4945,140.7665 C518.287171,139.770828 518.6835,138.374009 518.6835,136.576 C518.6835,134.816658 518.292004,133.453671 517.509,132.487 C516.725996,131.520329 515.619174,131.037 514.1885,131.037 C512.738493,131.037 511.626837,131.520329 510.8535,132.487 C510.080163,133.453671 509.6935,134.835991 509.6935,136.634 C509.6935,138.432009 510.080163,139.819162 510.8535,140.7955 C511.626837,141.771838 512.738493,142.26 514.1885,142.26 Z M530.7765,144.203 C529.403826,144.203 528.195505,143.89367 527.1515,143.275 C526.107495,142.65633 525.300336,141.776672 524.73,140.636 C524.159664,139.495328 523.8745,138.161341 523.8745,136.634 C523.8745,135.106659 524.159664,133.772672 524.73,132.632 C525.300336,131.491328 526.107495,130.61167 527.1515,129.993 C528.195505,129.37433 529.403826,129.065 530.7765,129.065 C532.149174,129.065 533.357495,129.37433 534.4015,129.993 C535.445505,130.61167 536.252664,131.491328 536.823,132.632 C537.393336,133.772672 537.6785,135.106659 537.6785,136.634 C537.6785,138.161341 537.393336,139.495328 536.823,140.636 C536.252664,141.776672 535.445505,142.65633 534.4015,143.275 C533.357495,143.89367 532.149174,144.203 530.7765,144.203 Z M530.7765,142.26 C532.226507,142.26 533.338163,141.781505 534.1115,140.8245 C534.884837,139.867495 535.2715,138.470676 535.2715,136.634 C535.2715,134.855324 534.875171,133.477838 534.0825,132.5015 C533.289829,131.525162 532.18784,131.037 530.7765,131.037 C529.345826,131.037 528.234171,131.525162 527.4415,132.5015 C526.648829,133.477838 526.2525,134.855324 526.2525,136.634 C526.2525,138.470676 526.643996,139.867495 527.427,140.8245 C528.210004,141.781505 529.326493,142.26 530.7765,142.26 Z M548.6115,129.065 C552.110851,129.065 553.8605,130.988647 553.8605,134.836 L553.8605,144 L551.5115,144 L551.5115,134.952 C551.5115,133.59866 551.240836,132.607836 550.6995,131.9795 C550.158164,131.351164 549.307506,131.037 548.1475,131.037 C546.79416,131.037 545.711504,131.452663 544.8995,132.284 C544.087496,133.115337 543.6815,134.23666 543.6815,135.648 L543.6815,144 L541.3325,144 L541.3325,133.502 C541.3325,131.993992 541.255167,130.631006 541.1005,129.413 L543.3335,129.413 L543.5655,132.023 C544.010169,131.075662 544.677162,130.345836 545.5665,129.8335 C546.455838,129.321164 547.470828,129.065 548.6115,129.065 Z M571.1445,122.656 L571.1445,144 L568.8245,144 L568.8245,141.361 C568.399165,142.269671 567.756338,142.970498 566.896,143.4635 C566.035662,143.956502 565.035172,144.203 563.8945,144.203 C562.618494,144.203 561.492338,143.884003 560.516,143.246 C559.539662,142.607997 558.780836,141.713839 558.2395,140.5635 C557.698164,139.413161 557.4275,138.084008 557.4275,136.576 C557.4275,135.067992 557.693331,133.748506 558.225,132.6175 C558.756669,131.486494 559.515495,130.61167 560.5015,129.993 C561.487505,129.37433 562.618494,129.065 563.8945,129.065 C565.035172,129.065 566.030829,129.311498 566.8815,129.8045 C567.732171,130.297502 568.370165,130.988662 568.7955,131.878 L568.7955,122.656 L571.1445,122.656 Z M564.3585,142.26 C565.789174,142.26 566.891163,141.771838 567.6645,140.7955 C568.437837,139.819162 568.8245,138.432009 568.8245,136.634 C568.8245,134.855324 568.437837,133.477838 567.6645,132.5015 C566.891163,131.525162 565.789174,131.037 564.3585,131.037 C562.927826,131.037 561.811337,131.520329 561.009,132.487 C560.206663,133.453671 559.8055,134.816658 559.8055,136.576 C559.8055,138.374009 560.206663,139.770828 561.009,140.7665 C561.811337,141.762172 562.927826,142.26 564.3585,142.26 Z M590.5455,129.065 C591.821506,129.065 592.952495,129.37433 593.9385,129.993 C594.924505,130.61167 595.688164,131.486494 596.2295,132.6175 C596.770836,133.748506 597.0415,135.067992 597.0415,136.576 C597.0415,138.084008 596.770836,139.413161 596.2295,140.5635 C595.688164,141.713839 594.924505,142.607997 593.9385,143.246 C592.952495,143.884003 591.821506,144.203 590.5455,144.203 C589.404828,144.203 588.409171,143.951669 587.5585,143.449 C586.707829,142.946331 586.060169,142.231005 585.6155,141.303 L585.6155,144 L583.2665,144 L583.2665,122.656 L585.6155,122.656 L585.6155,131.994 C586.040835,131.046662 586.683662,130.321669 587.544,129.819 C588.404338,129.316331 589.404828,129.065 590.5455,129.065 Z M590.1105,142.26 C591.52184,142.26 592.623829,141.762172 593.4165,140.7665 C594.209171,139.770828 594.6055,138.374009 594.6055,136.576 C594.6055,134.816658 594.214004,133.453671 593.431,132.487 C592.647996,131.520329 591.541174,131.037 590.1105,131.037 C588.660493,131.037 587.548837,131.520329 586.7755,132.487 C586.002163,133.453671 585.6155,134.835991 585.6155,136.634 C585.6155,138.432009 586.002163,139.819162 586.7755,140.7955 C587.548837,141.771838 588.660493,142.26 590.1105,142.26 Z M612.8755,136.634 L602.1745,136.634 C602.193833,138.490009 602.623996,139.891662 603.465,140.839 C604.306004,141.786338 605.528825,142.26 607.1335,142.26 C608.834842,142.26 610.400826,141.689672 611.8315,140.549 L612.6145,142.26 C611.976497,142.859336 611.159672,143.332998 610.164,143.681 C609.168328,144.029002 608.148505,144.203 607.1045,144.203 C604.823155,144.203 603.03484,143.531173 601.7395,142.1875 C600.44416,140.843827 599.7965,139.002345 599.7965,136.663 C599.7965,135.174326 600.086497,133.854839 600.6665,132.7045 C601.246503,131.554161 602.058495,130.660003 603.1025,130.022 C604.146505,129.383997 605.335493,129.065 606.6695,129.065 C608.602843,129.065 610.120494,129.69816 611.2225,130.9645 C612.324506,132.23084 612.8755,133.975656 612.8755,136.199 L612.8755,136.634 Z M606.6985,130.892 C605.480494,130.892 604.48967,131.25933 603.726,131.994 C602.96233,132.72867 602.474168,133.762993 602.2615,135.097 L610.7585,135.097 C610.642499,133.724326 610.241337,132.680337 609.555,131.965 C608.868663,131.249663 607.916506,130.892 606.6985,130.892 Z M619.4875,131.269 L619.4875,139.244 C619.4875,140.326672 619.709831,141.085498 620.1545,141.5205 C620.599169,141.955502 621.227496,142.173 622.0395,142.173 C622.580836,142.173 623.102831,142.086001 623.6055,141.912 L623.6055,143.913 C623.006164,144.106334 622.329504,144.203 621.5755,144.203 C620.183493,144.203 619.096004,143.811504 618.313,143.0285 C617.529996,142.245496 617.1385,141.090341 617.1385,139.563 L617.1385,131.269 L614.2965,131.269 L614.2965,129.413 L617.1385,129.413 L617.1385,125.672 L619.4875,124.831 L619.4875,129.413 L623.6635,129.413 L623.6635,131.269 L619.4875,131.269 Z M646.5155,129.413 L648.8355,129.413 L643.4415,144 L641.1795,144 L637.0035,132.603 L632.8565,144 L630.5945,144 L625.2005,129.413 L627.6655,129.413 L631.7835,141.187 L636.0465,129.413 L638.1055,129.413 L642.3105,141.216 L646.5155,129.413 Z M663.9155,136.634 L653.2145,136.634 C653.233833,138.490009 653.663996,139.891662 654.505,140.839 C655.346004,141.786338 656.568825,142.26 658.1735,142.26 C659.874842,142.26 661.440826,141.689672 662.8715,140.549 L663.6545,142.26 C663.016497,142.859336 662.199672,143.332998 661.204,143.681 C660.208328,144.029002 659.188505,144.203 658.1445,144.203 C655.863155,144.203 654.07484,143.531173 652.7795,142.1875 C651.48416,140.843827 650.8365,139.002345 650.8365,136.663 C650.8365,135.174326 651.126497,133.854839 651.7065,132.7045 C652.286503,131.554161 653.098495,130.660003 654.1425,130.022 C655.186505,129.383997 656.375493,129.065 657.7095,129.065 C659.642843,129.065 661.160494,129.69816 662.2625,130.9645 C663.364506,132.23084 663.9155,133.975656 663.9155,136.199 L663.9155,136.634 Z M657.7385,130.892 C656.520494,130.892 655.52967,131.25933 654.766,131.994 C654.00233,132.72867 653.514168,133.762993 653.3015,135.097 L661.7985,135.097 C661.682499,133.724326 661.281337,132.680337 660.595,131.965 C659.908663,131.249663 658.956506,130.892 657.7385,130.892 Z M679.6915,136.634 L668.9905,136.634 C669.009833,138.490009 669.439996,139.891662 670.281,140.839 C671.122004,141.786338 672.344825,142.26 673.9495,142.26 C675.650842,142.26 677.216826,141.689672 678.6475,140.549 L679.4305,142.26 C678.792497,142.859336 677.975672,143.332998 676.98,143.681 C675.984328,144.029002 674.964505,144.203 673.9205,144.203 C671.639155,144.203 669.85084,143.531173 668.5555,142.1875 C667.26016,140.843827 666.6125,139.002345 666.6125,136.663 C666.6125,135.174326 666.902497,133.854839 667.4825,132.7045 C668.062503,131.554161 668.874495,130.660003 669.9185,130.022 C670.962505,129.383997 672.151493,129.065 673.4855,129.065 C675.418843,129.065 676.936494,129.69816 678.0385,130.9645 C679.140506,132.23084 679.6915,133.975656 679.6915,136.199 L679.6915,136.634 Z M673.5145,130.892 C672.296494,130.892 671.30567,131.25933 670.542,131.994 C669.77833,132.72867 669.290168,133.762993 669.0775,135.097 L677.5745,135.097 C677.458499,133.724326 677.057337,132.680337 676.371,131.965 C675.684663,131.249663 674.732506,130.892 673.5145,130.892 Z M690.5375,129.065 C694.036851,129.065 695.7865,130.988647 695.7865,134.836 L695.7865,144 L693.4375,144 L693.4375,134.952 C693.4375,133.59866 693.166836,132.607836 692.6255,131.9795 C692.084164,131.351164 691.233506,131.037 690.0735,131.037 C688.72016,131.037 687.637504,131.452663 686.8255,132.284 C686.013496,133.115337 685.6075,134.23666 685.6075,135.648 L685.6075,144 L683.2585,144 L683.2585,133.502 C683.2585,131.993992 683.181167,130.631006 683.0265,129.413 L685.2595,129.413 L685.4915,132.023 C685.936169,131.075662 686.603162,130.345836 687.4925,129.8335 C688.381838,129.321164 689.396828,129.065 690.5375,129.065 Z M715.0715,129.065 C716.347506,129.065 717.478495,129.383997 718.4645,130.022 C719.450505,130.660003 720.214164,131.554161 720.7555,132.7045 C721.296836,133.854839 721.5675,135.183992 721.5675,136.692 C721.5675,138.200008 721.296836,139.519494 720.7555,140.6505 C720.214164,141.781506 719.455338,142.65633 718.479,143.275 C717.502662,143.89367 716.36684,144.203 715.0715,144.203 C713.930828,144.203 712.935171,143.951669 712.0845,143.449 C711.233829,142.946331 710.586169,142.231005 710.1415,141.303 L710.1415,150.264 L707.7925,150.264 L707.7925,133.502 C707.7925,131.993992 707.715167,130.631006 707.5605,129.413 L709.7935,129.413 L710.0255,132.226 C710.431502,131.220662 711.074329,130.442503 711.954,129.8915 C712.833671,129.340497 713.872827,129.065 715.0715,129.065 Z M714.6365,142.26 C716.067174,142.26 717.173996,141.776672 717.957,140.81 C718.740004,139.843329 719.1315,138.470676 719.1315,136.692 C719.1315,134.913324 718.735171,133.526172 717.9425,132.5305 C717.149829,131.534828 716.04784,131.037 714.6365,131.037 C713.186493,131.037 712.074837,131.520329 711.3015,132.487 C710.528163,133.453671 710.1415,134.835991 710.1415,136.634 C710.1415,138.432009 710.528163,139.819162 711.3015,140.7955 C712.074837,141.771838 713.186493,142.26 714.6365,142.26 Z M737.4015,136.634 L726.7005,136.634 C726.719833,138.490009 727.149996,139.891662 727.991,140.839 C728.832004,141.786338 730.054825,142.26 731.6595,142.26 C733.360842,142.26 734.926826,141.689672 736.3575,140.549 L737.1405,142.26 C736.502497,142.859336 735.685672,143.332998 734.69,143.681 C733.694328,144.029002 732.674505,144.203 731.6305,144.203 C729.349155,144.203 727.56084,143.531173 726.2655,142.1875 C724.97016,140.843827 724.3225,139.002345 724.3225,136.663 C724.3225,135.174326 724.612497,133.854839 725.1925,132.7045 C725.772503,131.554161 726.584495,130.660003 727.6285,130.022 C728.672505,129.383997 729.861493,129.065 731.1955,129.065 C733.128843,129.065 734.646494,129.69816 735.7485,130.9645 C736.850506,132.23084 737.4015,133.975656 737.4015,136.199 L737.4015,136.634 Z M731.2245,130.892 C730.006494,130.892 729.01567,131.25933 728.252,131.994 C727.48833,132.72867 727.000168,133.762993 726.7875,135.097 L735.2845,135.097 C735.168499,133.724326 734.767337,132.680337 734.081,131.965 C733.394663,131.249663 732.442506,130.892 731.2245,130.892 Z M747.0005,144.203 C745.627826,144.203 744.419505,143.89367 743.3755,143.275 C742.331495,142.65633 741.524336,141.776672 740.954,140.636 C740.383664,139.495328 740.0985,138.161341 740.0985,136.634 C740.0985,135.106659 740.383664,133.772672 740.954,132.632 C741.524336,131.491328 742.331495,130.61167 743.3755,129.993 C744.419505,129.37433 745.627826,129.065 747.0005,129.065 C748.373174,129.065 749.581495,129.37433 750.6255,129.993 C751.669505,130.61167 752.476664,131.491328 753.047,132.632 C753.617336,133.772672 753.9025,135.106659 753.9025,136.634 C753.9025,138.161341 753.617336,139.495328 753.047,140.636 C752.476664,141.776672 751.669505,142.65633 750.6255,143.275 C749.581495,143.89367 748.373174,144.203 747.0005,144.203 Z M747.0005,142.26 C748.450507,142.26 749.562163,141.781505 750.3355,140.8245 C751.108837,139.867495 751.4955,138.470676 751.4955,136.634 C751.4955,134.855324 751.099171,133.477838 750.3065,132.5015 C749.513829,131.525162 748.41184,131.037 747.0005,131.037 C745.569826,131.037 744.458171,131.525162 743.6655,132.5015 C742.872829,133.477838 742.4765,134.855324 742.4765,136.634 C742.4765,138.470676 742.867996,139.867495 743.651,140.8245 C744.434004,141.781505 745.550493,142.26 747.0005,142.26 Z M764.8355,129.065 C766.111506,129.065 767.242495,129.383997 768.2285,130.022 C769.214505,130.660003 769.978164,131.554161 770.5195,132.7045 C771.060836,133.854839 771.3315,135.183992 771.3315,136.692 C771.3315,138.200008 771.060836,139.519494 770.5195,140.6505 C769.978164,141.781506 769.219338,142.65633 768.243,143.275 C767.266662,143.89367 766.13084,144.203 764.8355,144.203 C763.694828,144.203 762.699171,143.951669 761.8485,143.449 C760.997829,142.946331 760.350169,142.231005 759.9055,141.303 L759.9055,150.264 L757.5565,150.264 L757.5565,133.502 C757.5565,131.993992 757.479167,130.631006 757.3245,129.413 L759.5575,129.413 L759.7895,132.226 C760.195502,131.220662 760.838329,130.442503 761.718,129.8915 C762.597671,129.340497 763.636827,129.065 764.8355,129.065 Z M764.4005,142.26 C765.831174,142.26 766.937996,141.776672 767.721,140.81 C768.504004,139.843329 768.8955,138.470676 768.8955,136.692 C768.8955,134.913324 768.499171,133.526172 767.7065,132.5305 C766.913829,131.534828 765.81184,131.037 764.4005,131.037 C762.950493,131.037 761.838837,131.520329 761.0655,132.487 C760.292163,133.453671 759.9055,134.835991 759.9055,136.634 C759.9055,138.432009 760.292163,139.819162 761.0655,140.7955 C761.838837,141.771838 762.950493,142.26 764.4005,142.26 Z M774.9565,144 L774.9565,122.656 L777.3055,122.656 L777.3055,144 L774.9565,144 Z M794.0675,136.634 L783.3665,136.634 C783.385833,138.490009 783.815996,139.891662 784.657,140.839 C785.498004,141.786338 786.720825,142.26 788.3255,142.26 C790.026842,142.26 791.592826,141.689672 793.0235,140.549 L793.8065,142.26 C793.168497,142.859336 792.351672,143.332998 791.356,143.681 C790.360328,144.029002 789.340505,144.203 788.2965,144.203 C786.015155,144.203 784.22684,143.531173 782.9315,142.1875 C781.63616,140.843827 780.9885,139.002345 780.9885,136.663 C780.9885,135.174326 781.278497,133.854839 781.8585,132.7045 C782.438503,131.554161 783.250495,130.660003 784.2945,130.022 C785.338505,129.383997 786.527493,129.065 787.8615,129.065 C789.794843,129.065 791.312494,129.69816 792.4145,130.9645 C793.516506,132.23084 794.0675,133.975656 794.0675,136.199 L794.0675,136.634 Z M787.8905,130.892 C786.672494,130.892 785.68167,131.25933 784.918,131.994 C784.15433,132.72867 783.666168,133.762993 783.4535,135.097 L791.9505,135.097 C791.834499,133.724326 791.433337,132.680337 790.747,131.965 C790.060663,131.249663 789.108506,130.892 787.8905,130.892 Z M818.0505,129.413 L818.0505,144 L815.7305,144 L815.7305,141.361 C815.305165,142.269671 814.662338,142.970498 813.802,143.4635 C812.941662,143.956502 811.941172,144.203 810.8005,144.203 C809.50516,144.203 808.369338,143.89367 807.393,143.275 C806.416662,142.65633 805.662669,141.781506 805.131,140.6505 C804.599331,139.519494 804.3335,138.200008 804.3335,136.692 C804.3335,135.183992 804.604164,133.854839 805.1455,132.7045 C805.686836,131.554161 806.445662,130.660003 807.422,130.022 C808.398338,129.383997 809.524494,129.065 810.8005,129.065 C811.941172,129.065 812.936829,129.316331 813.7875,129.819 C814.638171,130.321669 815.285831,131.027329 815.7305,131.936 L815.7305,129.413 L818.0505,129.413 Z M811.2645,142.26 C812.695174,142.26 813.797163,141.771838 814.5705,140.7955 C815.343837,139.819162 815.7305,138.432009 815.7305,136.634 C815.7305,134.835991 815.343837,133.453671 814.5705,132.487 C813.797163,131.520329 812.695174,131.037 811.2645,131.037 C809.833826,131.037 808.717337,131.534828 807.915,132.5305 C807.112663,133.526172 806.7115,134.913324 806.7115,136.692 C806.7115,138.470676 807.107829,139.843329 807.9005,140.81 C808.693171,141.776672 809.814493,142.26 811.2645,142.26 Z M829.8825,129.065 C833.381851,129.065 835.1315,130.988647 835.1315,134.836 L835.1315,144 L832.7825,144 L832.7825,134.952 C832.7825,133.59866 832.511836,132.607836 831.9705,131.9795 C831.429164,131.351164 830.578506,131.037 829.4185,131.037 C828.06516,131.037 826.982504,131.452663 826.1705,132.284 C825.358496,133.115337 824.9525,134.23666 824.9525,135.648 L824.9525,144 L822.6035,144 L822.6035,133.502 C822.6035,131.993992 822.526167,130.631006 822.3715,129.413 L824.6045,129.413 L824.8365,132.023 C825.281169,131.075662 825.948162,130.345836 826.8375,129.8335 C827.726838,129.321164 828.741828,129.065 829.8825,129.065 Z M852.4155,122.656 L852.4155,144 L850.0955,144 L850.0955,141.361 C849.670165,142.269671 849.027338,142.970498 848.167,143.4635 C847.306662,143.956502 846.306172,144.203 845.1655,144.203 C843.889494,144.203 842.763338,143.884003 841.787,143.246 C840.810662,142.607997 840.051836,141.713839 839.5105,140.5635 C838.969164,139.413161 838.6985,138.084008 838.6985,136.576 C838.6985,135.067992 838.964331,133.748506 839.496,132.6175 C840.027669,131.486494 840.786495,130.61167 841.7725,129.993 C842.758505,129.37433 843.889494,129.065 845.1655,129.065 C846.306172,129.065 847.301829,129.311498 848.1525,129.8045 C849.003171,130.297502 849.641165,130.988662 850.0665,131.878 L850.0665,122.656 L852.4155,122.656 Z M845.6295,142.26 C847.060174,142.26 848.162163,141.771838 848.9355,140.7955 C849.708837,139.819162 850.0955,138.432009 850.0955,136.634 C850.0955,134.855324 849.708837,133.477838 848.9355,132.5015 C848.162163,131.525162 847.060174,131.037 845.6295,131.037 C844.198826,131.037 843.082337,131.520329 842.28,132.487 C841.477663,133.453671 841.0765,134.816658 841.0765,136.576 C841.0765,138.374009 841.477663,139.770828 842.28,140.7665 C843.082337,141.762172 844.198826,142.26 845.6295,142.26 Z M260.83,163.269 L260.83,171.244 C260.83,172.326672 261.052331,173.085498 261.497,173.5205 C261.941669,173.955502 262.569996,174.173 263.382,174.173 C263.923336,174.173 264.445331,174.086001 264.948,173.912 L264.948,175.913 C264.348664,176.106334 263.672004,176.203 262.918,176.203 C261.525993,176.203 260.438504,175.811504 259.6555,175.0285 C258.872496,174.245496 258.481,173.090341 258.481,171.563 L258.481,163.269 L255.639,163.269 L255.639,161.413 L258.481,161.413 L258.481,157.672 L260.83,156.831 L260.83,161.413 L265.006,161.413 L265.006,163.269 L260.83,163.269 Z M280.057,168.634 L269.356,168.634 C269.375333,170.490009 269.805496,171.891662 270.6465,172.839 C271.487504,173.786338 272.710325,174.26 274.315,174.26 C276.016342,174.26 277.582326,173.689672 279.013,172.549 L279.796,174.26 C279.157997,174.859336 278.341172,175.332998 277.3455,175.681 C276.349828,176.029002 275.330005,176.203 274.286,176.203 C272.004655,176.203 270.21634,175.531173 268.921,174.1875 C267.62566,172.843827 266.978,171.002345 266.978,168.663 C266.978,167.174326 267.267997,165.854839 267.848,164.7045 C268.428003,163.554161 269.239995,162.660003 270.284,162.022 C271.328005,161.383997 272.516993,161.065 273.851,161.065 C275.784343,161.065 277.301994,161.69816 278.404,162.9645 C279.506006,164.23084 280.057,165.975656 280.057,168.199 L280.057,168.634 Z M273.88,162.892 C272.661994,162.892 271.67117,163.25933 270.9075,163.994 C270.14383,164.72867 269.655668,165.762993 269.443,167.097 L277.94,167.097 C277.823999,165.724326 277.422837,164.680337 276.7365,163.965 C276.050163,163.249663 275.098006,162.892 273.88,162.892 Z M289.743,176.203 C288.33166,176.203 287.099172,175.89367 286.0455,175.275 C284.991828,174.65633 284.179836,173.781506 283.6095,172.6505 C283.039164,171.519494 282.754,170.200008 282.754,168.692 C282.754,167.183992 283.043997,165.854839 283.624,164.7045 C284.204003,163.554161 285.030495,162.660003 286.1035,162.022 C287.176505,161.383997 288.428326,161.065 289.859,161.065 C290.845005,161.065 291.797162,161.234165 292.7155,161.5725 C293.633838,161.910835 294.392664,162.379664 294.992,162.979 L294.209,164.719 C293.47433,164.138997 292.763837,163.713668 292.0775,163.443 C291.391163,163.172332 290.690337,163.037 289.975,163.037 C288.486326,163.037 287.316671,163.534828 286.466,164.5305 C285.615329,165.526172 285.19,166.913324 285.19,168.692 C285.19,170.451342 285.610496,171.819162 286.4515,172.7955 C287.292504,173.771838 288.466992,174.26 289.975,174.26 C290.690337,174.26 291.391163,174.124668 292.0775,173.854 C292.763837,173.583332 293.47433,173.158003 294.209,172.578 L294.992,174.318 C294.37333,174.898003 293.595171,175.357165 292.6575,175.6955 C291.719829,176.033835 290.748338,176.203 289.743,176.203 Z M305.258,161.065 C308.757351,161.065 310.507,162.988647 310.507,166.836 L310.507,176 L308.158,176 L308.158,166.952 C308.158,165.59866 307.887336,164.607836 307.346,163.9795 C306.804664,163.351164 305.954006,163.037 304.794,163.037 C303.44066,163.037 302.358004,163.452663 301.546,164.284 C300.733996,165.115337 300.328,166.23666 300.328,167.648 L300.328,176 L297.979,176 L297.979,154.656 L300.328,154.656 L300.328,163.791 C300.792002,162.901662 301.454162,162.225002 302.3145,161.761 C303.174838,161.296998 304.155994,161.065 305.258,161.065 Z M322.223,161.065 C325.722351,161.065 327.472,162.988647 327.472,166.836 L327.472,176 L325.123,176 L325.123,166.952 C325.123,165.59866 324.852336,164.607836 324.311,163.9795 C323.769664,163.351164 322.919006,163.037 321.759,163.037 C320.40566,163.037 319.323004,163.452663 318.511,164.284 C317.698996,165.115337 317.293,166.23666 317.293,167.648 L317.293,176 L314.944,176 L314.944,165.502 C314.944,163.993992 314.866667,162.631006 314.712,161.413 L316.945,161.413 L317.177,164.023 C317.621669,163.075662 318.288662,162.345836 319.178,161.8335 C320.067338,161.321164 321.082328,161.065 322.223,161.065 Z M337.941,176.203 C336.568326,176.203 335.360005,175.89367 334.316,175.275 C333.271995,174.65633 332.464836,173.776672 331.8945,172.636 C331.324164,171.495328 331.039,170.161341 331.039,168.634 C331.039,167.106659 331.324164,165.772672 331.8945,164.632 C332.464836,163.491328 333.271995,162.61167 334.316,161.993 C335.360005,161.37433 336.568326,161.065 337.941,161.065 C339.313674,161.065 340.521995,161.37433 341.566,161.993 C342.610005,162.61167 343.417164,163.491328 343.9875,164.632 C344.557836,165.772672 344.843,167.106659 344.843,168.634 C344.843,170.161341 344.557836,171.495328 343.9875,172.636 C343.417164,173.776672 342.610005,174.65633 341.566,175.275 C340.521995,175.89367 339.313674,176.203 337.941,176.203 Z M337.941,174.26 C339.391007,174.26 340.502663,173.781505 341.276,172.8245 C342.049337,171.867495 342.436,170.470676 342.436,168.634 C342.436,166.855324 342.039671,165.477838 341.247,164.5015 C340.454329,163.525162 339.35234,163.037 337.941,163.037 C336.510326,163.037 335.398671,163.525162 334.606,164.5015 C333.813329,165.477838 333.417,166.855324 333.417,168.634 C333.417,170.470676 333.808496,171.867495 334.5915,172.8245 C335.374504,173.781505 336.490993,174.26 337.941,174.26 Z M348.497,176 L348.497,154.656 L350.846,154.656 L350.846,176 L348.497,176 Z M361.431,176.203 C360.058326,176.203 358.850005,175.89367 357.806,175.275 C356.761995,174.65633 355.954836,173.776672 355.3845,172.636 C354.814164,171.495328 354.529,170.161341 354.529,168.634 C354.529,167.106659 354.814164,165.772672 355.3845,164.632 C355.954836,163.491328 356.761995,162.61167 357.806,161.993 C358.850005,161.37433 360.058326,161.065 361.431,161.065 C362.803674,161.065 364.011995,161.37433 365.056,161.993 C366.100005,162.61167 366.907164,163.491328 367.4775,164.632 C368.047836,165.772672 368.333,167.106659 368.333,168.634 C368.333,170.161341 368.047836,171.495328 367.4775,172.636 C366.907164,173.776672 366.100005,174.65633 365.056,175.275 C364.011995,175.89367 362.803674,176.203 361.431,176.203 Z M361.431,174.26 C362.881007,174.26 363.992663,173.781505 364.766,172.8245 C365.539337,171.867495 365.926,170.470676 365.926,168.634 C365.926,166.855324 365.529671,165.477838 364.737,164.5015 C363.944329,163.525162 362.84234,163.037 361.431,163.037 C360.000326,163.037 358.888671,163.525162 358.096,164.5015 C357.303329,165.477838 356.907,166.855324 356.907,168.634 C356.907,170.470676 357.298496,171.867495 358.0815,172.8245 C358.864504,173.781505 359.980993,174.26 361.431,174.26 Z M384.979,161.413 L384.979,175.884 C384.979,178.049344 384.423172,179.687828 383.3115,180.7995 C382.199828,181.911172 380.561344,182.467 378.396,182.467 C376.172656,182.467 374.258675,181.964338 372.654,180.959 L373.06,179.045 C373.988005,179.567003 374.862829,179.943999 375.6845,180.176 C376.506171,180.408001 377.409995,180.524 378.396,180.524 C379.80734,180.524 380.870663,180.151837 381.586,179.4075 C382.301337,178.663163 382.659,177.556341 382.659,176.087 L382.659,172.636 C382.214331,173.564005 381.561838,174.284164 380.7015,174.7965 C379.841162,175.308836 378.821339,175.565 377.642,175.565 C376.365994,175.565 375.230172,175.265336 374.2345,174.666 C373.238828,174.066664 372.470336,173.216006 371.929,172.114 C371.387664,171.011994 371.117,169.745674 371.117,168.315 C371.117,166.884326 371.387664,165.618006 371.929,164.516 C372.470336,163.413994 373.238828,162.563336 374.2345,161.964 C375.230172,161.364664 376.365994,161.065 377.642,161.065 C378.802006,161.065 379.812162,161.316331 380.6725,161.819 C381.532838,162.321669 382.185331,163.027329 382.63,163.936 L382.63,161.413 L384.979,161.413 Z M378.106,173.593 C379.51734,173.593 380.624163,173.124171 381.4265,172.1865 C382.228837,171.248829 382.63,169.958342 382.63,168.315 C382.63,166.671658 382.228837,165.381171 381.4265,164.4435 C380.624163,163.505829 379.51734,163.037 378.106,163.037 C376.675326,163.037 375.549171,163.505829 374.7275,164.4435 C373.905829,165.381171 373.495,166.671658 373.495,168.315 C373.495,169.958342 373.905829,171.248829 374.7275,172.1865 C375.549171,173.124171 376.675326,173.593 378.106,173.593 Z M402.321,161.413 L395.506,177.334 C394.790663,178.996675 393.891672,180.214663 392.809,180.988 C391.726328,181.761337 390.392341,182.292999 388.807,182.583 L388.314,180.756 C389.686674,180.446665 390.72583,180.035836 391.4315,179.5235 C392.13717,179.011164 392.721998,178.223339 393.186,177.16 L393.766,175.855 L387.589,161.413 L390.054,161.413 L394.984,173.448 L399.972,161.413 L402.321,161.413 Z M415.603,163.269 L415.603,171.244 C415.603,172.326672 415.825331,173.085498 416.27,173.5205 C416.714669,173.955502 417.342996,174.173 418.155,174.173 C418.696336,174.173 419.218331,174.086001 419.721,173.912 L419.721,175.913 C419.121664,176.106334 418.445004,176.203 417.691,176.203 C416.298993,176.203 415.211504,175.811504 414.4285,175.0285 C413.645496,174.245496 413.254,173.090341 413.254,171.563 L413.254,163.269 L410.412,163.269 L410.412,161.413 L413.254,161.413 L413.254,157.672 L415.603,156.831 L415.603,161.413 L419.779,161.413 L419.779,163.269 L415.603,163.269 Z M429.9,161.065 C433.399351,161.065 435.149,162.988647 435.149,166.836 L435.149,176 L432.8,176 L432.8,166.952 C432.8,165.59866 432.529336,164.607836 431.988,163.9795 C431.446664,163.351164 430.596006,163.037 429.436,163.037 C428.08266,163.037 427.000004,163.452663 426.188,164.284 C425.375996,165.115337 424.97,166.23666 424.97,167.648 L424.97,176 L422.621,176 L422.621,154.656 L424.97,154.656 L424.97,163.791 C425.434002,162.901662 426.096162,162.225002 426.9565,161.761 C427.816838,161.296998 428.797994,161.065 429.9,161.065 Z M446.372,161.065 C446.855336,161.065 447.299998,161.122999 447.706,161.239 L447.648,163.385 C447.203331,163.230333 446.691003,163.153 446.111,163.153 C444.69966,163.153 443.650837,163.592829 442.9645,164.4725 C442.278163,165.352171 441.935,166.420327 441.935,167.677 L441.935,176 L439.586,176 L439.586,165.502 C439.586,163.993992 439.508667,162.631006 439.354,161.413 L441.587,161.413 L441.819,164.11 C442.186335,163.123995 442.775996,162.370003 443.588,161.848 C444.400004,161.325997 445.327995,161.065 446.372,161.065 Z M455.826,176.203 C454.453326,176.203 453.245005,175.89367 452.201,175.275 C451.156995,174.65633 450.349836,173.776672 449.7795,172.636 C449.209164,171.495328 448.924,170.161341 448.924,168.634 C448.924,167.106659 449.209164,165.772672 449.7795,164.632 C450.349836,163.491328 451.156995,162.61167 452.201,161.993 C453.245005,161.37433 454.453326,161.065 455.826,161.065 C457.198674,161.065 458.406995,161.37433 459.451,161.993 C460.495005,162.61167 461.302164,163.491328 461.8725,164.632 C462.442836,165.772672 462.728,167.106659 462.728,168.634 C462.728,170.161341 462.442836,171.495328 461.8725,172.636 C461.302164,173.776672 460.495005,174.65633 459.451,175.275 C458.406995,175.89367 457.198674,176.203 455.826,176.203 Z M455.826,174.26 C457.276007,174.26 458.387663,173.781505 459.161,172.8245 C459.934337,171.867495 460.321,170.470676 460.321,168.634 C460.321,166.855324 459.924671,165.477838 459.132,164.5015 C458.339329,163.525162 457.23734,163.037 455.826,163.037 C454.395326,163.037 453.283671,163.525162 452.491,164.5015 C451.698329,165.477838 451.302,166.855324 451.302,168.634 C451.302,170.470676 451.693496,171.867495 452.4765,172.8245 C453.259504,173.781505 454.375993,174.26 455.826,174.26 Z M478.591,161.413 L478.591,176 L476.3,176 L476.3,173.477 C475.835998,174.366338 475.188337,175.042998 474.357,175.507 C473.525663,175.971002 472.588005,176.203 471.544,176.203 C469.823325,176.203 468.518338,175.719672 467.629,174.753 C466.739662,173.786329 466.295,172.355676 466.295,170.461 L466.295,161.413 L468.644,161.413 L468.644,170.403 C468.644,171.717673 468.914664,172.68433 469.456,173.303 C469.997336,173.92167 470.818994,174.231 471.921,174.231 C473.21634,174.231 474.260329,173.810504 475.053,172.9695 C475.845671,172.128496 476.242,171.021674 476.242,169.649 L476.242,161.413 L478.591,161.413 Z M496.107,161.413 L496.107,175.884 C496.107,178.049344 495.551172,179.687828 494.4395,180.7995 C493.327828,181.911172 491.689344,182.467 489.524,182.467 C487.300656,182.467 485.386675,181.964338 483.782,180.959 L484.188,179.045 C485.116005,179.567003 485.990829,179.943999 486.8125,180.176 C487.634171,180.408001 488.537995,180.524 489.524,180.524 C490.93534,180.524 491.998663,180.151837 492.714,179.4075 C493.429337,178.663163 493.787,177.556341 493.787,176.087 L493.787,172.636 C493.342331,173.564005 492.689838,174.284164 491.8295,174.7965 C490.969162,175.308836 489.949339,175.565 488.77,175.565 C487.493994,175.565 486.358172,175.265336 485.3625,174.666 C484.366828,174.066664 483.598336,173.216006 483.057,172.114 C482.515664,171.011994 482.245,169.745674 482.245,168.315 C482.245,166.884326 482.515664,165.618006 483.057,164.516 C483.598336,163.413994 484.366828,162.563336 485.3625,161.964 C486.358172,161.364664 487.493994,161.065 488.77,161.065 C489.930006,161.065 490.940162,161.316331 491.8005,161.819 C492.660838,162.321669 493.313331,163.027329 493.758,163.936 L493.758,161.413 L496.107,161.413 Z M489.234,173.593 C490.64534,173.593 491.752163,173.124171 492.5545,172.1865 C493.356837,171.248829 493.758,169.958342 493.758,168.315 C493.758,166.671658 493.356837,165.381171 492.5545,164.4435 C491.752163,163.505829 490.64534,163.037 489.234,163.037 C487.803326,163.037 486.677171,163.505829 485.8555,164.4435 C485.033829,165.381171 484.623,166.671658 484.623,168.315 C484.623,169.958342 485.033829,171.248829 485.8555,172.1865 C486.677171,173.124171 487.803326,173.593 489.234,173.593 Z M507.91,161.065 C511.409351,161.065 513.159,162.988647 513.159,166.836 L513.159,176 L510.81,176 L510.81,166.952 C510.81,165.59866 510.539336,164.607836 509.998,163.9795 C509.456664,163.351164 508.606006,163.037 507.446,163.037 C506.09266,163.037 505.010004,163.452663 504.198,164.284 C503.385996,165.115337 502.98,166.23666 502.98,167.648 L502.98,176 L500.631,176 L500.631,154.656 L502.98,154.656 L502.98,163.791 C503.444002,162.901662 504.106162,162.225002 504.9665,161.761 C505.826838,161.296998 506.807994,161.065 507.91,161.065 Z M538.012,154.656 L538.012,176 L535.692,176 L535.692,173.361 C535.266665,174.269671 534.623838,174.970498 533.7635,175.4635 C532.903162,175.956502 531.902672,176.203 530.762,176.203 C529.485994,176.203 528.359838,175.884003 527.3835,175.246 C526.407162,174.607997 525.648336,173.713839 525.107,172.5635 C524.565664,171.413161 524.295,170.084008 524.295,168.576 C524.295,167.067992 524.560831,165.748506 525.0925,164.6175 C525.624169,163.486494 526.382995,162.61167 527.369,161.993 C528.355005,161.37433 529.485994,161.065 530.762,161.065 C531.902672,161.065 532.898329,161.311498 533.749,161.8045 C534.599671,162.297502 535.237665,162.988662 535.663,163.878 L535.663,154.656 L538.012,154.656 Z M531.226,174.26 C532.656674,174.26 533.758663,173.771838 534.532,172.7955 C535.305337,171.819162 535.692,170.432009 535.692,168.634 C535.692,166.855324 535.305337,165.477838 534.532,164.5015 C533.758663,163.525162 532.656674,163.037 531.226,163.037 C529.795326,163.037 528.678837,163.520329 527.8765,164.487 C527.074163,165.453671 526.673,166.816658 526.673,168.576 C526.673,170.374009 527.074163,171.770828 527.8765,172.7665 C528.678837,173.762172 529.795326,174.26 531.226,174.26 Z M542.565,176 L542.565,161.413 L544.914,161.413 L544.914,176 L542.565,176 Z M542.333,155.236 L545.204,155.236 L545.204,157.904 L542.333,157.904 L542.333,155.236 Z M562.459,161.413 L562.459,175.884 C562.459,178.049344 561.903172,179.687828 560.7915,180.7995 C559.679828,181.911172 558.041344,182.467 555.876,182.467 C553.652656,182.467 551.738675,181.964338 550.134,180.959 L550.54,179.045 C551.468005,179.567003 552.342829,179.943999 553.1645,180.176 C553.986171,180.408001 554.889995,180.524 555.876,180.524 C557.28734,180.524 558.350663,180.151837 559.066,179.4075 C559.781337,178.663163 560.139,177.556341 560.139,176.087 L560.139,172.636 C559.694331,173.564005 559.041838,174.284164 558.1815,174.7965 C557.321162,175.308836 556.301339,175.565 555.122,175.565 C553.845994,175.565 552.710172,175.265336 551.7145,174.666 C550.718828,174.066664 549.950336,173.216006 549.409,172.114 C548.867664,171.011994 548.597,169.745674 548.597,168.315 C548.597,166.884326 548.867664,165.618006 549.409,164.516 C549.950336,163.413994 550.718828,162.563336 551.7145,161.964 C552.710172,161.364664 553.845994,161.065 555.122,161.065 C556.282006,161.065 557.292162,161.316331 558.1525,161.819 C559.012838,162.321669 559.665331,163.027329 560.11,163.936 L560.11,161.413 L562.459,161.413 Z M555.586,173.593 C556.99734,173.593 558.104163,173.124171 558.9065,172.1865 C559.708837,171.248829 560.11,169.958342 560.11,168.315 C560.11,166.671658 559.708837,165.381171 558.9065,164.4435 C558.104163,163.505829 556.99734,163.037 555.586,163.037 C554.155326,163.037 553.029171,163.505829 552.2075,164.4435 C551.385829,165.381171 550.975,166.671658 550.975,168.315 C550.975,169.958342 551.385829,171.248829 552.2075,172.1865 C553.029171,173.124171 554.155326,173.593 555.586,173.593 Z M566.983,176 L566.983,161.413 L569.332,161.413 L569.332,176 L566.983,176 Z M566.751,155.236 L569.622,155.236 L569.622,157.904 L566.751,157.904 L566.751,155.236 Z M577.017,163.269 L577.017,171.244 C577.017,172.326672 577.239331,173.085498 577.684,173.5205 C578.128669,173.955502 578.756996,174.173 579.569,174.173 C580.110336,174.173 580.632331,174.086001 581.135,173.912 L581.135,175.913 C580.535664,176.106334 579.859004,176.203 579.105,176.203 C577.712993,176.203 576.625504,175.811504 575.8425,175.0285 C575.059496,174.245496 574.668,173.090341 574.668,171.563 L574.668,163.269 L571.826,163.269 L571.826,161.413 L574.668,161.413 L574.668,157.672 L577.017,156.831 L577.017,161.413 L581.193,161.413 L581.193,163.269 L577.017,163.269 Z M596.882,161.413 L596.882,176 L594.562,176 L594.562,173.361 C594.136665,174.269671 593.493838,174.970498 592.6335,175.4635 C591.773162,175.956502 590.772672,176.203 589.632,176.203 C588.33666,176.203 587.200838,175.89367 586.2245,175.275 C585.248162,174.65633 584.494169,173.781506 583.9625,172.6505 C583.430831,171.519494 583.165,170.200008 583.165,168.692 C583.165,167.183992 583.435664,165.854839 583.977,164.7045 C584.518336,163.554161 585.277162,162.660003 586.2535,162.022 C587.229838,161.383997 588.355994,161.065 589.632,161.065 C590.772672,161.065 591.768329,161.316331 592.619,161.819 C593.469671,162.321669 594.117331,163.027329 594.562,163.936 L594.562,161.413 L596.882,161.413 Z M590.096,174.26 C591.526674,174.26 592.628663,173.771838 593.402,172.7955 C594.175337,171.819162 594.562,170.432009 594.562,168.634 C594.562,166.835991 594.175337,165.453671 593.402,164.487 C592.628663,163.520329 591.526674,163.037 590.096,163.037 C588.665326,163.037 587.548837,163.534828 586.7465,164.5305 C585.944163,165.526172 585.543,166.913324 585.543,168.692 C585.543,170.470676 585.939329,171.843329 586.732,172.81 C587.524671,173.776672 588.645993,174.26 590.096,174.26 Z M601.435,176 L601.435,154.656 L603.784,154.656 L603.784,176 L601.435,176 Z M628.115,168.634 L617.414,168.634 C617.433333,170.490009 617.863496,171.891662 618.7045,172.839 C619.545504,173.786338 620.768325,174.26 622.373,174.26 C624.074342,174.26 625.640326,173.689672 627.071,172.549 L627.854,174.26 C627.215997,174.859336 626.399172,175.332998 625.4035,175.681 C624.407828,176.029002 623.388005,176.203 622.344,176.203 C620.062655,176.203 618.27434,175.531173 616.979,174.1875 C615.68366,172.843827 615.036,171.002345 615.036,168.663 C615.036,167.174326 615.325997,165.854839 615.906,164.7045 C616.486003,163.554161 617.297995,162.660003 618.342,162.022 C619.386005,161.383997 620.574993,161.065 621.909,161.065 C623.842343,161.065 625.359994,161.69816 626.462,162.9645 C627.564006,164.23084 628.115,165.975656 628.115,168.199 L628.115,168.634 Z M621.938,162.892 C620.719994,162.892 619.72917,163.25933 618.9655,163.994 C618.20183,164.72867 617.713668,165.762993 617.501,167.097 L625.998,167.097 C625.881999,165.724326 625.480837,164.680337 624.7945,163.965 C624.108163,163.249663 623.156006,162.892 621.938,162.892 Z M638.381,168.489 L644.384,176 L641.571,176 L636.96,170.258 L632.407,176 L629.536,176 L635.597,168.489 L629.884,161.413 L632.726,161.413 L636.96,166.778 L641.194,161.413 L644.065,161.413 L638.381,168.489 Z M654.273,161.065 C655.549006,161.065 656.679995,161.383997 657.666,162.022 C658.652005,162.660003 659.415664,163.554161 659.957,164.7045 C660.498336,165.854839 660.769,167.183992 660.769,168.692 C660.769,170.200008 660.498336,171.519494 659.957,172.6505 C659.415664,173.781506 658.656838,174.65633 657.6805,175.275 C656.704162,175.89367 655.56834,176.203 654.273,176.203 C653.132328,176.203 652.136671,175.951669 651.286,175.449 C650.435329,174.946331 649.787669,174.231005 649.343,173.303 L649.343,182.264 L646.994,182.264 L646.994,165.502 C646.994,163.993992 646.916667,162.631006 646.762,161.413 L648.995,161.413 L649.227,164.226 C649.633002,163.220662 650.275829,162.442503 651.1555,161.8915 C652.035171,161.340497 653.074327,161.065 654.273,161.065 Z M653.838,174.26 C655.268674,174.26 656.375496,173.776672 657.1585,172.81 C657.941504,171.843329 658.333,170.470676 658.333,168.692 C658.333,166.913324 657.936671,165.526172 657.144,164.5305 C656.351329,163.534828 655.24934,163.037 653.838,163.037 C652.387993,163.037 651.276337,163.520329 650.503,164.487 C649.729663,165.453671 649.343,166.835991 649.343,168.634 C649.343,170.432009 649.729663,171.819162 650.503,172.7955 C651.276337,173.771838 652.387993,174.26 653.838,174.26 Z M676.603,168.634 L665.902,168.634 C665.921333,170.490009 666.351496,171.891662 667.1925,172.839 C668.033504,173.786338 669.256325,174.26 670.861,174.26 C672.562342,174.26 674.128326,173.689672 675.559,172.549 L676.342,174.26 C675.703997,174.859336 674.887172,175.332998 673.8915,175.681 C672.895828,176.029002 671.876005,176.203 670.832,176.203 C668.550655,176.203 666.76234,175.531173 665.467,174.1875 C664.17166,172.843827 663.524,171.002345 663.524,168.663 C663.524,167.174326 663.813997,165.854839 664.394,164.7045 C664.974003,163.554161 665.785995,162.660003 666.83,162.022 C667.874005,161.383997 669.062993,161.065 670.397,161.065 C672.330343,161.065 673.847994,161.69816 674.95,162.9645 C676.052006,164.23084 676.603,165.975656 676.603,168.199 L676.603,168.634 Z M670.426,162.892 C669.207994,162.892 668.21717,163.25933 667.4535,163.994 C666.68983,164.72867 666.201668,165.762993 665.989,167.097 L674.486,167.097 C674.369999,165.724326 673.968837,164.680337 673.2825,163.965 C672.596163,163.249663 671.644006,162.892 670.426,162.892 Z M686.956,161.065 C687.439336,161.065 687.883998,161.122999 688.29,161.239 L688.232,163.385 C687.787331,163.230333 687.275003,163.153 686.695,163.153 C685.28366,163.153 684.234837,163.592829 683.5485,164.4725 C682.862163,165.352171 682.519,166.420327 682.519,167.677 L682.519,176 L680.17,176 L680.17,165.502 C680.17,163.993992 680.092667,162.631006 679.938,161.413 L682.171,161.413 L682.403,164.11 C682.770335,163.123995 683.359996,162.370003 684.172,161.848 C684.984004,161.325997 685.911995,161.065 686.956,161.065 Z M690.668,176 L690.668,161.413 L693.017,161.413 L693.017,176 L690.668,176 Z M690.436,155.236 L693.307,155.236 L693.307,157.904 L690.436,157.904 L690.436,155.236 Z M709.779,168.634 L699.078,168.634 C699.097333,170.490009 699.527496,171.891662 700.3685,172.839 C701.209504,173.786338 702.432325,174.26 704.037,174.26 C705.738342,174.26 707.304326,173.689672 708.735,172.549 L709.518,174.26 C708.879997,174.859336 708.063172,175.332998 707.0675,175.681 C706.071828,176.029002 705.052005,176.203 704.008,176.203 C701.726655,176.203 699.93834,175.531173 698.643,174.1875 C697.34766,172.843827 696.7,171.002345 696.7,168.663 C696.7,167.174326 696.989997,165.854839 697.57,164.7045 C698.150003,163.554161 698.961995,162.660003 700.006,162.022 C701.050005,161.383997 702.238993,161.065 703.573,161.065 C705.506343,161.065 707.023994,161.69816 708.126,162.9645 C709.228006,164.23084 709.779,165.975656 709.779,168.199 L709.779,168.634 Z M703.602,162.892 C702.383994,162.892 701.39317,163.25933 700.6295,163.994 C699.86583,164.72867 699.377668,165.762993 699.165,167.097 L707.662,167.097 C707.545999,165.724326 707.144837,164.680337 706.4585,163.965 C705.772163,163.249663 704.820006,162.892 703.602,162.892 Z M720.625,161.065 C724.124351,161.065 725.874,162.988647 725.874,166.836 L725.874,176 L723.525,176 L723.525,166.952 C723.525,165.59866 723.254336,164.607836 722.713,163.9795 C722.171664,163.351164 721.321006,163.037 720.161,163.037 C718.80766,163.037 717.725004,163.452663 716.913,164.284 C716.100996,165.115337 715.695,166.23666 715.695,167.648 L715.695,176 L713.346,176 L713.346,165.502 C713.346,163.993992 713.268667,162.631006 713.114,161.413 L715.347,161.413 L715.579,164.023 C716.023669,163.075662 716.690662,162.345836 717.58,161.8335 C718.469338,161.321164 719.484328,161.065 720.625,161.065 Z M736.43,176.203 C735.01866,176.203 733.786172,175.89367 732.7325,175.275 C731.678828,174.65633 730.866836,173.781506 730.2965,172.6505 C729.726164,171.519494 729.441,170.200008 729.441,168.692 C729.441,167.183992 729.730997,165.854839 730.311,164.7045 C730.891003,163.554161 731.717495,162.660003 732.7905,162.022 C733.863505,161.383997 735.115326,161.065 736.546,161.065 C737.532005,161.065 738.484162,161.234165 739.4025,161.5725 C740.320838,161.910835 741.079664,162.379664 741.679,162.979 L740.896,164.719 C740.16133,164.138997 739.450837,163.713668 738.7645,163.443 C738.078163,163.172332 737.377337,163.037 736.662,163.037 C735.173326,163.037 734.003671,163.534828 733.153,164.5305 C732.302329,165.526172 731.877,166.913324 731.877,168.692 C731.877,170.451342 732.297496,171.819162 733.1385,172.7955 C733.979504,173.771838 735.153992,174.26 736.662,174.26 C737.377337,174.26 738.078163,174.124668 738.7645,173.854 C739.450837,173.583332 740.16133,173.158003 740.896,172.578 L741.679,174.318 C741.06033,174.898003 740.282171,175.357165 739.3445,175.6955 C738.406829,176.033835 737.435338,176.203 736.43,176.203 Z M756.875,168.634 L746.174,168.634 C746.193333,170.490009 746.623496,171.891662 747.4645,172.839 C748.305504,173.786338 749.528325,174.26 751.133,174.26 C752.834342,174.26 754.400326,173.689672 755.831,172.549 L756.614,174.26 C755.975997,174.859336 755.159172,175.332998 754.1635,175.681 C753.167828,176.029002 752.148005,176.203 751.104,176.203 C748.822655,176.203 747.03434,175.531173 745.739,174.1875 C744.44366,172.843827 743.796,171.002345 743.796,168.663 C743.796,167.174326 744.085997,165.854839 744.666,164.7045 C745.246003,163.554161 746.057995,162.660003 747.102,162.022 C748.146005,161.383997 749.334993,161.065 750.669,161.065 C752.602343,161.065 754.119994,161.69816 755.222,162.9645 C756.324006,164.23084 756.875,165.975656 756.875,168.199 L756.875,168.634 Z M750.698,162.892 C749.479994,162.892 748.48917,163.25933 747.7255,163.994 C746.96183,164.72867 746.473668,165.762993 746.261,167.097 L754.758,167.097 C754.641999,165.724326 754.240837,164.680337 753.5545,163.965 C752.868163,163.249663 751.916006,162.892 750.698,162.892 Z M765.372,176.203 C762.916654,176.203 760.973674,175.574673 759.543,174.318 L760.326,172.578 C761.118671,173.19667 761.920996,173.641332 762.733,173.912 C763.545004,174.182668 764.453662,174.318 765.459,174.318 C766.561006,174.318 767.397164,174.129502 767.9675,173.7525 C768.537836,173.375498 768.823,172.829337 768.823,172.114 C768.823,171.533997 768.629669,171.070002 768.243,170.722 C767.856331,170.373998 767.218338,170.103334 766.329,169.91 L763.864,169.33 C762.645994,169.059332 761.703503,168.576003 761.0365,167.88 C760.369497,167.183997 760.036,166.352672 760.036,165.386 C760.036,164.109994 760.548328,163.070837 761.573,162.2685 C762.597672,161.466163 763.950992,161.065 765.633,161.065 C766.657672,161.065 767.624329,161.229332 768.533,161.558 C769.441671,161.886668 770.20533,162.36033 770.824,162.979 L770.041,164.69 C768.668326,163.549328 767.199008,162.979 765.633,162.979 C764.588995,162.979 763.781836,163.177165 763.2115,163.5735 C762.641164,163.969835 762.356,164.525663 762.356,165.241 C762.356,165.840336 762.534832,166.313998 762.8925,166.662 C763.250168,167.010002 763.825329,167.280666 764.618,167.474 L767.083,168.083 C768.43634,168.392335 769.441663,168.87083 770.099,169.5185 C770.756337,170.16617 771.085,171.011995 771.085,172.056 C771.085,173.312673 770.572672,174.317996 769.548,175.072 C768.523328,175.826004 767.131342,176.203 765.372,176.203 Z" id="Our-mission-is-to-fo" fill="#FFFFFF"></path>
                <path d="M442.035,96.27 C439.97499,96.27 438.180008,95.8250045 436.65,94.935 C435.119992,94.0449956 433.940004,92.7750082 433.11,91.125 C432.279996,89.4749918 431.865,87.5300112 431.865,85.29 C431.865,83.0699889 432.274996,81.1350083 433.095,79.485 C433.915004,77.8349917 435.089992,76.5700044 436.62,75.69 C438.150008,74.8099956 439.95499,74.37 442.035,74.37 C444.11501,74.37 445.919992,74.8099956 447.45,75.69 C448.980008,76.5700044 450.149996,77.8349917 450.96,79.485 C451.770004,81.1350083 452.175,83.0699889 452.175,85.29 C452.175,87.5300112 451.765004,89.4749918 450.945,91.125 C450.124996,92.7750082 448.955008,94.0449956 447.435,94.935 C445.914992,95.8250045 444.11501,96.27 442.035,96.27 Z M442.035,93.18 C444.01501,93.18 445.554994,92.5000068 446.655,91.14 C447.755005,89.7799932 448.305,87.8300127 448.305,85.29 C448.305,82.7699874 447.755005,80.8350068 446.655,79.485 C445.554994,78.1349932 444.01501,77.46 442.035,77.46 C440.05499,77.46 438.515005,78.1299933 437.415,79.47 C436.314994,80.8100067 435.765,82.7499873 435.765,85.29 C435.765,87.8300127 436.314994,89.7799932 437.415,91.14 C438.515005,92.5000068 440.05499,93.18 442.035,93.18 Z M469.665,80.85 L469.665,96 L466.005,96 L466.005,93.66 C465.524998,94.5000042 464.885004,95.1399978 464.085,95.58 C463.284996,96.0200022 462.365005,96.24 461.325,96.24 C457.624981,96.24 455.775,94.1600208 455.775,90 L455.775,80.85 L459.495,80.85 L459.495,90.03 C459.495,91.1300055 459.719998,91.9399974 460.17,92.46 C460.620002,92.9800026 461.314995,93.24 462.255,93.24 C463.355005,93.24 464.234997,92.8800036 464.895,92.16 C465.555003,91.4399964 465.885,90.480006 465.885,89.28 L465.885,80.85 L469.665,80.85 Z M481.905,80.49 C482.485003,80.49 482.984998,80.5699992 483.405,80.73 L483.375,84.15 C482.734997,83.8899987 482.075003,83.76 481.395,83.76 C480.114994,83.76 479.140003,84.1299963 478.47,84.87 C477.799997,85.6100037 477.465,86.5899939 477.465,87.81 L477.465,96 L473.745,96 L473.745,85.14 C473.745,83.539992 473.665001,82.1100063 473.505,80.85 L477.015,80.85 L477.315,83.52 C477.695002,82.5399951 478.294996,81.7900026 479.115,81.27 C479.935004,80.7499974 480.864995,80.49 481.905,80.49 Z M511.755,74.64 L514.815,74.64 L514.815,96 L511.395,96 L511.395,82.74 L505.725,96 L503.175,96 L497.475,82.89 L497.475,96 L494.055,96 L494.055,74.64 L497.115,74.64 L504.465,91.35 L511.755,74.64 Z M519.225,96 L519.225,80.85 L522.945,80.85 L522.945,96 L519.225,96 Z M518.985,73.98 L523.155,73.98 L523.155,77.67 L518.985,77.67 L518.985,73.98 Z M532.605,96.24 C529.864986,96.24 527.685008,95.6000064 526.065,94.32 L527.115,91.68 C528.735008,92.880006 530.58499,93.48 532.665,93.48 C533.565004,93.48 534.259998,93.3300015 534.75,93.03 C535.240002,92.7299985 535.485,92.3100027 535.485,91.77 C535.485,91.3099977 535.315002,90.9450013 534.975,90.675 C534.634998,90.4049986 534.055004,90.170001 533.235,89.97 L530.715,89.4 C527.954986,88.799997 526.575,87.3900111 526.575,85.17 C526.575,84.2499954 526.834997,83.4350035 527.355,82.725 C527.875003,82.0149964 528.604995,81.460002 529.545,81.06 C530.485005,80.659998 531.574994,80.46 532.815,80.46 C533.895005,80.46 534.934995,80.6249983 535.935,80.955 C536.935005,81.2850016 537.814996,81.7599969 538.575,82.38 L537.465,84.93 C535.944992,83.8099944 534.385008,83.25 532.785,83.25 C531.924996,83.25 531.255002,83.4099984 530.775,83.73 C530.294998,84.0500016 530.055,84.4899972 530.055,85.05 C530.055,85.4900022 530.199999,85.8399987 530.49,86.1 C530.780001,86.3600013 531.274996,86.5799991 531.975,86.76 L534.555,87.33 C536.055007,87.6700017 537.149997,88.1949964 537.84,88.905 C538.530003,89.6150035 538.875,90.5399943 538.875,91.68 C538.875,93.080007 538.315006,94.1899959 537.195,95.01 C536.074994,95.8300041 534.54501,96.24 532.605,96.24 Z M547.635,96.24 C544.894986,96.24 542.715008,95.6000064 541.095,94.32 L542.145,91.68 C543.765008,92.880006 545.61499,93.48 547.695,93.48 C548.595004,93.48 549.289998,93.3300015 549.78,93.03 C550.270002,92.7299985 550.515,92.3100027 550.515,91.77 C550.515,91.3099977 550.345002,90.9450013 550.005,90.675 C549.664998,90.4049986 549.085004,90.170001 548.265,89.97 L545.745,89.4 C542.984986,88.799997 541.605,87.3900111 541.605,85.17 C541.605,84.2499954 541.864997,83.4350035 542.385,82.725 C542.905003,82.0149964 543.634995,81.460002 544.575,81.06 C545.515005,80.659998 546.604994,80.46 547.845,80.46 C548.925005,80.46 549.964995,80.6249983 550.965,80.955 C551.965005,81.2850016 552.844996,81.7599969 553.605,82.38 L552.495,84.93 C550.974992,83.8099944 549.415008,83.25 547.815,83.25 C546.954996,83.25 546.285002,83.4099984 545.805,83.73 C545.324998,84.0500016 545.085,84.4899972 545.085,85.05 C545.085,85.4900022 545.229999,85.8399987 545.52,86.1 C545.810001,86.3600013 546.304996,86.5799991 547.005,86.76 L549.585,87.33 C551.085007,87.6700017 552.179997,88.1949964 552.87,88.905 C553.560003,89.6150035 553.905,90.5399943 553.905,91.68 C553.905,93.080007 553.345006,94.1899959 552.225,95.01 C551.104994,95.8300041 549.57501,96.24 547.635,96.24 Z M557.115,96 L557.115,80.85 L560.835,80.85 L560.835,96 L557.115,96 Z M556.875,73.98 L561.045,73.98 L561.045,77.67 L556.875,77.67 L556.875,73.98 Z M571.815,96.24 C570.274992,96.24 568.920006,95.9200032 567.75,95.28 C566.579994,94.6399968 565.680003,93.7250059 565.05,92.535 C564.419997,91.344994 564.105,89.950008 564.105,88.35 C564.105,86.749992 564.419997,85.355006 565.05,84.165 C565.680003,82.9749941 566.579994,82.0600032 567.75,81.42 C568.920006,80.7799968 570.274992,80.46 571.815,80.46 C573.335008,80.46 574.674994,80.7799968 575.835,81.42 C576.995006,82.0600032 577.889997,82.9749941 578.52,84.165 C579.150003,85.355006 579.465,86.749992 579.465,88.35 C579.465,89.950008 579.150003,91.344994 578.52,92.535 C577.889997,93.7250059 576.995006,94.6399968 575.835,95.28 C574.674994,95.9200032 573.335008,96.24 571.815,96.24 Z M571.785,93.3 C573.065006,93.3 574.039997,92.8850041 574.71,92.055 C575.380003,91.2249958 575.715,89.9900082 575.715,88.35 C575.715,86.7299919 575.375003,85.4950042 574.695,84.645 C574.014997,83.7949957 573.055006,83.37 571.815,83.37 C570.554994,83.37 569.585003,83.7949957 568.905,84.645 C568.224997,85.4950042 567.885,86.7299919 567.885,88.35 C567.885,89.9900082 568.219997,91.2249958 568.89,92.055 C569.560003,92.8850041 570.524994,93.3 571.785,93.3 Z M591.375,80.46 C594.995018,80.46 596.805,82.5399792 596.805,86.7 L596.805,96 L593.055,96 L593.055,86.88 C593.055,85.679994 592.825002,84.8050028 592.365,84.255 C591.904998,83.7049972 591.195005,83.43 590.235,83.43 C589.094994,83.43 588.175003,83.7949964 587.475,84.525 C586.774996,85.2550036 586.425,86.219994 586.425,87.42 L586.425,96 L582.705,96 L582.705,85.14 C582.705,83.539992 582.625001,82.1100063 582.465,80.85 L585.975,80.85 L586.245,83.34 C586.765003,82.4199954 587.469996,81.7100025 588.36,81.21 C589.250004,80.7099975 590.254994,80.46 591.375,80.46 Z" id="Our-Mission" fill="#FFFFFF"></path>
            </g>
        </g>
    </g>
</svg>