<svg id="el_WmbTFl785" data-name="Layer 1" xmlns="http://www.w3.org/2000/svg" viewBox="0 0 266 210"><style>@-webkit-keyframes el_nmyFi6DSbJN_Animation{53.33%{opacity: 0;}66.67%{opacity: 1;}80%{opacity: 0;}90%{opacity: 1;}100%{opacity: 0;}0%{opacity: 0;}}@keyframes el_nmyFi6DSbJN_Animation{53.33%{opacity: 0;}66.67%{opacity: 1;}80%{opacity: 0;}90%{opacity: 1;}100%{opacity: 0;}0%{opacity: 0;}}@-webkit-keyframes el_Kg6nxIY7VHL_Animation{53.33%{opacity: 0;}63.33%{opacity: 1;}73.33%{opacity: 0;}86.67%{opacity: 1;}100%{opacity: 0;}0%{opacity: 0;}}@keyframes el_Kg6nxIY7VHL_Animation{53.33%{opacity: 0;}63.33%{opacity: 1;}73.33%{opacity: 0;}86.67%{opacity: 1;}100%{opacity: 0;}0%{opacity: 0;}}@-webkit-keyframes el_aCerXBp-Ntm_Animation{53.33%{opacity: 0;}76.67%{opacity: 1;}100%{opacity: 0;}0%{opacity: 0;}}@keyframes el_aCerXBp-Ntm_Animation{53.33%{opacity: 0;}76.67%{opacity: 1;}100%{opacity: 0;}0%{opacity: 0;}}@-webkit-keyframes el_Kd0edENFxZs_Animation{53.33%{opacity: 0;}66.67%{opacity: 1;}86.67%{opacity: 0;}0%{opacity: 0;}100%{opacity: 0;}}@keyframes el_Kd0edENFxZs_Animation{53.33%{opacity: 0;}66.67%{opacity: 1;}86.67%{opacity: 0;}0%{opacity: 0;}100%{opacity: 0;}}@-webkit-keyframes el_3FjjZGmqmP_mORtNSysj_Animation{0%{-webkit-transform: translate(0.010160446166992188px, 31.664813995361328px) translate(-0.010160446166992188px, -31.664813995361328px) translate(0px, 0px);transform: translate(0.010160446166992188px, 31.664813995361328px) translate(-0.010160446166992188px, -31.664813995361328px) translate(0px, 0px);}16.67%{-webkit-transform: translate(0.010160446166992188px, 31.664813995361328px) translate(-0.010160446166992188px, -31.664813995361328px) translate(0px, -20px);transform: translate(0.010160446166992188px, 31.664813995361328px) translate(-0.010160446166992188px, -31.664813995361328px) translate(0px, -20px);}36.67%{-webkit-transform: translate(0.010160446166992188px, 31.664813995361328px) translate(-0.010160446166992188px, -31.664813995361328px) translate(0px, 20px);transform: translate(0.010160446166992188px, 31.664813995361328px) translate(-0.010160446166992188px, -31.664813995361328px) translate(0px, 20px);}50%{-webkit-transform: translate(0.010160446166992188px, 31.664813995361328px) translate(-0.010160446166992188px, -31.664813995361328px) translate(0px, 0px);transform: translate(0.010160446166992188px, 31.664813995361328px) translate(-0.010160446166992188px, -31.664813995361328px) translate(0px, 0px);}100%{-webkit-transform: translate(0.010160446166992188px, 31.664813995361328px) translate(-0.010160446166992188px, -31.664813995361328px) translate(0px, 0px);transform: translate(0.010160446166992188px, 31.664813995361328px) translate(-0.010160446166992188px, -31.664813995361328px) translate(0px, 0px);}}@keyframes el_3FjjZGmqmP_mORtNSysj_Animation{0%{-webkit-transform: translate(0.010160446166992188px, 31.664813995361328px) translate(-0.010160446166992188px, -31.664813995361328px) translate(0px, 0px);transform: translate(0.010160446166992188px, 31.664813995361328px) translate(-0.010160446166992188px, -31.664813995361328px) translate(0px, 0px);}16.67%{-webkit-transform: translate(0.010160446166992188px, 31.664813995361328px) translate(-0.010160446166992188px, -31.664813995361328px) translate(0px, -20px);transform: translate(0.010160446166992188px, 31.664813995361328px) translate(-0.010160446166992188px, -31.664813995361328px) translate(0px, -20px);}36.67%{-webkit-transform: translate(0.010160446166992188px, 31.664813995361328px) translate(-0.010160446166992188px, -31.664813995361328px) translate(0px, 20px);transform: translate(0.010160446166992188px, 31.664813995361328px) translate(-0.010160446166992188px, -31.664813995361328px) translate(0px, 20px);}50%{-webkit-transform: translate(0.010160446166992188px, 31.664813995361328px) translate(-0.010160446166992188px, -31.664813995361328px) translate(0px, 0px);transform: translate(0.010160446166992188px, 31.664813995361328px) translate(-0.010160446166992188px, -31.664813995361328px) translate(0px, 0px);}100%{-webkit-transform: translate(0.010160446166992188px, 31.664813995361328px) translate(-0.010160446166992188px, -31.664813995361328px) translate(0px, 0px);transform: translate(0.010160446166992188px, 31.664813995361328px) translate(-0.010160446166992188px, -31.664813995361328px) translate(0px, 0px);}}@-webkit-keyframes el_S7J0mdJ8gAd_Animation{0%{opacity: 0;}53.33%{opacity: 0;}56.67%{opacity: 1;}66.67%{opacity: 0;}80%{opacity: 0;}93.33%{opacity: 1;}100%{opacity: 0;}}@keyframes el_S7J0mdJ8gAd_Animation{0%{opacity: 0;}53.33%{opacity: 0;}56.67%{opacity: 1;}66.67%{opacity: 0;}80%{opacity: 0;}93.33%{opacity: 1;}100%{opacity: 0;}}@-webkit-keyframes el_KBbTPSRhcf_PGP3Ci8q4_Animation{0%{-webkit-transform: translate(167.25684356689453px, 110.69254684448242px) rotate(0deg) translate(-167.25684356689453px, -110.69254684448242px);transform: translate(167.25684356689453px, 110.69254684448242px) rotate(0deg) translate(-167.25684356689453px, -110.69254684448242px);}26.67%{-webkit-transform: translate(167.25684356689453px, 110.69254684448242px) rotate(-1deg) translate(-167.25684356689453px, -110.69254684448242px);transform: translate(167.25684356689453px, 110.69254684448242px) rotate(-1deg) translate(-167.25684356689453px, -110.69254684448242px);}50%{-webkit-transform: translate(167.25684356689453px, 110.69254684448242px) rotate(0deg) translate(-167.25684356689453px, -110.69254684448242px);transform: translate(167.25684356689453px, 110.69254684448242px) rotate(0deg) translate(-167.25684356689453px, -110.69254684448242px);}100%{-webkit-transform: translate(167.25684356689453px, 110.69254684448242px) rotate(0deg) translate(-167.25684356689453px, -110.69254684448242px);transform: translate(167.25684356689453px, 110.69254684448242px) rotate(0deg) translate(-167.25684356689453px, -110.69254684448242px);}}@keyframes el_KBbTPSRhcf_PGP3Ci8q4_Animation{0%{-webkit-transform: translate(167.25684356689453px, 110.69254684448242px) rotate(0deg) translate(-167.25684356689453px, -110.69254684448242px);transform: translate(167.25684356689453px, 110.69254684448242px) rotate(0deg) translate(-167.25684356689453px, -110.69254684448242px);}26.67%{-webkit-transform: translate(167.25684356689453px, 110.69254684448242px) rotate(-1deg) translate(-167.25684356689453px, -110.69254684448242px);transform: translate(167.25684356689453px, 110.69254684448242px) rotate(-1deg) translate(-167.25684356689453px, -110.69254684448242px);}50%{-webkit-transform: translate(167.25684356689453px, 110.69254684448242px) rotate(0deg) translate(-167.25684356689453px, -110.69254684448242px);transform: translate(167.25684356689453px, 110.69254684448242px) rotate(0deg) translate(-167.25684356689453px, -110.69254684448242px);}100%{-webkit-transform: translate(167.25684356689453px, 110.69254684448242px) rotate(0deg) translate(-167.25684356689453px, -110.69254684448242px);transform: translate(167.25684356689453px, 110.69254684448242px) rotate(0deg) translate(-167.25684356689453px, -110.69254684448242px);}}@-webkit-keyframes el_HM1gQehhd-_68Fm0mtuz_Animation{0%{-webkit-transform: translate(101.46740531921387px, 103.28805923461914px) rotate(0deg) translate(-101.46740531921387px, -103.28805923461914px);transform: translate(101.46740531921387px, 103.28805923461914px) rotate(0deg) translate(-101.46740531921387px, -103.28805923461914px);}26.67%{-webkit-transform: translate(101.46740531921387px, 103.28805923461914px) rotate(1deg) translate(-101.46740531921387px, -103.28805923461914px);transform: translate(101.46740531921387px, 103.28805923461914px) rotate(1deg) translate(-101.46740531921387px, -103.28805923461914px);}50%{-webkit-transform: translate(101.46740531921387px, 103.28805923461914px) rotate(0deg) translate(-101.46740531921387px, -103.28805923461914px);transform: translate(101.46740531921387px, 103.28805923461914px) rotate(0deg) translate(-101.46740531921387px, -103.28805923461914px);}100%{-webkit-transform: translate(101.46740531921387px, 103.28805923461914px) rotate(0deg) translate(-101.46740531921387px, -103.28805923461914px);transform: translate(101.46740531921387px, 103.28805923461914px) rotate(0deg) translate(-101.46740531921387px, -103.28805923461914px);}}@keyframes el_HM1gQehhd-_68Fm0mtuz_Animation{0%{-webkit-transform: translate(101.46740531921387px, 103.28805923461914px) rotate(0deg) translate(-101.46740531921387px, -103.28805923461914px);transform: translate(101.46740531921387px, 103.28805923461914px) rotate(0deg) translate(-101.46740531921387px, -103.28805923461914px);}26.67%{-webkit-transform: translate(101.46740531921387px, 103.28805923461914px) rotate(1deg) translate(-101.46740531921387px, -103.28805923461914px);transform: translate(101.46740531921387px, 103.28805923461914px) rotate(1deg) translate(-101.46740531921387px, -103.28805923461914px);}50%{-webkit-transform: translate(101.46740531921387px, 103.28805923461914px) rotate(0deg) translate(-101.46740531921387px, -103.28805923461914px);transform: translate(101.46740531921387px, 103.28805923461914px) rotate(0deg) translate(-101.46740531921387px, -103.28805923461914px);}100%{-webkit-transform: translate(101.46740531921387px, 103.28805923461914px) rotate(0deg) translate(-101.46740531921387px, -103.28805923461914px);transform: translate(101.46740531921387px, 103.28805923461914px) rotate(0deg) translate(-101.46740531921387px, -103.28805923461914px);}}#el_WmbTFl785 *{-webkit-animation-duration: 1s;animation-duration: 1s;-webkit-animation-play-state: running;animation-play-state: running;-webkit-animation-timing-function: cubic-bezier(0, 0, 1, 1);animation-timing-function: cubic-bezier(0, 0, 1, 1);}#el_6xyvC4yH2x{fill: #f9cd55;-webkit-transform: translate(-17.17px, -41.34px);transform: translate(-17.17px, -41.34px);}#el_ExoLvvKYtw{fill: #0094a9;-webkit-transform: translate(-17.17px, -41.34px);transform: translate(-17.17px, -41.34px);}#el_ImqB55jm3q{fill: #375558;-webkit-transform: translate(-17.17px, -41.34px);transform: translate(-17.17px, -41.34px);}#el_New0SkwwyF{fill: #d65d27;-webkit-transform: translate(116.45px, -64.47px) rotate(39.05deg);transform: translate(116.45px, -64.47px) rotate(39.05deg);}#el_esF3BvHQ2y{fill: #d65d27;-webkit-transform: translate(151.75px, -92.36px) rotate(39.05deg);transform: translate(151.75px, -92.36px) rotate(39.05deg);}#el_M0HHC__UzS{fill: #d65d27;-webkit-transform: translate(140.28px, -82.16px) rotate(39.05deg);transform: translate(140.28px, -82.16px) rotate(39.05deg);}#el_XGC4FQ0bTW{fill: #d65d27;-webkit-transform: translate(127.93px, -73.62px) rotate(39.05deg);transform: translate(127.93px, -73.62px) rotate(39.05deg);}#el_p0lv0B9NjK{fill: #d65d27;-webkit-transform: translate(-17.17px, -41.34px);transform: translate(-17.17px, -41.34px);}#el_x1yoeUuMV3{fill: #59c5d1;-webkit-transform: translate(-17.17px, -41.34px);transform: translate(-17.17px, -41.34px);}#el_yooDdAqHWp{fill: #375558;-webkit-transform: translate(-17.17px, -41.34px);transform: translate(-17.17px, -41.34px);}#el_S7J0mdJ8gAd{fill: #ffc829;opacity: 0;-webkit-animation-timing-function: cubic-bezier(0.42, 0, 0.58, 1);animation-timing-function: cubic-bezier(0.42, 0, 0.58, 1);}#el_WmbTFl785:hover #el_S7J0mdJ8gAd{-webkit-animation-name: el_S7J0mdJ8gAd_Animation;animation-name: el_S7J0mdJ8gAd_Animation;}#el_Kd0edENFxZs{fill: #ffc829;opacity: 0;-webkit-animation-timing-function: cubic-bezier(0.42, 0, 0.58, 1);animation-timing-function: cubic-bezier(0.42, 0, 0.58, 1);}#el_WmbTFl785:hover #el_Kd0edENFxZs{-webkit-animation-name: el_Kd0edENFxZs_Animation;animation-name: el_Kd0edENFxZs_Animation;}#el_aCerXBp-Ntm{fill: #ffc829;opacity: 0;-webkit-animation-timing-function: cubic-bezier(0.42, 0, 0.58, 1);animation-timing-function: cubic-bezier(0.42, 0, 0.58, 1);}#el_WmbTFl785:hover #el_aCerXBp-Ntm{-webkit-animation-name: el_aCerXBp-Ntm_Animation;animation-name: el_aCerXBp-Ntm_Animation;}#el_nmyFi6DSbJN{fill: #ffc829;opacity: 0;}#el_WmbTFl785:hover #el_nmyFi6DSbJN{-webkit-animation-name: el_nmyFi6DSbJN_Animation;animation-name: el_nmyFi6DSbJN_Animation;}#el_Kg6nxIY7VHL{fill: #ffc829;opacity: 0;}#el_WmbTFl785:hover #el_Kg6nxIY7VHL{-webkit-animation-name: el_Kg6nxIY7VHL_Animation;animation-name: el_Kg6nxIY7VHL_Animation;}#el_HM1gQehhd-_68Fm0mtuz{-webkit-transform: translate(101.46740531921387px, 103.28805923461914px) rotate(0deg) translate(-101.46740531921387px, -103.28805923461914px);transform: translate(101.46740531921387px, 103.28805923461914px) rotate(0deg) translate(-101.46740531921387px, -103.28805923461914px);-webkit-animation-timing-function: cubic-bezier(0.42, 0, 1, 1);animation-timing-function: cubic-bezier(0.42, 0, 1, 1);}#el_WmbTFl785:hover #el_HM1gQehhd-_68Fm0mtuz{-webkit-animation-name: el_HM1gQehhd-_68Fm0mtuz_Animation;animation-name: el_HM1gQehhd-_68Fm0mtuz_Animation;}#el_KBbTPSRhcf_PGP3Ci8q4{-webkit-transform: translate(167.25684356689453px, 110.69254684448242px) rotate(0deg) translate(-167.25684356689453px, -110.69254684448242px);transform: translate(167.25684356689453px, 110.69254684448242px) rotate(0deg) translate(-167.25684356689453px, -110.69254684448242px);-webkit-animation-timing-function: cubic-bezier(0.42, 0, 1, 1);animation-timing-function: cubic-bezier(0.42, 0, 1, 1);}#el_WmbTFl785:hover #el_KBbTPSRhcf_PGP3Ci8q4{-webkit-animation-name: el_KBbTPSRhcf_PGP3Ci8q4_Animation;animation-name: el_KBbTPSRhcf_PGP3Ci8q4_Animation;}#el_3FjjZGmqmP_mORtNSysj{-webkit-transform: translate(0.010160446166992188px, 31.664813995361328px) translate(-0.010160446166992188px, -31.664813995361328px) translate(0px, 0px);transform: translate(0.010160446166992188px, 31.664813995361328px) translate(-0.010160446166992188px, -31.664813995361328px) translate(0px, 0px);}#el_WmbTFl785:hover #el_3FjjZGmqmP_mORtNSysj{-webkit-animation-name: el_3FjjZGmqmP_mORtNSysj_Animation;animation-name: el_3FjjZGmqmP_mORtNSysj_Animation;}</style><defs/><title>hands</title><g id="el_3FjjZGmqmP_mORtNSysj" data-animator-group="true" data-animator-type="0"><g id="el_3FjjZGmqmP"><g id="el_HM1gQehhd-_68Fm0mtuz" data-animator-group="true" data-animator-type="1"><g id="el_HM1gQehhd-"><path d="M216.42,164.26l-26.3-21.82c2.57-3.12,4.13-5,4.13-5L158.17,93.35l-66.41,4s-30.92,64.47-30.92,64.48c-.27.59,9.79,4.9,10.55,5.23,2.25,1,4.5,2,6.8,2.91,3.09,1.22,13.77,4.85,17.06,5,7,.31,22.83,5.16,28.67,7.42,10.4,4,19.63,8.56,22.14,8.64l27.55,22.86a10.25,10.25,0,0,0,13.09-15.78l-25.85-21.45,1.35-1.5L195,202.39A10.29,10.29,0,0,0,209.45,201h0a10.28,10.28,0,0,0-1.35-14.43l-32.43-26.92,1.3-1.53L203.33,180a10.27,10.27,0,0,0,14.43-1.34h0A10.28,10.28,0,0,0,216.42,164.26Z" id="el_6xyvC4yH2x"/><g id="el_3p52Mt4Txi" data-name="hand shake"><path d="M64,166.34c2-4.44,3.52-9.26,5.17-13.22l11.56-27.67C83.44,119,86.68,112.6,88.88,106l2.88-8.64A17.29,17.29,0,0,0,81.58,79.67l-12.8-5.35a16.92,16.92,0,0,0-22.16,9.1L18.49,150.67A16.88,16.88,0,0,0,22,169a16.7,16.7,0,0,0,5.6,3.8l12.81,5.35a16.85,16.85,0,0,0,13,0C58.49,176.14,61.65,171.51,64,166.34Z" id="el_ExoLvvKYtw"/></g><path d="M60.5,103.49a8.64,8.64,0,1,0,4.37-15.33,8.39,8.39,0,0,0-5.71,3.19,8.65,8.65,0,0,0,.57,11.42C59.93,103,60.24,103.23,60.5,103.49Z" id="el_ImqB55jm3q"/></g></g><g id="el_KBbTPSRhcf_PGP3Ci8q4" data-animator-group="true" data-animator-type="1"><g id="el_KBbTPSRhcf"><rect x="89.18" y="166.04" width="20.5" height="21.62" rx="10.25" ry="10.25" id="el_New0SkwwyF"/><rect x="146.16" y="197.99" width="20.5" height="29.38" rx="10.25" ry="10.25" id="el_esF3BvHQ2y"/><rect x="126.04" y="184.82" width="20.5" height="33.57" rx="10.25" ry="10.25" id="el_M0HHC__UzS"/><rect x="107.83" y="171.68" width="20.5" height="33.57" rx="10.25" ry="10.25" id="el_XGC4FQ0bTW"/><path d="M244,167.81l-25.19-61.47c-.67-1.61-1.54-8.47-3.25-8.13L196.18,105a3.67,3.67,0,0,1-2.24-.27L169,93.28s-7.15-3.14-11.49-1.76c0,0-1.74.41-5.79,3.4-3.41,2.52-17.78,11.77-22.29,14.67a3.73,3.73,0,0,0-1.64,2.46l-3.12,17.62a3.65,3.65,0,0,1-.48,1.26L120,137.77a3.67,3.67,0,0,0,.61,4.58c1.64,1.51,4.71,3,10.29,2.37,9.5-1.05,13.63-11.09,14.28-12.86a2.21,2.21,0,0,0,.15-.5,27.53,27.53,0,0,0,.48-3c.3-2.79,3.88-3.89,6.13-4.52,2.09-.59,6.18-2.1,8.33-1.42,10,3.34,23.39,15.67,27.73,19.27l28.32,23.5A10.28,10.28,0,0,1,218.78,178c1.79-.57,3.16-1,3.52-1.16l9.41-3.63C235.26,171.88,244.81,169.73,244,167.81Z" id="el_p0lv0B9NjK"/><g id="el_7QOn1n4VfC" data-name="hand shake"><path d="M242.19,174.43a14.74,14.74,0,0,0,5.78,4.32,17,17,0,0,0,13-.05l12.8-5.35a16.67,16.67,0,0,0,5.61-3.81,16.86,16.86,0,0,0,3.5-18.35L254.71,83.93a16.92,16.92,0,0,0-22.16-9.1l-12.8,5.35a17.27,17.27,0,0,0-10.18,17.69l2.88,8.63,15.3,36.65c2.81,6.74,5.34,13.61,8.39,20.25C237.88,167.2,239.55,171.28,242.19,174.43Z" id="el_x1yoeUuMV3"/></g><path d="M241.6,103.28a8.62,8.62,0,0,0,.56-11.41,8.31,8.31,0,0,0-5.7-3.19A8.65,8.65,0,1,0,240.83,104C241.08,103.74,241.39,103.54,241.6,103.28Z" id="el_yooDdAqHWp"/></g></g></g></g><polygon id="el_S7J0mdJ8gAd" points="79.12 16.96 82.2 22.59 87.84 25.68 82.2 28.76 79.12 34.39 76.04 28.76 70.41 25.68 76.04 22.59 79.12 16.96"/><polygon id="el_Kd0edENFxZs" points="214.59 147.65 217.86 153.62 223.83 156.89 217.86 160.15 214.59 166.12 211.33 160.15 205.36 156.89 211.33 153.62 214.59 147.65"/><polygon id="el_aCerXBp-Ntm" points="184.43 190.72 187.02 195.47 191.77 198.07 187.02 200.67 184.43 205.42 181.83 200.67 177.08 198.07 181.83 195.47 184.43 190.72"/><polygon id="el_nmyFi6DSbJN" points="113.13 0 118.33 9.5 127.83 14.7 118.33 19.89 113.13 29.39 107.94 19.89 98.43 14.7 107.94 9.5 113.13 0"/><polygon id="el_Kg6nxIY7VHL" data-name="start1" points="216.5 181.03 221.69 190.53 231.2 195.73 221.69 200.93 216.5 210.43 211.3 200.93 201.8 195.73 211.3 190.53 216.5 181.03"/></svg>