<svg id="el_76jaoAqEE" data-name="Layer 1" xmlns="http://www.w3.org/2000/svg" viewBox="0 0 300 300"><style>@-webkit-keyframes el_gG_repUsqg_ySSDCaJzP_Animation{0%{-webkit-transform: translate(149.58196115493774px, 76.17500305175781px) translate(-149.58196115493774px, -76.17500305175781px) translate(0px, 0px);transform: translate(149.58196115493774px, 76.17500305175781px) translate(-149.58196115493774px, -76.17500305175781px) translate(0px, 0px);}100%{-webkit-transform: translate(149.58196115493774px, 76.17500305175781px) translate(-149.58196115493774px, -76.17500305175781px) translate(0px, -10px);transform: translate(149.58196115493774px, 76.17500305175781px) translate(-149.58196115493774px, -76.17500305175781px) translate(0px, -10px);}}@keyframes el_gG_repUsqg_ySSDCaJzP_Animation{0%{-webkit-transform: translate(149.58196115493774px, 76.17500305175781px) translate(-149.58196115493774px, -76.17500305175781px) translate(0px, 0px);transform: translate(149.58196115493774px, 76.17500305175781px) translate(-149.58196115493774px, -76.17500305175781px) translate(0px, 0px);}100%{-webkit-transform: translate(149.58196115493774px, 76.17500305175781px) translate(-149.58196115493774px, -76.17500305175781px) translate(0px, -10px);transform: translate(149.58196115493774px, 76.17500305175781px) translate(-149.58196115493774px, -76.17500305175781px) translate(0px, -10px);}}@-webkit-keyframes el_Rx5CpHeSXe_MMVUSinv0_Animation{0%{-webkit-transform: translate(149.8300018310547px, 194px) scale(1, 1) translate(-149.8300018310547px, -194px);transform: translate(149.8300018310547px, 194px) scale(1, 1) translate(-149.8300018310547px, -194px);}100%{-webkit-transform: translate(149.8300018310547px, 194px) scale(1.3, 1.3) translate(-149.8300018310547px, -194px);transform: translate(149.8300018310547px, 194px) scale(1.3, 1.3) translate(-149.8300018310547px, -194px);}}@keyframes el_Rx5CpHeSXe_MMVUSinv0_Animation{0%{-webkit-transform: translate(149.8300018310547px, 194px) scale(1, 1) translate(-149.8300018310547px, -194px);transform: translate(149.8300018310547px, 194px) scale(1, 1) translate(-149.8300018310547px, -194px);}100%{-webkit-transform: translate(149.8300018310547px, 194px) scale(1.3, 1.3) translate(-149.8300018310547px, -194px);transform: translate(149.8300018310547px, 194px) scale(1.3, 1.3) translate(-149.8300018310547px, -194px);}}#el_76jaoAqEE *{-webkit-animation-duration: 1.5s;animation-duration: 1.5s;-webkit-animation-play-state: running;animation-play-state: running;-webkit-animation-timing-function: cubic-bezier(0, 0, 1, 1);animation-timing-function: cubic-bezier(0, 0, 1, 1);}#el_Wl7-Xdqg3P{fill: #d65d27;}#el_XGre0oVl_Y{fill: #e4eff4;}#el_VXWc-lIMup{fill: #59c5d1;}#el_7huZR-X2G_{fill: #cee3e9;}#el_dFLozAjt03{fill: #0094a9;}#el_G6b8zaqRg5{fill: #fff;}#el_QJVLj3cz2q{fill: #fff;}#el_Rx5CpHeSXe{fill: #1e1f22;}#el_GMsT3cKWMd{fill: #f16b38;}#el_gG_repUsqg_jDQADWdRW{-webkit-transform: translate(149.58196115493774px, 76.17500305175781px) translate(-149.58196115493774px, -76.17500305175781px) translate(0px, 200px);transform: translate(149.58196115493774px, 76.17500305175781px) translate(-149.58196115493774px, -76.17500305175781px) translate(0px, 200px);}#el_gG_repUsqg_T8esWYUSo{-webkit-transform: translate(149.58196115493774px, 76.17500305175781px) rotate(180deg) translate(-149.58196115493774px, -76.17500305175781px);transform: translate(149.58196115493774px, 76.17500305175781px) rotate(180deg) translate(-149.58196115493774px, -76.17500305175781px);}#el_Rx5CpHeSXe_MMVUSinv0{-webkit-transform: translate(149.8300018310547px, 194px) scale(1, 1) translate(-149.8300018310547px, -194px);transform: translate(149.8300018310547px, 194px) scale(1, 1) translate(-149.8300018310547px, -194px);-webkit-animation-timing-function: cubic-bezier(0.42, 0, 0.58, 1);animation-timing-function: cubic-bezier(0.42, 0, 0.58, 1);}#el_76jaoAqEE:hover #el_Rx5CpHeSXe_MMVUSinv0{-webkit-animation-name: el_Rx5CpHeSXe_MMVUSinv0_Animation;animation-name: el_Rx5CpHeSXe_MMVUSinv0_Animation;}#el_gG_repUsqg_ySSDCaJzP{-webkit-transform: translate(149.58196115493774px, 76.17500305175781px) translate(-149.58196115493774px, -76.17500305175781px) translate(0px, 0px);transform: translate(149.58196115493774px, 76.17500305175781px) translate(-149.58196115493774px, -76.17500305175781px) translate(0px, 0px);}#el_76jaoAqEE:hover #el_gG_repUsqg_ySSDCaJzP{-webkit-animation-name: el_gG_repUsqg_ySSDCaJzP_Animation;animation-name: el_gG_repUsqg_ySSDCaJzP_Animation;}</style><defs/><title>look</title><g id="el_n_zOrNl2w-"><g id="el_gG_repUsqg_ySSDCaJzP" data-animator-group="true" data-animator-type="0"><g id="el_gG_repUsqg"><path d="M17.92,110.35a10.52,10.52,0,0,1-7.66-17.74C33.22,68.24,86.66,42,149.77,42c56.61,0,106,17.87,139.2,50.31a10.52,10.52,0,0,1-14.72,15c-29.19-28.57-73.4-44.3-124.48-44.3-54.33,0-103.6,22.13-124.19,44A10.48,10.48,0,0,1,17.92,110.35Z" id="el_Wl7-Xdqg3P"/></g></g><g id="el_G0nYxH4-d_"><path d="M290,188.75c-.64-.66-15.9-16.43-40.72-32.4-23.05-14.83-58.92-32.51-99-32.51s-75.95,17.68-99,32.51c-24.82,16-40.08,31.74-40.72,32.4a3.86,3.86,0,0,0,0,5.43c.64.66,15.9,16.43,40.72,32.41,23,14.82,58.92,32.5,99,32.5s75.94-17.68,99-32.5c24.82-16,40.08-31.75,40.72-32.41A3.86,3.86,0,0,0,290,188.75Z" id="el_XGre0oVl_Y"/><path d="M149.83,125.73a66.68,66.68,0,1,0,66.68,66.68A66.77,66.77,0,0,0,149.83,125.73Z" id="el_VXWc-lIMup"/><path d="M51.25,156.35c-24.82,16-40.08,31.74-40.72,32.4a3.86,3.86,0,0,0,0,5.43c.64.66,15.9,16.43,40.72,32.41,22.93,14.75,58.57,32.32,98.4,32.49V123.85C109.82,124,74.18,141.59,51.25,156.35Z" id="el_7huZR-X2G_"/><path d="M83.57,192.62a66.76,66.76,0,0,0,66.08,66.67V126A66.75,66.75,0,0,0,83.57,192.62Z" id="el_dFLozAjt03"/><path d="M194.5,197.1a4.49,4.49,0,0,1-4.49-4.48,39.46,39.46,0,0,0-2.95-15.05,4.48,4.48,0,0,1,8.3-3.4A48.45,48.45,0,0,1,199,192.62,4.48,4.48,0,0,1,194.5,197.1Z" id="el_G6b8zaqRg5"/><path d="M181.7,166a4.46,4.46,0,0,1-3.19-1.33,39.5,39.5,0,0,0-28.26-11.82,4.49,4.49,0,1,1,0-9,48.36,48.36,0,0,1,34.64,14.49A4.48,4.48,0,0,1,181.7,166Z" id="el_QJVLj3cz2q"/><g id="el_Rx5CpHeSXe_MMVUSinv0" data-animator-group="true" data-animator-type="2"><path d="M149.83,168a26,26,0,1,0,26,26A26,26,0,0,1,149.83,168Z" id="el_Rx5CpHeSXe"/></g><path d="M290,193.71a6.29,6.29,0,0,1-4.55-1.94c-.62-.64-15.36-15.88-39.59-31.47-22.33-14.37-57-31.5-95.57-31.5S77,145.93,54.67,160.3c-24.23,15.59-39,30.83-39.58,31.47A6.32,6.32,0,0,1,6,183c.66-.68,16.4-17,41.86-33.34,23.75-15.29,60.8-33.51,102.41-33.51s78.65,18.22,102.4,33.51c25.47,16.39,41.21,32.66,41.86,33.34A6.31,6.31,0,0,1,290,193.71Z" id="el_GMsT3cKWMd"/></g></g></svg>