<svg id="el_RdswVGfKD" data-name="Layer 1" xmlns="http://www.w3.org/2000/svg" viewBox="0 0 300 300"><style>@-webkit-keyframes el_IlBwvV0Lrb_cXiFiGsaV_Animation{0%{-webkit-transform: translate(163.48046493530273px, 134.12457275390625px) scale(1, 1) translate(-163.48046493530273px, -134.12457275390625px);transform: translate(163.48046493530273px, 134.12457275390625px) scale(1, 1) translate(-163.48046493530273px, -134.12457275390625px);}50%{-webkit-transform: translate(163.48046493530273px, 134.12457275390625px) scale(1.5, 1.5) translate(-163.48046493530273px, -134.12457275390625px);transform: translate(163.48046493530273px, 134.12457275390625px) scale(1.5, 1.5) translate(-163.48046493530273px, -134.12457275390625px);}100%{-webkit-transform: translate(163.48046493530273px, 134.12457275390625px) scale(1, 1) translate(-163.48046493530273px, -134.12457275390625px);transform: translate(163.48046493530273px, 134.12457275390625px) scale(1, 1) translate(-163.48046493530273px, -134.12457275390625px);}}@keyframes el_IlBwvV0Lrb_cXiFiGsaV_Animation{0%{-webkit-transform: translate(163.48046493530273px, 134.12457275390625px) scale(1, 1) translate(-163.48046493530273px, -134.12457275390625px);transform: translate(163.48046493530273px, 134.12457275390625px) scale(1, 1) translate(-163.48046493530273px, -134.12457275390625px);}50%{-webkit-transform: translate(163.48046493530273px, 134.12457275390625px) scale(1.5, 1.5) translate(-163.48046493530273px, -134.12457275390625px);transform: translate(163.48046493530273px, 134.12457275390625px) scale(1.5, 1.5) translate(-163.48046493530273px, -134.12457275390625px);}100%{-webkit-transform: translate(163.48046493530273px, 134.12457275390625px) scale(1, 1) translate(-163.48046493530273px, -134.12457275390625px);transform: translate(163.48046493530273px, 134.12457275390625px) scale(1, 1) translate(-163.48046493530273px, -134.12457275390625px);}}@-webkit-keyframes el_dCzX8ov9Jf_2KHP4YjV2_Animation{0%{-webkit-transform: translate(150.125px, 139.65499114990234px) rotate(0deg) translate(-150.125px, -139.65499114990234px);transform: translate(150.125px, 139.65499114990234px) rotate(0deg) translate(-150.125px, -139.65499114990234px);}100%{-webkit-transform: translate(150.125px, 139.65499114990234px) rotate(60deg) translate(-150.125px, -139.65499114990234px);transform: translate(150.125px, 139.65499114990234px) rotate(60deg) translate(-150.125px, -139.65499114990234px);}}@keyframes el_dCzX8ov9Jf_2KHP4YjV2_Animation{0%{-webkit-transform: translate(150.125px, 139.65499114990234px) rotate(0deg) translate(-150.125px, -139.65499114990234px);transform: translate(150.125px, 139.65499114990234px) rotate(0deg) translate(-150.125px, -139.65499114990234px);}100%{-webkit-transform: translate(150.125px, 139.65499114990234px) rotate(60deg) translate(-150.125px, -139.65499114990234px);transform: translate(150.125px, 139.65499114990234px) rotate(60deg) translate(-150.125px, -139.65499114990234px);}}#el_RdswVGfKD *{-webkit-animation-duration: 1s;animation-duration: 1s;-webkit-animation-play-state: running;animation-play-state: running;-webkit-animation-timing-function: cubic-bezier(0, 0, 1, 1);animation-timing-function: cubic-bezier(0, 0, 1, 1);}#el_JRUkzsD_rE{fill: #e5e9e9;}#el_KlgPXeED3x{fill: #59c5d1;}#el_irvmJmlCsg{fill: #fff;}#el_WFWA3e_gcZ{fill: #fff;}#el_vP3cM5K9h2{fill: #fff;}#el_QgrX1Cixiu{fill: #9aa9aa;}#el_ZtNoynTeDl{fill: #0094a9;}#el_fFANZtYS4J{fill: #f16b38;}#el_o-2nSh35YK{fill: #ee363e;visibility: hidden;}#el_RG5yUI8E_e{fill: #f9cd55;}#el_dCzX8ov9Jf_2KHP4YjV2{-webkit-transform: translate(150.125px, 139.65499114990234px) rotate(0deg) translate(-150.125px, -139.65499114990234px);transform: translate(150.125px, 139.65499114990234px) rotate(0deg) translate(-150.125px, -139.65499114990234px);-webkit-animation-timing-function: cubic-bezier(0.42, 0, 0.58, 1);animation-timing-function: cubic-bezier(0.42, 0, 0.58, 1);}#el_RdswVGfKD:hover #el_dCzX8ov9Jf_2KHP4YjV2{-webkit-animation-name: el_dCzX8ov9Jf_2KHP4YjV2_Animation;animation-name: el_dCzX8ov9Jf_2KHP4YjV2_Animation;}#el_IlBwvV0Lrb_F9ck2fvTH{-webkit-transform: translate(163.48046493530273px, 134.12457275390625px) rotate(0deg) translate(-163.48046493530273px, -134.12457275390625px);transform: translate(163.48046493530273px, 134.12457275390625px) rotate(0deg) translate(-163.48046493530273px, -134.12457275390625px);}#el_IlBwvV0Lrb_cXiFiGsaV{-webkit-transform: translate(163.48046493530273px, 134.12457275390625px) scale(1, 1) translate(-163.48046493530273px, -134.12457275390625px);transform: translate(163.48046493530273px, 134.12457275390625px) scale(1, 1) translate(-163.48046493530273px, -134.12457275390625px);}#el_RdswVGfKD:hover #el_IlBwvV0Lrb_cXiFiGsaV{-webkit-animation-name: el_IlBwvV0Lrb_cXiFiGsaV_Animation;animation-name: el_IlBwvV0Lrb_cXiFiGsaV_Animation;}</style><defs/><title>grapgic-about3</title><g id="el_oDoHgwOdEp"><g id="el_Stv06IsGHQ"><path d="M276.86,49.8,152.45,6.74a4.49,4.49,0,0,0-2.94,0L25.1,49.8a4.47,4.47,0,0,0-3,5L50.86,222.28a4.46,4.46,0,0,0,1.85,2.92l95.7,67a4.48,4.48,0,0,0,5.14,0l95.71-67a4.54,4.54,0,0,0,1.85-2.92L279.82,54.8A4.49,4.49,0,0,0,276.86,49.8Z" id="el_JRUkzsD_rE"/><path d="M256.6,61.78l-104.15-36a4.49,4.49,0,0,0-2.94,0L45.36,61.78a4.49,4.49,0,0,0-3,5L67.28,211.87a4.5,4.5,0,0,0,1.85,2.92l79.28,55.5a4.48,4.48,0,0,0,5.14,0l79.29-55.5a4.48,4.48,0,0,0,1.84-2.92L259.56,66.78A4.49,4.49,0,0,0,256.6,61.78Z" id="el_KlgPXeED3x"/><path d="M216.84,187.73a3.91,3.91,0,0,1-.76-.07,4.5,4.5,0,0,1-3.67-5.18l7-40.67a4.48,4.48,0,1,1,8.84,1.52l-7,40.67A4.51,4.51,0,0,1,216.84,187.73Z" id="el_irvmJmlCsg"/><path d="M230.37,108.77a5,5,0,0,1-.76-.06,4.49,4.49,0,0,1-3.66-5.18L229.81,81l-25.26-8.75a4.49,4.49,0,1,1,2.93-8.48l28.86,10a4.48,4.48,0,0,1,3,5L234.79,105A4.48,4.48,0,0,1,230.37,108.77Z" id="el_WFWA3e_gcZ"/><path d="M194.05,68.35a4.41,4.41,0,0,1-1.47-.25l-19.14-6.63A4.49,4.49,0,1,1,176.37,53l19.14,6.63a4.49,4.49,0,0,1-1.46,8.73Z" id="el_vP3cM5K9h2"/><path d="M149.51,6.74,25.1,49.8a4.47,4.47,0,0,0-3,5L50.86,222.28a4.46,4.46,0,0,0,1.85,2.92l95.7,67A4.47,4.47,0,0,0,151,293V6.49A4.41,4.41,0,0,0,149.51,6.74Z" id="el_QgrX1Cixiu"/><path d="M149.51,25.72,45.36,61.78a4.49,4.49,0,0,0-3,5L67.28,211.87a4.5,4.5,0,0,0,1.85,2.92l79.28,55.5a4.47,4.47,0,0,0,2.57.81V25.48A4.67,4.67,0,0,0,149.51,25.72Z" id="el_ZtNoynTeDl"/></g><g id="el_dCzX8ov9Jf_2KHP4YjV2" data-animator-group="true" data-animator-type="1"><g id="el_dCzX8ov9Jf"><path d="M215.81,139.62l-2.13-1.83-6.83-5.74c-.64-.53-1.25-1.08-1.91-1.58-.35-.26-.4-.47-.18-.84,1.26-2.16,2.5-4.32,3.74-6.48.85-1.5,1.68-3,2.54-4.52.25-.45.54-.88.85-1.37L198,112.14l2.51-14.56h-4.1c-3.32,0-6.64,0-10,0-.55,0-.73-.13-.83-.7-.77-4.36-1.59-8.7-2.39-13.05,0-.27-.09-.54-.14-.85l-10.81,3.91c-.89.32-1.79.62-2.67,1-.3.11-.46.08-.63-.21q-2.65-4.6-5.32-9.19c-.61-1.06-1.24-2.11-1.9-3.23l-1.93,1.59c-3,2.48-5.94,4.94-8.88,7.44-.48.41-.75.28-1.15,0q-5.18-4.35-10.38-8.66a4.39,4.39,0,0,0-.39-.29c-.58,1-1.16,1.94-1.72,2.9l-4.7,8.08c-.25.43-.51.86-.73,1.31s-.38.43-.77.29Q126,86,120.91,84.12c-1-.38-2.11-.74-3.21-1.13-.86,4.7-1.72,9.34-2.53,14-.1.52-.31.58-.75.58l-13.34,0h-.78c.84,4.88,1.66,9.68,2.5,14.56l-13.86,5.1c.5.9,1,1.76,1.46,2.61l5.67,9.82a.47.47,0,0,1-.13.71l-8.36,7L85,139.63l2.07,1.78c2.88,2.42,5.75,4.85,8.65,7.24.5.41.51.69.19,1.23-1.75,3-3.46,6-5.18,9l-1.38,2.4c-.12.22-.21.47-.35.76l2.13.78c3.65,1.34,7.28,2.69,10.93,4,.59.22.74.47.63,1.08-.8,4.49-1.56,9-2.34,13.49a2.49,2.49,0,0,0,0,.29h2.38l11.71,0c.45,0,.65.09.74.6.77,4.43,1.59,8.86,2.39,13.29,0,.21.11.41.17.67l3.53-1.23q4.93-1.78,9.86-3.59c.43-.16.59,0,.79.34q3.43,6,6.9,11.9l.24.37,2.55-2.13q4.23-3.51,8.43-7c.35-.3.54-.16.81.07l10.61,8.85.3.23c.13-.19.25-.36.35-.54l5.67-9.76c.4-.69.82-1.38,1.2-2.09a.42.42,0,0,1,.62-.23c3.29,1.2,6.58,2.38,9.87,3.57l2.84,1c.63.23.82.14.95-.54.26-1.28.49-2.57.72-3.85.57-3.17,1.13-6.33,1.72-9.49,0-.15.24-.32.4-.38a1.71,1.71,0,0,1,.6,0l13.16,0h.66L198,167.11,211.87,162c-.62-1.09-1.21-2.14-1.81-3.18-1.75-3-3.5-6.1-5.28-9.13-.26-.45-.11-.67.23-.95l8.64-7.26C214.36,140.88,215.07,140.26,215.81,139.62Z" id="el_fFANZtYS4J"/></g></g><g id="el_IlBwvV0Lrb_cXiFiGsaV" data-animator-group="true" data-animator-type="2"><g id="el_IlBwvV0Lrb"><path d="M217,104l-9.65-9.71a3.41,3.41,0,0,0-4.82,0l-50.74,50.52a3.36,3.36,0,0,1-4.81,0l-22.25-22.66a3.4,3.4,0,0,0-2.39-1,3.46,3.46,0,0,0-2.44,1L110,131a3.39,3.39,0,0,0-1,2.37,3.69,3.69,0,0,0,1,2.49l22.42,23.52c1.33,1.36,3.51,3.53,4.81,4.86l9.66,9.72a3.4,3.4,0,0,0,4.81,0l65.21-65.1A3.44,3.44,0,0,0,217,104Z" id="el_RG5yUI8E_e"/></g></g></g></svg>