<svg id="el_fYwA6jwOC" data-name="Layer 1" xmlns="http://www.w3.org/2000/svg" viewBox="0 0 122 104"><style>@-webkit-keyframes el_FG9Y2R72_x8_tBTDISPwW_Animation{0%{-webkit-transform: translate(86.5199966430664px, 31.650001525878906px) translate(-86.5199966430664px, -31.650001525878906px) translate(0px, 0px);transform: translate(86.5199966430664px, 31.650001525878906px) translate(-86.5199966430664px, -31.650001525878906px) translate(0px, 0px);}33.33%{-webkit-transform: translate(86.5199966430664px, 31.650001525878906px) translate(-86.5199966430664px, -31.650001525878906px) translate(0px, -2px);transform: translate(86.5199966430664px, 31.650001525878906px) translate(-86.5199966430664px, -31.650001525878906px) translate(0px, -2px);}66.67%{-webkit-transform: translate(86.5199966430664px, 31.650001525878906px) translate(-86.5199966430664px, -31.650001525878906px) translate(0px, 2px);transform: translate(86.5199966430664px, 31.650001525878906px) translate(-86.5199966430664px, -31.650001525878906px) translate(0px, 2px);}100%{-webkit-transform: translate(86.5199966430664px, 31.650001525878906px) translate(-86.5199966430664px, -31.650001525878906px) translate(0px, 0px);transform: translate(86.5199966430664px, 31.650001525878906px) translate(-86.5199966430664px, -31.650001525878906px) translate(0px, 0px);}}@keyframes el_FG9Y2R72_x8_tBTDISPwW_Animation{0%{-webkit-transform: translate(86.5199966430664px, 31.650001525878906px) translate(-86.5199966430664px, -31.650001525878906px) translate(0px, 0px);transform: translate(86.5199966430664px, 31.650001525878906px) translate(-86.5199966430664px, -31.650001525878906px) translate(0px, 0px);}33.33%{-webkit-transform: translate(86.5199966430664px, 31.650001525878906px) translate(-86.5199966430664px, -31.650001525878906px) translate(0px, -2px);transform: translate(86.5199966430664px, 31.650001525878906px) translate(-86.5199966430664px, -31.650001525878906px) translate(0px, -2px);}66.67%{-webkit-transform: translate(86.5199966430664px, 31.650001525878906px) translate(-86.5199966430664px, -31.650001525878906px) translate(0px, 2px);transform: translate(86.5199966430664px, 31.650001525878906px) translate(-86.5199966430664px, -31.650001525878906px) translate(0px, 2px);}100%{-webkit-transform: translate(86.5199966430664px, 31.650001525878906px) translate(-86.5199966430664px, -31.650001525878906px) translate(0px, 0px);transform: translate(86.5199966430664px, 31.650001525878906px) translate(-86.5199966430664px, -31.650001525878906px) translate(0px, 0px);}}@-webkit-keyframes el_Yy4d0Al9WEn_VKZVq231Qq_Animation{0%{-webkit-transform: translate(43.60499954223633px, 77.7300033569336px) translate(-43.60499954223633px, -77.7300033569336px) translate(0px, 0px);transform: translate(43.60499954223633px, 77.7300033569336px) translate(-43.60499954223633px, -77.7300033569336px) translate(0px, 0px);}33.33%{-webkit-transform: translate(43.60499954223633px, 77.7300033569336px) translate(-43.60499954223633px, -77.7300033569336px) translate(0px, 2px);transform: translate(43.60499954223633px, 77.7300033569336px) translate(-43.60499954223633px, -77.7300033569336px) translate(0px, 2px);}66.67%{-webkit-transform: translate(43.60499954223633px, 77.7300033569336px) translate(-43.60499954223633px, -77.7300033569336px) translate(0px, -2px);transform: translate(43.60499954223633px, 77.7300033569336px) translate(-43.60499954223633px, -77.7300033569336px) translate(0px, -2px);}100%{-webkit-transform: translate(43.60499954223633px, 77.7300033569336px) translate(-43.60499954223633px, -77.7300033569336px) translate(0px, 0px);transform: translate(43.60499954223633px, 77.7300033569336px) translate(-43.60499954223633px, -77.7300033569336px) translate(0px, 0px);}}@keyframes el_Yy4d0Al9WEn_VKZVq231Qq_Animation{0%{-webkit-transform: translate(43.60499954223633px, 77.7300033569336px) translate(-43.60499954223633px, -77.7300033569336px) translate(0px, 0px);transform: translate(43.60499954223633px, 77.7300033569336px) translate(-43.60499954223633px, -77.7300033569336px) translate(0px, 0px);}33.33%{-webkit-transform: translate(43.60499954223633px, 77.7300033569336px) translate(-43.60499954223633px, -77.7300033569336px) translate(0px, 2px);transform: translate(43.60499954223633px, 77.7300033569336px) translate(-43.60499954223633px, -77.7300033569336px) translate(0px, 2px);}66.67%{-webkit-transform: translate(43.60499954223633px, 77.7300033569336px) translate(-43.60499954223633px, -77.7300033569336px) translate(0px, -2px);transform: translate(43.60499954223633px, 77.7300033569336px) translate(-43.60499954223633px, -77.7300033569336px) translate(0px, -2px);}100%{-webkit-transform: translate(43.60499954223633px, 77.7300033569336px) translate(-43.60499954223633px, -77.7300033569336px) translate(0px, 0px);transform: translate(43.60499954223633px, 77.7300033569336px) translate(-43.60499954223633px, -77.7300033569336px) translate(0px, 0px);}}@-webkit-keyframes el_TTS1-yigm8E_rxCk7qi6h_Animation{0%{-webkit-transform: translate(69.46000099182129px, 47.74000358581543px) translate(-69.46000099182129px, -47.74000358581543px) translate(0px, 0px);transform: translate(69.46000099182129px, 47.74000358581543px) translate(-69.46000099182129px, -47.74000358581543px) translate(0px, 0px);}33.33%{-webkit-transform: translate(69.46000099182129px, 47.74000358581543px) translate(-69.46000099182129px, -47.74000358581543px) translate(0px, -2px);transform: translate(69.46000099182129px, 47.74000358581543px) translate(-69.46000099182129px, -47.74000358581543px) translate(0px, -2px);}66.67%{-webkit-transform: translate(69.46000099182129px, 47.74000358581543px) translate(-69.46000099182129px, -47.74000358581543px) translate(0px, 2px);transform: translate(69.46000099182129px, 47.74000358581543px) translate(-69.46000099182129px, -47.74000358581543px) translate(0px, 2px);}100%{-webkit-transform: translate(69.46000099182129px, 47.74000358581543px) translate(-69.46000099182129px, -47.74000358581543px) translate(0px, 0px);transform: translate(69.46000099182129px, 47.74000358581543px) translate(-69.46000099182129px, -47.74000358581543px) translate(0px, 0px);}}@keyframes el_TTS1-yigm8E_rxCk7qi6h_Animation{0%{-webkit-transform: translate(69.46000099182129px, 47.74000358581543px) translate(-69.46000099182129px, -47.74000358581543px) translate(0px, 0px);transform: translate(69.46000099182129px, 47.74000358581543px) translate(-69.46000099182129px, -47.74000358581543px) translate(0px, 0px);}33.33%{-webkit-transform: translate(69.46000099182129px, 47.74000358581543px) translate(-69.46000099182129px, -47.74000358581543px) translate(0px, -2px);transform: translate(69.46000099182129px, 47.74000358581543px) translate(-69.46000099182129px, -47.74000358581543px) translate(0px, -2px);}66.67%{-webkit-transform: translate(69.46000099182129px, 47.74000358581543px) translate(-69.46000099182129px, -47.74000358581543px) translate(0px, 2px);transform: translate(69.46000099182129px, 47.74000358581543px) translate(-69.46000099182129px, -47.74000358581543px) translate(0px, 2px);}100%{-webkit-transform: translate(69.46000099182129px, 47.74000358581543px) translate(-69.46000099182129px, -47.74000358581543px) translate(0px, 0px);transform: translate(69.46000099182129px, 47.74000358581543px) translate(-69.46000099182129px, -47.74000358581543px) translate(0px, 0px);}}@-webkit-keyframes el_lMdchZ-n-cZ_-ckPsfIho_Animation{0%{-webkit-transform: translate(87.81000137329102px, 65.93000030517578px) translate(-87.81000137329102px, -65.93000030517578px) translate(0px, 0px);transform: translate(87.81000137329102px, 65.93000030517578px) translate(-87.81000137329102px, -65.93000030517578px) translate(0px, 0px);}33.33%{-webkit-transform: translate(87.81000137329102px, 65.93000030517578px) translate(-87.81000137329102px, -65.93000030517578px) translate(0px, 2px);transform: translate(87.81000137329102px, 65.93000030517578px) translate(-87.81000137329102px, -65.93000030517578px) translate(0px, 2px);}66.67%{-webkit-transform: translate(87.81000137329102px, 65.93000030517578px) translate(-87.81000137329102px, -65.93000030517578px) translate(0px, -2px);transform: translate(87.81000137329102px, 65.93000030517578px) translate(-87.81000137329102px, -65.93000030517578px) translate(0px, -2px);}100%{-webkit-transform: translate(87.81000137329102px, 65.93000030517578px) translate(-87.81000137329102px, -65.93000030517578px) translate(0px, 0px);transform: translate(87.81000137329102px, 65.93000030517578px) translate(-87.81000137329102px, -65.93000030517578px) translate(0px, 0px);}}@keyframes el_lMdchZ-n-cZ_-ckPsfIho_Animation{0%{-webkit-transform: translate(87.81000137329102px, 65.93000030517578px) translate(-87.81000137329102px, -65.93000030517578px) translate(0px, 0px);transform: translate(87.81000137329102px, 65.93000030517578px) translate(-87.81000137329102px, -65.93000030517578px) translate(0px, 0px);}33.33%{-webkit-transform: translate(87.81000137329102px, 65.93000030517578px) translate(-87.81000137329102px, -65.93000030517578px) translate(0px, 2px);transform: translate(87.81000137329102px, 65.93000030517578px) translate(-87.81000137329102px, -65.93000030517578px) translate(0px, 2px);}66.67%{-webkit-transform: translate(87.81000137329102px, 65.93000030517578px) translate(-87.81000137329102px, -65.93000030517578px) translate(0px, -2px);transform: translate(87.81000137329102px, 65.93000030517578px) translate(-87.81000137329102px, -65.93000030517578px) translate(0px, -2px);}100%{-webkit-transform: translate(87.81000137329102px, 65.93000030517578px) translate(-87.81000137329102px, -65.93000030517578px) translate(0px, 0px);transform: translate(87.81000137329102px, 65.93000030517578px) translate(-87.81000137329102px, -65.93000030517578px) translate(0px, 0px);}}#el_fYwA6jwOC *{-webkit-animation-duration: 3s;animation-duration: 3s;-webkit-animation-iteration-count: infinite;animation-iteration-count: infinite;-webkit-animation-timing-function: cubic-bezier(0, 0, 1, 1);animation-timing-function: cubic-bezier(0, 0, 1, 1);}#el_YH20hRWY2g{fill: #ffc92b;}#el_m6AAo6oSKn{fill: #ffc92b;}#el_-ynmqp7xv7{fill: #ffc92b;}#el_0ZpMsbaTzu{fill: #ffc92b;}#el_VXD8p7DGl3{fill: #ffc92b;}#el_SUo3mNu_8K{fill: #ffc92b;}#el_mNS2xTrQWx{fill: #ffc92b;}#el_9EGAmTMv6D{fill: #ffc92b;}#el_TiV8rRPtjy{fill: #ffc92b;}#el_7KQHEKDu0M{fill: #ffc92b;}#el_mePKcm42EN{fill: #ffc92b;}#el_lQ_fUqPA0e{fill: #ffc92b;}#el_Oc5hO3fxNy{fill: #ffc92b;}#el_ha7ixquSY-{fill: #ffc92b;}#el_KJoKz6acek{fill: #ffc92b;}#el_9Zi2ROOzLz8{fill: #ffc92b;}#el_xW6nsvxP5yJ{fill: #f68c31;-webkit-transform: translate(21.71px, 117.19px) rotate(-90deg);transform: translate(21.71px, 117.19px) rotate(-90deg);}#el_gw_vxV_qk_Y{fill: #f36b39;}#el_EWOtLLLbvjA{fill: #ffc92b;}#el_we8jjtUwv5k{fill: #5bc5d1;-webkit-transform: translate(54.84px, 118.15px) rotate(-90deg);transform: translate(54.84px, 118.15px) rotate(-90deg);}#el_ijQZWP-v_tO{fill: #010101;opacity: 0.1;}#el_zdgddmRFIEQ{fill: #ffc92b;}#el_5sDbfDJoerY{fill: #5e544f;}#el_bN5cera4ib6{fill: #5e544f;}#el_jYi_rGpMLqy{fill: #5e544f;}#el_G4ZlLqo4lDf{fill: #e5e8e8;}#el_IiSwNC2lYPY{fill: #5bc5d1;}#el_DiT6X-Szfl3{fill: #5bc5d1;}#el_VTQG6did8fI{fill: #f0672e;}#el_XHOh_Dpfx_z{fill: #f0672e;}#el_TCEZVi8fXpu{fill: #f0672e;}#el_ra4PATqWRaO{fill: #e5e8e8;}#el_aDZod9hygPK{fill: #0694a9;-webkit-transform: translate(-34.11px, 121.36px) rotate(-90deg);transform: translate(-34.11px, 121.36px) rotate(-90deg);}#el_41ifB7O1SO-{fill: #5bc5d1;}#el_otsr7fK8ul5{fill: #f36b39;}#el_qPeP9Mq2FRA{fill: #ef373f;}#el_uh26Te3l_47{fill: #ef373f;}#el_LelNWRWumS0{fill: #f68c31;}#el_3dAi2Du2z6M{fill: #fff;}#el_loEtmaCYQz0{fill: #fff;}#el_69QQmd8Da4Z{fill: #fdd1aa;}#el_FWHolf7St4W{fill: #ef373f;}#el_1uhghQs20dC{fill: #f36b39;}#el_T3ObjaP3-fK{fill: #f68c31;}#el_u0OfkkSzv-U{fill: #fff;}#el_lKA-wfV1-pi{fill: #fdd1aa;}#el_zz9dJAS36TM{fill: #ffc92b;}#el_jdSmeuNASxX{fill: #ffc92b;}#el_AJ1B4NkDWFt{fill: #ffc92b;}#el_TA7j7UFI4VC{fill: #ffc92b;-webkit-transform: translate(21.87px, 153.73px) rotate(-90deg);transform: translate(21.87px, 153.73px) rotate(-90deg);}#el_Glc9LRP40O8{fill: #010101;opacity: 0.1;}#el_HyTqS_oxApw{fill: #fff;}#el_q5NbRGAjwZa{fill: #e5e8e8;}#el_QH4g86Uz01D{fill: #629381;}#el_dXkSvpCaXWE{fill: #43443d;}#el_iFtDH9B2gDh{fill: #fff6e4;}#el_lMdchZ-n-cZ_-ckPsfIho{-webkit-animation-name: el_lMdchZ-n-cZ_-ckPsfIho_Animation;animation-name: el_lMdchZ-n-cZ_-ckPsfIho_Animation;-webkit-transform: translate(87.81000137329102px, 65.93000030517578px) translate(-87.81000137329102px, -65.93000030517578px) translate(0px, 0px);transform: translate(87.81000137329102px, 65.93000030517578px) translate(-87.81000137329102px, -65.93000030517578px) translate(0px, 0px);-webkit-animation-timing-function: cubic-bezier(0.42, 0, 0.58, 1);animation-timing-function: cubic-bezier(0.42, 0, 0.58, 1);}#el_TTS1-yigm8E_rxCk7qi6h{-webkit-transform: translate(69.46000099182129px, 47.74000358581543px) translate(-69.46000099182129px, -47.74000358581543px) translate(0px, 3px);transform: translate(69.46000099182129px, 47.74000358581543px) translate(-69.46000099182129px, -47.74000358581543px) translate(0px, 3px);-webkit-animation-name: el_TTS1-yigm8E_rxCk7qi6h_Animation;animation-name: el_TTS1-yigm8E_rxCk7qi6h_Animation;-webkit-animation-timing-function: cubic-bezier(0.42, 0, 0.58, 1);animation-timing-function: cubic-bezier(0.42, 0, 0.58, 1);}#el_Yy4d0Al9WEn_VKZVq231Qq{-webkit-animation-name: el_Yy4d0Al9WEn_VKZVq231Qq_Animation;animation-name: el_Yy4d0Al9WEn_VKZVq231Qq_Animation;-webkit-transform: translate(43.60499954223633px, 77.7300033569336px) translate(-43.60499954223633px, -77.7300033569336px) translate(0px, 0px);transform: translate(43.60499954223633px, 77.7300033569336px) translate(-43.60499954223633px, -77.7300033569336px) translate(0px, 0px);}#el_FG9Y2R72_x8_tBTDISPwW{-webkit-animation-name: el_FG9Y2R72_x8_tBTDISPwW_Animation;animation-name: el_FG9Y2R72_x8_tBTDISPwW_Animation;}</style><defs/><title>About-header-new</title><polygon id="el_YH20hRWY2g" points="106.91 61.73 107.84 63.42 109.53 64.35 107.84 65.28 106.91 66.97 105.98 65.28 104.29 64.35 105.98 63.42 106.91 61.73"/><polygon id="el_m6AAo6oSKn" points="46.41 59.29 46.87 60.14 47.72 60.6 46.87 61.07 46.41 61.91 45.94 61.07 45.09 60.6 45.94 60.14 46.41 59.29"/><polygon id="el_-ynmqp7xv7" points="83.72 47.73 84.5 49.16 85.93 49.94 84.5 50.72 83.72 52.15 82.94 50.72 81.5 49.94 82.94 49.16 83.72 47.73"/><polygon id="el_0ZpMsbaTzu" points="87.56 44 87.95 44.72 88.66 45.11 87.95 45.5 87.56 46.21 87.17 45.5 86.45 45.11 87.17 44.72 87.56 44"/><polygon id="el_VXD8p7DGl3" points="71.16 32.63 71.55 33.35 72.27 33.74 71.55 34.13 71.16 34.85 70.77 34.13 70.06 33.74 70.77 33.35 71.16 32.63"/><polygon id="el_SUo3mNu_8K" points="57.6 31.53 58.38 32.96 59.81 33.74 58.38 34.52 57.6 35.95 56.82 34.52 55.39 33.74 56.82 32.96 57.6 31.53"/><polygon id="el_mNS2xTrQWx" points="73.39 19.68 73.95 20.71 74.97 21.27 73.95 21.82 73.39 22.85 72.83 21.82 71.81 21.27 72.83 20.71 73.39 19.68"/><polygon id="el_9EGAmTMv6D" points="92.15 47.12 92.54 47.84 93.25 48.23 92.54 48.62 92.15 49.33 91.76 48.62 91.04 48.23 91.76 47.84 92.15 47.12"/><polygon id="el_TiV8rRPtjy" points="21.95 79.17 22.44 80.06 23.33 80.56 22.44 81.05 21.95 81.94 21.45 81.05 20.55 80.56 21.45 80.06 21.95 79.17"/><polygon id="el_7KQHEKDu0M" points="26.88 81.76 27.56 83.01 28.81 83.69 27.56 84.37 26.88 85.62 26.2 84.37 24.95 83.69 26.2 83.01 26.88 81.76"/><polygon id="el_mePKcm42EN" points="13.73 83.77 14.22 84.67 15.12 85.16 14.22 85.65 13.73 86.55 13.24 85.65 12.34 85.16 13.24 84.67 13.73 83.77"/><polygon id="el_lQ_fUqPA0e" points="103.39 42.42 103.95 43.44 104.97 44 103.95 44.56 103.39 45.58 102.83 44.56 101.81 44 102.83 43.44 103.39 42.42"/><polygon id="el_Oc5hO3fxNy" points="106.91 17.21 107.31 17.94 108.04 18.34 107.31 18.74 106.91 19.47 106.51 18.74 105.78 18.34 106.51 17.94 106.91 17.21"/><polygon id="el_ha7ixquSY-" points="70.09 79.79 70.59 80.68 71.48 81.17 70.59 81.67 70.09 82.56 69.6 81.67 68.7 81.17 69.6 80.68 70.09 79.79"/><polygon id="el_KJoKz6acek" points="66.16 71.74 66.55 72.46 67.26 72.85 66.55 73.24 66.16 73.95 65.77 73.24 65.05 72.85 65.77 72.46 66.16 71.74"/><polygon id="el_9Zi2ROOzLz8" points="54.13 54.79 54.91 56.22 56.34 57 54.91 57.78 54.13 59.21 53.35 57.78 51.92 57 53.35 56.22 54.13 54.79"/><g id="el_TTS1-yigm8E_rxCk7qi6h" data-animator-group="true" data-animator-type="0"><g id="el_TTS1-yigm8E"><rect x="58.7" y="37.45" width="21.5" height="20.59" rx="3.1" ry="3.1" id="el_xW6nsvxP5yJ"/><path d="M69.47,58.49h7.64a2.66,2.66,0,0,0,2.65-2.65V39.65A2.66,2.66,0,0,0,77.11,37H69.47Z" id="el_gw_vxV_qk_Y"/><g id="el_UG-qyrBDaCt"><g id="el_BKmUh3606VV" data-name="666-gear2.png"><path d="M69.08,54.58h.13a.49.49,0,0,0,.48-.42l.11-.74a.5.5,0,0,1,.39-.42,4.12,4.12,0,0,0,.69-.18.49.49,0,0,1,.54.17l.46.58a.48.48,0,0,0,.63.13l.11-.07a.49.49,0,0,0,.21-.6l-.28-.7a.48.48,0,0,1,.13-.55,5.9,5.9,0,0,0,.5-.5.48.48,0,0,1,.55-.13l.7.28a.49.49,0,0,0,.6-.21l.07-.11a.49.49,0,0,0-.12-.63L74.39,50a.49.49,0,0,1-.16-.54,7,7,0,0,0,.18-.69.49.49,0,0,1,.41-.39l.74-.11a.49.49,0,0,0,.42-.48v-.13a.5.5,0,0,0-.42-.49l-.74-.1a.49.49,0,0,1-.41-.4,4,4,0,0,0-.18-.68.48.48,0,0,1,.16-.54L75,45a.48.48,0,0,0,.12-.62L75,44.26a.48.48,0,0,0-.6-.21l-.7.28a.48.48,0,0,1-.55-.13,5.9,5.9,0,0,0-.5-.5.48.48,0,0,1-.13-.55l.28-.7a.49.49,0,0,0-.21-.6l-.11-.07a.49.49,0,0,0-.63.12l-.46.59a.47.47,0,0,1-.54.16c-.23-.07-.45-.13-.69-.18a.48.48,0,0,1-.39-.41l-.11-.74a.49.49,0,0,0-.48-.42h-.13a.48.48,0,0,0-.48.42l-.11.74a.49.49,0,0,1-.39.41l-.69.18a.49.49,0,0,1-.54-.16l-.46-.59a.49.49,0,0,0-.63-.12l-.11.07a.49.49,0,0,0-.21.6l.28.7a.48.48,0,0,1-.13.55,4.72,4.72,0,0,0-.5.5.48.48,0,0,1-.55.13l-.7-.28a.49.49,0,0,0-.61.21l-.06.11a.48.48,0,0,0,.12.63l.58.46a.49.49,0,0,1,.16.54q-.11.34-.18.69a.48.48,0,0,1-.41.39l-.74.11a.49.49,0,0,0-.42.48v.14a.49.49,0,0,0,.43.48l.74.11a.49.49,0,0,1,.41.39,5.84,5.84,0,0,0,.18.69.49.49,0,0,1-.16.54l-.59.46a.49.49,0,0,0-.12.63l.06.11a.49.49,0,0,0,.61.21l.7-.28a.48.48,0,0,1,.55.13,3.94,3.94,0,0,0,.5.5.51.51,0,0,1,.13.55l-.28.7a.48.48,0,0,0,.2.6l.12.07a.5.5,0,0,0,.63-.12l.46-.59a.48.48,0,0,1,.54-.16,7,7,0,0,0,.69.18.5.5,0,0,1,.39.41l.1.74a.5.5,0,0,0,.49.42Zm.06-3.42a3.42,3.42,0,1,1,3.42-3.42A3.42,3.42,0,0,1,69.14,51.16Z" id="el_EWOtLLLbvjA"/></g></g></g></g><g id="el_FG9Y2R72_x8_tBTDISPwW" data-animator-group="true" data-animator-type="0"><g id="el_FG9Y2R72_x8"><rect x="75.74" y="21.36" width="21.5" height="20.59" rx="4.06" ry="4.06" id="el_we8jjtUwv5k"/><path d="M87.84,42.4h5a4,4,0,0,0,4-4V24.89a4,4,0,0,0-4-4H86.49l0,1.33V41.07l0,1.33Z" id="el_ijQZWP-v_tO"/><path d="M89.7,30.85a8.61,8.61,0,0,0-1.18,2.89h-1.2L88,31.59a.45.45,0,0,0-.09-.43.54.54,0,0,0-.42-.19h-1l.66-2.14a.49.49,0,0,0-.37-.61.54.54,0,0,0-.65.34l-.85,2.77a.45.45,0,0,0,.08.43.56.56,0,0,0,.43.19h1l-.55,1.79H84.71a8.47,8.47,0,0,0-1.17-2.89,7,7,0,0,1-1.19-3.27,4.28,4.28,0,0,1,8.53,0A7.14,7.14,0,0,1,89.7,30.85Z" id="el_zdgddmRFIEQ"/><path d="M88.86,34.72l.65.39v.56H83.73v-.56l.65-.39Z" id="el_5sDbfDJoerY"/><path d="M88.86,37.6H84.38l-.65-.4v-.56h5.78v.55Z" id="el_bN5cera4ib6"/><path d="M86.62,39.52a2.08,2.08,0,0,1-1.73-1h3.46A2.09,2.09,0,0,1,86.62,39.52Z" id="el_jYi_rGpMLqy"/></g></g><rect id="el_G4ZlLqo4lDf" x="49.04" y="44.55" width="5.1" height="5.1" rx="0.82" ry="0.82"/><rect id="el_IiSwNC2lYPY" x="65.28" y="26.55" width="5.1" height="5.1" rx="0.88" ry="0.88"/><rect id="el_DiT6X-Szfl3" x="64.19" y="65.02" width="3.64" height="3.64" rx="0.64" ry="0.64"/><rect id="el_VTQG6did8fI" x="58.71" y="71.28" width="5.1" height="5.1" rx="0.95" ry="0.95"/><rect id="el_XHOh_Dpfx_z" x="94.08" y="48.2" width="3.64" height="3.64" rx="0.6" ry="0.6"/><rect id="el_TCEZVi8fXpu" x="96.45" y="12.74" width="3.64" height="3.64" rx="0.63" ry="0.63"/><rect id="el_ra4PATqWRaO" x="101.81" y="23.93" width="5.1" height="5.1" rx="0.89" ry="0.89"/><g id="el_Yy4d0Al9WEn_VKZVq231Qq" data-animator-group="true" data-animator-type="0"><g id="el_Yy4d0Al9WEn"><rect x="29.63" y="64.33" width="28" height="26.81" rx="3.61" ry="3.61" id="el_aDZod9hygPK"/><path d="M43.58,91.73H33.63a3.46,3.46,0,0,1-3.45-3.46V67.19a3.46,3.46,0,0,1,3.45-3.45h9.95Z" id="el_41ifB7O1SO-"/><path d="M38.71,87.73a6.74,6.74,0,0,1,3.89-2.2v-3a.33.33,0,0,1,.32-.32H44.6a.32.32,0,0,1,.31.32v3a6.74,6.74,0,0,1,3.9,2.2.31.31,0,0,1-.24.52H38.94a.3.3,0,0,1-.28-.19A.31.31,0,0,1,38.71,87.73Z" id="el_otsr7fK8ul5"/><path d="M33.7,78.19a2.84,2.84,0,1,0,2.84-2.83A2.84,2.84,0,0,0,33.7,78.19Zm2,0a.86.86,0,1,1,.86.86A.86.86,0,0,1,35.68,78.19Z" id="el_qPeP9Mq2FRA"/><path d="M48.15,78.19A2.83,2.83,0,1,0,51,75.36,2.84,2.84,0,0,0,48.15,78.19Zm2,0a.86.86,0,1,1,.86.86A.87.87,0,0,1,50.12,78.19Z" id="el_uh26Te3l_47"/><path d="M37.38,72.34H50.14a.31.31,0,0,1,.31.31v3.53a6.7,6.7,0,1,1-13.39,0V72.65A.31.31,0,0,1,37.38,72.34Z" id="el_LelNWRWumS0"/><path d="M41.07,80.86a.31.31,0,0,0,.27-.15.31.31,0,0,0-.1-.43,4.59,4.59,0,0,1-.88-.7,3.6,3.6,0,0,1-.37-.41.32.32,0,0,0-.44,0,.31.31,0,0,0,0,.44,4.6,4.6,0,0,0,.41.47,5.89,5.89,0,0,0,1,.79A.32.32,0,0,0,41.07,80.86Z" id="el_3dAi2Du2z6M"/><path d="M39,78.51a.31.31,0,0,0,.13,0,.3.3,0,0,0,.16-.41A4.87,4.87,0,0,1,39,76.18a.32.32,0,1,0-.63,0,5.6,5.6,0,0,0,.43,2.14A.31.31,0,0,0,39,78.51Z" id="el_loEtmaCYQz0"/><path d="M36.37,72.34H51.15a.31.31,0,0,1,.31.31V74.5a.31.31,0,0,1-.31.31H36.37a.31.31,0,0,1-.31-.31V72.65A.31.31,0,0,1,36.37,72.34Z" id="el_69QQmd8Da4Z"/><path d="M44.6,82.24a.32.32,0,0,1,.31.32v3a6.74,6.74,0,0,1,3.9,2.2.31.31,0,0,1-.24.52H43.76v-6Z" id="el_FWHolf7St4W"/><path d="M50.14,72.34a.31.31,0,0,1,.31.31v3.53a6.66,6.66,0,0,1-6.69,6.69V72.34Z" id="el_1uhghQs20dC"/><path d="M51.15,72.34a.31.31,0,0,1,.31.31V74.5a.31.31,0,0,1-.31.31H43.76V72.34Z" id="el_T3ObjaP3-fK"/><path d="M40.78,77.59a.31.31,0,0,1,.29-.22h1.8l.59-1.64a.32.32,0,0,1,.6,0l.59,1.64h1.8a.31.31,0,0,1,.29.22.3.3,0,0,1-.1.35l-1.52,1.2.45,1.65a.29.29,0,0,1-.13.34.3.3,0,0,1-.36,0l-1.32-1-1.32,1a.34.34,0,0,1-.19.07.32.32,0,0,1-.18-.06.32.32,0,0,1-.13-.34l.45-1.65-1.51-1.2A.3.3,0,0,1,40.78,77.59Z" id="el_u0OfkkSzv-U"/><path d="M44.06,75.73l.59,1.64h1.8a.31.31,0,0,1,.29.22.3.3,0,0,1-.1.35l-1.52,1.2.45,1.65a.29.29,0,0,1-.13.34.3.3,0,0,1-.36,0l-1.32-1V75.53A.33.33,0,0,1,44.06,75.73Z" id="el_lKA-wfV1-pi"/><path d="M47.29,69.65h.52v-.52a.32.32,0,1,1,.63,0v.52H49a.32.32,0,1,1,0,.63h-.52v.53a.32.32,0,0,1-.63,0v-.53h-.52a.32.32,0,1,1,0-.63Z" id="el_zz9dJAS36TM"/><path d="M38.22,69.65h.52v-.52a.32.32,0,1,1,.63,0v.52h.53a.32.32,0,0,1,0,.63h-.53v.53a.32.32,0,0,1-.63,0v-.53h-.52a.32.32,0,1,1,0-.63Z" id="el_jdSmeuNASxX"/><path d="M42.92,69.65h.52v-.52a.32.32,0,0,1,.32-.32.31.31,0,0,1,.31.32v.52h.53a.32.32,0,0,1,0,.63h-.53v.53a.31.31,0,0,1-.31.31.32.32,0,0,1-.32-.31v-.53h-.52a.32.32,0,1,1,0-.63Z" id="el_AJ1B4NkDWFt"/></g></g><g id="el_lMdchZ-n-cZ_-ckPsfIho" data-animator-group="true" data-animator-type="0"><g id="el_lMdchZ-n-cZ"><rect x="74.57" y="53.26" width="26.46" height="25.34" rx="3.63" ry="3.63" id="el_TA7j7UFI4VC"/><path d="M88.16,79.16h8.72a3.61,3.61,0,0,0,3.61-3.61V56.31a3.61,3.61,0,0,0-3.61-3.61H88.16a.34.34,0,0,0-.34.34V78.82A.34.34,0,0,0,88.16,79.16Z" id="el_Glc9LRP40O8"/><g id="el_fnARH3BPlvC" data-name="Shape 386"><path d="M87.88,71c3.71,0,6.6-1.14,10.14-5.4C95,62,92.4,60.2,87.88,60.2S80,62.83,77.75,65.53A12.38,12.38,0,0,0,87.88,71Z" id="el_HyTqS_oxApw"/></g><path d="M87.88,71c3.71,0,6.6-1.14,10.13-5.4C95,62,92.4,60.2,87.88,60.2Z" id="el_q5NbRGAjwZa"/><g id="el_qneHkpoU27o" data-name="Shape 387"><path d="M87.88,69.61a4,4,0,1,0-4-4A4,4,0,0,0,87.88,69.61Z" id="el_QH4g86Uz01D"/></g><g id="el_fkWJExlHAF8" data-name="Shape 388"><path d="M87.88,67.44A1.84,1.84,0,1,0,86,65.6,1.84,1.84,0,0,0,87.88,67.44Z" id="el_dXkSvpCaXWE"/></g><g id="el_zJQo_xASaM3" data-name="Ellipse 4"><circle cx="89.18" cy="66.9" r="0.54" id="el_iFtDH9B2gDh"/></g></g></g></svg>