<svg id="eneczjh0efrj1" xmlns="http://www.w3.org/2000/svg" xmlns:xlink="http://www.w3.org/1999/xlink" viewBox="0 0 1024 743" shape-rendering="geometricPrecision" text-rendering="geometricPrecision"><style><![CDATA[#eneczjh0efrj14_to {animation: eneczjh0efrj14_to__to 8000ms linear 1 normal forwards}@keyframes eneczjh0efrj14_to__to { 0% {transform: translate(329.675478px,482.059273px)} 51.250000% {transform: translate(329.675478px,482.059273px)} 52.500000% {transform: translate(328.248719px,497.628324px)} 65% {transform: translate(506.060488px,310.674154px)} 67.500000% {transform: translate(482.854311px,310.670000px)} 71.250000% {transform: translate(744.770524px,305.280000px)} 72.500000% {transform: translate(779.080524px,305.280000px)} 73.750000% {transform: translate(744.770524px,305.280000px)} 100% {transform: translate(744.770524px,305.280000px)} }#eneczjh0efrj14_tr {animation: eneczjh0efrj14_tr__tr 8000ms linear 1 normal forwards}@keyframes eneczjh0efrj14_tr__tr { 0% {transform: rotate(-13.500000deg)} 51.250000% {transform: rotate(-13.500000deg)} 52.500000% {transform: rotate(-20deg)} 65% {transform: rotate(720deg)} 100% {transform: rotate(720deg)} }#eneczjh0efrj14_ts {animation: eneczjh0efrj14_ts__ts 8000ms linear 1 normal forwards}@keyframes eneczjh0efrj14_ts__ts { 0% {transform: scale(1,1)} 52.500000% {transform: scale(1,1)} 65% {transform: scale(0.400000,0.400000)} 100% {transform: scale(0.400000,0.400000)} }#eneczjh0efrj14 {animation: eneczjh0efrj14_c_o 8000ms linear 1 normal forwards}@keyframes eneczjh0efrj14_c_o { 0% {opacity: 0} 51.250000% {opacity: 0} 52.500000% {opacity: 1} 100% {opacity: 1} }#eneczjh0efrj26_tr {animation: eneczjh0efrj26_tr__tr 8000ms linear 1 normal forwards}@keyframes eneczjh0efrj26_tr__tr { 0% {transform: translate(834.670000px,299.360000px) rotate(0deg)} 71.250000% {transform: translate(834.670000px,299.360000px) rotate(0deg)} 73.750000% {transform: translate(834.670000px,299.360000px) rotate(-90deg)} 100% {transform: translate(834.670000px,299.360000px) rotate(-90deg)} }#eneczjh0efrj35 {animation: eneczjh0efrj35_c_o 8000ms linear 1 normal forwards}@keyframes eneczjh0efrj35_c_o { 0% {opacity: 0} 71.250000% {opacity: 0} 75% {opacity: 1} 77.500000% {opacity: 0} 80% {opacity: 1} 81.250000% {opacity: 0} 100% {opacity: 0} }#eneczjh0efrj36 {animation: eneczjh0efrj36_c_o 8000ms linear 1 normal forwards}@keyframes eneczjh0efrj36_c_o { 0% {opacity: 0} 71.250000% {opacity: 0} 76.250000% {opacity: 1} 81.250000% {opacity: 0} 100% {opacity: 0} }#eneczjh0efrj37 {animation: eneczjh0efrj37_c_o 8000ms linear 1 normal forwards}@keyframes eneczjh0efrj37_c_o { 0% {opacity: 0} 71.250000% {opacity: 0} 73.750000% {opacity: 1} 75% {opacity: 1} 76.250000% {opacity: 0} 78.750000% {opacity: 1} 81.250000% {opacity: 0} 100% {opacity: 0} }#eneczjh0efrj38 {animation: eneczjh0efrj38_c_o 8000ms linear 1 normal forwards}@keyframes eneczjh0efrj38_c_o { 0% {opacity: 0} 71.250000% {opacity: 0} 72.500000% {opacity: 1} 73.750000% {opacity: 0} 75% {opacity: 1} 76.250000% {opacity: 0} 77.500000% {opacity: 1} 78.750000% {opacity: 0} 80% {opacity: 1} 81.250000% {opacity: 0} 100% {opacity: 0} }#eneczjh0efrj39_to {animation: eneczjh0efrj39_to__to 8000ms linear 1 normal forwards}@keyframes eneczjh0efrj39_to__to { 0% {transform: translate(0px,0px)} 25% {transform: translate(0px,0px)} 31.250000% {transform: translate(-1.260010px,153.249903px)} 43.750000% {transform: translate(-1.260010px,153.249903px)} 46.250000% {transform: translate(-1.036950px,175.640015px)} 48.750000% {transform: translate(-0.700010px,-14.729985px)} 52.500000% {transform: translate(-125.078497px,188.170708px)} 100% {transform: translate(-125.078497px,188.170708px)} }#eneczjh0efrj39_tr {animation: eneczjh0efrj39_tr__tr 8000ms linear 1 normal forwards}@keyframes eneczjh0efrj39_tr__tr { 0% {transform: rotate(0deg)} 48.750000% {transform: rotate(0deg)} 52.500000% {transform: rotate(-20deg)} 100% {transform: rotate(-20deg)} }#eneczjh0efrj39 {animation: eneczjh0efrj39_c_o 8000ms linear 1 normal forwards}@keyframes eneczjh0efrj39_c_o { 0% {opacity: 0} 25% {opacity: 0} 31.250000% {opacity: 1} 52.500000% {opacity: 1} 53.750000% {opacity: 0} 100% {opacity: 0} }#eneczjh0efrj43 {animation: eneczjh0efrj43__m 8000ms linear 1 normal forwards}@keyframes eneczjh0efrj43__m { 0% {d: path('M539.690000,301.400000L339,125.260000C327.990338,115.292787,311.251944,115.180882,300.110000,125L97.150000,303.810000Z')} 37.500000% {d: path('M539.690000,301.400000L339,125.260000C327.990338,115.292787,311.251944,115.180882,300.110000,125L97.150000,303.810000Z')} 41.250000% {d: path('M539.690000,303.785071L339,301.963102C327.990338,301.860002,311.251944,301.858845,300.110000,301.960412L97.150000,303.810000Z')} 100% {d: path('M539.690000,303.785071L339,301.963102C327.990338,301.860002,311.251944,301.858845,300.110000,301.960412L97.150000,303.810000Z')} }#eneczjh0efrj46_to {animation: eneczjh0efrj46_to__to 8000ms linear 1 normal forwards}@keyframes eneczjh0efrj46_to__to { 0% {transform: translate(-1.474775px,-7.439906px)} 31.250000% {transform: translate(-1.474775px,-7.439906px)} 37.500000% {transform: translate(-1.474775px,446.890094px)} 100% {transform: translate(-1.474775px,446.890094px)} }#eneczjh0efrj46 {animation: eneczjh0efrj46_c_o 8000ms linear 1 normal forwards}@keyframes eneczjh0efrj46_c_o { 0% {opacity: 0} 25% {opacity: 0} 32.500000% {opacity: 1} 43.750000% {opacity: 0} 100% {opacity: 0} }#eneczjh0efrj61 {animation: eneczjh0efrj61__m 8000ms linear 1 normal forwards}@keyframes eneczjh0efrj61__m { 0% {d: path('M539.690000,589.570000L338.302427,588.111750C326.881756,588.030236,309.518490,588.029321,297.960598,588.109623L93.709990,589.560432Z')} 41.250000% {d: path('M539.690000,589.570000L338.302427,588.111750C326.881756,588.030236,309.518490,588.029321,297.960598,588.109623L93.709990,589.560432Z')} 43.750000% {d: path('M539.690000,589.530000L338.302427,425.380797C326.881756,416.205148,309.518490,416.102130,297.960598,425.141445L93.709990,588.452918Z')} 100% {d: path('M539.690000,589.530000L338.302427,425.380797C326.881756,416.205148,309.518490,416.102130,297.960598,425.141445L93.709990,588.452918Z')} }#eneczjh0efrj62_to {animation: eneczjh0efrj62_to__to 8000ms linear 1 normal forwards}@keyframes eneczjh0efrj62_to__to { 0% {transform: translate(0px,0px)} 25% {transform: translate(0px,0px)} 31.250000% {transform: translate(-1.735412px,-124.190020px)} 37.500000% {transform: translate(1.624587px,312.314014px)} 100% {transform: translate(1.624587px,312.314014px)} }#eneczjh0efrj62 {animation: eneczjh0efrj62_c_o 8000ms linear 1 normal forwards}@keyframes eneczjh0efrj62_c_o { 0% {opacity: 1} 31.250000% {opacity: 1} 32.500000% {opacity: 0} 100% {opacity: 0} }#eneczjh0efrj81_to {animation: eneczjh0efrj81_to__to 8000ms linear 1 normal forwards}@keyframes eneczjh0efrj81_to__to { 0% {transform: translate(-1.139990px,-23.276141px)} 12.500000% {transform: translate(-1.139990px,-10.466141px)} 25% {transform: translate(-1.139990px,-10.466141px)} 31.250000% {transform: translate(-2.875402px,-113.966141px)} 100% {transform: translate(-2.875402px,-113.966141px)} }#eneczjh0efrj81 {animation: eneczjh0efrj81_c_o 8000ms linear 1 normal forwards}@keyframes eneczjh0efrj81_c_o { 0% {opacity: 0} 12.500000% {opacity: 1} 25% {opacity: 1} 31.250000% {opacity: 0} 100% {opacity: 0} }#eneczjh0efrj83 {animation: eneczjh0efrj83_c_o 8000ms linear 1 normal forwards}@keyframes eneczjh0efrj83_c_o { 0% {opacity: 1} 6.250000% {opacity: 0} 12.500000% {opacity: 1} 18.750000% {opacity: 0} 25% {opacity: 1} 100% {opacity: 1} }#eneczjh0efrj84 {animation: eneczjh0efrj84_c_o 8000ms linear 1 normal forwards}@keyframes eneczjh0efrj84_c_o { 0% {opacity: 0} 6.250000% {opacity: 1} 12.500000% {opacity: 0} 18.750000% {opacity: 1} 100% {opacity: 1} }#eneczjh0efrj85 {animation: eneczjh0efrj85_c_o 8000ms linear 1 normal forwards}@keyframes eneczjh0efrj85_c_o { 0% {opacity: 1} 12.500000% {opacity: 0} 25% {opacity: 1} 100% {opacity: 1} }#eneczjh0efrj86 {animation: eneczjh0efrj86_c_o 8000ms linear 1 normal forwards}@keyframes eneczjh0efrj86_c_o { 0% {opacity: 0} 73.750000% {opacity: 0} 78.750000% {opacity: 1} 100% {opacity: 1} }]]></style><g id="eneczjh0efrj2"><g id="eneczjh0efrj3"><path id="eneczjh0efrj4" d="M759,271.800000C758.999541,232.707361,728.748531,200.280899,689.750000,197.570000C688.930000,197.640000,688.110000,197.640000,687.360000,197.710000C684.970000,197.980000,682.570000,198.320000,680.180000,198.800000C679.500000,198.940000,678.810000,199.140000,678.180000,199.280000C676.520442,199.607374,674.878374,200.017891,673.260000,200.510000C672.440000,200.780000,671.620000,201.120000,670.800000,201.400000C669.360000,201.940000,667.930000,202.400000,666.560000,202.970000C665.670000,203.310000,664.850000,203.720000,663.960000,204.130000C662.730000,204.750000,661.430000,205.290000,660.200000,205.980000C659.380000,206.390000,658.490000,206.980000,657.670000,207.410000C656.510000,208.100000,655.350000,208.780000,654.250000,209.530000C653.430000,210.080000,652.610000,210.620000,651.790000,211.240000C650.700000,211.990000,649.670000,212.740000,648.650000,213.560000C647.830000,214.180000,647.010000,214.860000,646.260000,215.560000C645.260000,216.440000,644.340000,217.270000,643.390000,218.150000C642.630000,218.910000,641.950000,219.660000,641.200000,220.410000C640.450000,221.160000,639.490000,222.260000,638.670000,223.210000L636.620000,225.670000C635.870000,226.670000,635.110000,227.670000,634.360000,228.670000C633.750000,229.490000,633.130000,230.380000,632.590000,231.270000C631.900000,232.360000,631.220000,233.460000,630.590000,234.550000C630.050000,235.440000,629.500000,236.330000,629.020000,237.280000C628.410000,238.450000,627.860000,239.610000,627.310000,240.770000C626.830000,241.770000,626.420000,242.680000,626.010000,243.640000C625.530000,244.870000,625.060000,246.100000,624.650000,247.400000C624.300000,248.400000,623.890000,249.400000,623.650000,250.340000L622.650000,254.440000C622.440000,255.330000,622.170000,256.290000,621.960000,257.240000C621.620000,258.820000,621.420000,260.390000,621.210000,261.960000C621.140000,262.780000,620.940000,263.600000,620.870000,264.420000C620.660000,266.880000,620.530000,269.340000,620.530000,271.800000L620.530000,401.090000L759,401.090000L759,271.800000Z" opacity="0.7" fill="rgb(0,149,170)" stroke="none" stroke-width="1"/><path id="eneczjh0efrj5" d="M694.730000,197.260000C692.960000,197.260000,691.180000,197.400000,689.400000,197.530000L689.470000,197.530000L690.240000,197.610000C689.400000,197.610000,688.560000,197.730000,687.730000,197.800000L687.080000,197.800000L686.870000,197.870000C676.591832,198.944255,666.650417,202.149075,657.680000,207.280000L657.410000,207.370000L657.410000,207.440000C634.264851,220.748003,619.997528,245.411669,620,272.110000L620,401.400000L625.670000,401.400000L625.670000,401.130000L758.680000,401.130000L758.680000,391.280000L625.620000,391.280000L625.620000,272.110000C625.620000,241.960000,646.480000,216.030000,673.620000,204.270000C696.200000,195.350000,715.140000,203.630000,723.770000,208.800000C745.509550,222.414187,758.711121,246.259383,758.710000,271.910000L758.710000,401.200000L769.370000,401.200000L769.370000,271.910000C769.314926,230.708680,735.931312,197.320594,694.730000,197.260000Z" fill="rgb(130,203,203)" stroke="none" stroke-width="1"/></g><g id="eneczjh0efrj6" transform="matrix(1 0 0 1 -413 130)"><g id="eneczjh0efrj7" transform="matrix(0.90630800000000 -0.42261800000000 0.42261800000000 0.90630800000000 -66.45900000000000 339.47600000000000)"><g id="eneczjh0efrj8" transform="matrix(2.58000000000000 0 0 2.58000000000000 -1157.21000000000004 -505.00999999999999)"><g id="eneczjh0efrj9" opacity="0"><path id="eneczjh0efrj10" d="M650.220000,376.050000L815.500000,376C817.042002,376.086568,818.372371,374.929147,818.500000,373.390000L818.500000,266.830000C818.500000,266.720000,818.430000,266.630000,818.420000,266.530000C818.399144,266.349537,818.358912,266.171846,818.300000,266C818.235983,265.845164,818.155522,265.697652,818.060000,265.560000C817.967030,265.416264,817.859822,265.282254,817.740000,265.160000L817.670000,265.100000L647.180000,370.910000L647.180000,373.440000C647.302367,374.998366,648.661064,376.164879,650.220000,376.050000Z" fill="rgb(242,233,215)" stroke="none" stroke-width="1"/><path id="eneczjh0efrj11" d="M814.600000,375.590000L649.320000,375.640000C647.774280,375.737488,646.437330,374.574341,646.320000,373.030000L646.320000,266.480000C646.320000,266.360000,646.390000,266.270000,646.400000,266.180000C646.419737,265.996088,646.459988,265.814962,646.520000,265.640000C646.582235,265.484319,646.662803,265.336611,646.760000,265.200000C646.855522,265.058121,646.962550,264.924337,647.080000,264.800000L647.140000,264.750000L817.710000,370.450000L817.710000,373C817.644105,373.757115,817.278551,374.456555,816.694566,374.942896C816.110581,375.429237,815.356541,375.662193,814.600000,375.590000Z" fill="rgb(242,233,215)" stroke="none" stroke-width="1"/><path id="eneczjh0efrj12" d="M815.500000,376L740.670000,307.280000C736.424999,303.431756,729.965931,303.388696,725.670000,307.180000L649.790000,375.550000Z" fill="rgb(255,246,228)" stroke="none" stroke-width="1"/><path id="eneczjh0efrj13" d="M817.780000,265.480000C817.756859,265.295730,817.713256,265.114613,817.650000,264.940000C817.589996,264.783279,817.509279,264.635298,817.410000,264.500000C817.320920,264.353501,817.213371,264.219066,817.090000,264.100000C816.950909,263.955844,816.792781,263.831361,816.620000,263.730000C816.541154,263.657910,816.457639,263.591099,816.370000,263.530000C816.310000,263.530000,816.240000,263.530000,816.190000,263.470000C815.998442,263.396908,815.801081,263.340041,815.600000,263.300000C815.410684,263.246528,815.216292,263.213012,815.020000,263.200000C814.953416,263.195299,814.886584,263.195299,814.820000,263.200000L649.540000,263.200000C649.466775,263.194351,649.393225,263.194351,649.320000,263.200000C649.134665,263.216130,648.950810,263.246216,648.770000,263.290000C648.563689,263.339404,648.360082,263.399485,648.160000,263.470000C648.107532,263.500342,648.049890,263.520686,647.990000,263.530000C647.902826,263.591719,647.819349,263.658500,647.740000,263.730000C647.564114,263.831223,647.402662,263.955676,647.260000,264.100000C647.142745,264.221937,647.038824,264.356028,646.950000,264.500000L646.850000,264.650000L647.850000,265.450000L726.920000,334.360000C731.212498,338.160464,737.678554,338.117357,741.920000,334.260000L817.920000,265.880000L817.920000,265.780000C817.882104,265.676137,817.835262,265.575760,817.780000,265.480000Z" fill="rgb(255,246,228)" stroke="none" stroke-width="1"/></g></g></g></g><g id="eneczjh0efrj14_to" transform="translate(329.675478,482.059273)"><g id="eneczjh0efrj14_tr" transform="rotate(-13.500000)"><g id="eneczjh0efrj14_ts" transform="scale(1,1)"><g id="eneczjh0efrj14" transform="translate(-318.375000,-463.329999)" opacity="0"><path id="eneczjh0efrj15" d="M106.310000,606.120000L535.200000,606C539.550000,606,543.070000,603,543.070000,599.220000L543,322.700000C542.954359,322.436007,542.890880,322.175410,542.810000,321.920000C542.748715,321.449697,542.638106,320.987150,542.480000,320.540000C542.321087,320.135909,542.112842,319.753007,541.860000,319.400000C541.617870,319.039450,541.339779,318.704401,541.030000,318.400000L540.870000,318.260000L98.430000,592.780000L98.430000,599.350000C98.440000,603.090000,102,606.120000,106.310000,606.120000Z" fill="rgb(242,233,215)" stroke="none" stroke-width="1"/><path id="eneczjh0efrj16" d="M532.880000,604.920000L104,605.050000C99.650000,605.050000,96.120000,602.050000,96.120000,598.280000L96,321.780000C96.045641,321.516007,96.109120,321.255410,96.190000,321C96.251488,320.530680,96.358664,320.068486,96.510000,319.620000C96.678939,319.217494,96.886581,318.832351,97.130000,318.470000C97.375224,318.108938,97.656685,317.773866,97.970000,317.470000C97.970000,317.410000,98.080000,317.370000,98.130000,317.320000L540.750000,591.580000L540.750000,598.140000C540.750000,601.880000,537.230000,604.920000,532.880000,604.920000Z" fill="rgb(242,233,215)" stroke="none" stroke-width="1"/><path id="eneczjh0efrj17" d="M535.200000,606L341,427.670000C329.990338,417.702787,313.251944,417.590882,302.110000,427.410000L105.270000,604.810000Z" fill="rgb(255,246,228)" stroke="none" stroke-width="1"/><path id="eneczjh0efrj18" d="M552.666308,606L350.576752,427.670000C339.119811,417.702787,321.701405,417.590882,310.106809,427.410000L105.270000,604.810000Z" transform="matrix(1 0 0 -1 -9.59630820000049 924.00999999500027)" fill="rgb(255,246,228)" stroke="none" stroke-width="1"/><g id="eneczjh0efrj19" transform="matrix(1 0 0 0 0 313.19000000000000)"><path id="eneczjh0efrj20" d="M541.120000,322.657377C541.057409,321.915919,540.950258,321.185574,540.800000,320.476245C540.633623,319.840045,540.422282,319.235607,540.170000,318.674441C539.927870,318.104581,539.649779,317.575025,539.340000,317.093910C538.976032,316.483405,538.562423,315.951924,538.110000,315.513380C537.904271,315.218485,537.687189,314.944002,537.460000,314.691504C537.303263,314.636742,537.149464,314.562760,537,314.470230C536.503561,314.161594,535.991815,313.918416,535.470000,313.743186C534.977333,313.546164,534.475880,313.408787,533.970000,313.332248C533.780000,313.332248,533.610000,313.190000,533.430000,313.190000L104.550000,313.190000C104.364987,313.219450,104.181303,313.266957,104,313.332248C103.515387,313.417825,103.034504,313.549778,102.560000,313.727380C102.030792,313.923834,101.509794,314.171926,101,314.470230C100.853462,314.560544,100.703092,314.634484,100.550000,314.691504C100.323210,314.944841,100.106160,315.219284,99.900000,315.513380C99.445649,315.947608,99.031688,316.479541,98.670000,317.093910C98.360384,317.566797,98.088379,318.097552,97.860000,318.674441C97.770000,318.864104,97.690000,319.069573,97.610000,319.275042L100.180000,322.546740L305.340000,605.192993C316.481944,620.712406,333.220338,620.535537,344.230000,604.782055L541.310000,324.316934L541.310000,323.953412C541.266170,323.514833,541.202677,323.081730,541.120000,322.657377Z" fill="rgb(255,246,228)" stroke="none" stroke-width="1"/></g></g></g></g></g><path id="eneczjh0efrj21" d="M758.680000,530.420000C758.721390,556.189229,745.387957,580.134137,723.460000,593.670000Q721.050000,595.170000,718.520000,596.490000C710.660285,600.572473,702.015229,602.918744,693.170000,603.370000C673.060000,604.370000,654.860000,595.850000,640.840000,581.820000C640.010000,580.930000,639.130000,579.980000,638.310000,579.020000L636.310000,576.560000C635.550000,575.560000,634.800000,574.560000,634.050000,573.560000C633.430000,572.740000,632.820000,571.850000,632.270000,570.960000C631.590000,569.870000,630.900000,568.780000,630.270000,567.680000C629.720000,566.790000,629.180000,565.910000,628.700000,564.950000C628.080000,563.790000,627.540000,562.620000,626.990000,561.460000C626.510000,560.460000,626.100000,559.550000,625.690000,558.590000C625.210000,557.360000,624.690000,556.130000,624.320000,554.830000C623.980000,553.830000,623.570000,552.830000,623.320000,551.890000L622.320000,547.790000C622.120000,546.900000,621.840000,545.950000,621.640000,544.990000C621.300000,543.420000,621.090000,541.840000,620.890000,540.270000C620.820000,539.450000,620.610000,538.630000,620.540000,537.810000C620.340000,535.350000,620.200000,532.890000,620.200000,530.430000L620.200000,401.130000L758.680000,401.130000L758.680000,530.420000Z" fill="rgb(175,223,227)" stroke="none" stroke-width="1"/><g id="eneczjh0efrj22"><path id="eneczjh0efrj23" d="M769.310000,271.910000L769.310000,401.130000L950.590000,401.130000C956.478313,401.118994,961.248994,396.348313,961.260000,390.460000L961.260000,271.910000C961.226914,230.695656,927.824344,197.293086,886.610000,197.260000L694.730000,197.260000C735.955769,197.265521,769.374479,230.684231,769.380000,271.910000Z" fill="rgb(175,223,227)" stroke="none" stroke-width="1"/><path id="eneczjh0efrj24" d="M695.250000,197.260000C693.470000,197.260000,691.690000,197.400000,689.920000,197.530000L690,197.530000L690.780000,197.610000C689.940000,197.610000,689.100000,197.730000,688.260000,197.800000L687.610000,197.800000L687.400000,197.870000C677.125026,198.944462,667.186918,202.149314,658.220000,207.280000L657.950000,207.370000L657.950000,207.440000C637.300000,220.170000,647.010000,216.020000,674.160000,204.260000C696.750000,195.340000,715.690000,203.620000,724.320000,208.790000C746.054295,222.407941,759.251372,246.251844,759.250000,271.900000L759.250000,401.200000L769.910000,401.200000L769.910000,271.910000C769.860398,230.698603,736.461403,197.304082,695.250000,197.260000Z" fill="rgb(130,203,203)" stroke="none" stroke-width="1"/></g><g id="eneczjh0efrj25"><g id="eneczjh0efrj26_tr" transform="translate(834.670000,299.360000) rotate(0)"><path id="eneczjh0efrj26" d="M929.330000,291.230000C931.176247,291.235511,932.670008,292.733744,932.670000,294.580000L932.670000,328.110000C932.670008,329.956256,931.176247,331.454489,929.330000,331.460000L903.830000,331.460000C901.983753,331.454489,900.489992,329.956256,900.490000,328.110000L900.490000,307.320000L833.370000,307.320000C832.336865,307.314960,831.353432,306.875863,830.660000,306.110000C824.380000,299.250000,829.140000,291.230000,835.770000,291.230000Z" transform="translate(-834.670000,-299.360000)" fill="rgb(239,55,63)" stroke="none" stroke-width="1"/></g></g><g id="eneczjh0efrj27"><path id="eneczjh0efrj28" d="M828.250000,623.140000C831.250000,605,825.620000,586.140000,815.250000,570.920000C804.880000,555.700000,789.120000,537.570000,773.900000,535.170000C779.700000,537.100000,783.900000,542.170000,787.290000,547.170000C800.618422,566.833215,807.939162,589.948964,808.360000,613.700000C802.760000,594.700000,783.610000,577.580000,764.070000,574.410000C772.560000,576.950000,779.320000,583.630000,783.810000,591.270000C788.648184,599.747430,792.512712,608.744534,795.330000,618.090000C789.850648,607.347936,779.319969,600.096811,767.330000,598.810000C774.386480,604.866686,778.235269,613.853350,777.750000,623.140000" fill="rgb(136,176,63)" stroke="none" stroke-width="1"/><path id="eneczjh0efrj29" d="M809,612.210000L809,401.130000L862.340000,475L862.340000,612.420000C862.340000,623.010000,851.680000,623.150000,851.680000,623.150000L809,623.150000Z" fill="rgb(227,121,72)" stroke="none" stroke-width="1"/><path id="eneczjh0efrj30" d="M862.340000,401.130000L809,401.130000L862.340000,475Z" fill="rgb(194,104,61)" stroke="none" stroke-width="1"/><path id="eneczjh0efrj31" d="M842.760000,623.140000C840.040000,606.570000,844.560000,589.690000,852.660000,575.240000C860.330000,561.550000,872.130000,546.950000,886.100000,539.240000C887.917073,538.231387,889.801544,537.349294,891.740000,536.600000C893.478050,535.926413,895.280914,535.433809,897.120000,535.130000C891.330000,537.060000,887.120000,542.130000,883.730000,547.130000C870.404594,566.794065,863.087305,589.909889,862.670000,613.660000C868.270000,594.660000,887.420000,577.540000,906.960000,574.370000C898.470000,576.910000,891.710000,583.590000,887.210000,591.230000C882.371816,599.707430,878.507288,608.704534,875.690000,618.050000C881.172186,607.310420,891.701341,600.060345,903.690000,598.770000C896.633520,604.826686,892.784731,613.813350,893.270000,623.100000" fill="rgb(136,176,63)" stroke="none" stroke-width="1"/></g><g id="eneczjh0efrj32"><circle id="eneczjh0efrj33" r="18.770000" transform="matrix(1 0 0 1 834.66999999999996 299.24000000000001)" fill="rgb(239,55,63)" stroke="none" stroke-width="1"/><circle id="eneczjh0efrj34" r="9.390000" transform="matrix(1 0 0 1 834.66999999999996 299.24000000000001)" fill="rgb(245,186,99)" stroke="none" stroke-width="1"/></g><polygon id="eneczjh0efrj35" points="623.680000,183.720000 627.980000,191.580000 635.840000,195.880000 627.980000,200.180000 623.680000,208.040000 619.380000,200.180000 611.520000,195.880000 619.380000,191.580000 623.680000,183.720000" opacity="0" fill="rgb(255,201,43)" stroke="none" stroke-width="1"/><polygon id="eneczjh0efrj36" points="628.430000,352.330000 634.450000,363.330000 645.460000,369.350000 634.450000,375.370000 628.430000,386.380000 622.410000,375.370000 611.410000,369.350000 622.410000,363.330000 628.430000,352.330000" opacity="0" fill="rgb(255,201,43)" stroke="none" stroke-width="1"/><polygon id="eneczjh0efrj37" points="674.590000,269.570000 681.280000,281.790000 693.500000,288.470000 681.280000,295.150000 674.590000,307.370000 667.910000,295.150000 655.690000,288.470000 667.910000,281.790000 674.590000,269.570000" opacity="0" fill="rgb(255,201,43)" stroke="none" stroke-width="1"/><polygon id="eneczjh0efrj38" points="576.070000,300.850000 580.370000,308.710000 588.230000,313.010000 580.370000,317.310000 576.070000,325.170000 571.770000,317.310000 563.910000,313.010000 571.770000,308.710000 576.070000,300.850000" opacity="0" fill="rgb(255,201,43)" stroke="none" stroke-width="1"/></g><g id="eneczjh0efrj39_to" transform="translate(0,0)"><g id="eneczjh0efrj39_tr" transform="rotate(0)"><g id="eneczjh0efrj39" transform="translate(0,0)" opacity="0"><g id="eneczjh0efrj40"><path id="eneczjh0efrj41" d="M540.780000,305.350000C540.721005,304.879278,540.610338,304.416487,540.450000,303.970000C540.289330,303.563594,540.081222,303.177587,539.830000,302.820000C539.581775,302.461218,539.300551,302.126428,538.990000,301.820000C538.623379,301.436598,538.210160,301.100648,537.760000,300.820000C537.556116,300.634310,537.338865,300.463851,537.110000,300.310000C536.960000,300.240000,536.790000,300.240000,536.650000,300.160000C535.680929,299.807757,534.674157,299.569488,533.650000,299.450000C533.475935,299.406300,533.298733,299.376209,533.120000,299.360000L104.210000,299.360000C104.020988,299.372935,103.833547,299.403060,103.650000,299.450000C103.168770,299.499919,102.691159,299.580077,102.220000,299.690000C101.684886,299.816724,101.157375,299.973642,100.640000,300.160000C100.492504,300.226389,100.338279,300.276680,100.180000,300.310000C99.552114,300.801783,98.925446,301.295118,98.300000,301.790000C97.993180,302.091745,97.721455,302.427209,97.490000,302.790000C97.232934,303.149051,97.015026,303.534579,96.840000,303.940000C96.693854,304.390599,96.583511,304.852032,96.510000,305.320000C96.436113,305.573221,96.376025,305.830266,96.330000,306.090000L96.330000,582.630000C96.330000,586.370000,99.860000,589.400000,104.210000,589.400000L533.100000,589.400000C537.450000,589.400000,540.970000,586.400000,540.970000,582.630000L540.970000,306.130000C541,305.840000,540.800000,305.600000,540.780000,305.350000Z" fill="rgb(217,207,188)" stroke="none" stroke-width="1"/></g><g id="eneczjh0efrj42"><path id="eneczjh0efrj43" d="M539.690000,301.400000L339,125.260000C327.990338,115.292787,311.251944,115.180882,300.110000,125L97.150000,303.810000Z" fill="rgb(217,207,188)" stroke="none" stroke-width="1"/></g><g id="eneczjh0efrj44" transform="matrix(1 0 0 1 0 -270)"><g id="eneczjh0efrj45"><g id="eneczjh0efrj46_to" transform="translate(-1.474775,-7.439906)"><g id="eneczjh0efrj46" transform="translate(0,0)" opacity="0"><g id="eneczjh0efrj47"><path id="eneczjh0efrj48" d="M498.790000,235.390000L395.350000,132.050000L145.500000,133C133.577189,133.038451,123.922935,142.697173,123.890000,154.620000L123.890000,564.760000C123.917470,576.685098,133.574915,586.347013,145.500000,586.380000L477.320000,585.980000C489.198551,585.908507,498.790215,576.258766,498.790000,564.380000L498.790000,235.380000Z" fill="rgb(242,236,230)" stroke="none" stroke-width="1"/></g><g id="eneczjh0efrj49"><path id="eneczjh0efrj50" d="M395.350000,132.050000L397.150000,206.320000C397.150000,222.410000,410.560000,235.390000,427.020000,235.390000L498.790000,235.390000Z" fill="rgb(212,208,203)" stroke="none" stroke-width="1"/></g><g id="eneczjh0efrj51"><path id="eneczjh0efrj52" d="M472,353L177,353C169.260000,353,163,354.690000,163,356.740000L163,362.460000C163,364.510000,169.280000,366.200000,177,366.200000L472,366.200000C479.640000,366.200000,486,364.500000,486,362.460000L486,356.700000C486,354.650000,479.640000,353,472,353Z" fill="rgb(173,173,173)" stroke="none" stroke-width="1"/></g><g id="eneczjh0efrj53"><path id="eneczjh0efrj54" d="M346,293.610000L171.410000,293.610000C166.830000,293.610000,163.110000,295.310000,163.110000,297.350000L163.110000,303.070000C163.110000,305.130000,166.830000,306.810000,171.410000,306.810000L346,306.810000C350.520000,306.810000,354.300000,305.130000,354.300000,303.070000L354.300000,297.350000C354.320000,295.310000,350.530000,293.610000,346,293.610000Z" fill="rgb(173,173,173)" stroke="none" stroke-width="1"/></g><g id="eneczjh0efrj55"><path id="eneczjh0efrj56" d="M346,234.270000L171.410000,234.270000C166.830000,234.270000,163.110000,235.960000,163.110000,238.010000L163.110000,243.730000C163.110000,245.790000,166.830000,247.470000,171.410000,247.470000L346,247.470000C350.520000,247.470000,354.300000,245.780000,354.300000,243.730000L354.300000,238C354.320000,236,350.530000,234.270000,346,234.270000Z" fill="rgb(173,173,173)" stroke="none" stroke-width="1"/></g><g id="eneczjh0efrj57"><path id="eneczjh0efrj58" d="M346,174.920000L171.410000,174.920000C166.830000,174.920000,163.110000,176.620000,163.110000,178.660000L163.110000,184.380000C163.110000,186.440000,166.830000,188.120000,171.410000,188.120000L346,188.120000C350.520000,188.120000,354.300000,186.440000,354.300000,184.380000L354.300000,178.660000C354.320000,176.620000,350.530000,174.920000,346,174.920000Z" fill="rgb(173,173,173)" stroke="none" stroke-width="1"/></g></g></g></g></g><path id="eneczjh0efrj59" d="M541.920000,306.300000C541.875510,306.035768,541.812012,305.775091,541.730000,305.520000C541.668525,305.047410,541.561357,304.581897,541.410000,304.130000C541.243623,303.727477,541.032282,303.345049,540.780000,302.990000C540.535458,302.631261,540.257555,302.296438,539.950000,301.990000L539.790000,301.850000L319.350000,438.620000L97.100000,300.880000L96.940000,301.030000C96.632088,301.336112,96.354156,301.670970,96.110000,302.030000C95.859682,302.389827,95.648486,302.775344,95.480000,303.180000C95.328664,303.628486,95.221488,304.090680,95.160000,304.560000C95.079120,304.815410,95.015641,305.076007,94.970000,305.340000L95.050000,581.840000C95.222004,584.944832,97.421613,587.563997,100.450000,588.270000C101.877195,589.200354,103.546378,589.690676,105.250000,589.680000L534.140000,589.540000C538.490000,589.540000,542.010000,586.540000,542.010000,582.770000Z" fill="rgb(242,233,215)" stroke="none" stroke-width="1"/><path id="eneczjh0efrj60" d="M534.140000,589.570000L340,411.260000C328.990338,401.292787,312.251944,401.180882,301.110000,411L104.210000,588.400000Z" fill="rgb(255,246,228)" stroke="none" stroke-width="1"/><path id="eneczjh0efrj61" d="M539.690000,589.570000L338.302427,588.111750C326.881756,588.030236,309.518490,588.029321,297.960598,588.109623L93.709990,589.560432Z" transform="matrix(1 0 0 -1 1.26000977499967 888.92999999999995)" fill="rgb(255,246,228)" stroke="none" stroke-width="1"/></g></g></g><g id="eneczjh0efrj62_to" transform="translate(0,0)"><g id="eneczjh0efrj62" transform="translate(0,0)"><g id="eneczjh0efrj63"><path id="eneczjh0efrj64" d="M498.790000,235.390000L395.350000,132.050000L145.500000,133C133.577189,133.038451,123.922935,142.697173,123.890000,154.620000L123.890000,564.760000C123.917470,576.685098,133.574915,586.347013,145.500000,586.380000L477.320000,585.980000C489.198551,585.908507,498.790215,576.258766,498.790000,564.380000L498.790000,235.380000Z" fill="rgb(242,236,230)" stroke="none" stroke-width="1"/></g><g id="eneczjh0efrj65"><path id="eneczjh0efrj66" d="M395.350000,132.050000L397.150000,206.320000C397.150000,222.410000,410.560000,235.390000,427.020000,235.390000L498.790000,235.390000Z" fill="rgb(212,208,203)" stroke="none" stroke-width="1"/></g><g id="eneczjh0efrj67"><path id="eneczjh0efrj68" d="M472,353L177,353C169.260000,353,163,354.690000,163,356.740000L163,362.460000C163,364.510000,169.280000,366.200000,177,366.200000L472,366.200000C479.640000,366.200000,486,364.500000,486,362.460000L486,356.700000C486,354.650000,479.640000,353,472,353Z" transform="matrix(1 0 0 1 0.11000000000001 -0.38498841000001)" fill="rgb(173,173,173)" stroke="none" stroke-width="1"/></g><g id="eneczjh0efrj69"><path id="eneczjh0efrj70" d="M346,293.610000L171.410000,293.610000C166.830000,293.610000,163.110000,295.310000,163.110000,297.350000L163.110000,303.070000C163.110000,305.130000,166.830000,306.810000,171.410000,306.810000L346,306.810000C350.520000,306.810000,354.300000,305.130000,354.300000,303.070000L354.300000,297.350000C354.320000,295.310000,350.530000,293.610000,346,293.610000Z" fill="rgb(173,173,173)" stroke="none" stroke-width="1"/></g><g id="eneczjh0efrj71"><path id="eneczjh0efrj72" d="M346,234.270000L171.410000,234.270000C166.830000,234.270000,163.110000,235.960000,163.110000,238.010000L163.110000,243.730000C163.110000,245.790000,166.830000,247.470000,171.410000,247.470000L346,247.470000C350.520000,247.470000,354.300000,245.780000,354.300000,243.730000L354.300000,238C354.320000,236,350.530000,234.270000,346,234.270000Z" fill="rgb(173,173,173)" stroke="none" stroke-width="1"/></g><g id="eneczjh0efrj73"><path id="eneczjh0efrj74" d="M346,174.920000L171.410000,174.920000C166.830000,174.920000,163.110000,176.620000,163.110000,178.660000L163.110000,184.380000C163.110000,186.440000,166.830000,188.120000,171.410000,188.120000L346,188.120000C350.520000,188.120000,354.300000,186.440000,354.300000,184.380000L354.300000,178.660000C354.320000,176.620000,350.530000,174.920000,346,174.920000Z" fill="rgb(173,173,173)" stroke="none" stroke-width="1"/></g></g></g><g id="eneczjh0efrj75" opacity="0"><g id="eneczjh0efrj76"><path id="eneczjh0efrj77" d="M540.780000,305.350000C540.721005,304.879278,540.610338,304.416487,540.450000,303.970000C540.289330,303.563594,540.081222,303.177587,539.830000,302.820000C539.581775,302.461218,539.300551,302.126428,538.990000,301.820000C538.623379,301.436598,538.210160,301.100648,537.760000,300.820000C537.556116,300.634310,537.338865,300.463851,537.110000,300.310000C536.960000,300.240000,536.790000,300.240000,536.650000,300.160000C535.680929,299.807757,534.674157,299.569488,533.650000,299.450000C533.475935,299.406300,533.298733,299.376209,533.120000,299.360000L104.210000,299.360000C104.020988,299.372935,103.833547,299.403060,103.650000,299.450000C103.168770,299.499919,102.691159,299.580077,102.220000,299.690000C101.684886,299.816724,101.157375,299.973642,100.640000,300.160000C100.492504,300.226389,100.338279,300.276680,100.180000,300.310000C99.552114,300.801783,98.925446,301.295118,98.300000,301.790000C97.993180,302.091745,97.721455,302.427209,97.490000,302.790000C97.232934,303.149051,97.015026,303.534579,96.840000,303.940000C96.693854,304.390599,96.583511,304.852032,96.510000,305.320000C96.436113,305.573221,96.376025,305.830266,96.330000,306.090000L96.330000,582.630000C96.330000,586.370000,99.860000,589.400000,104.210000,589.400000L533.100000,589.400000C537.450000,589.400000,540.970000,586.400000,540.970000,582.630000L540.970000,306.130000C541,305.840000,540.800000,305.600000,540.780000,305.350000Z" fill="rgb(217,207,188)" stroke="none" stroke-width="1"/></g><path id="eneczjh0efrj78" d="M539.690000,301.400000L339,125.260000C327.990338,115.292787,311.251944,115.180882,300.110000,125L97.150000,303.810000Z" fill="rgb(217,207,188)" stroke="none" stroke-width="1"/><path id="eneczjh0efrj79" d="M541.920000,306.300000C541.875510,306.035768,541.812012,305.775091,541.730000,305.520000C541.668525,305.047410,541.561357,304.581897,541.410000,304.130000C541.243623,303.727477,541.032282,303.345049,540.780000,302.990000C540.535458,302.631261,540.257555,302.296438,539.950000,301.990000L539.790000,301.850000L319.350000,438.620000L97.100000,300.880000L96.940000,301.030000C96.632088,301.336112,96.354156,301.670970,96.110000,302.030000C95.859682,302.389827,95.648486,302.775344,95.480000,303.180000C95.328664,303.628486,95.221488,304.090680,95.160000,304.560000C95.079120,304.815410,95.015641,305.076007,94.970000,305.340000L95.050000,581.840000C95.222004,584.944832,97.421613,587.563997,100.450000,588.270000C101.877195,589.200354,103.546378,589.690676,105.250000,589.680000L534.140000,589.540000C538.490000,589.540000,542.010000,586.540000,542.010000,582.770000Z" fill="rgb(242,233,215)" stroke="none" stroke-width="1"/><path id="eneczjh0efrj80" d="M534.140000,589.570000L340,411.260000C328.990338,401.292787,312.251944,401.180882,301.110000,411L104.210000,588.400000Z" fill="rgb(255,246,228)" stroke="none" stroke-width="1"/></g><g id="eneczjh0efrj81_to" transform="translate(-1.139990,-23.276141)"><g id="eneczjh0efrj81" transform="translate(0,0)" opacity="0"><path id="eneczjh0efrj82" d="M318.420000,415C286.838678,414.995955,258.364808,434.016972,246.276357,463.193148C234.187905,492.369324,240.865630,525.954564,263.195567,548.287361C285.525504,570.620158,319.109888,577.302184,348.287612,565.217470C377.465336,553.132756,396.490000,524.661322,396.490000,493.080000C396.490001,449.961513,361.538489,415.005523,318.420000,415ZM315.120000,531.390000L314.790000,531.100000L314.790000,531.100000L278.740000,499.380000L292.660000,483.560000L313.220000,501.640000L350.390000,459.400000L366.210000,473.320000Z" fill="rgb(125,196,113)" stroke="none" stroke-width="1"/><polygon id="eneczjh0efrj83" points="300.830000,433.520000 306.140000,443.220000 315.840000,448.530000 306.140000,453.830000 300.830000,463.540000 295.520000,453.830000 285.820000,448.530000 295.520000,443.220000 300.830000,433.520000" fill="rgb(255,201,43)" stroke="none" stroke-width="1"/><polygon id="eneczjh0efrj84" points="263.240000,456.040000 267.310000,463.490000 274.760000,467.560000 267.310000,471.640000 263.240000,479.090000 259.160000,471.640000 251.710000,467.570000 259.160000,463.490000 263.240000,456.040000" opacity="0" fill="rgb(255,201,43)" stroke="none" stroke-width="1"/><polygon id="eneczjh0efrj85" points="267.449995,399.770000 275.530619,415.060000 290.299990,423.420000 275.530619,431.780000 267.449995,447.060000 259.369371,431.780000 244.600000,423.420000 259.369371,415.060000 267.449995,399.770000" fill="rgb(255,201,43)" stroke="none" stroke-width="1"/></g></g><g id="eneczjh0efrj86" transform="matrix(1.50000000000000 0 0 1.50000000000000 -142.45501693999950 -177.52897203500021)" opacity="0"><g id="eneczjh0efrj87"><g id="eneczjh0efrj88" transform="matrix(1 0 0 1 104.20999999999978 205.08520386000018)"><path id="eneczjh0efrj89" display="none" d="M614.700000,86.700000C614.700000,47.600000,584.500000,15.200000,545.500000,12.500000C544.700000,12.600000,543.900000,12.600000,543.100000,12.600000C540.700000,12.900000,538.300000,13.200000,535.900000,13.700000C535.200000,13.800000,534.500000,14,533.900000,14.200000C532.200000,14.500000,530.500000,15,529,15.400000C528.200000,15.700000,527.400000,16,526.500000,16.300000C525.100000,16.800000,523.600000,17.300000,522.300000,17.900000C521.400000,18.200000,520.600000,18.700000,519.700000,19.100000C518.500000,19.700000,517.200000,20.300000,515.900000,21C515.100000,21.400000,514.200000,22,513.400000,22.400000C512.200000,23.100000,511.100000,23.800000,510,24.500000C509.200000,25,508.400000,25.600000,507.500000,26.200000C506.400000,27,505.400000,27.700000,504.400000,28.500000C503.600000,29.100000,502.800000,29.800000,502,30.500000C501,31.400000,500.100000,32.200000,499.100000,33.100000C498.300000,33.900000,497.700000,34.600000,496.900000,35.400000C496.100000,36.200000,495.200000,37.200000,494.400000,38.200000L492.300000,40.700000C491.500000,41.700000,490.800000,42.700000,490.100000,43.700000C489.500000,44.500000,488.900000,45.400000,488.300000,46.300000C487.600000,47.400000,486.900000,48.500000,486.300000,49.600000C485.800000,50.500000,485.200000,51.400000,484.700000,52.300000C484.100000,53.500000,483.500000,54.600000,483,55.800000C482.500000,56.800000,482.100000,57.700000,481.700000,58.700000C481.200000,59.900000,480.700000,61.200000,480.300000,62.500000C480,63.500000,479.500000,64.500000,479.300000,65.400000L478.300000,69.500000C478.100000,70.400000,477.800000,71.300000,477.600000,72.300000C477.300000,73.900000,477.100000,75.500000,476.800000,77C476.700000,77.800000,476.500000,78.600000,476.400000,79.500000C476.200000,82,476.100000,84.400000,476.100000,86.900000L476.100000,216L614.600000,216L614.600000,86.700000Z" opacity="0.7" fill="rgb(0,149,170)" stroke="none" stroke-width="1"/><path id="eneczjh0efrj90" display="none" d="M684,438C687,419.900000,681.400000,401,671,385.800000C660.600000,370.600000,644.900000,352.400000,629.700000,350C635.500000,351.900000,639.700000,357,643.100000,362C656.400000,381.700000,663.700000,404.800000,664.200000,428.500000C658.600000,409.500000,639.400000,392.400000,619.900000,389.200000C628.400000,391.700000,635.200000,398.400000,639.700000,406.100000C644.500000,414.600000,648.400000,423.600000,651.200000,433C645.700000,422.300000,635.200000,415,623.200000,413.700000C630.300000,419.800000,634.100000,428.700000,633.600000,438" fill="rgb(136,176,63)" stroke="none" stroke-width="1"/><path id="eneczjh0efrj91" display="none" d="M664.800000,427.100000L664.800000,216L718.100000,289.800000L718.100000,427.300000C718.100000,437.900000,707.400000,438,707.400000,438L664.700000,438L664.700000,427.100000Z" fill="rgb(227,121,72)" stroke="none" stroke-width="1"/><path id="eneczjh0efrj92" display="none" d="M718.100000,216L664.800000,216L718.100000,289.800000L718.100000,216Z" fill="rgb(194,104,61)" stroke="none" stroke-width="1"/><path id="eneczjh0efrj93" display="none" d="M625.100000,86.800000L625.100000,216L806.400000,216C812.300000,216,817,211.200000,817,205.400000L817,86.800000C817,45.600000,783.600000,12.200000,742.400000,12.200000L550.500000,12.200000C591.700000,12.200000,625.200000,45.600000,625.100000,86.800000L625.100000,86.800000Z" fill="rgb(175,223,227)" stroke="none" stroke-width="1"/><path id="eneczjh0efrj94" display="none" d="M785.100000,106.100000C787,106.100000,788.400000,107.600000,788.400000,109.400000L788.400000,143C788.400000,144.800000,786.900000,146.300000,785.100000,146.300000L759.600000,146.300000C757.800000,146.300000,756.300000,144.800000,756.300000,143C756.300000,143,756.300000,143,756.300000,143L756.300000,122.200000L689.200000,122.200000C688.200000,122.200000,687.200000,121.800000,686.500000,121C680.200000,114.100000,685,106.100000,691.600000,106.100000L785.100000,106.100000Z" fill="rgb(239,55,63)" stroke="none" stroke-width="1"/><path id="eneczjh0efrj95" display="none" d="M698.500000,438C695.800000,421.400000,700.300000,404.500000,708.400000,390.100000C716.100000,376.400000,727.900000,361.800000,741.800000,354.100000C743.600000,353.100000,745.500000,352.200000,747.400000,351.500000C749.100000,350.800000,750.900000,350.300000,752.800000,350C747,351.900000,742.800000,357,739.400000,362C726.100000,381.700000,718.800000,404.800000,718.300000,428.500000C723.900000,409.500000,743.100000,392.400000,762.600000,389.200000C754.100000,391.700000,747.400000,398.400000,742.900000,406.100000C738.100000,414.600000,734.200000,423.600000,731.400000,433C736.900000,422.300000,747.400000,415,759.400000,413.700000C752.300000,419.700000,748.400000,428.700000,748.900000,438" fill="rgb(136,176,63)" stroke="none" stroke-width="1"/><circle id="eneczjh0efrj96" display="none" r="18.800000" transform="matrix(1 0 0 1 690.50000000000000 114.09999999999999)" fill="rgb(239,55,63)" stroke="none" stroke-width="1"/><circle id="eneczjh0efrj97" display="none" r="9.400000" transform="matrix(1 0 0 1 690.50000000000000 114.09999999999999)" fill="rgb(245,186,99)" stroke="none" stroke-width="1"/><path id="eneczjh0efrj98" display="none" d="M614.500000,345.300000C614.500000,371.100000,601.200000,395,579.300000,408.500000C577.700000,409.500000,576,410.400000,574.400000,411.300000C566.600000,415.400000,557.900000,417.700000,549.100000,418.200000C529,419.200000,510.800000,410.700000,496.800000,396.700000C496,395.800000,495.100000,394.900000,494.300000,393.900000L492.300000,391.400000C491.500000,390.400000,490.800000,389.400000,490.100000,388.400000C489.500000,387.600000,488.900000,386.700000,488.300000,385.800000C487.600000,384.700000,486.900000,383.600000,486.300000,382.500000C485.800000,381.600000,485.200000,380.700000,484.700000,379.800000C484.100000,378.600000,483.500000,377.500000,483,376.300000C482.500000,375.300000,482.100000,374.400000,481.700000,373.400000C481.200000,372.200000,480.700000,370.900000,480.300000,369.600000C480,368.600000,479.500000,367.600000,479.300000,366.700000L478.300000,362.600000C478.100000,361.700000,477.800000,360.800000,477.600000,359.800000C477.300000,358.200000,477.100000,356.700000,476.800000,355.100000C476.700000,354.300000,476.500000,353.500000,476.500000,352.600000C476.300000,350.100000,476.200000,347.700000,476.200000,345.200000L476.200000,216L614.600000,216L614.600000,345.300000Z" fill="rgb(175,223,227)" stroke="none" stroke-width="1"/><path id="eneczjh0efrj99" display="none" d="M684,438C687,419.900000,681.400000,401,671,385.800000C660.600000,370.600000,644.900000,352.400000,629.700000,350C635.500000,351.900000,639.700000,357,643.100000,362C656.400000,381.700000,663.700000,404.800000,664.200000,428.500000C658.600000,409.500000,639.400000,392.400000,619.900000,389.200000C628.400000,391.700000,635.200000,398.400000,639.700000,406.100000C644.500000,414.600000,648.400000,423.600000,651.200000,433C645.700000,422.300000,635.200000,415,623.200000,413.700000C630.300000,419.800000,634.100000,428.700000,633.600000,438" fill="rgb(136,176,63)" stroke="none" stroke-width="1"/><path id="eneczjh0efrj100" display="none" d="M664.800000,427.100000L664.800000,216L718.100000,289.800000L718.100000,427.300000C718.100000,437.900000,707.400000,438,707.400000,438L664.700000,438L664.700000,427.100000Z" fill="rgb(227,121,72)" stroke="none" stroke-width="1"/><path id="eneczjh0efrj101" display="none" d="M718.100000,216L664.800000,216L718.100000,289.800000L718.100000,216Z" fill="rgb(194,104,61)" stroke="none" stroke-width="1"/><path id="eneczjh0efrj102" display="none" d="M698.500000,438C695.800000,421.400000,700.300000,404.500000,708.400000,390.100000C716.100000,376.400000,727.900000,361.800000,741.800000,354.100000C743.600000,353.100000,745.500000,352.200000,747.400000,351.500000C749.100000,350.800000,750.900000,350.300000,752.800000,350C747,351.900000,742.800000,357,739.400000,362C726.100000,381.700000,718.800000,404.800000,718.300000,428.500000C723.900000,409.500000,743.100000,392.400000,762.600000,389.200000C754.100000,391.700000,747.400000,398.400000,742.900000,406.100000C738.100000,414.600000,734.200000,423.600000,731.400000,433C736.900000,422.300000,747.400000,415,759.400000,413.700000C752.300000,419.700000,748.400000,428.700000,748.900000,438" fill="rgb(136,176,63)" stroke="none" stroke-width="1"/><path id="eneczjh0efrj103" display="none" d="M614.500000,345.300000C614.500000,371.100000,601.200000,395,579.300000,408.500000C577.700000,409.500000,576,410.400000,574.400000,411.300000C566.600000,415.400000,557.900000,417.700000,549.100000,418.200000C529,419.200000,510.800000,410.700000,496.800000,396.700000C496,395.800000,495.100000,394.900000,494.300000,393.900000L492.300000,391.400000C491.500000,390.400000,490.800000,389.400000,490.100000,388.400000C489.500000,387.600000,488.900000,386.700000,488.300000,385.800000C487.600000,384.700000,486.900000,383.600000,486.300000,382.500000C485.800000,381.600000,485.200000,380.700000,484.700000,379.800000C484.100000,378.600000,483.500000,377.500000,483,376.300000C482.500000,375.300000,482.100000,374.400000,481.700000,373.400000C481.200000,372.200000,480.700000,370.900000,480.300000,369.600000C480,368.600000,479.500000,367.600000,479.300000,366.700000L478.300000,362.600000C478.100000,361.700000,477.800000,360.800000,477.600000,359.800000C477.300000,358.200000,477.100000,356.700000,476.800000,355.100000C476.700000,354.300000,476.500000,353.500000,476.500000,352.600000C476.300000,350.100000,476.200000,347.700000,476.200000,345.200000L476.200000,216L614.600000,216L614.600000,345.300000Z" fill="rgb(175,223,227)" stroke="none" stroke-width="1"/><path id="eneczjh0efrj104" display="none" d="M550.500000,12.200000C548.700000,12.200000,547,12.300000,545.200000,12.500000L545.300000,12.500000C545.600000,12.500000,545.800000,12.600000,546.100000,12.600000C545.300000,12.700000,544.400000,12.700000,543.600000,12.800000L542.900000,12.800000L542.700000,12.900000C532.400000,14,522.500000,17.200000,513.500000,22.300000L513.200000,22.400000L513.200000,22.500000C490,35.800000,475.800000,60.500000,475.700000,87.200000L475.700000,216.500000L481.400000,216.500000L481.400000,216L614.500000,216L614.500000,206.100000L481.400000,206.100000L481.400000,87C481.400000,56.800000,502.300000,30.900000,529.400000,19.200000C552,10.300000,570.900000,18.600000,579.600000,23.700000C601.300000,37.300000,614.500000,61.200000,614.500000,86.800000L614.500000,216.100000L625.200000,216.100000L625.200000,86.800000C625.100000,45.600000,591.700000,12.200000,550.500000,12.200000Z" fill="rgb(130,203,203)" stroke="none" stroke-width="1"/><g id="eneczjh0efrj105" display="none"><image id="eneczjh0efrj106" width="1089" height="842" xlink:href="338F71D1D28E8213.png" preserveAspectRatio="xMidYMid meet" transform="matrix(0.24000000000000 0 0 0.24000000000000 463.11000000000001 33.32000000000000)" opacity="0.25"/><path id="eneczjh0efrj107" d="M674.400000,75.700000C674.400000,75.500000,674.300000,75.300000,674.300000,75.200000C674.200000,75,674.200000,74.900000,674.100000,74.800000C674,74.700000,673.900000,74.500000,673.800000,74.400000C673.700000,74.300000,673.500000,74.100000,673.300000,74C673.200000,73.900000,673.100000,73.900000,673.100000,73.800000C673,73.800000,673,73.800000,672.900000,73.800000C672.700000,73.700000,672.500000,73.700000,672.300000,73.600000C672.100000,73.500000,671.900000,73.500000,671.700000,73.500000C671.600000,73.500000,671.600000,73.500000,671.500000,73.500000L506.100000,73.500000C506,73.500000,506,73.500000,505.900000,73.500000C505.700000,73.500000,505.500000,73.500000,505.300000,73.600000C505.100000,73.700000,504.900000,73.700000,504.700000,73.800000C504.600000,73.800000,504.600000,73.800000,504.500000,73.800000C504.400000,73.900000,504.300000,73.900000,504.300000,74C504.100000,74.100000,504,74.200000,503.800000,74.400000C503.700000,74.500000,503.600000,74.700000,503.500000,74.800000C503.400000,74.900000,503.300000,75.100000,503.300000,75.200000C503.200000,75.400000,503.200000,75.600000,503.200000,75.700000C503.200000,75.800000,503.100000,75.900000,503.100000,76L503.100000,182.600000C503.200000,184.100000,504.600000,185.300000,506.100000,185.200000L671.400000,185.200000C672.900000,185.300000,674.300000,184.100000,674.400000,182.600000L674.400000,76C674.500000,75.900000,674.400000,75.800000,674.400000,75.700000Z" fill="rgb(217,207,188)" stroke="none" stroke-width="1"/></g><path id="eneczjh0efrj108" display="none" d="M506.400000,185.700000L671.700000,185.600000C673.200000,185.700000,674.600000,184.500000,674.700000,183L674.700000,76.500000C674.700000,76.400000,674.700000,76.300000,674.600000,76.200000C674.600000,76,674.500000,75.800000,674.500000,75.700000C674.400000,75.500000,674.400000,75.400000,674.300000,75.300000C674.200000,75.200000,674.100000,75,674,74.900000L673.900000,74.800000L503.300000,180.600000L503.300000,183.100000C503.400000,184.600000,504.800000,185.800000,506.400000,185.700000Z" fill="rgb(242,233,215)" stroke="none" stroke-width="1"/><path id="eneczjh0efrj109" display="none" d="M670.700000,185.200000L505.400000,185.300000C503.900000,185.400000,502.500000,184.200000,502.400000,182.700000L502.400000,76.100000C502.400000,76,502.400000,75.900000,502.500000,75.800000C502.500000,75.600000,502.600000,75.400000,502.600000,75.300000C502.700000,75.100000,502.700000,75,502.800000,74.900000C502.900000,74.800000,503,74.600000,503.100000,74.500000L503.200000,74.400000L673.700000,180.100000L673.700000,182.600000C673.700000,184.200000,672.300000,185.300000,670.700000,185.200000Z" fill="rgb(242,233,215)" stroke="none" stroke-width="1"/><path id="eneczjh0efrj110" display="none" d="M671.600000,185.600000L596.800000,116.900000C592.600000,113.100000,586.100000,113,581.800000,116.800000L506,185.200000L671.600000,185.600000Z" fill="rgb(255,246,228)" stroke="none" stroke-width="1"/><image id="eneczjh0efrj111" display="none" width="839" height="434" xlink:href="338F71D1D28E8211.png" preserveAspectRatio="xMidYMid meet" transform="matrix(0.24000000953674 0 0 0.24000000953674 487.82998657226563 64.76000213623047)" opacity="0.2"/><path id="eneczjh0efrj112" display="none" d="M673.900000,75.100000C673.900000,74.900000,673.800000,74.700000,673.800000,74.600000C673.700000,74.400000,673.700000,74.300000,673.600000,74.200000C673.500000,74.100000,673.400000,73.900000,673.300000,73.800000C673.200000,73.700000,673,73.500000,672.800000,73.400000C672.700000,73.300000,672.600000,73.300000,672.600000,73.200000C672.500000,73.200000,672.500000,73.200000,672.400000,73.100000C672.200000,73,672,73,671.800000,72.900000C671.600000,72.900000,671.400000,72.800000,671.200000,72.800000L671,72.800000L505.700000,72.800000C505.600000,72.800000,505.600000,72.800000,505.500000,72.800000C505.300000,72.800000,505.100000,72.900000,505,72.900000C504.800000,72.900000,504.600000,73,504.400000,73.100000C504.300000,73.100000,504.300000,73.100000,504.200000,73.200000C504.100000,73.300000,504,73.300000,504,73.400000C503.800000,73.500000,503.700000,73.600000,503.500000,73.800000C503.400000,73.900000,503.300000,74.100000,503.200000,74.200000L503.100000,74.400000L504.100000,75.200000L583,144C587.300000,147.800000,593.800000,147.700000,598,143.900000L674,75.500000L674,75.400000C674,75.300000,674,75.200000,673.900000,75.100000Z" fill="rgb(255,246,228)" stroke="none" stroke-width="1"/><path id="eneczjh0efrj113" display="none" d="M625.100000,86.800000L625.100000,216L806.400000,216C812.300000,216,817,211.200000,817,205.400000L817,86.800000C817,45.600000,783.600000,12.200000,742.400000,12.200000L550.500000,12.200000C591.700000,12.200000,625.200000,45.600000,625.100000,86.800000L625.100000,86.800000Z" fill="rgb(175,223,227)" stroke="none" stroke-width="1"/><path id="eneczjh0efrj114" display="none" d="M785.100000,106.100000C787,106.100000,788.400000,107.600000,788.400000,109.400000L788.400000,143C788.400000,144.800000,786.900000,146.300000,785.100000,146.300000L759.600000,146.300000C757.800000,146.300000,756.300000,144.800000,756.300000,143C756.300000,143,756.300000,143,756.300000,143L756.300000,122.200000L689.200000,122.200000C688.200000,122.200000,687.200000,121.800000,686.500000,121C680.200000,114.100000,685,106.100000,691.600000,106.100000L785.100000,106.100000Z" fill="rgb(239,55,63)" stroke="none" stroke-width="1"/><circle id="eneczjh0efrj115" display="none" r="18.800000" transform="matrix(1 0 0 1 690.50000000000000 114.09999999999999)" fill="rgb(239,55,63)" stroke="none" stroke-width="1"/><circle id="eneczjh0efrj116" display="none" r="9.400000" transform="matrix(1 0 0 1 690.50000000000000 114.09999999999999)" fill="rgb(245,186,99)" stroke="none" stroke-width="1"/><path id="eneczjh0efrj117" display="none" d="M550.500000,12.200000C548.700000,12.200000,547,12.300000,545.200000,12.500000L545.300000,12.500000C545.600000,12.500000,545.800000,12.600000,546.100000,12.600000C545.300000,12.700000,544.400000,12.700000,543.600000,12.800000L542.900000,12.800000L542.700000,12.900000C532.400000,14,522.500000,17.200000,513.500000,22.300000L513.200000,22.400000L513.200000,22.500000C490,35.800000,475.800000,60.500000,475.700000,87.200000L475.700000,216.500000L481.400000,216.500000L481.400000,216L614.500000,216L614.500000,206.100000L481.400000,206.100000L481.400000,87C481.400000,56.800000,502.300000,30.900000,529.400000,19.200000C552,10.300000,570.900000,18.600000,579.600000,23.700000C601.300000,37.300000,614.500000,61.200000,614.500000,86.800000L614.500000,216.100000L625.200000,216.100000L625.200000,86.800000C625.100000,45.600000,591.700000,12.200000,550.500000,12.200000Z" fill="rgb(130,203,203)" stroke="none" stroke-width="1"/><polygon id="eneczjh0efrj118" display="none" points="477.400000,0 481.700000,7.900000 489.500000,12.200000 481.700000,16.500000 477.400000,24.300000 473.100000,16.500000 465.200000,12.200000 473.100000,7.900000" fill="rgb(255,201,43)" stroke="none" stroke-width="1"/><polygon id="eneczjh0efrj119" display="none" points="482.100000,168.600000 488.100000,179.600000 499.100000,185.600000 488.100000,191.700000 482.100000,202.700000 476.100000,191.700000 465.100000,185.600000 476.100000,179.600000" fill="rgb(255,201,43)" stroke="none" stroke-width="1"/><polygon id="eneczjh0efrj120" display="none" points="528.300000,85.800000 535,98.100000 547.200000,104.800000 535,111.400000 528.300000,123.700000 521.600000,111.400000 509.400000,104.800000 521.600000,98.100000" fill="rgb(255,201,43)" stroke="none" stroke-width="1"/><polygon id="eneczjh0efrj121" display="none" points="429.800000,117.100000 434.100000,125 441.900000,129.300000 434.100000,133.600000 429.800000,141.500000 425.500000,133.600000 417.600000,129.300000 425.500000,125" fill="rgb(255,201,43)" stroke="none" stroke-width="1"/><path id="eneczjh0efrj122" d="M61.600000,86.300000L56.800000,86.300000L56.800000,99.600000L54.800000,99.600000L54.800000,86.300000L50,86.300000L50,84.700000L61.600000,84.700000L61.600000,86.300000Z" fill="rgb(198,86,39)" stroke="none" stroke-width="1"/><path id="eneczjh0efrj123" d="M66.500000,90C66.900000,89.500000,67.400000,89.100000,67.900000,88.800000C68.500000,88.500000,69.100000,88.300000,69.700000,88.400000C70.700000,88.300000,71.700000,88.700000,72.500000,89.500000C73.200000,90.400000,73.600000,91.600000,73.500000,92.800000L73.500000,99.700000L71.500000,99.700000L71.500000,92.700000C71.500000,92,71.300000,91.300000,70.900000,90.700000C70.400000,90.200000,69.800000,90,69.100000,90C68.600000,90,68,90.100000,67.600000,90.400000C67.100000,90.700000,66.800000,91,66.500000,91.500000L66.500000,99.700000L64.500000,99.700000L64.500000,83.700000L66.500000,83.700000L66.500000,90Z" fill="rgb(198,86,39)" stroke="none" stroke-width="1"/><path id="eneczjh0efrj124" d="M84.300000,99.600000C84.200000,99.300000,84.200000,99,84.100000,98.700000C84.100000,98.400000,84,98.200000,84,97.900000C83.600000,98.400000,83.100000,98.900000,82.500000,99.200000C81.900000,99.600000,81.200000,99.700000,80.500000,99.700000C79.500000,99.800000,78.600000,99.400000,77.900000,98.800000C77.300000,98.100000,76.900000,97.300000,77,96.400000C77,95.400000,77.500000,94.500000,78.300000,93.900000C79.300000,93.200000,80.600000,92.900000,81.800000,93L84,93L84,92C84,91.400000,83.800000,90.900000,83.400000,90.500000C82.900000,90.100000,82.300000,89.900000,81.700000,89.900000C81.100000,89.900000,80.600000,90,80.100000,90.400000C79.700000,90.700000,79.500000,91.100000,79.500000,91.600000L77.600000,91.600000L77.600000,91.500000C77.600000,90.600000,78,89.800000,78.800000,89.300000C79.700000,88.600000,80.800000,88.200000,81.900000,88.300000C83,88.300000,84.100000,88.600000,84.900000,89.300000C85.700000,90,86.100000,91,86.100000,92L86.100000,97.300000C86.100000,97.700000,86.100000,98.100000,86.200000,98.500000C86.200000,98.900000,86.300000,99.200000,86.400000,99.600000L84.300000,99.600000ZM81,98.100000C81.700000,98.100000,82.400000,97.900000,83,97.500000C83.500000,97.200000,83.900000,96.800000,84.200000,96.200000L84.200000,94.400000L81.900000,94.400000C81.200000,94.400000,80.500000,94.600000,79.900000,95C79.400000,95.300000,79.200000,95.900000,79.200000,96.400000C79.200000,96.800000,79.300000,97.300000,79.700000,97.600000C80,98,80.500000,98.200000,81,98.100000Z" fill="rgb(198,86,39)" stroke="none" stroke-width="1"/><path id="eneczjh0efrj125" d="M91.900000,88.500000L92,90.200000C92.300000,89.600000,92.800000,89.200000,93.400000,88.800000C94,88.500000,94.600000,88.300000,95.300000,88.300000C96.300000,88.200000,97.300000,88.600000,98.100000,89.300000C98.800000,90.200000,99.200000,91.400000,99.100000,92.500000L99.100000,99.500000L97.100000,99.500000L97.100000,92.500000C97.200000,91.800000,97,91,96.500000,90.400000C96,90,95.400000,89.700000,94.700000,89.800000C94.200000,89.800000,93.600000,89.900000,93.200000,90.200000C92.700000,90.500000,92.400000,90.900000,92.100000,91.400000L92.100000,99.600000L90.100000,99.600000L90.100000,88.500000L91.900000,88.500000Z" fill="rgb(198,86,39)" stroke="none" stroke-width="1"/><path id="eneczjh0efrj126" d="M106.400000,94.500000L105.100000,94.500000L105.100000,99.600000L103.100000,99.600000L103.100000,83.600000L105.100000,83.600000L105.100000,92.900000L106.400000,92.900000L109.400000,88.500000L111.800000,88.500000L108,93.500000L112.300000,99.600000L110,99.600000L106.400000,94.500000Z" fill="rgb(198,86,39)" stroke="none" stroke-width="1"/><path id="eneczjh0efrj127" d="M121.300000,96.700000C121.300000,96.300000,121.100000,95.900000,120.800000,95.600000C120.200000,95.200000,119.600000,95,118.900000,94.800000C117.800000,94.600000,116.800000,94.200000,115.900000,93.600000C115.200000,93.100000,114.900000,92.400000,114.900000,91.500000C114.900000,90.600000,115.300000,89.700000,116,89.200000C116.800000,88.500000,117.900000,88.200000,119,88.200000C120.100000,88.100000,121.200000,88.500000,122.100000,89.200000C122.800000,89.800000,123.200000,90.700000,123.200000,91.600000L123.200000,91.700000L121.300000,91.700000C121.300000,91.200000,121.100000,90.700000,120.700000,90.400000C120.300000,90,119.700000,89.800000,119.100000,89.800000C118.500000,89.800000,118,89.900000,117.500000,90.300000C117.200000,90.600000,117,91,117,91.400000C117,91.800000,117.200000,92.200000,117.500000,92.400000C118.100000,92.800000,118.700000,93,119.400000,93.100000C120.500000,93.300000,121.600000,93.700000,122.500000,94.300000C123.200000,94.800000,123.500000,95.600000,123.500000,96.400000C123.500000,97.300000,123.100000,98.200000,122.300000,98.800000C121.400000,99.400000,120.300000,99.800000,119.200000,99.700000C118,99.800000,116.800000,99.400000,115.900000,98.600000C115.100000,98,114.700000,97.100000,114.700000,96.100000L114.700000,96L116.600000,96C116.600000,96.600000,116.900000,97.200000,117.400000,97.600000C117.900000,97.900000,118.500000,98.100000,119.200000,98.100000C119.800000,98.100000,120.400000,98,120.900000,97.700000C121.100000,97.500000,121.300000,97.100000,121.300000,96.700000Z" fill="rgb(198,86,39)" stroke="none" stroke-width="1"/><path id="eneczjh0efrj128" d="M134,99.600000L134,90L132.300000,90L132.300000,88.500000L134,88.500000L134,87.100000C133.900000,86.100000,134.300000,85.100000,134.900000,84.400000C135.600000,83.700000,136.500000,83.300000,137.500000,83.400000C137.700000,83.400000,138,83.400000,138.200000,83.400000C138.400000,83.400000,138.700000,83.500000,139,83.600000L138.800000,85.100000L138.400000,85C138.200000,85,138,85,137.800000,85C137.300000,85,136.800000,85.200000,136.500000,85.500000C136.200000,85.900000,136,86.500000,136.100000,87L136.100000,88.400000L138.400000,88.400000L138.400000,90L136,90L136,99.600000L134,99.600000Z" fill="rgb(198,86,39)" stroke="none" stroke-width="1"/><path id="eneczjh0efrj129" d="M141,94C140.900000,92.500000,141.400000,91.100000,142.300000,89.900000C144.200000,87.900000,147.300000,87.800000,149.300000,89.600000C149.400000,89.700000,149.500000,89.800000,149.600000,89.900000C150.600000,91,151.100000,92.500000,151,94L151,94.200000C151.100000,95.700000,150.600000,97.100000,149.700000,98.300000C147.800000,100.300000,144.600000,100.400000,142.600000,98.500000C142.500000,98.400000,142.500000,98.400000,142.400000,98.300000C141.500000,97.200000,141,95.700000,141.100000,94.300000L141,94ZM143,94.200000C143,95.200000,143.200000,96.200000,143.700000,97.100000C144.600000,98.300000,146.200000,98.600000,147.400000,97.800000C147.700000,97.600000,147.900000,97.400000,148.100000,97.100000C148.600000,96.200000,148.900000,95.200000,148.900000,94.200000L148.900000,94C148.900000,93,148.700000,92,148.100000,91.100000C147.700000,90.300000,146.800000,89.900000,146,89.900000C145.100000,89.900000,144.300000,90.300000,143.800000,91.100000C143.300000,92,143,93,143.100000,94L143,94.200000Z" fill="rgb(198,86,39)" stroke="none" stroke-width="1"/><path id="eneczjh0efrj130" d="M159.700000,90.300000L158.700000,90.200000C158.200000,90.200000,157.700000,90.300000,157.300000,90.600000C156.900000,90.900000,156.600000,91.200000,156.400000,91.700000L156.400000,99.600000L154.400000,99.600000L154.400000,88.500000L156.200000,88.500000L156.400000,90.100000C156.700000,89.600000,157.100000,89.100000,157.600000,88.800000C158.100000,88.500000,158.600000,88.300000,159.200000,88.300000C159.300000,88.300000,159.500000,88.300000,159.600000,88.300000C159.700000,88.300000,159.800000,88.300000,159.900000,88.400000L159.700000,90.300000Z" fill="rgb(198,86,39)" stroke="none" stroke-width="1"/><path id="eneczjh0efrj131" d="M172.400000,95.500000L172.800000,96.900000L172.900000,96.900000L175.600000,88.500000L177.800000,88.500000L173.100000,101.300000C172.800000,102,172.400000,102.700000,171.900000,103.300000C171.300000,103.900000,170.600000,104.200000,169.800000,104.100000C169.600000,104.100000,169.400000,104.100000,169.200000,104C169,104,168.800000,103.900000,168.600000,103.900000L168.800000,102.300000L169.200000,102.300000L169.700000,102.300000C170.100000,102.300000,170.500000,102.100000,170.800000,101.700000C171.100000,101.300000,171.300000,100.900000,171.500000,100.400000L172,99.200000L167.900000,88.300000L170.200000,88.300000L172.400000,95.500000Z" fill="rgb(198,86,39)" stroke="none" stroke-width="1"/><path id="eneczjh0efrj132" d="M180,94C179.900000,92.500000,180.400000,91.100000,181.300000,89.900000C183.200000,87.900000,186.300000,87.800000,188.300000,89.600000C188.400000,89.700000,188.500000,89.800000,188.600000,89.900000C189.500000,91,190,92.500000,189.900000,94L189.900000,94.200000C190,95.700000,189.500000,97.100000,188.600000,98.300000C186.700000,100.300000,183.500000,100.400000,181.500000,98.500000C181.400000,98.400000,181.400000,98.400000,181.300000,98.300000C180.400000,97.200000,179.900000,95.700000,180,94.300000L180,94ZM182,94.200000C182,95.200000,182.200000,96.200000,182.700000,97.100000C183.600000,98.300000,185.200000,98.600000,186.400000,97.800000C186.700000,97.600000,186.900000,97.400000,187.100000,97.100000C187.600000,96.200000,187.900000,95.200000,187.900000,94.200000L187.900000,94C187.900000,93,187.700000,92,187.100000,91.100000C186.600000,90.300000,185.800000,89.900000,184.900000,89.900000C184,89.900000,183.200000,90.300000,182.700000,91.100000C182.200000,92,182,93,182,94L182,94.200000Z" fill="rgb(198,86,39)" stroke="none" stroke-width="1"/><path id="eneczjh0efrj133" d="M200.500000,98C200.200000,98.600000,199.700000,99,199.100000,99.400000C198.500000,99.700000,197.900000,99.900000,197.200000,99.900000C196.100000,100,195.100000,99.500000,194.400000,98.700000C193.600000,97.700000,193.300000,96.400000,193.400000,95.100000L193.400000,88.500000L195.400000,88.500000L195.400000,95.100000C195.300000,95.900000,195.500000,96.800000,195.900000,97.500000C196.300000,98,196.900000,98.200000,197.500000,98.200000C198.100000,98.200000,198.700000,98.100000,199.300000,97.800000C199.800000,97.500000,200.100000,97.100000,200.400000,96.600000L200.400000,88.600000L202.400000,88.600000L202.400000,99.700000L200.600000,99.700000L200.500000,98Z" fill="rgb(198,86,39)" stroke="none" stroke-width="1"/><path id="eneczjh0efrj134" d="M211.700000,90.300000L210.700000,90.200000C210.200000,90.200000,209.800000,90.300000,209.400000,90.600000C209,90.900000,208.700000,91.200000,208.500000,91.700000L208.500000,99.600000L206.500000,99.600000L206.500000,88.500000L208.300000,88.500000L208.500000,90.100000C208.800000,89.600000,209.200000,89.100000,209.700000,88.800000C210.200000,88.500000,210.700000,88.300000,211.300000,88.300000C211.400000,88.300000,211.600000,88.300000,211.700000,88.300000C211.800000,88.300000,211.900000,88.300000,212,88.400000L211.700000,90.300000Z" fill="rgb(198,86,39)" stroke="none" stroke-width="1"/><path id="eneczjh0efrj135" d="M222.700000,88.500000L222.800000,90C223.200000,89.500000,223.600000,89.100000,224.200000,88.800000C224.800000,88.500000,225.500000,88.300000,226.200000,88.400000C226.900000,88.400000,227.500000,88.600000,228.100000,88.900000C228.700000,89.300000,229.100000,89.800000,229.300000,90.400000C229.600000,89.800000,230.100000,89.300000,230.700000,88.900000C231.300000,88.500000,232,88.300000,232.700000,88.300000C233.700000,88.300000,234.700000,88.700000,235.400000,89.500000C236.100000,90.500000,236.500000,91.800000,236.400000,93L236.400000,99.600000L234.400000,99.600000L234.400000,92.900000C234.500000,92.100000,234.300000,91.300000,233.800000,90.600000C233.400000,90.100000,232.800000,89.900000,232.100000,89.900000C231.500000,89.900000,230.800000,90.100000,230.400000,90.600000C230,91.100000,229.700000,91.700000,229.600000,92.400000L229.600000,99.500000L227.600000,99.500000L227.600000,92.800000C227.700000,92,227.500000,91.200000,227,90.500000C226.600000,90,226,89.700000,225.300000,89.800000C224.800000,89.800000,224.200000,89.900000,223.800000,90.200000C223.400000,90.500000,223.100000,90.800000,222.900000,91.300000L222.900000,99.500000L220.900000,99.500000L220.900000,88.500000L222.700000,88.500000Z" fill="rgb(198,86,39)" stroke="none" stroke-width="1"/><path id="eneczjh0efrj136" d="M245,99.800000C243.600000,99.900000,242.200000,99.300000,241.300000,98.300000C240.400000,97.200000,239.900000,95.800000,239.900000,94.300000L239.900000,93.900000C239.900000,92.500000,240.400000,91,241.300000,90C242.100000,89,243.300000,88.400000,244.600000,88.400000C245.800000,88.300000,247.100000,88.800000,247.900000,89.700000C248.700000,90.700000,249.100000,92,249,93.300000L249,94.600000L242,94.600000L242,94.600000C242,95.500000,242.300000,96.500000,242.800000,97.200000C243.300000,97.900000,244.100000,98.200000,245,98.200000C245.600000,98.200000,246.200000,98.100000,246.800000,97.900000C247.300000,97.700000,247.700000,97.500000,248.100000,97.100000L248.900000,98.400000C248.400000,98.800000,247.900000,99.200000,247.300000,99.400000C246.600000,99.700000,245.800000,99.800000,245,99.800000ZM244.700000,89.900000C244,89.900000,243.400000,90.200000,243,90.700000C242.500000,91.300000,242.200000,92.100000,242.100000,92.800000L242.100000,92.900000L247.200000,92.900000L247.200000,92.600000C247.200000,91.900000,247,91.200000,246.600000,90.600000C246.100000,90.100000,245.400000,89.800000,244.700000,89.900000L244.700000,89.900000Z" fill="rgb(198,86,39)" stroke="none" stroke-width="1"/><path id="eneczjh0efrj137" d="M259,96.700000C259,96.300000,258.800000,95.900000,258.500000,95.600000C257.900000,95.200000,257.300000,95,256.600000,94.800000C255.500000,94.600000,254.500000,94.200000,253.600000,93.600000C252.900000,93.100000,252.600000,92.400000,252.600000,91.500000C252.600000,90.600000,253,89.700000,253.700000,89.200000C254.500000,88.500000,255.600000,88.200000,256.700000,88.200000C257.800000,88.100000,258.900000,88.500000,259.800000,89.200000C260.500000,89.800000,260.900000,90.700000,260.900000,91.600000L260.900000,91.700000L259,91.700000C259,91.200000,258.800000,90.700000,258.400000,90.400000C258,90,257.400000,89.800000,256.800000,89.800000C256.200000,89.800000,255.700000,89.900000,255.200000,90.300000C254.900000,90.600000,254.700000,91,254.700000,91.400000C254.700000,91.800000,254.900000,92.200000,255.200000,92.400000C255.800000,92.800000,256.400000,93,257.100000,93.100000C258.200000,93.300000,259.300000,93.700000,260.200000,94.300000C260.900000,94.800000,261.200000,95.600000,261.200000,96.400000C261.200000,97.300000,260.800000,98.200000,260,98.800000C259.100000,99.400000,258,99.800000,256.900000,99.700000C255.700000,99.800000,254.500000,99.400000,253.600000,98.600000C252.800000,98,252.400000,97.100000,252.400000,96.100000L252.400000,96L254.300000,96C254.300000,96.600000,254.600000,97.200000,255.100000,97.600000C255.600000,97.900000,256.200000,98.100000,256.900000,98.100000C257.500000,98.100000,258.100000,98,258.600000,97.700000C258.800000,97.500000,259,97.100000,259,96.700000Z" fill="rgb(198,86,39)" stroke="none" stroke-width="1"/><path id="eneczjh0efrj138" d="M271,96.700000C271,96.300000,270.800000,95.900000,270.500000,95.600000C269.900000,95.200000,269.300000,95,268.600000,94.800000C267.500000,94.600000,266.500000,94.200000,265.600000,93.600000C264.900000,93.100000,264.600000,92.400000,264.600000,91.500000C264.600000,90.600000,265,89.700000,265.700000,89.200000C267.500000,87.900000,270,87.900000,271.800000,89.200000C272.500000,89.800000,272.900000,90.700000,272.900000,91.600000L272.900000,91.700000L271,91.700000C271,91.200000,270.800000,90.700000,270.400000,90.400000C270,90,269.400000,89.800000,268.800000,89.800000C268.200000,89.800000,267.700000,89.900000,267.200000,90.300000C266.900000,90.600000,266.700000,91,266.700000,91.400000C266.700000,91.800000,266.900000,92.200000,267.200000,92.400000C267.800000,92.800000,268.400000,93,269.100000,93.100000C270.200000,93.300000,271.200000,93.800000,272.200000,94.400000C272.900000,94.900000,273.200000,95.700000,273.200000,96.500000C273.200000,97.400000,272.800000,98.300000,272,98.900000C271.100000,99.500000,270,99.900000,268.900000,99.800000C267.700000,99.900000,266.500000,99.500000,265.600000,98.700000C264.800000,98.100000,264.400000,97.200000,264.400000,96.200000L264.400000,96.100000L266.300000,96.100000C266.300000,96.700000,266.600000,97.300000,267.100000,97.700000C267.600000,98,268.200000,98.200000,268.900000,98.200000C269.500000,98.200000,270.100000,98.100000,270.600000,97.800000C270.700000,97.500000,271,97.100000,271,96.700000Z" fill="rgb(198,86,39)" stroke="none" stroke-width="1"/><path id="eneczjh0efrj139" d="M283.400000,99.600000C283.300000,99.300000,283.300000,99,283.200000,98.700000C283.200000,98.400000,283.100000,98.200000,283.100000,97.900000C282.700000,98.400000,282.200000,98.900000,281.600000,99.200000C281,99.500000,280.300000,99.700000,279.600000,99.700000C278.600000,99.800000,277.700000,99.500000,277,98.800000C276.400000,98.100000,276,97.300000,276.100000,96.400000C276.100000,95.400000,276.600000,94.500000,277.400000,93.900000C278.400000,93.200000,279.700000,92.900000,280.900000,93L283.100000,93L283.100000,92C283.100000,91.400000,282.900000,90.900000,282.500000,90.500000C282,90.100000,281.400000,89.900000,280.800000,89.900000C280.200000,89.900000,279.700000,90,279.200000,90.400000C278.800000,90.700000,278.600000,91.100000,278.600000,91.600000L276.700000,91.600000L276.700000,91.500000C276.700000,90.600000,277.100000,89.800000,277.800000,89.300000C278.700000,88.600000,279.800000,88.200000,280.900000,88.300000C282,88.300000,283.100000,88.600000,283.900000,89.300000C284.700000,90,285.100000,91,285.100000,92L285.100000,97.300000C285.100000,97.700000,285.100000,98.100000,285.200000,98.500000C285.200000,98.900000,285.300000,99.200000,285.400000,99.600000L283.400000,99.600000ZM280,98.100000C280.700000,98.100000,281.400000,97.900000,282,97.500000C282.500000,97.200000,282.900000,96.800000,283.100000,96.200000L283.100000,94.400000L280.800000,94.400000C280.100000,94.400000,279.400000,94.600000,278.800000,95C278.300000,95.300000,278.100000,95.900000,278.100000,96.400000C278.100000,96.800000,278.200000,97.300000,278.600000,97.600000C279,98,279.500000,98.200000,280,98.100000Z" fill="rgb(198,86,39)" stroke="none" stroke-width="1"/><path id="eneczjh0efrj140" d="M288.700000,94.300000C288.600000,92.800000,289,91.300000,289.900000,90C290.600000,88.900000,291.800000,88.300000,293.100000,88.400000C293.700000,88.400000,294.400000,88.500000,295,88.800000C295.500000,89.100000,296,89.500000,296.300000,90.100000L296.500000,88.700000L298.100000,88.700000L298.100000,99.800000C298.200000,101,297.700000,102.200000,296.900000,103.100000C295.900000,103.900000,294.600000,104.300000,293.300000,104.200000C292.700000,104.200000,292.100000,104.100000,291.600000,104C291,103.900000,290.500000,103.700000,290,103.400000L290.500000,101.800000C290.900000,102,291.400000,102.200000,291.800000,102.300000C292.300000,102.400000,292.800000,102.500000,293.300000,102.500000C294.100000,102.600000,294.800000,102.300000,295.400000,101.800000C295.900000,101.200000,296.100000,100.500000,296.100000,99.800000L296.100000,98.500000C295.700000,98.900000,295.300000,99.300000,294.800000,99.500000C294.200000,99.700000,293.700000,99.900000,293,99.800000C291.800000,99.900000,290.600000,99.300000,289.800000,98.300000C289,97.200000,288.600000,95.800000,288.600000,94.400000L288.600000,94.300000ZM290.700000,94.500000C290.700000,95.400000,290.900000,96.400000,291.400000,97.200000C291.900000,97.900000,292.700000,98.300000,293.600000,98.200000C294.100000,98.200000,294.700000,98.100000,295.100000,97.800000C295.500000,97.500000,295.900000,97.100000,296.100000,96.600000L296.100000,91.500000C295.900000,91,295.500000,90.700000,295.100000,90.400000C294.700000,90.100000,294.100000,90,293.600000,90C292.700000,90,291.900000,90.400000,291.400000,91.200000C290.900000,92.200000,290.600000,93.200000,290.700000,94.300000L290.700000,94.500000Z" fill="rgb(198,86,39)" stroke="none" stroke-width="1"/><path id="eneczjh0efrj141" d="M306.800000,99.800000C305.400000,99.900000,304,99.300000,303.100000,98.300000C302.200000,97.200000,301.700000,95.800000,301.700000,94.300000L301.700000,93.900000C301.700000,92.500000,302.200000,91,303.100000,90C303.900000,89,305.100000,88.400000,306.400000,88.400000C307.700000,88.300000,308.900000,88.800000,309.800000,89.700000C310.600000,90.700000,311,92,311,93.300000L311,94.600000L303.800000,94.600000L303.800000,94.600000C303.800000,95.500000,304.100000,96.500000,304.600000,97.200000C305.100000,97.900000,305.900000,98.200000,306.800000,98.200000C307.400000,98.200000,308,98.100000,308.600000,97.900000C309.100000,97.700000,309.600000,97.500000,309.900000,97.100000L310.700000,98.400000C310.200000,98.800000,309.700000,99.200000,309.100000,99.400000C308.400000,99.700000,307.600000,99.800000,306.800000,99.800000ZM306.400000,89.900000C305.700000,89.900000,305.100000,90.200000,304.700000,90.700000C304.200000,91.300000,303.900000,92.100000,303.800000,92.800000L303.800000,92.900000L309,92.900000L309,92.600000C309,91.900000,308.800000,91.200000,308.400000,90.600000C307.900000,90.100000,307.200000,89.800000,306.400000,89.900000Z" fill="rgb(198,86,39)" stroke="none" stroke-width="1"/><path id="eneczjh0efrj142" d="M316.600000,94.700000L314.600000,94.700000L314.600000,84.700000L316.600000,84.700000L316.600000,94.700000ZM316.600000,99.600000L314.600000,99.600000L314.600000,97.500000L316.600000,97.500000L316.600000,99.600000Z" fill="rgb(198,86,39)" stroke="none" stroke-width="1"/><path id="eneczjh0efrj143" d="M40.200000,146.500000L44.400000,146.500000L33.900000,176.400000L30.300000,176.400000L22.200000,153.300000L14.100000,176.400000L10.500000,176.400000L0,146.500000L4.400000,146.500000L12.400000,170.300000L20.700000,146.500000L23.900000,146.500000L32,170.400000L40.200000,146.500000Z" fill="rgb(51,51,51)" stroke="none" stroke-width="1"/><path id="eneczjh0efrj144" d="M66.500000,165.900000L51.400000,165.900000C51.500000,170.900000,53.800000,173.300000,58.200000,173.300000C60.600000,173.300000,63,172.500000,64.900000,170.900000L66.200000,173.900000C65.100000,174.800000,63.900000,175.500000,62.600000,175.900000C61.200000,176.400000,59.700000,176.600000,58.200000,176.600000C52.700000,177.100000,47.800000,173,47.300000,167.400000C47.200000,166.800000,47.300000,166.200000,47.300000,165.600000C47.300000,163.600000,47.700000,161.600000,48.600000,159.900000C49.400000,158.300000,50.600000,156.900000,52.100000,156C53.700000,155.100000,55.500000,154.600000,57.300000,154.600000C59.900000,154.500000,62.300000,155.500000,64.100000,157.400000C65.700000,159.200000,66.600000,161.800000,66.600000,165.100000L66.500000,165.900000ZM53.500000,159.300000C52.400000,160.400000,51.700000,161.800000,51.600000,163.400000L62.800000,163.400000C62.700000,161.900000,62.200000,160.400000,61.200000,159.300000C60.200000,158.300000,58.800000,157.800000,57.500000,157.900000C55.900000,157.800000,54.500000,158.300000,53.500000,159.300000L53.500000,159.300000Z" fill="rgb(51,51,51)" stroke="none" stroke-width="1"/><path id="eneczjh0efrj145" d="M76.700000,146.500000L76.700000,149.900000C76.700000,151.100000,76.500000,152.300000,76,153.500000C75.500000,154.700000,74.700000,155.800000,73.700000,156.700000L71.900000,155.300000C72.900000,154.300000,73.600000,153,73.900000,151.600000L71.600000,151.600000L71.600000,146.600000L76.700000,146.500000Z" fill="rgb(51,51,51)" stroke="none" stroke-width="1"/><path id="eneczjh0efrj146" d="M84.500000,176.400000L84.500000,145.500000L88.700000,145.500000L88.700000,176.400000L84.500000,176.400000Z" fill="rgb(51,51,51)" stroke="none" stroke-width="1"/><path id="eneczjh0efrj147" d="M97,176.400000L97,145.500000L101.200000,145.500000L101.200000,176.400000L97,176.400000Z" fill="rgb(51,51,51)" stroke="none" stroke-width="1"/><path id="eneczjh0efrj148" d="M138.900000,156.100000C140.400000,157,141.500000,158.400000,142.200000,159.900000C143.800000,163.600000,143.800000,167.800000,142.200000,171.400000C141.500000,173,140.300000,174.300000,138.900000,175.300000C137.400000,176.200000,135.800000,176.700000,134,176.700000C132.500000,176.700000,131,176.400000,129.700000,175.700000C128.500000,175,127.500000,174,126.900000,172.700000L126.900000,176.400000L122.700000,176.400000L122.700000,145.500000L126.900000,145.500000L126.900000,158.700000C127.500000,157.500000,128.500000,156.400000,129.700000,155.800000C131,155.100000,132.500000,154.700000,134,154.700000C135.700000,154.700000,137.500000,155.200000,138.900000,156.100000ZM137.500000,171.300000C138.600000,169.600000,139.200000,167.700000,139.100000,165.700000C139.200000,163.700000,138.700000,161.800000,137.500000,160.100000C135.300000,157.600000,131.500000,157.400000,129,159.600000C128.800000,159.700000,128.700000,159.900000,128.500000,160.100000C126.400000,163.600000,126.400000,167.900000,128.500000,171.400000C130.700000,173.900000,134.500000,174,137,171.800000C137.200000,171.600000,137.400000,171.500000,137.500000,171.300000L137.500000,171.300000Z" fill="rgb(51,51,51)" stroke="none" stroke-width="1"/><path id="eneczjh0efrj149" d="M168.500000,165.900000L153.400000,165.900000C153.500000,170.900000,155.800000,173.300000,160.200000,173.300000C162.600000,173.300000,165,172.500000,166.900000,170.900000L168.200000,173.900000C167.100000,174.800000,165.900000,175.500000,164.600000,175.900000C163.200000,176.400000,161.700000,176.600000,160.200000,176.600000C157.200000,176.800000,154.300000,175.700000,152.200000,173.700000C150.200000,171.500000,149.100000,168.700000,149.300000,165.700000C149.300000,163.700000,149.700000,161.700000,150.600000,160C151.400000,158.400000,152.700000,157,154.200000,156.100000C155.800000,155.200000,157.600000,154.700000,159.400000,154.700000C161.900000,154.600000,164.400000,155.600000,166.100000,157.500000C167.700000,159.300000,168.500000,161.900000,168.500000,165.200000L168.500000,165.900000ZM155.500000,159.300000C154.400000,160.400000,153.700000,161.800000,153.600000,163.400000L164.800000,163.400000C164.700000,161.900000,164.200000,160.400000,163.200000,159.300000C162.200000,158.300000,160.800000,157.800000,159.500000,157.900000C158,157.800000,156.600000,158.300000,155.500000,159.300000L155.500000,159.300000Z" fill="rgb(51,51,51)" stroke="none" stroke-width="1"/><path id="eneczjh0efrj150" d="M188.400000,146L193.300000,146L193.300000,150.400000L188.400000,150.400000L188.400000,146ZM188.800000,176.400000L188.800000,155.200000L193,155.200000L193,176.400000L188.800000,176.400000Z" fill="rgb(51,51,51)" stroke="none" stroke-width="1"/><path id="eneczjh0efrj151" d="M220.200000,163.200000L220.200000,176.400000L216,176.400000L216,163.500000C216.100000,162.100000,215.700000,160.700000,214.900000,159.500000C214,158.600000,212.800000,158.100000,211.500000,158.200000C209.900000,158.100000,208.300000,158.700000,207.200000,159.900000C206.100000,161.100000,205.500000,162.700000,205.600000,164.400000L205.600000,176.400000L201.400000,176.400000L201.400000,161.200000C201.400000,159.200000,201.300000,157.200000,201.100000,155.200000L205.100000,155.200000L205.500000,158.800000C206.100000,157.500000,207.200000,156.400000,208.400000,155.700000C209.700000,155,211.200000,154.600000,212.800000,154.600000C217.700000,154.700000,220.200000,157.600000,220.200000,163.200000Z" fill="rgb(51,51,51)" stroke="none" stroke-width="1"/><path id="eneczjh0efrj152" d="M247.200000,158.500000L247.200000,169.100000C247.100000,170.200000,247.400000,171.300000,248.100000,172.200000C248.800000,172.800000,249.800000,173.200000,250.700000,173.100000C251.500000,173.100000,252.200000,173,252.900000,172.800000L252.900000,176.200000C251.900000,176.500000,250.800000,176.700000,249.800000,176.700000C247.900000,176.800000,246.100000,176.200000,244.700000,174.900000C243.400000,173.400000,242.800000,171.500000,242.900000,169.500000L242.900000,158.500000L238.800000,158.500000L238.800000,155.200000L242.900000,155.200000L242.900000,149.900000L247.100000,148.400000L247.100000,155.200000L252.900000,155.200000L252.900000,158.500000L247.200000,158.500000Z" fill="rgb(51,51,51)" stroke="none" stroke-width="1"/><path id="eneczjh0efrj153" d="M262.700000,175.400000C261.100000,174.500000,259.900000,173.200000,259.100000,171.600000C257.400000,167.900000,257.400000,163.700000,259.100000,160C259.900000,158.400000,261.200000,157.100000,262.700000,156.200000C266.100000,154.400000,270.200000,154.400000,273.600000,156.200000C275.200000,157.100000,276.400000,158.400000,277.200000,160C278.900000,163.700000,278.900000,167.900000,277.200000,171.600000C276.400000,173.200000,275.100000,174.500000,273.600000,175.400000C270.100000,177.100000,266.100000,177.100000,262.700000,175.400000ZM272.600000,171.400000C273.700000,169.700000,274.300000,167.700000,274.100000,165.700000C274.200000,163.700000,273.700000,161.700000,272.500000,160.100000C271.400000,158.800000,269.800000,158,268.100000,158.100000C266.400000,158,264.700000,158.800000,263.600000,160.100000C262.400000,161.700000,261.900000,163.700000,262,165.700000C261.900000,167.700000,262.400000,169.700000,263.600000,171.400000C265.900000,173.900000,269.900000,174,272.300000,171.700000C272.400000,171.600000,272.500000,171.500000,272.600000,171.400000L272.600000,171.400000Z" fill="rgb(51,51,51)" stroke="none" stroke-width="1"/><path id="eneczjh0efrj154" d="M303.900000,155.200000L303.900000,176.400000L299.800000,176.400000L299.800000,172.900000C299.200000,174.100000,298.200000,175.100000,297,175.700000C295.800000,176.400000,294.400000,176.700000,293,176.700000C287.900000,176.700000,285.400000,173.900000,285.400000,168.200000L285.400000,155.200000L289.600000,155.200000L289.600000,168.100000C289.500000,169.500000,289.900000,170.800000,290.700000,171.900000C291.500000,172.800000,292.700000,173.200000,293.900000,173.100000C295.500000,173.200000,297,172.600000,298.100000,171.400000C299.200000,170.200000,299.800000,168.600000,299.700000,167L299.700000,155.100000L303.900000,155.100000Z" fill="rgb(51,51,51)" stroke="none" stroke-width="1"/><path id="eneczjh0efrj155" d="M315.900000,175.400000C314.300000,174.500000,313.100000,173.200000,312.300000,171.600000C311.400000,169.800000,311,167.800000,311,165.900000C311,163.900000,311.400000,161.900000,312.300000,160.100000C313.100000,158.500000,314.400000,157.100000,316,156.200000C317.700000,155.300000,319.600000,154.800000,321.600000,154.800000C323.100000,154.800000,324.500000,155,325.900000,155.500000C327.100000,155.900000,328.300000,156.600000,329.200000,157.500000L327.900000,160.600000C326.200000,159.200000,324.100000,158.300000,321.900000,158.200000C320.100000,158.100000,318.300000,158.800000,317.100000,160.200000C315.900000,161.800000,315.200000,163.800000,315.400000,165.800000C315.300000,167.800000,315.900000,169.800000,317.100000,171.400000C318.300000,172.700000,320.100000,173.500000,321.900000,173.300000C324.100000,173.200000,326.200000,172.400000,327.900000,170.900000L329.200000,174C328.200000,174.900000,327,175.600000,325.800000,176C324.400000,176.500000,322.900000,176.700000,321.400000,176.700000C319.500000,176.800000,317.600000,176.300000,315.900000,175.400000Z" fill="rgb(51,51,51)" stroke="none" stroke-width="1"/><path id="eneczjh0efrj156" d="M354.100000,163.200000L354.100000,176.400000L349.900000,176.400000L349.900000,163.500000C350,162.100000,349.600000,160.700000,348.800000,159.500000C347.900000,158.600000,346.600000,158.100000,345.400000,158.200000C343.800000,158.100000,342.200000,158.700000,341.100000,159.900000C340,161.100000,339.400000,162.700000,339.500000,164.400000L339.500000,176.400000L335.300000,176.400000L335.300000,145.500000L339.500000,145.500000L339.500000,158.500000C340.200000,157.300000,341.200000,156.300000,342.400000,155.700000C343.700000,155,345.100000,154.700000,346.600000,154.700000C351.600000,154.700000,354.100000,157.600000,354.100000,163.200000Z" fill="rgb(51,51,51)" stroke="none" stroke-width="1"/><path id="eneczjh0efrj157" d="M361.700000,171.400000L366.700000,171.400000L366.700000,176.400000L361.700000,176.400000L361.700000,171.400000Z" fill="rgb(51,51,51)" stroke="none" stroke-width="1"/></g></g></g></svg>