<svg id="el_LQrSiEmsS" data-name="Layer 1" xmlns="http://www.w3.org/2000/svg" viewBox="0 0 288 230"><style>@-webkit-keyframes el_x5dTkCBVPTj_Animation{0%{opacity: 0;}100%{opacity: 0;}}@keyframes el_x5dTkCBVPTj_Animation{0%{opacity: 0;}100%{opacity: 0;}}@-webkit-keyframes el_9dSDAHKEnKT_Animation{0%{opacity: 0;}100%{opacity: 0;}}@keyframes el_9dSDAHKEnKT_Animation{0%{opacity: 0;}100%{opacity: 0;}}@-webkit-keyframes el_up__TmT1Vk5_Animation{0%{opacity: 0;}51.11%{opacity: 0;}52.22%{opacity: 1;}60%{opacity: 0;}66.67%{opacity: 1;}72.22%{opacity: 0;}84.44%{opacity: 1;}100%{opacity: 1;}}@keyframes el_up__TmT1Vk5_Animation{0%{opacity: 0;}51.11%{opacity: 0;}52.22%{opacity: 1;}60%{opacity: 0;}66.67%{opacity: 1;}72.22%{opacity: 0;}84.44%{opacity: 1;}100%{opacity: 1;}}@-webkit-keyframes el_6ry7Q5VTYh4_Animation{0%{opacity: 0;}51.11%{opacity: 0;}52.22%{opacity: 1;}58.89%{opacity: 0;}65.56%{opacity: 1;}77.78%{opacity: 0;}88.89%{opacity: 1;}100%{opacity: 1;}}@keyframes el_6ry7Q5VTYh4_Animation{0%{opacity: 0;}51.11%{opacity: 0;}52.22%{opacity: 1;}58.89%{opacity: 0;}65.56%{opacity: 1;}77.78%{opacity: 0;}88.89%{opacity: 1;}100%{opacity: 1;}}@-webkit-keyframes el_iIYws-Wlqiw_Animation{0%{opacity: 0;}51.11%{opacity: 0;}52.22%{opacity: 1;}57.78%{opacity: 0;}64.44%{opacity: 1;}73.33%{opacity: 0;}81.11%{opacity: 1;}91.11%{opacity: 0;}100%{opacity: 0;}}@keyframes el_iIYws-Wlqiw_Animation{0%{opacity: 0;}51.11%{opacity: 0;}52.22%{opacity: 1;}57.78%{opacity: 0;}64.44%{opacity: 1;}73.33%{opacity: 0;}81.11%{opacity: 1;}91.11%{opacity: 0;}100%{opacity: 0;}}@-webkit-keyframes el_4mofJf409sv_Animation{0%{opacity: 0;}51.11%{opacity: 0;}52.22%{opacity: 1;}58.89%{opacity: 1;}68.89%{opacity: 0;}84.44%{opacity: 1;}100%{opacity: 0;}}@keyframes el_4mofJf409sv_Animation{0%{opacity: 0;}51.11%{opacity: 0;}52.22%{opacity: 1;}58.89%{opacity: 1;}68.89%{opacity: 0;}84.44%{opacity: 1;}100%{opacity: 0;}}@-webkit-keyframes el_C3UKuT9Vjml_Animation{0%{opacity: 0;}23.33%{opacity: 0;}24.44%{opacity: 1;}100%{opacity: 1;}}@keyframes el_C3UKuT9Vjml_Animation{0%{opacity: 0;}23.33%{opacity: 0;}24.44%{opacity: 1;}100%{opacity: 1;}}@-webkit-keyframes el_C3UKuT9Vjml_eDS_hT8tT_Animation{0%{-webkit-transform: translate(231.91000366210938px, 152.89915466308594px) translate(-231.91000366210938px, -152.89915466308594px) translate(-100px, 0px);transform: translate(231.91000366210938px, 152.89915466308594px) translate(-231.91000366210938px, -152.89915466308594px) translate(-100px, 0px);}50%{-webkit-transform: translate(231.91000366210938px, 152.89915466308594px) translate(-231.91000366210938px, -152.89915466308594px) translate(-10px, 0px);transform: translate(231.91000366210938px, 152.89915466308594px) translate(-231.91000366210938px, -152.89915466308594px) translate(-10px, 0px);}100%{-webkit-transform: translate(231.91000366210938px, 152.89915466308594px) translate(-231.91000366210938px, -152.89915466308594px) translate(-10px, 0px);transform: translate(231.91000366210938px, 152.89915466308594px) translate(-231.91000366210938px, -152.89915466308594px) translate(-10px, 0px);}}@keyframes el_C3UKuT9Vjml_eDS_hT8tT_Animation{0%{-webkit-transform: translate(231.91000366210938px, 152.89915466308594px) translate(-231.91000366210938px, -152.89915466308594px) translate(-100px, 0px);transform: translate(231.91000366210938px, 152.89915466308594px) translate(-231.91000366210938px, -152.89915466308594px) translate(-100px, 0px);}50%{-webkit-transform: translate(231.91000366210938px, 152.89915466308594px) translate(-231.91000366210938px, -152.89915466308594px) translate(-10px, 0px);transform: translate(231.91000366210938px, 152.89915466308594px) translate(-231.91000366210938px, -152.89915466308594px) translate(-10px, 0px);}100%{-webkit-transform: translate(231.91000366210938px, 152.89915466308594px) translate(-231.91000366210938px, -152.89915466308594px) translate(-10px, 0px);transform: translate(231.91000366210938px, 152.89915466308594px) translate(-231.91000366210938px, -152.89915466308594px) translate(-10px, 0px);}}#el_LQrSiEmsS *{-webkit-animation-duration: 3s;animation-duration: 3s;-webkit-animation-iteration-count: infinite;animation-iteration-count: infinite;-webkit-animation-timing-function: cubic-bezier(0, 0, 1, 1);animation-timing-function: cubic-bezier(0, 0, 1, 1);}#el_bt3kFgx8yM{fill: #9fb4ba;opacity: 0.8;}#el_dngOFC-zAo{fill: #cdd4d5;}#el_lJKWkvw3Fj{fill: #cdd4d5;}#el_bHMHT-Gdld{fill: #cdd4d5;}#el_opLxED4_5v{fill: #cdd4d5;}#el_p6bkF9x2cK{fill: #cdd4d5;}#el_2FBLig0USB{fill: #9fb4ba;opacity: 0.8;}#el_EdgELDTx0P{opacity: 0.8;fill: #6c9098;-webkit-transform: translate(-39.5px, 319.54px) rotate(-90deg);transform: translate(-39.5px, 319.54px) rotate(-90deg);}#el_FWwXaPXcD3{fill: #cdd4d5;}#el_8rnbmWIzo5{fill: #e6eaea;-webkit-transform: translate(-5.3px, -1.38px);transform: translate(-5.3px, -1.38px);}#el_WSKCK0DmdU{fill: #6c9098;opacity: 0.5;-webkit-transform: translate(-5.3px, -1.38px);transform: translate(-5.3px, -1.38px);}#el_j_ncGlS89g{fill: #4acfd9;-webkit-transform: translate(-5.3px, -1.38px);transform: translate(-5.3px, -1.38px);}#el_KIiuu8MAhl{fill: #0295aa;-webkit-transform: translate(-5.3px, -1.38px);transform: translate(-5.3px, -1.38px);}#el_aH_9LjfKPit{fill: #f0662e;-webkit-transform: translate(-5.3px, -1.38px);transform: translate(-5.3px, -1.38px);}#el_Dl8BtP9nJT_{fill: #365558;-webkit-transform: translate(-5.3px, -1.38px);transform: translate(-5.3px, -1.38px);}#el_6rY117nJsjM{fill: #687f82;-webkit-transform: translate(-5.3px, -1.38px);transform: translate(-5.3px, -1.38px);}#el_G5gTPl1r7LD{fill: #fff;-webkit-transform: translate(-5.3px, -1.38px);transform: translate(-5.3px, -1.38px);}#el_YWLvEqDmsC2{fill: #ffea52;-webkit-transform: translate(-5.3px, -1.38px);transform: translate(-5.3px, -1.38px);}#el_8Z8dey3f8KV{fill: #ffea52;-webkit-transform: translate(-5.3px, -1.38px);transform: translate(-5.3px, -1.38px);}#el_1j_-gP7F61r{fill: #ffea52;-webkit-transform: translate(-5.3px, -1.38px);transform: translate(-5.3px, -1.38px);}#el_qW2lHryFD0C{fill: #ffea52;-webkit-transform: translate(-5.3px, -1.38px);transform: translate(-5.3px, -1.38px);}#el_D7tsTjBffWA{fill: #fd6a33;-webkit-transform: translate(-5.3px, -1.38px);transform: translate(-5.3px, -1.38px);}#el_MlYyw7Ol7gc{fill: #f0353d;-webkit-transform: translate(-5.3px, -1.38px);transform: translate(-5.3px, -1.38px);}#el_LOgl-WEj01_{fill: #ffea52;-webkit-transform: translate(-5.3px, -1.38px);transform: translate(-5.3px, -1.38px);}#el_n5fiMhKuOMD{fill: #ffea52;-webkit-transform: translate(-5.3px, -1.38px);transform: translate(-5.3px, -1.38px);}#el_C3UKuT9Vjml_eDS_hT8tT{-webkit-animation-name: el_C3UKuT9Vjml_eDS_hT8tT_Animation;animation-name: el_C3UKuT9Vjml_eDS_hT8tT_Animation;-webkit-animation-timing-function: cubic-bezier(0, 0, 0.58, 1);animation-timing-function: cubic-bezier(0, 0, 0.58, 1);-webkit-transform: translate(231.91000366210938px, 152.89915466308594px) translate(-231.91000366210938px, -152.89915466308594px) translate(-100px, 0px);transform: translate(231.91000366210938px, 152.89915466308594px) translate(-231.91000366210938px, -152.89915466308594px) translate(-100px, 0px);}#el_C3UKuT9Vjml{opacity: 0;-webkit-animation-name: el_C3UKuT9Vjml_Animation;animation-name: el_C3UKuT9Vjml_Animation;}#el_4mofJf409sv{-webkit-animation-name: el_4mofJf409sv_Animation;animation-name: el_4mofJf409sv_Animation;opacity: 0;-webkit-animation-timing-function: cubic-bezier(0.42, 0, 0.58, 1);animation-timing-function: cubic-bezier(0.42, 0, 0.58, 1);}#el_iIYws-Wlqiw{-webkit-animation-name: el_iIYws-Wlqiw_Animation;animation-name: el_iIYws-Wlqiw_Animation;opacity: 0;-webkit-animation-timing-function: cubic-bezier(0.42, 0, 0.58, 1);animation-timing-function: cubic-bezier(0.42, 0, 0.58, 1);}#el_6ry7Q5VTYh4{-webkit-animation-name: el_6ry7Q5VTYh4_Animation;animation-name: el_6ry7Q5VTYh4_Animation;opacity: 0;-webkit-animation-timing-function: cubic-bezier(0.42, 0, 0.58, 1);animation-timing-function: cubic-bezier(0.42, 0, 0.58, 1);}#el_up__TmT1Vk5{-webkit-animation-name: el_up__TmT1Vk5_Animation;animation-name: el_up__TmT1Vk5_Animation;opacity: 0;}#el_9dSDAHKEnKT{-webkit-animation-name: el_9dSDAHKEnKT_Animation;animation-name: el_9dSDAHKEnKT_Animation;opacity: 0;}#el_x5dTkCBVPTj{-webkit-animation-name: el_x5dTkCBVPTj_Animation;animation-name: el_x5dTkCBVPTj_Animation;opacity: 0;}</style><defs/><title>vision</title><g id="el_Z2VEpCBPoz"><rect x="33.96" width="63.92" height="137.45" id="el_bt3kFgx8yM"/><rect x="28.34" y="95.22" width="75.15" height="12.36" rx="6.18" ry="6.18" id="el_dngOFC-zAo"/><rect x="28.34" y="66.38" width="75.15" height="12.36" rx="6.18" ry="6.18" id="el_lJKWkvw3Fj"/><rect x="28.34" y="37.55" width="75.15" height="12.36" rx="6.18" ry="6.18" id="el_bHMHT-Gdld"/><rect x="28.34" y="8.72" width="75.15" height="12.36" rx="6.18" ry="6.18" id="el_opLxED4_5v"/></g><g id="el_PhD24E94tV"><polygon points="192.6 124.93 161.75 144.22 161.75 176.57 192.6 176.57 192.6 124.93" id="el_p6bkF9x2cK"/><polygon points="192.6 228.08 161.75 208.78 161.75 176.43 192.6 176.43 192.6 228.08" id="el_2FBLig0USB"/><rect x="111.4" y="153.87" width="63.92" height="47.37" id="el_EdgELDTx0P"/><rect y="122" width="130.03" height="107.34" rx="12" ry="12" id="el_FWwXaPXcD3"/><path d="M71.53,135.44a41.73,41.73,0,1,0,41.72,41.73A41.77,41.77,0,0,0,71.53,135.44Z" id="el_8rnbmWIzo5"/><path d="M29.81,177.17a41.77,41.77,0,0,0,41.72,41.72V135.44A41.77,41.77,0,0,0,29.81,177.17Z" id="el_WSKCK0DmdU"/><path d="M71.53,146.1a31.07,31.07,0,1,0,31.06,31.07A31.1,31.1,0,0,0,71.53,146.1Zm0,50a19,19,0,1,1,19-19A19,19,0,0,1,71.53,196.13Z" id="el_j_ncGlS89g"/><path d="M52.56,177.17a19,19,0,0,1,19-19V146.1a31.07,31.07,0,0,0,0,62.13v-12.1A19,19,0,0,1,52.56,177.17Z" id="el_KIiuu8MAhl"/><path d="M40.47,177.17v1.53H52.56v-1.53a19,19,0,0,1,19-19V146.1A31.1,31.1,0,0,0,40.47,177.17Z" id="el_aH_9LjfKPit"/><path d="M71.53,178.7a1.55,1.55,0,0,1-1.09-.45l-18-18A1.53,1.53,0,1,1,54.57,158l18.05,18a1.54,1.54,0,0,1-1.09,2.62Z" id="el_Dl8BtP9nJT_"/><path d="M71.53,166.61a10.56,10.56,0,1,0,10.56,10.56A10.57,10.57,0,0,0,71.53,166.61Z" id="el_6rY117nJsjM"/><path d="M76.45,178.7a1.53,1.53,0,0,1-1.54-1.53,3.38,3.38,0,0,0-3.38-3.39,1.54,1.54,0,1,1,0-3.07A6.47,6.47,0,0,1,78,177.17,1.53,1.53,0,0,1,76.45,178.7Z" id="el_G5gTPl1r7LD"/></g><g id="el_9dSDAHKEnKT"><path d="M230.14,218.11c-.59,5.3-3.53,8.23-8.82,8.82q7.94.88,8.82,8.82.88-7.94,8.82-8.82C233.67,226.34,230.73,223.41,230.14,218.11Z" id="el_YWLvEqDmsC2"/></g><g id="el_x5dTkCBVPTj"><path d="M216.91,105.54q-1.32,11.89-13.23,13.23,11.91,1.32,13.23,13.22,1.32-11.9,13.23-13.22Q218.23,117.44,216.91,105.54Z" id="el_8Z8dey3f8KV"/></g><g id="el_up__TmT1Vk5"><path d="M269.71,127.8q-.76,6.87-7.65,7.64,6.88.76,7.65,7.65.77-6.89,7.65-7.65Q270.47,134.68,269.71,127.8Z" id="el_1j_-gP7F61r"/></g><g id="el_6ry7Q5VTYh4"><path d="M219.61,192.16q-.77,6.89-7.65,7.65,6.89.76,7.65,7.65.76-6.89,7.65-7.65Q220.38,199,219.61,192.16Z" id="el_qW2lHryFD0C"/></g><g id="el_C3UKuT9Vjml_eDS_hT8tT" data-animator-group="true" data-animator-type="0"><g id="el_C3UKuT9Vjml"><path d="M280.21,155.65c-3.33-1.78-9.12-2.64-18.15,2.8-9-5.44-14.82-4.58-18.15-2.8-4.32,2.31-6.7,7.26-6.7,13.94,0,12.49,20.53,27.86,22.87,29.57a3.36,3.36,0,0,0,4,0c2.34-1.71,22.86-17.08,22.86-29.57C286.91,162.91,284.53,158,280.21,155.65Z" id="el_D7tsTjBffWA"/><path d="M243.91,155.65c-4.32,2.31-6.7,7.26-6.7,13.94,0,12.49,20.53,27.86,22.87,29.57a3.39,3.39,0,0,0,1.54.62v-41.6C252.85,153,247.19,153.9,243.91,155.65Z" id="el_MlYyw7Ol7gc"/></g></g><g id="el_iIYws-Wlqiw"><path d="M281.55,174.6q-1.24,11.21-12.45,12.45,11.2,1.26,12.45,12.45,1.24-11.2,12.45-12.45Q282.79,185.81,281.55,174.6Z" id="el_LOgl-WEj01_"/></g><g id="el_4mofJf409sv"><path d="M239,154.76q-.77,6.88-7.65,7.64c4.59.52,7.14,3.06,7.65,7.65.51-4.59,3.06-7.13,7.64-7.65Q239.73,161.64,239,154.76Z" id="el_n5fiMhKuOMD"/></g></svg>