<svg id="Layer_1" data-name="Layer 1" xmlns="http://www.w3.org/2000/svg" viewBox="0 0 1200 700"><defs><style>.cls-1{opacity:0.2;}.cls-2{fill:#9fb4ba;}.cls-3{fill:#6c9098;}.cls-4{fill:#ebf1f7;}.cls-5{fill:#dae3e5;}</style></defs><title>background image-desktop</title><g class="cls-1"><path class="cls-2" d="M1199.73,131.45c-.07-1.76-.09-2.71-.09-2.71l20-.36h0c0,.09,0,.88.07,2.29Z"/><path class="cls-2" d="M1321.08,325.85c-.8,0-1.52,0-2.23,0l.43-20c.58,0,1.18,0,1.77,0,1,0,1.85,0,2.72,0l.59,20C1323.27,325.84,1322.18,325.87,1321.08,325.85Zm-7.79-.29c-1.86-.15-3.73-.35-5.55-.6l2.72-19.82c1.44.2,2.92.36,4.39.48Zm16.57-.06-1.63-19.93c1.49-.13,3-.29,4.42-.49l2.72,19.82C1333.56,325.15,1331.71,325.35,1329.86,325.5ZM1302.21,324c-1.84-.37-3.68-.8-5.48-1.28l5.17-19.32c1.39.37,2.82.71,4.25,1Zm38.66,0L1337,304.36c1.44-.29,2.88-.61,4.27-1l5.06,19.35C1344.54,323.2,1342.71,323.62,1340.87,324Zm10.85-2.84-6.26-19c1.37-.46,2.74-1,4.07-1.5L1357,319.2C1355.29,319.9,1353.51,320.55,1351.72,321.14Zm-60.38,0c-1.77-.6-3.55-1.26-5.28-2l7.61-18.49c1.34.55,2.71,1.06,4.07,1.53Zm70.84-4.19-8.68-18c1.3-.62,2.59-1.3,3.85-2l9.84,17.41C1365.55,315.23,1363.87,316.11,1362.18,316.92Zm-81.27-.1c-1.67-.82-3.35-1.71-5-2.64l9.92-17.36c1.26.72,2.56,1.4,3.85,2Zm91.11-5.46-11-16.74c1.2-.78,2.4-1.62,3.57-2.5l12,16C1375.12,309.26,1373.57,310.34,1372,311.36Zm-100.87-.11c-1.54-1-3.08-2.09-4.57-3.21l11.94-16c1.19.88,2.4,1.73,3.61,2.53ZM1381,304.63l-13-15.24c1.11-.94,2.21-1.94,3.28-2.95l13.82,14.46C1383.81,302.19,1382.41,303.44,1381,304.63Zm-118.8,0c-1.4-1.17-2.8-2.41-4.16-3.68l13.66-14.61c1.09,1,2.22,2,3.34,3Zm-8.08-7.53c-1.25-1.29-2.5-2.65-3.72-4l15-13.21c1,1.14,2,2.26,3.07,3.32Zm134.93-.11-14.59-13.68c1-1.07,2-2.2,3-3.34l15.28,12.89C1391.54,294.23,1390.31,295.62,1389.06,297Zm-142.15-8.09c-1.12-1.39-2.23-2.84-3.3-4.29l16.09-11.88c.91,1.24,1.85,2.46,2.8,3.64Zm149.26-.32-15.9-12.13c.9-1.18,1.8-2.42,2.67-3.68l16.44,11.39C1398.33,285.63,1397.25,287.12,1396.17,288.54Zm-155.68-8.37c-1-1.45-2-3-2.94-4.5L1254.49,265c.83,1.33,1.69,2.64,2.54,3.89Zm161.88-.58-16.9-10.68c.8-1.27,1.6-2.6,2.38-3.94l17.32,10C1404.26,276.54,1403.32,278.1,1402.37,279.59Zm-167.58-8.49c-.87-1.49-1.75-3.05-2.6-4.64l17.58-9.52c.76,1.4,1.53,2.78,2.3,4.09Zm173-.83-17.68-9.36c.72-1.36,1.43-2.76,2.12-4.16l18,8.75C1409.41,267.11,1408.59,268.71,1407.77,270.27Zm-178-8.5c-.78-1.55-1.55-3.15-2.31-4.75l18.1-8.52c.68,1.45,1.37,2.88,2.07,4.26Zm182.71-1.09-18.25-8.18c.64-1.42,1.26-2.87,1.87-4.33l18.48,7.64C1413.86,257.45,1413.16,259.09,1412.44,260.68Zm-187.2-8.45q-1-2.41-2.06-4.86l18.5-7.59c.61,1.47,1.23,2.94,1.87,4.39Zm191.25-1.33-18.69-7.13q.84-2.21,1.64-4.46L1418.3,246C1417.72,247.61,1417.11,249.27,1416.49,250.9Zm-195.24-8.4c-.63-1.62-1.24-3.26-1.83-4.9l18.81-6.78q.82,2.27,1.68,4.5ZM1420,241l-19-6.2c.5-1.51,1-3,1.44-4.57l19.14,5.78C1421.05,237.67,1420.53,239.34,1420,241Zm-202.29-8.3q-.83-2.46-1.61-4.93l19.06-6c.49,1.53,1,3,1.5,4.58ZM1423,231l-19.27-5.38c.43-1.54.84-3.08,1.24-4.63l19.37,5Q1423.71,228.49,1423,231Zm-208.44-8.19c-.5-1.66-1-3.32-1.44-5l19.27-5.37c.43,1.54.87,3.09,1.34,4.64Zm211-1.86-19.46-4.64q.57-2.34,1.08-4.71l19.54,4.31C1426.38,217.58,1426,219.27,1425.6,220.94Zm-213.82-8.12c-.43-1.67-.86-3.34-1.26-5l19.42-4.75c.39,1.56.78,3.13,1.19,4.71Zm216-2-19.6-4c.32-1.59.63-3.18.93-4.78l19.66,3.68C1428.5,207.44,1428.17,209.14,1427.83,210.83Zm-218.5-8q-.58-2.53-1.11-5l19.55-4.19c.34,1.58.69,3.16,1,4.76Zm220.4-2.12L1410,197.28c.27-1.6.54-3.2.79-4.8l19.75,3.11C1430.3,197.29,1430,199,1429.73,200.67Zm-222.56-8q-.51-2.55-1-5.05l19.66-3.65c.3,1.58.6,3.18.93,4.79Zm224.16-2.2-19.8-2.86c.24-1.61.46-3.23.67-4.84l19.83,2.61C1431.81,187.12,1431.57,188.81,1431.33,190.51Zm-226-7.91c-.3-1.71-.58-3.41-.85-5.07l19.76-3.15c.25,1.58.51,3.19.79,4.81Zm227.37-2.27L1412.81,178c.2-1.63.38-3.25.55-4.87l19.89,2.15C1433.07,176.93,1432.87,178.63,1432.67,180.33Zm-229-7.89c-.25-1.72-.49-3.42-.72-5.08l19.83-2.66c.21,1.58.44,3.2.68,4.85Zm230.09-2.29-19.91-1.93c.16-1.64.31-3.28.45-4.9l19.93,1.74C1434.09,166.75,1433.94,168.44,1433.77,170.15Zm-231.46-7.89c-.21-1.75-.41-3.45-.59-5.1L1221.6,155c.17,1.57.36,3.2.56,4.87Zm232.35-2.3-20-1.53c.13-1.65.25-3.28.36-4.91l20,1.36C1434.91,156.56,1434.79,158.25,1434.66,160Zm-233.47-7.91c-.18-1.79-.33-3.5-.47-5.12l19.93-1.7c.13,1.54.28,3.17.44,4.88Zm234.15-2.27-20-1.17c.1-1.65.18-3.3.27-4.92l20,1C1435.54,146.37,1435.44,148.07,1435.34,149.78Zm-235-8c-.14-1.92-.25-3.65-.34-5.17l20-1.15c.08,1.44.18,3.07.32,4.87Zm235.54-2.19-20-.85c.07-1.66.14-3.31.19-4.93l20,.69C1436,136.2,1435.93,137.89,1435.86,139.61Zm.35-10.17-20-.55c0-1.68.08-3.32.11-4.94l20,.4C1436.3,126,1436.26,127.71,1436.21,129.44Zm.21-10.16-20-.28c0-1.7,0-3.35.06-5l20,.17Q1436.45,116.69,1436.42,119.28Zm.09-10.13-20-.09c0-1.72,0-3.38,0-5l20,0C1436.52,105.73,1436.52,107.41,1436.51,109.15Zm-20-10v-5h20v5Zm20-10h-20v-5h20Zm0-10h-20V74h20Zm0-10h-20V64h20Zm0-10h-20V54h20Zm0-10h-20V44h20Zm0-10h-20v-5h20Zm0-10h-20v-5h20Zm0-10h-20v-5h20Zm0-10h-20v-5h20Z"/></g><g class="cls-1"><path class="cls-2" d="M872.88,136.91c-61.56,0-119.52-16.76-163.21-47.19-44.4-30.94-68.85-72.29-68.85-116.45h13c0,83.06,98.27,150.64,219.06,150.64s219.06-67.58,219.06-150.64h13c0,44.16-24.45,85.51-68.84,116.45C992.41,120.15,934.45,136.91,872.88,136.91Z"/></g><g class="cls-1"><path class="cls-2" d="M878,140.37l-.3-20c1.3,0,2.61,0,3.9-.08l.54,20C880.73,140.32,879.34,140.35,878,140.37Zm-10.37,0-4.14-.09.56-20c1.29,0,2.59.07,3.89.09Zm24.88-.53-1.16-20c1.3-.07,2.6-.16,3.9-.25l1.4,19.95Q894.56,139.72,892.47,139.84Zm-39.39,0-4.14-.27,1.42-20c1.3.09,2.6.18,3.9.25ZM907,138.68l-2-19.9c1.3-.13,2.59-.27,3.88-.42l2.29,19.87C909.71,138.39,908.34,138.54,907,138.68Zm-68.36,0c-1.38-.14-2.76-.29-4.13-.45l2.3-19.87c1.29.15,2.58.29,3.88.42Zm82.79-1.78-2.93-19.79,3.85-.59,3.18,19.74C924.13,136.46,922.76,136.68,921.39,136.88Zm-97.22,0-4.1-.64,3.19-19.74,3.85.59Zm111.56-2.43-3.83-19.63c1.28-.25,2.55-.5,3.82-.77l4.09,19.58C938.45,133.88,937.09,134.16,935.73,134.42Zm-125.9,0-4.07-.82,4.1-19.58c1.26.27,2.54.52,3.81.77ZM950,131.3l-4.74-19.43c1.26-.31,2.51-.62,3.76-1l5,19.36C952.65,130.63,951.3,131,950,131.3Zm-154.34-.05c-1.35-.33-2.7-.67-4-1l5-19.36c1.25.33,2.51.65,3.77,1ZM964,127.5l-5.69-19.18c1.24-.37,2.48-.74,3.72-1.13l6,19.09C966.69,126.7,965.36,127.1,964,127.5Zm-182.5-.06-4-1.22,6-19.09q1.86.59,3.72,1.14ZM977.92,123l-6.66-18.87c1.23-.43,2.44-.87,3.65-1.31l6.93,18.76Zm-210.27-.08c-1.31-.46-2.62-.93-3.93-1.42l6.95-18.75c1.21.45,2.43.89,3.65,1.32Zm223.92-5.15-7.64-18.48c1.2-.49,2.39-1,3.57-1.51l7.92,18.37C994.15,116.7,992.86,117.24,991.57,117.77ZM754,117.69c-1.29-.53-2.58-1.07-3.85-1.63l7.94-18.35,3.56,1.51Zm251-5.88-8.65-18c1.17-.56,2.32-1.12,3.47-1.7l8.94,17.89C1007.46,110.59,1006.21,111.21,1005,111.81Zm-264.32-.09c-1.27-.61-2.52-1.22-3.76-1.84l9-17.89c1.15.58,2.31,1.15,3.47,1.71ZM1018,105.08l-9.69-17.49c1.13-.62,2.25-1.26,3.36-1.9l10,17.33C1020.44,103.72,1019.22,104.4,1018,105.08Zm-290.4-.1q-1.85-1-3.66-2.07l10-17.31c1.11.64,2.23,1.27,3.36,1.9Zm303.05-7.42-10.77-16.85c1.09-.7,2.16-1.4,3.22-2.1l11.08,16.65C1033,96,1031.83,96.8,1030.64,97.56Zm-315.7-.12c-1.18-.76-2.36-1.52-3.52-2.3L722.51,78.5c1.06.71,2.14,1.41,3.22,2.1Zm327.87-8.23-11.87-16.1c1-.76,2-1.52,3-2.3l12.2,15.85C1045.08,87.52,1044,88.37,1042.81,89.21Zm-340-.13c-1.13-.84-2.26-1.69-3.37-2.55l12.21-15.84c1,.78,2,1.54,3,2.31ZM1054.41,80l-13-15.2c1-.83,1.93-1.66,2.87-2.51L1057.6,77.2C1056.55,78.14,1055.49,79.07,1054.41,80ZM691.2,79.86q-1.62-1.39-3.2-2.8l13.35-14.9c.94.85,1.9,1.68,2.86,2.51Zm374.13-10-14.16-14.12c.89-.9,1.77-1.81,2.64-2.72l14.49,13.79Q1066.83,68.37,1065.33,69.89Zm-385-.15q-1.51-1.53-3-3.06l14.52-13.76c.86.91,1.74,1.81,2.63,2.71Zm395.13-10.87L1060.1,46c.81-1,1.61-1.94,2.39-2.92l15.64,12.46Q1076.8,57.23,1075.42,58.87ZM670.21,58.7q-1.4-1.65-2.71-3.32L683.17,43c.77,1,1.57,1.95,2.37,2.92Zm414.32-11.77-16.46-11.36c.71-1,1.41-2.07,2.08-3.11l16.78,10.88C1086.15,44.54,1085.35,45.74,1084.53,46.93Zm-423.42-.18c-.82-1.19-1.61-2.39-2.39-3.59L675.51,32.3c.68,1,1.37,2.08,2.08,3.11Zm431.36-12.68-17.54-9.61c.6-1.09,1.18-2.18,1.73-3.28l17.83,9.06C1093.84,31.53,1093.16,32.82,1092.47,34.07Zm-439.28-.19c-.69-1.26-1.36-2.55-2-3.84L669,21c.56,1.1,1.13,2.19,1.73,3.28ZM1099,20.37l-18.5-7.6c.47-1.14.92-2.3,1.35-3.45l18.74,7C1100.11,17.67,1099.57,19,1099,20.37Zm-452.36-.2c-.54-1.33-1.08-2.7-1.58-4.08l18.75-6.94c.43,1.16.88,2.32,1.34,3.43ZM1104,5.91,1084.71.56c.32-1.16.63-2.35.92-3.55l19.45,4.67C1104.74,3.1,1104.37,4.52,1104,5.91ZM641.74,5.73c-.39-1.39-.75-2.81-1.09-4.23L660.1-3.14c.29,1.19.59,2.39.92,3.55ZM1107.15-9.06,1087.36-12c.18-1.2.34-2.42.47-3.64l19.88,2.21C1107.55-11.94,1107.36-10.48,1107.15-9.06ZM638.59-9.25c-.21-1.45-.4-2.92-.56-4.36l19.89-2.16c.13,1.2.28,2.42.46,3.64Z"/><path class="cls-2" d="M878,141.87a1.48,1.48,0,0,1-1.5-1.48l-.3-20a1.5,1.5,0,0,1,1.48-1.52c1.3,0,2.59,0,3.88-.08a1.52,1.52,0,0,1,1.08.41,1.48,1.48,0,0,1,.46,1l.54,20a1.45,1.45,0,0,1-.41,1.07,1.49,1.49,0,0,1-1.05.47c-1.38,0-2.77.07-4.16.09Zm1.22-20,.26,17,1.12,0-.45-17Zm-11.59,20h0l-4.16-.09a1.5,1.5,0,0,1-1.46-1.55l.56-20a1.51,1.51,0,0,1,.47-1,1.57,1.57,0,0,1,1.07-.41l3.87.09a1.47,1.47,0,0,1,1.05.45,1.53,1.53,0,0,1,.43,1.07l-.31,20a1.48,1.48,0,0,1-.46,1.05A1.5,1.5,0,0,1,867.59,141.87Zm-2.6-3.05,1.12,0,.26-17-.9,0Zm27.48,2.52a1.48,1.48,0,0,1-1.49-1.41l-1.17-20a1.51,1.51,0,0,1,.38-1.08,1.47,1.47,0,0,1,1-.5l3.88-.25a1.5,1.5,0,0,1,1.6,1.39l1.41,20a1.49,1.49,0,0,1-1.39,1.6c-1.38.1-2.77.19-4.16.27Zm.43-20.06,1,17,1.13-.07-1.19-17Zm-39.82,20.05H853l-4.16-.28a1.49,1.49,0,0,1-1.39-1.6l1.42-19.95a1.53,1.53,0,0,1,1.6-1.39c1.29.1,2.58.18,3.88.25a1.5,1.5,0,0,1,1.41,1.59l-1.18,20a1.47,1.47,0,0,1-.5,1A1.52,1.52,0,0,1,853.08,141.33Zm-2.53-3.16,1.13.07,1-17-.93-.06Zm56.41,2a1.52,1.52,0,0,1-1.5-1.35l-2-19.89a1.51,1.51,0,0,1,1.34-1.65c1.29-.13,2.57-.27,3.86-.42a1.51,1.51,0,0,1,1.66,1.32l2.29,19.87a1.5,1.5,0,0,1-1.32,1.66c-1.38.16-2.76.31-4.15.45Zm-.39-20.06L908.3,137l1.13-.12L907.48,120Zm-68,20h-.15c-1.39-.14-2.77-.29-4.15-.45a1.54,1.54,0,0,1-1-.56A1.52,1.52,0,0,1,833,138l2.3-19.86a1.54,1.54,0,0,1,.56-1,1.56,1.56,0,0,1,1.11-.31c1.28.15,2.56.29,3.85.42a1.49,1.49,0,0,1,1,.55,1.5,1.5,0,0,1,.33,1.1l-2,19.89A1.5,1.5,0,0,1,838.6,140.16Zm-2.47-3.27,1.13.12L839,120.1l-.91-.1Zm85.26,1.49a1.51,1.51,0,0,1-1.49-1.28L917,117.31a1.5,1.5,0,0,1,1.26-1.7l3.84-.59a1.46,1.46,0,0,1,1.11.26,1.48,1.48,0,0,1,.6,1L927,136a1.46,1.46,0,0,1-.26,1.11,1.51,1.51,0,0,1-1,.61c-1.37.22-2.74.43-4.12.63Zm-1.23-20,2.49,16.82,1.12-.17-2.7-16.79Zm-96,20-.22,0c-1.38-.2-2.75-.42-4.12-.64a1.49,1.49,0,0,1-1.24-1.72l3.19-19.74A1.49,1.49,0,0,1,823.5,115l3.83.59a1.51,1.51,0,0,1,1,.59,1.57,1.57,0,0,1,.28,1.11l-2.94,19.79a1.51,1.51,0,0,1-1.49,1.28ZM821.79,135l1.12.17,2.5-16.82-.91-.14Zm113.94.95a1.48,1.48,0,0,1-1.47-1.21l-3.83-19.63a1.5,1.5,0,0,1,1.18-1.76c1.28-.25,2.54-.5,3.8-.77a1.51,1.51,0,0,1,1.78,1.17l4.09,19.57a1.51,1.51,0,0,1-1.17,1.78l-4.09.83ZM933.66,116l3.25,16.69,1.12-.23-3.47-16.64ZM809.84,135.88a1.36,1.36,0,0,1-.29,0c-1.37-.26-2.74-.54-4.1-.83a1.49,1.49,0,0,1-1.16-1.77l4.1-19.58a1.5,1.5,0,0,1,1.77-1.16c1.27.27,2.53.52,3.8.77a1.52,1.52,0,0,1,1.19,1.76l-3.84,19.63A1.5,1.5,0,0,1,809.84,135.88Zm-2.31-3.49,1.12.23,3.26-16.69-.89-.18ZM950,132.8a1.46,1.46,0,0,1-.78-.22,1.51,1.51,0,0,1-.68-.92l-4.74-19.43a1.49,1.49,0,0,1,1.1-1.81l3.75-1a1.51,1.51,0,0,1,1.83,1.08l5,19.36a1.51,1.51,0,0,1-1.08,1.83c-1.35.35-2.7.69-4.06,1A1.47,1.47,0,0,1,950,132.8ZM947,113l4,16.51,1.11-.28-4.26-16.45ZM795.61,132.75a1.47,1.47,0,0,1-.36,0l-4-1a1.5,1.5,0,0,1-1.08-1.83l5-19.35a1.5,1.5,0,0,1,1.83-1.08l3.75,1a1.51,1.51,0,0,1,1.1,1.81l-4.76,19.43A1.51,1.51,0,0,1,795.61,132.75Zm-2.21-3.6,1.11.28,4-16.51-.89-.22ZM964,129a1.49,1.49,0,0,1-1.44-1.08l-5.69-19.17a1.5,1.5,0,0,1,1-1.86l3.7-1.13a1.5,1.5,0,0,1,1.88,1l6,19.09a1.51,1.51,0,0,1-1,1.88l-4,1.22A1.65,1.65,0,0,1,964,129Zm-3.83-19.67,4.84,16.3,1.1-.33-5.07-16.23ZM781.53,128.94a1.23,1.23,0,0,1-.42-.07c-1.35-.4-2.68-.8-4-1.22a1.49,1.49,0,0,1-.88-.73,1.53,1.53,0,0,1-.1-1.15l6-19.08a1.55,1.55,0,0,1,.74-.89,1.5,1.5,0,0,1,1.14-.1c1.23.39,2.46.76,3.7,1.13a1.5,1.5,0,0,1,1,1.87L783,127.86A1.49,1.49,0,0,1,781.53,128.94Zm-2.1-3.71,1.09.34,4.86-16.3-.87-.26Zm198.49-.73a1.44,1.44,0,0,1-.65-.15,1.48,1.48,0,0,1-.77-.86l-6.65-18.86a1.5,1.5,0,0,1,.91-1.91c1.22-.43,2.43-.87,3.63-1.31a1.5,1.5,0,0,1,1.93.89l6.93,18.76a1.5,1.5,0,0,1-.89,1.93l-4,1.42A1.41,1.41,0,0,1,977.92,124.5Zm-4.74-19.45,5.65,16,1.08-.39-5.89-16ZM767.65,124.43a1.51,1.51,0,0,1-.5-.09c-1.32-.47-2.64-.94-3.95-1.43a1.53,1.53,0,0,1-.84-.78,1.48,1.48,0,0,1,0-1.15l6.95-18.75a1.41,1.41,0,0,1,.78-.84,1.5,1.5,0,0,1,1.14,0c1.2.45,2.41.88,3.63,1.31a1.51,1.51,0,0,1,.91,1.92l-6.66,18.85A1.51,1.51,0,0,1,767.65,124.43Zm-2-3.82,1.09.4,5.66-16-.84-.31Zm225.92-1.34a1.41,1.41,0,0,1-.57-.11,1.5,1.5,0,0,1-.81-.81l-7.64-18.49a1.51,1.51,0,0,1,.81-2l3.55-1.49a1.5,1.5,0,0,1,2,.78l7.92,18.36a1.51,1.51,0,0,1-.78,2l-3.87,1.63A1.46,1.46,0,0,1,991.57,119.27Zm-5.68-19.17,6.49,15.71,1.07-.45-6.73-15.61ZM754,119.19a1.46,1.46,0,0,1-.58-.11c-1.29-.54-2.59-1.08-3.87-1.64a1.5,1.5,0,0,1-.78-2l7.94-18.36a1.5,1.5,0,0,1,2-.78c1.18.51,2.36,1,3.55,1.5a1.5,1.5,0,0,1,.81.81,1.53,1.53,0,0,1,0,1.15l-7.66,18.48a1.46,1.46,0,0,1-.81.81A1.41,1.41,0,0,1,754,119.19Zm-1.88-3.91,1.07.45L759.7,100l-.83-.35Zm252.83-2a1.42,1.42,0,0,1-.5-.08,1.47,1.47,0,0,1-.85-.77l-8.65-18a1.5,1.5,0,0,1,.7-2c1.16-.56,2.31-1.12,3.45-1.69a1.48,1.48,0,0,1,1.15-.08,1.45,1.45,0,0,1,.86.75l8.94,17.89a1.48,1.48,0,0,1,.08,1.15,1.45,1.45,0,0,1-.75.86q-1.87.94-3.78,1.86A1.49,1.49,0,0,1,1005,113.31ZM998.3,94.48l7.35,15.33,1.05-.51-7.6-15.21ZM740.63,113.22a1.44,1.44,0,0,1-.65-.15l-3.79-1.85a1.49,1.49,0,0,1-.66-2l9-17.88a1.54,1.54,0,0,1,.87-.75,1.46,1.46,0,0,1,1.14.08c1.14.57,2.29,1.14,3.45,1.69a1.5,1.5,0,0,1,.7,2l-8.66,18a1.52,1.52,0,0,1-.86.77A1.62,1.62,0,0,1,740.63,113.22Zm-1.75-4,1,.52,7.36-15.33-.8-.39ZM1018,106.58a1.48,1.48,0,0,1-.41,0,1.53,1.53,0,0,1-.9-.72L1007,88.32a1.51,1.51,0,0,1-.13-1.14,1.48,1.48,0,0,1,.72-.9q1.68-.93,3.33-1.89a1.5,1.5,0,0,1,2.05.55l10,17.33a1.5,1.5,0,0,1-.55,2c-1.22.7-2.44,1.39-3.68,2.08A1.52,1.52,0,0,1,1018,106.58Zm-7.65-18.41,8.24,14.87,1-.58-8.49-14.72ZM727.59,106.48a1.47,1.47,0,0,1-.73-.19c-1.24-.68-2.46-1.38-3.68-2.08a1.5,1.5,0,0,1-.54-2l10-17.31a1.48,1.48,0,0,1,.91-.7,1.46,1.46,0,0,1,1.14.15c1.1.63,2.21,1.26,3.33,1.88a1.53,1.53,0,0,1,.72.9,1.51,1.51,0,0,1-.13,1.14l-9.71,17.49a1.49,1.49,0,0,1-.9.71A1.4,1.4,0,0,1,727.59,106.48Zm-1.6-4.12,1,.58,8.25-14.87-.77-.43Zm304.65-3.3a1.17,1.17,0,0,1-.32,0,1.47,1.47,0,0,1-.94-.65l-10.77-16.86a1.45,1.45,0,0,1-.2-1.13,1.5,1.5,0,0,1,.65-.94c1.08-.69,2.15-1.38,3.2-2.08a1.5,1.5,0,0,1,2.08.42l11.08,16.65a1.51,1.51,0,0,1-.42,2.08c-1.17.78-2.36,1.55-3.55,2.31A1.45,1.45,0,0,1,1030.64,99.06Zm-8.7-17.9,9.16,14.32,1-.64-9.41-14.16Zm-307,17.78a1.47,1.47,0,0,1-.81-.24q-1.78-1.14-3.54-2.31a1.5,1.5,0,0,1-.42-2.08l11.09-16.64a1.45,1.45,0,0,1,1-.64,1.48,1.48,0,0,1,1.12.22c1.06.7,2.12,1.4,3.2,2.09a1.48,1.48,0,0,1,.45,2.07L716.2,98.25a1.49,1.49,0,0,1-.94.66A1.66,1.66,0,0,1,714.94,98.94Zm-1.44-4.22,1,.64,9.17-14.31-.73-.48Zm329.31-4a1.51,1.51,0,0,1-1.21-.61L1029.73,74a1.5,1.5,0,0,1,.32-2.1q1.53-1.12,3-2.28a1.5,1.5,0,0,1,2.1.28l12.2,15.85a1.51,1.51,0,0,1-.27,2.1c-1.13.86-2.26,1.72-3.41,2.57A1.55,1.55,0,0,1,1042.81,90.71ZM1033,73.42l10.09,13.69,1-.73-10.36-13.47ZM702.78,90.58a1.53,1.53,0,0,1-.89-.29c-1.14-.85-2.27-1.71-3.39-2.57a1.48,1.48,0,0,1-.58-1,1.51,1.51,0,0,1,.3-1.11l12.21-15.84a1.48,1.48,0,0,1,1-.58,1.51,1.51,0,0,1,1.1.3c1,.77,2,1.53,3,2.29a1.45,1.45,0,0,1,.59,1,1.53,1.53,0,0,1-.27,1.12L704,90a1.51,1.51,0,0,1-1,.59Zm-1.26-4.32,1,.72,10.11-13.67-.69-.52Zm352.89-4.76h-.12a1.51,1.51,0,0,1-1-.52l-13-15.19a1.5,1.5,0,0,1,.16-2.12c1-.82,1.91-1.65,2.84-2.49a1.51,1.51,0,0,1,2.12.12l13.33,14.91a1.5,1.5,0,0,1-.12,2.12c-1,1-2.13,1.88-3.21,2.81A1.49,1.49,0,0,1,1054.41,81.5ZM1043.52,65l11,12.92.91-.8-11.33-12.67ZM691.2,81.36a1.48,1.48,0,0,1-1-.37q-1.63-1.39-3.22-2.82a1.54,1.54,0,0,1-.5-1,1.48,1.48,0,0,1,.39-1.08l13.34-14.9a1.54,1.54,0,0,1,1-.5,1.48,1.48,0,0,1,1.08.38c.93.84,1.88,1.67,2.84,2.49a1.5,1.5,0,0,1,.16,2.12l-13,15.18a1.47,1.47,0,0,1-1,.52Zm-1.08-4.42.92.8L702.1,64.83l-.63-.55Zm375.21-5.55a1.45,1.45,0,0,1-1.06-.44l-14.16-14.12a1.5,1.5,0,0,1,0-2.12c.89-.89,1.77-1.79,2.63-2.69a1.5,1.5,0,0,1,2.12-.05l14.48,13.78a1.5,1.5,0,0,1,.06,2.12c-1,1-2,2.06-3,3.08A1.51,1.51,0,0,1,1065.33,71.39Zm-12-15.63,12,12,.86-.88-12.32-11.72Zm-373,15.48a1.5,1.5,0,0,1-1.07-.45q-1.51-1.53-3-3.08a1.5,1.5,0,0,1,.06-2.12l14.51-13.76a1.5,1.5,0,0,1,2.12.05c.86.91,1.73,1.8,2.62,2.69a1.5,1.5,0,0,1,0,2.12L681.34,70.8A1.49,1.49,0,0,1,680.29,71.24Zm-.85-4.51.86.88,12.05-12-.57-.59Zm396-6.36a1.51,1.51,0,0,1-1-.35l-15.32-12.85a1.51,1.51,0,0,1-.19-2.12c.8-.95,1.59-1.92,2.36-2.89a1.51,1.51,0,0,1,2.11-.24l15.64,12.46a1.5,1.5,0,0,1,.24,2.11c-.89,1.12-1.8,2.24-2.73,3.34A1.47,1.47,0,0,1,1075.42,60.37Zm-13.21-14.54,13,10.92.79-1-13.3-10.59Zm-392,14.37a1.49,1.49,0,0,1-1.15-.53q-1.39-1.66-2.74-3.36a1.46,1.46,0,0,1-.31-1.1,1.49,1.49,0,0,1,.55-1l15.67-12.42a1.55,1.55,0,0,1,1.11-.32,1.52,1.52,0,0,1,1,.56c.77,1,1.56,1.93,2.35,2.89a1.49,1.49,0,0,1-.18,2.11L671.17,59.85A1.46,1.46,0,0,1,670.21,60.2Zm-.6-4.58.79,1,13-10.91-.51-.63Zm414.92-7.19a1.46,1.46,0,0,1-.85-.27L1067.22,36.8a1.46,1.46,0,0,1-.62-1,1.51,1.51,0,0,1,.24-1.13c.7-1,1.38-2,2.05-3.06a1.48,1.48,0,0,1,.95-.65,1.51,1.51,0,0,1,1.13.2l16.78,10.88a1.51,1.51,0,0,1,.44,2.08c-.79,1.21-1.59,2.42-2.42,3.62a1.48,1.48,0,0,1-1,.62A1.24,1.24,0,0,1,1084.53,48.43Zm-14.38-13.25,14,9.66c.23-.36.47-.71.7-1.06l-14.26-9.25Zm-409,13.07a1.24,1.24,0,0,1-.27,0,1.46,1.46,0,0,1-1-.62q-1.25-1.8-2.42-3.63a1.5,1.5,0,0,1-.21-1.13,1.47,1.47,0,0,1,.65-.94L674.7,31a1.49,1.49,0,0,1,2.07.44c.67,1,1.35,2.06,2.05,3.08a1.48,1.48,0,0,1,.24,1.12,1.46,1.46,0,0,1-.62,1L662,48A1.46,1.46,0,0,1,661.11,48.25Zm-.31-4.65.7,1.06,14-9.64c-.15-.22-.29-.44-.44-.65Zm431.67-8a1.57,1.57,0,0,1-.72-.18l-17.54-9.61a1.5,1.5,0,0,1-.72-.9,1.47,1.47,0,0,1,.13-1.14q.87-1.6,1.71-3.24a1.5,1.5,0,0,1,2-.66l17.83,9.06a1.5,1.5,0,0,1,.66,2c-.65,1.29-1.34,2.59-2,3.87A1.51,1.51,0,0,1,1092.47,35.57ZM1077,23.86,1091.87,32l.6-1.14-15.16-7.7ZM653.19,35.38a1.23,1.23,0,0,1-.42-.07,1.5,1.5,0,0,1-.9-.72c-.69-1.27-1.38-2.57-2-3.87a1.51,1.51,0,0,1,.67-2l17.84-9a1.51,1.51,0,0,1,2,.66c.55,1.09,1.12,2.17,1.7,3.24a1.48,1.48,0,0,1-.6,2l-17.55,9.58A1.52,1.52,0,0,1,653.19,35.38Zm0-4.68.6,1.14,14.92-8.15-.36-.67ZM1099,21.87a1.46,1.46,0,0,1-.57-.12L1080,14.16a1.46,1.46,0,0,1-.81-.81,1.48,1.48,0,0,1,0-1.15c.47-1.13.91-2.27,1.34-3.41a1.53,1.53,0,0,1,.78-.84,1.48,1.48,0,0,1,1.15,0l18.74,7a1.5,1.5,0,0,1,.88,1.93c-.51,1.37-1,2.76-1.61,4.11A1.5,1.5,0,0,1,1099,21.87ZM1082.47,12l15.73,6.46.48-1.23-15.93-5.94C1082.65,11.48,1082.56,11.71,1082.47,12ZM646.66,21.67a1.48,1.48,0,0,1-1.38-.93c-.56-1.36-1.1-2.74-1.61-4.12a1.49,1.49,0,0,1,.89-1.93l18.75-6.94a1.5,1.5,0,0,1,1.93.88c.42,1.15.87,2.28,1.32,3.39a1.5,1.5,0,0,1-.82,2l-18.51,7.58A1.42,1.42,0,0,1,646.66,21.67ZM647,17l.48,1.23,15.73-6.45-.26-.68Zm457-9.57a1.9,1.9,0,0,1-.4,0L1084.31,2a1.54,1.54,0,0,1-.91-.71,1.5,1.5,0,0,1-.13-1.14c.31-1.14.62-2.32.9-3.49a1.45,1.45,0,0,1,.67-.93,1.47,1.47,0,0,1,1.14-.18L1105.43.22a1.54,1.54,0,0,1,.93.67,1.56,1.56,0,0,1,.18,1.14c-.35,1.44-.72,2.88-1.11,4.28A1.5,1.5,0,0,1,1104,7.41ZM1086.55-.48l16.38,4.54.33-1.27-16.53-4ZM641.74,7.23A1.46,1.46,0,0,1,641,7a1.54,1.54,0,0,1-.71-.91c-.39-1.42-.76-2.86-1.1-4.28A1.51,1.51,0,0,1,640.3,0L659.76-4.6a1.55,1.55,0,0,1,1.13.18,1.51,1.51,0,0,1,.67.93c.28,1.18.59,2.35.9,3.5a1.51,1.51,0,0,1-1,1.85L642.14,7.18A1.9,1.9,0,0,1,641.74,7.23Zm.73-4.62c.1.43.21.85.32,1.27L659.18-.64,659-1.33ZM1107.15-7.56h-.22l-19.78-2.91a1.5,1.5,0,0,1-1.27-1.7c.17-1.18.33-2.38.46-3.59a1.54,1.54,0,0,1,.56-1,1.47,1.47,0,0,1,1.1-.32l19.88,2.21a1.5,1.5,0,0,1,1.32,1.66c-.16,1.45-.35,2.93-.56,4.38A1.5,1.5,0,0,1,1107.15-7.56Zm-18.09-5.67,16.82,2.47c.06-.43.11-.87.16-1.3l-16.89-1.89ZM638.59-7.75a1.54,1.54,0,0,1-.9-.3,1.51,1.51,0,0,1-.59-1c-.21-1.46-.4-3-.56-4.41a1.56,1.56,0,0,1,.32-1.1,1.51,1.51,0,0,1,1-.55l19.88-2.16a1.5,1.5,0,0,1,1.66,1.32c.13,1.2.28,2.41.45,3.59a1.48,1.48,0,0,1-.28,1.11,1.51,1.51,0,0,1-1,.59L638.8-7.77Zm1.11-4.53c0,.44.11.88.17,1.33l16.82-2.45-.09-.72Z"/></g><g class="cls-1"><path class="cls-2" d="M591.08,95.65c-41.81,0-81.2-11.7-110.91-32.95C449.81,41,433.08,11.89,433.08-19.21h13c0,56.17,65.05,101.86,145,101.86s145-45.69,145-101.86h13c0,31.1-16.72,60.19-47.09,81.91C672.28,84,632.9,95.65,591.08,95.65Z"/></g><g class="cls-1"><path class="cls-2" d="M596.32,99.09l-.46-20c1.29,0,2.57-.07,3.85-.13l.85,20C599.15,99,597.74,99.06,596.32,99.09Zm-10.59,0c-1.42,0-2.83-.08-4.24-.14l.85-20c1.29,0,2.57.1,3.86.13Zm25.4-.83-1.79-19.92c1.28-.12,2.56-.25,3.83-.39l2.19,19.88C614,98,612.55,98.13,611.13,98.26Zm-40.22,0c-1.41-.12-2.82-.27-4.22-.42l2.19-19.88c1.27.14,2.56.27,3.84.39Zm55-1.82-3.16-19.75c1.27-.21,2.54-.42,3.79-.65l3.57,19.68Q628,96.08,625.88,96.42Zm-69.72,0c-1.4-.23-2.79-.47-4.18-.72L555.54,76c1.26.23,2.53.45,3.8.65Zm84.32-2.85-4.55-19.48c1.25-.29,2.5-.6,3.73-.91l5,19.37Q642.57,93.06,640.48,93.55Zm-98.92,0c-1.38-.33-2.76-.67-4.13-1l5-19.37c1.24.32,2.48.62,3.73.92Zm113.31-3.9-6-19.09c1.22-.38,2.43-.78,3.64-1.18l6.4,18.94C657.59,88.75,656.24,89.19,654.87,89.62Zm-127.69,0c-1.37-.43-2.72-.87-4.06-1.32l6.41-19c1.21.41,2.42.81,3.65,1.19Zm141.78-5L661.5,66c1.18-.47,2.36-1,3.52-1.46l7.89,18.37C671.61,83.51,670.29,84.05,669,84.59Zm-155.87,0c-1.33-.53-2.64-1.08-4-1.64L517,64.53c1.17.5,2.35,1,3.53,1.47Zm169.55-6.12-9-17.87c1.14-.57,2.26-1.15,3.38-1.75l9.43,17.64C685.2,77.11,683.92,77.77,682.64,78.42Zm-183.22-.06c-1.29-.64-2.56-1.31-3.82-2l9.45-17.63c1.11.6,2.23,1.18,3.37,1.75Zm196.37-7.31-10.57-17q1.6-1,3.18-2l11,16.68C698.23,69.5,697,70.28,695.79,71.05ZM486.27,71c-1.23-.76-2.44-1.54-3.64-2.34L493.68,52c1,.69,2.1,1.37,3.17,2Zm222-8.57L696.05,46.57c1-.77,2-1.55,2.93-2.34L711.66,59.7C710.55,60.62,709.41,61.52,708.26,62.41Zm-234.45-.07c-1.13-.88-2.28-1.8-3.4-2.72L483.1,44.17c1,.79,1.94,1.56,2.93,2.33Zm246-9.9L705.94,38.05c.89-.86,1.77-1.74,2.63-2.62l14.37,13.91C721.93,50.38,720.88,51.42,719.83,52.44Zm-257.58-.09q-1.59-1.53-3.11-3.11l14.39-13.89c.85.88,1.73,1.76,2.62,2.62Zm268-11.28L714.67,28.53c.76-1,1.51-1.92,2.24-2.9L733,37.57C732.08,38.75,731.17,39.93,730.24,41.07ZM451.84,41c-.92-1.15-1.83-2.33-2.71-3.5l16.06-11.92c.72,1,1.48,1.95,2.25,2.9ZM739.14,28.3,722,18.08c.63-1,1.22-2.1,1.78-3.15l17.62,9.47C740.66,25.69,739.91,27,739.14,28.3ZM443,28.19c-.76-1.28-1.51-2.59-2.21-3.91l17.63-9.44C459,15.9,459.54,17,460.15,18Zm303.15-14L727.53,6.81c.44-1.12.86-2.25,1.24-3.35l18.92,6.48C747.2,11.35,746.67,12.78,746.11,14.19ZM436,14.07c-.55-1.4-1.08-2.83-1.56-4.24l18.93-6.47c.38,1.12.79,2.25,1.23,3.35ZM750.7-1,731.12-5.1c.24-1.15.46-2.31.64-3.46l19.76,3.08C751.28-4,751-2.48,750.7-1ZM431.44-1.13c-.31-1.49-.58-3-.81-4.48l19.76-3.06c.18,1.15.39,2.32.63,3.49Z"/><path class="cls-2" d="M596.32,100.59a1.48,1.48,0,0,1-1.5-1.46l-.46-20a1.5,1.5,0,0,1,1.46-1.53c1.28,0,2.56-.07,3.83-.13a1.5,1.5,0,0,1,1.56,1.44l.85,20a1.5,1.5,0,0,1-1.44,1.56c-1.41.06-2.84.11-4.27.14Zm1.07-20,.39,17,1.22,0-.73-17Zm-11.66,20h0c-1.43,0-2.85-.08-4.27-.14A1.5,1.5,0,0,1,580,98.89l.85-20a1.51,1.51,0,0,1,1.57-1.43c1.27,0,2.55.1,3.83.13a1.5,1.5,0,0,1,1,.46,1.51,1.51,0,0,1,.41,1.07l-.47,20A1.5,1.5,0,0,1,585.73,100.59Zm-2.68-3.08,1.21,0,.41-17c-.3,0-.6,0-.89,0Zm28.08,2.25a1.5,1.5,0,0,1-1.49-1.37l-1.79-19.92a1.5,1.5,0,0,1,1.35-1.63c1.28-.11,2.54-.24,3.81-.38a1.49,1.49,0,0,1,1.65,1.33l2.19,19.88a1.49,1.49,0,0,1-1.32,1.65c-1.42.16-2.84.3-4.26.43ZM611,79.69l1.52,16.93,1.22-.12-1.87-16.9Zm-40.06,20h-.14c-1.42-.13-2.83-.27-4.25-.43a1.48,1.48,0,0,1-1-.55,1.47,1.47,0,0,1-.32-1.1l2.19-19.88a1.49,1.49,0,0,1,.55-1,1.47,1.47,0,0,1,1.1-.32c1.27.14,2.54.27,3.82.38a1.49,1.49,0,0,1,1,.54,1.45,1.45,0,0,1,.34,1.09L572.4,98.38a1.47,1.47,0,0,1-.53,1A1.52,1.52,0,0,1,570.91,99.74Zm-2.56-3.25,1.2.12,1.54-16.93-.88-.09Zm57.53,1.43a1.5,1.5,0,0,1-1.48-1.27L621.24,76.9a1.5,1.5,0,0,1,1.25-1.71c1.25-.21,2.51-.42,3.75-.65a1.52,1.52,0,0,1,1.12.25,1.47,1.47,0,0,1,.63,1l3.56,19.68a1.49,1.49,0,0,1-1.21,1.75c-1.4.25-2.81.49-4.22.72Zm-1.44-20,2.68,16.79,1.21-.2-3-16.73Zm-68.28,20-.23,0c-1.42-.23-2.82-.47-4.22-.72a1.51,1.51,0,0,1-1.21-1.75l3.56-19.68a1.52,1.52,0,0,1,1.75-1.21c1.25.23,2.5.45,3.77.65a1.51,1.51,0,0,1,1.24,1.72l-3.17,19.74a1.49,1.49,0,0,1-.61,1A1.45,1.45,0,0,1,556.16,97.9Zm-2.44-3.43,1.2.2,2.7-16.78-.87-.15Zm86.76.58A1.51,1.51,0,0,1,639,93.89l-4.55-19.48a1.5,1.5,0,0,1,1.12-1.8c1.24-.29,2.47-.59,3.7-.91a1.51,1.51,0,0,1,1.83,1.09l5,19.37A1.5,1.5,0,0,1,645,94c-1.38.35-2.77.69-4.16,1A2.09,2.09,0,0,1,640.48,95.05Zm-2.75-19.87,3.87,16.56,1.19-.29L638.58,75ZM541.56,95a1.32,1.32,0,0,1-.34,0q-2.1-.49-4.17-1A1.51,1.51,0,0,1,536,92.13l5-19.37a1.46,1.46,0,0,1,.69-.92,1.49,1.49,0,0,1,1.13-.16c1.23.31,2.46.62,3.7.91a1.49,1.49,0,0,1,1.12,1.8L543,93.86A1.51,1.51,0,0,1,541.56,95Zm-2.31-3.6,1.2.29,3.88-16.55-.85-.21Zm115.62-.3a1.5,1.5,0,0,1-1.43-1.05l-6-19.09a1.51,1.51,0,0,1,1-1.88c1.21-.38,2.41-.77,3.61-1.17a1.49,1.49,0,0,1,1.9.94l6.4,18.94a1.49,1.49,0,0,1-.94,1.9c-1.35.46-2.71.91-4.09,1.34A1.76,1.76,0,0,1,654.87,91.12Zm-4.11-19.61,5.09,16.22,1.18-.38-5.44-16.11ZM527.18,91.08a1.41,1.41,0,0,1-.45-.07c-1.37-.43-2.74-.87-4.09-1.33a1.49,1.49,0,0,1-.94-1.9l6.41-19a1.5,1.5,0,0,1,.76-.86,1.53,1.53,0,0,1,1.15-.08c1.19.41,2.39.8,3.61,1.18a1.5,1.5,0,0,1,1,1.88l-6,19.08a1.47,1.47,0,0,1-.74.88A1.5,1.5,0,0,1,527.18,91.08ZM525,87.31l1.18.38,5.1-16.21-.82-.27ZM669,86.09a1.52,1.52,0,0,1-.59-.12,1.5,1.5,0,0,1-.8-.82L660.1,66.59a1.5,1.5,0,0,1,0-1.14,1.48,1.48,0,0,1,.82-.81c1.17-.47,2.33-1,3.49-1.45a1.5,1.5,0,0,1,2,.79l7.89,18.37a1.49,1.49,0,0,1-.78,2c-1.32.57-2.65,1.12-4,1.66A1.55,1.55,0,0,1,669,86.09Zm-5.52-19.23,6.35,15.77,1.15-.48-6.71-15.62ZM513.09,86a1.58,1.58,0,0,1-.56-.1c-1.34-.54-2.66-1.1-4-1.66a1.5,1.5,0,0,1-.78-2l7.9-18.38a1.5,1.5,0,0,1,.82-.8,1.53,1.53,0,0,1,1.15,0c1.15.5,2.32,1,3.49,1.45a1.51,1.51,0,0,1,.83,2L514.48,85.1A1.48,1.48,0,0,1,513.09,86Zm-2-3.93,1.14.48,6.36-15.77-.79-.33Zm171.52-2.19a1.49,1.49,0,0,1-1.34-.83l-9-17.87a1.5,1.5,0,0,1,.67-2c1.12-.57,2.24-1.14,3.34-1.73a1.46,1.46,0,0,1,1.14-.11,1.48,1.48,0,0,1,.89.72l9.43,17.64a1.46,1.46,0,0,1,.11,1.14,1.5,1.5,0,0,1-.73.89c-1.27.68-2.55,1.35-3.85,2A1.47,1.47,0,0,1,682.64,79.92Zm-7-18.71L683.3,76.4l1.12-.58-8-15ZM499.42,79.86a1.51,1.51,0,0,1-.68-.16c-1.3-.65-2.58-1.32-3.85-2a1.43,1.43,0,0,1-.72-.89,1.46,1.46,0,0,1,.11-1.14L503.73,58a1.44,1.44,0,0,1,.88-.72,1.49,1.49,0,0,1,1.15.11c1.1.59,2.21,1.17,3.34,1.74a1.5,1.5,0,0,1,.66,2l-9,17.86A1.52,1.52,0,0,1,499.42,79.86Zm-1.78-4.1,1.12.58,7.65-15.18-.74-.38Zm198.15-3.21a1.48,1.48,0,0,1-1.27-.71L684,54.86a1.5,1.5,0,0,1,.48-2.07c1.06-.66,2.11-1.33,3.14-2a1.5,1.5,0,0,1,2.08.42l11,16.68a1.5,1.5,0,0,1-.42,2.08q-1.82,1.2-3.68,2.36A1.51,1.51,0,0,1,695.79,72.55Zm-8.51-18,9,14.43,1.08-.69L688,54.1Zm-201,17.94a1.52,1.52,0,0,1-.79-.22q-1.86-1.17-3.68-2.37a1.5,1.5,0,0,1-.42-2.08l11.05-16.67a1.5,1.5,0,0,1,2.08-.42c1,.68,2.08,1.36,3.14,2a1.5,1.5,0,0,1,.48,2.06l-10.58,17A1.52,1.52,0,0,1,486.27,72.48Zm-1.55-4.27c.35.24.72.47,1.08.7l9-14.43-.68-.44Zm223.54-4.3h-.19a1.52,1.52,0,0,1-1-.58L694.86,47.48a1.5,1.5,0,0,1,.27-2.1c1-.76,2-1.53,2.9-2.31a1.5,1.5,0,0,1,2.11.21l12.68,15.47a1.49,1.49,0,0,1-.21,2.11q-1.68,1.39-3.44,2.74A1.49,1.49,0,0,1,708.26,63.91ZM698.15,46.83,708.53,60.3l1-.81L698.77,46.34Zm-224.34,17a1.48,1.48,0,0,1-.91-.32c-1.16-.89-2.32-1.81-3.45-2.74a1.49,1.49,0,0,1-.2-2.11l12.69-15.45a1.52,1.52,0,0,1,2.12-.21c.94.78,1.91,1.55,2.89,2.3a1.52,1.52,0,0,1,.27,2.11L475,63.25A1.48,1.48,0,0,1,473.81,63.84Zm-1.29-4.43,1,.82,10.38-13.47-.62-.49Zm247.31-5.47h0a1.56,1.56,0,0,1-1.06-.46L704.86,39.09a1.5,1.5,0,0,1,0-2.12c.88-.85,1.75-1.72,2.59-2.59a1.5,1.5,0,0,1,2.12,0L724,48.26a1.5,1.5,0,0,1,0,2.12c-1,1-2.06,2.1-3.14,3.14A1.49,1.49,0,0,1,719.83,53.94ZM708.06,38.08l11.8,12.23.95-.94L708.59,37.54ZM462.25,53.85a1.48,1.48,0,0,1-1-.42q-1.59-1.53-3.15-3.15a1.46,1.46,0,0,1-.42-1.06,1.52,1.52,0,0,1,.46-1.06l14.39-13.89a1.51,1.51,0,0,1,2.12,0c.84.87,1.7,1.74,2.58,2.58a1.51,1.51,0,0,1,0,2.12L463.33,53.4A1.52,1.52,0,0,1,462.25,53.85Zm-1-4.58,1,1L474,38c-.17-.18-.35-.35-.53-.53Zm269-6.7a1.46,1.46,0,0,1-.94-.33L713.73,29.7a1.5,1.5,0,0,1-.23-2.11c.75-.94,1.49-1.9,2.2-2.85a1.49,1.49,0,0,1,1-.59,1.48,1.48,0,0,1,1.11.28l16.05,11.94a1.5,1.5,0,0,1,.31,2.1c-.9,1.21-1.83,2.4-2.75,3.54A1.5,1.5,0,0,1,730.24,42.57ZM716.77,28.29,730,39l.84-1.09L717.21,27.72ZM451.84,42.47h-.16a1.49,1.49,0,0,1-1-.55c-.94-1.16-1.86-2.36-2.74-3.55a1.48,1.48,0,0,1-.28-1.11,1.51,1.51,0,0,1,.59-1L464.3,24.34a1.57,1.57,0,0,1,1.11-.28,1.51,1.51,0,0,1,1,.59c.71,1,1.45,1.93,2.2,2.86a1.52,1.52,0,0,1,.33,1.1,1.54,1.54,0,0,1-.56,1L452.78,42.14A1.48,1.48,0,0,1,451.84,42.47Zm-.6-4.7.84,1.09,13.26-10.65-.45-.57Zm287.9-8a1.5,1.5,0,0,1-.76-.21L721.19,19.36a1.5,1.5,0,0,1-.69-.92,1.45,1.45,0,0,1,.17-1.13c.6-1,1.19-2.06,1.74-3.09a1.48,1.48,0,0,1,.89-.72,1.46,1.46,0,0,1,1.14.11l17.62,9.46a1.49,1.49,0,0,1,.61,2c-.7,1.32-1.46,2.65-2.24,4A1.5,1.5,0,0,1,739.14,29.8ZM724,17.55l14.61,8.69c.24-.41.47-.83.7-1.24l-15-8ZM443,29.69a1.45,1.45,0,0,1-1.29-.73c-.77-1.3-1.53-2.64-2.24-4a1.46,1.46,0,0,1-.11-1.14A1.48,1.48,0,0,1,440,23l17.63-9.44a1.48,1.48,0,0,1,1.15-.11,1.44,1.44,0,0,1,.88.72c.55,1,1.14,2.07,1.74,3.09a1.49,1.49,0,0,1-.52,2.05l-17.2,10.21A1.45,1.45,0,0,1,443,29.69Zm-.17-4.8c.23.42.47.83.7,1.24l14.62-8.68-.33-.59Zm303.32-9.2a1.52,1.52,0,0,1-.55-.1L727,8.2a1.5,1.5,0,0,1-.84-1.95c.44-1.09.85-2.2,1.22-3.28a1.5,1.5,0,0,1,1.9-.93l18.92,6.48a1.5,1.5,0,0,1,.93,1.91c-.49,1.43-1,2.88-1.59,4.32A1.5,1.5,0,0,1,746.11,15.69ZM729.46,6l15.8,6.28.51-1.37L729.69,5.36ZM436,15.57a1.52,1.52,0,0,1-.59-.12,1.48,1.48,0,0,1-.8-.83c-.57-1.43-1.1-2.88-1.59-4.31a1.5,1.5,0,0,1,.07-1.14,1.53,1.53,0,0,1,.86-.76l18.93-6.47a1.5,1.5,0,0,1,1.9.94c.38,1.1.79,2.21,1.22,3.28a1.53,1.53,0,0,1,0,1.15,1.55,1.55,0,0,1-.83.8l-18.59,7.36A1.54,1.54,0,0,1,436,15.57Zm.36-4.81c.16.45.33.91.5,1.36l15.81-6.26c-.08-.2-.15-.4-.22-.6ZM750.7.5l-.31,0-19.58-4.1a1.49,1.49,0,0,1-1.16-1.77c.24-1.12.45-2.26.62-3.4A1.52,1.52,0,0,1,732-10L751.75-7a1.52,1.52,0,0,1,1,.6A1.51,1.51,0,0,1,753-5.25c-.24,1.53-.52,3.06-.83,4.56A1.51,1.51,0,0,1,750.7.5ZM732.88-6.26l16.64,3.48c.1-.48.19-1,.27-1.45L733-6.85C733-6.66,732.92-6.46,732.88-6.26ZM431.44.37A1.51,1.51,0,0,1,430-.82c-.31-1.53-.59-3.06-.82-4.56a1.49,1.49,0,0,1,1.25-1.71l19.76-3.06a1.5,1.5,0,0,1,1.71,1.25c.18,1.12.39,2.27.62,3.41a1.5,1.5,0,0,1-1.16,1.78L431.74.34A1.53,1.53,0,0,1,431.44.37Zm.91-4.73c.09.49.17,1,.27,1.46l16.65-3.45c0-.21-.08-.41-.11-.61Z"/></g><g class="cls-1"><rect class="cls-2" x="322" y="-58.7" width="13" height="261.55"/></g><g class="cls-1"><path class="cls-2" d="M338.5,183.17h-20v-3.93h20Zm0-13.76h-20v-3.93h20Zm0-13.76h-20v-3.94h20Zm0-13.77h-20V138h20Zm0-13.76h-20v-3.93h20Zm0-13.76h-20v-3.93h20Zm0-13.76h-20V96.66h20Zm0-13.77h-20V82.9h20Zm0-13.76h-20V69.14h20Zm0-13.76h-20V55.38h20Zm0-13.76h-20V41.61h20Zm0-13.77h-20V27.85h20Zm0-13.76h-20V14.09h20Zm0-13.76h-20V.33h20Zm0-13.76h-20v-3.94h20Zm0-13.77h-20V-27.2h20Zm0-13.76h-20V-41h20Zm0-13.76h-20v-3.93h20Z"/><path class="cls-2" d="M338.5,184.67h-20a1.5,1.5,0,0,1-1.5-1.5v-3.93a1.5,1.5,0,0,1,1.5-1.5h20a1.5,1.5,0,0,1,1.5,1.5v3.93A1.5,1.5,0,0,1,338.5,184.67Zm-18.5-3h17v-.93H320Zm18.5-10.76h-20a1.5,1.5,0,0,1-1.5-1.5v-3.93a1.5,1.5,0,0,1,1.5-1.5h20a1.5,1.5,0,0,1,1.5,1.5v3.93A1.5,1.5,0,0,1,338.5,170.91Zm-18.5-3h17V167H320Zm18.5-10.76h-20a1.51,1.51,0,0,1-1.5-1.5v-3.94a1.5,1.5,0,0,1,1.5-1.5h20a1.5,1.5,0,0,1,1.5,1.5v3.94A1.5,1.5,0,0,1,338.5,157.15Zm-18.5-3h17v-.94H320Zm18.5-10.77h-20a1.5,1.5,0,0,1-1.5-1.5V138a1.5,1.5,0,0,1,1.5-1.5h20A1.5,1.5,0,0,1,340,138v3.93A1.5,1.5,0,0,1,338.5,143.38Zm-18.5-3h17v-.93H320Zm18.5-10.76h-20a1.5,1.5,0,0,1-1.5-1.5v-3.93a1.5,1.5,0,0,1,1.5-1.5h20a1.5,1.5,0,0,1,1.5,1.5v3.93A1.5,1.5,0,0,1,338.5,129.62Zm-18.5-3h17v-.93H320Zm18.5-10.76h-20a1.5,1.5,0,0,1-1.5-1.5v-3.93a1.5,1.5,0,0,1,1.5-1.5h20a1.5,1.5,0,0,1,1.5,1.5v3.93A1.5,1.5,0,0,1,338.5,115.86Zm-18.5-3h17v-.93H320Zm18.5-10.76h-20a1.51,1.51,0,0,1-1.5-1.5V96.66a1.5,1.5,0,0,1,1.5-1.5h20a1.5,1.5,0,0,1,1.5,1.5v3.94A1.5,1.5,0,0,1,338.5,102.1Zm-18.5-3h17v-.94H320Zm18.5-10.77h-20a1.5,1.5,0,0,1-1.5-1.5V82.9a1.5,1.5,0,0,1,1.5-1.5h20a1.5,1.5,0,0,1,1.5,1.5v3.93A1.5,1.5,0,0,1,338.5,88.33Zm-18.5-3h17V84.4H320Zm18.5-10.76h-20a1.5,1.5,0,0,1-1.5-1.5V69.14a1.5,1.5,0,0,1,1.5-1.5h20a1.5,1.5,0,0,1,1.5,1.5v3.93A1.5,1.5,0,0,1,338.5,74.57Zm-18.5-3h17v-.93H320Zm18.5-10.76h-20a1.5,1.5,0,0,1-1.5-1.5V55.38a1.5,1.5,0,0,1,1.5-1.5h20a1.5,1.5,0,0,1,1.5,1.5v3.93A1.5,1.5,0,0,1,338.5,60.81Zm-18.5-3h17v-.93H320Zm18.5-10.76h-20a1.51,1.51,0,0,1-1.5-1.5V41.61a1.5,1.5,0,0,1,1.5-1.5h20a1.5,1.5,0,0,1,1.5,1.5v3.94A1.5,1.5,0,0,1,338.5,47.05Zm-18.5-3h17v-.94H320Zm18.5-10.77h-20a1.5,1.5,0,0,1-1.5-1.5V27.85a1.5,1.5,0,0,1,1.5-1.5h20a1.5,1.5,0,0,1,1.5,1.5v3.93A1.5,1.5,0,0,1,338.5,33.28Zm-18.5-3h17v-.93H320Zm18.5-10.76h-20A1.5,1.5,0,0,1,317,18V14.09a1.5,1.5,0,0,1,1.5-1.5h20a1.5,1.5,0,0,1,1.5,1.5V18A1.5,1.5,0,0,1,338.5,19.52Zm-18.5-3h17v-.93H320ZM338.5,5.76h-20a1.5,1.5,0,0,1-1.5-1.5V.33a1.5,1.5,0,0,1,1.5-1.5h20A1.5,1.5,0,0,1,340,.33V4.26A1.5,1.5,0,0,1,338.5,5.76Zm-18.5-3h17V1.83H320ZM338.5-8h-20A1.51,1.51,0,0,1,317-9.5v-3.94a1.5,1.5,0,0,1,1.5-1.5h20a1.5,1.5,0,0,1,1.5,1.5V-9.5A1.5,1.5,0,0,1,338.5-8ZM320-11h17v-.94H320Zm18.5-10.77h-20a1.5,1.5,0,0,1-1.5-1.5V-27.2a1.5,1.5,0,0,1,1.5-1.5h20a1.5,1.5,0,0,1,1.5,1.5v3.93A1.5,1.5,0,0,1,338.5-21.77Zm-18.5-3h17v-.93H320Zm18.5-10.76h-20A1.5,1.5,0,0,1,317-37V-41a1.5,1.5,0,0,1,1.5-1.5h20A1.5,1.5,0,0,1,340-41V-37A1.5,1.5,0,0,1,338.5-35.53Zm-18.5-3h17v-.93H320Zm18.5-10.76h-20a1.5,1.5,0,0,1-1.5-1.5v-3.93a1.5,1.5,0,0,1,1.5-1.5h20a1.5,1.5,0,0,1,1.5,1.5v3.93A1.5,1.5,0,0,1,338.5-49.29Zm-18.5-3h17v-.93H320Z"/><rect class="cls-2" x="318.5" y="193" width="20" height="2"/><rect class="cls-2" x="317" y="191.5" width="23" height="5" rx="1.5"/></g><g class="cls-1"><path class="cls-3" d="M307.51,263.29a5.5,5.5,0,0,1-5.5-5.5V234c-.06-1.71-.08-11,6.57-18.25,4.55-4.95,11-7.59,19.07-7.83a5.5,5.5,0,1,1,.34,11c-5,.15-8.79,1.57-11.26,4.22-3.92,4.19-3.73,10.44-3.73,10.5a2.09,2.09,0,0,1,0,.25v23.93A5.5,5.5,0,0,1,307.51,263.29Z"/></g><g class="cls-1"><path class="cls-3" d="M349.74,263.29a5.5,5.5,0,0,1-5.5-5.5V233.57s.19-6.27-3.72-10.46c-2.48-2.65-6.26-4.07-11.26-4.22a5.5,5.5,0,0,1,.33-11c8.11.24,14.53,2.88,19.08,7.83,6.65,7.22,6.63,16.54,6.57,18.25v23.81A5.5,5.5,0,0,1,349.74,263.29Z"/></g><circle class="cls-4" cx="328.5" cy="213.39" r="11.76"/><path class="cls-5" d="M328.5,227.16a13.77,13.77,0,1,1,13.77-13.77A13.79,13.79,0,0,1,328.5,227.16Zm0-23.53a9.77,9.77,0,1,0,9.77,9.76A9.77,9.77,0,0,0,328.5,203.63Z"/></svg>