<svg version="1.1" id="el_-J18Emc4E" xmlns="http://www.w3.org/2000/svg" xmlns:xlink="http://www.w3.org/1999/xlink" x="0px" y="0px" viewBox="0 0 512 512" style="enable-background:new 0 0 512 512;" xml:space="preserve"><style>@-webkit-keyframes el_1zUcip9_3a_Lv1zWwxnh_Animation{0%{-webkit-transform: translate(194.02099609375px, 32.33700180053711px) scale(1, 1) translate(-194.02099609375px, -32.33700180053711px);transform: translate(194.02099609375px, 32.33700180053711px) scale(1, 1) translate(-194.02099609375px, -32.33700180053711px);}50%{-webkit-transform: translate(194.02099609375px, 32.33700180053711px) scale(0.95, 0.95) translate(-194.02099609375px, -32.33700180053711px);transform: translate(194.02099609375px, 32.33700180053711px) scale(0.95, 0.95) translate(-194.02099609375px, -32.33700180053711px);}100%{-webkit-transform: translate(194.02099609375px, 32.33700180053711px) scale(1, 1) translate(-194.02099609375px, -32.33700180053711px);transform: translate(194.02099609375px, 32.33700180053711px) scale(1, 1) translate(-194.02099609375px, -32.33700180053711px);}}@keyframes el_1zUcip9_3a_Lv1zWwxnh_Animation{0%{-webkit-transform: translate(194.02099609375px, 32.33700180053711px) scale(1, 1) translate(-194.02099609375px, -32.33700180053711px);transform: translate(194.02099609375px, 32.33700180053711px) scale(1, 1) translate(-194.02099609375px, -32.33700180053711px);}50%{-webkit-transform: translate(194.02099609375px, 32.33700180053711px) scale(0.95, 0.95) translate(-194.02099609375px, -32.33700180053711px);transform: translate(194.02099609375px, 32.33700180053711px) scale(0.95, 0.95) translate(-194.02099609375px, -32.33700180053711px);}100%{-webkit-transform: translate(194.02099609375px, 32.33700180053711px) scale(1, 1) translate(-194.02099609375px, -32.33700180053711px);transform: translate(194.02099609375px, 32.33700180053711px) scale(1, 1) translate(-194.02099609375px, -32.33700180053711px);}}@-webkit-keyframes el_iVuplCTsXm_SntYF2cpE_Animation{0%{-webkit-transform: translate(133.65899658203125px, 0px) scale(1, 1) translate(-133.65899658203125px, 0px);transform: translate(133.65899658203125px, 0px) scale(1, 1) translate(-133.65899658203125px, 0px);}50%{-webkit-transform: translate(133.65899658203125px, 0px) scale(0.95, 0.95) translate(-133.65899658203125px, 0px);transform: translate(133.65899658203125px, 0px) scale(0.95, 0.95) translate(-133.65899658203125px, 0px);}100%{-webkit-transform: translate(133.65899658203125px, 0px) scale(1, 1) translate(-133.65899658203125px, 0px);transform: translate(133.65899658203125px, 0px) scale(1, 1) translate(-133.65899658203125px, 0px);}}@keyframes el_iVuplCTsXm_SntYF2cpE_Animation{0%{-webkit-transform: translate(133.65899658203125px, 0px) scale(1, 1) translate(-133.65899658203125px, 0px);transform: translate(133.65899658203125px, 0px) scale(1, 1) translate(-133.65899658203125px, 0px);}50%{-webkit-transform: translate(133.65899658203125px, 0px) scale(0.95, 0.95) translate(-133.65899658203125px, 0px);transform: translate(133.65899658203125px, 0px) scale(0.95, 0.95) translate(-133.65899658203125px, 0px);}100%{-webkit-transform: translate(133.65899658203125px, 0px) scale(1, 1) translate(-133.65899658203125px, 0px);transform: translate(133.65899658203125px, 0px) scale(1, 1) translate(-133.65899658203125px, 0px);}}@-webkit-keyframes el_OMztbdvrcP_boheZW1nK_Animation{0%{-webkit-transform: translate(133.65899658203125px, 0px) scale(1, 1) translate(-133.65899658203125px, 0px);transform: translate(133.65899658203125px, 0px) scale(1, 1) translate(-133.65899658203125px, 0px);}50%{-webkit-transform: translate(133.65899658203125px, 0px) scale(0.95, 0.95) translate(-133.65899658203125px, 0px);transform: translate(133.65899658203125px, 0px) scale(0.95, 0.95) translate(-133.65899658203125px, 0px);}100%{-webkit-transform: translate(133.65899658203125px, 0px) scale(1, 1) translate(-133.65899658203125px, 0px);transform: translate(133.65899658203125px, 0px) scale(1, 1) translate(-133.65899658203125px, 0px);}}@keyframes el_OMztbdvrcP_boheZW1nK_Animation{0%{-webkit-transform: translate(133.65899658203125px, 0px) scale(1, 1) translate(-133.65899658203125px, 0px);transform: translate(133.65899658203125px, 0px) scale(1, 1) translate(-133.65899658203125px, 0px);}50%{-webkit-transform: translate(133.65899658203125px, 0px) scale(0.95, 0.95) translate(-133.65899658203125px, 0px);transform: translate(133.65899658203125px, 0px) scale(0.95, 0.95) translate(-133.65899658203125px, 0px);}100%{-webkit-transform: translate(133.65899658203125px, 0px) scale(1, 1) translate(-133.65899658203125px, 0px);transform: translate(133.65899658203125px, 0px) scale(1, 1) translate(-133.65899658203125px, 0px);}}#el_-J18Emc4E *{-webkit-animation-duration: 3s;animation-duration: 3s;-webkit-animation-iteration-count: infinite;animation-iteration-count: infinite;-webkit-animation-timing-function: cubic-bezier(0, 0, 1, 1);animation-timing-function: cubic-bezier(0, 0, 1, 1);}#el_XcI249iQg8{fill: #FF8C29;}#el_hdQeLSaUsi{fill: #FD6A33;}#el_eeIKw2nwAO{fill: #FFFFFF;}#el_dj7e8szIMp{fill: #FFFFFF;}#el_AyHS3-Fn0w{fill: #FFFFFF;}#el_OMztbdvrcP{fill: #4ACFD9;}#el_iVuplCTsXm{fill: #0295AA;}#el_vAo8eMYXLj{fill: #FFFFFF;}#el_ElrWY1wSmw{fill: #FFFFFF;}#el_DwrUNYmZlo{fill: #FFFFFF;}#el_0d3IWxruMZ{fill: #FFFFFF;}#el_H410fNEEpJ{fill: #FFFFFF;}#el_OMztbdvrcP_boheZW1nK{-webkit-animation-name: el_OMztbdvrcP_boheZW1nK_Animation;animation-name: el_OMztbdvrcP_boheZW1nK_Animation;}#el_iVuplCTsXm_SntYF2cpE{-webkit-animation-name: el_iVuplCTsXm_SntYF2cpE_Animation;animation-name: el_iVuplCTsXm_SntYF2cpE_Animation;}#el_1zUcip9_3a_Lv1zWwxnh{-webkit-animation-name: el_1zUcip9_3a_Lv1zWwxnh_Animation;animation-name: el_1zUcip9_3a_Lv1zWwxnh_Animation;}</style>
<path d="M314.206,73.297H12.396c-4.465,0-8.084,3.62-8.084,8.084v340.615c0,4.465,3.62,8.084,8.084,8.084&#10;&#9;h60.901v73.836c0,3.251,1.947,6.185,4.942,7.448c1.014,0.428,2.081,0.636,3.14,0.636c2.068,0,4.104-0.793,5.643-2.294l81.723-79.626&#10;&#9;h145.462c4.466,0,8.084-3.62,8.084-8.084V81.381C322.29,76.916,318.672,73.297,314.206,73.297z" id="el_XcI249iQg8"/>
<path d="M12.396,73.297c-4.465,0-8.084,3.62-8.084,8.084v340.615c0,4.465,3.62,8.084,8.084,8.084h60.901&#10;&#9;v73.836c0,3.251,1.947,6.185,4.942,7.448c1.014,0.428,2.081,0.636,3.14,0.636c2.068,0,4.104-0.793,5.643-2.294l80.59-78.524V73.297&#10;&#9;H12.396z" id="el_hdQeLSaUsi"/>
<g id="el_kkyB2NZS7K">
	<path d="M253.844,142.282H72.758c-4.465,0-8.084,3.62-8.084,8.084v25.869c0,4.465,3.62,8.084,8.084,8.084&#10;&#9;&#9;h181.086c4.466,0,8.084-3.62,8.084-8.084v-25.869C261.928,145.902,258.31,142.282,253.844,142.282z" id="el_eeIKw2nwAO"/>
	<path d="M253.844,228.514H72.758c-4.465,0-8.084,3.62-8.084,8.084v25.869c0,4.465,3.62,8.084,8.084,8.084&#10;&#9;&#9;h181.086c4.466,0,8.084-3.62,8.084-8.084v-25.869C261.928,232.133,258.31,228.514,253.844,228.514z" id="el_dj7e8szIMp"/>
	<path d="M253.844,314.745H72.758c-4.465,0-8.084,3.62-8.084,8.084v25.869c0,4.465,3.62,8.084,8.084,8.084&#10;&#9;&#9;h181.086c4.466,0,8.084-3.62,8.084-8.084v-25.869C261.928,318.365,258.31,314.745,253.844,314.745z" id="el_AyHS3-Fn0w"/>
</g>
<g id="el_OMztbdvrcP_boheZW1nK" data-animator-group="true" data-animator-type="2"><path d="M434.389,312.293c46.03-32.869,73.299-84.029,73.299-138.213C507.688,78.092,423.794,0,320.674,0&#10;&#9;C217.553,0,133.659,78.092,133.659,174.08s83.894,174.08,187.015,174.08c15.732,0,31.373-1.831,46.533-5.446l82.131,30.8&#10;&#9;c0.925,0.347,1.886,0.515,2.837,0.515c2.25,0,4.447-0.94,6.01-2.675c2.225-2.471,2.71-6.051,1.222-9.024L434.389,312.293z" id="el_OMztbdvrcP"/></g>
<g id="el_iVuplCTsXm_SntYF2cpE" data-animator-group="true" data-animator-type="2"><path d="M133.659,174.08c0,95.988,83.894,174.08,187.015,174.08V0C217.553,0,133.659,78.092,133.659,174.08z" id="el_iVuplCTsXm"/></g>
<g id="el_1zUcip9_3a_Lv1zWwxnh" data-animator-group="true" data-animator-type="2"><g id="el_1zUcip9_3a">
	<path d="M467.267,182.164c-4.466,0-8.084-3.62-8.084-8.084c0-19.045-4.607-37.349-13.693-54.402&#10;&#9;&#9;c-2.099-3.94-0.608-8.837,3.334-10.936c3.941-2.101,8.837-0.607,10.936,3.334c10.346,19.418,15.591,40.28,15.591,62.005&#10;&#9;&#9;C475.352,178.545,471.733,182.164,467.267,182.164z" id="el_vAo8eMYXLj"/>
	<path d="M426.303,89.577c-1.996,0-3.998-0.735-5.561-2.217c-26.428-25.057-61.966-38.855-100.069-38.855&#10;&#9;&#9;c-4.466,0-8.084-3.62-8.084-8.084s3.618-8.084,8.084-8.084c42.259,0,81.749,15.374,111.192,43.289&#10;&#9;&#9;c3.24,3.072,3.377,8.189,0.304,11.429C430.581,88.731,428.444,89.577,426.303,89.577z" id="el_ElrWY1wSmw"/>
	<path d="M312.051,155.217c-17.534,0-31.798,14.265-31.798,31.798s14.264,31.798,31.798,31.798&#10;&#9;&#9;s31.798-14.265,31.798-31.798S329.585,155.217,312.051,155.217z" id="el_DwrUNYmZlo"/>
	<path d="M398.282,155.217c-17.534,0-31.798,14.265-31.798,31.798s14.264,31.798,31.798,31.798&#10;&#9;&#9;c17.534,0,31.798-14.265,31.798-31.798S415.816,155.217,398.282,155.217z" id="el_0d3IWxruMZ"/>
	<path d="M225.819,155.217c-17.533,0-31.798,14.265-31.798,31.798s14.265,31.798,31.798,31.798&#10;&#9;&#9;s31.798-14.265,31.798-31.798S243.352,155.217,225.819,155.217z" id="el_H410fNEEpJ"/>
</g></g>
<g id="el_L7TI-GURw3">
</g>
<g id="el_kd35FRbf7r3">
</g>
<g id="el_qW82Acyo3gY">
</g>
<g id="el_NFKlWj5dALX">
</g>
<g id="el_BXpC2Rc9oBh">
</g>
<g id="el_ot5pHbHk0Ea">
</g>
<g id="el_Gw7ZaOlXqBC">
</g>
<g id="el_DRFgcRuTYkG">
</g>
<g id="el_0DXLDUfA9vI">
</g>
<g id="el_GYPqTKit4kD">
</g>
<g id="el_JqrBnrprIUX">
</g>
<g id="el_dF7fshJUmhH">
</g>
<g id="el_SasX0Wz_ETK">
</g>
<g id="el_tiQmsRc3hNr">
</g>
<g id="el_pnGTrmE8L08">
</g>
</svg>