<svg id="el_uMWTVMfpq" data-name="Layer 1" xmlns="http://www.w3.org/2000/svg" viewBox="0 0 485 269"><style>@-webkit-keyframes el_CDKTVwFE00_Gm_lx4G0Q_Animation{0%{-webkit-transform: translate(462.0050048828125px, 101.52000427246094px) scale(1, 1) translate(-462.0050048828125px, -101.52000427246094px);transform: translate(462.0050048828125px, 101.52000427246094px) scale(1, 1) translate(-462.0050048828125px, -101.52000427246094px);}16.67%{-webkit-transform: translate(462.0050048828125px, 101.52000427246094px) scale(1, 0.8) translate(-462.0050048828125px, -101.52000427246094px);transform: translate(462.0050048828125px, 101.52000427246094px) scale(1, 0.8) translate(-462.0050048828125px, -101.52000427246094px);}33.33%{-webkit-transform: translate(462.0050048828125px, 101.52000427246094px) scale(1, 0.9) translate(-462.0050048828125px, -101.52000427246094px);transform: translate(462.0050048828125px, 101.52000427246094px) scale(1, 0.9) translate(-462.0050048828125px, -101.52000427246094px);}56.67%{-webkit-transform: translate(462.0050048828125px, 101.52000427246094px) scale(1, 0.7) translate(-462.0050048828125px, -101.52000427246094px);transform: translate(462.0050048828125px, 101.52000427246094px) scale(1, 0.7) translate(-462.0050048828125px, -101.52000427246094px);}85.56%{-webkit-transform: translate(462.0050048828125px, 101.52000427246094px) scale(1, 1) translate(-462.0050048828125px, -101.52000427246094px);transform: translate(462.0050048828125px, 101.52000427246094px) scale(1, 1) translate(-462.0050048828125px, -101.52000427246094px);}100%{-webkit-transform: translate(462.0050048828125px, 101.52000427246094px) scale(1, 1) translate(-462.0050048828125px, -101.52000427246094px);transform: translate(462.0050048828125px, 101.52000427246094px) scale(1, 1) translate(-462.0050048828125px, -101.52000427246094px);}}@keyframes el_CDKTVwFE00_Gm_lx4G0Q_Animation{0%{-webkit-transform: translate(462.0050048828125px, 101.52000427246094px) scale(1, 1) translate(-462.0050048828125px, -101.52000427246094px);transform: translate(462.0050048828125px, 101.52000427246094px) scale(1, 1) translate(-462.0050048828125px, -101.52000427246094px);}16.67%{-webkit-transform: translate(462.0050048828125px, 101.52000427246094px) scale(1, 0.8) translate(-462.0050048828125px, -101.52000427246094px);transform: translate(462.0050048828125px, 101.52000427246094px) scale(1, 0.8) translate(-462.0050048828125px, -101.52000427246094px);}33.33%{-webkit-transform: translate(462.0050048828125px, 101.52000427246094px) scale(1, 0.9) translate(-462.0050048828125px, -101.52000427246094px);transform: translate(462.0050048828125px, 101.52000427246094px) scale(1, 0.9) translate(-462.0050048828125px, -101.52000427246094px);}56.67%{-webkit-transform: translate(462.0050048828125px, 101.52000427246094px) scale(1, 0.7) translate(-462.0050048828125px, -101.52000427246094px);transform: translate(462.0050048828125px, 101.52000427246094px) scale(1, 0.7) translate(-462.0050048828125px, -101.52000427246094px);}85.56%{-webkit-transform: translate(462.0050048828125px, 101.52000427246094px) scale(1, 1) translate(-462.0050048828125px, -101.52000427246094px);transform: translate(462.0050048828125px, 101.52000427246094px) scale(1, 1) translate(-462.0050048828125px, -101.52000427246094px);}100%{-webkit-transform: translate(462.0050048828125px, 101.52000427246094px) scale(1, 1) translate(-462.0050048828125px, -101.52000427246094px);transform: translate(462.0050048828125px, 101.52000427246094px) scale(1, 1) translate(-462.0050048828125px, -101.52000427246094px);}}@-webkit-keyframes el_CfGnUdtoj6_E0ET6MiTi_Animation{0%{-webkit-transform: translate(412.4449920654297px, 116.0250015258789px) scale(1, 0.9) translate(-412.4449920654297px, -116.0250015258789px);transform: translate(412.4449920654297px, 116.0250015258789px) scale(1, 0.9) translate(-412.4449920654297px, -116.0250015258789px);}96.67%{-webkit-transform: translate(412.4449920654297px, 116.0250015258789px) scale(1, 1.2) translate(-412.4449920654297px, -116.0250015258789px);transform: translate(412.4449920654297px, 116.0250015258789px) scale(1, 1.2) translate(-412.4449920654297px, -116.0250015258789px);}100%{-webkit-transform: translate(412.4449920654297px, 116.0250015258789px) scale(1, 1.2) translate(-412.4449920654297px, -116.0250015258789px);transform: translate(412.4449920654297px, 116.0250015258789px) scale(1, 1.2) translate(-412.4449920654297px, -116.0250015258789px);}}@keyframes el_CfGnUdtoj6_E0ET6MiTi_Animation{0%{-webkit-transform: translate(412.4449920654297px, 116.0250015258789px) scale(1, 0.9) translate(-412.4449920654297px, -116.0250015258789px);transform: translate(412.4449920654297px, 116.0250015258789px) scale(1, 0.9) translate(-412.4449920654297px, -116.0250015258789px);}96.67%{-webkit-transform: translate(412.4449920654297px, 116.0250015258789px) scale(1, 1.2) translate(-412.4449920654297px, -116.0250015258789px);transform: translate(412.4449920654297px, 116.0250015258789px) scale(1, 1.2) translate(-412.4449920654297px, -116.0250015258789px);}100%{-webkit-transform: translate(412.4449920654297px, 116.0250015258789px) scale(1, 1.2) translate(-412.4449920654297px, -116.0250015258789px);transform: translate(412.4449920654297px, 116.0250015258789px) scale(1, 1.2) translate(-412.4449920654297px, -116.0250015258789px);}}@-webkit-keyframes el_F02rXZ1EQs_XOlKDf-PK_Animation{0%{-webkit-transform: translate(257.81500244140625px, 121.48999786376953px) scale(1, 1) translate(-257.81500244140625px, -121.48999786376953px);transform: translate(257.81500244140625px, 121.48999786376953px) scale(1, 1) translate(-257.81500244140625px, -121.48999786376953px);}50%{-webkit-transform: translate(257.81500244140625px, 121.48999786376953px) scale(1, 1.3) translate(-257.81500244140625px, -121.48999786376953px);transform: translate(257.81500244140625px, 121.48999786376953px) scale(1, 1.3) translate(-257.81500244140625px, -121.48999786376953px);}74.44%{-webkit-transform: translate(257.81500244140625px, 121.48999786376953px) scale(1, 1.2) translate(-257.81500244140625px, -121.48999786376953px);transform: translate(257.81500244140625px, 121.48999786376953px) scale(1, 1.2) translate(-257.81500244140625px, -121.48999786376953px);}100%{-webkit-transform: translate(257.81500244140625px, 121.48999786376953px) scale(1, 1.2) translate(-257.81500244140625px, -121.48999786376953px);transform: translate(257.81500244140625px, 121.48999786376953px) scale(1, 1.2) translate(-257.81500244140625px, -121.48999786376953px);}}@keyframes el_F02rXZ1EQs_XOlKDf-PK_Animation{0%{-webkit-transform: translate(257.81500244140625px, 121.48999786376953px) scale(1, 1) translate(-257.81500244140625px, -121.48999786376953px);transform: translate(257.81500244140625px, 121.48999786376953px) scale(1, 1) translate(-257.81500244140625px, -121.48999786376953px);}50%{-webkit-transform: translate(257.81500244140625px, 121.48999786376953px) scale(1, 1.3) translate(-257.81500244140625px, -121.48999786376953px);transform: translate(257.81500244140625px, 121.48999786376953px) scale(1, 1.3) translate(-257.81500244140625px, -121.48999786376953px);}74.44%{-webkit-transform: translate(257.81500244140625px, 121.48999786376953px) scale(1, 1.2) translate(-257.81500244140625px, -121.48999786376953px);transform: translate(257.81500244140625px, 121.48999786376953px) scale(1, 1.2) translate(-257.81500244140625px, -121.48999786376953px);}100%{-webkit-transform: translate(257.81500244140625px, 121.48999786376953px) scale(1, 1.2) translate(-257.81500244140625px, -121.48999786376953px);transform: translate(257.81500244140625px, 121.48999786376953px) scale(1, 1.2) translate(-257.81500244140625px, -121.48999786376953px);}}@-webkit-keyframes el_EQR5jiUQZK_haDe-NLtj_Animation{0%{-webkit-transform: translate(309.54498291015625px, 125.80000305175781px) scale(1, 1) translate(-309.54498291015625px, -125.80000305175781px);transform: translate(309.54498291015625px, 125.80000305175781px) scale(1, 1) translate(-309.54498291015625px, -125.80000305175781px);}16.67%{-webkit-transform: translate(309.54498291015625px, 125.80000305175781px) scale(1, 1.2) translate(-309.54498291015625px, -125.80000305175781px);transform: translate(309.54498291015625px, 125.80000305175781px) scale(1, 1.2) translate(-309.54498291015625px, -125.80000305175781px);}40%{-webkit-transform: translate(309.54498291015625px, 125.80000305175781px) scale(1, 0.8) translate(-309.54498291015625px, -125.80000305175781px);transform: translate(309.54498291015625px, 125.80000305175781px) scale(1, 0.8) translate(-309.54498291015625px, -125.80000305175781px);}67.78%{-webkit-transform: translate(309.54498291015625px, 125.80000305175781px) scale(1, 1.2) translate(-309.54498291015625px, -125.80000305175781px);transform: translate(309.54498291015625px, 125.80000305175781px) scale(1, 1.2) translate(-309.54498291015625px, -125.80000305175781px);}96.67%{-webkit-transform: translate(309.54498291015625px, 125.80000305175781px) scale(1, 1.1) translate(-309.54498291015625px, -125.80000305175781px);transform: translate(309.54498291015625px, 125.80000305175781px) scale(1, 1.1) translate(-309.54498291015625px, -125.80000305175781px);}100%{-webkit-transform: translate(309.54498291015625px, 125.80000305175781px) scale(1, 1.1) translate(-309.54498291015625px, -125.80000305175781px);transform: translate(309.54498291015625px, 125.80000305175781px) scale(1, 1.1) translate(-309.54498291015625px, -125.80000305175781px);}}@keyframes el_EQR5jiUQZK_haDe-NLtj_Animation{0%{-webkit-transform: translate(309.54498291015625px, 125.80000305175781px) scale(1, 1) translate(-309.54498291015625px, -125.80000305175781px);transform: translate(309.54498291015625px, 125.80000305175781px) scale(1, 1) translate(-309.54498291015625px, -125.80000305175781px);}16.67%{-webkit-transform: translate(309.54498291015625px, 125.80000305175781px) scale(1, 1.2) translate(-309.54498291015625px, -125.80000305175781px);transform: translate(309.54498291015625px, 125.80000305175781px) scale(1, 1.2) translate(-309.54498291015625px, -125.80000305175781px);}40%{-webkit-transform: translate(309.54498291015625px, 125.80000305175781px) scale(1, 0.8) translate(-309.54498291015625px, -125.80000305175781px);transform: translate(309.54498291015625px, 125.80000305175781px) scale(1, 0.8) translate(-309.54498291015625px, -125.80000305175781px);}67.78%{-webkit-transform: translate(309.54498291015625px, 125.80000305175781px) scale(1, 1.2) translate(-309.54498291015625px, -125.80000305175781px);transform: translate(309.54498291015625px, 125.80000305175781px) scale(1, 1.2) translate(-309.54498291015625px, -125.80000305175781px);}96.67%{-webkit-transform: translate(309.54498291015625px, 125.80000305175781px) scale(1, 1.1) translate(-309.54498291015625px, -125.80000305175781px);transform: translate(309.54498291015625px, 125.80000305175781px) scale(1, 1.1) translate(-309.54498291015625px, -125.80000305175781px);}100%{-webkit-transform: translate(309.54498291015625px, 125.80000305175781px) scale(1, 1.1) translate(-309.54498291015625px, -125.80000305175781px);transform: translate(309.54498291015625px, 125.80000305175781px) scale(1, 1.1) translate(-309.54498291015625px, -125.80000305175781px);}}@-webkit-keyframes el_xoC4OYzhak_eg-0MYrSk_Animation{0%{-webkit-transform: translate(361.3199920654297px, 112.86492538452148px) scale(1, 1) translate(-361.3199920654297px, -112.86492538452148px);transform: translate(361.3199920654297px, 112.86492538452148px) scale(1, 1) translate(-361.3199920654297px, -112.86492538452148px);}50%{-webkit-transform: translate(361.3199920654297px, 112.86492538452148px) scale(1, 0.5) translate(-361.3199920654297px, -112.86492538452148px);transform: translate(361.3199920654297px, 112.86492538452148px) scale(1, 0.5) translate(-361.3199920654297px, -112.86492538452148px);}100%{-webkit-transform: translate(361.3199920654297px, 112.86492538452148px) scale(1, 1) translate(-361.3199920654297px, -112.86492538452148px);transform: translate(361.3199920654297px, 112.86492538452148px) scale(1, 1) translate(-361.3199920654297px, -112.86492538452148px);}}@keyframes el_xoC4OYzhak_eg-0MYrSk_Animation{0%{-webkit-transform: translate(361.3199920654297px, 112.86492538452148px) scale(1, 1) translate(-361.3199920654297px, -112.86492538452148px);transform: translate(361.3199920654297px, 112.86492538452148px) scale(1, 1) translate(-361.3199920654297px, -112.86492538452148px);}50%{-webkit-transform: translate(361.3199920654297px, 112.86492538452148px) scale(1, 0.5) translate(-361.3199920654297px, -112.86492538452148px);transform: translate(361.3199920654297px, 112.86492538452148px) scale(1, 0.5) translate(-361.3199920654297px, -112.86492538452148px);}100%{-webkit-transform: translate(361.3199920654297px, 112.86492538452148px) scale(1, 1) translate(-361.3199920654297px, -112.86492538452148px);transform: translate(361.3199920654297px, 112.86492538452148px) scale(1, 1) translate(-361.3199920654297px, -112.86492538452148px);}}#el_uMWTVMfpq *{-webkit-animation-duration: 3s;animation-duration: 3s;-webkit-animation-iteration-count: infinite;animation-iteration-count: infinite;-webkit-animation-timing-function: cubic-bezier(0, 0, 1, 1);animation-timing-function: cubic-bezier(0, 0, 1, 1);}#el_CDKTVwFE00{fill: #0095aa;-webkit-transform: translate(-30.5px, -42.32px);transform: translate(-30.5px, -42.32px);}#el_CfGnUdtoj6{fill: #ef373f;-webkit-transform: translate(-30.5px, -42.32px);transform: translate(-30.5px, -42.32px);}#el_F02rXZ1EQs{fill: #9baaab;-webkit-transform: translate(-30.5px, -42.32px);transform: translate(-30.5px, -42.32px);}#el_EQR5jiUQZK{fill: #5ac7d2;-webkit-transform: translate(-30.5px, -42.32px);transform: translate(-30.5px, -42.32px);}#el_xoC4OYzhak{fill: #f68c31;-webkit-transform: translate(-30.5px, -42.32px);transform: translate(-30.5px, -42.32px);}#el_voOr9r95LR{fill: #375659;-webkit-transform: translate(-30.5px, -42.32px);transform: translate(-30.5px, -42.32px);}#el_7jN0OeXiaB{fill: #0095aa;-webkit-transform: translate(-30.5px, -42.32px);transform: translate(-30.5px, -42.32px);}#el_j1fFsNiELE{fill: #5ac7d2;-webkit-transform: translate(-30.5px, -42.32px);transform: translate(-30.5px, -42.32px);}#el_jrVBxlJnvK{fill: #f36b39;-webkit-transform: translate(-30.5px, -42.32px);transform: translate(-30.5px, -42.32px);}#el_-cg4oI6gu2{fill: #0095aa;-webkit-transform: translate(-30.5px, -42.32px);transform: translate(-30.5px, -42.32px);}#el_P3YubhbX92{fill: #0095aa;-webkit-transform: translate(-30.5px, -42.32px);transform: translate(-30.5px, -42.32px);}#el_Ff1sVXSDR4{fill: #0095aa;-webkit-transform: translate(-30.5px, -42.32px);transform: translate(-30.5px, -42.32px);}#el_G6HYoV3Hc7a{fill: #0095aa;-webkit-transform: translate(-30.5px, -42.32px);transform: translate(-30.5px, -42.32px);}#el_eCNLwIwSl5Y{fill: #0095aa;-webkit-transform: translate(-30.5px, -42.32px);transform: translate(-30.5px, -42.32px);}#el_Hala10hZ9yM{fill: #0095aa;-webkit-transform: translate(-30.5px, -42.32px);transform: translate(-30.5px, -42.32px);}#el_eUmST4VlNVt{fill: #375659;font-size: 29.84px;font-family: Muli-Bold, Muli;font-weight: 700;-webkit-transform: translate(31.46px, 249.28px);transform: translate(31.46px, 249.28px);}#el_pAoJh6wKEhC{fill: #9baaab;-webkit-transform: translate(-30.5px, -42.32px);transform: translate(-30.5px, -42.32px);}#el_GJ9oPmq3DGU{fill: #f68c31;opacity: 0.7;}#el_hpl691LWD30{fill: #f68c31;opacity: 0.7;}#el__KpHQ9o34zT{fill: #f68c31;opacity: 0.7;}#el_JmXjNNh1xHR{fill: #f68c31;opacity: 0.7;}#el_rmXRVcrGZxw{fill: #f68c31;opacity: 0.7;}#el_2v8Z-Qjo8Xg{fill: #f68c31;opacity: 0.7;}#el_-gA8zPPfjaG{fill: #f68c31;opacity: 0.7;}#el__9x099ms_nm{fill: #375659;opacity: 0.3;}#el_IzxAggWI4sJ{fill: #375659;opacity: 0.3;}#el_5XSid1Cyl4S{fill: #375659;opacity: 0.3;}#el_8mIIBC_T-Op{fill: #375659;opacity: 0.3;}#el_r1xnQj8-HOn{fill: #375659;opacity: 0.3;}#el_EheyOlJJW4e{fill: #375659;opacity: 0.3;}#el_pE2y0BMChKo{fill: #375659;opacity: 0.3;}#el_BQZfUCSNpVv{fill: #375659;opacity: 0.3;}#el_cvEMiZji2zo{fill: #375659;opacity: 0.5;}#el_xoC4OYzhak_eg-0MYrSk{-webkit-animation-name: el_xoC4OYzhak_eg-0MYrSk_Animation;animation-name: el_xoC4OYzhak_eg-0MYrSk_Animation;-webkit-transform: translate(361.3199920654297px, 112.86492538452148px) scale(1, 1) translate(-361.3199920654297px, -112.86492538452148px);transform: translate(361.3199920654297px, 112.86492538452148px) scale(1, 1) translate(-361.3199920654297px, -112.86492538452148px);}#el_EQR5jiUQZK_haDe-NLtj{-webkit-animation-name: el_EQR5jiUQZK_haDe-NLtj_Animation;animation-name: el_EQR5jiUQZK_haDe-NLtj_Animation;-webkit-transform: translate(309.54498291015625px, 125.80000305175781px) scale(1, 1) translate(-309.54498291015625px, -125.80000305175781px);transform: translate(309.54498291015625px, 125.80000305175781px) scale(1, 1) translate(-309.54498291015625px, -125.80000305175781px);}#el_F02rXZ1EQs_XOlKDf-PK{-webkit-animation-name: el_F02rXZ1EQs_XOlKDf-PK_Animation;animation-name: el_F02rXZ1EQs_XOlKDf-PK_Animation;-webkit-transform: translate(257.81500244140625px, 121.48999786376953px) scale(1, 1) translate(-257.81500244140625px, -121.48999786376953px);transform: translate(257.81500244140625px, 121.48999786376953px) scale(1, 1) translate(-257.81500244140625px, -121.48999786376953px);}#el_CfGnUdtoj6_E0ET6MiTi{-webkit-animation-name: el_CfGnUdtoj6_E0ET6MiTi_Animation;animation-name: el_CfGnUdtoj6_E0ET6MiTi_Animation;-webkit-transform: translate(412.4449920654297px, 116.0250015258789px) scale(1, 0.9) translate(-412.4449920654297px, -116.0250015258789px);transform: translate(412.4449920654297px, 116.0250015258789px) scale(1, 0.9) translate(-412.4449920654297px, -116.0250015258789px);}#el_CDKTVwFE00_Gm_lx4G0Q{-webkit-animation-name: el_CDKTVwFE00_Gm_lx4G0Q_Animation;animation-name: el_CDKTVwFE00_Gm_lx4G0Q_Animation;-webkit-transform: translate(462.0050048828125px, 101.52000427246094px) scale(1, 1) translate(-462.0050048828125px, -101.52000427246094px);transform: translate(462.0050048828125px, 101.52000427246094px) scale(1, 1) translate(-462.0050048828125px, -101.52000427246094px);}</style><defs/><title>analytics</title><g id="el_I37juPMR3i"><g id="el_CDKTVwFE00_Gm_lx4G0Q" data-animator-group="true" data-animator-type="2"><path d="M474.94,43.87H449.07a5.39,5.39,0,0,0-5.39,5.39V153.79a5.39,5.39,0,0,0,5.39,5.38h25.87a5.38,5.38,0,0,0,5.39-5.38V49.26A5.39,5.39,0,0,0,474.94,43.87Z" id="el_CDKTVwFE00"/></g><g id="el_CfGnUdtoj6_E0ET6MiTi" data-animator-group="true" data-animator-type="2"><path d="M425.38,71.3H399.51a5.4,5.4,0,0,0-5.39,5.39v78.67a5.4,5.4,0,0,0,5.39,5.39h25.87a5.39,5.39,0,0,0,5.39-5.39V76.69A5.39,5.39,0,0,0,425.38,71.3Z" id="el_CfGnUdtoj6"/></g><g id="el_F02rXZ1EQs_XOlKDf-PK" data-animator-group="true" data-animator-type="2"><path d="M270.75,80.18H244.88a5.39,5.39,0,0,0-5.39,5.38v71.85a5.39,5.39,0,0,0,5.39,5.39h25.87a5.39,5.39,0,0,0,5.39-5.39V85.56A5.39,5.39,0,0,0,270.75,80.18Z" id="el_F02rXZ1EQs"/></g><g id="el_EQR5jiUQZK_haDe-NLtj" data-animator-group="true" data-animator-type="2"><path d="M322.48,88.8H296.61a5.39,5.39,0,0,0-5.39,5.39v63.22a5.39,5.39,0,0,0,5.39,5.39h25.87a5.39,5.39,0,0,0,5.39-5.39V94.19A5.39,5.39,0,0,0,322.48,88.8Z" id="el_EQR5jiUQZK"/></g><g id="el_xoC4OYzhak_eg-0MYrSk" data-animator-group="true" data-animator-type="2"><path d="M374.21,62.93H348.35A5.39,5.39,0,0,0,343,68.32v89.09a5.39,5.39,0,0,0,5.39,5.39h25.86a5.39,5.39,0,0,0,5.39-5.39V68.32A5.39,5.39,0,0,0,374.21,62.93Z" id="el_xoC4OYzhak"/></g></g><path d="M495.3,164.35H224.64c-3,0-5.39-1.95-5.39-4.36s2.41-4.36,5.39-4.36H495.3c3,0,5.38,2,5.38,4.36S498.27,164.35,495.3,164.35Z" id="el_voOr9r95LR"/><g id="el__Cw8lqk2Rh"><path d="M111.93,112.82a3.08,3.08,0,0,1-.66-1.81V42.32a68.8,68.8,0,1,0,41,126.13l-40.4-55.6Z" id="el_7jN0OeXiaB"/><path d="M117.38,42.6v64.28l60.5-21.79A68.85,68.85,0,0,0,117.38,42.6Z" id="el_j1fFsNiELE"/><path d="M179.26,90.07,118.45,112l38,52.22a68.92,68.92,0,0,0,22.84-74.11Z" id="el_jrVBxlJnvK"/></g><g id="el_zquhDctNU6"><path d="M145.53,233.3a12.76,12.76,0,1,0-12.75-12.75A12.77,12.77,0,0,0,145.53,233.3Z" id="el_-cg4oI6gu2"/><path d="M146.09,233.83a15.73,15.73,0,0,0-15.72,15.71v.05l.16,7.45a2.1,2.1,0,0,0,2.11,2h27.07a2.1,2.1,0,0,0,2.1-2.1v-7.45A15.73,15.73,0,0,0,146.09,233.83Z" id="el_P3YubhbX92"/><path d="M109.63,233.3a12.76,12.76,0,1,0-12.76-12.75A12.76,12.76,0,0,0,109.63,233.3Z" id="el_Ff1sVXSDR4"/><path d="M110.19,233.83a15.73,15.73,0,0,0-15.72,15.71v.05l.16,7.45a2.1,2.1,0,0,0,2.1,2H123.8a2.1,2.1,0,0,0,2.11-2.1v-7.45A15.73,15.73,0,0,0,110.19,233.83Z" id="el_G6HYoV3Hc7a"/><path d="M72.62,233.3a12.76,12.76,0,1,0-12.75-12.75A12.77,12.77,0,0,0,72.62,233.3Z" id="el_eCNLwIwSl5Y"/><path d="M73.19,233.83a15.73,15.73,0,0,0-15.72,15.71v.05l.16,7.45a2.1,2.1,0,0,0,2.1,2H86.8a2.1,2.1,0,0,0,2.1-2.1v-7.45A15.73,15.73,0,0,0,73.19,233.83Z" id="el_Hala10hZ9yM"/></g><text id="el_eUmST4VlNVt">5,000+</text><path d="M307.29,205l3.69.12a.32.32,0,0,0,.21-.08h0a2.28,2.28,0,0,1,2.49-.36l.88.41a.27.27,0,0,0,.12,0H320a.31.31,0,0,0,.24-.13l1-1.39a.29.29,0,0,0-.07-.41l-1.63-1.2a.3.3,0,0,1-.12-.3l.32-1.47A.29.29,0,0,1,320,200h1.68a.3.3,0,0,1,.29.23l.48,2a.19.19,0,0,0,0,.09l1.08,1.74a.3.3,0,0,0,.5,0l.31-.44a.29.29,0,0,1,.53.1l.38,1.6a.31.31,0,0,0,.53.12L327,204a.29.29,0,0,0,0-.3l-.36-.85a.3.3,0,0,1,.37-.4l2.48.82a.31.31,0,0,1,.08.53l-.26.18a.31.31,0,0,0-.09.39l.58,1.05a.3.3,0,0,1-.06.36l-1.57,1.46a.31.31,0,0,0-.08.33l.51,1.23a.27.27,0,0,1-.09.34l-1,.81a.29.29,0,0,1-.35,0l-.88-.58a.29.29,0,0,1-.13-.29l.09-.63a.3.3,0,0,0-.53-.22l-.37.45a.46.46,0,0,1-.07.07l-1.46.9a.29.29,0,0,0-.1.41l.2.32a.3.3,0,0,1-.28.46l-.9-.08a.34.34,0,0,0-.22.07l-1.94,1.7a.3.3,0,0,0-.1.28l.3,1.68a.3.3,0,0,0,.46.2h0a.29.29,0,0,1,.46.23l.08,1.3a.3.3,0,0,0,.37.27l.79-.18a.29.29,0,0,1,.16,0l5.43,1.68a.3.3,0,0,1,.2.23l.35,2a.29.29,0,0,0,.13.19l1.66,1.18a.3.3,0,0,0,.47-.28l-.21-2.18,1.84-1.59a.32.32,0,0,0,.06-.39L331.65,215a.29.29,0,0,1,0-.37l.74-.74a.3.3,0,0,0,0-.38l-1.27-1.9a.3.3,0,0,1,.16-.45l2.88-.92a.26.26,0,0,1,.23,0l3.6,1.86a.29.29,0,0,1,.15.34l-.31,1.26a.29.29,0,0,0,0,.24l.6.9a.3.3,0,0,0,.37.11l1.54-.66a.31.31,0,0,0,.17-.17l.37-1a.3.3,0,0,1,.55,0l1.82,4a.31.31,0,0,0,.15.15l2.06.9,3.1,2.25a.29.29,0,0,1,0,.48l-1.78,1.39a.31.31,0,0,1-.1,0l-2.64.81a.19.19,0,0,0-.08,0l-2.5,1.63a.3.3,0,0,0-.12.36l.42,1.09a.3.3,0,0,0,.34.19l2.14-.37a.3.3,0,0,1,.35.29v.72a.29.29,0,0,1-.23.29l-2.08.52a.35.35,0,0,0-.13.08l-1.5,1.41a.31.31,0,0,1-.5-.13l-.16-.5a.29.29,0,0,1,0-.24l.41-.76a.3.3,0,0,0-.36-.43l-2.36.78a.35.35,0,0,0-.19.19L337,230.1a.29.29,0,0,1-.17.19L335,231a.31.31,0,0,0-.18.21l-.89,3.89a.29.29,0,0,1-.15.19l-3.38,1.86a.31.31,0,0,0-.15.32l.77,4.08a.31.31,0,0,1,0,.21l-.48.82a.31.31,0,0,1-.54,0L328.83,240a.28.28,0,0,0-.24-.18l-4.43-.6a.3.3,0,0,0-.29.46h0a.3.3,0,0,1-.36.44l-1.85-.69a.3.3,0,0,0-.3.05l-3.4,2.85a.31.31,0,0,0-.09.33l1.54,4.41a.3.3,0,0,0,.23.19l2.51.52a.27.27,0,0,0,.29-.1l1.13-1.44a.37.37,0,0,1,.18-.11l1.87-.37a.3.3,0,0,1,.36.32l-.29,3.1a.3.3,0,0,0,.28.33l2.46.19a.31.31,0,0,1,.27.36l-.54,2.88,1,1.55,3.41.2a1.33,1.33,0,0,0,1.07-.43l.8-.88a1.34,1.34,0,0,1,1-.44h1.85a1.32,1.32,0,0,1,.74.23l.46.3a1.34,1.34,0,0,0,1.1.18l2-.57a1.33,1.33,0,0,1,1,.09l7.41,3.71a1.31,1.31,0,0,1,.62.65l1.08,2.47a1.35,1.35,0,0,0,.87.76l9.55,2.62a1.32,1.32,0,0,1,1,1.28v2.24a1.32,1.32,0,0,1-.55,1.08l-2.29,1.68a1.28,1.28,0,0,0-.52.86l-.88,5.42a1.32,1.32,0,0,1-.91,1.06l-4.12,1.32a1.33,1.33,0,0,0-.81.71l-2.92,6.4a1.32,1.32,0,0,1-1.11.77l-.82.07a1.33,1.33,0,0,0-1.24,1.33h0a1.33,1.33,0,0,1-.61,1.12l-4.46,2.86a1.32,1.32,0,0,0-.54.67l-2.53,7a1.33,1.33,0,0,0,0,.86l.61,1.92a1.34,1.34,0,0,1-1.67,1.68l-.93-.3a1.33,1.33,0,0,1-.91-1l-1.56-8.38a1.31,1.31,0,0,1,0-.44l1.71-11.36,1.18-7.44a1.34,1.34,0,0,0-.6-1.33l-2.07-1.33a1.27,1.27,0,0,1-.41-.42l-3.82-6.23a1.37,1.37,0,0,1-.2-.62l-.15-2.43a1.34,1.34,0,0,1,.54-1.16l2.15-1.57a1.36,1.36,0,0,0,.54-1.08v-1.27a1.33,1.33,0,0,0-1.33-1.33h-1.19a1.39,1.39,0,0,1-.6-.14l-2.77-1.39-1.53-2.4H323l-2.15-1.72-.09,0-7-2.35a.31.31,0,0,1-.17-.13l-3.94-6.47a.31.31,0,0,0-.55.26l.46,1.3a.31.31,0,0,1-.53.29l-4.11-5.33-5-6.77,1.09-7-6.33-3.72-3.71-5.24-6.35-2.11a.64.64,0,0,0-.41,0l-6.47,2.09a.69.69,0,0,1-.2,0h-2.11a.68.68,0,0,1-.36-.1l-4-2.63a.66.66,0,0,1,0-1.1l2.8-1.86a.66.66,0,0,0-.08-1.14l-.93-.44a.66.66,0,0,1,.29-1.25h0a.65.65,0,0,0,.29-1.24l-1.75-.87a.66.66,0,0,1,.1-1.21l3.94-1.24a9.33,9.33,0,0,1,4.39-.3l9.31,1.57a8.72,8.72,0,0,0,5.11-.67h0a8.69,8.69,0,0,1,5.77-.53l6.44,1.61a.32.32,0,0,1,.23.23l.12.71A.32.32,0,0,0,307.29,205Zm17.82-6.8-.14.42a1.37,1.37,0,0,0,.9,1.77l5.27,1.55a1.6,1.6,0,0,1,.45.23l1.74,1.35a1.42,1.42,0,0,1,.53,1l.18,3.11a1.39,1.39,0,0,0,.69,1.11l4.36,2.5a1.37,1.37,0,0,0,2-.67l.52-1.29a1.34,1.34,0,0,1,.28-.42l1.07-1.12a1.37,1.37,0,0,0-.54-2.24l-1.69-.6a1.37,1.37,0,0,1-.91-1.29h0a1.36,1.36,0,0,0-.68-1.18l-4-2.33a1.64,1.64,0,0,1-.35-.29l-1.74-2a1.38,1.38,0,0,0-1-.48h-5.56A1.39,1.39,0,0,0,325.11,198.18Zm-3.15-.92h-.89a.76.76,0,0,0-.77.77v.35a.76.76,0,0,0,.77.77h.57a.79.79,0,0,0,.58-.25l.31-.36A.77.77,0,0,0,322,197.26Zm-3.56,3.15.79-.92a.78.78,0,0,0,.15-.76l-.3-.81a.75.75,0,0,0-.91-.49l-1.79.45a.76.76,0,0,0-.35,1.29l1.28,1.29A.78.78,0,0,0,318.4,200.41Zm-10.51-2.27-6.43-1.46a1.38,1.38,0,0,0-1.52.72l-.39.79a1.36,1.36,0,0,0,.34,1.65l.27.22a1.37,1.37,0,0,0,1.2.28l1-.25a1.34,1.34,0,0,1,1,.12l1.41.75a1.61,1.61,0,0,1,.3.21l2.14,2.05a1.38,1.38,0,0,0,1.3.33l2.79-.77a1.38,1.38,0,0,1,.78,0l2.4.77a1.37,1.37,0,0,0,1.12-.13h0a1.36,1.36,0,0,0,.12-2.24l-1.22-.94a1.38,1.38,0,0,1-.49-.75l-.25-1a1.36,1.36,0,0,0-1.56-1l-3.72.67A1.23,1.23,0,0,1,307.89,198.14Zm-5.5-3.92,5,2.15a.69.69,0,0,0,.4,0l3.56-.76a.66.66,0,0,0,0-1.28l-3.13-.73-.14-.06-2.94-1.45a.64.64,0,0,0-.54,0l-2.21.91A.66.66,0,0,0,302.39,194.22Zm5.29-2.26.16.19a.78.78,0,0,0,.8.24l1.63-.45a.77.77,0,0,0,.56-.74V191a.76.76,0,0,0-1-.74l-1.79.49A.77.77,0,0,0,307.68,192Zm7.75,1.86,1.65,1.76a.72.72,0,0,0,.43.24l2.35.39a.77.77,0,0,0,.83-1.06l-.19-.46a.76.76,0,0,0-.71-.47h-.66a.78.78,0,0,1-.68-.4l-.5-.9a.79.79,0,0,0-.67-.39H316A.77.77,0,0,0,315.43,193.82Zm7.5,2.63h8.18a.28.28,0,0,0,.27-.28v-1.43a.28.28,0,0,0-.24-.28l-2.27-.24h-.11l-3.39,1a.28.28,0,0,1-.32-.12l-.41-.68a.28.28,0,0,1,.12-.39l1.14-.57a.41.41,0,0,1,.16,0l5.83.7a.28.28,0,0,0,.31-.28v-1.25a.29.29,0,0,1,.09-.21l2.21-2a.27.27,0,0,0-.19-.48h0a.28.28,0,0,1-.1-.54l2-.81h0l3.49-1.88h0l3.78-1.56a.28.28,0,0,0-.05-.53l-8-1.82a.48.48,0,0,0-.12,0l-12.08,2.32a.28.28,0,0,0-.13.48l1.25,1.06a.44.44,0,0,0,.16.06l4.46.39a.14.14,0,0,0,.09,0l.92-.25a.28.28,0,0,1,.21.51L329,188a.35.35,0,0,1-.11,0l-2.18.13-.11,0-3.83-1.32-.07,0-1.33-1a.26.26,0,0,0-.27,0l-3,1.27a.27.27,0,0,0-.1.44l2.25,2.37a.26.26,0,0,0,.11.07l3.21,1.22a.26.26,0,0,0,.21,0l2.26-1.08a.28.28,0,0,1,.35.41l-1.05,1.42a.39.39,0,0,1-.1.08l-2.39,1.26a.29.29,0,0,1-.24,0l-2.74-1.14a.27.27,0,0,0-.38.25v.85a.27.27,0,0,0,.21.27l2.13.51a.29.29,0,0,1,.2.19l.64,2A.28.28,0,0,0,322.93,196.45ZM313.52,191h0a.72.72,0,0,0,.45.26l2.12.39a.77.77,0,0,0,.81-1.14l-.14-.23a.75.75,0,0,0-.6-.38l-2-.16A.77.77,0,0,0,313.52,191Zm4.83-.37,0,.08a.77.77,0,0,0,.72.5h.06a.77.77,0,0,0,.62-1.23l-.06-.08a.77.77,0,0,0-.62-.31h0A.77.77,0,0,0,318.35,190.66Zm20.76,3.58,4.85.23a1.09,1.09,0,0,1,.7.3l5.25,5.08a1.1,1.1,0,0,1,.32.61l1.64,10.44a1.08,1.08,0,0,0,.26.55l1.45,1.65a1.1,1.1,0,0,0,1.81-.26l1.94-4.14a1.09,1.09,0,0,1,1-.62h1.95a1.09,1.09,0,0,0,.81-.36l2.16-2.38a1,1,0,0,1,.44-.3l5.06-1.79a1.12,1.12,0,0,0,.59-.5l3.25-5.89a1.08,1.08,0,0,0,.09-.86l-1.53-4.75a1.09,1.09,0,0,1,.48-1.26l4.46-2.68a1.09,1.09,0,0,0-.33-2l-4-.87-.08,0-11.57-1.61a1.28,1.28,0,0,0-.34,0l-13.48,2.39a1.18,1.18,0,0,0-.46.2l-4.25,3.14a.92.92,0,0,1-.31.16L337.32,190a1.09,1.09,0,0,0-.56,1.66l1.51,2.14A1,1,0,0,0,339.11,194.24ZM369,206.82l3.28,2.46h4.11l2-3.05-5.76-.82Zm10.57,31-1.13,1.31-.11.13-3.62,4.78a2.79,2.79,0,0,0-.31,2.86l.21.45a2.79,2.79,0,0,1,0,2.41h0a2.78,2.78,0,0,0,.53,3.22l4.2,4.15a2.79,2.79,0,0,0,2,.8h3.53a2.73,2.73,0,0,0,1.19-.27l2.52-1.19a.49.49,0,0,1,.51.06l1.58,1.29a.46.46,0,0,0,.3.11h1.29a.49.49,0,0,1,.49.48v3.43a1.43,1.43,0,0,0,.15.64l2.41,4.83a1.45,1.45,0,0,1,.09,1.08l-1.24,3.85a1.39,1.39,0,0,0,.07,1.06l1.21,2.55a1.44,1.44,0,0,1,.13.62v2.6a1.47,1.47,0,0,0,.24.79l3.58,5.37a1.45,1.45,0,0,0,1.19.64h4.16a1.42,1.42,0,0,0,1.16-.6l2.49-3.45a1.45,1.45,0,0,0,.27-.84v-1.1a1.43,1.43,0,0,1,1-1.38l.39-.12a1.41,1.41,0,0,0,1-1.37v-1.51a1.41,1.41,0,0,1,.42-1l2.7-2.7a1.42,1.42,0,0,0,.42-1v-3.63a1.48,1.48,0,0,0-.19-.71l-.68-1.18a1.44,1.44,0,0,1,.25-1.74l5.63-5.48a1.43,1.43,0,0,0,.39-.67l.57-2.21a1.82,1.82,0,0,0-2.19-2.22h0a2.64,2.64,0,0,1-2.7-1l-.73-.95L413.06,250,410,241.61a.15.15,0,0,1,.26-.14l3.87,4.64,2,4a2.62,2.62,0,0,0,3.27,1.31l5.45-2a.82.82,0,0,0,.43-.37l1.54-2.8a.82.82,0,0,0-.07-.89l-1.52-2a.81.81,0,0,0-1.09-.19l-1.61,1a.81.81,0,0,1-1.17-.31l-1.63-3.13a.82.82,0,0,1,.73-1.19h0a.81.81,0,0,1,.67.35l1.09,1.57a.83.83,0,0,0,.71.35l2.37-.13a.8.8,0,0,1,.62.23l.92.92a.78.78,0,0,0,.57.24h4.26a.84.84,0,0,1,.6.27l3,3.35a.77.77,0,0,1,.14.21l3.35,7.44a.82.82,0,0,0,1.45.07l2.31-4.12a1,1,0,0,1,.21-.25l6.05-4.69a.81.81,0,0,1,1.26.38l1,2.89a.8.8,0,0,0,.88.54l.88-.14a.81.81,0,0,1,.91.63l.53,2.48a.52.52,0,0,1,0,.17v2.09a.93.93,0,0,0,.07.33l1.29,2.89a.78.78,0,0,0,.16.24l.47.47a.81.81,0,0,0,1.35-.8l-.46-1.56a.8.8,0,0,0-.15-.29l-1.31-1.59a.79.79,0,0,1-.18-.51h0a.81.81,0,0,1,1.49-.45l1,1.53a.82.82,0,0,0,1.23.16l2.47-2.26a1.11,1.11,0,0,0,.36-.82V250.3a1.13,1.13,0,0,0-.57-1l-1.18-.66a1.12,1.12,0,0,1-.37-1.62L460,247a1.11,1.11,0,0,1,1.25-.42l1.52.47a1.1,1.1,0,0,0,1-.15l5.21-3.68a1.07,1.07,0,0,0,.44-.66l1.07-4.72a1.09,1.09,0,0,0-.06-.67l-.9-2.19a1.12,1.12,0,0,1,0-1l.56-1a1.11,1.11,0,0,1,1.3-.54l1.57.46a1.12,1.12,0,0,1,.75.72l.36,1.07a1.11,1.11,0,0,0,1.77.51h0a1.12,1.12,0,0,0,.14-1.58l-.65-.77a1.13,1.13,0,0,1-.05-1.38l1.09-1.49a1.14,1.14,0,0,1,.9-.45h2.31a1.12,1.12,0,0,0,1-.59l2.92-5.38a1,1,0,0,0,.12-.47v-2.64a1,1,0,0,0-1-1h0a1,1,0,0,1-.68-1.73l3.33-3.08a1,1,0,0,1,.68-.26h5.31a.94.94,0,0,0,.56-.18l3.91-2.71a1.06,1.06,0,0,1,.57-.17h1.37a1,1,0,0,1,.67,1.73l-4.09,3.75a1,1,0,0,0-.31.87l.51,3.54a1,1,0,0,0,1.73.52l3.8-4.3a1,1,0,0,0,.25-.66v-1.65a1,1,0,0,1,.71-1l3.53-1.08,4.25-1.76h1.76l4.93-4.68a1.08,1.08,0,0,0-.36-1.8l-9.21-3.42a1.12,1.12,0,0,0-.93.08l-2.27,1.34a1.12,1.12,0,0,1-.62.15l-5.27-.31a1.11,1.11,0,0,1-.7-.32l-3.46-3.44a1.09,1.09,0,0,0-.76-.32H483.5a1.11,1.11,0,0,0-.74.29l-2.1,2a1.12,1.12,0,0,1-1,.27l-4.25-.93a1.09,1.09,0,0,1-.86-1.06v-.75a1.07,1.07,0,0,0-.83-1.05l-2.85-.69a1.09,1.09,0,0,0-1.15.46l-.54.81a1.08,1.08,0,0,1-1.25.43l-3.33-1.12a1.08,1.08,0,0,1-.2-2l.37-.21a1.1,1.1,0,0,0,.53-1l0-.36a1.1,1.1,0,0,0-1-1l-11-.95a1.06,1.06,0,0,0-.58.11L444.59,196a1.08,1.08,0,0,0-.59,1V197a1.08,1.08,0,0,1-.63,1l-3.72,1.73a1.08,1.08,0,0,1-1.13-.13l-.74-.59a1.1,1.1,0,0,0-1.09-.15l-4.12,1.71a1.09,1.09,0,0,0-.65,1.16h0a1.08,1.08,0,0,1-1.37,1.19l-3-.85a1.08,1.08,0,0,0-1.33.73l0,.05a1.06,1.06,0,0,1-.93.76l-4.85.44a1.15,1.15,0,0,0-.48.17L412.43,209a.69.69,0,0,1-.83-.05l-.92-.78a.7.7,0,0,1,.25-1.2l2.55-.79a.72.72,0,0,0,.2-.09h0a.71.71,0,0,0-.09-1.21L404,200.14a.69.69,0,0,0-.67,0l-8.6,5.19a1.07,1.07,0,0,0-.16.14l-5.77,6.63a.69.69,0,0,0-.06.84l1.36,2.1a.71.71,0,0,0,.81.29l2.29-.77a.7.7,0,0,1,.9.51l.4,1.74a.69.69,0,0,0,.78.54l1.45-.2a.7.7,0,0,0,.54-.41l1.5-3.3a.69.69,0,0,0,0-.49l-.5-1.62a.71.71,0,0,1,.19-.73l3.36-3.09a.7.7,0,0,1,.48-.18h.52a.7.7,0,0,1,.5,1.19L401,210.92a.7.7,0,0,0-.12.81l.45.91a.69.69,0,0,0,.66.38l2.66-.13a.72.72,0,0,1,.64.34l0,.05a.7.7,0,0,1-.61,1.06h-1.11a.7.7,0,0,0-.7.64l-.09,1.18a.7.7,0,0,1-.43.59l-5.3,2.25a.73.73,0,0,1-.3.05l-4.6-.16a.66.66,0,0,0-.36.08l-3,1.66-.06,0-3.29,2.55a2.62,2.62,0,0,0-.4,3.76h0a.47.47,0,0,1,.08.47l-.49,1.37a.48.48,0,0,1-.45.31h-1.6a2.3,2.3,0,0,0-2.29,2.49l.13,1.62a.47.47,0,0,0,.33.41l2.71.91a.53.53,0,0,0,.33,0l2.55-1.05a.47.47,0,0,0,.29-.44v-.81a3.17,3.17,0,0,1,1.88-2.89l2.6-1.17a1.72,1.72,0,0,1,2.41,1.45h0a.42.42,0,0,0,.16.33l2.75,2.45a.47.47,0,0,0,.59,0l.38-.25a.49.49,0,0,0,.16-.64l-2.13-3.8a.47.47,0,0,1,0-.46l.57-1.06a.49.49,0,0,1,.89.08l.51,1.66a.53.53,0,0,0,.08.15l1.7,2.21,0,.05,2,3.44a.49.49,0,0,0,.67.16l.72-.45a.46.46,0,0,0,.22-.49h0a.48.48,0,0,1,.89-.33l.94,1.64a1,1,0,0,0,1,.5l3-.41a1.8,1.8,0,0,1,2,2.24l-.35,1.3a1,1,0,0,1-1,.77h-3l-.18,0-5.1-.94a1.5,1.5,0,0,0-1.55.67h0a1.51,1.51,0,0,1-1.87.58l-4.62-2a.49.49,0,0,1-.27-.57l.4-1.42a.48.48,0,0,0-.49-.61l-7.27.49-.42,0A8.17,8.17,0,0,0,379.61,237.84Zm32.94-10.91,0,.19a1.23,1.23,0,0,0,.67.86l2.14,1a1.22,1.22,0,0,1,.42,1.86h0a1.22,1.22,0,0,1-1.17.44l-4.83-.91-.22,0h-2.31a1.22,1.22,0,0,1-1.08-1.78l1-2a1.2,1.2,0,0,1,1.08-.66h3A1.23,1.23,0,0,1,412.55,226.93Zm10.59,3.5v3a1.22,1.22,0,0,1-1.22,1.21h-.57a1.21,1.21,0,0,1-1.22-1.21v-1.68a1.11,1.11,0,0,0-.13-.54l-1.23-2.46a1.21,1.21,0,0,1,.63-1.67l1.37-.56a1.21,1.21,0,0,1,1.64.83l.69,2.82A1.45,1.45,0,0,1,423.14,230.43ZM418.74,271l-1.65,1.81a1.5,1.5,0,0,0-.39.82l-.53,3.37a1.57,1.57,0,0,0,1.55,1.81h.55a1.57,1.57,0,0,0,1.5-1.09l1.63-5.18a1.5,1.5,0,0,0,0-.89h0A1.58,1.58,0,0,0,418.74,271Zm35.36-10.62,1.32,2.4a.91.91,0,0,0,.18.21l2.46,1.91a.68.68,0,0,0,1-.2l.72-1.26a.68.68,0,0,0-.21-.89l-4.41-3,0,0h0A.68.68,0,0,0,454.1,260.38Zm6.54,4.5h0a1.25,1.25,0,0,0,.68,1.69l2.17.85a1.27,1.27,0,0,0,1.23-.18l.44-.33a1.27,1.27,0,0,0,0-2l-.67-.51a1.25,1.25,0,0,0-.76-.26h-2A1.25,1.25,0,0,0,460.64,264.88Zm1.14-3.86,1.32,1.83a.89.89,0,0,0,.44.32l2.21.74a.88.88,0,0,0,1.05-.42l1.73-3.19a.86.86,0,0,0,0-.81l-.74-1.5a.88.88,0,0,1,.16-1h0a.88.88,0,0,0-.16-1.37l-.49-.3a.88.88,0,0,0-1.27.38L465,258.09a1,1,0,0,1-.29.35l-1.24.9a.83.83,0,0,1-.35.15l-.75.15A.88.88,0,0,0,461.78,261Zm7.7-17.55-.46.39a.43.43,0,0,0-.13.52l.47,1a.45.45,0,0,0,.4.25h0a.44.44,0,0,0,.45-.44v-1.4A.45.45,0,0,0,469.48,243.47Zm-.13,4.85-.52,1.62a.55.55,0,0,0,0,.45l.26.47a.57.57,0,0,0,.89.15h0a.59.59,0,0,0,.19-.43v-.7a.55.55,0,0,1,.1-.32l.49-.75a.57.57,0,0,0-.48-.89h-.42A.58.58,0,0,0,469.35,248.32Zm.81,6.85h0a.58.58,0,0,0,.71.62l.1,0a.57.57,0,0,1,.64.29l.39.74a.58.58,0,0,0,.88.18l.94-.78a.57.57,0,0,0,.19-.58l-.29-1.15a.56.56,0,0,0-.7-.41l-2.42.61A.59.59,0,0,0,470.16,255.17Zm.63-3.44.54.53a.42.42,0,0,1,.1.17l.37,1.19a.41.41,0,0,0,.4.29h.16a.41.41,0,0,0,.41-.41v-.74a.44.44,0,0,0-.11-.29l-1.27-1.33a.42.42,0,0,0-.66.08h0A.42.42,0,0,0,470.79,251.73Zm-1.16,8.54-1.17,2.55a.32.32,0,0,0,0,.14l.28,2.19a.27.27,0,0,0,.26.23h.23a.27.27,0,0,0,.27-.27v-1.23a.27.27,0,0,1,.49-.14l.47.72a.27.27,0,0,0,.33.1l.62-.29a.27.27,0,0,0,.11-.39l-.83-1.27a.26.26,0,0,1,0-.31l.37-.47a.27.27,0,0,0-.21-.43h-.59l-.1,0h0a.26.26,0,0,1-.34-.36l.14-.28a.28.28,0,0,1,.28-.15l1.69.25a.26.26,0,0,0,.25-.1l.81-1a.27.27,0,0,0-.13-.42l-.54-.19a.27.27,0,0,0-.33.15l-.26.58a.27.27,0,0,1-.22.16l-1.65.09A.25.25,0,0,0,469.63,260.27Zm11.59,2-1.63.69a.31.31,0,0,1-.34-.07l-.15-.17a.27.27,0,0,1-.07-.2v-.89a.29.29,0,0,0-.21-.28l-1.67-.5h-.63a.29.29,0,0,0-.29.29v.1a.29.29,0,0,0,.16.26l.8.41a.29.29,0,0,1,.11.11l.25.4a.29.29,0,0,0,.22.13l.4,0a.29.29,0,0,1,.27.29v.1a.23.23,0,0,1,0,.14l-.21.4a.3.3,0,0,0,.35.42l.16-.05a.22.22,0,0,1,.14,0l1.31.27.1,0,1.68,1a.29.29,0,0,1,.05.46l-.43.42a.29.29,0,0,0,.2.51H483a.3.3,0,0,1,.21.08l.84.85a.3.3,0,0,0,.38,0l1.49-1.07a.27.27,0,0,1,.31,0l.72.41a.29.29,0,0,1,.15.25v.35a.3.3,0,0,0,.21.29l2.15.6a.29.29,0,0,0,.29-.49L488.05,266a.3.3,0,0,1-.06-.3l.23-.62a.29.29,0,0,0-.27-.39h-.68a.29.29,0,0,1-.28-.22l-.27-.94a.27.27,0,0,0-.22-.2l-5.1-1.13A.28.28,0,0,0,481.22,262.26Zm-11.91,12.58-3.74,1.5a1,1,0,0,0-.58,1l1.33,7.72a.94.94,0,0,0,.93.79h4.19a.92.92,0,0,0,.43-.11l3.85-2a.94.94,0,0,1,1,.07l2.32,1.64a.94.94,0,0,0,1.05,0l.4-.25a1,1,0,0,1,1.37.41l1.28,2.85a.94.94,0,0,0,.86.56h2.62A.91.91,0,0,0,487,289l2.25-1a1,1,0,0,0,.43-.39l2.41-4.07a.92.92,0,0,0,.14-.48v-4.56a1,1,0,0,0-.32-.7l-4.31-3.9a.68.68,0,0,1-.17-.21l-2.06-3.37a1,1,0,0,0-1.71.2l-.62,1.94a1,1,0,0,1-1.51.44l-1.07-.9a1,1,0,0,1-.33-.84l.15-1.25a1,1,0,0,0-.94-1.06h-1.6a.93.93,0,0,0-.64.25l-2.46,2.27a.94.94,0,0,1-1.11.12h0a1,1,0,0,0-1.23.25l-.82,1.08-.1.11-1.74,1.65A1,1,0,0,1,469.31,274.84Zm36.53,11.75.85,2.29a.51.51,0,0,1-.05.45l-.28.47a.55.55,0,0,0,0,.6l.71.87a.52.52,0,0,0,.91-.19l.32-1.17a.54.54,0,0,1,.29-.34l1-.45a.53.53,0,0,0,.31-.48v-.17a.54.54,0,0,0-.63-.52l-1.14.23a.52.52,0,0,1-.58-.29l-.78-1.7a.52.52,0,0,0-.47-.3h0A.52.52,0,0,0,505.84,286.59Zm-.21,5.25-.56-.14a.51.51,0,0,0-.46.1l-3.05,2.47a.53.53,0,0,0,.18.91l1.53.46a.52.52,0,0,0,.61-.25l.9-1.62a.41.41,0,0,1,.1-.13l1-.92A.52.52,0,0,0,505.63,291.84Z" id="el_pAoJh6wKEhC"/><g id="el_xqDT29QnZ3L"><circle id="el_GJ9oPmq3DGU" cx="302.48" cy="190.69" r="4.66"/><circle id="el_hpl691LWD30" cx="356.65" cy="182.93" r="4.66"/><circle id="el__KpHQ9o34zT" cx="309.19" cy="183.18" r="3.14"/><circle id="el_JmXjNNh1xHR" cx="366.65" cy="238.22" r="3.98"/><circle id="el_rmXRVcrGZxw" cx="327.44" cy="231.92" r="3.5"/><circle id="el_2v8Z-Qjo8Xg" cx="273.5" cy="194.18" r="3.5"/><circle id="el_-gA8zPPfjaG" cx="413.93" cy="206.12" r="4.02"/></g><rect x="166.22" y="178.73" width="69.24" height="9.46" id="el__9x099ms_nm"/><rect x="166.22" y="197.71" width="61.1" height="9.46" id="el_IzxAggWI4sJ"/><rect x="166.22" y="216.68" width="79.42" height="9.46" id="el_5XSid1Cyl4S"/><rect x="166.22" y="236.18" width="72.67" height="9.46" id="el_8mIIBC_T-Op"/><rect x="153.35" y="178.73" width="9.45" height="9.46" id="el_r1xnQj8-HOn"/><rect x="153.35" y="197.71" width="9.45" height="9.46" id="el_EheyOlJJW4e"/><rect x="153.35" y="216.68" width="9.45" height="9.46" id="el_pE2y0BMChKo"/><rect x="153.35" y="236.18" width="9.45" height="9.46" id="el_BQZfUCSNpVv"/><rect x="153.61" y="159.72" width="73.7" height="9.46" id="el_cvEMiZji2zo"/></svg>