<?xml version="1.0" encoding="utf-8"?>
<!-- Generator: Adobe Illustrator 23.0.3, SVG Export Plug-In . SVG Version: 6.00 Build 0)  -->
<svg version="1.1" xmlns="http://www.w3.org/2000/svg" xmlns:xlink="http://www.w3.org/1999/xlink" x="0px" y="0px"
	 viewBox="0 0 320 482.1" style="enable-background:new 0 0 320 482.1;" xml:space="preserve">
<style type="text/css">
	.st0{opacity:0.7;}
	.st1{fill:url(#SVGID_1_);}
	.st2{fill:#F36B39;}
	.st3{fill:#F3B863;}
	.st4{fill:#5AC7D2;}
	.st5{fill:#EF373F;}
	.st6{opacity:0.8;fill:#0095AA;}
	.st7{fill:#D8E5E5;}
	.st8{fill:#B9C5C6;}
	.st9{opacity:0.6;fill:#11364F;}
	.st10{fill:#698083;}
	.st11{fill:url(#SVGID_2_);}
	.st12{opacity:0.1;fill:#CED5D5;}
	.st13{fill:#9BAAAB;}
	.st14{fill:url(#SVGID_3_);}
	.st15{fill:url(#SVGID_4_);}
	.st16{opacity:0.4;}
	.st17{fill:#FFFFFF;}
	.st18{opacity:0.3;}
	.st19{opacity:0.4;clip-path:url(#SVGID_6_);}
	.st20{opacity:0.4;clip-path:url(#SVGID_8_);}
	.st21{opacity:0.3;clip-path:url(#SVGID_10_);}
	.st22{opacity:0.65;fill:#11364F;}
	.st23{fill:#F68C31;}
	.st24{opacity:0.7;fill:#0095AA;}
	.st25{fill:#0095AA;}
	.st26{fill:#FDD1AA;}
	.st27{fill:#375659;}
	.st28{fill:#B4E2EA;}
	.st29{fill:#E6EAEA;}
	.st30{fill:#CED5D5;}
	.st31{fill:url(#SVGID_11_);}
	.st32{opacity:0.4;clip-path:url(#SVGID_13_);}
	.st33{opacity:0.4;clip-path:url(#SVGID_15_);}
</style>
<g id="colors">
</g>
<g id="web">
</g>
<g id="mobile">
	<g id="phone">
		<path class="st10" d="M96.1,146.8l167.1,0v234.9c0,6.8-5.5,12.4-12.4,12.4H108.5c-6.8,0-12.4-5.5-12.4-12.4L96.1,146.8z"/>
		<g>
			<linearGradient id="SVGID_1_" gradientUnits="userSpaceOnUse" x1="179.701" y1="389.4528" x2="179.701" y2="141.217">
				<stop  offset="0" style="stop-color:#000000"/>
				<stop  offset="1" style="stop-color:#E98035"/>
			</linearGradient>
			<path class="st1" d="M96.1,377.1c0,6.8,5.5,12.4,12.4,12.4h142.4c6.8,0,12.4-5.5,12.4-12.4V141.2l-167.1,0L96.1,377.1z"/>
			<path class="st12" d="M107.4,389.5c-6.2,0-11.3-5.1-11.3-11.3V104.4c0-6.2,5.1-15.5,11.3-15.5h72.3v300.6H107.4z"/>
			<path class="st7" d="M263.3,147.6H96.1v-48c0-3.6,5.1-10.7,11.3-10.7H252c6.2,0,11.3,7.1,11.3,10.7V147.6z"/>
			<path class="st8" d="M96.1,147.6v-48c0-3.6,5.1-10.7,11.3-10.7h72.3v58.7H96.1z"/>
			<path class="st13" d="M191.7,118.4h-24.1c-6.2,0-11.3,3.5-11.3,7.9c0,4.4,5.1,7.9,11.3,7.9h24.1c6.2,0,11.3-3.5,11.3-7.9
				C203,122,198,118.4,191.7,118.4z"/>
			<path class="st10" d="M167.7,134.3c-6.2,0-11.3-3.5-11.3-7.9c0-4.4,5.1-7.9,11.3-7.9h12v15.8H167.7z"/>
			<g>
				<path class="st7" d="M263.3,357.5H96.1v21.3c0,3.6,5.1,10.7,11.3,10.7H252c6.2,0,11.3-7.1,11.3-10.7V357.5z"/>
				<path class="st8" d="M96.1,357.5v21.3c0,3.6,5.1,10.7,11.3,10.7h72.3v-32H96.1z"/>
			</g>
		</g>
	</g>
	<g id="gears_1_">
		<g>
			<g>
				<defs>
					<rect id="SVGID_12_" x="97.3" y="147.9" width="165.9" height="224.4"/>
				</defs>
				<clipPath id="SVGID_2_">
					<use xlink:href="#SVGID_12_"  style="overflow:visible;"/>
				</clipPath>
				<g id="gear_7_" style="opacity:0.4;clip-path:url(#SVGID_2_);">
					<g id="_x36_66-gear2.png_7_">
						<g>
							<path class="st17" d="M318.6,191.8c0-2.9-2.1-5.3-4.9-5.7l-8.8-1.3c-2.4-0.4-4.4-2.2-4.8-4.6c-0.5-2.8-1.3-5.5-2.1-8.1
								c-0.8-2.3,0-4.9,1.9-6.4l6.9-5.5c2.3-1.8,2.9-4.9,1.4-7.4l-0.8-1.3c-1.4-2.5-4.5-3.5-7.1-2.5l-8.2,3.3
								c-2.3,0.9-4.9,0.3-6.5-1.6c-1.8-2.1-3.8-4.1-5.9-5.9c-1.8-1.6-2.5-4.2-1.6-6.5l3.3-8.2c1.1-2.7,0-5.7-2.5-7.1l-1.3-0.8
								c-2.5-1.4-5.7-0.8-7.4,1.5l-5.4,6.9c-1.5,1.9-4.1,2.7-6.4,1.9c-2.6-0.9-5.4-1.6-8.1-2.1c-2.4-0.5-4.3-2.4-4.6-4.8l-1.3-8.8
								c-0.4-2.9-2.8-5-5.7-5H237c-2.9,0-5.3,2.1-5.7,4.9l-1.3,8.8c-0.4,2.4-2.2,4.4-4.6,4.8c-2.8,0.5-5.5,1.3-8.1,2.1
								c-2.3,0.8-4.9,0-6.4-1.9l-5.4-6.9c-1.8-2.3-4.9-2.9-7.4-1.4l-1.3,0.8c-2.5,1.4-3.6,4.5-2.5,7.1l3.3,8.2
								c0.9,2.3,0.3,4.9-1.6,6.5c-2.1,1.8-4.1,3.8-5.9,5.9c-1.6,1.8-4.2,2.5-6.5,1.6l-8.2-3.3c-2.6-1.1-5.7,0-7.1,2.5l-0.7,1.3
								c-1.4,2.5-0.8,5.7,1.4,7.4l6.9,5.5c1.9,1.5,2.7,4.1,1.9,6.4c-0.9,2.6-1.6,5.4-2.1,8.1c-0.5,2.4-2.4,4.3-4.8,4.6l-8.8,1.3
								c-2.8,0.4-4.9,2.8-4.9,5.7v1.6c0,2.9,2.1,5.3,4.9,5.7l8.8,1.3c2.4,0.4,4.4,2.2,4.8,4.6c0.5,2.8,1.3,5.5,2.1,8.1
								c0.8,2.3,0,4.9-1.9,6.4l-6.9,5.5c-2.3,1.8-2.9,4.9-1.4,7.4l0.8,1.3c1.4,2.5,4.5,3.5,7.1,2.5l8.2-3.3c2.3-0.9,4.9-0.3,6.5,1.6
								c1.8,2.1,3.8,4.1,5.9,5.9c1.8,1.6,2.5,4.2,1.6,6.5l-3.3,8.2c-1.1,2.7,0,5.7,2.5,7.1l1.3,0.8c2.5,1.4,5.7,0.8,7.4-1.4l5.5-6.9
								c1.5-1.9,4.1-2.7,6.4-1.9c2.6,0.9,5.4,1.6,8.1,2.1c2.4,0.5,4.3,2.4,4.6,4.8l1.3,8.8c0.4,2.8,2.8,4.9,5.7,4.9h1.6
								c2.9,0,5.3-2.1,5.7-4.9l1.3-8.8c0.4-2.4,2.2-4.4,4.6-4.8c2.8-0.5,5.5-1.3,8.1-2.1c2.3-0.8,4.9,0,6.4,1.9l5.5,6.9
								c1.8,2.3,4.9,2.9,7.4,1.4l1.3-0.8c2.5-1.5,3.5-4.5,2.5-7.1l-3.3-8.2c-0.9-2.3-0.3-4.9,1.6-6.5c2.1-1.8,4.1-3.8,5.9-5.9
								c1.6-1.8,4.2-2.5,6.5-1.6l8.2,3.3c2.7,1.1,5.7,0,7.1-2.5l0.8-1.3c1.4-2.5,0.8-5.7-1.5-7.4l-6.9-5.4c-1.9-1.5-2.7-4.1-1.9-6.4
								c0.9-2.6,1.6-5.4,2.1-8.1c0.5-2.4,2.4-4.3,4.8-4.6l8.8-1.3c2.8-0.4,4.9-2.8,4.9-5.7L318.6,191.8L318.6,191.8z M237.8,232.9
								c-22.3,0-40.4-18.1-40.4-40.4s18.1-40.4,40.4-40.4s40.4,18.1,40.4,40.4S260.1,232.9,237.8,232.9z"/>
						</g>
					</g>
				</g>
			</g>
		</g>
		<g>
			<defs>
				<rect id="SVGID_14_" x="96.5" y="147.2" width="166.4" height="210.3"/>
			</defs>
			<clipPath id="SVGID_3_">
				<use xlink:href="#SVGID_14_"  style="overflow:visible;"/>
			</clipPath>
			<g id="gear_9_" style="opacity:0.4;clip-path:url(#SVGID_3_);">
				<g id="_x36_66-gear2.png_9_">
					<g>
						<path class="st17" d="M175.4,343.5c0-2.1-1.5-3.8-3.5-4.1l-6.3-0.9c-1.7-0.3-3.1-1.6-3.5-3.3c-0.4-2-0.9-3.9-1.5-5.8
							c-0.6-1.7,0-3.5,1.4-4.6l5-3.9c1.6-1.3,2.1-3.5,1-5.3l-0.6-0.9c-1-1.8-3.2-2.5-5.1-1.8l-5.9,2.4c-1.6,0.6-3.5,0.2-4.6-1.1
							c-1.3-1.5-2.7-2.9-4.2-4.2c-1.3-1.2-1.8-3-1.1-4.6l2.4-5.9c0.8-1.9,0-4.1-1.8-5.1l-0.9-0.6c-1.8-1-4-0.6-5.3,1l-3.9,5
							c-1.1,1.4-2.9,1.9-4.6,1.4c-1.9-0.6-3.8-1.1-5.8-1.5c-1.7-0.3-3-1.7-3.3-3.5l-0.9-6.3c-0.3-2.1-2-3.6-4.1-3.6h-1.1
							c-2.1,0-3.8,1.5-4.1,3.5l-0.9,6.3c-0.3,1.7-1.6,3.1-3.3,3.5c-2,0.4-3.9,0.9-5.8,1.5c-1.7,0.6-3.5,0-4.6-1.4l-3.9-4.9
							c-1.3-1.6-3.5-2.1-5.3-1l-0.9,0.6c-1.8,1-2.5,3.2-1.8,5.1l2.4,5.9c0.6,1.6,0.2,3.5-1.1,4.6c-1.5,1.3-2.9,2.7-4.2,4.2
							c-1.2,1.3-3,1.8-4.6,1.1L73,313c-1.9-0.8-4.1,0-5.1,1.8l-0.5,0.9c-1,1.8-0.6,4,1,5.3l5,3.9c1.4,1.1,1.9,2.9,1.4,4.6
							c-0.6,1.9-1.2,3.8-1.5,5.8c-0.3,1.7-1.7,3-3.5,3.3l-6.3,0.9c-2,0.3-3.5,2-3.5,4v1.1c0,2.1,1.5,3.8,3.5,4.1l6.3,0.9
							c1.7,0.3,3.1,1.6,3.5,3.3c0.4,2,0.9,3.9,1.5,5.8c0.6,1.7,0,3.5-1.4,4.5l-5,3.9c-1.6,1.3-2.1,3.5-1,5.3l0.6,0.9
							c1,1.8,3.2,2.5,5.1,1.8l5.9-2.4c1.6-0.6,3.5-0.2,4.6,1.1c1.3,1.5,2.7,2.9,4.2,4.2c1.3,1.2,1.8,3,1.1,4.6l-2.4,5.9
							c-0.8,1.9,0,4.1,1.8,5.1l0.9,0.6c1.8,1,4,0.6,5.3-1l3.9-5c1.1-1.4,2.9-1.9,4.6-1.4c1.9,0.6,3.8,1.2,5.8,1.5
							c1.7,0.3,3,1.7,3.3,3.5l0.9,6.3c0.3,2,2,3.5,4.1,3.5h1.1c2.1,0,3.8-1.5,4.1-3.5l0.9-6.3c0.3-1.7,1.6-3.1,3.3-3.5
							c2-0.4,3.9-0.9,5.8-1.5c1.7-0.6,3.5,0,4.5,1.4l3.9,5c1.3,1.6,3.5,2.1,5.3,1l0.9-0.6c1.8-1,2.5-3.2,1.8-5.1l-2.4-5.9
							c-0.6-1.6-0.2-3.5,1.1-4.6c1.5-1.3,2.9-2.7,4.2-4.2c1.2-1.3,3-1.8,4.6-1.1l5.9,2.4c1.9,0.8,4.1,0,5.1-1.8l0.6-0.9
							c1-1.8,0.6-4-1-5.3l-5-3.9c-1.4-1.1-1.9-2.9-1.4-4.5c0.6-1.9,1.1-3.8,1.5-5.8c0.3-1.7,1.7-3,3.5-3.3l6.3-0.9
							c2-0.3,3.5-2,3.5-4.1L175.4,343.5L175.4,343.5z M117.6,372.9c-15.9,0-28.9-12.9-28.9-28.9s12.9-28.9,28.9-28.9
							s28.9,12.9,28.9,28.9S133.6,372.9,117.6,372.9z"/>
					</g>
				</g>
			</g>
		</g>
	</g>
	<g id="icon-dev_1_">
		<path class="st22" d="M253.8,207.5h-34.1c-12.9,0-23.3-10.4-23.3-23.3v-34c0-12.9,10.4-23.3,23.3-23.3h34.1
			c12.9,0,23.3,10.4,23.3,23.3v34C277.1,197.1,266.7,207.5,253.8,207.5z"/>
		<path class="st23" d="M251.2,204.3h-32.7c-12.3,0-22.3-10-22.3-22.3v-32.7c0-12.3,10-22.3,22.3-22.3h32.7
			c12.3,0,22.3,10,22.3,22.3V182C273.5,194.3,263.5,204.3,251.2,204.3z"/>
		<g>
			<path class="st28" d="M252,158.5c-0.8,0-1.5,0.1-2.3,0.2c0-0.4,0.1-0.8,0.1-1.3c0-7.5-6.1-13.5-13.5-13.5
				c-7.4,0-13.4,6-13.5,13.3c-1.3-0.5-2.7-0.7-4.2-0.7c-7.1,0-12.8,5.7-12.8,12.8c0,3.2,1.2,6.2,3.3,8.6c2.1,2.3,4.8,3.7,7.8,4.1
				c0.1,0.1,0.3,0.1,0.4,0.1h34.4c0,0,0,0,0.1,0c0.1,0,0.1,0,0.2,0c6.5,0,11.8-5.3,11.8-11.8C263.9,163.8,258.6,158.5,252,158.5z"/>
			<path class="st4" d="M222.8,157.2c-1.3-0.5-2.7-0.7-4.2-0.7c-7.1,0-12.8,5.7-12.8,12.8c0,3.2,1.2,6.2,3.3,8.6
				c2.1,2.3,4.8,3.7,7.8,4.1c0.1,0.1,0.3,0.1,0.4,0.1h17.5V144C228.1,144.7,222.9,150.4,222.8,157.2z"/>
			<g>
				<path class="st2" d="M254.6,167.2l-7.7-7.3c-0.4-0.4-1-0.6-1.6-0.6c-0.6,0-1.2,0.3-1.6,0.7c-0.4,0.4-0.6,1-0.6,1.6
					c0,0.6,0.3,1.2,0.7,1.6l5.9,5.6l-5.9,5.2c-0.5,0.4-0.7,1-0.8,1.6c0,0.6,0.2,1.2,0.6,1.6c0.4,0.5,1.1,0.8,1.7,0.8c0,0,0,0,0,0
					c0.6,0,1.1-0.2,1.5-0.6l7.7-6.9c0.5-0.4,0.7-1,0.8-1.7C255.4,168.3,255.1,167.7,254.6,167.2z"/>
				<path class="st2" d="M239.6,160.4c-1.1-0.6-2.5-0.3-3.1,0.8l-7.7,13.4c-0.6,1.1-0.3,2.5,0.8,3.1c0.3,0.2,0.7,0.3,1.1,0.3
					c0.8,0,1.6-0.4,2-1.1l7.7-13.4c0.3-0.5,0.4-1.1,0.2-1.7C240.5,161.2,240.2,160.7,239.6,160.4z"/>
			</g>
			<g>
				<path class="st5" d="M228.8,174.6c-0.6,1.1-0.3,2.5,0.8,3.1c0.3,0.2,0.7,0.3,1.1,0.3c0.8,0,1.6-0.4,2-1.1l2.1-3.6v-9.1
					L228.8,174.6z"/>
				<path class="st5" d="M226.6,161.6c0-0.6-0.2-1.2-0.6-1.6s-1-0.7-1.6-0.7c-0.6,0-1.2,0.2-1.6,0.6l-7.7,7.3
					c-0.5,0.4-0.7,1.1-0.7,1.7c0,0.6,0.3,1.2,0.8,1.7l7.7,6.9c0.4,0.4,1,0.6,1.5,0.6c0,0,0,0,0,0c0.6,0,1.3-0.3,1.7-0.8
					c0.8-0.9,0.8-2.4-0.2-3.2l-5.9-5.2l5.9-5.6C226.3,162.8,226.6,162.3,226.6,161.6z"/>
			</g>
		</g>
	</g>
	<g id="icon-design_1_">
		<path class="st22" d="M124,167.3H75.1c-18.4,0-33.4-15-33.4-33.4V85.1c0-18.4,15-33.4,33.4-33.4H124c18.4,0,33.4,15,33.4,33.4
			v48.8C157.4,152.4,142.4,167.3,124,167.3z"/>
		<path class="st3" d="M119,161.6H72.1c-17.7,0-32-14.3-32-32V82.6c0-17.7,14.3-32,32-32H119c17.7,0,32,14.3,32,32v46.9
			C151,147.2,136.7,161.6,119,161.6z"/>
		<g id="ruler_2_">
			<g>
				<path class="st23" d="M129.5,127.4L97.1,95.2L96,94.1l-2.3-2.3L76.6,74.8c-0.9-0.9-2.4-0.9-3.4-0.1c0,0-0.1,0-0.1,0.1L62.5,85.4
					c-1,1-1,2.5,0,3.5l1.8,1.8l7-7.1l1.8,1.8l-7,7.1l3.5,3.5l3.5-3.5l1.8,1.8l-3.5,3.5l3.5,3.5l7-7.1l1.8,1.8l-7,7.1l3.5,3.5
					l3.5-3.5l1.8,1.8l-3.5,3.5l3.5,3.5l7-7.1l1.8,1.8l-7,7.1l3.5,3.5l3.5-3.5l1.8,1.8l-3.5,3.5l3.5,3.5l7-7.1l1.8,1.8l-7,7.1
					l3.5,3.5l3.5-3.5l1.8,1.8l-3.5,3.5l3.5,3.5l7-7.1l1.8,1.8l-7,7.1l3.5,3.5l3.5-3.5l1.8,1.8l-3.5,3.5l1.8,1.8c1,1,2.6,1,3.5,0
					l10.5-10.6C130.5,129.9,130.5,128.4,129.5,127.4z"/>
				<g>
					
						<rect x="112.1" y="135.9" transform="matrix(0.7047 -0.7095 0.7095 0.7047 -63.4553 121.8182)" class="st2" width="5" height="2.5"/>
					
						<rect x="106.1" y="128.9" transform="matrix(0.7047 -0.7095 0.7095 0.7047 -59.5059 117.2324)" class="st2" width="9.9" height="2.5"/>
					
						<rect x="101.5" y="125.4" transform="matrix(0.7047 -0.7095 0.7095 0.7047 -59.1172 111.1929)" class="st2" width="5" height="2.5"/>
					
						<rect x="80.4" y="104.3" transform="matrix(0.7047 -0.7095 0.7095 0.7047 -50.4455 89.9538)" class="st2" width="5" height="2.5"/>
					
						<rect x="91" y="114.9" transform="matrix(0.7047 -0.7095 0.7095 0.7047 -54.7836 100.579)" class="st2" width="5" height="2.5"/>
					
						<rect x="84.9" y="107.8" transform="matrix(0.7047 -0.7095 0.7095 0.7047 -50.8342 95.9933)" class="st2" width="9.9" height="2.5"/>
					
						<rect x="69.8" y="93.8" transform="matrix(0.7047 -0.7095 0.7095 0.7047 -46.1073 79.3285)" class="st2" width="5" height="2.5"/>
					
						<rect x="74.3" y="97.3" transform="matrix(0.7047 -0.7095 0.7095 0.7047 -46.496 85.3681)" class="st2" width="9.9" height="2.5"/>
					
						<rect x="95.5" y="118.3" transform="matrix(0.7047 -0.7095 0.7095 0.7047 -55.1677 106.6072)" class="st2" width="9.9" height="2.5"/>
					
						<rect x="63.7" y="86.8" transform="matrix(0.7047 -0.7095 0.7095 0.7047 -42.1579 74.7428)" class="st2" width="9.9" height="2.5"/>
				</g>
			</g>
		</g>
		<g>
			<path class="st4" d="M61,131.9l9,9c0.3,0.3,0.8,0.5,1.2,0.5c0.5,0,0.9-0.2,1.2-0.5l41.2-41.2l9.1-9.1c0.2-0.2,0.3-0.4,0.4-0.7
				l4.5-13.6c0.2-0.6,0-1.3-0.4-1.8c-0.3-0.3-0.8-0.5-1.2-0.5c-0.2,0-0.4,0-0.5,0.1l-13.6,4.5c-0.3,0.1-0.5,0.2-0.7,0.4l-22.6,22.6
				c0,0-0.1,0.1-0.1,0.1L61,129.4C60.3,130.1,60.3,131.2,61,131.9z"/>
			<path class="st25" d="M65.6,136.5l61.7-61.7c0,0-0.1-0.1-0.1-0.1c-0.3-0.3-0.8-0.5-1.2-0.5c-0.2,0-0.4,0-0.5,0.1l-13.6,4.5
				c-0.3,0.1-0.5,0.2-0.7,0.4l-22.6,22.6c0,0-0.1,0.1-0.1,0.1L61,129.4c-0.7,0.7-0.7,1.8,0,2.4L65.6,136.5z"/>
			<path class="st26" d="M123.1,90l4.5-13.6c0.2-0.6,0-1.3-0.4-1.8c-0.3-0.3-0.8-0.5-1.2-0.5c-0.2,0-0.4,0-0.5,0.1l-13.6,4.5
				c-0.6,0.2-1,0.7-1.1,1.2l11.1,11.1C122.4,91,122.9,90.6,123.1,90z"/>
			<path class="st27" d="M128.8,71.4c0.4,0,0.9,0.2,1.2,0.5c0.7,0.7,0.7,1.8,0,2.4l-2.7,2.7c-0.7,0.7-1.8,0.7-2.4,0
				c-0.7-0.7-0.7-1.8,0-2.4l2.7-2.7C127.9,71.5,128.4,71.4,128.8,71.4z"/>
		</g>
	</g>
	<g id="icon-feedback_1_">
		<path class="st22" d="M207,331.7h-26.4c-10,0-18-8.1-18-18v-26.4c0-10,8.1-18,18-18H207c10,0,18,8.1,18,18v26.4
			C225,323.6,217,331.7,207,331.7z"/>
		<path class="st4" d="M204.8,329.2h-25.3c-9.6,0-17.3-7.7-17.3-17.3v-25.3c0-9.6,7.7-17.3,17.3-17.3h25.3c9.6,0,17.3,7.7,17.3,17.3
			v25.3C222.1,321.4,214.4,329.2,204.8,329.2z"/>
		<g>
			<path class="st23" d="M199,285.6h-24c-0.4,0-0.6,0.3-0.6,0.6v27.1c0,0.4,0.3,0.6,0.6,0.6h4.8v5.9c0,0.3,0.2,0.5,0.4,0.6
				c0.1,0,0.2,0.1,0.2,0.1c0.2,0,0.3-0.1,0.4-0.2l6.5-6.3H199c0.4,0,0.6-0.3,0.6-0.6v-27.1C199.6,285.9,199.3,285.6,199,285.6z"/>
			<path class="st2" d="M175,285.6c-0.4,0-0.6,0.3-0.6,0.6v27.1c0,0.4,0.3,0.6,0.6,0.6h4.8v5.9c0,0.3,0.2,0.5,0.4,0.6
				c0.1,0,0.2,0.1,0.2,0.1c0.2,0,0.3-0.1,0.4-0.2l6.4-6.2v-28.4H175z"/>
			<g>
				<path class="st17" d="M194.2,291.1h-14.4c-0.4,0-0.6,0.3-0.6,0.6v2.1c0,0.4,0.3,0.6,0.6,0.6h14.4c0.4,0,0.6-0.3,0.6-0.6v-2.1
					C194.8,291.4,194.5,291.1,194.2,291.1z"/>
				<path class="st17" d="M194.2,298h-14.4c-0.4,0-0.6,0.3-0.6,0.6v2.1c0,0.4,0.3,0.6,0.6,0.6h14.4c0.4,0,0.6-0.3,0.6-0.6v-2.1
					C194.8,298.3,194.5,298,194.2,298z"/>
				<path class="st17" d="M194.2,304.8h-14.4c-0.4,0-0.6,0.3-0.6,0.6v2.1c0,0.4,0.3,0.6,0.6,0.6h14.4c0.4,0,0.6-0.3,0.6-0.6v-2.1
					C194.8,305.1,194.5,304.8,194.2,304.8z"/>
			</g>
			<path class="st24" d="M208.5,304.6c3.7-2.6,5.8-6.7,5.8-11c0-7.6-6.7-13.8-14.9-13.8c-8.2,0-14.9,6.2-14.9,13.8
				s6.7,13.8,14.9,13.8c1.3,0,2.5-0.1,3.7-0.4l6.5,2.4c0.1,0,0.1,0,0.2,0c0.2,0,0.4-0.1,0.5-0.2c0.2-0.2,0.2-0.5,0.1-0.7
				L208.5,304.6z"/>
			<path class="st25" d="M184.7,293.6c0,7.6,6.7,13.8,14.9,13.8v-27.7C191.4,279.8,184.7,286,184.7,293.6z"/>
			<g>
				<path class="st17" d="M211.1,294.3c-0.4,0-0.6-0.3-0.6-0.6c0-1.5-0.4-3-1.1-4.3c-0.2-0.3,0-0.7,0.3-0.9c0.3-0.2,0.7,0,0.9,0.3
					c0.8,1.5,1.2,3.2,1.2,4.9C211.8,294,211.5,294.3,211.1,294.3z"/>
				<path class="st17" d="M207.9,286.9c-0.2,0-0.3-0.1-0.4-0.2c-2.1-2-4.9-3.1-8-3.1c-0.4,0-0.6-0.3-0.6-0.6c0-0.4,0.3-0.6,0.6-0.6
					c3.4,0,6.5,1.2,8.8,3.4c0.3,0.2,0.3,0.7,0,0.9C208.2,286.9,208.1,286.9,207.9,286.9z"/>
				<path class="st17" d="M198.8,292.2c-1.4,0-2.5,1.1-2.5,2.5c0,1.4,1.1,2.5,2.5,2.5c1.4,0,2.5-1.1,2.5-2.5
					C201.3,293.3,200.2,292.2,198.8,292.2z"/>
				<path class="st17" d="M205.7,292.2c-1.4,0-2.5,1.1-2.5,2.5c0,1.4,1.1,2.5,2.5,2.5c1.4,0,2.5-1.1,2.5-2.5
					C208.2,293.3,207,292.2,205.7,292.2z"/>
				<path class="st17" d="M191.9,292.2c-1.4,0-2.5,1.1-2.5,2.5c0,1.4,1.1,2.5,2.5,2.5c1.4,0,2.5-1.1,2.5-2.5
					C194.5,293.3,193.3,292.2,191.9,292.2z"/>
			</g>
		</g>
	</g>
	<g id="icon-target_1_">
		<path class="st22" d="M281.1,418.2h-32c-12.1,0-21.9-9.8-21.9-21.9v-32c0-12.1,9.8-21.9,21.9-21.9h32c12.1,0,21.9,9.8,21.9,21.9
			v32C302.9,408.4,293.1,418.2,281.1,418.2z"/>
		<path class="st2" d="M278.5,415.2h-30.7c-11.6,0-21-9.4-21-21v-30.7c0-11.6,9.4-21,21-21h30.7c11.6,0,21,9.4,21,21v30.7
			C299.5,405.8,290.1,415.2,278.5,415.2z"/>
		<g>
			<path class="st4" d="M262.8,402.6c11.7,0,21.2-9.5,21.2-21.2c0-11.7-9.5-21.2-21.2-21.2"/>
			<path class="st25" d="M241.7,381.4c0,11.7,9.5,21.2,21.2,21.2v-42.3C251.2,360.3,241.7,369.7,241.7,381.4z"/>
			<path class="st29" d="M262.8,366.6c-8.2,0-14.8,6.6-14.8,14.8s6.6,14.8,14.8,14.8c8.2,0,14.8-6.6,14.8-14.8
				S271,366.6,262.8,366.6z"/>
			<g>
				<path class="st30" d="M248,381.4c0,8.2,6.6,14.8,14.8,14.8v-29.6C254.7,366.6,248,373.3,248,381.4z"/>
				<path class="st30" d="M262.8,372.1c-5.2,0-9.4,4.2-9.4,9.4s4.2,9.4,9.4,9.4s9.4-4.2,9.4-9.4S268,372.1,262.8,372.1z"/>
			</g>
			<path class="st13" d="M253.5,381.4c0,5.2,4.2,9.4,9.4,9.4v-18.7C257.7,372.1,253.5,376.3,253.5,381.4z"/>
			<path class="st2" d="M262.8,376.1c-2.9,0-5.3,2.4-5.3,5.3c0,2.9,2.4,5.3,5.3,5.3c2.9,0,5.3-2.4,5.3-5.3
				C268.2,378.5,265.8,376.1,262.8,376.1z"/>
			<path class="st5" d="M257.5,381.4c0,2.9,2.4,5.3,5.3,5.3v-10.7C259.9,376.1,257.5,378.5,257.5,381.4z"/>
			<path class="st27" d="M263.1,381.2c-0.2,0-0.4-0.1-0.6-0.2c-0.3-0.3-0.3-0.9,0-1.2l19.9-19.9c0.3-0.3,0.9-0.3,1.2,0
				c0.3,0.3,0.3,0.9,0,1.2L263.7,381C263.6,381.1,263.4,381.2,263.1,381.2z"/>
			<path class="st29" d="M284,349c0-0.3-0.2-0.6-0.5-0.8c-0.3-0.1-0.7-0.1-0.9,0.2l-11.7,11.7c-0.2,0.2-0.2,0.4-0.2,0.6v11.4
				c0,0,0,0,0,0c0,0,0,0,0,0.1c0,0,0,0,0,0.1c0,0,0,0,0,0.1c0,0,0,0,0,0.1c0,0,0,0,0,0c0,0,0,0,0,0c0,0,0,0,0,0.1c0,0,0,0,0,0.1
				c0,0,0,0,0,0.1c0,0,0,0,0,0c0,0,0,0,0,0l13.2-13.2L284,349L284,349z"/>
			<path class="st13" d="M295.3,360.1c-0.1-0.3-0.4-0.5-0.8-0.5H284l-13.2,13.2c0,0,0,0,0,0c0,0,0,0,0,0c0,0,0,0,0.1,0
				c0,0,0,0,0.1,0c0,0,0,0,0.1,0c0,0,0,0,0,0c0,0,0,0,0.1,0c0,0,0,0,0,0c0,0,0.1,0,0.1,0c0,0,0,0,0,0c0,0,0.1,0,0.1,0h0c0,0,0,0,0,0
				h11.4c0.2,0,0.4-0.1,0.6-0.2l11.7-11.7C295.4,360.8,295.5,360.4,295.3,360.1z"/>
			<path class="st10" d="M276.5,367c0.2,0.2,0.4,0.2,0.6,0.2h11.8l1.7-1.7h-12.6L276.5,367z"/>
			<path class="st13" d="M277.9,353l-1.7,1.7v11.8c0,0.2,0.1,0.4,0.2,0.6l1.4-1.4V353z"/>
		</g>
	</g>
	<g id="floating_tiles_1_">
		<path class="st4" d="M66.8,199.1H55.1c-2.4,0-4.3-1.9-4.3-4.3v-11.8c0-2.4,1.9-4.3,4.3-4.3h11.8c2.4,0,4.3,1.9,4.3,4.3v11.8
			C71.1,197.2,69.2,199.1,66.8,199.1z"/>
		<path class="st3" d="M102.3,231.5H84c-3.7,0-6.7-3-6.7-6.7v-18.3c0-3.7,3-6.7,6.7-6.7h18.3c3.7,0,6.7,3,6.7,6.7v18.3
			C109.1,228.5,106.1,231.5,102.3,231.5z"/>
		<path class="st4" d="M287.2,78.5h-11.8c-2.4,0-4.3-1.9-4.3-4.3V62.4c0-2.4,1.9-4.3,4.3-4.3h11.8c2.4,0,4.3,1.9,4.3,4.3v11.8
			C291.5,76.6,289.6,78.5,287.2,78.5z"/>
		<path class="st2" d="M206.8,71.3h-16.5c-3.3,0-6.1-2.7-6.1-6.1V48.7c0-3.3,2.7-6.1,6.1-6.1h16.5c3.3,0,6.1,2.7,6.1,6.1v16.5
			C212.9,68.6,210.2,71.3,206.8,71.3z"/>
		<path class="st3" d="M245.1,99.2H233c-2.5,0-4.5-2-4.5-4.5V82.6c0-2.5,2-4.5,4.5-4.5h12.2c2.5,0,4.5,2,4.5,4.5v12.2
			C249.6,97.2,247.6,99.2,245.1,99.2z"/>
		<path class="st3" d="M198.5,427.8h-12.2c-2.5,0-4.5-2-4.5-4.5v-12.2c0-2.5,2-4.5,4.5-4.5h12.2c2.5,0,4.5,2,4.5,4.5v12.2
			C202.9,425.8,200.9,427.8,198.5,427.8z"/>
		<path class="st2" d="M154.2,401.9h-14.3c-2.9,0-5.2-2.3-5.2-5.2v-14.3c0-2.9,2.3-5.2,5.2-5.2h14.3c2.9,0,5.2,2.3,5.2,5.2v14.3
			C159.5,399.6,157.1,401.9,154.2,401.9z"/>
	</g>
	<g id="guy_2_">
		<path class="st27" d="M100.6,415.9c0,0,0.2,3.8,0.9,4.5c0.8,0.8,9.7,4.7,10.6,5.6c0.9,0.9,0.6,3,0.6,3l-18.6-0.3
			c0,0-0.5-0.3-0.5-3.6s0.2-9.4,0.2-9.4L100.6,415.9z"/>
		<path class="st27" d="M65.9,415.9c0,0-0.2,3.8-0.9,4.5c-0.8,0.8-9.7,4.7-10.6,5.6c-0.9,0.9-0.6,3-0.6,3l18.6-0.3
			c0,0,0.5-0.3,0.5-3.6s-0.2-9.4-0.2-9.4L65.9,415.9z"/>
		<g id="guy_3_">
			<g>
				<g>
					<path class="st30" d="M130.8,247H37.9c-0.9,0-1.6,0.7-1.6,1.6l0,8.8c0,0.4,0.2,0.9,0.5,1.2s0.7,0.5,1.2,0.5l92.9,0
						c0.4,0,0.9-0.2,1.2-0.5c0.3-0.3,0.5-0.7,0.5-1.2l0-8.8C132.5,247.8,131.7,247,130.8,247z"/>
					<path class="st30" d="M31.8,233H11.5c-0.9,0-1.6,0.7-1.6,1.6l0,8.8c0,0.9,0.7,1.6,1.6,1.6h15v16l-15,0c-0.9,0-1.6,0.7-1.6,1.6
						l0,8.8c0,0.9,0.7,1.6,1.6,1.6h20.2c0.4,0,0.9-0.2,1.2-0.5c0,0,0.1-0.1,0.1-0.1l8.8-10.5c0.2-0.3,0.4-0.7,0.4-1.1v-15.8
						c0-0.4-0.1-0.8-0.4-1.1L33,233.6C32.7,233.2,32.2,233,31.8,233z"/>
				</g>
				<path class="st30" d="M157.2,233H137c-0.5,0-1,0.2-1.3,0.6l-8.8,10.5c-0.2,0.3-0.4,0.7-0.4,1.1V261c0,0.4,0.1,0.8,0.4,1.1
					l8.8,10.5c0.3,0.4,0.8,0.6,1.3,0.6h20.2c0.5,0,0.9-0.2,1.2-0.5c0.3-0.3,0.5-0.7,0.5-1.2v-8.8c0-0.9-0.7-1.6-1.6-1.6h-15v-16h15
					c0.9,0,1.6-0.7,1.6-1.6v-8.8C158.8,233.7,158.1,233,157.2,233z"/>
				<path class="st10" d="M36.3,252.9l0,4.5c0,0.4,0.2,0.9,0.5,1.2s0.7,0.5,1.2,0.5h92.9c0.4,0,0.9-0.2,1.2-0.5
					c0.3-0.3,0.5-0.7,0.5-1.2l0-4.5L36.3,252.9z"/>
				<g>
					<path class="st13" d="M26.6,252.9v8.2l-15,0c-0.9,0-1.6,0.7-1.6,1.6l0,8.8c0,0.9,0.7,1.6,1.6,1.6h20.2c0.4,0,0.9-0.2,1.2-0.5
						c0,0,0.1-0.1,0.1-0.1l8.8-10.5c0.2-0.3,0.4-0.7,0.4-1.1v-8.1L26.6,252.9z"/>
					<path class="st13" d="M126.5,261c0,0.4,0.1,0.8,0.4,1.1l8.8,10.5c0.3,0.4,0.8,0.6,1.3,0.6h20.2c0.5,0,0.9-0.2,1.2-0.5
						c0.3-0.3,0.5-0.7,0.5-1.2v-8.8c0-0.9-0.7-1.6-1.6-1.6h-15v-8.2h-15.6L126.5,261z"/>
				</g>
			</g>
			<g>
				<path class="st3" d="M95.1,279.9l-0.6,7.3c0,0-0.2,4-1.4,6.7c-1.3,2.7-1.9,5.4-3.2,5.6c-1.3,0.2-4-0.3-4-0.3s-5.9-0.3-7-1.3
					s-4-6.2-4-10.7c0-4.5-3.3-8,3-9.1C84.3,277,95.1,279.9,95.1,279.9z"/>
				<g>
					<path class="st25" d="M95.6,280.4c1.3-0.3,1.8-0.7,2.7-1.6c0.9-0.9,1.6-2.1,1.6-3.4c0-1.3-0.6-2.6-1.7-3.3
						c-1.2-0.6-2.6-0.5-3.9,0c-1.3,0.5-2.4,1.2-3.7,1.6c-2.4,0.7-5,0.3-7.5-0.1c-2.5-0.4-5.1-0.9-7.5-0.1s-4.5,3.1-4.1,5.6
						c0.3,1.6,0.6,3.2,0.7,4.8c0,0.5-0.1,1.1-0.1,1.6c0.1,2.3,2.8,4.5,3.2,7.5c0,0,0.2,1.1,0.7,1.8c0.7,1.1,1.7,2,1.6,1.6
						c-0.5-5.6-0.7-10.8,0.2-10.5c1.4,0.5,2,2.7,1.9,2.7c0,0,0.3,1,0.3,0.3c0.3-2.3,0.8-8.5,2.8-7.9c0,0,4,2.1,6.1,2
						c0.9-0.1,1.8-0.4,2.4-1.1c0.7-0.6,0.9-1.5,1.9-1.7C94,279.9,94.9,280.5,95.6,280.4z"/>
				</g>
				<polyline class="st3" points="78.8,297.9 78.8,303.5 88.1,304.6 87.6,295.8 				"/>
				<g>
					<path class="st5" d="M98.5,348.3c1.2,23,2.3,46,3.1,69c0,0.2,0,0.4-0.1,0.6c-0.2,0.2-0.5,0.2-0.7,0.3c-2.6,0.2-5.3,0.3-7.9,0.5
						c-0.1-2.8-1.1-7.2-1.6-9.9c-2.2-13.8-2.8-26.8-4.6-37.5l-3.5-18.3L78.2,381c0,0-4.6,34.8-4.9,35.6c-0.3,0.8-10-1.4-10-1.4
						s2.7-49,2.7-50.1c0-1.1,2.4-21.5,2.4-21.5l30.1,0.1L98.5,348.3z"/>
				</g>
				<path class="st3" d="M112,257.1l1.1,3.8c0,0,2.2,1,2.3,1.3c0.2,0.2,1.5,3.7,1.5,3.7l5.4,0.4l1.6-7.1l-7.9,0c0,0-0.8-0.3-1.2-0.8
					c-0.8-1-0.3-2.2-1.7-2.6C111.2,255.3,112,257.1,112,257.1z"/>
				<path class="st3" d="M59.8,256.9l-1.1,3.8c0,0-2.2,1-2.3,1.3c-0.2,0.2-1.5,3.7-1.5,3.7l-5.4,0.4l-1.6-6.9l7.9,0
					c0,0,0.9-0.4,1.3-1c0.8-1,0.9-2.4,1.9-2.7c0.7-0.2,1-0.2,1.2,0.1C60.2,255.9,59.8,256.9,59.8,256.9z"/>
				<ellipse class="st3" cx="77.3" cy="288.3" rx="2" ry="2.7"/>
				<g>
					<path class="st4" d="M65.8,312.8c0-0.1,0-0.2,0-0.3c-2.1-5.7-10.9-15.1-13.1-20.6c-2.3-5.8-5.4-14.2-4-24.2
						c0-0.3,0.2-0.5,0.4-0.6c1.2-0.6,5-0.4,5.4,0.1c0.1,0.2,0.2,3.4,0.4,4.8c1.3,8.3,4.7,14.5,10,20c2,2.1,5.1,5.4,7.6,7
						c1.4,0.9,7.2,4.6,13,4.1c6-0.5,12-5.3,13.9-6.7c3.9-3,7.1-6.7,9.7-10.8c1.8-2.8,3.4-5.9,4.6-9c0.3-0.7,2.1-7,2.6-9
						c0.1-0.4,0.4-0.6,0.8-0.5l4.7,0.6c0.4,0.1,0.7,0.5,0.6,0.9l-3.1,14.2c-1.1,4.9-2.4,9.5-5.5,13.6c-1.2,1.8-2.8,3.6-3.2,4.2
						c-1.1,1.5-2.3,2.9-3.4,4.4c-1.9,2.4-5,5.3-5.9,8.3c-0.5,1.8-0.5,4-0.7,5.8c-0.8,5.9-0.3,11.8-0.8,17.8
						c-0.1,1.2-0.2,2.4-0.2,3.5c-0.1,1.3-0.2,2.7-1.2,3.5c-0.7,0.5-1.7,0.6-2.6,0.6c-9.2,0.3-18.5-0.2-27.7,0.1
						c-0.4,0-0.8-0.3-0.8-0.7c-0.1-10.2-1.2-16.9-1.3-27.3L65.8,312.8z"/>
				</g>
			</g>
		</g>
	</g>
</g>
</svg>
