<svg id="el_9WyB45ctr" data-name="Layer 1" xmlns="http://www.w3.org/2000/svg" viewBox="0 0 351 551"><style>@-webkit-keyframes el_mxETR5721B_Animation{0%{opacity: 1;}50%{opacity: 0;}100%{opacity: 1;}}@keyframes el_mxETR5721B_Animation{0%{opacity: 1;}50%{opacity: 0;}100%{opacity: 1;}}@-webkit-keyframes el_XAPwPl9cYb_Animation{0%{opacity: 1;}50%{opacity: 0;}100%{opacity: 1;}}@keyframes el_XAPwPl9cYb_Animation{0%{opacity: 1;}50%{opacity: 0;}100%{opacity: 1;}}@-webkit-keyframes el_wUMu_-12Mu_Animation{0%{opacity: 1;}50%{opacity: 0;}100%{opacity: 1;}}@keyframes el_wUMu_-12Mu_Animation{0%{opacity: 1;}50%{opacity: 0;}100%{opacity: 1;}}@-webkit-keyframes el_4WVvxO6Y5tJ_uTwVZI0Xt_Animation{6.67%{-webkit-transform: translate(175.0099983215332px, 289.625px) translate(-175.0099983215332px, -289.625px) translate(0px, 0px);transform: translate(175.0099983215332px, 289.625px) translate(-175.0099983215332px, -289.625px) translate(0px, 0px);}56.67%{-webkit-transform: translate(175.0099983215332px, 289.625px) translate(-175.0099983215332px, -289.625px) translate(0px, 10px);transform: translate(175.0099983215332px, 289.625px) translate(-175.0099983215332px, -289.625px) translate(0px, 10px);}100%{-webkit-transform: translate(175.0099983215332px, 289.625px) translate(-175.0099983215332px, -289.625px) translate(0px, 0px);transform: translate(175.0099983215332px, 289.625px) translate(-175.0099983215332px, -289.625px) translate(0px, 0px);}0%{-webkit-transform: translate(175.0099983215332px, 289.625px) translate(-175.0099983215332px, -289.625px) translate(0px, 0px);transform: translate(175.0099983215332px, 289.625px) translate(-175.0099983215332px, -289.625px) translate(0px, 0px);}}@keyframes el_4WVvxO6Y5tJ_uTwVZI0Xt_Animation{6.67%{-webkit-transform: translate(175.0099983215332px, 289.625px) translate(-175.0099983215332px, -289.625px) translate(0px, 0px);transform: translate(175.0099983215332px, 289.625px) translate(-175.0099983215332px, -289.625px) translate(0px, 0px);}56.67%{-webkit-transform: translate(175.0099983215332px, 289.625px) translate(-175.0099983215332px, -289.625px) translate(0px, 10px);transform: translate(175.0099983215332px, 289.625px) translate(-175.0099983215332px, -289.625px) translate(0px, 10px);}100%{-webkit-transform: translate(175.0099983215332px, 289.625px) translate(-175.0099983215332px, -289.625px) translate(0px, 0px);transform: translate(175.0099983215332px, 289.625px) translate(-175.0099983215332px, -289.625px) translate(0px, 0px);}0%{-webkit-transform: translate(175.0099983215332px, 289.625px) translate(-175.0099983215332px, -289.625px) translate(0px, 0px);transform: translate(175.0099983215332px, 289.625px) translate(-175.0099983215332px, -289.625px) translate(0px, 0px);}}@-webkit-keyframes el_BZzxlN4BrUO_i1TUYBTYr_Animation{3.33%{-webkit-transform: translate(175.02499771118164px, 315.9949951171875px) translate(-175.02499771118164px, -315.9949951171875px) translate(0px, 0px);transform: translate(175.02499771118164px, 315.9949951171875px) translate(-175.02499771118164px, -315.9949951171875px) translate(0px, 0px);}53.33%{-webkit-transform: translate(175.02499771118164px, 315.9949951171875px) translate(-175.02499771118164px, -315.9949951171875px) translate(0px, 10px);transform: translate(175.02499771118164px, 315.9949951171875px) translate(-175.02499771118164px, -315.9949951171875px) translate(0px, 10px);}100%{-webkit-transform: translate(175.02499771118164px, 315.9949951171875px) translate(-175.02499771118164px, -315.9949951171875px) translate(0px, 0px);transform: translate(175.02499771118164px, 315.9949951171875px) translate(-175.02499771118164px, -315.9949951171875px) translate(0px, 0px);}0%{-webkit-transform: translate(175.02499771118164px, 315.9949951171875px) translate(-175.02499771118164px, -315.9949951171875px) translate(0px, 0px);transform: translate(175.02499771118164px, 315.9949951171875px) translate(-175.02499771118164px, -315.9949951171875px) translate(0px, 0px);}}@keyframes el_BZzxlN4BrUO_i1TUYBTYr_Animation{3.33%{-webkit-transform: translate(175.02499771118164px, 315.9949951171875px) translate(-175.02499771118164px, -315.9949951171875px) translate(0px, 0px);transform: translate(175.02499771118164px, 315.9949951171875px) translate(-175.02499771118164px, -315.9949951171875px) translate(0px, 0px);}53.33%{-webkit-transform: translate(175.02499771118164px, 315.9949951171875px) translate(-175.02499771118164px, -315.9949951171875px) translate(0px, 10px);transform: translate(175.02499771118164px, 315.9949951171875px) translate(-175.02499771118164px, -315.9949951171875px) translate(0px, 10px);}100%{-webkit-transform: translate(175.02499771118164px, 315.9949951171875px) translate(-175.02499771118164px, -315.9949951171875px) translate(0px, 0px);transform: translate(175.02499771118164px, 315.9949951171875px) translate(-175.02499771118164px, -315.9949951171875px) translate(0px, 0px);}0%{-webkit-transform: translate(175.02499771118164px, 315.9949951171875px) translate(-175.02499771118164px, -315.9949951171875px) translate(0px, 0px);transform: translate(175.02499771118164px, 315.9949951171875px) translate(-175.02499771118164px, -315.9949951171875px) translate(0px, 0px);}}@-webkit-keyframes el_wfbwM4aa80a_JZ0Qw-dkB_Animation{0%{-webkit-transform: translate(175.0099983215332px, 340.86000061035156px) translate(-175.0099983215332px, -340.86000061035156px) translate(0px, 0px);transform: translate(175.0099983215332px, 340.86000061035156px) translate(-175.0099983215332px, -340.86000061035156px) translate(0px, 0px);}50%{-webkit-transform: translate(175.0099983215332px, 340.86000061035156px) translate(-175.0099983215332px, -340.86000061035156px) translate(0px, 10px);transform: translate(175.0099983215332px, 340.86000061035156px) translate(-175.0099983215332px, -340.86000061035156px) translate(0px, 10px);}100%{-webkit-transform: translate(175.0099983215332px, 340.86000061035156px) translate(-175.0099983215332px, -340.86000061035156px) translate(0px, 0px);transform: translate(175.0099983215332px, 340.86000061035156px) translate(-175.0099983215332px, -340.86000061035156px) translate(0px, 0px);}}@keyframes el_wfbwM4aa80a_JZ0Qw-dkB_Animation{0%{-webkit-transform: translate(175.0099983215332px, 340.86000061035156px) translate(-175.0099983215332px, -340.86000061035156px) translate(0px, 0px);transform: translate(175.0099983215332px, 340.86000061035156px) translate(-175.0099983215332px, -340.86000061035156px) translate(0px, 0px);}50%{-webkit-transform: translate(175.0099983215332px, 340.86000061035156px) translate(-175.0099983215332px, -340.86000061035156px) translate(0px, 10px);transform: translate(175.0099983215332px, 340.86000061035156px) translate(-175.0099983215332px, -340.86000061035156px) translate(0px, 10px);}100%{-webkit-transform: translate(175.0099983215332px, 340.86000061035156px) translate(-175.0099983215332px, -340.86000061035156px) translate(0px, 0px);transform: translate(175.0099983215332px, 340.86000061035156px) translate(-175.0099983215332px, -340.86000061035156px) translate(0px, 0px);}}#el_9WyB45ctr *{-webkit-animation-duration: 3s;animation-duration: 3s;-webkit-animation-iteration-count: infinite;animation-iteration-count: infinite;-webkit-animation-timing-function: cubic-bezier(0, 0, 1, 1);animation-timing-function: cubic-bezier(0, 0, 1, 1);}#el_wUMu_-12Mu{fill: #fd6a33;-webkit-animation-name: el_wUMu_-12Mu_Animation;animation-name: el_wUMu_-12Mu_Animation;}#el_XAPwPl9cYb{fill: #f0353d;-webkit-animation-name: el_XAPwPl9cYb_Animation;animation-name: el_XAPwPl9cYb_Animation;}#el_hA0ACE8Kln{fill: #ff8c29;}#el_M6hm5ZvN3V{fill: #aedee2;}#el_YVTEHIUeLX{fill: #ff8c29;}#el_RLMoHdBwIo{fill: #4acfd9;}#el_mxETR5721B{fill: #ffd1a9;-webkit-animation-name: el_mxETR5721B_Animation;animation-name: el_mxETR5721B_Animation;}#el_h8-Db6I8Lv{fill: #fd6a33;}#el_HYJU91Ycwb{fill: #ff8c29;}#el_QGYb5HTyoD{fill: #9baaab;}#el_rygiF2608Z{fill: #fd6a33;}#el_AGEfL_enad{fill: #0295aa;}#el_uCAaDLpvbf{fill: #fd6a33;}#el_mYntuWLdzP{fill: #fff;}#el_EwC65p5WTL{fill: #fff;}#el_VdGpahdRJra{fill: #fff;}#el_IIrzk_ko4jZ{fill: #ea9d2d;}#el_WVbQW4Oqp78{fill: #c38325;}#el_TFGJsLffCCp{fill: #f7ba61;}#el_7dA26IOxBbs{fill: #f7ba61;}#el_3UPp9ESJUm8{fill: #f0353d;opacity: 0.85;}#el_8V0I4HxwSfi{fill: #c38325;}#el_ub0iAHc7WD8{fill: #da922a;}#el_wfbwM4aa80a{fill: #fd6a33;}#el_BZzxlN4BrUO{fill: #aedee2;}#el_4WVvxO6Y5tJ{fill: #4acfd9;}#el_wfbwM4aa80a_JZ0Qw-dkB{-webkit-animation-name: el_wfbwM4aa80a_JZ0Qw-dkB_Animation;animation-name: el_wfbwM4aa80a_JZ0Qw-dkB_Animation;-webkit-transform: translate(175.0099983215332px, 340.86000061035156px) translate(-175.0099983215332px, -340.86000061035156px) translate(0px, 0px);transform: translate(175.0099983215332px, 340.86000061035156px) translate(-175.0099983215332px, -340.86000061035156px) translate(0px, 0px);}#el_BZzxlN4BrUO_i1TUYBTYr{-webkit-animation-name: el_BZzxlN4BrUO_i1TUYBTYr_Animation;animation-name: el_BZzxlN4BrUO_i1TUYBTYr_Animation;-webkit-transform: translate(175.02499771118164px, 315.9949951171875px) translate(-175.02499771118164px, -315.9949951171875px) translate(0px, 0px);transform: translate(175.02499771118164px, 315.9949951171875px) translate(-175.02499771118164px, -315.9949951171875px) translate(0px, 0px);}#el_4WVvxO6Y5tJ_uTwVZI0Xt{-webkit-animation-name: el_4WVvxO6Y5tJ_uTwVZI0Xt_Animation;animation-name: el_4WVvxO6Y5tJ_uTwVZI0Xt_Animation;-webkit-transform: translate(175.0099983215332px, 289.625px) translate(-175.0099983215332px, -289.625px) translate(0px, 0px);transform: translate(175.0099983215332px, 289.625px) translate(-175.0099983215332px, -289.625px) translate(0px, 0px);}</style><defs/><title>deployment</title><path d="M175,192.48a19,19,0,0,0-19,19c0,9.23,13.41,27.44,16.1,31a3.61,3.61,0,0,0,5.75,0c2.69-3.56,16.1-21.77,16.1-31A19,19,0,0,0,175,192.48Z" id="el_wUMu_-12Mu"/><path d="M156.05,211.46c0,9.23,13.41,27.44,16.1,31a3.59,3.59,0,0,0,2.87,1.43V192.48A19,19,0,0,0,156.05,211.46Z" id="el_XAPwPl9cYb"/><path d="M99.24,210.59a3,3,0,0,1-5-2.24l0-28.75c-.19-4.22,0-5.06,2.15-7.08l24.73-22.32a3.65,3.65,0,0,1,5.57.9,2.85,2.85,0,0,1,.43,1.56V180.1c0,2.55.62,5.67-1.39,7.57C123.35,190,103.22,207,99.24,210.59Z" id="el_hA0ACE8Kln"/><path d="M223.07,79.1H127a3.61,3.61,0,0,0-3.6,3.61v69.18a3.6,3.6,0,0,0,3.6,3.6h96.09a3.6,3.6,0,0,0,3.6-3.6V82.71A3.61,3.61,0,0,0,223.07,79.1Z" id="el_M6hm5ZvN3V"/><path d="M177.86,19a3.61,3.61,0,0,0-5.68,0l-48,61.5a3.61,3.61,0,0,0-.4,3.8H226.3a3.61,3.61,0,0,0-.39-3.8Z" id="el_YVTEHIUeLX"/><path d="M175,92.55a24.75,24.75,0,1,0,24.75,24.75A24.77,24.77,0,0,0,175,92.55Z" id="el_RLMoHdBwIo"/><path d="M180.79,211.37a5.77,5.77,0,0,0-11.53,0c.22,1.95,2.54,6.57,5.77,11.85C178.25,218,180.56,213.33,180.79,211.37Z" id="el_mxETR5721B"/><path d="M247.39,209.59a3,3,0,0,0,5-2.24l0-28.75c.2-4.22,0-5.06-2.14-7.08L225.47,149.2a3.66,3.66,0,0,0-5.58.9,2.93,2.93,0,0,0-.43,1.56V179.1c0,2.55-.61,5.67,1.4,7.57C223.27,189,243.4,206,247.39,209.59Z" id="el_h8-Db6I8Lv"/><path d="M226.67,148.28H123.38v36.28a3.6,3.6,0,0,0,3.6,3.6h96.09a3.6,3.6,0,0,0,3.6-3.6Z" id="el_HYJU91Ycwb"/><path d="M127,79.1a3.61,3.61,0,0,0-3.6,3.61v69.18a3.6,3.6,0,0,0,3.6,3.6h48V79.1Z" id="el_QGYb5HTyoD"/><path d="M172.18,19l-48,61.5a3.61,3.61,0,0,0-.4,3.8H175V17.61A3.62,3.62,0,0,0,172.18,19Z" id="el_rygiF2608Z"/><path d="M150.28,117.3A24.77,24.77,0,0,0,175,142V92.55A24.77,24.77,0,0,0,150.28,117.3Z" id="el_AGEfL_enad"/><path d="M123.38,148.28v36.28a3.6,3.6,0,0,0,3.6,3.6h48V148.28Z" id="el_uCAaDLpvbf"/><path d="M167.34,122.82a3.6,3.6,0,0,1-2.55-6.15l9.61-9.61a3.6,3.6,0,0,1,5.09,5.1l-9.61,9.61A3.58,3.58,0,0,1,167.34,122.82Z" id="el_mYntuWLdzP"/><path d="M177,128.59a3.61,3.61,0,0,1-2.55-6.15l5.76-5.77a3.61,3.61,0,0,1,5.1,5.1l-5.77,5.76A3.55,3.55,0,0,1,177,128.59Z" id="el_EwC65p5WTL"/><path d="M211.54,138.2a3.61,3.61,0,0,1-3.61-3.61V100a3.61,3.61,0,0,1,7.21,0v34.59A3.61,3.61,0,0,1,211.54,138.2Z" id="el_VdGpahdRJra"/><rect x="71.09" y="391.88" width="207.87" height="138.57" id="el_IIrzk_ko4jZ"/><path d="M279,391.88H71.09l34.65-86.62H244.31Zm0,0" id="el_WVbQW4Oqp78"/><path d="M71.09,391.88H10.47l34.64-86.62h60.63Zm0,0" id="el_TFGJsLffCCp"/><path d="M279,391.88h60.62l-34.64-86.62H244.31Zm0,0" id="el_7dA26IOxBbs"/><path d="M201,452.5l-26-8.66-26,8.66V391.88h52Zm0,0" id="el_3UPp9ESJUm8"/><path d="M253,495.81h-43.3a8.67,8.67,0,0,1,0-17.33H253a8.67,8.67,0,0,1,0,17.33Zm0,0" id="el_8V0I4HxwSfi"/><rect x="105.74" y="305.26" width="138.58" height="86.61" id="el_ub0iAHc7WD8"/><g id="el_wfbwM4aa80a_JZ0Qw-dkB" data-animator-group="true" data-animator-type="0"><path d="M175,365.72,114.4,340.86,175,316l60.62,24.86Zm0,0" id="el_wfbwM4aa80a"/></g><g id="el_BZzxlN4BrUO_i1TUYBTYr" data-animator-group="true" data-animator-type="0"><path d="M175,340.86,114.4,316,175,291.13,235.65,316Zm0,0" id="el_BZzxlN4BrUO"/></g><g id="el_4WVvxO6Y5tJ_uTwVZI0Xt" data-animator-group="true" data-animator-type="0"><path d="M175,314.49,114.4,289.63,175,264.76l60.62,24.87Zm0,0" id="el_4WVvxO6Y5tJ"/></g></svg>