<?xml version="1.0" encoding="utf-8"?>
<!-- Generator: Adobe Illustrator 23.0.3, SVG Export Plug-In . SVG Version: 6.00 Build 0)  -->
<svg version="1.1" xmlns="http://www.w3.org/2000/svg" xmlns:xlink="http://www.w3.org/1999/xlink" x="0px" y="0px"
	 viewBox="0 0 1200 700" style="enable-background:new 0 0 1200 700;" xml:space="preserve">
<style type="text/css">
	.st0{opacity:0.7;}
	.st1{fill:url(#SVGID_1_);}
	.st2{fill:#F36B39;}
	.st3{fill:#F3B863;}
	.st4{fill:#5AC7D2;}
	.st5{fill:#EF373F;}
	.st6{opacity:0.8;fill:#0095AA;}
	.st7{fill:#D8E5E5;}
	.st8{fill:#B9C5C6;}
	.st9{opacity:0.6;fill:#11364F;}
	.st10{fill:#698083;}
	.st11{fill:url(#SVGID_2_);}
	.st12{opacity:0.1;fill:#CED5D5;}
	.st13{fill:#9BAAAB;}
	.st14{fill:url(#SVGID_3_);}
	.st15{fill:url(#SVGID_4_);}
	.st16{opacity:0.4;}
	.st17{fill:#FFFFFF;}
	.st18{opacity:0.3;}
	.st19{opacity:0.4;clip-path:url(#SVGID_6_);}
	.st20{opacity:0.4;clip-path:url(#SVGID_8_);}
	.st21{opacity:0.3;clip-path:url(#SVGID_10_);}
	.st22{opacity:0.65;fill:#11364F;}
	.st23{fill:#F68C31;}
	.st24{opacity:0.7;fill:#0095AA;}
	.st25{fill:#0095AA;}
	.st26{fill:#FDD1AA;}
	.st27{fill:#375659;}
	.st28{fill:#B4E2EA;}
	.st29{fill:#E6EAEA;}
	.st30{fill:#CED5D5;}
	.st31{fill:url(#SVGID_11_);}
	.st32{opacity:0.4;clip-path:url(#SVGID_13_);}
	.st33{opacity:0.4;clip-path:url(#SVGID_15_);}
</style>
<g id="colors">
</g>
<g id="web">
	<g id="phone-left">
		<path class="st10" d="M495.4,527.4H275.2v28c0,4.7,6.7,14.1,14.9,14.1h190.4c8.2,0,14.9-9.4,14.9-14.1V527.4z"/>
		<g>
			<linearGradient id="SVGID_1_" gradientUnits="userSpaceOnUse" x1="385.0082" y1="563.5653" x2="385.0082" y2="244.4715">
				<stop  offset="0" style="stop-color:#000000"/>
				<stop  offset="1" style="stop-color:#E98035"/>
			</linearGradient>
			<path class="st1" d="M274.9,244.5v302.8c0,9,7.3,16.3,16.3,16.3h187.6c9,0,16.3-7.3,16.3-16.3V244.9L274.9,244.5z"/>
			<path class="st12" d="M289.8,563.6c-8.2,0-14.9-6.7-14.9-14.9V188.1c0-8.2,6.7-20.4,14.9-20.4H385v396H289.8z"/>
			<path class="st7" d="M495.1,245H274.9v-63.3c0-4.7,6.7-14.1,14.9-14.1h190.4c8.2,0,14.9,9.4,14.9,14.1V245z"/>
			<path class="st8" d="M274.9,245v-63.3c0-4.7,6.7-14.1,14.9-14.1H385V245H274.9z"/>
			<path class="st13" d="M400.9,206.6h-31.7c-8.2,0-14.9,4.7-14.9,10.4c0,5.8,6.7,10.4,14.9,10.4h31.7c8.2,0,14.9-4.7,14.9-10.4
				C415.8,211.2,409.1,206.6,400.9,206.6z"/>
			<path class="st10" d="M369.1,227.5c-8.2,0-14.9-4.7-14.9-10.4c0-5.8,6.7-10.4,14.9-10.4H385v20.9H369.1z"/>
			<g>
				<path class="st7" d="M495.1,521.4H274.9v28c0,4.7,6.7,14.1,14.9,14.1h190.4c8.2,0,14.9-9.4,14.9-14.1V521.4z"/>
				<path class="st8" d="M274.9,521.4v28c0,4.7,6.7,14.1,14.9,14.1H385v-42.1H274.9z"/>
			</g>
		</g>
	</g>
	<g id="phone-right">
		<path class="st10" d="M906.3,527.1H686.2v28c0,4.7,6.7,14.1,14.9,14.1h190.4c8.2,0,14.9-9.4,14.9-14.1V527.1z"/>
		<g>
			<linearGradient id="SVGID_2_" gradientUnits="userSpaceOnUse" x1="795.8528" y1="563.1125" x2="795.8528" y2="244.6794">
				<stop  offset="0" style="stop-color:#000000"/>
				<stop  offset="1" style="stop-color:#E98035"/>
			</linearGradient>
			<path class="st11" d="M685.4,244.7l0.7,302.1c0,9,7.3,16.3,16.3,16.3H890c9,0,16.3-7.3,16.3-16.3l-4.7-301.7L685.4,244.7z"/>
			<path class="st12" d="M700.8,563.6c-8.2,0-14.9-6.7-14.9-14.9V188.1c0-8.2,6.7-20.4,14.9-20.4H796v396H700.8z"/>
			<path class="st7" d="M906.1,245H685.9v-63.3c0-4.7,6.7-14.1,14.9-14.1h190.4c8.2,0,14.9,9.4,14.9,14.1V245z"/>
			<path class="st8" d="M685.9,245v-63.3c0-4.7,6.7-14.1,14.9-14.1H796V245H685.9z"/>
			<path class="st13" d="M811.9,206.6h-31.7c-8.2,0-14.9,4.7-14.9,10.4c0,5.8,6.7,10.4,14.9,10.4h31.7c8.2,0,14.9-4.7,14.9-10.4
				C826.8,211.2,820.1,206.6,811.9,206.6z"/>
			<path class="st10" d="M780.1,227.5c-8.2,0-14.9-4.7-14.9-10.4c0-5.8,6.7-10.4,14.9-10.4H796v20.9H780.1z"/>
			<g>
				<path class="st7" d="M906.1,521.4H685.9v28c0,4.7,6.7,14.1,14.9,14.1h190.4c8.2,0,14.9-9.4,14.9-14.1V521.4z"/>
				<path class="st8" d="M685.9,521.4v28c0,4.7,6.7,14.1,14.9,14.1H796v-42.1H685.9z"/>
			</g>
		</g>
	</g>
	<g id="phone-middle">
		<path class="st10" d="M720.8,552.6H465.3v8.5c0,5.5,7.7,16.4,17.3,16.4h221c9.5,0,17.3-10.9,17.3-16.4V552.6z"/>
		<g>
			<linearGradient id="SVGID_3_" gradientUnits="userSpaceOnUse" x1="593.0905" y1="521.4019" x2="593.0905" y2="197.7085">
				<stop  offset="0" style="stop-color:#13364F"/>
				<stop  offset="1" style="stop-color:#E98035"/>
			</linearGradient>
			<path class="st14" d="M465.3,521.4V198.2l255.5-0.5v323.7H465.3z"/>
			<path class="st12" d="M482.6,569.5c-9.5,0-17.3-7.7-17.3-17.3V133.7c0-9.5,7.7-23.7,17.3-23.7h110.5v459.5H482.6z"/>
			<path class="st7" d="M720.8,199.8H465.3v-73.4c0-5.5,7.7-16.4,17.3-16.4h221c9.5,0,17.3,10.9,17.3,16.4V199.8z"/>
			<path class="st8" d="M465.3,199.8v-73.4c0-5.5,7.7-16.4,17.3-16.4h110.5v89.8H465.3z"/>
			<path class="st13" d="M611.5,155.2h-36.8c-9.5,0-17.3,5.4-17.3,12.1c0,6.7,7.7,12.1,17.3,12.1h36.8c9.5,0,17.3-5.4,17.3-12.1
				C628.8,160.6,621,155.2,611.5,155.2z"/>
			<path class="st10" d="M574.7,179.4c-9.5,0-17.3-5.4-17.3-12.1c0-6.7,7.7-12.1,17.3-12.1h18.4v24.2H574.7z"/>
			<g>
				<path class="st7" d="M720.8,521.6H465.3v32.5c0,5.5,7.7,16.4,17.3,16.4h221c9.5,0,17.3-10.9,17.3-16.4V521.6z"/>
				<path class="st8" d="M465.3,521.6v32.5c0,5.5,7.7,16.4,17.3,16.4h110.5v-48.9H465.3z"/>
			</g>
		</g>
	</g>
	<g id="gears">
		<g id="gear_1_" class="st16">
			<g id="_x36_66-gear2.png_1_">
				<g>
					<path class="st17" d="M442.1,447.1c0-1.3-1-2.5-2.3-2.7l-4.1-0.6c-1.1-0.2-2.1-1-2.3-2.2c-0.3-1.3-0.6-2.6-1-3.8
						c-0.4-1.1,0-2.3,0.9-3l3.2-2.6c1.1-0.8,1.3-2.3,0.7-3.5l-0.4-0.6c-0.7-1.2-2.1-1.6-3.3-1.1l-3.8,1.6c-1.1,0.4-2.3,0.1-3-0.7
						c-0.9-1-1.8-1.9-2.8-2.8c-0.9-0.8-1.1-2-0.7-3l1.5-3.8c0.5-1.3,0-2.7-1.2-3.3l-0.6-0.4c-1.2-0.7-2.6-0.4-3.5,0.7l-2.5,3.2
						c-0.7,0.9-1.9,1.3-3,0.9c-1.2-0.4-2.5-0.7-3.8-1c-1.1-0.2-2-1.1-2.2-2.3l-0.6-4.1c-0.2-1.4-1.3-2.4-2.7-2.4H404
						c-1.3,0-2.5,1-2.7,2.3l-0.6,4.1c-0.2,1.1-1,2.1-2.2,2.3c-1.3,0.3-2.6,0.6-3.8,1c-1.1,0.4-2.3,0-3-0.9l-2.5-3.2
						c-0.8-1.1-2.3-1.3-3.5-0.7l-0.6,0.4c-1.2,0.7-1.7,2.1-1.1,3.3l1.5,3.8c0.4,1.1,0.1,2.3-0.7,3c-1,0.9-1.9,1.8-2.8,2.8
						c-0.8,0.9-2,1.1-3,0.7l-3.8-1.6c-1.2-0.5-2.7,0-3.3,1.1l-0.3,0.6c-0.7,1.2-0.4,2.6,0.7,3.5l3.2,2.6c0.9,0.7,1.3,1.9,0.9,3
						c-0.4,1.2-0.8,2.5-1,3.8c-0.2,1.1-1.1,2-2.3,2.2l-4.1,0.6c-1.3,0.2-2.3,1.3-2.3,2.6v0.7c0,1.3,1,2.5,2.3,2.7l4.1,0.6
						c1.1,0.2,2.1,1,2.3,2.2c0.3,1.3,0.6,2.6,1,3.8c0.4,1.1,0,2.3-0.9,3l-3.2,2.6c-1.1,0.8-1.3,2.3-0.7,3.5l0.4,0.6
						c0.7,1.2,2.1,1.6,3.3,1.1l3.8-1.5c1.1-0.4,2.3-0.1,3,0.7c0.9,1,1.8,1.9,2.8,2.8c0.9,0.8,1.1,2,0.7,3l-1.5,3.8
						c-0.5,1.3,0,2.7,1.2,3.3l0.6,0.4c1.2,0.7,2.6,0.4,3.5-0.7l2.6-3.2c0.7-0.9,1.9-1.3,3-0.9c1.2,0.4,2.5,0.8,3.8,1
						c1.1,0.2,2,1.1,2.2,2.3l0.6,4.1c0.2,1.3,1.3,2.3,2.7,2.3h0.7c1.3,0,2.5-1,2.7-2.3l0.6-4.1c0.2-1.1,1-2.1,2.2-2.3
						c1.3-0.3,2.6-0.6,3.8-1c1.1-0.4,2.3,0,3,0.9l2.6,3.2c0.8,1.1,2.3,1.3,3.5,0.7l0.6-0.4c1.2-0.7,1.6-2.1,1.1-3.3l-1.6-3.8
						c-0.4-1.1-0.1-2.3,0.7-3c1-0.9,1.9-1.8,2.8-2.8c0.8-0.9,2-1.1,3-0.7l3.8,1.6c1.3,0.5,2.7,0,3.3-1.2l0.4-0.6
						c0.7-1.2,0.4-2.6-0.7-3.5l-3.2-2.5c-0.9-0.7-1.3-1.9-0.9-3c0.4-1.2,0.7-2.5,1-3.8c0.2-1.1,1.1-2,2.3-2.2l4.1-0.6
						c1.3-0.2,2.3-1.3,2.3-2.7L442.1,447.1L442.1,447.1z M404.3,466.3c-10.4,0-18.9-8.5-18.9-18.9s8.5-18.9,18.9-18.9
						s18.9,8.5,18.9,18.9S414.8,466.3,404.3,466.3z"/>
				</g>
			</g>
		</g>
		<g id="gear_3_" class="st16">
			<g id="_x36_66-gear2.png_3_">
				<g>
					<path class="st17" d="M814.7,400.5c0-2.1-1.5-3.8-3.5-4.1l-6.3-0.9c-1.7-0.3-3.1-1.6-3.5-3.3c-0.4-2-0.9-3.9-1.5-5.8
						c-0.6-1.7,0-3.5,1.4-4.6l5-3.9c1.6-1.3,2.1-3.5,1-5.3l-0.6-0.9c-1-1.8-3.2-2.5-5.1-1.8l-5.9,2.4c-1.6,0.6-3.5,0.2-4.6-1.1
						c-1.3-1.5-2.7-2.9-4.2-4.2c-1.3-1.2-1.8-3-1.1-4.6l2.4-5.9c0.8-1.9,0-4.1-1.8-5.1l-0.9-0.6c-1.8-1-4-0.6-5.3,1l-3.9,5
						c-1.1,1.4-2.9,1.9-4.6,1.4c-1.9-0.6-3.8-1.1-5.8-1.5c-1.7-0.3-3-1.7-3.3-3.5l-0.9-6.3c-0.3-2.1-2-3.6-4.1-3.6h-1.1
						c-2.1,0-3.8,1.5-4.1,3.5l-0.9,6.3c-0.3,1.7-1.6,3.1-3.3,3.5c-2,0.4-3.9,0.9-5.8,1.5c-1.7,0.6-3.5,0-4.6-1.4l-3.9-4.9
						c-1.3-1.6-3.5-2.1-5.3-1l-0.9,0.6c-1.8,1-2.5,3.2-1.8,5.1l2.4,5.9c0.6,1.6,0.2,3.5-1.1,4.6c-1.5,1.3-2.9,2.7-4.2,4.2
						c-1.2,1.3-3,1.8-4.6,1.1l-5.9-2.4c-1.9-0.8-4.1,0-5.1,1.8l-0.5,0.9c-1,1.8-0.6,4,1,5.3l5,3.9c1.4,1.1,1.9,2.9,1.4,4.6
						c-0.6,1.9-1.2,3.8-1.5,5.8c-0.3,1.7-1.7,3-3.5,3.3l-6.3,0.9c-2,0.3-3.5,2-3.5,4v1.1c0,2.1,1.5,3.8,3.5,4.1l6.3,0.9
						c1.7,0.3,3.1,1.6,3.5,3.3c0.4,2,0.9,3.9,1.5,5.8c0.6,1.7,0,3.5-1.4,4.5l-5,3.9c-1.6,1.3-2.1,3.5-1,5.3l0.6,0.9
						c1,1.8,3.2,2.5,5.1,1.8l5.9-2.4c1.6-0.6,3.5-0.2,4.6,1.1c1.3,1.5,2.7,2.9,4.2,4.2c1.3,1.2,1.8,3,1.1,4.6l-2.4,5.9
						c-0.8,1.9,0,4.1,1.8,5.1l0.9,0.6c1.8,1,4,0.6,5.3-1l3.9-5c1.1-1.4,2.9-1.9,4.6-1.4c1.9,0.6,3.8,1.2,5.8,1.5
						c1.7,0.3,3,1.7,3.3,3.5l0.9,6.3c0.3,2,2,3.5,4.1,3.5h1.1c2.1,0,3.8-1.5,4.1-3.5l0.9-6.3c0.3-1.7,1.6-3.1,3.3-3.5
						c2-0.4,3.9-0.9,5.8-1.5c1.7-0.6,3.5,0,4.5,1.4l3.9,5c1.3,1.6,3.5,2.1,5.3,1l0.9-0.6c1.8-1,2.5-3.2,1.8-5.1l-2.4-5.9
						c-0.6-1.6-0.2-3.5,1.1-4.6c1.5-1.3,2.9-2.7,4.2-4.2c1.2-1.3,3-1.8,4.6-1.1l5.9,2.4c1.9,0.8,4.1,0,5.1-1.8l0.6-0.9
						c1-1.8,0.6-4-1-5.3l-5-3.9c-1.4-1.1-1.9-2.9-1.4-4.5c0.6-1.9,1.1-3.8,1.5-5.8c0.3-1.7,1.7-3,3.5-3.3l6.3-0.9
						c2-0.3,3.5-2,3.5-4.1L814.7,400.5L814.7,400.5z M757,430c-15.9,0-28.9-12.9-28.9-28.9s12.9-28.9,28.9-28.9
						c15.9,0,28.9,12.9,28.9,28.9S772.9,430,757,430z"/>
				</g>
			</g>
		</g>
		<g id="gear_4_" class="st18">
			<g id="_x36_66-gear2.png_4_">
				<g>
					<path class="st17" d="M599.4,305.1c0-2.8-2.1-5.2-4.9-5.6l-8.7-1.2c-2.4-0.4-4.3-2.2-4.8-4.6c-0.5-2.8-1.2-5.4-2.1-8
						c-0.8-2.3,0-4.8,1.9-6.3l6.9-5.4c2.2-1.8,2.8-4.9,1.4-7.4l-0.8-1.3c-1.4-2.5-4.4-3.5-7.1-2.4l-8.2,3.3
						c-2.2,0.9-4.8,0.3-6.4-1.5c-1.8-2.1-3.8-4-5.9-5.9c-1.8-1.6-2.4-4.2-1.5-6.4l3.3-8.2c1.1-2.7,0-5.7-2.5-7.1l-1.3-0.8
						c-2.5-1.4-5.6-0.8-7.3,1.4l-5.4,6.9c-1.5,1.9-4,2.7-6.3,1.9c-2.6-0.9-5.3-1.6-8.1-2.1c-2.4-0.5-4.2-2.4-4.6-4.8l-1.2-8.7
						c-0.4-2.9-2.8-5-5.7-5h-1.5c-2.8,0-5.2,2.1-5.7,4.9l-1.2,8.7c-0.4,2.4-2.2,4.3-4.6,4.8c-2.8,0.5-5.4,1.2-8.1,2.1
						c-2.3,0.8-4.8,0-6.3-1.9l-5.3-6.8c-1.8-2.2-4.9-2.8-7.4-1.4l-1.3,0.8c-2.5,1.4-3.5,4.4-2.4,7.1l3.3,8.2
						c0.9,2.2,0.3,4.8-1.5,6.4c-2.1,1.8-4,3.8-5.9,5.9c-1.6,1.8-4.2,2.4-6.4,1.5l-8.2-3.3c-2.6-1.1-5.7,0-7.1,2.4l-0.7,1.3
						c-1.4,2.5-0.8,5.6,1.4,7.4l6.9,5.4c1.9,1.5,2.7,4,1.9,6.3c-0.9,2.6-1.6,5.3-2.1,8c-0.4,2.4-2.4,4.2-4.8,4.6l-8.7,1.2
						c-2.8,0.4-4.9,2.8-4.9,5.6v1.5c0,2.8,2.1,5.2,4.9,5.7l8.7,1.2c2.4,0.4,4.3,2.2,4.8,4.6c0.5,2.8,1.2,5.4,2.1,8
						c0.8,2.3,0,4.8-1.9,6.3l-6.9,5.4c-2.2,1.8-2.8,4.9-1.4,7.4l0.8,1.3c1.4,2.5,4.4,3.5,7.1,2.4l8.2-3.3c2.2-0.9,4.8-0.3,6.4,1.5
						c1.8,2.1,3.8,4,5.9,5.9c1.8,1.6,2.4,4.2,1.5,6.4l-3.3,8.2c-1.1,2.7,0,5.7,2.5,7.1l1.3,0.8c2.5,1.4,5.6,0.8,7.3-1.4l5.4-6.9
						c1.5-1.9,4-2.7,6.3-1.9c2.6,0.9,5.3,1.6,8,2.1c2.4,0.4,4.2,2.4,4.6,4.8l1.2,8.7c0.4,2.8,2.8,4.9,5.7,4.9h1.5
						c2.8,0,5.2-2.1,5.7-4.9l1.2-8.7c0.4-2.4,2.2-4.3,4.6-4.8c2.8-0.5,5.4-1.2,8-2.1c2.3-0.8,4.8,0,6.3,1.9l5.4,6.9
						c1.8,2.2,4.9,2.8,7.4,1.4l1.3-0.8c2.5-1.4,3.5-4.4,2.4-7.1l-3.3-8.2c-0.9-2.2-0.3-4.8,1.5-6.4c2.1-1.8,4-3.8,5.9-5.9
						c1.6-1.8,4.2-2.4,6.4-1.5l8.2,3.3c2.7,1.1,5.7,0,7.1-2.5l0.8-1.3c1.4-2.5,0.8-5.6-1.4-7.4l-6.9-5.4c-1.9-1.5-2.7-4-1.9-6.3
						c0.9-2.6,1.6-5.3,2.1-8c0.4-2.4,2.4-4.2,4.8-4.6l8.7-1.2c2.8-0.4,4.9-2.8,4.9-5.7L599.4,305.1L599.4,305.1z M519.5,345.9
						c-22.1,0-40-17.9-40-40s17.9-40,40-40c22.1,0,40,17.9,40,40S541.6,345.9,519.5,345.9z"/>
				</g>
			</g>
		</g>
		<g>
			<defs>
				<rect id="SVGID_5_" x="712.8" y="244.1" width="201" height="272"/>
			</defs>
			<clipPath id="SVGID_4_">
				<use xlink:href="#SVGID_5_"  style="overflow:visible;"/>
			</clipPath>
			<g id="gear_5_" style="opacity:0.4;clip-path:url(#SVGID_4_);">
				<g id="_x36_66-gear2.png_5_">
					<g>
						<path class="st17" d="M980.1,299c0-3.5-2.5-6.4-6-6.9l-10.6-1.5c-2.9-0.4-5.3-2.7-5.9-5.6c-0.7-3.4-1.5-6.7-2.6-9.8
							c-0.9-2.8,0-5.9,2.3-7.8l8.4-6.6c2.7-2.2,3.5-6,1.7-9l-0.9-1.6c-1.7-3-5.4-4.3-8.7-3l-10,4c-2.7,1.1-5.9,0.4-7.9-1.9
							c-2.2-2.5-4.6-4.9-7.2-7.2c-2.2-2-3-5.1-1.9-7.9l4-10c1.3-3.3,0-6.9-3-8.7l-1.6-0.9c-3-1.7-6.9-1-9,1.8l-6.6,8.4
							c-1.8,2.3-4.9,3.3-7.8,2.3c-3.2-1.1-6.5-1.9-9.9-2.6c-2.9-0.6-5.2-2.9-5.6-5.9l-1.5-10.6c-0.5-3.6-3.4-6.1-6.9-6.1h-1.9
							c-3.5,0-6.4,2.5-6.9,6l-1.5,10.6c-0.4,2.9-2.7,5.3-5.6,5.9c-3.4,0.7-6.7,1.5-9.9,2.6c-2.8,0.9-5.9,0-7.8-2.3l-6.5-8.3
							c-2.2-2.7-6-3.5-9-1.7l-1.6,0.9c-3,1.7-4.3,5.4-3,8.7l4,10c1.1,2.7,0.4,5.9-1.9,7.9c-2.5,2.2-4.9,4.7-7.2,7.2
							c-2,2.2-5.1,3-7.9,1.9l-10-4c-3.2-1.3-6.9,0-8.7,3l-0.9,1.6c-1.7,3-1,6.9,1.7,9l8.4,6.6c2.3,1.8,3.3,4.9,2.3,7.8
							c-1.1,3.2-2,6.5-2.6,9.8c-0.5,2.9-2.9,5.2-5.9,5.6l-10.7,1.5c-3.4,0.4-6,3.4-6,6.9v1.9c0,3.5,2.5,6.4,6,6.9l10.7,1.5
							c2.9,0.4,5.3,2.7,5.9,5.6c0.7,3.4,1.5,6.7,2.6,9.8c0.9,2.8,0,5.9-2.3,7.7l-8.4,6.6c-2.7,2.2-3.5,6-1.7,9l0.9,1.6
							c1.7,3,5.4,4.3,8.7,3l10-4c2.7-1.1,5.9-0.4,7.9,1.9c2.2,2.5,4.6,4.9,7.2,7.2c2.2,2,3,5.1,1.9,7.9l-4,10c-1.3,3.3,0,6.9,3,8.7
							l1.6,0.9c3,1.7,6.9,1,9-1.7l6.6-8.4c1.8-2.3,4.9-3.3,7.8-2.3c3.2,1.1,6.5,2,9.8,2.6c2.9,0.5,5.2,2.9,5.6,5.9l1.5,10.7
							c0.5,3.4,3.4,6,6.9,6h1.9c3.5,0,6.4-2.5,6.9-6l1.5-10.7c0.4-2.9,2.7-5.3,5.6-5.9c3.4-0.7,6.7-1.5,9.8-2.6
							c2.8-0.9,5.9,0,7.7,2.3l6.6,8.4c2.2,2.7,6,3.5,9,1.7l1.6-0.9c3-1.8,4.3-5.4,3-8.7l-4-10c-1.1-2.7-0.4-5.9,1.9-7.9
							c2.5-2.2,4.9-4.6,7.2-7.2c2-2.2,5.1-3,7.9-1.9l10,4c3.3,1.3,6.9,0,8.7-3l0.9-1.6c1.7-3,1-6.9-1.8-9l-8.4-6.6
							c-2.3-1.8-3.3-4.9-2.3-7.7c1.1-3.2,1.9-6.5,2.6-9.8c0.5-2.9,2.9-5.2,5.9-5.6l10.7-1.5c3.4-0.5,6-3.4,6-6.9L980.1,299
							L980.1,299z M882.2,348.9c-27,0-49-21.9-49-49c0-27,21.9-49,49-49s49,21.9,49,49C931.1,326.9,909.2,348.9,882.2,348.9z"/>
					</g>
				</g>
			</g>
		</g>
		<g>
			<defs>
				<rect id="SVGID_7_" x="460.1" y="201.2" width="262.8" height="320.1"/>
			</defs>
			<clipPath id="SVGID_6_">
				<use xlink:href="#SVGID_7_"  style="overflow:visible;"/>
			</clipPath>
			<g id="gear_2_" class="st19">
				<g id="_x36_66-gear2.png_2_">
					<g>
						<path class="st17" d="M698.1,463c0-3.1-2.3-5.7-5.3-6.1l-9.4-1.4c-2.6-0.4-4.7-2.4-5.2-5c-0.6-3-1.4-5.9-2.3-8.7
							c-0.8-2.5,0-5.2,2-6.9l7.5-5.9c2.4-1.9,3.1-5.3,1.5-8l-0.8-1.4c-1.5-2.7-4.8-3.8-7.7-2.6l-8.9,3.6c-2.4,1-5.2,0.3-7-1.7
							c-2-2.3-4.1-4.4-6.4-6.4c-2-1.7-2.6-4.5-1.7-7l3.5-8.9c1.1-2.9,0-6.1-2.7-7.7l-1.4-0.8c-2.7-1.5-6.1-0.9-8,1.6l-5.8,7.5
							c-1.6,2-4.4,2.9-6.9,2c-2.8-1-5.8-1.7-8.8-2.3c-2.6-0.5-4.6-2.6-5-5.2l-1.4-9.4c-0.5-3.2-3.1-5.4-6.1-5.4h-1.7
							c-3.1,0-5.7,2.3-6.1,5.3l-1.4,9.4c-0.4,2.6-2.4,4.7-5,5.2c-3,0.6-5.9,1.4-8.8,2.3c-2.5,0.8-5.2,0-6.9-2l-5.8-7.4
							c-1.9-2.4-5.3-3.1-8-1.5l-1.4,0.8c-2.7,1.5-3.8,4.8-2.6,7.7l3.5,8.9c1,2.4,0.3,5.2-1.7,7c-2.3,2-4.4,4.1-6.4,6.4
							c-1.7,2-4.5,2.6-7,1.7l-8.9-3.6c-2.8-1.1-6.1,0-7.7,2.6l-0.8,1.4c-1.5,2.7-0.9,6.1,1.5,8l7.5,5.9c2,1.6,2.9,4.4,2,6.9
							c-1,2.8-1.7,5.8-2.3,8.7c-0.5,2.6-2.6,4.6-5.2,5l-9.4,1.4c-3.1,0.4-5.3,3-5.3,6.1v1.7c0,3.1,2.3,5.7,5.3,6.1l9.4,1.4
							c2.6,0.4,4.7,2.4,5.2,5c0.6,3,1.4,5.9,2.3,8.7c0.8,2.5,0,5.2-2,6.8l-7.5,5.9c-2.4,1.9-3.1,5.3-1.5,8l0.8,1.4
							c1.5,2.7,4.8,3.8,7.7,2.6l8.9-3.5c2.4-1,5.2-0.3,7,1.7c2,2.3,4.1,4.4,6.4,6.4c2,1.7,2.6,4.5,1.7,7l-3.5,8.9
							c-1.1,2.9,0,6.1,2.7,7.7l1.4,0.8c2.7,1.5,6.1,0.9,8-1.5l5.9-7.5c1.6-2,4.4-2.9,6.9-2c2.8,1,5.8,1.7,8.7,2.3
							c2.6,0.5,4.6,2.6,5,5.2l1.4,9.4c0.5,3.1,3.1,5.3,6.1,5.3h1.7c3.1,0,5.7-2.3,6.1-5.3l1.4-9.4c0.4-2.6,2.4-4.7,5-5.2
							c3-0.6,5.9-1.4,8.7-2.3c2.5-0.8,5.2,0,6.8,2l5.9,7.5c1.9,2.4,5.3,3.1,8,1.5l1.4-0.8c2.7-1.6,3.8-4.8,2.6-7.7l-3.6-8.9
							c-1-2.4-0.3-5.2,1.7-7c2.3-2,4.4-4.1,6.4-6.4c1.7-2,4.5-2.6,7-1.7l8.9,3.6c2.9,1.1,6.1,0,7.7-2.7l0.8-1.4
							c1.5-2.7,0.9-6.1-1.6-8l-7.5-5.8c-2-1.6-2.9-4.4-2-6.8c0.9-2.8,1.7-5.8,2.3-8.7c0.5-2.6,2.6-4.6,5.2-5l9.4-1.4
							c3.1-0.5,5.3-3.1,5.3-6.1L698.1,463L698.1,463z M611.3,507.3c-24,0-43.4-19.5-43.4-43.4c0-24,19.5-43.4,43.4-43.4
							s43.4,19.5,43.4,43.4C654.7,487.8,635.3,507.3,611.3,507.3z"/>
					</g>
				</g>
			</g>
		</g>
		<g>
			<defs>
				<rect id="SVGID_9_" x="273.6" y="243" width="191.5" height="274.8"/>
			</defs>
			<clipPath id="SVGID_8_">
				<use xlink:href="#SVGID_9_"  style="overflow:visible;"/>
			</clipPath>
			<g id="gear_6_" style="opacity:0.3;clip-path:url(#SVGID_8_);">
				<g id="_x36_66-gear2.png_6_">
					<g>
						<path class="st17" d="M365.4,353.9c0-3.5-2.5-6.4-6-6.9l-10.6-1.5c-2.9-0.4-5.3-2.7-5.9-5.6c-0.7-3.4-1.5-6.7-2.6-9.8
							c-0.9-2.8,0-5.9,2.3-7.8l8.4-6.6c2.7-2.2,3.5-6,1.7-9l-0.9-1.6c-1.7-3-5.4-4.3-8.7-3l-10,4c-2.7,1.1-5.9,0.4-7.9-1.9
							c-2.2-2.5-4.6-4.9-7.2-7.2c-2.2-2-3-5.1-1.9-7.9l4-10c1.3-3.3,0-6.9-3-8.7l-1.6-0.9c-3-1.7-6.9-1-9,1.8l-6.6,8.4
							c-1.8,2.3-4.9,3.3-7.8,2.3c-3.2-1.1-6.5-1.9-9.9-2.6c-2.9-0.6-5.2-2.9-5.6-5.9l-1.5-10.6c-0.5-3.6-3.4-6.1-6.9-6.1h-1.9
							c-3.5,0-6.4,2.5-6.9,6l-1.5,10.6c-0.4,2.9-2.7,5.3-5.6,5.9c-3.4,0.7-6.7,1.5-9.9,2.6c-2.8,0.9-5.9,0-7.8-2.3l-6.5-8.3
							c-2.2-2.7-6-3.5-9-1.7l-1.6,0.9c-3,1.7-4.3,5.4-3,8.7l4,10c1.1,2.7,0.4,5.9-1.9,7.9c-2.5,2.2-4.9,4.7-7.2,7.2
							c-2,2.2-5.1,3-7.9,1.9l-10-4c-3.2-1.3-6.9,0-8.7,3l-0.9,1.6c-1.7,3-1,6.9,1.7,9l8.4,6.6c2.3,1.8,3.3,4.9,2.3,7.8
							c-1.1,3.2-2,6.5-2.6,9.8c-0.5,2.9-2.9,5.2-5.9,5.6l-10.7,1.5c-3.4,0.4-6,3.4-6,6.9v1.9c0,3.5,2.5,6.4,6,6.9l10.7,1.5
							c2.9,0.4,5.3,2.7,5.9,5.6c0.7,3.4,1.5,6.7,2.6,9.8c0.9,2.8,0,5.9-2.3,7.7L184,394c-2.7,2.2-3.5,6-1.7,9l0.9,1.6
							c1.7,3,5.4,4.3,8.7,3l10-4c2.7-1.1,5.9-0.4,7.9,1.9c2.2,2.5,4.6,4.9,7.2,7.2c2.2,2,3,5.1,1.9,7.9l-4,10c-1.3,3.3,0,6.9,3,8.7
							l1.6,0.9c3,1.7,6.9,1,9-1.7l6.6-8.4c1.8-2.3,4.9-3.3,7.8-2.3c3.2,1.1,6.5,2,9.8,2.6c2.9,0.5,5.2,2.9,5.6,5.9l1.5,10.7
							c0.5,3.4,3.4,6,6.9,6h1.9c3.5,0,6.4-2.5,6.9-6l1.5-10.7c0.4-2.9,2.7-5.3,5.6-5.9c3.4-0.7,6.7-1.5,9.8-2.6
							c2.8-0.9,5.9,0,7.7,2.3l6.6,8.4c2.2,2.7,6,3.5,9,1.7l1.6-0.9c3-1.8,4.3-5.4,3-8.7l-4-10c-1.1-2.7-0.4-5.9,1.9-7.9
							c2.5-2.2,4.9-4.6,7.2-7.2c2-2.2,5.1-3,7.9-1.9l10,4c3.3,1.3,6.9,0,8.7-3l0.9-1.6c1.7-3,1-6.9-1.8-9l-8.4-6.6
							c-2.3-1.8-3.3-4.9-2.3-7.7c1.1-3.2,1.9-6.5,2.6-9.8c0.5-2.9,2.9-5.2,5.9-5.6l10.7-1.5c3.4-0.5,6-3.4,6-6.9L365.4,353.9
							L365.4,353.9z M267.5,403.8c-27,0-49-21.9-49-49c0-27,21.9-49,49-49s49,21.9,49,49C316.5,381.9,294.6,403.8,267.5,403.8z"/>
					</g>
				</g>
			</g>
		</g>
	</g>
	<g id="icon-feedback">
		<path class="st22" d="M952,343.9h-54c-20.4,0-36.9-16.5-36.9-36.9v-53.9c0-20.4,16.5-36.9,36.9-36.9h54
			c20.4,0,36.9,16.5,36.9,36.9V307C988.9,327.4,972.4,343.9,952,343.9z"/>
		<path class="st4" d="M947.6,338.7h-51.8c-19.5,0-35.4-15.8-35.4-35.4v-51.8c0-19.5,15.8-35.4,35.4-35.4h51.8
			c19.5,0,35.4,15.8,35.4,35.4v51.8C983,322.8,967.1,338.7,947.6,338.7z"/>
		<g>
			<path class="st23" d="M935.6,249.6h-49.1c-0.7,0-1.3,0.6-1.3,1.3v55.4c0,0.7,0.6,1.3,1.3,1.3h9.9v12c0,0.5,0.3,1,0.8,1.2
				c0.2,0.1,0.3,0.1,0.5,0.1c0.3,0,0.7-0.1,0.9-0.4l13.3-12.9h23.7c0.7,0,1.3-0.6,1.3-1.3V251C936.9,250.2,936.3,249.6,935.6,249.6z
				"/>
			<path class="st2" d="M886.5,249.6c-0.7,0-1.3,0.6-1.3,1.3v55.4c0,0.7,0.6,1.3,1.3,1.3h9.9v12c0,0.5,0.3,1,0.8,1.2
				c0.2,0.1,0.3,0.1,0.5,0.1c0.3,0,0.7-0.1,0.9-0.4l13.1-12.8v-58.2H886.5z"/>
			<g>
				<path class="st17" d="M925.8,260.9h-29.4c-0.7,0-1.3,0.6-1.3,1.3v4.2c0,0.7,0.6,1.3,1.3,1.3h29.4c0.7,0,1.3-0.6,1.3-1.3v-4.2
					C927.1,261.4,926.5,260.9,925.8,260.9z"/>
				<path class="st17" d="M925.8,274.9h-29.4c-0.7,0-1.3,0.6-1.3,1.3v4.2c0,0.7,0.6,1.3,1.3,1.3h29.4c0.7,0,1.3-0.6,1.3-1.3v-4.2
					C927.1,275.5,926.5,274.9,925.8,274.9z"/>
				<path class="st17" d="M925.8,288.9h-29.4c-0.7,0-1.3,0.6-1.3,1.3v4.2c0,0.7,0.6,1.3,1.3,1.3h29.4c0.7,0,1.3-0.6,1.3-1.3v-4.2
					C927.1,289.5,926.5,288.9,925.8,288.9z"/>
			</g>
			<path class="st24" d="M955.1,288.5c7.5-5.3,11.9-13.7,11.9-22.5c0-15.6-13.6-28.3-30.4-28.3c-16.8,0-30.4,12.7-30.4,28.3
				s13.6,28.3,30.4,28.3c2.6,0,5.1-0.3,7.6-0.9l13.4,5c0.2,0.1,0.3,0.1,0.5,0.1c0.4,0,0.7-0.2,1-0.4c0.4-0.4,0.4-1,0.2-1.5
				L955.1,288.5z"/>
			<path class="st25" d="M906.4,266c0,15.6,13.6,28.3,30.4,28.3v-56.6C920.1,237.6,906.4,250.3,906.4,266z"/>
			<g>
				<path class="st17" d="M960.5,267.3c-0.7,0-1.3-0.6-1.3-1.3c0-3.1-0.7-6.1-2.2-8.8c-0.3-0.6-0.1-1.4,0.5-1.8
					c0.6-0.3,1.4-0.1,1.8,0.5c1.7,3.2,2.5,6.6,2.5,10.1C961.8,266.8,961.2,267.3,960.5,267.3z"/>
				<path class="st17" d="M953.8,252.3c-0.3,0-0.7-0.1-0.9-0.4c-4.3-4.1-10.1-6.3-16.3-6.3c-0.7,0-1.3-0.6-1.3-1.3s0.6-1.3,1.3-1.3
					c6.9,0,13.3,2.5,18.1,7c0.5,0.5,0.5,1.3,0,1.9C954.5,252.1,954.2,252.3,953.8,252.3z"/>
				<path class="st17" d="M935.2,263c-2.9,0-5.2,2.3-5.2,5.2s2.3,5.2,5.2,5.2c2.9,0,5.2-2.3,5.2-5.2S938.1,263,935.2,263z"/>
				<path class="st17" d="M949.2,263c-2.9,0-5.2,2.3-5.2,5.2s2.3,5.2,5.2,5.2s5.2-2.3,5.2-5.2S952.1,263,949.2,263z"/>
				<path class="st17" d="M921.2,263c-2.9,0-5.2,2.3-5.2,5.2s2.3,5.2,5.2,5.2c2.9,0,5.2-2.3,5.2-5.2S924.1,263,921.2,263z"/>
			</g>
		</g>
	</g>
	<g id="icon-design">
		<path class="st22" d="M512.4,327.2h-48.9c-18.4,0-33.4-15-33.4-33.4v-48.8c0-18.4,15-33.4,33.4-33.4h48.9
			c18.4,0,33.4,15,33.4,33.4v48.8C545.8,312.2,530.8,327.2,512.4,327.2z"/>
		<path class="st3" d="M507.4,321.4h-46.9c-17.7,0-32-14.3-32-32v-46.9c0-17.7,14.3-32,32-32h46.9c17.7,0,32,14.3,32,32v46.9
			C539.4,307.1,525.1,321.4,507.4,321.4z"/>
		<g id="ruler_1_">
			<g>
				<path class="st23" d="M517.9,287.2L485.5,255l-1.1-1.1l-2.3-2.3L465,234.6c-0.9-0.9-2.4-0.9-3.4-0.1c0,0-0.1,0-0.1,0.1
					l-10.5,10.6c-1,1-1,2.5,0,3.5l1.8,1.8l7-7.1l1.8,1.8l-7,7.1l3.5,3.5l3.5-3.5l1.8,1.8l-3.5,3.5l3.5,3.5l7-7.1l1.8,1.8l-7,7.1
					l3.5,3.5l3.5-3.5l1.8,1.8l-3.5,3.5l3.5,3.5l7-7.1l1.8,1.8l-7,7.1l3.5,3.5l3.5-3.5l1.8,1.8l-3.5,3.5l3.5,3.5l7-7.1l1.8,1.8
					l-7,7.1l3.5,3.5l3.5-3.5l1.8,1.8l-3.5,3.5l3.5,3.5l7-7.1l1.8,1.8l-7,7.1l3.5,3.5l3.5-3.5l1.8,1.8l-3.5,3.5l1.8,1.8
					c1,1,2.6,1,3.5,0l10.5-10.6C518.9,289.8,518.9,288.2,517.9,287.2z"/>
				<g>
					
						<rect x="500.5" y="295.7" transform="matrix(0.7047 -0.7095 0.7095 0.7047 -62.1609 444.5815)" class="st2" width="5" height="2.5"/>
					
						<rect x="494.5" y="288.7" transform="matrix(0.7047 -0.7095 0.7095 0.7047 -58.2115 439.9958)" class="st2" width="9.9" height="2.5"/>
					
						<rect x="489.9" y="285.2" transform="matrix(0.7047 -0.7095 0.7095 0.7047 -57.8227 433.9563)" class="st2" width="5" height="2.5"/>
					
						<rect x="468.8" y="264.2" transform="matrix(0.7047 -0.7095 0.7095 0.7047 -49.151 412.7171)" class="st2" width="5" height="2.5"/>
					
						<rect x="479.4" y="274.7" transform="matrix(0.7047 -0.7095 0.7095 0.7047 -53.4892 423.3424)" class="st2" width="5" height="2.5"/>
					
						<rect x="473.3" y="267.6" transform="matrix(0.7047 -0.7095 0.7095 0.7047 -49.5398 418.7567)" class="st2" width="9.9" height="2.5"/>
					
						<rect x="458.2" y="253.6" transform="matrix(0.7047 -0.7095 0.7095 0.7047 -44.8129 402.0919)" class="st2" width="5" height="2.5"/>
					
						<rect x="462.7" y="257.1" transform="matrix(0.7047 -0.7095 0.7095 0.7047 -45.2016 408.1314)" class="st2" width="9.9" height="2.5"/>
					
						<rect x="483.9" y="278.2" transform="matrix(0.7047 -0.7095 0.7095 0.7047 -53.8733 429.3705)" class="st2" width="9.9" height="2.5"/>
					
						<rect x="452.1" y="246.6" transform="matrix(0.7047 -0.7095 0.7095 0.7047 -40.8634 397.5062)" class="st2" width="9.9" height="2.5"/>
				</g>
			</g>
		</g>
		<g>
			<path class="st4" d="M449.4,291.7l9,9c0.3,0.3,0.8,0.5,1.2,0.5c0.5,0,0.9-0.2,1.2-0.5l41.2-41.2l9.1-9.1c0.2-0.2,0.3-0.4,0.4-0.7
				l4.5-13.6c0.2-0.6,0-1.3-0.4-1.8c-0.3-0.3-0.8-0.5-1.2-0.5c-0.2,0-0.4,0-0.5,0.1l-13.6,4.5c-0.3,0.1-0.5,0.2-0.7,0.4L477,261.6
				c0,0-0.1,0.1-0.1,0.1l-27.5,27.5C448.7,289.9,448.7,291,449.4,291.7z"/>
			<path class="st25" d="M454,296.3l61.7-61.7c0,0-0.1-0.1-0.1-0.1c-0.3-0.3-0.8-0.5-1.2-0.5c-0.2,0-0.4,0-0.5,0.1l-13.6,4.5
				c-0.3,0.1-0.5,0.2-0.7,0.4L477,261.6c0,0-0.1,0.1-0.1,0.1l-27.5,27.5c-0.7,0.7-0.7,1.8,0,2.4L454,296.3z"/>
			<path class="st26" d="M511.5,249.8l4.5-13.6c0.2-0.6,0-1.3-0.4-1.8c-0.3-0.3-0.8-0.5-1.2-0.5c-0.2,0-0.4,0-0.5,0.1l-13.6,4.5
				c-0.6,0.2-1,0.7-1.1,1.2l11.1,11.1C510.9,250.8,511.3,250.4,511.5,249.8z"/>
			<path class="st27" d="M517.2,231.2c0.4,0,0.9,0.2,1.2,0.5c0.7,0.7,0.7,1.8,0,2.4l-2.7,2.7c-0.7,0.7-1.8,0.7-2.4,0
				c-0.7-0.7-0.7-1.8,0-2.4l2.7-2.7C516.3,231.4,516.8,231.2,517.2,231.2z"/>
		</g>
	</g>
	<g id="icon-dev">
		<path class="st22" d="M757,445.9h-63.8c-24,0-43.5-19.5-43.5-43.5v-63.7c0-24,19.5-43.5,43.5-43.5H757c24,0,43.5,19.5,43.5,43.5
			v63.7C800.6,426.4,781.1,445.9,757,445.9z"/>
		<path class="st23" d="M752.1,440h-61.2c-23.1,0-41.8-18.7-41.8-41.8V337c0-23.1,18.7-41.8,41.8-41.8h61.2
			c23.1,0,41.8,18.7,41.8,41.8v61.2C793.9,421.3,775.2,440,752.1,440z"/>
		<g>
			<path class="st28" d="M753.7,354.2c-1.5,0-2.9,0.1-4.3,0.4c0.1-0.8,0.1-1.6,0.1-2.3c0-14-11.4-25.3-25.3-25.3
				c-13.8,0-25.1,11.1-25.3,24.9c-2.5-0.9-5.1-1.3-7.8-1.3c-13.2,0-23.9,10.7-23.9,23.9c0,6,2.2,11.7,6.2,16.1
				c3.8,4.2,9,6.9,14.7,7.6c0.2,0.1,0.5,0.2,0.8,0.2h64.4c0,0,0.1,0,0.1,0c0.1,0,0.2,0,0.3,0c12.2,0,22.1-9.9,22.1-22.1
				S765.9,354.2,753.7,354.2z"/>
			<path class="st4" d="M698.9,351.8c-2.5-0.9-5.1-1.3-7.8-1.3c-13.2,0-23.9,10.7-23.9,23.9c0,6,2.2,11.7,6.2,16.1
				c3.8,4.2,9,6.9,14.7,7.6c0.2,0.1,0.5,0.2,0.8,0.2h32.7v-71.3C708.9,328.4,699.1,339,698.9,351.8z"/>
			<g>
				<path class="st2" d="M758.5,370.5l-14.4-13.6c-0.8-0.8-1.9-1.2-3-1.2c-1.1,0-2.2,0.5-3,1.3c-0.8,0.8-1.2,1.9-1.2,3
					c0,1.1,0.5,2.2,1.3,3l11,10.5l-10.9,9.8c-0.8,0.8-1.4,1.8-1.4,2.9c-0.1,1.1,0.3,2.2,1.1,3.1c0.8,0.9,2,1.4,3.2,1.4c0,0,0,0,0,0
					c1,0,2.1-0.4,2.8-1.1l14.4-12.9c0.9-0.8,1.4-1.9,1.4-3.1C759.9,372.5,759.4,371.4,758.5,370.5z"/>
				<path class="st2" d="M730.4,357.8c-2-1.2-4.6-0.5-5.8,1.6l-14.4,25c-1.2,2-0.5,4.6,1.6,5.8c0.6,0.4,1.4,0.6,2.1,0.6
					c1.5,0,2.9-0.8,3.7-2.1l14.4-25c0.6-1,0.7-2.1,0.4-3.2C732.1,359.3,731.4,358.4,730.4,357.8z"/>
			</g>
			<g>
				<path class="st5" d="M710.2,384.4c-1.2,2-0.5,4.6,1.6,5.8c0.6,0.4,1.4,0.6,2.1,0.6c1.5,0,2.9-0.8,3.7-2.1l3.9-6.7v-17.1
					L710.2,384.4z"/>
				<path class="st5" d="M706.1,360.1c0-1.1-0.4-2.2-1.2-3c-0.8-0.8-1.8-1.3-3-1.3c-1.1,0-2.2,0.4-3,1.2l-14.4,13.6
					c-0.9,0.8-1.3,2-1.3,3.2c0,1.2,0.5,2.3,1.4,3.1l14.4,12.9c0.8,0.7,1.8,1.1,2.8,1.1c0,0,0,0,0,0c1.2,0,2.4-0.5,3.2-1.4
					c1.6-1.8,1.4-4.5-0.3-6l-10.9-9.8l11-10.5C705.6,362.3,706,361.2,706.1,360.1z"/>
			</g>
		</g>
	</g>
	<g id="icon-target">
		<path class="st22" d="M344.5,505.4H289c-21,0-37.9-17-37.9-37.9V412c0-21,17-37.9,37.9-37.9h55.6c21,0,37.9,17,37.9,37.9v55.5
			C382.5,488.4,365.5,505.4,344.5,505.4z"/>
		<path class="st2" d="M340.1,500.2h-53.3c-20.1,0-36.4-16.3-36.4-36.4v-53.3c0-20.1,16.3-36.4,36.4-36.4h53.3
			c20.1,0,36.4,16.3,36.4,36.4v53.3C376.5,483.9,360.2,500.2,340.1,500.2z"/>
		<g>
			<path class="st4" d="M312.8,404.8c-20.3,0-36.8,16.5-36.8,36.8c0,20.3,16.5,36.8,36.8,36.8s36.8-16.5,36.8-36.8
				C349.6,421.3,333.1,404.8,312.8,404.8z"/>
			<path class="st25" d="M276.1,441.5c0,20.3,16.5,36.8,36.8,36.8v-73.5C292.6,404.8,276.1,421.3,276.1,441.5z"/>
			<path class="st29" d="M312.8,415.8c-14.2,0-25.7,11.5-25.7,25.7c0,14.2,11.5,25.7,25.7,25.7c14.2,0,25.7-11.5,25.7-25.7
				C338.6,427.4,327,415.8,312.8,415.8z"/>
			<g>
				<path class="st30" d="M287.1,441.5c0,14.2,11.5,25.7,25.7,25.7v-51.5C298.7,415.8,287.1,427.4,287.1,441.5z"/>
				<path class="st30" d="M312.8,425.3c-9,0-16.3,7.3-16.3,16.3c0,9,7.3,16.3,16.3,16.3s16.3-7.3,16.3-16.3
					C329.1,432.6,321.8,425.3,312.8,425.3z"/>
			</g>
			<path class="st13" d="M296.6,441.5c0,9,7.3,16.3,16.3,16.3v-32.5C303.9,425.3,296.6,432.6,296.6,441.5z"/>
			<path class="st2" d="M312.8,432.3c-5.1,0-9.3,4.2-9.3,9.3c0,5.1,4.2,9.3,9.3,9.3c5.1,0,9.3-4.2,9.3-9.3
				C322.1,436.4,318,432.3,312.8,432.3z"/>
			<path class="st5" d="M303.6,441.5c0,5.1,4.2,9.3,9.3,9.3v-18.5C307.7,432.3,303.6,436.4,303.6,441.5z"/>
			<path class="st27" d="M313.4,441.2c-0.4,0-0.7-0.1-1-0.4c-0.6-0.6-0.6-1.5,0-2.1l34.5-34.5c0.6-0.6,1.5-0.6,2.1,0
				c0.6,0.6,0.6,1.5,0,2.1l-34.5,34.5C314.1,441.1,313.8,441.2,313.4,441.2z"/>
			<path class="st29" d="M349.6,385.2c0-0.6-0.4-1.1-0.9-1.3c-0.5-0.2-1.2-0.1-1.6,0.3l-20.4,20.4c-0.3,0.3-0.4,0.6-0.4,1v19.8
				c0,0,0,0,0,0.1c0,0,0,0.1,0,0.1c0,0,0,0.1,0,0.1c0,0,0,0.1,0,0.1c0,0,0,0.1,0,0.1c0,0,0,0,0,0.1c0,0,0,0,0,0c0,0,0,0.1,0.1,0.1
				c0,0,0,0.1,0.1,0.1c0,0,0,0.1,0.1,0.1c0,0,0,0.1,0.1,0.1c0,0,0,0.1,0.1,0.1l22.9-22.9L349.6,385.2L349.6,385.2z"/>
			<path class="st13" d="M369.3,404.5c-0.2-0.5-0.8-0.9-1.3-0.9h-18.4l-22.9,22.9c0,0,0,0.1,0.1,0.1c0,0,0.1,0,0.1,0.1
				c0,0,0.1,0,0.1,0.1c0,0,0.1,0,0.1,0.1c0,0,0.1,0,0.1,0.1c0,0,0,0,0,0c0,0,0.1,0,0.1,0c0,0,0,0,0,0c0.1,0,0.1,0,0.2,0c0,0,0,0,0,0
				c0.1,0,0.1,0,0.2,0h0c0,0,0,0,0,0h19.8c0.4,0,0.8-0.2,1-0.4l20.4-20.4C369.4,405.7,369.5,405,369.3,404.5z"/>
			<path class="st10" d="M336.6,416.5c0.3,0.3,0.6,0.4,1,0.4h20.4l2.9-2.9h-21.9L336.6,416.5z"/>
			<path class="st13" d="M339.1,392.1l-2.9,2.9v20.4c0,0.4,0.2,0.8,0.4,1l2.5-2.5V392.1z"/>
		</g>
	</g>
	<g id="floating_tiles">
		<path class="st3" d="M916.9,498.1h-25.9c-5.3,0-9.5-4.3-9.5-9.5v-25.9c0-5.3,4.3-9.5,9.5-9.5h25.9c5.3,0,9.5,4.3,9.5,9.5v25.9
			C926.4,493.9,922.1,498.1,916.9,498.1z"/>
		<path class="st2" d="M1111.2,310.1h-25.9c-5.3,0-9.5-4.3-9.5-9.5v-25.9c0-5.3,4.3-9.5,9.5-9.5h25.9c5.3,0,9.5,4.3,9.5,9.5v25.9
			C1120.7,305.8,1116.4,310.1,1111.2,310.1z"/>
		<path class="st4" d="M1134.3,237.5H1116c-3.7,0-6.7-3-6.7-6.7v-18.3c0-3.7,3-6.7,6.7-6.7h18.3c3.7,0,6.7,3,6.7,6.7v18.3
			C1141.1,234.4,1138,237.5,1134.3,237.5z"/>
		<path class="st3" d="M1015,222.2h-18.3c-3.7,0-6.7-3-6.7-6.7v-18.3c0-3.7,3-6.7,6.7-6.7h18.3c3.7,0,6.7,3,6.7,6.7v18.3
			C1021.7,219.2,1018.7,222.2,1015,222.2z"/>
		<path class="st4" d="M1019.3,362H1001c-3.7,0-6.7-3-6.7-6.7V337c0-3.7,3-6.7,6.7-6.7h18.3c3.7,0,6.7,3,6.7,6.7v18.3
			C1026,359,1023,362,1019.3,362z"/>
		<path class="st4" d="M194.7,286.8h-18.3c-3.7,0-6.7-3-6.7-6.7v-18.3c0-3.7,3-6.7,6.7-6.7h18.3c3.7,0,6.7,3,6.7,6.7v18.3
			C201.4,283.8,198.4,286.8,194.7,286.8z"/>
		<path class="st25" d="M285.5,256.6h-25.9c-5.3,0-9.5-4.3-9.5-9.5v-25.9c0-5.3,4.3-9.5,9.5-9.5h25.9c5.3,0,9.5,4.3,9.5,9.5v25.9
			C295,252.4,290.7,256.6,285.5,256.6z"/>
		<path class="st3" d="M146.5,233.3h-18.3c-3.7,0-6.7-3-6.7-6.7v-18.3c0-3.7,3-6.7,6.7-6.7h18.3c3.7,0,6.7,3,6.7,6.7v18.3
			C153.2,230.2,150.2,233.3,146.5,233.3z"/>
		<path class="st4" d="M252,536.7h-18.3c-3.7,0-6.7-3-6.7-6.7v-18.3c0-3.7,3-6.7,6.7-6.7H252c3.7,0,6.7,3,6.7,6.7v18.3
			C258.8,533.7,255.8,536.7,252,536.7z"/>
		<path class="st23" d="M102.8,458.2H76.9c-5.3,0-9.5-4.3-9.5-9.5v-25.9c0-5.3,4.3-9.5,9.5-9.5h25.9c5.3,0,9.5,4.3,9.5,9.5v25.9
			C112.3,453.9,108.1,458.2,102.8,458.2z"/>
		<path class="st4" d="M854.3,529.3h-18.3c-3.7,0-6.7-3-6.7-6.7v-18.3c0-3.7,3-6.7,6.7-6.7h18.3c3.7,0,6.7,3,6.7,6.7v18.3
			C861,526.3,858,529.3,854.3,529.3z"/>
		<path class="st3" d="M1171.9,431.7h-18.3c-3.7,0-6.7-3-6.7-6.7v-18.3c0-3.7,3-6.7,6.7-6.7h18.3c3.7,0,6.7,3,6.7,6.7V425
			C1178.7,428.7,1175.7,431.7,1171.9,431.7z"/>
	</g>
	<g id="guy_1_">
		<path class="st27" d="M213.7,624.3c0,0,0.3,7.3,1.8,8.8s18.8,9.1,20.7,10.9s1.2,5.8,1.2,5.8l-36.2-0.6c0,0-0.9-0.6-0.9-7
			s0.3-18.2,0.3-18.2L213.7,624.3z"/>
		<path class="st27" d="M146.3,624.3c0,0-0.3,7.3-1.8,8.8s-18.8,9.1-20.7,10.9s-1.2,5.8-1.2,5.8l36.2-0.6c0,0,0.9-0.6,0.9-7
			s-0.3-18.2-0.3-18.2L146.3,624.3z"/>
		<g id="guy">
			<g>
				<g>
					<path class="st30" d="M272.2,296.6l-180.2,0c-1.8,0-3.2,1.4-3.2,3.2l0,17c0,0.8,0.3,1.7,0.9,2.3c0.6,0.6,1.4,0.9,2.3,0.9
						l180.2,0c0.8,0,1.7-0.3,2.3-0.9c0.6-0.6,0.9-1.4,0.9-2.3l0-17C275.4,298,274,296.6,272.2,296.6z"/>
					<path class="st30" d="M80.1,269.3H40.9c-1.8,0-3.2,1.4-3.2,3.2l0,17c0,1.8,1.4,3.2,3.2,3.2h29.2v31.1l-29.2,0
						c-1.8,0-3.2,1.4-3.2,3.2l0,17c0,1.8,1.4,3.2,3.2,3.2h39.2c0.9,0,1.7-0.3,2.3-0.9c0.1-0.1,0.1-0.1,0.2-0.2l17-20.5
						c0.5-0.6,0.7-1.3,0.7-2V293c0-0.7-0.3-1.5-0.7-2l-17-20.5C81.9,269.7,81,269.3,80.1,269.3z"/>
				</g>
				<path class="st30" d="M323.4,269.3h-39.2c-0.9,0-1.8,0.4-2.5,1.1l-17,20.5c-0.5,0.6-0.7,1.3-0.7,2v30.7c0,0.7,0.3,1.5,0.7,2
					l17,20.5c0.6,0.7,1.5,1.2,2.5,1.1h39.2c0.9,0,1.7-0.4,2.3-0.9c0.6-0.6,0.9-1.4,0.9-2.3v-17c0-1.8-1.4-3.2-3.2-3.2h-29.2v-31.1
					h29.2c1.8,0,3.2-1.4,3.2-3.2v-17C326.6,270.8,325.1,269.3,323.4,269.3z"/>
				<path class="st10" d="M88.8,308l0,8.8c0,0.8,0.3,1.7,0.9,2.3c0.6,0.6,1.4,0.9,2.3,0.9h180.2c0.8,0,1.7-0.3,2.3-0.9
					c0.6-0.6,0.9-1.4,0.9-2.3l0-8.8H88.8z"/>
				<g>
					<path class="st13" d="M70.1,308v15.8l-29.2,0c-1.8,0-3.2,1.4-3.2,3.2l0,17c0,1.8,1.4,3.2,3.2,3.2h39.2c0.9,0,1.7-0.3,2.3-0.9
						c0.1-0.1,0.1-0.1,0.2-0.2l17-20.5c0.5-0.6,0.7-1.3,0.7-2V308L70.1,308z"/>
					<path class="st13" d="M263.9,323.7c0,0.7,0.3,1.5,0.7,2l17,20.5c0.6,0.7,1.5,1.2,2.5,1.1l39.2,0c0.9,0,1.7-0.4,2.3-0.9
						s0.9-1.4,0.9-2.3v-17c0-1.8-1.4-3.2-3.2-3.2h-29.2V308h-30.3L263.9,323.7z"/>
				</g>
			</g>
			<g>
				<path class="st3" d="M203,360.3l-1.2,14.2c0,0-0.3,7.7-2.8,13c-2.5,5.3-3.7,10.5-6.2,10.8c-2.5,0.3-7.7-0.6-7.7-0.6
					s-11.4-0.6-13.6-2.5c-2.2-1.9-7.7-12.1-7.7-20.7c0-8.7-6.5-15.5,5.9-17.6C181.9,354.8,203,360.3,203,360.3z"/>
				<g>
					<path class="st25" d="M203.9,361.3c2.5-0.5,3.5-1.4,5.3-3.2c1.8-1.8,3-4.1,3.1-6.6s-1.1-5.1-3.3-6.3c-2.3-1.3-5.1-0.9-7.5,0
						c-2.4,0.9-4.7,2.2-7.1,3c-4.7,1.4-9.8,0.6-14.6-0.3s-9.9-1.7-14.6-0.3c-4.7,1.5-8.8,6-8,10.9c0.5,3.1,1.2,6.1,1.3,9.3
						c0,1-0.2,2.1-0.2,3.1c0.1,4.5,5.4,8.8,6.3,14.6c0,0,0.5,2.1,1.3,3.5c1.3,2.1,3.3,3.8,3.2,3.1c-0.9-10.9-1.4-20.9,0.4-20.3
						c2.8,0.9,3.8,5.2,3.8,5.2c0,0,0.5,1.9,0.6,0.5c0.5-4.5,1.6-16.5,5.4-15.3c0,0,7.7,4.1,11.9,3.8c1.8-0.1,3.4-0.9,4.7-2.1
						c1.3-1.2,1.7-2.8,3.6-3.2C200.8,360.4,202.7,361.6,203.9,361.3z"/>
				</g>
				<polyline class="st3" points="171.4,395.3 171.4,406.1 189.4,408.3 188.5,391.3 				"/>
				<g>
					<path class="st5" d="M209.5,493.1c2.4,44.6,4.4,89.3,6.1,133.9c0,0.4,0,0.8-0.2,1.2c-0.3,0.4-0.9,0.5-1.4,0.5
						c-5.1,0.3-10.3,0.6-15.4,0.9c-0.2-5.4-2.2-13.9-3.1-19.3c-4.2-26.7-5.4-52.1-9-72.7l-6.8-35.6l-9.6,54.5c0,0-9,67.5-9.6,69
						s-19.5-2.8-19.5-2.8s5.3-95,5.3-97.2c0-2.2,4.6-41.8,4.6-41.8l58.5,0.2L209.5,493.1z"/>
				</g>
				<path class="st3" d="M235.7,316.1l2.2,7.4c0,0,4.2,2,4.5,2.5s2.9,7.1,2.9,7.1l10.5,0.8l3.1-13.8l-15.4,0c0,0-1.5-0.5-2.4-1.6
					c-1.5-1.9-0.6-4.4-3.4-5C234.3,312.6,235.7,316.1,235.7,316.1z"/>
				<path class="st3" d="M134.5,315.7l-2.2,7.4c0,0-4.2,2-4.5,2.5s-2.9,7.1-2.9,7.1l-10.5,0.8l-3.1-13.5l15.3,0c0,0,1.7-0.8,2.6-1.9
					c1.5-1.9,1.8-4.6,3.7-5.2c1.3-0.5,2-0.4,2.3,0.2C135.3,313.9,134.5,315.7,134.5,315.7z"/>
				<ellipse class="st3" cx="168.4" cy="376.6" rx="3.9" ry="5.2"/>
				<g>
					<path class="st4" d="M146.2,424.1c0-0.2,0-0.3-0.1-0.5c-4.1-11-21.1-29.2-25.4-40c-4.5-11.2-10.4-27.5-7.7-46.9
						c0.1-0.5,0.4-0.9,0.8-1.1c2.4-1.1,9.7-0.8,10.4,0.2c0.3,0.4,0.3,6.6,0.7,9.3c2.5,16.2,9.1,28.1,19.4,38.8
						c3.9,4.1,9.9,10.6,14.7,13.5c2.7,1.7,14,8.9,25.2,7.9c11.7-1,23.4-10.2,26.9-12.9c7.6-5.7,13.8-13.1,18.9-21
						c3.5-5.5,6.5-11.4,8.9-17.5c0.5-1.3,4-13.6,5.1-17.5c0.2-0.7,0.9-1.1,1.6-1l9.1,1.1c0.8,0.1,1.4,0.9,1.2,1.7l-6.1,27.6
						c-2.1,9.6-4.6,18.5-10.7,26.4c-2.4,3.5-5.4,7-6.3,8.1c-2.2,2.8-4.4,5.7-6.6,8.5c-3.7,4.7-9.7,10.3-11.5,16.2
						c-1,3.4-1,7.7-1.4,11.3c-1.5,11.5-0.7,23-1.5,34.5c-0.2,2.3-0.3,4.6-0.4,6.9c-0.1,2.5-0.4,5.3-2.4,6.8c-1.4,1-3.2,1.1-5,1.2
						c-17.9,0.6-35.9-0.3-53.8,0.2c-0.8,0-1.5-0.6-1.5-1.4c-0.2-19.9-2.4-32.8-2.5-53L146.2,424.1z"/>
				</g>
			</g>
		</g>
	</g>
	<g id="girl">
		<g>
			<path class="st8" d="M946.8,632.4h29.4c3.9,0,7-3.1,7-7v-24c0-0.9-0.8-1.7-1.7-1.7h-39.7c-1.1,0-1.9,0.9-1.9,1.9v23.7
				C939.8,629.3,942.9,632.4,946.8,632.4z"/>
			<path class="st13" d="M961.8,631l-14.6,0.2c-3.8,0-7.4-3.1-7.4-6.9v-23.7c0-1.1,1.3-2,2.4-2h19.8L961.8,631z"/>
			<g>
				<path class="st4" d="M944.9,604.1h33.5c1.2,0,2.3-0.5,3.2-1.3c0.8-0.8,1.3-2,1.3-3.2l0-152.3v-33.5c0-0.7-0.2-1.4-0.5-2
					l-16.7-33.5c-0.8-1.5-2.3-2.5-4-2.5c-1.2,0-2.3,0.5-3.2,1.3c-0.3,0.3-0.6,0.7-0.8,1.2l-16.7,33.5c-0.3,0.6-0.5,1.3-0.5,2v83.6
					c0,0.1,0,0.2,0,0.3l0,101.8C940.4,602.1,942.4,604.1,944.9,604.1z"/>
				<path class="st25" d="M962,604.1V375.9c-0.2,0-0.3,0-0.5,0c-1.2,0-2.3,0.5-3.2,1.3c-0.3,0.3-0.6,0.7-0.8,1.2l-16.7,33.5
					c-0.3,0.6-0.5,1.3-0.5,2v83.6c0,0.1,0,0.2,0,0.3l0,101.8c0,2.5,2,4.5,4.5,4.5H962z"/>
				<path class="st26" d="M982.3,411.8l-16.7-33.5c-0.8-1.5-2.3-2.5-4-2.5c-1.2,0-2.3,0.5-3.2,1.3c-0.3,0.3-0.6,0.7-0.8,1.2
					l-16.7,33.5c-0.7,1.4-0.6,3,0.2,4.4l41.1,0C982.9,414.8,983,413.2,982.3,411.8z"/>
				<path class="st27" d="M958.4,366.8c0.8-0.8,1.9-1.3,3.2-1.3c2.5,0,4.5,2,4.5,4.5v10.1c0,2.5-2,4.5-4.5,4.5c-2.5,0-4.5-2-4.5-4.5
					V370C957.1,368.7,957.6,367.6,958.4,366.8z"/>
			</g>
			<path class="st13" d="M941,604.7h41.1c1.7,0,3.1-1.4,3.1-3.1l0,0c0-1.7-1.4-3.1-3.1-3.1H941c-1.7,0-3.1,1.4-3.1,3.1l0,0
				C937.9,603.3,939.3,604.7,941,604.7z"/>
			<path class="st13" d="M941,617h41.1c1.7,0,3.1-1.4,3.1-3.1l0,0c0-1.7-1.4-3.1-3.1-3.1H941c-1.7,0-3.1,1.4-3.1,3.1l0,0
				C937.9,615.6,939.3,617,941,617z"/>
			<path class="st13" d="M941,628.1h41.1c1.7,0,3.1-1.4,3.1-3.1l0,0c0-1.7-1.4-3.1-3.1-3.1H941c-1.7,0-3.1,1.4-3.1,3.1l0,0
				C937.9,626.7,939.3,628.1,941,628.1z"/>
			<path class="st10" d="M962,598.4l-20.9,0c-1.7,0-3.1,1.4-3.1,3.1l0,0c0,1.7,1.4,3.1,3.1,3.1l20.9,0"/>
			<path class="st10" d="M961.9,610.8l-20.9,0c-1.7,0-3.1,1.4-3.1,3.1l0,0c0,1.7,1.4,3.1,3.1,3.1l20.9,0"/>
			<path class="st10" d="M961.9,621.9l-20.9,0c-1.7,0-3.1,1.4-3.1,3.1l0,0c0,1.7,1.4,3.1,3.1,3.1l20.9,0"/>
			<path class="st2" d="M939.5,641.7c0,3.8,3.2,7,7,7h29.4c3.9,0,7-3.2,7-7v-13.8v-0.2l-43.4,0L939.5,641.7z"/>
			<path class="st5" d="M939.5,627.7l0,14c0,3.9,3.2,7,7,7h15.4l0-21L939.5,627.7z"/>
		</g>
		<g>
			<g>
				<path class="st27" d="M1065.9,335.8c-3.4-0.9-10.8,0.4-14,1.6c-3.2,1.3-6,4-6.7,7.4c-0.9,4.2,1.3,8.6,0.6,12.9
					c-0.8,4.8-5.1,8.3-7.1,12.8c-0.4,0.8-0.7,1.8-0.5,2.7c0.4,3,4.8,4,5.6,7c0.9,3.4-3.6,5.9-4.1,9.4c-0.4,2.5,1.5,4.9,3.9,6
					s5,1.1,7.5,1.1c2,0,3.9,0,5.9,0c1.9,0,4.1-0.1,5.4-1.5c1.6-1.6,1.5-4.1,1.2-6.4c-1.6-13.8-0.7-26.2,0.8-40L1065.9,335.8z"/>
			</g>
			<path class="st5" d="M1087.5,630.8c0,0,0.2,5.4,1.4,6.6c1.1,1.1,14,6.8,15.4,8.2c1.4,1.4,0.9,4.3,0.9,4.3l-27-0.5
				c0,0-0.7-0.5-0.7-5.2s0.2-13.6,0.2-13.6L1087.5,630.8z"/>
			<g>
				<path class="st23" d="M1087.6,630.9c0,0,0.2,5.4,1.4,6.6c0.7,0.7,6.4,3.3,10.6,5.5c-0.2,0.1-0.3,0.2-0.5,0.2
					c-2.6,0.9-5.4,0.5-8.1-0.1c-1.3-0.3-2.5-0.6-3.7-1.2c-1.2-0.6-2.2-1.4-2.9-2.4c-0.9-1.3-1.1-3-1.2-4.5c-0.1-1.4-0.2-2.8-0.3-4.2
					L1087.6,630.9z"/>
			</g>
			<path class="st5" d="M1039.7,629.2c0,0-0.2,5.4-1.4,6.6c-1.1,1.1-14,6.8-15.4,8.2c-1.4,1.4-0.9,4.3-0.9,4.3l27-0.5
				c0,0,0.7-0.5,0.7-5.2s-0.2-13.6-0.2-13.6L1039.7,629.2z"/>
			<g>
				<path class="st23" d="M1039.7,629.3c0,0-0.2,5.4-1.4,6.6c-0.7,0.7-6.4,3.3-10.6,5.5c0.2,0.1,0.3,0.2,0.5,0.2
					c2.6,0.9,5.4,0.5,8.1-0.1c1.3-0.3,2.5-0.6,3.7-1.2c1.2-0.6,2.2-1.4,2.9-2.4c0.9-1.3,1.1-3,1.2-4.5c0.1-1.4,0.2-2.8,0.3-4.2
					L1039.7,629.3z"/>
			</g>
			<path class="st23" d="M1049.7,394.1c0-0.2-4.1,1.3-4.3,1.4c-2.9,1.7-4.6,4.8-6.5,7.5c-2.3,3.2-5,6.1-7.5,9.1
				c-3.7,4.4-7.3,8.9-10.8,13.5c-1.5,1.9-6.6,11.1-9.9,9c-3.1-2-24.6-16.7-24.6-16.7l-3.4-3.3l-7.8,0.3c0,0-3.8,3.1-4.4,3.7
				c-0.6,0.5-2.3,0.9-2.6,0.9c-0.3,0,0.3,2.3,1.8,2.3s5.7-1.4,6.3-1.9c0.6-0.4,6.8,2,6.8,2l0.2,4.9c0,0,21.2,21,22.2,22.2
				s5.4,3.8,6.9,3.9c1.4,0.1,3-0.6,4-1.3s31.7-31,31.7-31S1049.6,394.2,1049.7,394.1z"/>
			<path class="st25" d="M1097.9,482c0,0-3.1,22.4-3.4,42.5c-0.3,20-2,33.3-2,33.3l-0.9,75.8l-15.6-0.7c0,0-4.5-74.1-5.2-79.8
				c-0.7-5.8-3.7-46.9-3.7-46.9l-9.2,85.6l-7.1,40.4l-16.3-2c0,0,4.8-66.2,4.8-75.4c0-9.2,0-74.7,0.4-77.5
				C1039.8,474.5,1097.9,482,1097.9,482z"/>
			<g>
				<path class="st27" d="M1064.6,335.6c4.7-1.8,10-2.6,15-2.1c3.6,0.4,7.5,1.2,9.9,3.9c5.5,6.1,0,16.7,4.3,23.6
					c1.5,2.4,3.9,4,5.9,6c2,2,3.5,4.9,2.6,7.5c-0.5,1.5-1.8,2.6-2.3,4.1c-1.7,4.7,4.3,8.7,4.9,13.6c0.6,4.3-3.2,8.2-7.4,9.4
					c-4.2,1.2-8.6,0.5-12.9,0c0,0-10.5-5-11.8-7.4C1071.4,391.9,1064.6,335.6,1064.6,335.6z"/>
			</g>
			<path class="st23" d="M1064.2,340.9c0,0-9.2,2-11.2,13.6s-2.7,33.6,10.2,35.3s19.7-2.4,22.1-19
				C1087.7,354.2,1085.3,338.6,1064.2,340.9z"/>
			<polygon class="st23" points="1076.5,398.7 1075.1,384.4 1062.9,384.1 1061.9,399.4 			"/>
			<g>
				<path class="st27" d="M1064.1,340.8c2.5,3.3,6.5,7.9,10.4,8.8c1.2,0.3,2.5,0.3,3.4,1.2c2,1.8,0.1,5,0.4,7.7
					c0.4,3.3,4.1,5,5.9,7.8c0.6,0.9,1.1,3.5,0.8,7.2c-0.2,2,5-4,6.3-5.6c1.2-1.6,1.4-3.8,1.1-5.8c-0.3-2-1-3.9-1.3-5.9
					c-0.8-4.8,0.5-10.5-2.8-14.1c-2-2.2-5.1-2.9-8-3.5c-3.5-0.7-7.1-1.5-10.6-2.2L1064.1,340.8z"/>
			</g>
			<path class="st5" d="M1076.1,393.1c0,0,11.4,0.9,15.8,3c0.3,0.1,3.3,1.5,3.4,2c1,4.4-4.8,18-4.8,18s-2.9,11.8-1.1,21.7
				c1.8,10,13.4,41.4,13.4,41.4s-13.6,10-35.6,7.5c-22-2.5-31-6.8-31-6.8s10.9-38,10.4-40.8c-0.4-2.5-2.5-9.7-3.7-11.9
				c-4-7.4-1.2-15.8,1.8-23.3c1.4-3.5,2.8-6.9,4.2-10.3l13.4-1C1062.2,392.6,1069.9,400.8,1076.1,393.1z"/>
			<path class="st4" d="M1075.9,493.1l20.2-11.6c2.3-1.3,3.1-4.3,1.8-6.6l-19.3-33.4c-1.3-2.3-4.3-3.1-6.6-1.8l-20.2,11.6
				c-2.3,1.3-3.1,4.3-1.8,6.6l19.3,33.4C1070.6,493.6,1073.6,494.4,1075.9,493.1z"/>
			<path class="st23" d="M1090.5,397.3c1-0.4,3.4,0.9,4.1,1.2c1.8,0.8,3.5,1.7,4.9,3.1c3.2,3.2,27.6,26.7,29,28.5
				c1.4,1.8,0.7,7.5-1.4,10.2s-24.9,25.4-24.9,25.4s-6.6,7.9-9.5,8.6s-12-0.5-12-0.5s-2.9-3.9-2.5-4.5c0.5-0.7,9.3-3.4,9.3-3.4
				l2.9-3.6l-2.3-4.1l3.4-1.6l4.5,0.7c0,0,13.7-18,16.8-22.3c1.1-1.6-23.1-17.4-23.1-17.4c-0.7-0.5-1.2-1.5-1.5-2.2
				c-1.1-2.3-1.3-4.9-1.1-7.4c0.2-1.9,0.6-3.8,1.2-5.6c0.4-1.1,0.8-2.2,1.2-3.3c0.2-0.5,0.4-1.4,0.8-1.8
				C1090.3,397.4,1090.4,397.3,1090.5,397.3z"/>
			<path class="st27" d="M1075.8,493c-2.3,1.3-5.3,0.5-6.6-1.8l-19.3-33.4c-1.3-2.3-0.5-5.3,1.8-6.6L1075.8,493z"/>
		</g>
	</g>
</g>
<g id="mobile">
</g>
</svg>
