<svg id="Layer_1" data-name="Layer 1" xmlns="http://www.w3.org/2000/svg" viewBox="0 0 107 231"><defs><style>.cls-1{fill:#cdd4d5;}.cls-2{fill:#9fb4ba;opacity:0.8;}.cls-3{fill:#ffea52;}.cls-4{fill:#fd6a33;}.cls-5{fill:#f0353d;}</style></defs><title>mobilefooter</title><g id="tube"><polygon class="cls-1" points="21.72 114.62 34.27 94.55 55.32 94.55 55.32 114.62 21.72 114.62"/><polygon class="cls-2" points="88.83 114.62 76.28 94.55 55.23 94.55 55.23 114.62 88.83 114.62"/><rect class="cls-2" x="34.48" y="-0.32" width="41.58" height="94.71"/><rect class="cls-1" x="30.83" y="61.63" width="48.89" height="8.04" rx="4.02" ry="4.02"/><rect class="cls-1" x="30.83" y="42.87" width="48.89" height="8.04" rx="4.02" ry="4.02"/><rect class="cls-1" x="30.83" y="24.11" width="48.89" height="8.04" rx="4.02" ry="4.02"/><rect class="cls-1" x="30.83" y="5.35" width="48.89" height="8.04" rx="4.02" ry="4.02"/><rect class="cls-1" x="30.83" y="79.64" width="48.89" height="8.04" rx="4.02" ry="4.02"/></g><g id="star2"><path class="cls-3" d="M69.93,139a5.1,5.1,0,0,1-5,5,5.1,5.1,0,0,1,5,5,5.1,5.1,0,0,1,5-5A5.1,5.1,0,0,1,69.93,139Z"/></g><g id="heart"><path class="cls-4" d="M66.69,154.09c-2.17-1.16-5.94-1.73-11.81,1.81-5.87-3.53-9.64-3-11.81-1.81-2.81,1.5-4.36,4.72-4.36,9.06,0,8.13,13.36,18.13,14.88,19.24a2.18,2.18,0,0,0,1.29.42,2.21,2.21,0,0,0,1.29-.42c1.52-1.11,14.88-11.11,14.88-19.24C71.05,158.81,69.5,155.59,66.69,154.09Z"/><path class="cls-5" d="M43.07,154.09c-2.81,1.5-4.36,4.72-4.36,9.06,0,8.13,13.36,18.13,14.88,19.24a2.08,2.08,0,0,0,1,.4V155.73C48.88,152.39,45.2,153,43.07,154.09Z"/></g><g id="star3"><path class="cls-3" d="M70.56,173.42q-.81,7.29-8.1,8.09c4.86.55,7.56,3.24,8.1,8.1.54-4.86,3.24-7.55,8.1-8.1Q71.37,180.7,70.56,173.42Z"/></g><g id="star1"><path class="cls-3" d="M32.85,147.5a5.11,5.11,0,0,1-5,5,5.11,5.11,0,0,1,5,5,5.1,5.1,0,0,1,5-5A5.1,5.1,0,0,1,32.85,147.5Z"/></g></svg>