<svg id="el_ulA6wYq6V" data-name="Layer 1" xmlns="http://www.w3.org/2000/svg" viewBox="0 0 107 231"><style>@-webkit-keyframes el_8y7Ym10NmLt_Animation{0%{opacity: 0;}50%{opacity: 0;}51.11%{opacity: 1;}56.67%{opacity: 0;}66.67%{opacity: 0;}81.11%{opacity: 1;}90%{opacity: 0;}100%{opacity: 0;}}@keyframes el_8y7Ym10NmLt_Animation{0%{opacity: 0;}50%{opacity: 0;}51.11%{opacity: 1;}56.67%{opacity: 0;}66.67%{opacity: 0;}81.11%{opacity: 1;}90%{opacity: 0;}100%{opacity: 0;}}@-webkit-keyframes el_Jcip5SjN0z_Animation{0%{opacity: 0;}50%{opacity: 0;}51.11%{opacity: 1;}55.56%{opacity: 0;}65.56%{opacity: 1;}75.56%{opacity: 0;}84.44%{opacity: 1;}92.22%{opacity: 0;}100%{opacity: 0;}}@keyframes el_Jcip5SjN0z_Animation{0%{opacity: 0;}50%{opacity: 0;}51.11%{opacity: 1;}55.56%{opacity: 0;}65.56%{opacity: 1;}75.56%{opacity: 0;}84.44%{opacity: 1;}92.22%{opacity: 0;}100%{opacity: 0;}}@-webkit-keyframes el_wgPRH6aASi_Animation{0%{opacity: 0;}22.22%{opacity: 0;}23.33%{opacity: 1;}100%{opacity: 1;}}@keyframes el_wgPRH6aASi_Animation{0%{opacity: 0;}22.22%{opacity: 0;}23.33%{opacity: 1;}100%{opacity: 1;}}@-webkit-keyframes el_wgPRH6aASi_Yd5BoRlIH_Animation{0%{-webkit-transform: translate(38.709999084472656px, 153.19129943847656px) translate(-38.709999084472656px, -153.19129943847656px) translate(0px, -70px);transform: translate(38.709999084472656px, 153.19129943847656px) translate(-38.709999084472656px, -153.19129943847656px) translate(0px, -70px);}50%{-webkit-transform: translate(38.709999084472656px, 153.19129943847656px) translate(-38.709999084472656px, -153.19129943847656px) translate(0px, 0px);transform: translate(38.709999084472656px, 153.19129943847656px) translate(-38.709999084472656px, -153.19129943847656px) translate(0px, 0px);}100%{-webkit-transform: translate(38.709999084472656px, 153.19129943847656px) translate(-38.709999084472656px, -153.19129943847656px) translate(0px, 0px);transform: translate(38.709999084472656px, 153.19129943847656px) translate(-38.709999084472656px, -153.19129943847656px) translate(0px, 0px);}}@keyframes el_wgPRH6aASi_Yd5BoRlIH_Animation{0%{-webkit-transform: translate(38.709999084472656px, 153.19129943847656px) translate(-38.709999084472656px, -153.19129943847656px) translate(0px, -70px);transform: translate(38.709999084472656px, 153.19129943847656px) translate(-38.709999084472656px, -153.19129943847656px) translate(0px, -70px);}50%{-webkit-transform: translate(38.709999084472656px, 153.19129943847656px) translate(-38.709999084472656px, -153.19129943847656px) translate(0px, 0px);transform: translate(38.709999084472656px, 153.19129943847656px) translate(-38.709999084472656px, -153.19129943847656px) translate(0px, 0px);}100%{-webkit-transform: translate(38.709999084472656px, 153.19129943847656px) translate(-38.709999084472656px, -153.19129943847656px) translate(0px, 0px);transform: translate(38.709999084472656px, 153.19129943847656px) translate(-38.709999084472656px, -153.19129943847656px) translate(0px, 0px);}}@-webkit-keyframes el_0C-lGmbXq5_Animation{0%{opacity: 0;}50%{opacity: 0;}51.11%{opacity: 1;}57.78%{opacity: 0;}68.89%{opacity: 1;}77.78%{opacity: 0;}86.67%{opacity: 1;}100%{opacity: 1;}}@keyframes el_0C-lGmbXq5_Animation{0%{opacity: 0;}50%{opacity: 0;}51.11%{opacity: 1;}57.78%{opacity: 0;}68.89%{opacity: 1;}77.78%{opacity: 0;}86.67%{opacity: 1;}100%{opacity: 1;}}#el_ulA6wYq6V *{-webkit-animation-duration: 3s;animation-duration: 3s;-webkit-animation-iteration-count: infinite;animation-iteration-count: infinite;-webkit-animation-timing-function: cubic-bezier(0, 0, 1, 1);animation-timing-function: cubic-bezier(0, 0, 1, 1);}#el_c4d5lVYuZe{fill: #cdd4d5;}#el_7keelW7tok{fill: #9fb4ba;opacity: 0.8;}#el_qamCLXQjk9{fill: #9fb4ba;opacity: 0.8;}#el_vpd32YPAvj{fill: #cdd4d5;}#el_UV-s7T4gA0{fill: #cdd4d5;}#el_CrBx4JdN6o{fill: #cdd4d5;}#el_OHDQZudLPr{fill: #cdd4d5;}#el_9iUMmTxmMF{fill: #cdd4d5;}#el_cQy3VkMphA{fill: #ffea52;}#el_UpPWP2Ju5B{fill: #fd6a33;}#el_ZNnfcSd8_U{fill: #f0353d;}#el_wQYqhw0vJ7A{fill: #ffea52;}#el_GG45C0rai82{fill: #ffea52;}#el_0C-lGmbXq5{-webkit-animation-name: el_0C-lGmbXq5_Animation;animation-name: el_0C-lGmbXq5_Animation;-webkit-animation-timing-function: cubic-bezier(0.42, 0, 0.58, 1);animation-timing-function: cubic-bezier(0.42, 0, 0.58, 1);opacity: 0;}#el_wgPRH6aASi_Yd5BoRlIH{-webkit-animation-name: el_wgPRH6aASi_Yd5BoRlIH_Animation;animation-name: el_wgPRH6aASi_Yd5BoRlIH_Animation;-webkit-transform: translate(38.709999084472656px, 153.19129943847656px) translate(-38.709999084472656px, -153.19129943847656px) translate(0px, -70px);transform: translate(38.709999084472656px, 153.19129943847656px) translate(-38.709999084472656px, -153.19129943847656px) translate(0px, -70px);}#el_wgPRH6aASi{-webkit-animation-name: el_wgPRH6aASi_Animation;animation-name: el_wgPRH6aASi_Animation;opacity: 0;}#el_Jcip5SjN0z{-webkit-animation-name: el_Jcip5SjN0z_Animation;animation-name: el_Jcip5SjN0z_Animation;-webkit-animation-timing-function: cubic-bezier(0.42, 0, 0.58, 1);animation-timing-function: cubic-bezier(0.42, 0, 0.58, 1);opacity: 0;}#el_8y7Ym10NmLt{-webkit-animation-name: el_8y7Ym10NmLt_Animation;animation-name: el_8y7Ym10NmLt_Animation;-webkit-animation-timing-function: cubic-bezier(0.42, 0, 0.58, 1);animation-timing-function: cubic-bezier(0.42, 0, 0.58, 1);opacity: 0;}</style><defs/><title>mobilefooter</title><g id="el_jfT4Tccn0Y"><polygon points="21.72 114.62 34.27 94.55 55.32 94.55 55.32 114.62 21.72 114.62" id="el_c4d5lVYuZe"/><polygon points="88.83 114.62 76.28 94.55 55.23 94.55 55.23 114.62 88.83 114.62" id="el_7keelW7tok"/><rect x="34.48" y="-0.32" width="41.58" height="94.71" id="el_qamCLXQjk9"/><rect x="30.83" y="61.63" width="48.89" height="8.04" rx="4.02" ry="4.02" id="el_vpd32YPAvj"/><rect x="30.83" y="42.87" width="48.89" height="8.04" rx="4.02" ry="4.02" id="el_UV-s7T4gA0"/><rect x="30.83" y="24.11" width="48.89" height="8.04" rx="4.02" ry="4.02" id="el_CrBx4JdN6o"/><rect x="30.83" y="5.35" width="48.89" height="8.04" rx="4.02" ry="4.02" id="el_OHDQZudLPr"/><rect x="30.83" y="79.64" width="48.89" height="8.04" rx="4.02" ry="4.02" id="el_9iUMmTxmMF"/></g><g id="el_0C-lGmbXq5"><path d="M69.93,139a5.1,5.1,0,0,1-5,5,5.1,5.1,0,0,1,5,5,5.1,5.1,0,0,1,5-5A5.1,5.1,0,0,1,69.93,139Z" id="el_cQy3VkMphA"/></g><g id="el_wgPRH6aASi_Yd5BoRlIH" data-animator-group="true" data-animator-type="0"><g id="el_wgPRH6aASi"><path d="M66.69,154.09c-2.17-1.16-5.94-1.73-11.81,1.81-5.87-3.53-9.64-3-11.81-1.81-2.81,1.5-4.36,4.72-4.36,9.06,0,8.13,13.36,18.13,14.88,19.24a2.18,2.18,0,0,0,1.29.42,2.21,2.21,0,0,0,1.29-.42c1.52-1.11,14.88-11.11,14.88-19.24C71.05,158.81,69.5,155.59,66.69,154.09Z" id="el_UpPWP2Ju5B"/><path d="M43.07,154.09c-2.81,1.5-4.36,4.72-4.36,9.06,0,8.13,13.36,18.13,14.88,19.24a2.08,2.08,0,0,0,1,.4V155.73C48.88,152.39,45.2,153,43.07,154.09Z" id="el_ZNnfcSd8_U"/></g></g><g id="el_Jcip5SjN0z"><path d="M70.56,173.42q-.81,7.29-8.1,8.09c4.86.55,7.56,3.24,8.1,8.1.54-4.86,3.24-7.55,8.1-8.1Q71.37,180.7,70.56,173.42Z" id="el_wQYqhw0vJ7A"/></g><g id="el_8y7Ym10NmLt"><path d="M32.85,147.5a5.11,5.11,0,0,1-5,5,5.11,5.11,0,0,1,5,5,5.1,5.1,0,0,1,5-5A5.1,5.1,0,0,1,32.85,147.5Z" id="el_GG45C0rai82"/></g></svg>