<svg id="el_-zuGhutJn" data-name="Layer 1" xmlns="http://www.w3.org/2000/svg" viewBox="0 0 141 236"><style>@-webkit-keyframes el_6-huvEPHh6i_Animation{0%{opacity: 0;}26.67%{opacity: 0;}50%{opacity: 1;}56.67%{opacity: 0;}100%{opacity: 0;}}@keyframes el_6-huvEPHh6i_Animation{0%{opacity: 0;}26.67%{opacity: 0;}50%{opacity: 1;}56.67%{opacity: 0;}100%{opacity: 0;}}@-webkit-keyframes el_6-huvEPHh6i_CiTldnkTP_Animation{0%{-webkit-transform: translate(103.21499633789062px, 120.83499526977539px) translate(-103.21499633789062px, -120.83499526977539px) translate(0px, -35px);transform: translate(103.21499633789062px, 120.83499526977539px) translate(-103.21499633789062px, -120.83499526977539px) translate(0px, -35px);}100%{-webkit-transform: translate(103.21499633789062px, 120.83499526977539px) translate(-103.21499633789062px, -120.83499526977539px) translate(0px, 50px);transform: translate(103.21499633789062px, 120.83499526977539px) translate(-103.21499633789062px, -120.83499526977539px) translate(0px, 50px);}}@keyframes el_6-huvEPHh6i_CiTldnkTP_Animation{0%{-webkit-transform: translate(103.21499633789062px, 120.83499526977539px) translate(-103.21499633789062px, -120.83499526977539px) translate(0px, -35px);transform: translate(103.21499633789062px, 120.83499526977539px) translate(-103.21499633789062px, -120.83499526977539px) translate(0px, -35px);}100%{-webkit-transform: translate(103.21499633789062px, 120.83499526977539px) translate(-103.21499633789062px, -120.83499526977539px) translate(0px, 50px);transform: translate(103.21499633789062px, 120.83499526977539px) translate(-103.21499633789062px, -120.83499526977539px) translate(0px, 50px);}}#el_-zuGhutJn *{-webkit-animation-duration: 1s;animation-duration: 1s;-webkit-animation-iteration-count: infinite;animation-iteration-count: infinite;-webkit-animation-timing-function: cubic-bezier(0, 0, 1, 1);animation-timing-function: cubic-bezier(0, 0, 1, 1);}#el_O24-hy_ggP{fill: #fff;}#el_MY_uj-FoLf{fill: #fff;}#el_Z1x2dYGYyF{fill: #fff;}#el_Lg1E6wnu3P{fill: #fff;}#el_-haVswfU5A{fill: #fff;}#el_fcPe40hdj3{fill: #fff;-webkit-transform: matrix(0.95,, -0.3,, 0.3,, 0.95,, -10.02,, 32.78);transform: matrix(0.95,, -0.3,, 0.3,, 0.95,, -10.02,, 32.78);}#el_A4MVa-S3Au{fill: #fff;-webkit-transform: translate(1.18px, 87.47px) rotate(-47.61deg);transform: translate(1.18px, 87.47px) rotate(-47.61deg);}#el_WjwDNaNwSw{fill: #fff;-webkit-transform: translate(44.43px, 119.79px) rotate(-90deg);transform: translate(44.43px, 119.79px) rotate(-90deg);}#el_r-jS63Fu1w{fill: #fff;-webkit-transform: translate(25.02px, 114.67px) rotate(-70.1deg);transform: translate(25.02px, 114.67px) rotate(-70.1deg);}#el_ITFZv5O6_g{fill: #fff;-webkit-transform: translate(33.03px, 108.39px) rotate(-90deg);transform: translate(33.03px, 108.39px) rotate(-90deg);}#el_8Ejt4J7AMy{fill: #fff;-webkit-transform: translate(1.2px, 77.72px) rotate(-63.48deg);transform: translate(1.2px, 77.72px) rotate(-63.48deg);}#el_9ACREtrbRL{fill: #fff;-webkit-transform: translate(-8.59px, 36.01px) rotate(-32.81deg);transform: translate(-8.59px, 36.01px) rotate(-32.81deg);}#el_eeho8JhgTT{fill: #fff;}#el_95Tvg1fo1H{fill: #f0662e;}#el_n2NOK_hVM0O{fill: #6c9098;opacity: 0.4;}#el_KFFtcw9RNnT{fill: #9fb4ba;opacity: 0.8;}#el_CrFdSi6aMn_{fill: #6c9098;opacity: 0.8;}#el_5Zmb6n6cfbI{fill: #fff;}#el_MgP8KcROnUr{fill: #9fb4ba;opacity: 0.6;}#el_3El1P3Cpu6J{fill: #e6eaea;}#el_fVW1_3ICW5g{fill: #6c9098;opacity: 0.5;}#el_1gPohWI6xsl{fill: #4acfd9;}#el_OjHwDXkUZNi{fill: #0295aa;}#el_C213L0OSAcB{fill: #f0662e;}#el_dIcbdj2keJD{fill: #365558;}#el_MJfFz9SlE4C{fill: #687f82;}#el_E96Aw8WHIQg{fill: #fff;}#el_0G_zLSIfeer{opacity: 0.8;}#el_i9Z8MfMU9Ye{fill: #6c9098;opacity: 0.4;}#el_N3ougAzOgHg{fill: #9fb4ba;opacity: 0.8;}#el_vAGjguIAfsR{fill: #87aaaf;}#el__G-CM1567X3{fill: #cdd4d5;}#el_cDya9BQI3pe{fill: #cdd4d5;}#el_EOVq_wm_SKp{fill: #cdd4d5;-webkit-transform: translate(-10.04px, 32.77px) rotate(-17.27deg);transform: translate(-10.04px, 32.77px) rotate(-17.27deg);}#el_ruM9YTbPB-U{fill: #cdd4d5;-webkit-transform: translate(1.1px, 87.46px) rotate(-47.61deg);transform: translate(1.1px, 87.46px) rotate(-47.61deg);}#el_t2Jzjuy0xYA{fill: #cdd4d5;-webkit-transform: translate(44.31px, 119.82px) rotate(-90deg);transform: translate(44.31px, 119.82px) rotate(-90deg);}#el_BOvsHy9i1Nj{fill: #cdd4d5;-webkit-transform: translate(24.92px, 114.69px) rotate(-70.1deg);transform: translate(24.92px, 114.69px) rotate(-70.1deg);}#el_EY4XQBlSeLD{fill: #cdd4d5;-webkit-transform: translate(32.91px, 108.43px) rotate(-90deg);transform: translate(32.91px, 108.43px) rotate(-90deg);}#el_a-JsKrwBMHa{fill: #cdd4d5;-webkit-transform: translate(1.1px, 77.73px) rotate(-63.48deg);transform: translate(1.1px, 77.73px) rotate(-63.48deg);}#el_v-_8PeIGxNC{fill: #cdd4d5;}#el_2FQKmhRhiYz{fill: #cdd4d5;}#el_PXaxadpfaTk{fill: #365558;}#el_lU9q7Nkt28M{fill: #ff8c29;}#el_-NmBXRwcXHw{fill: #4acfd9;}#el__iaNv9_5Nx1{fill: #cdd4d5;}#el_k0BondMAxha{fill: #f0353d;}#el_6-huvEPHh6i_CiTldnkTP{-webkit-animation-name: el_6-huvEPHh6i_CiTldnkTP_Animation;animation-name: el_6-huvEPHh6i_CiTldnkTP_Animation;-webkit-transform: translate(103.21499633789062px, 120.83499526977539px) translate(-103.21499633789062px, -120.83499526977539px) translate(0px, -35px);transform: translate(103.21499633789062px, 120.83499526977539px) translate(-103.21499633789062px, -120.83499526977539px) translate(0px, -35px);}#el_6-huvEPHh6i{-webkit-animation-name: el_6-huvEPHh6i_Animation;animation-name: el_6-huvEPHh6i_Animation;opacity: 0;}</style><defs/><title>mobileheader</title><polygon points="126.57 98.95 117.94 85.14 103.46 85.14 103.46 98.95 126.57 98.95" id="el_O24-hy_ggP"/><polygon points="80.4 98.95 89.04 85.14 103.52 85.14 103.52 98.95 80.4 98.95" id="el_MY_uj-FoLf"/><path d="M89.18,57.48V85.25h28.61V50.47h0c0-.32,0-.65,0-1,0-11.64-9.43-25.49-21.06-25.49H75.09s-8.1.78-8.41-5.76c-.38-7.79,0-18.32,0-18.32H39.5V31.1c0,11.63,8.69,21.06,20.32,21.06h24A5,5,0,0,1,89.18,57.48Z" id="el_Z1x2dYGYyF"/><rect x="86.44" y="73.52" width="33.64" height="5.53" rx="2.77" ry="2.77" id="el_Lg1E6wnu3P"/><rect x="86.44" y="61.72" width="33.64" height="5.53" rx="2.77" ry="2.77" id="el_-haVswfU5A"/><rect x="86.07" y="46.6" width="33.64" height="5.53" rx="2.77" ry="2.77" id="el_fcPe40hdj3"/><rect x="82.15" y="39.63" width="35.15" height="5.53" rx="2.77" ry="2.77" id="el_A4MVa-S3Au"/><rect x="65.29" y="34.91" width="33.64" height="5.53" rx="2.77" ry="2.77" id="el_WjwDNaNwSw"/><rect x="76.67" y="36.73" width="35.15" height="5.53" rx="2.77" ry="2.77" id="el_r-jS63Fu1w"/><rect x="53.89" y="34.91" width="33.64" height="5.53" rx="2.77" ry="2.77" id="el_ITFZv5O6_g"/><rect x="46.61" y="35.13" width="33.64" height="5.53" rx="2.77" ry="2.77" id="el_8Ejt4J7AMy"/><path d="M40.4,29.83H73.34a2.77,2.77,0,0,1,2.77,2.77v0a2.77,2.77,0,0,1-2.77,2.77h-33a2.74,2.74,0,0,1-2.74-2.74v0a2.79,2.79,0,0,1,2.79-2.79Z" id="el_9ACREtrbRL"/><rect x="36.34" y="14.38" width="33.08" height="5.53" rx="2.77" ry="2.77" id="el_eeho8JhgTT"/><g id="el_LEQbREphnF"><polygon points="103.26 218.66 108.39 214.22 98.13 214.22 103.26 218.66" id="el_95Tvg1fo1H"/><polygon points="122.98 147.49 115.64 159.23 103.33 159.23 103.33 147.49 122.98 147.49" id="el_n2NOK_hVM0O"/><polygon points="83.73 147.49 91.07 159.23 103.38 159.23 103.38 147.49 83.73 147.49" id="el_KFFtcw9RNnT"/><rect x="91.32" y="159.23" width="24.32" height="18.03" id="el_CrFdSi6aMn_"/><rect x="78.52" y="168.25" width="49.48" height="40.85" rx="12" ry="12" id="el_5Zmb6n6cfbI"/><rect x="78.27" y="168.25" width="49.48" height="40.85" rx="12" ry="12" id="el_MgP8KcROnUr"/><path d="M103.48,172.84a15.88,15.88,0,1,0,15.88,15.88A15.89,15.89,0,0,0,103.48,172.84Z" id="el_3El1P3Cpu6J"/><path d="M87.6,188.72a15.9,15.9,0,0,0,15.88,15.88V172.84A15.89,15.89,0,0,0,87.6,188.72Z" id="el_fVW1_3ICW5g"/><path d="M103.48,176.9a11.82,11.82,0,1,0,11.82,11.82A11.83,11.83,0,0,0,103.48,176.9Zm0,19a7.22,7.22,0,1,1,7.22-7.22A7.23,7.23,0,0,1,103.48,195.94Z" id="el_1gPohWI6xsl"/><path d="M96.26,188.72a7.23,7.23,0,0,1,7.22-7.22v-4.6a11.82,11.82,0,0,0,0,23.64v-4.6A7.23,7.23,0,0,1,96.26,188.72Z" id="el_OjHwDXkUZNi"/><path d="M91.66,188.72v.58h4.6v-.58a7.23,7.23,0,0,1,7.22-7.22v-4.6A11.83,11.83,0,0,0,91.66,188.72Z" id="el_C213L0OSAcB"/><path d="M103.48,189.3a.58.58,0,0,1-.42-.17l-6.86-6.86a.59.59,0,0,1,.83-.83l6.86,6.86a.59.59,0,0,1,0,.83A.54.54,0,0,1,103.48,189.3Z" id="el_dIcbdj2keJD"/><path d="M103.48,184.7a4,4,0,1,0,4,4A4,4,0,0,0,103.48,184.7Z" id="el_MJfFz9SlE4C"/><path d="M105.35,189.3a.58.58,0,0,1-.58-.58,1.29,1.29,0,0,0-1.29-1.29.59.59,0,1,1,0-1.17,2.46,2.46,0,0,1,2.46,2.46A.59.59,0,0,1,105.35,189.3Z" id="el_E96Aw8WHIQg"/></g><g id="el_0G_zLSIfeer"><polygon points="126.53 99.03 117.89 85.22 103.42 85.22 103.42 99.03 126.53 99.03" id="el_i9Z8MfMU9Ye"/><polygon points="80.36 99.03 89 85.22 103.48 85.22 103.48 99.03 80.36 99.03" id="el_N3ougAzOgHg"/><path d="M89.14,57.56V85.33h28.61V50.55h0c0-.32,0-.65,0-1,0-11.63-9.43-25.48-21.06-25.48H75s-8.4.84-8.2-5.7c.25-8,0-18.38,0-18.38H39.45V31.18c0,11.63,8.7,21.06,20.33,21.06h24S89.14,51.88,89.14,57.56Z" id="el_vAGjguIAfsR"/><rect x="86.4" y="73.59" width="33.64" height="5.53" rx="2.77" ry="2.77" id="el__G-CM1567X3"/><rect x="86.4" y="61.79" width="33.64" height="5.53" rx="2.77" ry="2.77" id="el_cDya9BQI3pe"/><rect x="86.03" y="46.68" width="33.64" height="5.53" rx="2.77" ry="2.77" id="el_EOVq_wm_SKp"/><rect x="82.11" y="39.71" width="35.15" height="5.53" rx="2.77" ry="2.77" id="el_ruM9YTbPB-U"/><rect x="65.24" y="34.99" width="33.64" height="5.53" rx="2.77" ry="2.77" id="el_t2Jzjuy0xYA"/><rect x="76.63" y="36.81" width="35.15" height="5.53" rx="2.77" ry="2.77" id="el_BOvsHy9i1Nj"/><rect x="53.85" y="34.99" width="33.64" height="5.53" rx="2.77" ry="2.77" id="el_EY4XQBlSeLD"/><rect x="46.56" y="35.21" width="33.64" height="5.53" rx="2.77" ry="2.77" id="el_a-JsKrwBMHa"/><path d="M45.14,43.49l27-17.43A2.77,2.77,0,0,0,73,22.24h0a2.77,2.77,0,0,0-3.83-.82l-27,17.42c-1.74,1-2.31,3-1.49,4.28h0C41.48,44.4,43.36,44.64,45.14,43.49Z" id="el_v-_8PeIGxNC"/><rect x="36.3" y="14.46" width="33.08" height="5.53" rx="2.77" ry="2.77" id="el_2FQKmhRhiYz"/></g><g id="el_6-huvEPHh6i_CiTldnkTP" data-animator-group="true" data-animator-type="0"><g id="el_6-huvEPHh6i"><path d="M117.35,120.08h-12.9V119a.82.82,0,1,0-1.61,0v1.08H89.09a.89.89,0,0,0-.8,1v4.06a.81.81,0,1,0,1.6,0V122h13v3.11a.82.82,0,1,0,1.61,0V122h12.09v3.11a.82.82,0,1,0,1.61,0V121A.89.89,0,0,0,117.35,120.08Z" id="el_PXaxadpfaTk"/><path d="M93.37,124.14H85.66a.89.89,0,0,0-.8,1v9.13a.88.88,0,0,0,.8.95h7.71a.88.88,0,0,0,.8-.95v-9.13A.89.89,0,0,0,93.37,124.14Z" id="el_lU9q7Nkt28M"/><path d="M107.07,124.14H99.36a.89.89,0,0,0-.8,1v9.13a.88.88,0,0,0,.8.95h7.71a.88.88,0,0,0,.8-.95v-9.13A.89.89,0,0,0,107.07,124.14Z" id="el_-NmBXRwcXHw"/><path d="M120.77,124.14h-7.71a.89.89,0,0,0-.8,1v9.13a.88.88,0,0,0,.8.95h7.71a.88.88,0,0,0,.8-.95v-9.13A.89.89,0,0,0,120.77,124.14Z" id="el__iaNv9_5Nx1"/><path d="M109.21,106.45H98.51a.89.89,0,0,0-.81,1v10.15a.89.89,0,0,0,.81,1h10.7a.89.89,0,0,0,.8-1V107.4A.89.89,0,0,0,109.21,106.45Z" id="el_k0BondMAxha"/></g></g></svg>