<svg id="Layer_1" data-name="Layer 1" xmlns="http://www.w3.org/2000/svg" viewBox="0 0 320.21 585.54"><defs><style>.cls-1{opacity:0.2;}.cls-2{fill:#9fb4ba;}</style></defs><title>background image-mobile</title><g class="cls-1"><path class="cls-2" d="M59.46,323.51c-47.31,0-82.73-34-102.42-98.2-14.47-47.17-15.46-93.52-15.49-95.47l13-.24c0,.46,1,46.69,15,92.12,18.12,58.92,48.38,88.79,89.93,88.79h.08c22.88,0,41.29-7.9,56.27-24.1,12.72-13.75,22.75-33.61,29.79-59,12.92-46.55,12.85-99.53,12.82-128V-2.33h13V99.38c0,29.08.1,83.22-13.29,131.48-7.61,27.43-18.64,49.09-32.78,64.38C108,314,85.88,323.48,59.55,323.51Z"/></g><g class="cls-1"><path class="cls-2" d="M221.39,187.35c-54.71,0-95.78-33.86-118.78-97.92C85.63,42.14,84.46-4.35,84.42-6.31l13-.27h0c0,.59,1.22,46.64,17.52,91.89,21.29,59.08,57.11,89,106.45,89h.1c26.95,0,49.51-8.25,67.07-24.46,14.9-13.76,26.63-33.59,34.86-58.93,15.08-46.43,15-99.32,15-127.73V-138.49h13v101.7c0,29.14.12,83.37-15.6,131.76-8.93,27.49-21.85,49.18-38.41,64.47-20,18.49-45.57,27.88-75.89,27.91Z"/></g><g class="cls-1"><path class="cls-2" d="M60.53,325.85c-.8,0-1.51,0-2.23,0l.43-20c.59,0,1.19,0,1.77,0,1,0,1.85,0,2.73,0l.58,20C62.73,325.84,61.64,325.87,60.53,325.85Zm-7.79-.29c-1.86-.15-3.72-.35-5.55-.6l2.73-19.82c1.44.2,2.91.36,4.38.48Zm16.58-.06-1.63-19.93c1.48-.13,3-.29,4.42-.49l2.72,19.82C73,325.15,71.17,325.35,69.32,325.5ZM41.66,324c-1.83-.37-3.68-.8-5.47-1.28l5.17-19.32c1.39.37,2.82.71,4.24,1Zm38.67,0-3.88-19.62c1.45-.29,2.88-.61,4.28-1l5,19.35C84,323.2,82.16,323.62,80.33,324Zm10.84-2.84-6.26-19c1.38-.46,2.75-1,4.08-1.5l7.48,18.55C94.74,319.9,93,320.55,91.17,321.14Zm-60.38,0c-1.77-.6-3.54-1.26-5.28-2l7.62-18.49c1.34.55,2.7,1.06,4.07,1.53Zm70.85-4.19L93,298.9c1.29-.62,2.59-1.3,3.84-2l9.84,17.41C105,315.23,103.33,316.11,101.64,316.92Zm-81.27-.1c-1.68-.82-3.35-1.71-5-2.64l9.91-17.36c1.27.72,2.56,1.4,3.86,2Zm91.1-5.46-11-16.74c1.21-.78,2.41-1.62,3.57-2.5l12,16C114.58,309.26,113,310.34,111.47,311.36Zm-100.86-.11c-1.54-1-3.08-2.09-4.58-3.21l12-16c1.18.88,2.39,1.73,3.6,2.53Zm109.85-6.62-12.94-15.24c1.11-.94,2.21-1.94,3.28-2.95l13.81,14.46C123.26,302.19,121.87,303.44,120.46,304.63Zm-118.79,0c-1.4-1.17-2.8-2.41-4.16-3.68L11.16,286.3c1.1,1,2.22,2,3.34,3Zm-8.09-7.53c-1.25-1.29-2.5-2.65-3.71-4l15-13.21c1,1.14,2,2.26,3.06,3.32ZM128.52,297l-14.59-13.68c1-1.07,2-2.2,3-3.34l15.29,12.89C131,294.23,129.76,295.62,128.52,297Zm-142.16-8.09c-1.11-1.39-2.23-2.84-3.3-4.29L-.85,272.69c.92,1.24,1.86,2.46,2.8,3.64Zm149.26-.32-15.9-12.13c.9-1.18,1.8-2.42,2.68-3.68l16.43,11.39C137.79,285.63,136.71,287.12,135.62,288.54ZM-20,280.17c-1-1.45-2-3-2.94-4.5L-6.06,265c.84,1.33,1.69,2.64,2.54,3.89Zm161.88-.58-16.91-10.68c.81-1.27,1.61-2.6,2.38-3.94l17.32,10C143.71,276.54,142.77,278.1,141.83,279.59ZM-25.76,271.1c-.87-1.49-1.74-3.05-2.6-4.64l17.59-9.52c.76,1.4,1.53,2.78,2.3,4.09Zm173-.83-17.67-9.36c.72-1.36,1.43-2.76,2.11-4.16l18,8.75C148.86,267.11,148.05,268.71,147.22,270.27Zm-178-8.5c-.78-1.55-1.56-3.15-2.31-4.75L-15,248.5c.68,1.45,1.38,2.88,2.08,4.26Zm182.71-1.09-18.25-8.18c.63-1.42,1.26-2.87,1.86-4.33L154,255.81C153.32,257.45,152.61,259.09,151.9,260.68Zm-187.2-8.45q-1.06-2.41-2.06-4.86l18.5-7.59c.6,1.47,1.23,2.94,1.87,4.39Zm191.24-1.33-18.68-7.13c.56-1.47,1.11-3,1.63-4.46L157.76,246C157.18,247.61,156.57,249.27,155.94,250.9ZM-39.3,242.5c-.63-1.62-1.23-3.26-1.82-4.9l18.81-6.78q.81,2.27,1.68,4.5ZM159.44,241l-19-6.2c.49-1.51,1-3,1.43-4.57L161,236C160.5,237.67,160,239.34,159.44,241Zm-202.28-8.3c-.56-1.64-1.09-3.28-1.61-4.93l19.06-6c.48,1.53,1,3,1.5,4.58Zm205.3-1.7-19.26-5.38c.43-1.54.84-3.08,1.24-4.63l19.37,5Q163.15,228.49,162.46,231ZM-46,222.8q-.74-2.49-1.43-5l19.26-5.37c.43,1.54.88,3.09,1.34,4.64Zm211-1.86L145.6,216.3q.56-2.34,1.08-4.71l19.53,4.31C165.84,217.58,165.45,219.27,165.05,220.94Zm-213.81-8.12q-.66-2.5-1.27-5l19.43-4.75c.38,1.56.78,3.13,1.19,4.71Zm216-2-19.6-4c.32-1.59.63-3.18.93-4.78l19.66,3.68C168,207.44,167.62,209.14,167.28,210.83Zm-218.5-8q-.57-2.53-1.11-5l19.56-4.19c.33,1.58.68,3.16,1.05,4.76Zm220.4-2.12-19.71-3.39c.28-1.6.54-3.2.79-4.8L170,195.59C169.75,197.29,169.47,199,169.18,200.67Zm-222.55-8c-.34-1.7-.67-3.38-1-5.05L-34.68,184c.29,1.58.6,3.18.92,4.79Zm224.16-2.2L151,187.65c.23-1.61.46-3.23.67-4.84l19.83,2.61C171.26,187.12,171,188.81,170.79,190.51Zm-226-7.91c-.29-1.71-.57-3.41-.84-5.07l19.75-3.15c.25,1.58.52,3.19.8,4.81Zm227.37-2.27L152.27,178c.19-1.63.37-3.25.55-4.87l19.88,2.15C172.52,176.93,172.33,178.63,172.12,180.33Zm-229-7.89c-.25-1.72-.49-3.42-.71-5.08l19.82-2.66c.21,1.58.44,3.2.68,4.85Zm230.1-2.29-19.91-1.93c.16-1.64.31-3.28.45-4.9l19.92,1.74C173.55,166.75,173.39,168.44,173.23,170.15Zm-231.46-7.89c-.22-1.75-.41-3.45-.59-5.1L-38.94,155c.17,1.57.36,3.2.56,4.87ZM174.11,160l-19.94-1.53c.13-1.65.24-3.28.36-4.91l19.95,1.36C174.36,156.56,174.24,158.25,174.11,160Zm-233.46-7.91c-.18-1.79-.34-3.5-.47-5.12l19.92-1.7c.14,1.54.28,3.17.45,4.88Zm234.15-2.27-20-1.17c.1-1.65.19-3.3.27-4.92l20,1C175,146.37,174.9,148.07,174.8,149.78Zm-235-8c-.14-1.92-.25-3.65-.33-5.17l20-1.15c.09,1.44.19,3.07.32,4.87Zm235.54-2.19-20-.85c.07-1.66.13-3.31.19-4.93l20,.69C175.45,136.2,175.38,137.89,175.31,139.61Zm.35-10.17-20-.55c.05-1.68.09-3.32.12-4.94l20,.4C175.75,126,175.71,127.71,175.66,129.44Zm.21-10.16-20-.28c0-1.7,0-3.35.06-5l20,.17Q175.91,116.69,175.87,119.28Zm.1-10.13-20-.09c0-1.72,0-3.38,0-5l20,0C176,105.73,176,107.41,176,109.15Zm-20-10v-5h20v5Zm20-10H156v-5h20Zm0-10H156V74h20Zm0-10H156V64h20Zm0-10H156V54h20Zm0-10H156V44h20Zm0-10H156v-5h20Zm0-10H156v-5h20Zm0-10H156v-5h20Zm0-10H156v-5h20Z"/></g><g class="cls-1"><path class="cls-2" d="M220.45,189.68c-1.79,0-3.6-.09-5.37-.19l1.1-20c1.5.08,3,.14,4.56.16Zm5.34,0-.45-20c1.54,0,3.09-.1,4.59-.19l1.19,20C229.37,189.54,227.58,189.61,225.79,189.65Zm-16.08-.57c-1.8-.17-3.6-.39-5.37-.64l2.82-19.8c1.47.21,3,.39,4.49.54Zm26.76-.07-2-19.9c1.51-.15,3-.33,4.51-.54l2.81,19.8C240.06,188.62,238.26,188.83,236.47,189ZM199,187.55c-1.79-.34-3.57-.72-5.31-1.13L198.32,167c1.44.35,2.92.66,4.39.94Zm48.14-.05-3.66-19.67c1.49-.27,3-.58,4.41-.92l4.56,19.47C250.7,186.79,248.92,187.16,247.13,187.5ZM188.41,185c-1.74-.5-3.49-1.06-5.2-1.65l6.53-18.9c1.4.48,2.83.93,4.25,1.35Zm69.29,0-5.48-19.24c1.44-.4,2.87-.85,4.27-1.32l6.42,18.94C261.2,184,259.44,184.52,257.7,185Zm10.34-3.5-7.37-18.6c1.38-.55,2.76-1.13,4.09-1.74l8.32,18.19C271.44,180.12,269.74,180.84,268,181.52Zm-90-.06c-1.68-.68-3.37-1.41-5-2.17l8.39-18.15c1.35.62,2.72,1.21,4.09,1.76ZM278,177l-9.26-17.72c1.3-.69,2.61-1.41,3.87-2.16l10.19,17.21C281.24,175.21,279.62,176.11,278,177Zm-109.84-.08c-1.61-.84-3.21-1.74-4.78-2.66L173.56,157c1.28.75,2.59,1.49,3.9,2.17Zm119.29-5.51-11.08-16.65c1.23-.81,2.45-1.67,3.64-2.56l11.92,16.06C290.48,169.3,289,170.36,287.46,171.36Zm-128.69,0c-1.5-1-3-2-4.48-3.11l11.8-16.15c1.21.89,2.45,1.75,3.68,2.56ZM150,164.9c-1.4-1.12-2.79-2.3-4.14-3.49l13.23-15c1.13,1,2.29,2,3.45,2.92Zm146.29-.08L283.53,149.4c1.14-.94,2.27-1.93,3.37-2.93l13.5,14.76C299.06,162.45,297.67,163.66,296.27,164.82Zm-154.4-7.07c-1.27-1.23-2.55-2.51-3.79-3.81l14.47-13.81c1,1.1,2.13,2.18,3.2,3.22Zm162.45-.29-14.19-14.09c1-1.05,2.08-2.15,3.09-3.26l14.83,13.42C306.84,154.87,305.58,156.19,304.32,157.46ZM134.45,150c-1.16-1.32-2.32-2.69-3.46-4.08l15.51-12.64c1,1.19,2,2.37,3,3.5Zm177.14-.55-15.41-12.74c.95-1.15,1.9-2.35,2.82-3.56l15.94,12.07C313.85,146.64,312.72,148.07,311.59,149.43ZM127.7,141.69c-1.06-1.4-2.12-2.84-3.14-4.3l16.36-11.5c.89,1.27,1.81,2.53,2.73,3.74Zm190.39-.84-16.41-11.42c.85-1.23,1.71-2.51,2.54-3.81l16.85,10.78C320.1,137.92,319.1,139.41,318.09,140.85ZM121.58,133c-1-1.46-1.9-3-2.83-4.47l17.07-10.43c.81,1.33,1.65,2.65,2.49,3.94Zm202.28-1.15-17.23-10.16c.77-1.29,1.53-2.65,2.29-4l17.56,9.57C325.62,128.81,324.74,130.36,323.86,131.85ZM116.07,124c-.86-1.52-1.72-3.06-2.54-4.6L131.16,110c.74,1.37,1.5,2.75,2.28,4.11Zm212.87-1.46-17.87-9c.68-1.35,1.37-2.77,2-4.2l18.13,8.45C330.48,119.4,329.71,121,328.94,122.53Zm-217.82-7.79c-.77-1.53-1.54-3.12-2.28-4.7l18.1-8.51q1,2.13,2.06,4.24ZM333.39,113,315,105.07q.93-2.16,1.8-4.36l18.57,7.43C334.74,109.78,334.06,111.41,333.39,113ZM106.68,105.3q-1.05-2.39-2-4.77l18.47-7.66q.92,2.19,1.87,4.36Zm230.59-2-18.76-6.93q.83-2.22,1.59-4.45L339,98.35C338.45,100,337.87,101.63,337.27,103.25ZM102.71,95.72c-.63-1.62-1.25-3.24-1.84-4.86L119.66,84c.54,1.48,1.1,3,1.68,4.45Zm237.93-2.3-19.06-6c.48-1.51.94-3,1.39-4.54l19.19,5.63C341.67,90.12,341.17,91.78,340.64,93.42ZM99.15,86c-.57-1.63-1.11-3.27-1.64-4.9l19-6.13q.74,2.26,1.51,4.54Zm244.42-2.5-19.3-5.25c.42-1.54.82-3.09,1.21-4.64l19.4,4.89Q344.25,81,343.57,83.48ZM96,76.16c-.5-1.65-1-3.3-1.45-5l19.24-5.45c.43,1.53.88,3.06,1.35,4.6Zm250.11-2.72-19.48-4.51c.36-1.56.71-3.13,1.05-4.69l19.55,4.18Q346.67,70.94,346.09,73.44ZM93.17,66.25q-.66-2.51-1.28-5l19.41-4.82c.38,1.55.78,3.1,1.2,4.67Zm255.08-2.87-19.63-3.85c.31-1.59.61-3.17.9-4.75l19.68,3.56C348.89,60,348.58,61.7,348.25,63.38ZM90.69,56.28c-.39-1.68-.76-3.36-1.12-5l19.55-4.21c.34,1.55.69,3.12,1.06,4.7Zm259.38-3L330.33,50c.27-1.59.52-3.19.76-4.78l19.77,3C350.61,49.92,350.34,51.6,350.07,53.28Zm-261.54-7c-.34-1.7-.66-3.38-1-5l19.66-3.65c.29,1.56.6,3.15.92,4.75Zm263.06-3.08-19.82-2.71c.22-1.61.43-3.21.63-4.81l19.85,2.46C352,39.79,351.82,41.48,351.59,43.17Zm-264.93-7c-.29-1.72-.57-3.41-.83-5.06L105.59,28c.25,1.56.51,3.16.79,4.78ZM352.84,33,333,30.83c.18-1.62.34-3.23.5-4.83l19.91,2C353.21,29.66,353,31.34,352.84,33Zm-267.76-7c-.25-1.74-.48-3.44-.69-5.08l19.84-2.54c.2,1.55.41,3.15.65,4.8Zm268.77-3.15-19.92-1.76c.14-1.63.27-3.25.4-4.85l19.94,1.54C354.14,19.52,354,21.2,353.85,22.91Zm-270.07-7c-.21-1.78-.39-3.48-.55-5.09l19.9-2c.16,1.53.33,3.14.52,4.82Zm270.85-3.12-19.95-1.33c.1-1.64.21-3.27.3-4.88l20,1.15C354.85,9.37,354.74,11.06,354.63,12.77ZM82.76,5.68q-.24-2.86-.39-5.16l20-1.33c.09,1.42.21,3,.36,4.81Zm272.45-3-20-1c.08-1.66.15-3.29.22-4.9l20,.79C355.36-.76,355.29.93,355.21,2.64Zm.4-10.12-20-.62c.05-1.66.09-3.29.13-4.9l20,.46C355.7-10.89,355.66-9.2,355.61-7.48Zm.23-10.11-20-.32c0-1.68.05-3.32.07-4.92l20,.2C355.89-21,355.87-19.31,355.84-17.59Zm.1-10.08-20-.09c0-1.7,0-3.35,0-4.93h20C356-31.08,356-29.4,355.94-27.67Zm-20-10v-5h20v5Zm20-10h-20v-5h20Zm0-10h-20v-5h20Zm0-10h-20v-5h20Zm0-10h-20v-5h20Zm0-10h-20v-5h20Zm0-10h-20v-5h20Zm0-10h-20v-5h20Zm0-10h-20v-5h20Zm0-10h-20v-5h20Z"/></g></svg>