<svg xmlns="http://www.w3.org/2000/svg" viewBox="0 0 268.85 265.24"><defs><style>.cls-1{fill:#0095aa;}.cls-2{fill:#5cc7d2;}.cls-3{fill:#fff;}.cls-4{fill:#ffc92a;}.cls-5{fill:#f36b39;}.cls-6{fill:#375659;}.cls-7{fill:#d65d27;}.cls-8{fill:#e78324;}.cls-9{fill:#ffc92b;}</style></defs><title>partners</title><g id="Layer_2" data-name="Layer 2"><g id="Layer_1-2" data-name="Layer 1"><g id="gear"><g id="_666-gear2.png" data-name="666-gear2.png"><path class="cls-1" d="M250,111.75a8,8,0,0,0-6.91-7.94l-12.23-1.76a8.05,8.05,0,0,1-6.77-6.45,92.28,92.28,0,0,0-3-11.33,8.07,8.07,0,0,1,2.66-8.94l9.71-7.63a8,8,0,0,0,2-10.38l-1.08-1.85a8.06,8.06,0,0,0-10-3.43l-11.51,4.65a8.09,8.09,0,0,1-9.07-2.17,89.44,89.44,0,0,0-8.26-8.26,8.06,8.06,0,0,1-2.16-9.07L198,25.68a8,8,0,0,0-3.48-10l-1.85-1.09a8,8,0,0,0-10.33,2l-7.58,9.71A8.14,8.14,0,0,1,165.82,29a88.44,88.44,0,0,0-11.38-3A8.1,8.1,0,0,1,148,19.27L146.23,7a8.07,8.07,0,0,0-8-7h-2.17a8.05,8.05,0,0,0-8,6.91l-1.76,12.23a8.06,8.06,0,0,1-6.46,6.77,94,94,0,0,0-11.37,3,8.08,8.08,0,0,1-8.94-2.67L92,16.61a8,8,0,0,0-10.38-2l-1.85,1.09a8,8,0,0,0-3.43,10L81,37.19a8.1,8.1,0,0,1-2.17,9.07,95.84,95.84,0,0,0-8.31,8.31,8.06,8.06,0,0,1-9.07,2.16L49.91,52.09a8,8,0,0,0-10,3.43l-1,1.85a8.08,8.08,0,0,0,2,10.38l9.7,7.63a8.12,8.12,0,0,1,2.66,8.93,83.56,83.56,0,0,0-3,11.33,8.05,8.05,0,0,1-6.77,6.46l-12.27,1.76a7.9,7.9,0,0,0-6.91,7.89v2.17a8.06,8.06,0,0,0,6.91,8l12.27,1.76a8.05,8.05,0,0,1,6.77,6.45,92.28,92.28,0,0,0,3,11.33,8,8,0,0,1-2.66,8.89L40.89,158a8,8,0,0,0-2,10.38L40,170.2a8,8,0,0,0,10,3.43L61.47,169a8.09,8.09,0,0,1,9.07,2.17,89.44,89.44,0,0,0,8.26,8.26A8.08,8.08,0,0,1,81,188.53L76.36,200a8,8,0,0,0,3.48,10l1.85,1.09a8,8,0,0,0,10.33-2l7.63-9.7a8.14,8.14,0,0,1,8.94-2.67,80.72,80.72,0,0,0,11.33,3,8.07,8.07,0,0,1,6.45,6.77l1.76,12.28a8.06,8.06,0,0,0,8,6.9h2.17a8.07,8.07,0,0,0,8-6.9L148,206.49a8,8,0,0,1,6.45-6.77,93.23,93.23,0,0,0,11.33-3,8,8,0,0,1,8.89,2.67l7.63,9.7a8,8,0,0,0,10.38,2l1.85-1.09A8.05,8.05,0,0,0,198,200l-4.65-11.51a8.09,8.09,0,0,1,2.17-9.07,92,92,0,0,0,8.26-8.26,8.07,8.07,0,0,1,9.07-2.17l11.51,4.65a8,8,0,0,0,10-3.48l1.09-1.85a8.11,8.11,0,0,0-2-10.38l-9.71-7.58A8.1,8.1,0,0,1,221,141.5a97.26,97.26,0,0,0,3-11.33,8.05,8.05,0,0,1,6.77-6.46L243,122a8.05,8.05,0,0,0,6.91-8v-2.22ZM135.5,187.19a76.3,76.3,0,1,1,76.3-76.3A76.33,76.33,0,0,1,135.5,187.19Z"/></g></g><circle class="cls-2" cx="136.41" cy="109.26" r="63.39"/><path class="cls-1" d="M135.86,39.6a68.91,68.91,0,1,0,68.9,68.91A69,69,0,0,0,135.86,39.6Zm53.36,40.95A59.76,59.76,0,0,1,196,104.19H181.6a98.18,98.18,0,0,0-3.8-23.64Zm-5.54-8.65h-8.92a72,72,0,0,0-5.91-11.39c-.95-1.49-1.95-2.89-3-4.23A60.71,60.71,0,0,1,183.68,71.9Zm-25.09,32.29a207.49,207.49,0,0,0-1.73-23.64h11.9a88.21,88.21,0,0,1,4.18,23.64Zm14.35,8.65a88.28,88.28,0,0,1-4.18,23.64h-11.9a207.49,207.49,0,0,0,1.73-23.64ZM161.58,65.18a63.81,63.81,0,0,1,3.73,6.72h-9.84c-.7-3.64-1.5-7.07-2.41-10.24A71.41,71.41,0,0,0,150,52.83,42.25,42.25,0,0,1,161.58,65.18ZM127,64c3.7-12.94,7.67-15.78,8.89-15.78s5.19,2.84,8.89,15.78c.7,2.46,1.33,5.09,1.9,7.87H125.07C125.63,69.12,126.27,66.49,127,64Zm-21.14-7.75c-1,1.34-2,2.74-3,4.23A72.83,72.83,0,0,0,97,71.9H88A60.71,60.71,0,0,1,105.83,56.28Zm7.29,47.91H98.77A88.6,88.6,0,0,1,103,80.55h11.89A209.81,209.81,0,0,0,113.12,104.19Zm1.73,32.29H103a88.67,88.67,0,0,1-4.19-23.64h14.35A209.81,209.81,0,0,0,114.85,136.48ZM82.49,80.55H93.91a98.67,98.67,0,0,0-3.8,23.64H75.75A59.93,59.93,0,0,1,82.49,80.55Zm0,55.93a60,60,0,0,1-6.74-23.64H90.11a98.75,98.75,0,0,0,3.8,23.64ZM88,145.13H97a73.27,73.27,0,0,0,5.91,11.39c1,1.48,2,2.89,3,4.23A60.85,60.85,0,0,1,88,145.13Zm22.11,6.71a61.9,61.9,0,0,1-3.73-6.71h9.84c.69,3.64,1.49,7.07,2.4,10.24a73.46,73.46,0,0,0,3.09,8.82A42.12,42.12,0,0,1,110.14,151.84Zm8.51-90.18c-.91,3.17-1.71,6.6-2.4,10.24h-9.84a62.06,62.06,0,0,1,3.73-6.72,42.12,42.12,0,0,1,11.6-12.35A73,73,0,0,0,118.65,61.66ZM144.75,153c-3.7,12.95-7.68,15.78-8.89,15.78S130.67,165.94,127,153c-.7-2.45-1.34-5.09-1.9-7.86h21.58C146.08,147.9,145.45,150.54,144.75,153Zm3.38-16.51H123.58a198.21,198.21,0,0,1-1.81-23.64h28.17A198.21,198.21,0,0,1,148.13,136.48Zm-12.27-32.29H121.77a198.21,198.21,0,0,1,1.81-23.64h24.55a198.21,198.21,0,0,1,1.81,23.64Zm25.72,47.65A42.25,42.25,0,0,1,150,164.19a71.81,71.81,0,0,0,3.08-8.82c.91-3.17,1.71-6.6,2.41-10.24h9.84A63.65,63.65,0,0,1,161.58,151.84Zm4.3,8.91c1-1.34,2-2.75,3-4.23a72.42,72.42,0,0,0,5.91-11.39h8.92A60.85,60.85,0,0,1,165.88,160.75Zm23.34-24.27H177.8a98.26,98.26,0,0,0,3.8-23.64H196A59.86,59.86,0,0,1,189.22,136.48Z"/><polygon class="cls-3" points="250 191.77 195.96 215.18 136.41 256.44 57.78 197.31 81.06 148.88 219.77 154.66 250 191.77"/><g id="handshake"><path class="cls-4" d="M200.64,201.31l-26.48-22c2.58-3.14,4.15-5.07,4.15-5.07L142,129.9l-66.87,4S44,198.85,44,198.86c-.27.59,9.87,4.93,10.63,5.27,2.26,1,4.53,2,6.84,2.93,3.12,1.22,13.88,4.88,17.19,5,7,.31,23,5.2,28.86,7.47,10.48,4.05,19.78,8.62,22.3,8.71l27.74,23a10.32,10.32,0,0,0,13.18-15.89l-26-21.6,1.36-1.51,33,27.42a10.37,10.37,0,0,0,14.54-1.35h0a10.35,10.35,0,0,0-1.35-14.54L159.6,196.7c.44-.51.88-1,1.31-1.54l26.55,22A10.35,10.35,0,0,0,202,215.84h0A10.35,10.35,0,0,0,200.64,201.31Z"/><g id="hand_shake" data-name="hand shake"><path class="cls-5" d="M47.19,203.39c2.06-4.46,3.54-9.32,5.21-13.3L64,162.22c2.7-6.47,6-12.94,8.18-19.59l2.9-8.7a17.41,17.41,0,0,0-10.25-17.81L52,110.73a17,17,0,0,0-22.32,9.17L1.33,187.62a17,17,0,0,0,9.17,22.32l12.89,5.38a17,17,0,0,0,13,.05C41.6,213.27,44.79,208.6,47.19,203.39Z"/></g><path class="cls-6" d="M43.63,140.1A8.69,8.69,0,1,0,48,124.68a8.35,8.35,0,0,0-5.74,3.21,8.67,8.67,0,0,0,.57,11.49A7.68,7.68,0,0,0,43.63,140.1Z"/><rect class="cls-7" x="72.52" y="203.09" width="20.65" height="21.77" rx="8" transform="translate(153.3 -4.39) rotate(39.05)"/><rect class="cls-7" x="129.89" y="235.27" width="20.65" height="29.58" rx="6.89" transform="translate(188.85 -32.47) rotate(39.05)"/><rect class="cls-7" x="109.63" y="222" width="20.65" height="33.81" rx="7.33" transform="translate(177.3 -22.2) rotate(39.05)"/><rect class="cls-7" x="91.29" y="208.77" width="20.65" height="33.81" rx="7.33" transform="translate(164.87 -13.6) rotate(39.05)"/><path class="cls-7" d="M228.42,204.87,203.05,143c-.68-1.63-1.55-8.53-3.28-8.19l-19.51,6.84a3.74,3.74,0,0,1-2.26-.27l-25.15-11.53s-7.2-3.16-11.57-1.77c0,0-1.75.41-5.83,3.42C132,134,117.55,143.34,113,146.25a3.7,3.7,0,0,0-1.66,2.48l-3.14,17.74a3.63,3.63,0,0,1-.48,1.27l-4.15,6.89a3.69,3.69,0,0,0,.61,4.61c1.66,1.52,4.74,3,10.36,2.39,9.57-1.06,13.73-11.17,14.39-12.95a4.74,4.74,0,0,0,.15-.5c.1-.49.34-1.66.48-3,.3-2.82,3.9-3.92,6.17-4.56,2.11-.59,6.23-2.12,8.39-1.43,10.1,3.37,23.56,15.78,27.92,19.4l28.52,23.67A10.36,10.36,0,0,1,203,215.18c1.8-.57,3.18-1,3.54-1.17l9.48-3.65C219.61,209,229.23,206.81,228.42,204.87Z"/><g id="hand_shake-2" data-name="hand shake"><path class="cls-8" d="M226.59,211.54a14.88,14.88,0,0,0,5.83,4.35,17,17,0,0,0,13.05,0l12.89-5.38a17.07,17.07,0,0,0,9.16-22.32L239.2,120.42a17,17,0,0,0-22.32-9.17L204,116.64a17.41,17.41,0,0,0-10.25,17.81l2.9,8.7L212.05,180c2.83,6.8,5.38,13.71,8.45,20.4C222.26,204.27,223.93,208.37,226.59,211.54Z"/></g><path class="cls-6" d="M226,139.9a8.71,8.71,0,0,0,.57-11.5,8.44,8.44,0,0,0-5.75-3.21,8.71,8.71,0,1,0,4.4,15.43C225.48,140.36,225.79,140.16,226,139.9Z"/></g><polygon class="cls-9" points="96.93 100.68 101.23 108.54 109.09 112.84 101.23 117.14 96.93 125 92.63 117.14 84.77 112.84 92.63 108.54 96.93 100.68"/><polygon class="cls-9" points="164.33 51.18 168.03 57.93 174.78 61.63 168.03 65.32 164.33 72.07 160.64 65.32 153.89 61.63 160.64 57.93 164.33 51.18"/><polygon class="cls-9" points="209.99 66.53 215.32 76.28 225.08 81.61 215.32 86.95 209.99 96.7 204.65 86.95 194.9 81.61 204.65 76.28 209.99 66.53"/><polygon class="cls-9" points="71.28 47.91 74.19 53.23 79.51 56.14 74.19 59.05 71.28 64.38 68.37 59.05 63.05 56.14 68.37 53.23 71.28 47.91"/><polygon class="cls-9" points="31.04 77.98 34.73 84.73 41.48 88.42 34.73 92.12 31.04 98.87 27.34 92.12 20.59 88.42 27.34 84.73 31.04 77.98"/><polygon class="cls-9" points="250 84.31 252.57 89.02 257.27 91.59 252.57 94.17 250 98.87 247.42 94.17 242.72 91.59 247.42 89.02 250 84.31"/></g></g></svg>