<svg xmlns="http://www.w3.org/2000/svg" viewBox="0 0 519.25 300.97"><defs><style>.cls-1{fill:#face56;}.cls-2{fill:#f36b39;}.cls-3{fill:#375659;}.cls-4{fill:#d65d27;}.cls-5{fill:#f68c31;}</style></defs><title>Asset 12</title><g id="Layer_2" data-name="Layer 2"><g id="Layer_1-2" data-name="Layer 1"><path class="cls-1" d="M387.52,177.49,336.36,135c5-6,8-9.78,8-9.78L274.22,39.58,145.07,47.36S84.93,172.75,84.92,172.76c-.51,1.14,19.06,9.53,20.53,10.18,4.38,1.94,8.76,3.91,13.22,5.66,6,2.36,26.79,9.43,33.19,9.72,13.58.6,44.4,10,55.75,14.43,20.22,7.82,38.19,16.65,43.07,16.81L304.25,274a19.93,19.93,0,1,0,25.46-30.68l-50.28-41.72,2.63-2.93,63.82,53A20,20,0,0,0,374,249h0A20,20,0,0,0,371.34,221L308.25,168.6c.85-1,1.7-2,2.53-3l51.27,42.55a20,20,0,0,0,28.08-2.61h0A20,20,0,0,0,387.52,177.49Z"/><g id="hand_shake" data-name="hand shake"><path class="cls-2" d="M91.14,181.53c4-8.62,6.84-18,10.06-25.71L123.67,102c5.21-12.49,11.52-25,15.8-37.85l5.6-16.8c1.5-14.1-6.2-28.7-19.8-34.4l-24.9-10.4a32.91,32.91,0,0,0-43.1,17.7L2.57,151.06a32.8,32.8,0,0,0,6.8,35.7,32.43,32.43,0,0,0,10.9,7.4l24.9,10.4a32.85,32.85,0,0,0,25.2.1C80.35,200.6,86.5,191.58,91.14,181.53Z"/></g><path class="cls-3" d="M84.27,59.29a16.79,16.79,0,1,0,8.5-29.8,16.27,16.27,0,0,0-11.1,6.2,16.79,16.79,0,0,0,1.1,22.2C83.17,58.39,83.77,58.79,84.27,59.29Z"/><rect class="cls-4" x="140.06" y="180.94" width="39.87" height="42.05" rx="15.45" transform="translate(162.97 -55.68) rotate(39.05)"/><rect class="cls-4" x="250.86" y="243.09" width="39.87" height="57.13" rx="13.3" transform="translate(231.62 -109.91) rotate(39.05)"/><rect class="cls-4" x="211.73" y="217.47" width="39.87" height="65.29" rx="14.16" transform="translate(209.31 -90.07) rotate(39.05)"/><rect class="cls-4" x="176.32" y="191.91" width="39.87" height="65.29" rx="14.16" transform="translate(185.3 -73.47) rotate(39.05)"/><path class="cls-4" d="M441.16,184.38l-49-119.54c-1.32-3.14-3-16.46-6.34-15.81l-37.68,13.2a7.14,7.14,0,0,1-4.37-.52L295.2,39.45S281.31,33.34,272.86,36c0,0-3.37.8-11.26,6.62C255,47.53,227,65.53,218.26,71.16a7.18,7.18,0,0,0-3.2,4.79L209,110.21a7.26,7.26,0,0,1-.92,2.46l-8,13.3a7.1,7.1,0,0,0,1.19,8.9c3.19,2.94,9.15,5.83,20,4.62,18.48-2.05,26.51-21.57,27.79-25a8.3,8.3,0,0,0,.29-1,57.45,57.45,0,0,0,.93-5.79c.58-5.45,7.54-7.57,11.92-8.81,4.06-1.15,12-4.09,16.19-2.75,19.52,6.5,45.5,30.46,53.94,37.46l55.08,45.71a20,20,0,0,1,4.72,24.95c3.49-1.09,6.14-2,6.84-2.25l18.3-7.06C424.16,192.31,442.73,188.12,441.16,184.38Z"/><g id="hand_shake-2" data-name="hand shake"><path class="cls-5" d="M437.64,197.26a28.51,28.51,0,0,0,11.24,8.4,32.85,32.85,0,0,0,25.2-.1l24.9-10.4a32.43,32.43,0,0,0,10.9-7.4,32.8,32.8,0,0,0,6.8-35.7L462,21.26a32.91,32.91,0,0,0-43.1-17.7L394,14c-13.6,5.7-21.3,20.3-19.8,34.4l5.6,16.8,29.76,71.27c5.48,13.11,10.4,26.46,16.33,39.39C429.26,183.21,432.5,191.13,437.64,197.26Z"/></g><path class="cls-3" d="M436.48,58.89a16.79,16.79,0,0,0,1.1-22.2,16.27,16.27,0,0,0-11.1-6.2,16.82,16.82,0,1,0,8.5,29.8C435.48,59.79,436.08,59.39,436.48,58.89Z"/></g></g></svg>