<svg id="el_UtaUUZaLZ" data-name="Layer 4" xmlns="http://www.w3.org/2000/svg" viewBox="0 0 207 97"><style>@-webkit-keyframes el_xushIA3O4JA_Animation{16.67%{opacity: 0;}32.78%{opacity: 1;}0%{opacity: 0;}100%{opacity: 1;}}@keyframes el_xushIA3O4JA_Animation{16.67%{opacity: 0;}32.78%{opacity: 1;}0%{opacity: 0;}100%{opacity: 1;}}@-webkit-keyframes el_Ah9YcnXj9Ci_Animation{45%{opacity: 0;}58.33%{opacity: 1;}0%{opacity: 0;}100%{opacity: 1;}}@keyframes el_Ah9YcnXj9Ci_Animation{45%{opacity: 0;}58.33%{opacity: 1;}0%{opacity: 0;}100%{opacity: 1;}}#el_UtaUUZaLZ *{-webkit-animation-duration: 6s;animation-duration: 6s;-webkit-animation-iteration-count: infinite;animation-iteration-count: infinite;-webkit-animation-timing-function: cubic-bezier(0, 0, 1, 1);animation-timing-function: cubic-bezier(0, 0, 1, 1);}#el_UR2faIa1KR{fill: #aeb4ba;}#el_z-169-WnlA{fill: #828b91;}#el_QcMxK_LA8o{fill: #fff;-webkit-transform: translate(-26.72px, -19.08px);transform: translate(-26.72px, -19.08px);}#el_c9ZqQ3tM6J{fill: #828b91;-webkit-transform: translate(-26.72px, -19.08px);transform: translate(-26.72px, -19.08px);}#el_Hgp-JMebvI{fill: #828b91;-webkit-transform: translate(-26.72px, -19.08px);transform: translate(-26.72px, -19.08px);}#el_E3qiwsbiup{fill: #828b91;-webkit-transform: translate(-26.72px, -19.08px);transform: translate(-26.72px, -19.08px);}#el_w3uvOnVCKr{fill: #828b91;-webkit-transform: translate(-26.72px, -19.08px);transform: translate(-26.72px, -19.08px);}#el_rSWF0-ydvF{fill: #828b91;-webkit-transform: translate(-26.72px, -19.08px);transform: translate(-26.72px, -19.08px);}#el_WiTIR9BkQe{fill: #828b91;-webkit-transform: translate(-26.72px, -19.08px);transform: translate(-26.72px, -19.08px);}#el_hxmhl1I_vZ{fill: #828b91;-webkit-transform: translate(-26.72px, -19.08px);transform: translate(-26.72px, -19.08px);}#el_tp8mQAY6u9{fill: #828b91;-webkit-transform: translate(-26.72px, -19.08px);transform: translate(-26.72px, -19.08px);}#el_Q1VMtCZk45{fill: #828b91;-webkit-transform: translate(-26.72px, -19.08px);transform: translate(-26.72px, -19.08px);}#el_jwKWaF1zHC{fill: #828b91;-webkit-transform: translate(-26.72px, -19.08px);transform: translate(-26.72px, -19.08px);}#el_KzPS4LFqW3{fill: #828b91;-webkit-transform: translate(-26.72px, -19.08px);transform: translate(-26.72px, -19.08px);}#el_Fj1retf46-N{fill: #828b91;-webkit-transform: translate(-26.72px, -19.08px);transform: translate(-26.72px, -19.08px);}#el_Mzc2-A8ceNX{fill: #828b91;-webkit-transform: translate(-26.72px, -19.08px);transform: translate(-26.72px, -19.08px);}#el_PuYMUPOA7xr{fill: #828b91;-webkit-transform: translate(-26.72px, -19.08px);transform: translate(-26.72px, -19.08px);}#el_B_sY5UZ4fb-{fill: #828b91;-webkit-transform: translate(-26.72px, -19.08px);transform: translate(-26.72px, -19.08px);}#el_5nKnqBUTSbl{fill: #828b91;-webkit-transform: translate(-26.72px, -19.08px);transform: translate(-26.72px, -19.08px);}#el_BxEfP0eqOF2{fill: #828b91;-webkit-transform: translate(-26.72px, -19.08px);transform: translate(-26.72px, -19.08px);}#el_lxiArl4J3GZ{fill: #828b91;-webkit-transform: translate(-26.72px, -19.08px);transform: translate(-26.72px, -19.08px);}#el_lRVlCFDTkU0{fill: #828b91;fill-rule: evenodd;-webkit-transform: translate(-26.72px, -19.08px);transform: translate(-26.72px, -19.08px);}#el_9x3jEDIuZmZ{fill: #fff;-webkit-transform: translate(-26.72px, -19.08px);transform: translate(-26.72px, -19.08px);}#el_hI9s0BQhxTq{fill: #828b91;-webkit-transform: translate(-26.72px, -19.08px);transform: translate(-26.72px, -19.08px);}#el_9dQsgamJe2o{fill: #828b91;-webkit-transform: translate(-26.72px, -19.08px);transform: translate(-26.72px, -19.08px);}#el_lqeuWLxzc0l{fill: #828b91;-webkit-transform: translate(-26.72px, -19.08px);transform: translate(-26.72px, -19.08px);}#el_-g0q-dDQgRN{fill: #828b91;-webkit-transform: translate(-26.72px, -19.08px);transform: translate(-26.72px, -19.08px);}#el_kY2CgUgxlsZ{fill: #828b91;-webkit-transform: translate(-26.72px, -19.08px);transform: translate(-26.72px, -19.08px);}#el_b4o46nO6NcE{fill: #fff;-webkit-transform: translate(-26.72px, -19.08px);transform: translate(-26.72px, -19.08px);}#el_W4Oag_ZiVWq{fill: #828b91;-webkit-transform: translate(-26.72px, -19.08px);transform: translate(-26.72px, -19.08px);}#el_1l83W2P6GYz{fill: #828b91;-webkit-transform: translate(-26.72px, -19.08px);transform: translate(-26.72px, -19.08px);}#el_2FiDqaocwC1{fill: #828b91;-webkit-transform: translate(-26.72px, -19.08px);transform: translate(-26.72px, -19.08px);}#el_x1sGBqB27sc{fill: #828b91;-webkit-transform: translate(-26.72px, -19.08px);transform: translate(-26.72px, -19.08px);}#el_b7eOE28l5he{fill: #828b91;-webkit-transform: translate(-26.72px, -19.08px);transform: translate(-26.72px, -19.08px);}#el_XzggFAAOn0r{fill: #828b91;-webkit-transform: translate(-26.72px, -19.08px);transform: translate(-26.72px, -19.08px);}#el_r6Xe05h2F1d{fill: #828b91;-webkit-transform: translate(-26.72px, -19.08px);transform: translate(-26.72px, -19.08px);}#el_-wnS-SBB1Bd{fill: #828b91;}#el_pECaZG-M8ev{fill: #828b91;}#el_l0YOOLeTZkp{fill: #828b91;}#el_vf-kETgb24M{fill: #828b91;}#el_uF0qS8mmanr{fill: #aeb4ba;}#el_zBMHpqZzdt7{fill: #828b91;}#el_TPQJj-c7SPr{fill: #fff;-webkit-transform: translate(-26.72px, -19.08px);transform: translate(-26.72px, -19.08px);}#el_utrPW1r6Ohp{fill: #828b91;-webkit-transform: translate(-26.72px, -19.08px);transform: translate(-26.72px, -19.08px);}#el_wYbUrCXN-yI{fill: #828b91;-webkit-transform: translate(-26.72px, -19.08px);transform: translate(-26.72px, -19.08px);}#el_puuOlD4DeNd{fill: #828b91;-webkit-transform: translate(-26.72px, -19.08px);transform: translate(-26.72px, -19.08px);}#el_C7GSNA70Mqx{fill: #828b91;-webkit-transform: translate(-26.72px, -19.08px);transform: translate(-26.72px, -19.08px);}#el_CIfJRsPV4Wk{fill: #828b91;-webkit-transform: translate(-26.72px, -19.08px);transform: translate(-26.72px, -19.08px);}#el_KwG68BVkcS0{fill: #828b91;-webkit-transform: translate(-26.72px, -19.08px);transform: translate(-26.72px, -19.08px);}#el_ISfTgb56OaO{fill: #828b91;-webkit-transform: translate(-26.72px, -19.08px);transform: translate(-26.72px, -19.08px);}#el_ijB3M0GnRIP{fill: #828b91;-webkit-transform: translate(-26.72px, -19.08px);transform: translate(-26.72px, -19.08px);}#el_z4HAgOSI5jj{fill: #828b91;-webkit-transform: translate(-26.72px, -19.08px);transform: translate(-26.72px, -19.08px);}#el_BowsoWLtWsm{fill: #828b91;-webkit-transform: translate(-26.72px, -19.08px);transform: translate(-26.72px, -19.08px);}#el_PcT_W9ZR59Z{fill: #828b91;-webkit-transform: translate(-26.72px, -19.08px);transform: translate(-26.72px, -19.08px);}#el_J8BA76CWG38{fill: #828b91;-webkit-transform: translate(-26.72px, -19.08px);transform: translate(-26.72px, -19.08px);}#el_f1guZxhNA9U{fill: #828b91;-webkit-transform: translate(-26.72px, -19.08px);transform: translate(-26.72px, -19.08px);}#el_3TM16AC5icT{fill: #828b91;-webkit-transform: translate(-26.72px, -19.08px);transform: translate(-26.72px, -19.08px);}#el__g_tl7CqokL{fill: #828b91;-webkit-transform: translate(-26.72px, -19.08px);transform: translate(-26.72px, -19.08px);}#el_5SEjzhfMcgW{fill: #828b91;-webkit-transform: translate(-26.72px, -19.08px);transform: translate(-26.72px, -19.08px);}#el_pZ9wuEPWhXK{fill: #828b91;-webkit-transform: translate(-26.72px, -19.08px);transform: translate(-26.72px, -19.08px);}#el__wQqylON3Au{fill: #828b91;-webkit-transform: translate(-26.72px, -19.08px);transform: translate(-26.72px, -19.08px);}#el_sP9BQ4qZDsm{fill: #828b91;fill-rule: evenodd;-webkit-transform: translate(-26.72px, -19.08px);transform: translate(-26.72px, -19.08px);}#el_9J8Hs-nU7Yg{fill: #fff;-webkit-transform: translate(-26.72px, -19.08px);transform: translate(-26.72px, -19.08px);}#el_Lk7jQKVD4mQ{fill: #828b91;-webkit-transform: translate(-26.72px, -19.08px);transform: translate(-26.72px, -19.08px);}#el_obZQvVQvp4v{fill: #828b91;-webkit-transform: translate(-26.72px, -19.08px);transform: translate(-26.72px, -19.08px);}#el_83D5SRHXYZh{fill: #828b91;-webkit-transform: translate(-26.72px, -19.08px);transform: translate(-26.72px, -19.08px);}#el_lv38uivzJk4{fill: #828b91;-webkit-transform: translate(-26.72px, -19.08px);transform: translate(-26.72px, -19.08px);}#el_r1oFc0-u1EB{fill: #828b91;-webkit-transform: translate(-26.72px, -19.08px);transform: translate(-26.72px, -19.08px);}#el_OrzCftMh6Oe{fill: #fff;-webkit-transform: translate(-26.72px, -19.08px);transform: translate(-26.72px, -19.08px);}#el_Df6FRj4MvZ6{fill: #828b91;-webkit-transform: translate(-26.72px, -19.08px);transform: translate(-26.72px, -19.08px);}#el_LNQI3SlDgd7{fill: #828b91;-webkit-transform: translate(-26.72px, -19.08px);transform: translate(-26.72px, -19.08px);}#el_4SiwocgxHk7{fill: #828b91;-webkit-transform: translate(-26.72px, -19.08px);transform: translate(-26.72px, -19.08px);}#el_fomSPZAdwNE{fill: #828b91;-webkit-transform: translate(-26.72px, -19.08px);transform: translate(-26.72px, -19.08px);}#el_zlEVNLck_O9{fill: #828b91;-webkit-transform: translate(-26.72px, -19.08px);transform: translate(-26.72px, -19.08px);}#el_7zd8tjYh6-R{fill: #828b91;-webkit-transform: translate(-26.72px, -19.08px);transform: translate(-26.72px, -19.08px);}#el_VGOgXb8-16N{fill: #828b91;-webkit-transform: translate(-26.72px, -19.08px);transform: translate(-26.72px, -19.08px);}#el_LaJ-f_aZ6uF{fill: #828b91;}#el_d7Pg5q8joy8{fill: #828b91;}#el_YvD9VUeBHlN{fill: #828b91;}#el_oemVlAvoOUr{fill: #828b91;}#el_-qtU4n9UGWL{fill: #aeb4ba;}#el_XLXlOHrMIFs{fill: #828b91;}#el_n6IoUZZHspU{fill: #fff;-webkit-transform: translate(-26.72px, -19.08px);transform: translate(-26.72px, -19.08px);}#el_h7ZMS6jPMiL{fill: #828b91;-webkit-transform: translate(-26.72px, -19.08px);transform: translate(-26.72px, -19.08px);}#el_oAkaDPrWfBR{fill: #828b91;-webkit-transform: translate(-26.72px, -19.08px);transform: translate(-26.72px, -19.08px);}#el_mAYQAWaYnNa{fill: #828b91;-webkit-transform: translate(-26.72px, -19.08px);transform: translate(-26.72px, -19.08px);}#el_qfBQD_aMSfA{fill: #828b91;-webkit-transform: translate(-26.72px, -19.08px);transform: translate(-26.72px, -19.08px);}#el_SrPNpbIj_21{fill: #828b91;-webkit-transform: translate(-26.72px, -19.08px);transform: translate(-26.72px, -19.08px);}#el_b1eX-Hao7Vr{fill: #d1d5d6;-webkit-transform: translate(-26.72px, -19.08px);transform: translate(-26.72px, -19.08px);}#el_3fh3RmMqVkK{fill: #aeb4ba;}#el_daEFL5Wyzpv{fill: #828b91;}#el_QUqBPPtzNNl{fill: #828b91;}#el_tSw6fNtQajk{fill: #f06830;}#el_DohaOrumjA5{fill: #f06830;}#el_NyH228yDwJq{fill: #f06830;}#el_0KfHm1j6tOa{fill: #2e404a;}#el_1rHzvLsn5-R{fill: #ef373f;-webkit-transform: translate(-26.72px, -19.08px);transform: translate(-26.72px, -19.08px);}#el_o91vA4877T7{fill: #5ac7d2;-webkit-transform: translate(-26.72px, -19.08px);transform: translate(-26.72px, -19.08px);}#el_LyXO4Ey-H1A{fill: #fff;-webkit-transform: translate(-26.72px, -19.08px);transform: translate(-26.72px, -19.08px);}#el_h3wUnx_SAjh{fill: #fff;-webkit-transform: translate(-26.72px, -19.08px);transform: translate(-26.72px, -19.08px);}#el_sny5H36n9L7{fill: #fff;-webkit-transform: translate(-26.72px, -19.08px);transform: translate(-26.72px, -19.08px);}#el_lF5QtCCaqAC{fill: #fff;-webkit-transform: translate(-26.72px, -19.08px);transform: translate(-26.72px, -19.08px);}#el_D0jN_wa-EFb{fill: #fff;-webkit-transform: translate(-26.72px, -19.08px);transform: translate(-26.72px, -19.08px);}#el_vNBKNJHFRnN{fill: #fff;-webkit-transform: translate(-26.72px, -19.08px);transform: translate(-26.72px, -19.08px);}#el_IWr1ZLr6-P4{fill: #fff;-webkit-transform: translate(-26.72px, -19.08px);transform: translate(-26.72px, -19.08px);}#el_sE54duDoNK7{fill: #fff;-webkit-transform: translate(-26.72px, -19.08px);transform: translate(-26.72px, -19.08px);}#el_U_j7To6VLM-{fill: #fff;-webkit-transform: translate(-26.72px, -19.08px);transform: translate(-26.72px, -19.08px);}#el_h9fsls6jn-X{fill: #fff;-webkit-transform: translate(-26.72px, -19.08px);transform: translate(-26.72px, -19.08px);}#el_FuUuMCqzLk4{fill: #fff;-webkit-transform: translate(-26.72px, -19.08px);transform: translate(-26.72px, -19.08px);}#el_oHWgx6EL1o6{fill: #fff;-webkit-transform: translate(-26.72px, -19.08px);transform: translate(-26.72px, -19.08px);}#el_gKdVxp1q4Vz{fill: #fff;-webkit-transform: translate(-26.72px, -19.08px);transform: translate(-26.72px, -19.08px);}#el_fqyN9Gxu9Yc{fill: #fff;-webkit-transform: translate(-26.72px, -19.08px);transform: translate(-26.72px, -19.08px);}#el_pCKZwszXqBI{fill: #fff;-webkit-transform: translate(-26.72px, -19.08px);transform: translate(-26.72px, -19.08px);}#el_jptd79yjwD1{fill: #fff;-webkit-transform: translate(-26.72px, -19.08px);transform: translate(-26.72px, -19.08px);}#el_RwDFQn3TeMT{fill: #fff;-webkit-transform: translate(-26.72px, -19.08px);transform: translate(-26.72px, -19.08px);}#el_cX7xisxRlW8{fill: #fff;-webkit-transform: translate(-26.72px, -19.08px);transform: translate(-26.72px, -19.08px);}#el_VkuMJHqTPD2{fill: #fff;fill-rule: evenodd;-webkit-transform: translate(-26.72px, -19.08px);transform: translate(-26.72px, -19.08px);}#el_e88zNLYKc-5{fill: #5ac7d2;-webkit-transform: translate(-26.72px, -19.08px);transform: translate(-26.72px, -19.08px);}#el_Wy7RROMA61I{fill: #fff;-webkit-transform: translate(-26.72px, -19.08px);transform: translate(-26.72px, -19.08px);}#el_0DCHxv1K3z1{fill: #fff;-webkit-transform: translate(-26.72px, -19.08px);transform: translate(-26.72px, -19.08px);}#el_oemV-qkCcLn{fill: #fff;-webkit-transform: translate(-26.72px, -19.08px);transform: translate(-26.72px, -19.08px);}#el_ADJ9v7a9sC0{fill: #fff;-webkit-transform: translate(-26.72px, -19.08px);transform: translate(-26.72px, -19.08px);}#el_szF57old_NU{fill: #fff;-webkit-transform: translate(-26.72px, -19.08px);transform: translate(-26.72px, -19.08px);}#el_99m58wjB4ct{opacity: 0.7;}#el_3ZLJxTLaGFV{fill: #5ac7d2;-webkit-transform: translate(-26.72px, -19.08px);transform: translate(-26.72px, -19.08px);}#el_xkrELV-WhVo{fill: #fff;-webkit-transform: translate(-26.72px, -19.08px);transform: translate(-26.72px, -19.08px);}#el_Px07dj0vMdN{fill: #fff;-webkit-transform: translate(-26.72px, -19.08px);transform: translate(-26.72px, -19.08px);}#el_5YxIc-riSF4{fill: #fff;-webkit-transform: translate(-26.72px, -19.08px);transform: translate(-26.72px, -19.08px);}#el_HsiD10guoHh{fill: #fff;-webkit-transform: translate(-26.72px, -19.08px);transform: translate(-26.72px, -19.08px);}#el_P4FN3pzyCOQ{fill: #fff;-webkit-transform: translate(-26.72px, -19.08px);transform: translate(-26.72px, -19.08px);}#el_OU49471d6fu{fill: #fff;-webkit-transform: translate(-26.72px, -19.08px);transform: translate(-26.72px, -19.08px);}#el_OKN04jrWrm4{fill: #fff;-webkit-transform: translate(-26.72px, -19.08px);transform: translate(-26.72px, -19.08px);}#el_XQ-Ljj4eH4t{fill: #2e404a;}#el_Tc4pTkephVM{fill: #5ac7d2;-webkit-transform: translate(-26.72px, -19.08px);transform: translate(-26.72px, -19.08px);}#el_EEAnnrO1i-1{fill: #fff;-webkit-transform: translate(-26.72px, -19.08px);transform: translate(-26.72px, -19.08px);}#el_8G2OIIsNfQS{fill: #fff;-webkit-transform: translate(-26.72px, -19.08px);transform: translate(-26.72px, -19.08px);}#el_kdKqM1AQMZz{fill: #fff;-webkit-transform: translate(-26.72px, -19.08px);transform: translate(-26.72px, -19.08px);}#el_72BRqM8gifI{fill: #fff;-webkit-transform: translate(-26.72px, -19.08px);transform: translate(-26.72px, -19.08px);}#el_GKWCtuR8sN_{fill: #fff;-webkit-transform: translate(-26.72px, -19.08px);transform: translate(-26.72px, -19.08px);}#el_pMKJ70TCMbL{fill: #fff;-webkit-transform: translate(-26.72px, -19.08px);transform: translate(-26.72px, -19.08px);}#el_9zB9fYPC7Ak{fill: #2e404a;-webkit-transform: translate(-26.72px, -19.08px);transform: translate(-26.72px, -19.08px);}#el_YkX-rNZC0y9{fill: #2e404a;-webkit-transform: translate(-26.72px, -19.08px);transform: translate(-26.72px, -19.08px);}#el_sDLJeXTVaYS{fill: #2e404a;-webkit-transform: translate(-26.72px, -19.08px);transform: translate(-26.72px, -19.08px);}#el_S6qQhze-Zyc{fill: #2e404a;-webkit-transform: translate(-26.72px, -19.08px);transform: translate(-26.72px, -19.08px);}#el_YvD4I6SX6Zz{fill: #2e404a;-webkit-transform: translate(-26.72px, -19.08px);transform: translate(-26.72px, -19.08px);}#el_dgpFY3BNuEg{fill: #2e404a;-webkit-transform: translate(-26.72px, -19.08px);transform: translate(-26.72px, -19.08px);}#el_-8BKdN7FU05{fill: #2e404a;-webkit-transform: translate(-26.72px, -19.08px);transform: translate(-26.72px, -19.08px);}#el_RRgdGDho-pQ{fill: #2e404a;-webkit-transform: translate(-26.72px, -19.08px);transform: translate(-26.72px, -19.08px);}#el_alxnxsAMyIW{fill: #2e404a;-webkit-transform: translate(-26.72px, -19.08px);transform: translate(-26.72px, -19.08px);}#el_gzo-kfssJgq{fill: #2e404a;-webkit-transform: translate(-26.72px, -19.08px);transform: translate(-26.72px, -19.08px);}#el_W7KZiWUekEx{fill: #2e404a;-webkit-transform: translate(-26.72px, -19.08px);transform: translate(-26.72px, -19.08px);}#el_pWxhTyF8_26{fill: #2e404a;-webkit-transform: translate(-26.72px, -19.08px);transform: translate(-26.72px, -19.08px);}#el_h4-jkx9xEyK{fill: #2e404a;-webkit-transform: translate(-26.72px, -19.08px);transform: translate(-26.72px, -19.08px);}#el_R2Ig5D3kXDm{fill: #2e404a;-webkit-transform: translate(-26.72px, -19.08px);transform: translate(-26.72px, -19.08px);}#el_qsTy03lMPQR{fill: #2e404a;-webkit-transform: translate(-26.72px, -19.08px);transform: translate(-26.72px, -19.08px);}#el_5HqwXATnjox{fill: #2e404a;-webkit-transform: translate(-26.72px, -19.08px);transform: translate(-26.72px, -19.08px);}#el_DjTTqWedeqX{fill: #9fb5ba;}#el_MdwXKCwuqWn{fill: #2e404a;}#el_ZH3zIR5X6AG{fill: #2e404a;}#el_MlX8SYJjPaJ{fill: #fff;-webkit-transform: translate(-26.72px, -19.08px);transform: translate(-26.72px, -19.08px);}#el_7hd9hPC8tBu{fill: #fff;-webkit-transform: translate(-29.29px, 142.38px) rotate(-45.01deg);transform: translate(-29.29px, 142.38px) rotate(-45.01deg);}#el_P1P59R3L4_-{opacity: 0.2;isolation: isolate;}#el_Pskj7aiUcSu{fill: #828b91;}#el_Jw-gIVS5r17{fill: #fff;-webkit-transform: translate(-26.72px, -19.08px);transform: translate(-26.72px, -19.08px);}#el_hpSUo3jM26Y{fill: #fff;-webkit-transform: translate(-45.19px, 148.97px) rotate(-45.01deg);transform: translate(-45.19px, 148.97px) rotate(-45.01deg);}#el_gHUPqU4Rcz3{fill: #fff;}#el_v6jQFZtxCfw{fill: #c5e8f0;}#el_RqYJ2jiLsYy{fill: #2e404a;}#el_W6nlCQnOKS1{fill: #fff;-webkit-transform: translate(-26.72px, -19.08px);transform: translate(-26.72px, -19.08px);}#el_ZwFwgozFuBb{fill: #fff;}#el_LyVBsdZ6pYL{fill: #fff;-webkit-transform: translate(-26.72px, -19.08px);transform: translate(-26.72px, -19.08px);}#el_Rw5H3tkzmOu{fill: #fff;}#el_80GF1Nz0dcs{fill: #fff;-webkit-transform: translate(-26.72px, -19.08px);transform: translate(-26.72px, -19.08px);}#el_urh_f5K3rGG{fill: #fff;}#el_YdrK73TzyqO{fill: #fff;-webkit-transform: translate(-26.72px, -19.08px);transform: translate(-26.72px, -19.08px);}#el_AftaoNouoGl{fill: #fff;-webkit-transform: translate(-26.72px, -19.08px);transform: translate(-26.72px, -19.08px);}#el_4iXoWlxkfzK{fill: #fff;-webkit-transform: translate(-26.72px, -19.08px);transform: translate(-26.72px, -19.08px);}#el_KyYrEQz4U4T{fill: #fff;-webkit-transform: translate(-26.72px, -19.08px);transform: translate(-26.72px, -19.08px);}#el_Odj7ZPRb7aX{fill: #fff;-webkit-transform: translate(-26.72px, -19.08px);transform: translate(-26.72px, -19.08px);}#el_6gyLU1HOpYT{fill: #fff;-webkit-transform: translate(-26.72px, -19.08px);transform: translate(-26.72px, -19.08px);}#el_kIrxt_zK15l{fill: #fff;-webkit-transform: translate(-26.72px, -19.08px);transform: translate(-26.72px, -19.08px);}#el_Tu6Bu1_xfkH{fill: #fff;-webkit-transform: translate(-26.72px, -19.08px);transform: translate(-26.72px, -19.08px);}#el_xXr-jINTDXK{fill: #fff;-webkit-transform: translate(-26.72px, -19.08px);transform: translate(-26.72px, -19.08px);}#el_8V0HnFrym6B{fill: #fff;-webkit-transform: translate(-26.72px, -19.08px);transform: translate(-26.72px, -19.08px);}#el_NL9_RgnBtBl{fill: #fff;-webkit-transform: translate(-26.72px, -19.08px);transform: translate(-26.72px, -19.08px);}#el_1iJTsddFJbw{fill: #fff;-webkit-transform: translate(-26.72px, -19.08px);transform: translate(-26.72px, -19.08px);}#el_6eB-3CdOd19{fill: #fff;-webkit-transform: translate(-26.72px, -19.08px);transform: translate(-26.72px, -19.08px);}#el_z5y0j6Ykkco{fill: #fff;-webkit-transform: translate(-26.72px, -19.08px);transform: translate(-26.72px, -19.08px);}#el_DYJEWoNQlGN{fill: #fff;-webkit-transform: translate(-26.72px, -19.08px);transform: translate(-26.72px, -19.08px);}#el_f69P1fY7dcG{fill: #fff;-webkit-transform: translate(-26.72px, -19.08px);transform: translate(-26.72px, -19.08px);}#el_0KHaB_9J2_J{fill: #fff;-webkit-transform: translate(-26.72px, -19.08px);transform: translate(-26.72px, -19.08px);}#el_7FlamD18hB9{fill: none;stroke: #dfdfde;stroke-linecap: round;stroke-linejoin: round;-webkit-transform: translate(-26.72px, -19.08px);transform: translate(-26.72px, -19.08px);}#el_v0VUYAKZTW0{fill: none;stroke: #dfdfde;stroke-linecap: round;stroke-linejoin: round;-webkit-transform: translate(-26.72px, -19.08px);transform: translate(-26.72px, -19.08px);}#el_ODpLAeFO9kn{fill: #5ac7d2;}#el_4fDpMT-S1aC{fill: #fff;-webkit-transform: translate(-26.72px, -19.08px);transform: translate(-26.72px, -19.08px);}#el_3AhdZduS02M{fill: #2e404a;}#el_TBMHLEZ-21y{fill: #fff;-webkit-transform: translate(-26.72px, -19.08px);transform: translate(-26.72px, -19.08px);}#el_KXY8jiMdwhF{fill: #fff;-webkit-transform: translate(-14px, 136.05px) rotate(-45.01deg);transform: translate(-14px, 136.05px) rotate(-45.01deg);}#el_lAiXdVlCytS{fill: #2e404a;}#el_xkEkbCeCTgM{fill: #fff;-webkit-transform: translate(-26.72px, -19.08px);transform: translate(-26.72px, -19.08px);}#el_AtCRBBeIwpB{fill: #fff;-webkit-transform: translate(-22.67px, 139.64px) rotate(-45.01deg);transform: translate(-22.67px, 139.64px) rotate(-45.01deg);}#el_C2ScPh1F68G{fill: #fff;}#el_7KwvpK7tzQk{fill: #fff;}#el_L8LzZRS0yGd{fill: #ef373f;}#el_j7eBFC05ovC{fill: #ef373f;}#el_QYLJnAN6sGu{fill: #ef373f;}#el_Sp_tG4ffwc8{fill: #5ac7d2;-webkit-transform: translate(-26.72px, -19.08px);transform: translate(-26.72px, -19.08px);}#el_g-feREbGMcj{fill: #ef373f;}#el_vZmliezfpc8{fill: #5ac7d2;-webkit-transform: translate(-26.72px, -19.08px);transform: translate(-26.72px, -19.08px);}#el_8MwQVIVR7Pe{fill: #5ac7d2;}#el_X-G60aNf2gC{fill: #f06830;}#el_0HtcRwakyOa{fill: #f06830;}#el_RJdTVPA50EA{fill: #f06830;}#el_UZQTGwKTcnZ{fill: #f06830;}#el_Q1YiK09U-M-{fill: #f06830;}#el__5MaUcpww3a{fill: #f06830;}#el_lV8xnqsm33z{fill: #5ac7d2;}#el_z_x6Rjc3n9r{fill: #5ac7d2;}#el_WiBWztWxt4m{fill: #2e404a;}#el_m6MseS3w4qP{fill: #5ac7d2;}#el_Hp2hkk5v2Ud{fill: #f68c31;}#el_kwpZtcphdh8{fill: #fff;-webkit-transform: translate(-26.72px, -19.08px);transform: translate(-26.72px, -19.08px);}#el_cBQMCAZtXnq{fill: #fff;}#el_oZzt4wlAfUT{fill: #fff;}#el_9JMJPFM3nE5{fill: #fff;}#el_CeyDcJWJdX8{fill: #fff;}#el_1nfg7j-fVh2{fill: #fff;}#el_fNQEmvlFcgO{fill: #2e404a;}#el_jmlWBqRn-I_{fill: #2e404a;}#el_WYTrGlX_Vns{fill: #fff;}#el_Se9Sl3txSGX{fill: #fff;}#el_Ah9YcnXj9Ci{-webkit-animation-name: el_Ah9YcnXj9Ci_Animation;animation-name: el_Ah9YcnXj9Ci_Animation;opacity: 0;}#el_xushIA3O4JA{-webkit-animation-name: el_xushIA3O4JA_Animation;animation-name: el_xushIA3O4JA_Animation;opacity: 0;}</style><defs/><title>process-design</title><g id="el_HJNlBkBeaR" data-name="Step 1"><rect width="54.73" height="97.15" id="el_UR2faIa1KR"/><circle cx="27.29" cy="21.77" r="12.83" id="el_z-169-WnlA"/><path d="M77.26,93.65a.35.35,0,0,1-.34.35H31.25a.35.35,0,0,1-.34-.35V87.1a.34.34,0,0,1,.34-.34H76.92a.34.34,0,0,1,.34.34Z" id="el_QcMxK_LA8o"/><path d="M43.05,90.93a.81.81,0,0,0,.43.12c.24,0,.39-.13.39-.3s-.1-.28-.34-.36-.48-.26-.48-.53a.53.53,0,0,1,.6-.5.92.92,0,0,1,.41.09l-.07.19a.63.63,0,0,0-.34-.09c-.25,0-.34.15-.34.27s.12.26.36.36.48.28.48.55-.21.53-.65.53a1,1,0,0,1-.48-.12Z" id="el_c9ZqQ3tM6J"/><path d="M44.7,89.53a.15.15,0,0,1-.16.16c-.08,0-.13-.07-.13-.16a.15.15,0,0,1,.15-.15A.15.15,0,0,1,44.7,89.53Zm-.28,1.7V89.91h.24v1.32Z" id="el_Hgp-JMebvI"/><path d="M46.2,89.91c0,.1,0,.2,0,.36V91a.77.77,0,0,1-.18.6.71.71,0,0,1-.48.15.88.88,0,0,1-.45-.1l.07-.19a.79.79,0,0,0,.39.1.4.4,0,0,0,.43-.46V91h0a.48.48,0,0,1-.43.22.6.6,0,0,1-.56-.65.63.63,0,0,1,.6-.7.45.45,0,0,1,.41.22h0l0-.21h.2Zm-.24.53a.16.16,0,0,0,0-.1.35.35,0,0,0-.34-.26c-.22,0-.39.19-.39.5a.42.42,0,0,0,.39.47.35.35,0,0,0,.34-.23.32.32,0,0,0,0-.14Z" id="el_E3qiwsbiup"/><path d="M46.58,90.27a1.94,1.94,0,0,0,0-.36h.21v.22h0a.53.53,0,0,1,.45-.26c.19,0,.46.11.46.57v.79h-.24v-.77c0-.21-.09-.4-.31-.4a.37.37,0,0,0-.32.24.23.23,0,0,0,0,.12v.81h-.24v-1Z" id="el_w3uvOnVCKr"/><path d="M48.94,89.53a.15.15,0,0,1-.16.16c-.08,0-.13-.07-.13-.16a.15.15,0,0,1,.15-.15A.14.14,0,0,1,48.94,89.53Zm-.26,1.7V89.91h.24v1.32Z" id="el_rSWF0-ydvF"/><path d="M49.31,90.27c0-.14,0-.26,0-.36h.2l0,.22h0a.51.51,0,0,1,.44-.26c.19,0,.47.11.47.57v.79h-.24v-.77c0-.21-.09-.4-.31-.4a.39.39,0,0,0-.33.24.45.45,0,0,0,0,.12v.81H49.3v-1Z" id="el_WiTIR9BkQe"/><path d="M51.52,89.91l.17.67c0,.15.07.29.1.42h0c0-.13.07-.27.12-.41l.23-.68h.2l.21.67c.05.15.08.29.12.42h0a1.81,1.81,0,0,1,.1-.42l.19-.67h.24l-.43,1.32h-.22l-.21-.64c-.05-.15-.08-.27-.12-.42h0a3.6,3.6,0,0,1-.12.44l-.2.63h-.23l-.39-1.31h.24Z" id="el_hxmhl1I_vZ"/><path d="M53.69,89.53a.14.14,0,0,1-.15.16.14.14,0,0,1-.14-.16.16.16,0,0,1,.16-.15A.14.14,0,0,1,53.69,89.53Zm-.25,1.7V89.91h.24v1.32Z" id="el_tp8mQAY6u9"/><path d="M54.36,89.53v.38h.34v.19h-.34v.72c0,.17,0,.25.19.25a.28.28,0,0,0,.14,0v.19a.54.54,0,0,1-.2,0,.3.3,0,0,1-.26-.11.45.45,0,0,1-.09-.34v-.72H54v-.2h.2v-.33Z" id="el_Q1VMtCZk45"/><path d="M55,89.29h.24v.82h0a.46.46,0,0,1,.17-.17.56.56,0,0,1,.24-.07c.17,0,.46.11.46.57v.79h-.24v-.76c0-.2-.09-.39-.31-.39a.34.34,0,0,0-.32.24.22.22,0,0,0,0,.12v.8H55V89.29Z" id="el_jwKWaF1zHC"/><path d="M57.08,89.4h1v.2h-.75v.62H58v.2h-.7v.84h-.24V89.4Z" id="el_KzPS4LFqW3"/><path d="M59,91.23v-.18h0a.51.51,0,0,1-.42.21.38.38,0,0,1-.41-.38c0-.32.3-.49.81-.49v0a.28.28,0,0,0-.31-.3.55.55,0,0,0-.34.1l0-.16a.9.9,0,0,1,.42-.12c.42,0,.5.28.5.55v.5a1.62,1.62,0,0,0,0,.32H59Zm0-.67c-.26,0-.57,0-.57.29a.21.21,0,0,0,.23.22.33.33,0,0,0,.32-.22s0,0,0-.07Z" id="el_Fj1retf46-N"/><path d="M60.55,91.19a.8.8,0,0,1-.37.07.64.64,0,0,1-.67-.68.67.67,0,0,1,.72-.71,1,1,0,0,1,.34.07l0,.19a.6.6,0,0,0-.28-.07.5.5,0,0,0,0,1,.63.63,0,0,0,.29-.06Z" id="el_Mzc2-A8ceNX"/><path d="M61,90.61a.42.42,0,0,0,.46.46.82.82,0,0,0,.36-.07l0,.17a1,1,0,0,1-.44.09.61.61,0,0,1-.65-.67.65.65,0,0,1,.61-.72.56.56,0,0,1,.55.62v.12Zm.71-.17c0-.16-.06-.39-.34-.39s-.34.22-.37.39Z" id="el_PuYMUPOA7xr"/><path d="M62.18,91.23c0-.09,0-.23,0-.35v-1.6h.24v.83h0a.49.49,0,0,1,.45-.24c.32,0,.56.28.56.69a.61.61,0,0,1-.6.7A.46.46,0,0,1,62.4,91h0l0,.23Zm.24-.53a.19.19,0,0,0,0,.08.36.36,0,0,0,.36.27c.26,0,.41-.2.41-.51s-.13-.49-.39-.49a.36.36,0,0,0-.36.29s0,.06,0,.1v.26Z" id="el_B_sY5UZ4fb-"/><path d="M65,90.56a.65.65,0,0,1-.67.7.62.62,0,0,1-.63-.68.65.65,0,0,1,.65-.71A.64.64,0,0,1,65,90.56Zm-1.06,0c0,.29.17.51.41.51a.47.47,0,0,0,.41-.51c0-.23-.12-.52-.39-.52S63.89,90.32,63.89,90.58Z" id="el_5nKnqBUTSbl"/><path d="M66.45,90.56a.64.64,0,0,1-.66.7.63.63,0,0,1-.64-.68.65.65,0,1,1,1.3,0Zm-1.06,0c0,.29.17.51.41.51a.46.46,0,0,0,.41-.51c0-.23-.12-.52-.39-.52S65.39,90.32,65.39,90.58Z" id="el_BxEfP0eqOF2"/><path d="M67,90.51h0a1.67,1.67,0,0,0,.12-.16l.4-.46h.29l-.52.55.59.79h-.3l-.46-.64-.12.14v.5h-.24v-2H67Z" id="el_lxiArl4J3GZ"/><g id="el_EOZAsCt99Nl"><path d="M36.08,88.49v.65s-.48,0-.55.08a1.82,1.82,0,0,0-.05.52h.6c0,.22,0,.44-.07.65h-.52v1.88h-.8V90.39h-.38v-.65h.38c0-.43,0-.81.21-1S35.58,88.49,36.08,88.49Z" id="el_lRVlCFDTkU0"/></g><path d="M52.63,103.92a.34.34,0,0,1-.34.34h-21a.34.34,0,0,1-.34-.34V97.37a.35.35,0,0,1,.34-.35h21a.35.35,0,0,1,.34.35Z" id="el_9x3jEDIuZmZ"/><path d="M41.75,99.66H42v1.23c0,.5-.24.63-.56.63a.55.55,0,0,1-.26,0l0-.19a.54.54,0,0,0,.2,0c.21,0,.34-.11.34-.46v-1.2Z" id="el_hI9s0BQhxTq"/><path d="M43.58,100.82a.64.64,0,0,1-.66.7.63.63,0,0,1-.64-.68.64.64,0,0,1,.65-.7A.62.62,0,0,1,43.58,100.82Zm-1.06,0c0,.29.17.51.41.51a.46.46,0,0,0,.41-.51c0-.22-.12-.51-.39-.51S42.52,100.58,42.52,100.84Z" id="el_9dQsgamJe2o"/><path d="M44.15,99.8A.14.14,0,0,1,44,100a.14.14,0,0,1-.13-.15.16.16,0,0,1,.15-.16A.14.14,0,0,1,44.15,99.8Zm-.28,1.69v-1.32h.24v1.32Z" id="el_lqeuWLxzc0l"/><path d="M44.52,100.53c0-.14,0-.26,0-.36h.2l0,.22h0a.51.51,0,0,1,.44-.25c.19,0,.47.1.47.56v.79H45.4v-.77c0-.21-.09-.39-.31-.39a.41.41,0,0,0-.33.23.45.45,0,0,0,0,.12v.81h-.24v-1Z" id="el_-g0q-dDQgRN"/><path d="M37.2,101.66a6.41,6.41,0,0,0-.8-.34.43.43,0,0,1-.22-.4.42.42,0,0,1,.08-.18,1.17,1.17,0,0,0,.21-.74.66.66,0,1,0-1.3,0,1.17,1.17,0,0,0,.2.74.24.24,0,0,1,.09.18.53.53,0,0,1-.22.4,6,6,0,0,0-.81.34.55.55,0,0,0-.12.34h3A.55.55,0,0,0,37.2,101.66Z" id="el_kY2CgUgxlsZ"/><path d="M77.26,103.92a.34.34,0,0,1-.34.34h-21a.34.34,0,0,1-.34-.34V97.37a.35.35,0,0,1,.34-.35h21a.35.35,0,0,1,.34.35Z" id="el_b4o46nO6NcE"/><path d="M64.26,101.2a.81.81,0,0,0,.43.12c.24,0,.39-.14.39-.31s-.1-.27-.34-.36-.48-.26-.48-.53a.53.53,0,0,1,.6-.5,1.08,1.08,0,0,1,.41.09l-.07.19a.63.63,0,0,0-.34-.09c-.25,0-.34.16-.34.28s.12.25.36.36.48.27.48.54-.21.53-.65.53a1,1,0,0,1-.48-.12Z" id="el_W4Oag_ZiVWq"/><path d="M65.91,99.8a.15.15,0,0,1-.16.15.15.15,0,0,1-.14-.15.16.16,0,0,1,.16-.16A.16.16,0,0,1,65.91,99.8Zm-.28,1.69v-1.32h.24v1.32Z" id="el_1l83W2P6GYz"/><path d="M67.41,100.17c0,.1,0,.21,0,.36v.77a.75.75,0,0,1-.18.6.71.71,0,0,1-.48.15.88.88,0,0,1-.45-.1l.07-.19a.79.79,0,0,0,.39.1.4.4,0,0,0,.43-.46v-.15h0a.48.48,0,0,1-.43.22.59.59,0,0,1-.56-.65.64.64,0,0,1,.6-.7.45.45,0,0,1,.41.22h0l0-.2h.2Zm-.24.53a.18.18,0,0,0,0-.1.35.35,0,0,0-.34-.26c-.22,0-.39.19-.39.5s.14.48.39.48a.35.35,0,0,0,.34-.24.32.32,0,0,0,0-.14Z" id="el_2FiDqaocwC1"/><path d="M67.79,100.53a1.94,1.94,0,0,0,0-.36H68v.22h0a.51.51,0,0,1,.45-.25c.19,0,.46.1.46.56v.79h-.24v-.77c0-.21-.09-.39-.31-.39a.38.38,0,0,0-.32.23.23.23,0,0,0,0,.12v.81h-.24v-1Z" id="el_x1sGBqB27sc"/><path d="M70.15,99.8A.14.14,0,0,1,70,100a.14.14,0,0,1-.13-.15.16.16,0,0,1,.15-.16A.14.14,0,0,1,70.15,99.8Zm-.26,1.69v-1.32h.24v1.32Z" id="el_b7eOE28l5he"/><path d="M70.52,100.53c0-.14,0-.26,0-.36h.2l0,.22h0a.51.51,0,0,1,.44-.25c.19,0,.47.1.47.56v.79H71.4v-.77c0-.21-.09-.39-.31-.39a.38.38,0,0,0-.33.23.45.45,0,0,0,0,.12v.81h-.24v-1Z" id="el_XzggFAAOn0r"/><path d="M60.84,100.53h-.13v-.43a.76.76,0,0,0-.23-.54.74.74,0,0,0-.54-.24.72.72,0,0,0-.55.24.76.76,0,0,0-.22.54v.43H59a.11.11,0,0,0-.1.1v1.13a.12.12,0,0,0,.1.1,2.72,2.72,0,0,0,.89.16,2.65,2.65,0,0,0,.89-.16.12.12,0,0,0,.1-.1v-1.13C61,100.56,60.89,100.53,60.84,100.53Zm-1.3,0v-.43a.41.41,0,0,1,.12-.3.33.33,0,0,1,.28-.12.4.4,0,0,1,.27.12.45.45,0,0,1,.12.3v.43h-.79Z" id="el_r6Xe05h2F1d"/><rect x="13.23" y="37.71" width="28.1" height="3.62" id="el_-wnS-SBB1Bd"/><rect x="12.23" y="44.15" width="30.11" height="1.81" id="el_pECaZG-M8ev"/><rect x="11.07" y="47.82" width="32.44" height="1.81" id="el_l0YOOLeTZkp"/><rect x="12.23" y="51.49" width="30.11" height="1.81" id="el_vf-kETgb24M"/></g><g id="el_xushIA3O4JA" data-name="Step 2"><rect x="0.19" y="0.41" width="54.73" height="97.15" id="el_uF0qS8mmanr"/><circle cx="27.56" cy="22.19" r="12.83" id="el_zBMHpqZzdt7"/><path d="M77.45,94.07a.34.34,0,0,1-.34.34H31.44a.34.34,0,0,1-.34-.34V87.52a.34.34,0,0,1,.34-.34H77.11a.34.34,0,0,1,.34.34Z" id="el_TPQJj-c7SPr"/><path d="M43.24,91.35a.81.81,0,0,0,.43.12c.24,0,.4-.14.4-.31s-.11-.27-.35-.36-.48-.25-.48-.53.24-.49.6-.49a1.12,1.12,0,0,1,.41.08l-.06.19a.83.83,0,0,0-.35-.09c-.25,0-.34.16-.34.28s.12.25.36.36.48.27.48.54-.21.53-.65.53a1,1,0,0,1-.48-.12Z" id="el_utrPW1r6Ohp"/><path d="M44.89,90a.14.14,0,0,1-.16.15A.14.14,0,0,1,44.6,90a.15.15,0,0,1,.15-.16A.16.16,0,0,1,44.89,90Zm-.28,1.69V90.32h.24v1.32Z" id="el_wYbUrCXN-yI"/><path d="M46.39,90.32c0,.11,0,.21,0,.36v.77a.75.75,0,0,1-.19.6.71.71,0,0,1-.48.15.91.91,0,0,1-.45-.1l.07-.19a.71.71,0,0,0,.4.11c.23,0,.42-.14.42-.47V91.4h0a.48.48,0,0,1-.42.22.59.59,0,0,1-.57-.65.64.64,0,0,1,.6-.7.45.45,0,0,1,.41.22h0l0-.2h.2Zm-.24.53a.38.38,0,0,0,0-.1.37.37,0,0,0-.35-.26c-.22,0-.39.19-.39.5s.14.48.39.48a.38.38,0,0,0,.35-.24.57.57,0,0,0,0-.14Z" id="el_puuOlD4DeNd"/><path d="M46.77,90.68a2.06,2.06,0,0,0,0-.36H47v.23h0a.53.53,0,0,1,.45-.26c.19,0,.46.1.46.56v.79h-.24v-.77c0-.2-.08-.39-.31-.39a.37.37,0,0,0-.32.24.22.22,0,0,0,0,.12v.8h-.24v-1Z" id="el_C7GSNA70Mqx"/><path d="M49.13,90a.14.14,0,0,1-.16.15.14.14,0,0,1-.13-.15.16.16,0,0,1,.15-.16A.14.14,0,0,1,49.13,90Zm-.26,1.69V90.32h.24v1.32Z" id="el_CIfJRsPV4Wk"/><path d="M49.51,90.68a2.06,2.06,0,0,0,0-.36h.2l0,.23h0a.52.52,0,0,1,.45-.26c.18,0,.46.1.46.56v.79h-.24v-.77c0-.2-.09-.39-.31-.39a.4.4,0,0,0-.33.24.41.41,0,0,0,0,.12v.8h-.24v-1Z" id="el_KwG68BVkcS0"/><path d="M51.71,90.32l.17.67c0,.15.07.29.11.43h0a1.93,1.93,0,0,1,.12-.41l.22-.69h.2l.21.67c0,.15.08.29.12.43h0A1.78,1.78,0,0,1,53,91l.19-.67h.24L53,91.64h-.22L52.53,91c-.05-.16-.08-.28-.12-.43h0a3.6,3.6,0,0,1-.12.44l-.2.64h-.22l-.4-1.32h.24Z" id="el_ISfTgb56OaO"/><path d="M53.88,90a.14.14,0,0,1-.15.15.14.14,0,0,1-.14-.15.16.16,0,0,1,.16-.16C53.83,89.79,53.88,89.86,53.88,90Zm-.25,1.69V90.32h.24v1.32Z" id="el_ijB3M0GnRIP"/><path d="M54.55,90v.37h.34v.19h-.34v.72c0,.17.05.26.19.26a.28.28,0,0,0,.14,0v.19a.94.94,0,0,1-.2,0,.3.3,0,0,1-.26-.1.48.48,0,0,1-.08-.34v-.72h-.21v-.21h.21V90Z" id="el_z4HAgOSI5jj"/><path d="M55.17,89.71h.24v.82h0a.35.35,0,0,1,.17-.17.48.48,0,0,1,.24-.07c.17,0,.46.1.46.56v.79H56v-.75c0-.21-.09-.4-.31-.4a.36.36,0,0,0-.32.24.23.23,0,0,0,0,.12v.81h-.24v-2Z" id="el_BowsoWLtWsm"/><path d="M57.27,89.81h1V90h-.75v.61h.7v.21h-.7v.83h-.24V89.81Z" id="el_PcT_W9ZR59Z"/><path d="M59.2,91.64v-.17h0a.52.52,0,0,1-.41.2.37.37,0,0,1-.41-.37c0-.33.29-.5.8-.5v0a.28.28,0,0,0-.31-.31.55.55,0,0,0-.34.1l-.05-.15a.81.81,0,0,1,.43-.12c.41,0,.49.27.49.55v.49a1.77,1.77,0,0,0,0,.33H59.2Zm0-.67c-.26,0-.57,0-.57.29a.21.21,0,0,0,.23.23.34.34,0,0,0,.32-.23s0-.05,0-.06Z" id="el_J8BA76CWG38"/><path d="M60.74,91.61a1,1,0,0,1-.37.06A.64.64,0,0,1,59.7,91a.67.67,0,0,1,.72-.7.78.78,0,0,1,.34.07l0,.19a.48.48,0,0,0-.27-.07A.45.45,0,0,0,60,91a.47.47,0,0,0,.47.5.56.56,0,0,0,.29-.07Z" id="el_f1guZxhNA9U"/><path d="M61.14,91a.42.42,0,0,0,.46.47,1,1,0,0,0,.36-.07l0,.17a1.17,1.17,0,0,1-.44.08A.61.61,0,0,1,60.9,91a.65.65,0,0,1,.61-.72.56.56,0,0,1,.55.61V91Zm.71-.17a.34.34,0,0,0-.34-.39c-.24,0-.34.22-.37.39Z" id="el_3TM16AC5icT"/><path d="M62.37,91.64c0-.09,0-.22,0-.34V89.69h.24v.84h0a.47.47,0,0,1,.45-.24c.32,0,.56.27.56.68a.61.61,0,0,1-.6.7.45.45,0,0,1-.44-.25h0l0,.22Zm.24-.53a.25.25,0,0,0,0,.09.37.37,0,0,0,.36.27c.26,0,.41-.21.41-.51s-.13-.5-.39-.5a.37.37,0,0,0-.36.29s0,.07,0,.1v.26Z" id="el__g_tl7CqokL"/><path d="M65.14,91a.64.64,0,0,1-.67.7.62.62,0,0,1-.63-.68.64.64,0,0,1,.65-.7A.63.63,0,0,1,65.14,91Zm-1.06,0c0,.29.17.51.41.51A.47.47,0,0,0,64.9,91c0-.22-.12-.51-.39-.51S64.08,90.73,64.08,91Z" id="el_5SEjzhfMcgW"/><path d="M66.64,91a.64.64,0,0,1-.66.7.63.63,0,0,1-.64-.68.64.64,0,0,1,.65-.7A.63.63,0,0,1,66.64,91Zm-1.06,0c0,.29.17.51.41.51A.46.46,0,0,0,66.4,91c0-.22-.12-.51-.39-.51S65.58,90.73,65.58,91Z" id="el_pZ9wuEPWhXK"/><path d="M67.17,90.92h0a1.58,1.58,0,0,0,.12-.15l.4-.46H68l-.51.54.58.79h-.29L67.29,91l-.12.13v.5h-.24v-2h.24Z" id="el__wQqylON3Au"/><g id="el_QPf_xulcmkC" data-name="vosoYi"><path d="M36.27,88.9v.65s-.48,0-.55.09a1.74,1.74,0,0,0,0,.51h.6c0,.22,0,.45-.07.65h-.52v1.88h-.8V90.8H34.5v-.65h.38c0-.43,0-.8.21-1S35.77,88.9,36.27,88.9Z" id="el_sP9BQ4qZDsm"/></g><path d="M52.82,104.33a.34.34,0,0,1-.34.34h-21a.34.34,0,0,1-.34-.34V97.78a.34.34,0,0,1,.34-.34h21a.34.34,0,0,1,.34.34Z" id="el_9J8Hs-nU7Yg"/><path d="M41.94,100.07h.24v1.23c0,.5-.24.64-.56.64a.71.71,0,0,1-.26,0l0-.19a.56.56,0,0,0,.2,0c.21,0,.34-.1.34-.46v-1.2Z" id="el_Lk7jQKVD4mQ"/><path d="M43.78,101.24a.65.65,0,0,1-.67.7.63.63,0,0,1-.63-.69.64.64,0,0,1,.65-.7A.64.64,0,0,1,43.78,101.24Zm-1.07,0a.47.47,0,0,0,.42.52.48.48,0,0,0,.41-.52c0-.22-.12-.51-.4-.51S42.71,101,42.71,101.25Z" id="el_obZQvVQvp4v"/><path d="M44.34,100.21a.14.14,0,0,1-.15.15.13.13,0,0,1-.14-.15.15.15,0,0,1,.15-.15A.13.13,0,0,1,44.34,100.21Zm-.27,1.69v-1.31h.24v1.31Z" id="el_83D5SRHXYZh"/><path d="M44.72,101a1.94,1.94,0,0,0,0-.36h.2l0,.22h0a.52.52,0,0,1,.45-.26c.18,0,.46.1.46.57v.78h-.24v-.77c0-.2-.09-.39-.31-.39A.37.37,0,0,0,45,101a.22.22,0,0,0,0,.12v.8H44.7v-1Z" id="el_lv38uivzJk4"/><path d="M37.4,102.07a6.61,6.61,0,0,0-.81-.34.43.43,0,0,1-.22-.39.41.41,0,0,1,.08-.19,1.13,1.13,0,0,0,.21-.73.66.66,0,1,0-1.3,0,1.2,1.2,0,0,0,.2.73.25.25,0,0,1,.09.19.49.49,0,0,1-.22.39,6.61,6.61,0,0,0-.81.34.57.57,0,0,0-.12.35h3A.61.61,0,0,0,37.4,102.07Z" id="el_r1oFc0-u1EB"/><path d="M77.45,104.33a.34.34,0,0,1-.34.34h-21a.34.34,0,0,1-.34-.34V97.78a.34.34,0,0,1,.34-.34h21a.34.34,0,0,1,.34.34Z" id="el_OrzCftMh6Oe"/><path d="M64.45,101.61a.81.81,0,0,0,.43.12c.24,0,.4-.13.4-.31s-.11-.27-.35-.35-.48-.26-.48-.54.24-.49.6-.49a1.12,1.12,0,0,1,.41.08l-.06.19a.86.86,0,0,0-.35-.08c-.25,0-.34.15-.34.27s.12.26.36.36.48.27.48.55-.21.53-.65.53a1,1,0,0,1-.48-.12Z" id="el_Df6FRj4MvZ6"/><path d="M66.1,100.21a.14.14,0,0,1-.16.15.13.13,0,0,1-.13-.15.14.14,0,0,1,.15-.15A.15.15,0,0,1,66.1,100.21Zm-.28,1.69v-1.31h.24v1.31Z" id="el_LNQI3SlDgd7"/><path d="M67.6,100.59c0,.1,0,.2,0,.36v.77a.74.74,0,0,1-.18.59.71.71,0,0,1-.48.16,1,1,0,0,1-.45-.1l.07-.19a.79.79,0,0,0,.39.1.41.41,0,0,0,.43-.46v-.16h0a.49.49,0,0,1-.43.23.6.6,0,0,1-.56-.65.64.64,0,0,1,.6-.71.44.44,0,0,1,.41.23h0l0-.21h.2Zm-.24.53a.41.41,0,0,0,0-.11.37.37,0,0,0-.35-.25c-.22,0-.39.19-.39.49s.14.48.39.48a.36.36,0,0,0,.35-.24.49.49,0,0,0,0-.13Z" id="el_4SiwocgxHk7"/><path d="M68,101a1.94,1.94,0,0,0,0-.36h.21v.22h0a.53.53,0,0,1,.45-.26c.19,0,.46.1.46.57v.78h-.24v-.77c0-.2-.09-.39-.31-.39a.37.37,0,0,0-.32.24.22.22,0,0,0,0,.12v.8H68v-1Z" id="el_fomSPZAdwNE"/><path d="M70.34,100.21a.14.14,0,0,1-.16.15.13.13,0,0,1-.13-.15.15.15,0,0,1,.15-.15A.13.13,0,0,1,70.34,100.21Zm-.26,1.69v-1.31h.24v1.31Z" id="el_zlEVNLck_O9"/><path d="M70.71,101c0-.14,0-.26,0-.36h.2l0,.22h0a.51.51,0,0,1,.44-.26c.19,0,.47.1.47.57v.78h-.24v-.77c0-.2-.09-.39-.31-.39A.4.4,0,0,0,71,101a.41.41,0,0,0,0,.12v.8H70.7v-1Z" id="el_7zd8tjYh6-R"/><path d="M61,101H60.9v-.43a.79.79,0,0,0-.23-.55.74.74,0,0,0-.54-.24.76.76,0,0,0-.55.24.78.78,0,0,0-.22.55V101h-.14a.11.11,0,0,0-.1.1v1.13s.05.08.1.1a2.91,2.91,0,0,0,.89.15,2.77,2.77,0,0,0,.89-.15s.1,0,.1-.1v-1.13C61.14,101,61.09,101,61,101Zm-1.3,0v-.43a.51.51,0,0,1,.12-.31.33.33,0,0,1,.28-.12.4.4,0,0,1,.27.12.5.5,0,0,1,.12.31V101h-.79Z" id="el_VGOgXb8-16N"/><rect x="13.37" y="38.18" width="28.1" height="3.62" id="el_LaJ-f_aZ6uF"/><rect x="12.37" y="44.62" width="30.11" height="1.81" id="el_d7Pg5q8joy8"/><rect x="11.34" y="48.29" width="32.44" height="1.81" id="el_YvD9VUeBHlN"/><rect x="12.37" y="51.97" width="30.11" height="1.81" id="el_oemVlAvoOUr"/><rect x="76.46" y="0.41" width="54.73" height="97.15" id="el_-qtU4n9UGWL"/><circle cx="103.68" cy="22.19" r="9.41" id="el_XLXlOHrMIFs"/><path d="M153.58,85.45a.34.34,0,0,1-.34.34H107.57a.35.35,0,0,1-.35-.34V78.9a.35.35,0,0,1,.35-.34h45.67a.34.34,0,0,1,.34.34Z" id="el_n6IoUZZHspU"/><path d="M127.22,81.17h.24v1.64h.79V83h-1Z" id="el_h7ZMS6jPMiL"/><path d="M129.67,82.35a.65.65,0,0,1-.67.7.62.62,0,0,1-.63-.68.64.64,0,0,1,.65-.7A.63.63,0,0,1,129.67,82.35Zm-1.06,0c0,.29.17.51.41.51a.47.47,0,0,0,.41-.51c0-.22-.12-.51-.4-.51S128.61,82.11,128.61,82.37Z" id="el_oAkaDPrWfBR"/><path d="M131.1,81.7c0,.11,0,.21,0,.36v.77a.75.75,0,0,1-.19.6.71.71,0,0,1-.48.15.91.91,0,0,1-.45-.1l.07-.19a.8.8,0,0,0,.4.11c.23,0,.42-.14.42-.47V82.8h0a.48.48,0,0,1-.42.22.59.59,0,0,1-.57-.65.64.64,0,0,1,.6-.7.45.45,0,0,1,.41.22h0l0-.2h.2Zm-.24.52a.41.41,0,0,0,0-.11.37.37,0,0,0-.35-.25c-.22,0-.39.18-.39.49s.14.48.39.48a.36.36,0,0,0,.35-.24.49.49,0,0,0,0-.13Z" id="el_mAYQAWaYnNa"/><path d="M131.75,81.33a.14.14,0,0,1-.15.15.14.14,0,0,1-.14-.15.16.16,0,0,1,.16-.16A.16.16,0,0,1,131.75,81.33ZM131.48,83V81.7h.24V83Z" id="el_qfBQD_aMSfA"/><path d="M132.11,82.06a2.06,2.06,0,0,0,0-.36h.21l0,.23h0a.51.51,0,0,1,.44-.26c.19,0,.46.1.46.56V83H133v-.77c0-.21-.08-.39-.3-.39a.37.37,0,0,0-.33.24.2.2,0,0,0,0,.12V83h-.24v-1Z" id="el_SrPNpbIj_21"/><path d="M153.58,73.48a.35.35,0,0,1-.34.34H107.57a.35.35,0,0,1-.35-.34v-14a.35.35,0,0,1,.35-.34h45.67a.34.34,0,0,1,.34.34Z" id="el_b1eX-Hao7Vr"/><rect x="80.51" y="47" width="46.35" height="0.8" id="el_3fh3RmMqVkK"/><rect x="88.78" y="79.75" width="30.11" height="1.81" id="el_daEFL5Wyzpv"/><rect x="94.75" y="86.75" width="18.17" height="1.81" id="el_QUqBPPtzNNl"/><circle cx="49.28" cy="82.94" r="2.92" id="el_tSw6fNtQajk"/><polygon points="67.57 83.74 49.28 83.74 49.28 82.13 65.96 82.13 65.96 43.75 78.34 43.75 78.34 45.36 67.57 45.36 67.57 83.74" id="el_DohaOrumjA5"/><circle cx="79.17" cy="44.76" r="2.92" id="el_NyH228yDwJq"/></g><g id="el_Ah9YcnXj9Ci" data-name="Step 3"><rect x="0.16" y="0.17" width="54.73" height="97.15" id="el_0KfHm1j6tOa"/><path d="M54.25,28.2a12.83,12.83,0,1,1,0,25.65" id="el_1rHzvLsn5-R"/><path d="M77.43,93.83a.34.34,0,0,1-.34.34H31.42a.35.35,0,0,1-.35-.34V87.28a.35.35,0,0,1,.35-.34H77.09a.34.34,0,0,1,.34.34Z" id="el_o91vA4877T7"/><path d="M43.22,91.11a.78.78,0,0,0,.43.12c.24,0,.39-.14.39-.31s-.1-.27-.34-.36-.48-.26-.48-.53.24-.49.6-.49a1.17,1.17,0,0,1,.41.08l-.07.19a.69.69,0,0,0-.34-.09c-.26,0-.34.16-.34.28s.11.25.35.36.48.27.48.54-.2.53-.65.53a1,1,0,0,1-.48-.12Z" id="el_LyXO4Ey-H1A"/><path d="M44.86,89.71a.14.14,0,0,1-.15.15.14.14,0,0,1-.14-.15.15.15,0,1,1,.29,0Zm-.27,1.69V90.08h.24V91.4Z" id="el_h3wUnx_SAjh"/><path d="M46.37,90.08c0,.11,0,.21,0,.36v.77a.75.75,0,0,1-.19.6.71.71,0,0,1-.48.15.87.87,0,0,1-.44-.1l.07-.19a.75.75,0,0,0,.39.11.41.41,0,0,0,.43-.47v-.15h0a.5.5,0,0,1-.43.22.59.59,0,0,1-.57-.65.64.64,0,0,1,.6-.7.44.44,0,0,1,.41.22h0l0-.2h.21Zm-.24.53a.18.18,0,0,0,0-.1.35.35,0,0,0-.34-.26c-.23,0-.4.19-.4.5s.14.48.4.48a.37.37,0,0,0,.34-.24.32.32,0,0,0,0-.14Z" id="el_sny5H36n9L7"/><path d="M46.74,90.44c0-.14,0-.25,0-.36h.2l0,.22h0a.53.53,0,0,1,.44-.25c.19,0,.46.1.46.56v.79h-.24v-.77c0-.21-.08-.39-.3-.39a.37.37,0,0,0-.33.24.2.2,0,0,0,0,.12v.8h-.23v-1Z" id="el_lF5QtCCaqAC"/><path d="M49.1,89.71a.14.14,0,0,1-.15.15.14.14,0,0,1-.14-.15.16.16,0,0,1,.16-.16C49.05,89.55,49.1,89.62,49.1,89.71Zm-.25,1.69V90.08h.24V91.4Z" id="el_D0jN_wa-EFb"/><path d="M49.48,90.44a2,2,0,0,0,0-.36h.21v.22h0a.55.55,0,0,1,.45-.25c.19,0,.46.1.46.56v.79h-.24v-.77c0-.21-.08-.39-.31-.39a.37.37,0,0,0-.32.24.2.2,0,0,0,0,.12v.8h-.24v-1Z" id="el_vNBKNJHFRnN"/><path d="M51.69,90.08l.17.67c0,.15.06.29.1.43h0a2.77,2.77,0,0,1,.12-.41l.22-.69h.21l.2.67a4,4,0,0,1,.12.43h0a2.41,2.41,0,0,1,.1-.43l.19-.67h.24l-.43,1.32h-.22l-.2-.63a4,4,0,0,1-.12-.43h0c0,.15-.07.29-.12.44l-.21.64h-.22l-.39-1.32h.24Z" id="el_IWr1ZLr6-P4"/><path d="M53.86,89.71a.14.14,0,0,1-.16.15.14.14,0,0,1-.13-.15.16.16,0,0,1,.15-.16A.14.14,0,0,1,53.86,89.71ZM53.6,91.4V90.08h.24V91.4Z" id="el_sE54duDoNK7"/><path d="M54.52,89.71v.37h.35v.19h-.35V91c0,.17.06.26.19.26a.26.26,0,0,0,.14,0l0,.19a1,1,0,0,1-.21,0,.28.28,0,0,1-.25-.1.48.48,0,0,1-.09-.34v-.72h-.21v-.21h.21v-.32Z" id="el_U_j7To6VLM-"/><path d="M55.14,89.47h.24v.82h0a.35.35,0,0,1,.17-.17.51.51,0,0,1,.24-.07c.17,0,.46.1.46.56v.79H56v-.75c0-.21-.08-.4-.3-.4a.36.36,0,0,0-.33.24.23.23,0,0,0,0,.12v.81h-.24v-2Z" id="el_h9fsls6jn-X"/><path d="M57.24,89.57h1v.2h-.76v.62h.71v.21h-.71v.83h-.24V89.57Z" id="el_FuUuMCqzLk4"/><path d="M59.18,91.4l0-.17h0a.51.51,0,0,1-.41.2.37.37,0,0,1-.41-.37c0-.33.29-.5.8-.5v0a.27.27,0,0,0-.3-.31.6.6,0,0,0-.35.1l-.05-.15a.83.83,0,0,1,.43-.12c.41,0,.5.27.5.55v.49c0,.12,0,.22,0,.33h-.2Zm0-.67c-.25,0-.56,0-.56.29a.21.21,0,0,0,.22.23.36.36,0,0,0,.33-.23s0,0,0-.07Z" id="el_oHWgx6EL1o6"/><path d="M60.72,91.37a1.06,1.06,0,0,1-.38.06.64.64,0,0,1-.67-.68.67.67,0,0,1,.72-.7.72.72,0,0,1,.34.07l0,.18a.57.57,0,0,0-.27-.06.44.44,0,0,0-.46.49.46.46,0,0,0,.46.5.64.64,0,0,0,.29-.07Z" id="el_gKdVxp1q4Vz"/><path d="M61.11,90.78a.43.43,0,0,0,.46.47.94.94,0,0,0,.36-.07l0,.17a1.29,1.29,0,0,1-.45.08.61.61,0,0,1-.65-.66.65.65,0,0,1,.62-.72.55.55,0,0,1,.54.61v.12Zm.72-.17a.35.35,0,0,0-.34-.39.42.42,0,0,0-.38.39Z" id="el_fqyN9Gxu9Yc"/><path d="M62.34,91.4c0-.09,0-.22,0-.34V89.45h.24v.84h0a.46.46,0,0,1,.44-.24.6.6,0,0,1,.57.68.61.61,0,0,1-.6.7.47.47,0,0,1-.45-.25h0v.22Zm.24-.53s0,.07,0,.08a.36.36,0,0,0,.36.28c.25,0,.41-.21.41-.51s-.14-.5-.4-.5a.35.35,0,0,0-.35.29s0,.07,0,.1v.26Z" id="el_pCKZwszXqBI"/><path d="M65.11,90.73a.64.64,0,0,1-.66.7.63.63,0,0,1-.64-.68.64.64,0,0,1,.65-.7A.62.62,0,0,1,65.11,90.73Zm-1.06,0c0,.29.17.51.41.51a.46.46,0,0,0,.41-.51c0-.22-.12-.51-.39-.51S64.05,90.49,64.05,90.75Z" id="el_jptd79yjwD1"/><path d="M66.62,90.73a.64.64,0,0,1-.67.7.62.62,0,0,1-.63-.68.65.65,0,1,1,1.3,0Zm-1.06,0c0,.29.17.51.41.51a.47.47,0,0,0,.41-.51c0-.22-.12-.51-.4-.51S65.56,90.49,65.56,90.75Z" id="el_RwDFQn3TeMT"/><path d="M67.15,90.68h0a1.58,1.58,0,0,1,.12-.15l.39-.46H68l-.51.54.58.79h-.29l-.46-.63-.12.13v.5h-.24v-2h.24Z" id="el_cX7xisxRlW8"/><g id="el_AobA--0NgOk" data-name="vosoYi"><path d="M36.24,88.66v.65s-.48,0-.55.09a2.17,2.17,0,0,0,0,.51h.6a6.47,6.47,0,0,1-.07.65h-.51v1.88h-.81V90.56h-.37v-.65h.37c0-.43,0-.8.21-1A1.74,1.74,0,0,1,36.24,88.66Z" id="el_VkuMJHqTPD2"/></g><path d="M52.8,104.09a.34.34,0,0,1-.34.34h-21a.35.35,0,0,1-.35-.34V97.54a.35.35,0,0,1,.35-.34h21a.34.34,0,0,1,.34.34Z" id="el_e88zNLYKc-5"/><path d="M41.92,99.83h.24v1.23c0,.5-.24.64-.57.64a.7.7,0,0,1-.25,0l0-.19a1,1,0,0,0,.21,0c.2,0,.34-.1.34-.46v-1.2Z" id="el_Wy7RROMA61I"/><path d="M43.75,101a.65.65,0,0,1-.67.7.63.63,0,0,1-.63-.69.64.64,0,0,1,.65-.7A.63.63,0,0,1,43.75,101Zm-1.06,0c0,.29.17.52.41.52a.48.48,0,0,0,.41-.52c0-.22-.12-.51-.39-.51S42.69,100.76,42.69,101Z" id="el_0DCHxv1K3z1"/><path d="M44.31,100a.14.14,0,0,1-.15.15A.14.14,0,0,1,44,100a.15.15,0,0,1,.16-.15A.13.13,0,0,1,44.31,100ZM44,101.66v-1.31h.24v1.31Z" id="el_oemV-qkCcLn"/><path d="M44.69,100.7a1.89,1.89,0,0,0,0-.35h.21v.22h0a.53.53,0,0,1,.45-.26c.19,0,.46.1.46.57v.78h-.24v-.77c0-.2-.08-.39-.31-.39a.37.37,0,0,0-.32.24.22.22,0,0,0,0,.12v.8h-.24v-1Z" id="el_ADJ9v7a9sC0"/><path d="M37.37,101.83a6,6,0,0,0-.81-.34.43.43,0,0,1-.22-.39.34.34,0,0,1,.09-.19,1.15,1.15,0,0,0,.2-.74.65.65,0,1,0-1.3,0,1.14,1.14,0,0,0,.21.74.27.27,0,0,1,.08.19.48.48,0,0,1-.22.39,6.41,6.41,0,0,0-.8.34.57.57,0,0,0-.12.35h3A.57.57,0,0,0,37.37,101.83Z" id="el_szF57old_NU"/><g id="el_99m58wjB4ct"><path d="M77.43,104.09a.34.34,0,0,1-.34.34h-21a.34.34,0,0,1-.34-.34V97.54a.34.34,0,0,1,.34-.34h21a.34.34,0,0,1,.34.34Z" id="el_3ZLJxTLaGFV"/></g><path d="M64.43,101.37a.78.78,0,0,0,.43.12c.24,0,.39-.14.39-.31s-.1-.27-.34-.36-.48-.25-.48-.53.24-.49.6-.49a1.17,1.17,0,0,1,.41.08l-.07.19A.85.85,0,0,0,65,100c-.26,0-.34.15-.34.27s.11.26.35.36.48.27.48.55-.2.53-.65.53a1,1,0,0,1-.48-.12Z" id="el_xkrELV-WhVo"/><path d="M66.07,100a.14.14,0,0,1-.15.15.14.14,0,0,1-.14-.15.15.15,0,0,1,.15-.15A.15.15,0,0,1,66.07,100Zm-.27,1.69v-1.31H66v1.31Z" id="el_Px07dj0vMdN"/><path d="M67.58,100.35c0,.1,0,.2,0,.35v.77a.75.75,0,0,1-.19.6.71.71,0,0,1-.48.16.87.87,0,0,1-.44-.11l.07-.18a.76.76,0,0,0,.39.1.41.41,0,0,0,.43-.46v-.16h0a.5.5,0,0,1-.43.23.6.6,0,0,1-.57-.65.64.64,0,0,1,.6-.71.43.43,0,0,1,.41.23h0l0-.21h.21Zm-.24.53a.22.22,0,0,0,0-.11.35.35,0,0,0-.34-.25c-.23,0-.4.18-.4.49s.14.48.4.48a.36.36,0,0,0,.34-.24.28.28,0,0,0,0-.14Z" id="el_5YxIc-riSF4"/><path d="M68,100.7a1.89,1.89,0,0,0,0-.35h.21l0,.22h0a.51.51,0,0,1,.44-.26c.19,0,.46.1.46.57v.78h-.24v-.77c0-.2-.08-.39-.3-.39a.37.37,0,0,0-.33.24.22.22,0,0,0,0,.12v.8h-.24v-1Z" id="el_HsiD10guoHh"/><path d="M70.31,100a.14.14,0,0,1-.15.15A.14.14,0,0,1,70,100a.15.15,0,0,1,.16-.15A.13.13,0,0,1,70.31,100Zm-.25,1.69v-1.31h.24v1.31Z" id="el_P4FN3pzyCOQ"/><path d="M70.69,100.7a1.89,1.89,0,0,0,0-.35h.21v.22h0a.53.53,0,0,1,.45-.26c.19,0,.46.1.46.57v.78h-.24v-.77c0-.2-.08-.39-.31-.39a.37.37,0,0,0-.32.24.22.22,0,0,0,0,.12v.8h-.24v-1Z" id="el_OU49471d6fu"/><path d="M61,100.7h-.14v-.42a.76.76,0,0,0-1.32-.55.82.82,0,0,0-.22.55v.42h-.14a.12.12,0,0,0-.1.11v1.13s0,.08.1.1a3,3,0,0,0,.89.15A2.7,2.7,0,0,0,61,102c.05,0,.11-.05.11-.1v-1.13A.07.07,0,0,0,61,100.7Zm-1.3,0v-.42a.46.46,0,0,1,.12-.31.33.33,0,0,1,.27-.12.38.38,0,0,1,.27.12.48.48,0,0,1,.12.31v.42h-.78Z" id="el_OKN04jrWrm4"/><rect x="76.29" y="0.17" width="54.73" height="97.15" id="el_XQ-Ljj4eH4t"/><path d="M153.55,85.21a.34.34,0,0,1-.34.34H107.54a.34.34,0,0,1-.34-.34V78.66a.35.35,0,0,1,.34-.35h45.67a.35.35,0,0,1,.34.35Z" id="el_Tc4pTkephVM"/><path d="M127.19,80.93h.24v1.64h.79v.21h-1Z" id="el_EEAnnrO1i-1"/><path d="M129.64,82.11a.64.64,0,0,1-.67.7.62.62,0,0,1-.63-.68.64.64,0,0,1,.65-.7A.63.63,0,0,1,129.64,82.11Zm-1.06,0c0,.29.17.51.41.51a.47.47,0,0,0,.41-.51c0-.22-.12-.51-.39-.51S128.58,81.87,128.58,82.13Z" id="el_8G2OIIsNfQS"/><path d="M131.08,81.46c0,.1,0,.21,0,.36v.77a.75.75,0,0,1-.19.6.71.71,0,0,1-.48.15.87.87,0,0,1-.44-.1l.07-.19a.75.75,0,0,0,.39.11.41.41,0,0,0,.43-.47v-.13h0a.5.5,0,0,1-.43.22.59.59,0,0,1-.57-.65.64.64,0,0,1,.6-.7.44.44,0,0,1,.41.22h0l0-.21h.21Zm-.24.51a.2.2,0,0,0,0-.1.35.35,0,0,0-.34-.25c-.22,0-.4.18-.4.49s.14.48.4.48a.36.36,0,0,0,.34-.24.28.28,0,0,0,0-.14Z" id="el_kdKqM1AQMZz"/><path d="M131.73,81.09a.15.15,0,0,1-.16.15.14.14,0,0,1-.13-.15.15.15,0,0,1,.15-.16A.16.16,0,0,1,131.73,81.09Zm-.28,1.69V81.46h.24v1.32Z" id="el_72BRqM8gifI"/><path d="M132.09,81.82a1.94,1.94,0,0,0,0-.36h.2l0,.22h0a.51.51,0,0,1,.45-.25c.18,0,.46.1.46.56v.79H133V82c0-.21-.09-.39-.31-.39a.4.4,0,0,0-.33.24.34.34,0,0,0,0,.11v.81h-.24v-1Z" id="el_GKWCtuR8sN_"/><path d="M153.55,73.23a.35.35,0,0,1-.34.35H107.54a.35.35,0,0,1-.34-.35v-14a.34.34,0,0,1,.34-.34h45.67a.34.34,0,0,1,.34.34Z" id="el_pMKJ70TCMbL"/><path d="M110.86,61.55v1.1c0,.41.19.58.43.58s.44-.19.44-.58v-1.1H112v1.08c0,.56-.29.8-.7.8s-.67-.22-.67-.78v-1.1Z" id="el_9zB9fYPC7Ak"/><path d="M112.33,63.14a.61.61,0,0,0,.32.11c.18,0,.26-.09.26-.21s-.07-.17-.24-.24-.34-.22-.34-.38a.42.42,0,0,1,.46-.39.59.59,0,0,1,.33.09l-.07.17a.5.5,0,0,0-.28-.07.2.2,0,0,0-.22.19c0,.1.09.15.26.22s.34.2.34.39-.19.4-.5.4a.88.88,0,0,1-.37-.09Z" id="el_YkX-rNZC0y9"/><path d="M113.58,62.77a.42.42,0,0,0,.46.46,1,1,0,0,0,.36-.07l0,.17a1,1,0,0,1-.44.09.62.62,0,0,1-.65-.67A.65.65,0,0,1,114,62a.56.56,0,0,1,.55.62v.12Zm.7-.17a.35.35,0,0,0-.34-.4c-.24,0-.34.22-.38.4Z" id="el_sDLJeXTVaYS"/><path d="M114.83,62.48a2.49,2.49,0,0,0,0-.41h.2v.25h0a.42.42,0,0,1,.36-.29h.07v.22h-.09a.34.34,0,0,0-.32.31s0,.07,0,.12v.7h-.24v-.9Z" id="el_S6qQhze-Zyc"/><path d="M115.72,62.42a1.89,1.89,0,0,0,0-.35h.2l0,.22h0a.52.52,0,0,1,.45-.26c.18,0,.46.1.46.57v.78h-.24v-.77c0-.2-.09-.39-.31-.39a.37.37,0,0,0-.32.24.22.22,0,0,0,0,.12v.8h-.24v-1Z" id="el_YvD4I6SX6Zz"/><path d="M118,63.4v-.17h0a.52.52,0,0,1-.41.2.37.37,0,0,1-.41-.37c0-.33.29-.5.8-.5v0a.28.28,0,0,0-.31-.31.57.57,0,0,0-.34.1l-.05-.15a.81.81,0,0,1,.43-.12c.41,0,.49.27.49.55v.49a1.77,1.77,0,0,0,0,.33H118Zm0-.68c-.26,0-.56,0-.56.29a.2.2,0,0,0,.22.22.33.33,0,0,0,.32-.22.64.64,0,0,1,0-.07Z" id="el_dgpFY3BNuEg"/><path d="M118.56,62.42a1.89,1.89,0,0,0,0-.35h.2l0,.2h0a.47.47,0,0,1,.41-.24.37.37,0,0,1,.38.27h0a.4.4,0,0,1,.15-.17.47.47,0,0,1,.29-.08c.17,0,.43.12.43.58v.79h-.24v-.76c0-.25-.08-.41-.29-.41a.33.33,0,0,0-.29.23.2.2,0,0,0,0,.12v.82h-.24v-.79c0-.21-.08-.36-.27-.36a.3.3,0,0,0-.29.24.22.22,0,0,0,0,.12v.8h-.24v-1Z" id="el_-8BKdN7FU05"/><path d="M121,62.77a.43.43,0,0,0,.47.46,1,1,0,0,0,.36-.07l0,.17a1,1,0,0,1-.44.09.61.61,0,0,1-.65-.67.65.65,0,0,1,.61-.72.56.56,0,0,1,.55.62v.12Zm.71-.17a.36.36,0,0,0-.35-.4c-.24,0-.34.22-.37.4Z" id="el_RRgdGDho-pQ"/><path d="M110.84,69c.12,0,.28,0,.46,0a.75.75,0,0,1,.52.15.51.51,0,0,1,.15.4.55.55,0,0,1-.14.39.71.71,0,0,1-.56.2h-.19v.73h-.24Zm.24.89a.62.62,0,0,0,.21,0c.29,0,.46-.14.46-.39s-.17-.36-.43-.36h-.22v.72Z" id="el_alxnxsAMyIW"/><path d="M113,70.81v-.18h0a.51.51,0,0,1-.42.21.38.38,0,0,1-.41-.38c0-.32.3-.49.81-.49v0a.28.28,0,0,0-.31-.3.55.55,0,0,0-.34.1l0-.16a.9.9,0,0,1,.42-.12c.42,0,.5.28.5.55v.5a1.62,1.62,0,0,0,0,.32H113Zm0-.67c-.26,0-.57,0-.57.29a.21.21,0,0,0,.23.22.33.33,0,0,0,.32-.22s0-.05,0-.07Z" id="el_gzo-kfssJgq"/><path d="M113.51,70.57a.64.64,0,0,0,.32.1c.18,0,.26-.09.26-.21s-.07-.17-.24-.24-.34-.22-.34-.37a.42.42,0,0,1,.46-.4.59.59,0,0,1,.33.09l-.07.17a.6.6,0,0,0-.28-.07.2.2,0,0,0-.22.19c0,.1.09.15.26.22s.34.21.34.4-.19.39-.5.39a.75.75,0,0,1-.37-.09Z" id="el_W7KZiWUekEx"/><path d="M114.59,70.57a.61.61,0,0,0,.32.1c.17,0,.26-.09.26-.21s-.07-.17-.24-.24-.34-.22-.34-.37a.42.42,0,0,1,.46-.4.53.53,0,0,1,.32.09l-.06.17a.63.63,0,0,0-.28-.07.2.2,0,0,0-.22.19c0,.1.09.15.26.22s.34.21.34.4-.19.39-.5.39a.75.75,0,0,1-.37-.09Z" id="el_pWxhTyF8_26"/><path d="M115.8,69.49l.17.67c0,.15.07.29.11.42h0a2.34,2.34,0,0,1,.12-.41l.22-.68h.2l.21.67c0,.15.08.29.12.42h0a1.81,1.81,0,0,1,.1-.42l.19-.67h.24l-.43,1.32h-.22l-.21-.64c-.05-.15-.08-.27-.12-.42h0a3.6,3.6,0,0,1-.12.44l-.2.63H116l-.4-1.31h.24Z" id="el_h4-jkx9xEyK"/><path d="M118.9,70.14a.65.65,0,0,1-.67.7.62.62,0,0,1-.63-.68.65.65,0,0,1,.65-.71A.64.64,0,0,1,118.9,70.14Zm-1.06,0c0,.29.17.51.41.51a.47.47,0,0,0,.41-.51c0-.23-.12-.52-.4-.52S117.84,69.9,117.84,70.16Z" id="el_R2Ig5D3kXDm"/><path d="M119.21,69.9a2.62,2.62,0,0,0,0-.41h.2v.26h0a.42.42,0,0,1,.36-.3h.07v.23h-.09a.33.33,0,0,0-.32.3s0,.07,0,.12v.71h-.24V69.9Z" id="el_qsTy03lMPQR"/><path d="M121.21,68.87v1.61c0,.12,0,.26,0,.34H121l0-.22h0a.46.46,0,0,1-.44.26.6.6,0,0,1-.56-.67.64.64,0,0,1,.59-.72.42.42,0,0,1,.4.21h0v-.81ZM121,70a.16.16,0,0,0,0-.1.34.34,0,0,0-.34-.28c-.26,0-.4.22-.4.52s.14.49.4.49a.38.38,0,0,0,.36-.29s0-.07,0-.1V70Z" id="el_5HqwXATnjox"/><rect x="80.48" y="46.96" width="46.35" height="0.4" id="el_DjTTqWedeqX"/><rect x="153.38" y="0.33" width="54.48" height="96.7" id="el_MdwXKCwuqWn"/><rect x="155.08" y="61.75" width="5.96" height="5.96" id="el_ZH3zIR5X6AG"/><path d="M232.87,99.23a.67.67,0,0,1-.68.68H194.26a.68.68,0,0,1-.68-.68V81.53a.68.68,0,0,1,.68-.68h37.93a.67.67,0,0,1,.68.68Z" id="el_MlX8SYJjPaJ"/><rect x="192.97" y="83.23" width="1.21" height="1.21" id="el_7hd9hPC8tBu"/><g id="el_P1P59R3L4_-"><rect x="155.08" y="84.24" width="5.96" height="5.96" id="el_Pskj7aiUcSu"/></g><path d="M232.87,113.7a.67.67,0,0,1-.68.68H194.26a.68.68,0,0,1-.68-.68V104a.69.69,0,0,1,.68-.68h37.93a.68.68,0,0,1,.68.68Z" id="el_Jw-gIVS5r17"/><rect x="192.97" y="105.71" width="1.21" height="1.21" id="el_hpSUo3jM26Y"/><rect x="153.38" y="82.14" width="54.48" height="0.8" id="el_gHUPqU4Rcz3"/><rect x="153.38" y="11.19" width="54.48" height="27.24" id="el_v6jQFZtxCfw"/><rect x="153.38" y="0.33" width="54.48" height="10.86" id="el_RqYJ2jiLsYy"/><path d="M185.24,20.84a.27.27,0,1,1-.27.27.27.27,0,0,1,.27-.27m0-.17a.44.44,0,1,0,.44.44.44.44,0,0,0-.44-.44Z" id="el_W6nlCQnOKS1"/><circle cx="157.33" cy="2.03" r="0.36" id="el_ZwFwgozFuBb"/><path d="M184.05,20.84a.27.27,0,1,1-.27.27.28.28,0,0,1,.27-.27m0-.17a.44.44,0,1,0,.44.44.44.44,0,0,0-.44-.44Z" id="el_LyVBsdZ6pYL"/><circle cx="156.15" cy="2.03" r="0.36" id="el_Rw5H3tkzmOu"/><path d="M182.87,20.84a.27.27,0,1,1-.27.27.27.27,0,0,1,.27-.27m0-.17a.44.44,0,1,0,.45.44.45.45,0,0,0-.45-.44Z" id="el_80GF1Nz0dcs"/><circle cx="154.95" cy="2.03" r="0.36" id="el_urh_f5K3rGG"/><path d="M181.67,20.84a.27.27,0,1,1-.28.27.3.3,0,0,1,.28-.27m0-.17a.44.44,0,1,0,.44.44.44.44,0,0,0-.44-.44Z" id="el_YdrK73TzyqO"/><path d="M186.43,20.84a.27.27,0,0,1,0,.54.27.27,0,0,1-.27-.27.3.3,0,0,1,.27-.27m0-.17a.44.44,0,1,0,.44.44.43.43,0,0,0-.44-.44Z" id="el_AftaoNouoGl"/><path d="M203.85,20.67h0l-.24.12,0-.14.29-.15H204v1.33h-.17Z" id="el_4iXoWlxkfzK"/><path d="M204.51,21.83v-.11l.14-.13c.34-.33.49-.5.49-.7a.23.23,0,0,0-.25-.26.48.48,0,0,0-.29.12l0-.12a.54.54,0,0,1,.37-.13.38.38,0,0,1,.41.39c0,.24-.17.44-.46.71l-.1.11h.59v.15h-.85Z" id="el_KyYrEQz4U4T"/><path d="M205.57,21a.13.13,0,0,1,.12-.14.13.13,0,0,1,.12.14.12.12,0,0,1-.12.12A.12.12,0,0,1,205.57,21Zm0,.71a.13.13,0,0,1,.12-.13.12.12,0,0,1,.12.13.12.12,0,0,1-.12.12C205.62,21.86,205.57,21.79,205.57,21.72Z" id="el_Odj7ZPRb7aX"/><path d="M206.54,21.83v-.36h-.62v-.12l.6-.85h.19v.82h.18v.13h-.18v.36h-.17Zm0-.5v-.64h0l-.11.2-.32.46h.43Z" id="el_6gyLU1HOpYT"/><path d="M207.81,20.65h-.51l-.05.34h.1a.54.54,0,0,1,.29.07.35.35,0,0,1,.19.34.46.46,0,0,1-.49.46.45.45,0,0,1-.33-.09l.05-.13a.73.73,0,0,0,.29.07.29.29,0,0,0,.31-.29c0-.17-.12-.29-.37-.29h-.19l.08-.62h.63v.13Z" id="el_kIrxt_zK15l"/><path d="M208.8,21.4l-.13.43h-.19l.46-1.38h.22l.48,1.38h-.19l-.16-.43Zm.44-.14-.13-.39a1.17,1.17,0,0,1-.07-.25h0l-.07.25-.13.39Z" id="el_Tu6Bu1_xfkH"/><path d="M211,21.23c0-.19,0-.43,0-.6h0c-.05.16-.1.34-.17.53l-.24.67h-.13l-.22-.67a5.09,5.09,0,0,1-.16-.53h0c0,.17,0,.41,0,.62l0,.59h-.17l.1-1.38h.22l.24.67c0,.17.1.32.13.46h0a4.27,4.27,0,0,1,.16-.46l.24-.67h.22l.08,1.38H211Z" id="el_xXr-jINTDXK"/><path d="M225.52,20.65H225l0,.34h.1a.59.59,0,0,1,.29.07.37.37,0,0,1,.19.34.47.47,0,0,1-.5.46.44.44,0,0,1-.32-.09l.05-.13a.64.64,0,0,0,.29.07.29.29,0,0,0,.31-.29c0-.17-.12-.29-.38-.29h-.19l.09-.62h.63v.13Z" id="el_8V0HnFrym6B"/><path d="M226.66,21.14c0,.46-.17.7-.46.7s-.44-.24-.44-.68.18-.7.46-.7S226.66,20.74,226.66,21.14Zm-.73,0c0,.34.1.54.27.54s.27-.22.27-.56-.08-.54-.27-.54S225.93,20.8,225.93,21.18Z" id="el_NL9_RgnBtBl"/><path d="M227.43,20.87c0,.27-.16.43-.33.43s-.3-.14-.3-.41.15-.41.32-.41S227.43,20.62,227.43,20.87Zm-.5,0c0,.17,0,.31.17.31s.17-.12.17-.31-.05-.29-.17-.29S226.93,20.72,226.93,20.89Zm.15,1,.79-1.38H228l-.79,1.38Zm1.2-.44c0,.27-.16.42-.33.42s-.3-.13-.3-.39.15-.41.32-.41S228.28,21.18,228.28,21.42Zm-.48,0c0,.17.07.31.17.31s.17-.12.17-.31,0-.29-.17-.29S227.8,21.26,227.8,21.43Z" id="el_1iJTsddFJbw"/><path d="M189,21.45l-.35.36-.36-.36a.53.53,0,0,1,.36-.13A.52.52,0,0,1,189,21.45Z" id="el_6eB-3CdOd19"/><path d="M189.36,21.11l-.19.19a.74.74,0,0,0-1,0l-.19-.19a1.07,1.07,0,0,1,.72-.29A1,1,0,0,1,189.36,21.11Z" id="el_z5y0j6Ykkco"/><path d="M189.7,20.77l-.19.19a1.22,1.22,0,0,0-1.73,0l-.19-.19a1.51,1.51,0,0,1,2.11,0Z" id="el_DYJEWoNQlGN"/><path d="M233,20.4a.16.16,0,0,1,.17.17v1.1a.16.16,0,0,1-.17.17h-3.32a.18.18,0,0,1-.17-.17v-1.1a.17.17,0,0,1,.17-.17H233m0-.09h-3.32a.26.26,0,0,0-.25.26v1.1a.26.26,0,0,0,.25.26H233a.26.26,0,0,0,.26-.26v-1.1a.26.26,0,0,0-.26-.26Z" id="el_f69P1fY7dcG"/><path d="M231.43,21.67a.09.09,0,0,1-.09.09h-1.62a.08.08,0,0,1-.08-.09v-1.1a.08.08,0,0,1,.08-.09h1.62a.09.09,0,0,1,.09.09Z" id="el_0KHaB_9J2_J"/><path d="M234.58,30.27" id="el_7FlamD18hB9"/><path d="M180.1,30.27" id="el_v0VUYAKZTW0"/><circle cx="164.45" cy="27.36" r="4.26" id="el_ODpLAeFO9kn"/><path d="M191.78,46.31v.39l.24.1c.08,0,.18.09.27.12s.19.08.29.12a2.21,2.21,0,0,1,.27.12l.24.1.17.07a.48.48,0,0,1,.22.15c.05.07.1.14.14.21a2.41,2.41,0,0,1,.08.25v.43h-5.12v-.43a1.21,1.21,0,0,1,.08-.25c0-.07.09-.14.14-.21a.44.44,0,0,1,.22-.15l.19-.07.25-.1a2.52,2.52,0,0,1,.29-.12l.31-.14.29-.12.24-.1v-.37a.64.64,0,0,1,0-.09.83.83,0,0,1,0-.12.69.69,0,0,0-.05-.13,1.66,1.66,0,0,1-.15-.41,2.52,2.52,0,0,1-.05-.48,1.82,1.82,0,0,1,.07-.56,2.25,2.25,0,0,1,.18-.38.57.57,0,0,1,.29-.2.86.86,0,0,1,.36-.07.77.77,0,0,1,.34.07,1.15,1.15,0,0,1,.29.2,1,1,0,0,1,.19.38,1.82,1.82,0,0,1,.07.56,2.52,2.52,0,0,1,0,.48,1.67,1.67,0,0,1-.16.41l-.05.15a.24.24,0,0,0,0,.12v.07" id="el_4fDpMT-S1aC"/><rect x="155.08" y="40.13" width="5.96" height="5.96" id="el_3AhdZduS02M"/><path d="M232.87,67.38a.67.67,0,0,1-.68.68H194.26a.68.68,0,0,1-.68-.68V59.89a.69.69,0,0,1,.68-.68h37.93a.68.68,0,0,1,.68.68Z" id="el_TBMHLEZ-21y"/><rect x="192.97" y="61.61" width="1.21" height="1.21" id="el_KXY8jiMdwhF"/><rect x="155.08" y="52.39" width="5.96" height="5.96" id="el_lAiXdVlCytS"/><path d="M232.87,76.74a.68.68,0,0,1-.68.69H194.26a.69.69,0,0,1-.68-.69V72.15a.68.68,0,0,1,.68-.68h37.93a.67.67,0,0,1,.68.68Z" id="el_xkEkbCeCTgM"/><rect x="192.97" y="73.87" width="1.21" height="1.21" id="el_AtCRBBeIwpB"/><rect x="153.38" y="50.28" width="54.48" height="0.8" id="el_C2ScPh1F68G"/><rect x="153.38" y="59.65" width="54.48" height="0.8" id="el_7KwvpK7tzQk"/><circle cx="164.45" cy="64.78" r="1.02" id="el_L8LzZRS0yGd"/><circle cx="164.45" cy="43.15" r="1.02" id="el_j7eBFC05ovC"/><circle cx="164.45" cy="55.42" r="1.02" id="el_QYLJnAN6sGu"/><path d="M54.25,53.85a12.83,12.83,0,1,1,0-25.65" id="el_Sp_tG4ffwc8"/><circle cx="103.75" cy="22.03" r="9.32" id="el_g-feREbGMcj"/><path d="M130.47,50.42a9.32,9.32,0,1,1,0-18.63" id="el_vZmliezfpc8"/><circle cx="158.06" cy="43.11" r="2.05" id="el_8MwQVIVR7Pe"/><circle cx="49.26" cy="82.7" r="2.92" id="el_X-G60aNf2gC"/><polygon points="67.55 83.5 49.26 83.5 49.26 81.89 65.94 81.89 65.94 43.51 78.32 43.51 78.32 45.12 67.55 45.12 67.55 83.5" id="el_0HtcRwakyOa"/><circle cx="79.14" cy="44.52" r="2.92" id="el_RJdTVPA50EA"/><circle cx="126.87" cy="63.05" r="2.92" id="el_UZQTGwKTcnZ"/><polygon points="141.75 63.81 124.87 63.69 124.88 62.08 140.14 62.19 140.14 45.49 151.96 45.36 151.98 46.97 141.75 47.09 141.75 63.81" id="el_Q1YiK09U-M-"/><circle cx="153.83" cy="45.69" r="2.92" id="el__5MaUcpww3a"/><circle cx="158.06" cy="55.42" r="2.05" id="el_lV8xnqsm33z"/><circle cx="158.06" cy="64.78" r="2.05" id="el_z_x6Rjc3n9r"/><rect x="155.08" y="84.26" width="5.96" height="5.96" id="el_WiBWztWxt4m"/><circle cx="158.06" cy="87.29" r="2.05" id="el_m6MseS3w4qP"/><circle cx="160.19" cy="90.22" r="3.4" id="el_Hp2hkk5v2Ud"/><path d="M185.17,109.63v-.69h1.38v-1.36h.7v1.36h1.38v.69h-1.38V111h-.7v-1.37Z" id="el_kwpZtcphdh8"/><rect x="13.48" y="38.21" width="28.1" height="3.62" id="el_cBQMCAZtXnq"/><rect x="12.48" y="44.64" width="30.11" height="1.81" id="el_oZzt4wlAfUT"/><rect x="11.31" y="48.32" width="32.44" height="1.81" id="el_9JMJPFM3nE5"/><rect x="12.48" y="51.99" width="30.11" height="1.81" id="el_CeyDcJWJdX8"/><rect x="166.06" y="7.11" width="30.11" height="1.81" id="el_1nfg7j-fVh2"/><rect x="171.06" y="25.11" width="16.14" height="1.81" id="el_fNQEmvlFcgO"/><rect x="171.06" y="28.73" width="19.16" height="1.19" id="el_jmlWBqRn-I_"/><rect x="88.65" y="78.7" width="30.11" height="1.81" id="el_WYTrGlX_Vns"/><rect x="94.62" y="85.7" width="18.17" height="1.81" id="el_Se9Sl3txSGX"/></g></svg>