<svg id="Layer_1" data-name="Layer 1" xmlns="http://www.w3.org/2000/svg" viewBox="0 0 1000 600"><defs><style>.cls-1{fill:#0095aa;}.cls-2{fill:#ef373f;}.cls-3{fill:#9baaab;}.cls-4{fill:#5ac7d2;}.cls-5,.cls-9{fill:#f68c31;}.cls-10,.cls-11,.cls-6,.cls-8{fill:#375659;}.cls-7{fill:#f36b39;}.cls-8{font-size:58px;font-family:Muli-Bold, Muli;font-weight:700;}.cls-9{opacity:0.7;}.cls-10{opacity:0.3;}.cls-11{opacity:0.5;}</style></defs><title>analytics</title><g id="bars"><path class="cls-1" d="M894.33,45.32H844.06A10.48,10.48,0,0,0,833.58,55.8V259a10.48,10.48,0,0,0,10.48,10.47h50.27A10.48,10.48,0,0,0,904.81,259V55.8A10.48,10.48,0,0,0,894.33,45.32Z"/><path class="cls-2" d="M798,98.65H747.73a10.48,10.48,0,0,0-10.47,10.48V262a10.48,10.48,0,0,0,10.47,10.48H798A10.48,10.48,0,0,0,808.48,262V109.13A10.48,10.48,0,0,0,798,98.65Z"/><path class="cls-3" d="M497.45,115.9H447.18a10.47,10.47,0,0,0-10.47,10.47V266a10.48,10.48,0,0,0,10.47,10.48h50.27A10.48,10.48,0,0,0,507.93,266V126.37A10.47,10.47,0,0,0,497.45,115.9Z"/><path class="cls-4" d="M598,132.65H547.73a10.48,10.48,0,0,0-10.47,10.48V266a10.48,10.48,0,0,0,10.47,10.48H598A10.48,10.48,0,0,0,608.48,266V143.13A10.48,10.48,0,0,0,598,132.65Z"/><path class="cls-5" d="M698.56,82.38H648.28a10.47,10.47,0,0,0-10.47,10.47V266a10.47,10.47,0,0,0,10.47,10.48h50.28A10.48,10.48,0,0,0,709,266V92.85A10.47,10.47,0,0,0,698.56,82.38Z"/></g><path class="cls-6" d="M933.9,279.5H407.84c-5.79,0-10.48-3.8-10.48-8.48s4.69-8.47,10.48-8.47H933.9c5.79,0,10.47,3.79,10.47,8.47S939.69,279.5,933.9,279.5Z"/><g id="pieChart"><path class="cls-1" d="M188.78,179.35a5.91,5.91,0,0,1-1.29-3.53V42.32a133.73,133.73,0,1,0,79.76,245.16L188.72,179.41Z"/><path class="cls-4" d="M199.35,42.86V167.79L317,125.45A133.84,133.84,0,0,0,199.35,42.86Z"/><path class="cls-7" d="M319.63,135.12,201.44,177.67l73.81,101.49a133.88,133.88,0,0,0,44.38-144Z"/></g><g id="users"><path class="cls-1" d="M254.08,413.52a24.79,24.79,0,1,0-24.79-24.79A24.82,24.82,0,0,0,254.08,413.52Z"/><path class="cls-1" d="M255.17,414.54a30.58,30.58,0,0,0-30.55,30.55v.09l.31,14.47a4.08,4.08,0,0,0,4.08,4h52.62a4.09,4.09,0,0,0,4.09-4.08V445.09A30.59,30.59,0,0,0,255.17,414.54Z"/><path class="cls-1" d="M184.3,413.52a24.79,24.79,0,1,0-24.8-24.79A24.82,24.82,0,0,0,184.3,413.52Z"/><path class="cls-1" d="M185.39,414.54a30.58,30.58,0,0,0-30.55,30.55v.09l.31,14.47a4.07,4.07,0,0,0,4.08,4h52.62a4.09,4.09,0,0,0,4.09-4.08V445.09A30.59,30.59,0,0,0,185.39,414.54Z"/><path class="cls-1" d="M112.37,413.52a24.79,24.79,0,1,0-24.79-24.79A24.82,24.82,0,0,0,112.37,413.52Z"/><path class="cls-1" d="M113.46,414.54a30.59,30.59,0,0,0-30.55,30.55v.09l.31,14.47a4.09,4.09,0,0,0,4.09,4h52.62a4.08,4.08,0,0,0,4.08-4.08V445.09A30.58,30.58,0,0,0,113.46,414.54Z"/></g><text class="cls-8" transform="translate(91.65 526.84)">5,000+</text><path class="cls-3" d="M568.47,358.46l7.19.24a.53.53,0,0,0,.4-.14h0a4.43,4.43,0,0,1,4.85-.7l1.7.79a.5.5,0,0,0,.24.06h10.34a.57.57,0,0,0,.48-.25l1.87-2.7a.58.58,0,0,0-.13-.8l-3.19-2.34A.57.57,0,0,1,592,352l.61-2.86a.59.59,0,0,1,.57-.46h3.28a.58.58,0,0,1,.56.45l.92,3.93a.53.53,0,0,0,.08.17l2.11,3.38a.58.58,0,0,0,1,0l.59-.85a.58.58,0,0,1,1,.19l.74,3.11a.58.58,0,0,0,1,.23l2.2-2.75a.58.58,0,0,0,.08-.58l-.69-1.66a.59.59,0,0,1,.72-.78l4.8,1.61a.58.58,0,0,1,.16,1l-.5.35a.58.58,0,0,0-.17.75l1.12,2.05a.58.58,0,0,1-.12.7L609,362.9a.57.57,0,0,0-.14.65l1,2.38a.57.57,0,0,1-.17.67l-2,1.57a.57.57,0,0,1-.68,0l-1.71-1.14a.57.57,0,0,1-.26-.56l.18-1.22a.58.58,0,0,0-1-.44l-.71.89a.64.64,0,0,1-.15.13l-2.83,1.74a.58.58,0,0,0-.19.8l.39.63a.59.59,0,0,1-.54.89l-1.76-.15a.62.62,0,0,0-.43.14l-3.77,3.3a.61.61,0,0,0-.19.54l.58,3.27a.57.57,0,0,0,.89.38h0a.58.58,0,0,1,.9.45l.16,2.52a.58.58,0,0,0,.71.53l1.55-.34a.61.61,0,0,1,.3,0l10.55,3.27a.58.58,0,0,1,.4.45l.68,3.88a.64.64,0,0,0,.24.38l3.23,2.28a.59.59,0,0,0,.92-.54l-.4-4.25,3.56-3.09a.56.56,0,0,0,.11-.74L615.82,378a.59.59,0,0,1,.08-.72l1.44-1.44a.58.58,0,0,0,.07-.74L615,371.44a.58.58,0,0,1,.31-.87l5.61-1.8a.57.57,0,0,1,.44,0l7,3.62a.58.58,0,0,1,.3.65l-.62,2.46a.6.6,0,0,0,.08.47l1.17,1.75a.58.58,0,0,0,.71.21l3-1.29a.56.56,0,0,0,.31-.33l.73-1.9a.58.58,0,0,1,1.07,0l3.54,7.74a.57.57,0,0,0,.3.29l4,1.75,6,4.38a.59.59,0,0,1,0,.94l-3.46,2.69a.5.5,0,0,1-.19.1l-5.14,1.57a.35.35,0,0,0-.15.07l-4.86,3.16a.6.6,0,0,0-.23.71l.82,2.11a.58.58,0,0,0,.64.37l4.17-.72a.58.58,0,0,1,.68.57v1.4a.58.58,0,0,1-.44.56l-4,1a.72.72,0,0,0-.26.14L633.57,406a.59.59,0,0,1-1-.25l-.33-1a.61.61,0,0,1,0-.46l.8-1.49a.58.58,0,0,0-.7-.83l-4.57,1.52a.6.6,0,0,0-.37.36l-1.2,3.42a.63.63,0,0,1-.35.35l-3.62,1.41a.57.57,0,0,0-.36.41L620.23,417a.62.62,0,0,1-.29.38l-6.58,3.6a.6.6,0,0,0-.29.63l1.5,7.93a.56.56,0,0,1-.07.4l-.93,1.6a.59.59,0,0,1-1.05-.06l-2.18-4.9a.55.55,0,0,0-.45-.34l-8.61-1.18a.59.59,0,0,0-.58.9h0a.58.58,0,0,1-.7.86l-3.59-1.34a.58.58,0,0,0-.58.09l-6.61,5.54a.61.61,0,0,0-.17.65l3,8.56a.56.56,0,0,0,.43.38l4.87,1a.62.62,0,0,0,.59-.21l2.18-2.79a.61.61,0,0,1,.35-.21l3.65-.73a.58.58,0,0,1,.69.63l-.56,6a.59.59,0,0,0,.54.64l4.77.37a.57.57,0,0,1,.53.69l-1,5.6,1.86,3,6.63.39a2.65,2.65,0,0,0,2.07-.84l1.57-1.72a2.6,2.6,0,0,1,1.92-.85h3.59a2.51,2.51,0,0,1,1.43.44l.9.59a2.56,2.56,0,0,0,2.15.34l3.82-1.09a2.58,2.58,0,0,1,1.87.17l14.4,7.2a2.56,2.56,0,0,1,1.21,1.28l2.1,4.8a2.64,2.64,0,0,0,1.69,1.46l18.55,5.09a2.59,2.59,0,0,1,1.91,2.5v4.35a2.56,2.56,0,0,1-1.06,2.09l-4.45,3.27a2.58,2.58,0,0,0-1,1.68l-1.7,10.54a2.57,2.57,0,0,1-1.77,2l-8,2.57a2.55,2.55,0,0,0-1.57,1.39l-5.68,12.42a2.59,2.59,0,0,1-2.16,1.51l-1.6.12a2.61,2.61,0,0,0-2.4,2.59h0a2.59,2.59,0,0,1-1.19,2.18l-8.68,5.56a2.57,2.57,0,0,0-1,1.3l-4.92,13.63a2.52,2.52,0,0,0,0,1.67l1.19,3.73a2.6,2.6,0,0,1-3.26,3.26l-1.81-.57a2.62,2.62,0,0,1-1.77-2l-3-16.3a2.75,2.75,0,0,1,0-.86l3.33-22.07,2.29-14.46a2.61,2.61,0,0,0-1.16-2.59l-4-2.58a2.57,2.57,0,0,1-.81-.83L613,476.1a2.65,2.65,0,0,1-.38-1.2l-.29-4.73a2.61,2.61,0,0,1,1.05-2.26l4.17-3.05a2.62,2.62,0,0,0,1.06-2.09v-2.46a2.61,2.61,0,0,0-2.6-2.6h-2.31a2.6,2.6,0,0,1-1.16-.27l-5.4-2.7-3-4.67H599l-4.17-3.33a.52.52,0,0,0-.18-.1L581,442.07a.55.55,0,0,1-.31-.25L573,429.24a.59.59,0,0,0-1.06.5l.88,2.54a.59.59,0,0,1-1,.55l-8-10.35L554,409.31l2.13-13.58-12.32-7.22-7.21-10.19-12.35-4.11a1.25,1.25,0,0,0-.79,0l-12.57,4.06a1.32,1.32,0,0,1-.39.06h-4.09a1.25,1.25,0,0,1-.7-.21L497.9,373a1.28,1.28,0,0,1,0-2.13l5.44-3.63a1.28,1.28,0,0,0-.16-2.21l-1.8-.85a1.28,1.28,0,0,1,.55-2.43h0a1.27,1.27,0,0,0,.57-2.41l-3.39-1.7a1.27,1.27,0,0,1,.19-2.35l7.65-2.41a18.44,18.44,0,0,1,8.54-.58l18.09,3.06a17,17,0,0,0,9.93-1.31h0a17,17,0,0,1,11.22-1l12.52,3.13a.58.58,0,0,1,.43.46l.25,1.38A.58.58,0,0,0,568.47,358.46Zm34.65-13.21-.28.83a2.65,2.65,0,0,0,1.76,3.43l10.23,3a2.65,2.65,0,0,1,.88.46l3.38,2.62a2.69,2.69,0,0,1,1,1.95l.36,6a2.66,2.66,0,0,0,1.34,2.15l8.46,4.87a2.67,2.67,0,0,0,3.8-1.31l1-2.49a2.5,2.5,0,0,1,.53-.83l2.07-2.18a2.66,2.66,0,0,0-1-4.35l-3.27-1.15a2.67,2.67,0,0,1-1.78-2.52h0a2.69,2.69,0,0,0-1.32-2.3L622.54,349a2.69,2.69,0,0,1-.69-.57l-3.37-4a2.66,2.66,0,0,0-2-.94H605.64A2.67,2.67,0,0,0,603.12,345.25ZM597,343.47h-1.73a1.5,1.5,0,0,0-1.5,1.49v.69a1.5,1.5,0,0,0,1.5,1.5h1.12a1.52,1.52,0,0,0,1.11-.5l.61-.69A1.49,1.49,0,0,0,597,343.47Zm-6.91,6.13,1.54-1.79a1.5,1.5,0,0,0,.27-1.48l-.56-1.59a1.5,1.5,0,0,0-1.78-.94l-3.47.86a1.51,1.51,0,0,0-.7,2.52l2.51,2.5A1.49,1.49,0,0,0,590.08,349.6Zm-20.43-4.41-12.5-2.84a2.63,2.63,0,0,0-2.95,1.39l-.77,1.53a2.66,2.66,0,0,0,.68,3.22l.51.43a2.66,2.66,0,0,0,2.33.53l1.92-.48a2.61,2.61,0,0,1,1.88.23l2.73,1.46a2.64,2.64,0,0,1,.58.41l4.18,4a2.63,2.63,0,0,0,2.52.63l5.42-1.49a2.59,2.59,0,0,1,1.51,0l4.68,1.5a2.67,2.67,0,0,0,2.17-.26h0a2.65,2.65,0,0,0,.24-4.36l-2.38-1.82a2.6,2.6,0,0,1-.95-1.45l-.49-2a2.65,2.65,0,0,0-3-2l-7.22,1.3A2.65,2.65,0,0,1,569.65,345.19ZM559,337.56l9.72,4.17a1.28,1.28,0,0,0,.77.07l6.92-1.48a1.28,1.28,0,0,0,0-2.49l-6.08-1.43a1.31,1.31,0,0,1-.28-.09l-5.72-2.84a1.31,1.31,0,0,0-1.06,0L559,335.21A1.28,1.28,0,0,0,559,337.56Zm10.28-4.4.31.37a1.5,1.5,0,0,0,1.55.48l3.17-.88a1.49,1.49,0,0,0,1.09-1.45v-.44a1.49,1.49,0,0,0-1.89-1.44l-3.48,1A1.49,1.49,0,0,0,569.24,333.16Zm15.06,3.63,3.2,3.42a1.54,1.54,0,0,0,.85.45l4.55.77a1.49,1.49,0,0,0,1.63-2.06l-.38-.9a1.5,1.5,0,0,0-1.38-.92h-1.28a1.49,1.49,0,0,1-1.31-.76l-1-1.76a1.51,1.51,0,0,0-1.31-.76h-2.5A1.49,1.49,0,0,0,584.3,336.79Zm14.59,5.1h15.88a.54.54,0,0,0,.54-.54v-2.79a.54.54,0,0,0-.48-.53l-4.4-.47a.56.56,0,0,0-.22,0l-6.59,2a.53.53,0,0,1-.61-.24l-.8-1.31a.54.54,0,0,1,.22-.76l2.23-1.11a.45.45,0,0,1,.3-.05l11.33,1.35a.54.54,0,0,0,.6-.54v-2.43a.5.5,0,0,1,.18-.4l4.3-3.9a.54.54,0,0,0-.36-.94h0a.54.54,0,0,1-.2-1l3.94-1.57,0,0,6.78-3.65,0,0,7.34-3a.54.54,0,0,0-.09-1l-15.57-3.54a.41.41,0,0,0-.22,0l-23.49,4.49a.55.55,0,0,0-.25.95l2.43,2.05a.53.53,0,0,0,.3.12l8.67.77a.62.62,0,0,0,.19,0l1.79-.5a.54.54,0,0,1,.4,1l-2.44,1.32a.46.46,0,0,1-.23.06l-4.24.25a.39.39,0,0,1-.21,0l-7.44-2.56-.14-.08-2.58-1.87a.51.51,0,0,0-.53-.06l-5.83,2.46a.55.55,0,0,0-.19.87l4.38,4.6a.48.48,0,0,0,.2.14l6.24,2.37a.56.56,0,0,0,.42,0l4.39-2.11a.54.54,0,0,1,.67.81l-2,2.75a.52.52,0,0,1-.18.15l-4.66,2.46a.57.57,0,0,1-.46,0l-5.33-2.22a.54.54,0,0,0-.75.5v1.65a.56.56,0,0,0,.42.53l4.15,1a.54.54,0,0,1,.39.36l1.23,3.95A.54.54,0,0,0,598.89,341.89Zm-18.3-10.53h0a1.45,1.45,0,0,0,.87.51l4.12.76a1.5,1.5,0,0,0,1.57-2.22l-.26-.45a1.48,1.48,0,0,0-1.17-.75l-3.87-.31A1.5,1.5,0,0,0,580.59,331.36Zm9.38-.72.06.16a1.5,1.5,0,0,0,1.4,1h.12a1.49,1.49,0,0,0,1.2-2.39l-.12-.16a1.48,1.48,0,0,0-1.2-.6h-.06A1.49,1.49,0,0,0,590,330.64Zm40.35,7,9.43.44a2.19,2.19,0,0,1,1.37.59l10.2,9.86a2.18,2.18,0,0,1,.62,1.2L655.13,370a2.12,2.12,0,0,0,.5,1.07l2.83,3.21a2.12,2.12,0,0,0,3.5-.5l3.78-8a2.12,2.12,0,0,1,1.92-1.21h3.8a2.13,2.13,0,0,0,1.57-.7l4.2-4.63a2.12,2.12,0,0,1,.86-.58l9.83-3.48a2.11,2.11,0,0,0,1.14-1l6.33-11.44a2.12,2.12,0,0,0,.16-1.67l-3-9.23a2.12,2.12,0,0,1,.92-2.46l8.67-5.2a2.12,2.12,0,0,0-.64-3.88l-7.77-1.71-.17,0-22.48-3.12a2.09,2.09,0,0,0-.66,0l-26.19,4.65a1.92,1.92,0,0,0-.89.38l-8.27,6.11a2,2,0,0,1-.61.32l-7.66,2.45a2.12,2.12,0,0,0-1.08,3.24l2.93,4.16A2.13,2.13,0,0,0,630.32,337.6ZM688.5,362l6.38,4.79h8l3.88-5.93-11.18-1.59ZM709,422.33l-2.19,2.55c-.07.09-.14.17-.2.26l-7,9.29A5.39,5.39,0,0,0,699,440l.4.86a5.42,5.42,0,0,1,0,4.7h0a5.4,5.4,0,0,0,1,6.25l8.16,8.06a5.41,5.41,0,0,0,3.8,1.56h6.87a5.49,5.49,0,0,0,2.32-.52l4.89-2.32a1,1,0,0,1,1,.12l3.07,2.51a.93.93,0,0,0,.59.21h2.51a.94.94,0,0,1,.94.94V469a2.86,2.86,0,0,0,.29,1.25l4.7,9.39a2.83,2.83,0,0,1,.16,2.1l-2.41,7.49a2.77,2.77,0,0,0,.13,2l2.36,5a2.87,2.87,0,0,1,.27,1.19v5.06a2.84,2.84,0,0,0,.46,1.55l7,10.43a2.78,2.78,0,0,0,2.31,1.24h8.08a2.77,2.77,0,0,0,2.26-1.16l4.83-6.7a2.82,2.82,0,0,0,.52-1.63v-2.16a2.8,2.8,0,0,1,2-2.68l.77-.22a2.78,2.78,0,0,0,2-2.67v-2.93a2.78,2.78,0,0,1,.81-2l5.24-5.24a2.79,2.79,0,0,0,.82-2v-7a2.8,2.8,0,0,0-.37-1.38l-1.31-2.29a2.79,2.79,0,0,1,.48-3.38l10.95-10.66a2.79,2.79,0,0,0,.75-1.31l1.1-4.29a3.55,3.55,0,0,0-4.26-4.32h0a5.1,5.1,0,0,1-5.24-1.85L777.84,448,774.06,446l-6-16.29a.29.29,0,0,1,.5-.29l7.52,9,3.81,7.79a5.11,5.11,0,0,0,6.36,2.54l10.58-3.94a1.6,1.6,0,0,0,.84-.72l3-5.45a1.6,1.6,0,0,0-.13-1.73l-3-3.86a1.59,1.59,0,0,0-2.12-.36l-3.15,2a1.59,1.59,0,0,1-2.27-.6l-3.15-6.1a1.59,1.59,0,0,1,1.41-2.32h0a1.59,1.59,0,0,1,1.3.69l2.11,3.05a1.61,1.61,0,0,0,1.4.68l4.59-.25a1.57,1.57,0,0,1,1.21.46l1.78,1.78a1.58,1.58,0,0,0,1.12.47h8.27a1.54,1.54,0,0,1,1.16.51l5.9,6.52a1.62,1.62,0,0,1,.27.41L824,454.47a1.57,1.57,0,0,0,2.8.13l4.51-8a1.53,1.53,0,0,1,.41-.47L843.46,437a1.57,1.57,0,0,1,2.45.73l1.94,5.62a1.57,1.57,0,0,0,1.73,1l1.7-.26a1.57,1.57,0,0,1,1.78,1.23l1,4.82a1.84,1.84,0,0,1,0,.33v4.06a1.57,1.57,0,0,0,.14.64l2.49,5.61a1.58,1.58,0,0,0,.33.48l.91.91a1.57,1.57,0,0,0,2.62-1.56l-.9-3a1.71,1.71,0,0,0-.29-.55l-2.53-3.1a1.56,1.56,0,0,1-.36-1h0a1.57,1.57,0,0,1,2.89-.86l1.94,3a1.57,1.57,0,0,0,2.38.3l4.8-4.38a2.16,2.16,0,0,0,.7-1.6v-2.84a2.17,2.17,0,0,0-1.1-1.89l-2.31-1.3a2.17,2.17,0,0,1-.71-3.13l.12-.18a2.16,2.16,0,0,1,2.43-.82l3,.92a2.18,2.18,0,0,0,1.9-.3l10.12-7.15a2.18,2.18,0,0,0,.87-1.29l2.07-9.17a2.14,2.14,0,0,0-.11-1.3l-1.76-4.26a2.2,2.2,0,0,1,.1-1.86l1.08-2a2.18,2.18,0,0,1,2.53-1.05l3.06.9a2.18,2.18,0,0,1,1.45,1.4l.7,2.09a2.17,2.17,0,0,0,3.45,1h0a2.17,2.17,0,0,0,.26-3.07l-1.26-1.49a2.17,2.17,0,0,1-.09-2.69l2.12-2.89a2.16,2.16,0,0,1,1.75-.88h4.48a2.19,2.19,0,0,0,1.91-1.14l5.67-10.46a1.86,1.86,0,0,0,.24-.92v-5.14a1.94,1.94,0,0,0-1.94-1.93h0a1.93,1.93,0,0,1-1.31-3.35l6.47-6a2,2,0,0,1,1.32-.52H926a2,2,0,0,0,1.1-.34l7.6-5.26a1.87,1.87,0,0,1,1.1-.35h2.67a1.93,1.93,0,0,1,1.3,3.36l-7.95,7.29a1.94,1.94,0,0,0-.61,1.7l1,6.88a1.93,1.93,0,0,0,3.36,1L943,382.6a1.9,1.9,0,0,0,.49-1.28v-3.23a1.94,1.94,0,0,1,1.37-1.85l6.88-2.09,8.25-3.44h3.43l9.58-9.08a2.1,2.1,0,0,0-.71-3.5l-17.9-6.66a2.11,2.11,0,0,0-1.8.16l-4.42,2.61a2.08,2.08,0,0,1-1.19.28l-10.25-.6a2.09,2.09,0,0,1-1.36-.61l-6.73-6.69a2.07,2.07,0,0,0-1.48-.62H911a2.08,2.08,0,0,0-1.44.57l-4.08,3.8a2.11,2.11,0,0,1-1.89.52l-8.26-1.81a2.1,2.1,0,0,1-1.66-2.05v-1.46a2.1,2.1,0,0,0-1.61-2.05l-5.55-1.33a2.09,2.09,0,0,0-2.24.89l-1,1.57a2.1,2.1,0,0,1-2.42.84l-6.47-2.17a2.1,2.1,0,0,1-.39-3.81l.71-.42a2.1,2.1,0,0,0,1-2l-.06-.7a2.1,2.1,0,0,0-1.91-1.9l-21.36-1.86a2.14,2.14,0,0,0-1.14.22l-15.84,8.08a2.11,2.11,0,0,0-1.15,1.87v.12a2.11,2.11,0,0,1-1.21,1.91l-7.23,3.36a2.14,2.14,0,0,1-2.2-.26l-1.44-1.15a2.13,2.13,0,0,0-2.12-.29l-8,3.33a2.11,2.11,0,0,0-1.28,2.24h0a2.1,2.1,0,0,1-2.65,2.32l-5.9-1.65a2.09,2.09,0,0,0-2.58,1.42l0,.09a2.11,2.11,0,0,1-1.82,1.49l-9.41.86a2.11,2.11,0,0,0-1,.32l-14.53,9.39a1.37,1.37,0,0,1-1.62-.11l-1.78-1.5a1.36,1.36,0,0,1,.48-2.34l5-1.53a1.23,1.23,0,0,0,.38-.19h0a1.36,1.36,0,0,0-.17-2.34l-18.58-9.22a1.36,1.36,0,0,0-1.31.05L738.5,359.2a1.18,1.18,0,0,0-.32.27L727,372.34a1.38,1.38,0,0,0-.11,1.64l2.65,4.09a1.35,1.35,0,0,0,1.57.55l4.44-1.48a1.36,1.36,0,0,1,1.77,1l.76,3.38a1.36,1.36,0,0,0,1.52,1.05l2.83-.4a1.38,1.38,0,0,0,1.05-.79l2.91-6.41a1.33,1.33,0,0,0,.06-1l-1-3.15a1.39,1.39,0,0,1,.38-1.41l6.54-6a1.36,1.36,0,0,1,.92-.36h1a1.36,1.36,0,0,1,1,2.32L750.69,370a1.37,1.37,0,0,0-.25,1.57l.88,1.76a1.35,1.35,0,0,0,1.29.75l5.17-.25a1.34,1.34,0,0,1,1.23.65l.06.1a1.36,1.36,0,0,1-1.17,2.06h-2.17a1.37,1.37,0,0,0-1.36,1.26l-.18,2.28a1.35,1.35,0,0,1-.83,1.14l-10.3,4.37a1.28,1.28,0,0,1-.58.11l-8.94-.32a1.36,1.36,0,0,0-.71.17L727,388.89l-.12.08-6.4,4.95a5.09,5.09,0,0,0-.77,7.31h0a.93.93,0,0,1,.17.92l-1,2.65a.93.93,0,0,1-.87.62H715a4.47,4.47,0,0,0-4.46,4.82l.26,3.15a.94.94,0,0,0,.63.82l5.27,1.75a.91.91,0,0,0,.65,0l4.95-2a.92.92,0,0,0,.57-.86v-1.56a6.17,6.17,0,0,1,3.65-5.63l5-2.26a3.33,3.33,0,0,1,4.68,2.82h0a1,1,0,0,0,.31.64l5.36,4.76a.92.92,0,0,0,1.14.08l.74-.49a.94.94,0,0,0,.3-1.24l-4.14-7.39a.91.91,0,0,1,0-.89l1.11-2.07a.93.93,0,0,1,1.71.17l1,3.22a.89.89,0,0,0,.15.29l3.3,4.29.06.09,4,6.69a.94.94,0,0,0,1.3.32l1.4-.88a.92.92,0,0,0,.43-.95h0a.93.93,0,0,1,1.73-.63l1.83,3.17a2,2,0,0,0,2,1l5.83-.81a3.49,3.49,0,0,1,3.86,4.36l-.67,2.54a2,2,0,0,1-1.94,1.49h-5.83a1.47,1.47,0,0,1-.36,0l-9.9-1.83a2.93,2.93,0,0,0-3,1.31h0a3,3,0,0,1-3.64,1.12l-9-3.85a.93.93,0,0,1-.53-1.11l.79-2.75a.93.93,0,0,0-1-1.18l-14.14.94-.81.08A16,16,0,0,0,709,422.33Zm64-21.19.08.37a2.33,2.33,0,0,0,1.3,1.67l4.14,2a2.37,2.37,0,0,1,.83,3.62h0a2.34,2.34,0,0,1-2.28.84l-9.39-1.75a2.1,2.1,0,0,0-.43-.05h-4.48a2.36,2.36,0,0,1-2.1-3.45l2-3.86a2.38,2.38,0,0,1,2.1-1.28h5.9A2.37,2.37,0,0,1,773.06,401.14Zm20.58,6.8v5.77a2.36,2.36,0,0,1-2.36,2.36h-1.11a2.37,2.37,0,0,1-2.37-2.36v-3.26a2.3,2.3,0,0,0-.25-1.06l-2.39-4.78a2.38,2.38,0,0,1,1.22-3.25l2.66-1.09a2.37,2.37,0,0,1,3.19,1.63l1.35,5.48A2.6,2.6,0,0,1,793.64,407.94Zm-8.53,78.86-3.21,3.5a3,3,0,0,0-.77,1.6l-1,6.55a3.05,3.05,0,0,0,3,3.53h1.06a3,3,0,0,0,2.91-2.13l3.18-10.06a3,3,0,0,0,0-1.74h0A3.06,3.06,0,0,0,785.11,486.8Zm68.73-20.66,2.56,4.68a1.45,1.45,0,0,0,.34.4l4.78,3.72a1.31,1.31,0,0,0,1.94-.38l1.4-2.45a1.31,1.31,0,0,0-.4-1.74l-8.58-5.82-.08-.06h0A1.31,1.31,0,0,0,853.84,466.14Zm12.69,8.75h0a2.44,2.44,0,0,0,1.34,3.29l4.21,1.65a2.45,2.45,0,0,0,2.38-.34l.86-.66a2.44,2.44,0,0,0,0-3.87L874,474a2.44,2.44,0,0,0-1.49-.51h-3.78A2.45,2.45,0,0,0,866.53,474.89Zm2.22-7.5,2.58,3.56a1.68,1.68,0,0,0,.84.62l4.3,1.44a1.72,1.72,0,0,0,2-.81l3.36-6.2a1.73,1.73,0,0,0,0-1.58l-1.45-2.91a1.72,1.72,0,0,1,.32-2h0a1.72,1.72,0,0,0-.31-2.67l-1-.59A1.7,1.7,0,0,0,877,457l-2.11,4.68a1.71,1.71,0,0,1-.56.69L872,464.13a1.8,1.8,0,0,1-.68.3l-1.46.28A1.71,1.71,0,0,0,868.75,467.39Zm15-34.1-.91.74a.86.86,0,0,0-.24,1l.91,2a.86.86,0,0,0,.78.51h0a.87.87,0,0,0,.87-.86V434A.86.86,0,0,0,883.73,433.29Zm-.26,9.42-1,3.14a1.15,1.15,0,0,0,.09.89l.5.9a1.11,1.11,0,0,0,1.73.29h0a1.13,1.13,0,0,0,.37-.83v-1.35a1.06,1.06,0,0,1,.19-.62l1-1.46a1.12,1.12,0,0,0-.94-1.74h-.82A1.12,1.12,0,0,0,883.47,442.71ZM885.05,456h0a1.13,1.13,0,0,0,1.37,1.21l.2-.05a1.13,1.13,0,0,1,1.24.57l.76,1.44a1.12,1.12,0,0,0,1.7.34l1.83-1.5a1.1,1.1,0,0,0,.37-1.13l-.55-2.23a1.12,1.12,0,0,0-1.36-.81l-4.72,1.2A1.11,1.11,0,0,0,885.05,456Zm1.23-6.69,1,1a.79.79,0,0,1,.2.33l.71,2.31a.81.81,0,0,0,.77.57h.32a.8.8,0,0,0,.8-.8v-1.45a.82.82,0,0,0-.22-.56l-2.47-2.57a.81.81,0,0,0-1.28.15h0A.8.8,0,0,0,886.28,449.33ZM884,465.94l-2.27,4.95a.56.56,0,0,0,0,.28l.55,4.25a.52.52,0,0,0,.51.45h.44a.52.52,0,0,0,.52-.52V473a.52.52,0,0,1,.95-.28l.92,1.4a.51.51,0,0,0,.65.19l1.2-.56a.52.52,0,0,0,.21-.75L886,470.48a.5.5,0,0,1,0-.6l.72-.91a.52.52,0,0,0-.4-.84h-1.15a.65.65,0,0,0-.2,0h0a.52.52,0,0,1-.66-.71l.28-.54a.5.5,0,0,1,.53-.27l3.3.47a.49.49,0,0,0,.48-.19l1.57-2a.51.51,0,0,0-.24-.8l-1.06-.37a.5.5,0,0,0-.64.28l-.5,1.13a.49.49,0,0,1-.44.31l-3.2.17A.52.52,0,0,0,884,465.94Zm22.52,3.86-3.17,1.35a.56.56,0,0,1-.65-.14l-.3-.33a.57.57,0,0,1-.14-.38v-1.74a.58.58,0,0,0-.41-.55l-3.23-1a.45.45,0,0,0-.16,0h-1.07a.58.58,0,0,0-.57.57v.2a.56.56,0,0,0,.31.5l1.56.81a.53.53,0,0,1,.22.2l.48.77a.57.57,0,0,0,.43.27l.77.07a.56.56,0,0,1,.52.57v.19a.63.63,0,0,1-.06.27l-.42.78a.57.57,0,0,0,.68.81l.3-.1a.57.57,0,0,1,.29,0l2.55.52a.67.67,0,0,1,.18.07l3.27,2a.56.56,0,0,1,.1.9l-.85.81a.58.58,0,0,0,.4,1h2.48a.59.59,0,0,1,.4.16l1.63,1.65a.58.58,0,0,0,.74.06L915.7,478a.58.58,0,0,1,.62,0l1.4.8a.55.55,0,0,1,.28.49v.68a.58.58,0,0,0,.42.55l4.17,1.17a.57.57,0,0,0,.57-.94l-3.34-3.52a.6.6,0,0,1-.12-.6l.45-1.19a.57.57,0,0,0-.54-.77H918.3a.56.56,0,0,1-.55-.42l-.51-1.82a.58.58,0,0,0-.43-.41l-9.92-2.18A.53.53,0,0,0,906.54,469.8Zm-23.15,24.45-7.27,2.92a1.86,1.86,0,0,0-1.13,2l2.58,15a1.84,1.84,0,0,0,1.81,1.53h8.15a1.86,1.86,0,0,0,.84-.2l7.48-3.84a1.83,1.83,0,0,1,1.9.13l4.52,3.2a1.83,1.83,0,0,0,2,.06l.79-.49a1.84,1.84,0,0,1,2.65.8l2.49,5.53A1.83,1.83,0,0,0,911.9,522H917a1.93,1.93,0,0,0,.74-.16l4.35-1.9a1.86,1.86,0,0,0,.84-.75l4.7-7.92a1.88,1.88,0,0,0,.25-.93v-8.86a1.86,1.86,0,0,0-.6-1.36l-8.39-7.59a2.06,2.06,0,0,1-.33-.4l-4-6.55a1.83,1.83,0,0,0-3.31.39L910,489.76a1.84,1.84,0,0,1-2.93.84L905,488.85a1.8,1.8,0,0,1-.64-1.62l.29-2.44a1.83,1.83,0,0,0-1.82-2.05h-3.12a1.86,1.86,0,0,0-1.25.48l-4.78,4.4a1.83,1.83,0,0,1-2.16.24h0a1.85,1.85,0,0,0-2.39.48l-1.59,2.1a2.09,2.09,0,0,1-.2.22L884,493.87A1.76,1.76,0,0,1,883.39,494.25Zm71,22.85,1.65,4.45a1.06,1.06,0,0,1-.08.87l-.55.91a1,1,0,0,0,.08,1.16l1.37,1.7a1,1,0,0,0,1.77-.37l.62-2.27a1,1,0,0,1,.56-.66l1.93-.88a1,1,0,0,0,.59-.93v-.34a1,1,0,0,0-1.21-1l-2.22.45a1,1,0,0,1-1.13-.58l-1.5-3.29a1,1,0,0,0-.93-.59h0A1,1,0,0,0,954.39,517.1ZM954,527.29,952.9,527a1,1,0,0,0-.89.2L946.08,532a1,1,0,0,0,.34,1.76l3,.9a1,1,0,0,0,1.18-.48l1.75-3.16a.92.92,0,0,1,.19-.25l1.9-1.78A1,1,0,0,0,954,527.29Z"/><g id="dots"><circle id="NewYork" class="cls-9" cx="618.42" cy="412.95" r="9.06"/><circle id="london" class="cls-9" cx="723.7" cy="397.88" r="9.06"/><circle id="main" class="cls-9" cx="631.47" cy="398.35" r="6.1"/><circle id="southAfrica" class="cls-9" cx="743.14" cy="505.34" r="7.73"/><circle id="brazil" class="cls-9" cx="666.93" cy="493.1" r="6.8"/><circle id="cali" class="cls-9" cx="562.09" cy="419.75" r="6.8"/><circle id="india" class="cls-9" cx="835.05" cy="442.95" r="7.82"/></g><rect class="cls-10" x="353.57" y="389.72" width="134.59" height="18.38"/><rect class="cls-10" x="353.57" y="426.6" width="118.75" height="18.38"/><rect class="cls-10" x="353.57" y="463.48" width="154.36" height="18.38"/><rect class="cls-10" x="353.57" y="501.38" width="141.24" height="18.38"/><rect class="cls-10" x="328.57" y="389.72" width="18.37" height="18.38"/><rect class="cls-10" x="328.57" y="426.6" width="18.37" height="18.38"/><rect class="cls-10" x="328.57" y="463.48" width="18.37" height="18.38"/><rect class="cls-10" x="328.57" y="501.38" width="18.37" height="18.38"/><rect class="cls-11" x="329.07" y="352.76" width="143.25" height="18.38"/></svg>