<svg xmlns="http://www.w3.org/2000/svg" xmlns:xlink="http://www.w3.org/1999/xlink" viewBox="0 0 300 300" id="el_-nztR9Gnb"><style>@-webkit-keyframes kf_el_1MIzvhxP-Lc_an_e5FlsYXly{0%{-webkit-transform: translate(227.81499481201172px, 70.3349666595459px) rotate(0deg) translate(-227.81499481201172px, -70.3349666595459px);transform: translate(227.81499481201172px, 70.3349666595459px) rotate(0deg) translate(-227.81499481201172px, -70.3349666595459px);}100%{-webkit-transform: translate(227.81499481201172px, 70.3349666595459px) rotate(360deg) translate(-227.81499481201172px, -70.3349666595459px);transform: translate(227.81499481201172px, 70.3349666595459px) rotate(360deg) translate(-227.81499481201172px, -70.3349666595459px);}}@keyframes kf_el_1MIzvhxP-Lc_an_e5FlsYXly{0%{-webkit-transform: translate(227.81499481201172px, 70.3349666595459px) rotate(0deg) translate(-227.81499481201172px, -70.3349666595459px);transform: translate(227.81499481201172px, 70.3349666595459px) rotate(0deg) translate(-227.81499481201172px, -70.3349666595459px);}100%{-webkit-transform: translate(227.81499481201172px, 70.3349666595459px) rotate(360deg) translate(-227.81499481201172px, -70.3349666595459px);transform: translate(227.81499481201172px, 70.3349666595459px) rotate(360deg) translate(-227.81499481201172px, -70.3349666595459px);}}@-webkit-keyframes kf_el_jTcAxJ9dvDH_an_quJQldc0u{0%{-webkit-transform: translate(69.47501182556152px, 209.56491088867188px) rotate(0deg) translate(-69.47501182556152px, -209.56491088867188px);transform: translate(69.47501182556152px, 209.56491088867188px) rotate(0deg) translate(-69.47501182556152px, -209.56491088867188px);}100%{-webkit-transform: translate(69.47501182556152px, 209.56491088867188px) rotate(180deg) translate(-69.47501182556152px, -209.56491088867188px);transform: translate(69.47501182556152px, 209.56491088867188px) rotate(180deg) translate(-69.47501182556152px, -209.56491088867188px);}}@keyframes kf_el_jTcAxJ9dvDH_an_quJQldc0u{0%{-webkit-transform: translate(69.47501182556152px, 209.56491088867188px) rotate(0deg) translate(-69.47501182556152px, -209.56491088867188px);transform: translate(69.47501182556152px, 209.56491088867188px) rotate(0deg) translate(-69.47501182556152px, -209.56491088867188px);}100%{-webkit-transform: translate(69.47501182556152px, 209.56491088867188px) rotate(180deg) translate(-69.47501182556152px, -209.56491088867188px);transform: translate(69.47501182556152px, 209.56491088867188px) rotate(180deg) translate(-69.47501182556152px, -209.56491088867188px);}}@-webkit-keyframes kf_el_1SwV4ODs6tm_an_pZ8Sg4zUr{0%{-webkit-transform: translate(92.08000135421753px, 212.31001996994019px) scale(0, 0) translate(-92.08000135421753px, -212.31001996994019px);transform: translate(92.08000135421753px, 212.31001996994019px) scale(0, 0) translate(-92.08000135421753px, -212.31001996994019px);}100%{-webkit-transform: translate(92.08000135421753px, 212.31001996994019px) scale(1, 1) translate(-92.08000135421753px, -212.31001996994019px);transform: translate(92.08000135421753px, 212.31001996994019px) scale(1, 1) translate(-92.08000135421753px, -212.31001996994019px);}}@keyframes kf_el_1SwV4ODs6tm_an_pZ8Sg4zUr{0%{-webkit-transform: translate(92.08000135421753px, 212.31001996994019px) scale(0, 0) translate(-92.08000135421753px, -212.31001996994019px);transform: translate(92.08000135421753px, 212.31001996994019px) scale(0, 0) translate(-92.08000135421753px, -212.31001996994019px);}100%{-webkit-transform: translate(92.08000135421753px, 212.31001996994019px) scale(1, 1) translate(-92.08000135421753px, -212.31001996994019px);transform: translate(92.08000135421753px, 212.31001996994019px) scale(1, 1) translate(-92.08000135421753px, -212.31001996994019px);}}@-webkit-keyframes kf_el_qFnOv3hSgrm_an_Aqp_yqq5I{0%{-webkit-transform: translate(270.9250030517578px, 234.41500091552734px) rotate(0deg) translate(-270.9250030517578px, -234.41500091552734px);transform: translate(270.9250030517578px, 234.41500091552734px) rotate(0deg) translate(-270.9250030517578px, -234.41500091552734px);}94.44%{-webkit-transform: translate(270.9250030517578px, 234.41500091552734px) rotate(456deg) translate(-270.9250030517578px, -234.41500091552734px);transform: translate(270.9250030517578px, 234.41500091552734px) rotate(456deg) translate(-270.9250030517578px, -234.41500091552734px);}100%{-webkit-transform: translate(270.9250030517578px, 234.41500091552734px) rotate(456deg) translate(-270.9250030517578px, -234.41500091552734px);transform: translate(270.9250030517578px, 234.41500091552734px) rotate(456deg) translate(-270.9250030517578px, -234.41500091552734px);}}@keyframes kf_el_qFnOv3hSgrm_an_Aqp_yqq5I{0%{-webkit-transform: translate(270.9250030517578px, 234.41500091552734px) rotate(0deg) translate(-270.9250030517578px, -234.41500091552734px);transform: translate(270.9250030517578px, 234.41500091552734px) rotate(0deg) translate(-270.9250030517578px, -234.41500091552734px);}94.44%{-webkit-transform: translate(270.9250030517578px, 234.41500091552734px) rotate(456deg) translate(-270.9250030517578px, -234.41500091552734px);transform: translate(270.9250030517578px, 234.41500091552734px) rotate(456deg) translate(-270.9250030517578px, -234.41500091552734px);}100%{-webkit-transform: translate(270.9250030517578px, 234.41500091552734px) rotate(456deg) translate(-270.9250030517578px, -234.41500091552734px);transform: translate(270.9250030517578px, 234.41500091552734px) rotate(456deg) translate(-270.9250030517578px, -234.41500091552734px);}}@-webkit-keyframes kf_el_qFnOv3hSgrm_an_jinmPedt-{0%{-webkit-transform: translate(270.9250030517578px, 234.41500091552734px) scale(0, 0) translate(-270.9250030517578px, -234.41500091552734px);transform: translate(270.9250030517578px, 234.41500091552734px) scale(0, 0) translate(-270.9250030517578px, -234.41500091552734px);}95.56%{-webkit-transform: translate(270.9250030517578px, 234.41500091552734px) scale(2, 2) translate(-270.9250030517578px, -234.41500091552734px);transform: translate(270.9250030517578px, 234.41500091552734px) scale(2, 2) translate(-270.9250030517578px, -234.41500091552734px);}100%{-webkit-transform: translate(270.9250030517578px, 234.41500091552734px) scale(2, 2) translate(-270.9250030517578px, -234.41500091552734px);transform: translate(270.9250030517578px, 234.41500091552734px) scale(2, 2) translate(-270.9250030517578px, -234.41500091552734px);}}@keyframes kf_el_qFnOv3hSgrm_an_jinmPedt-{0%{-webkit-transform: translate(270.9250030517578px, 234.41500091552734px) scale(0, 0) translate(-270.9250030517578px, -234.41500091552734px);transform: translate(270.9250030517578px, 234.41500091552734px) scale(0, 0) translate(-270.9250030517578px, -234.41500091552734px);}95.56%{-webkit-transform: translate(270.9250030517578px, 234.41500091552734px) scale(2, 2) translate(-270.9250030517578px, -234.41500091552734px);transform: translate(270.9250030517578px, 234.41500091552734px) scale(2, 2) translate(-270.9250030517578px, -234.41500091552734px);}100%{-webkit-transform: translate(270.9250030517578px, 234.41500091552734px) scale(2, 2) translate(-270.9250030517578px, -234.41500091552734px);transform: translate(270.9250030517578px, 234.41500091552734px) scale(2, 2) translate(-270.9250030517578px, -234.41500091552734px);}}@-webkit-keyframes kf_el_J0Fz1gvtAGo_an_UeWW7e-Au{0%{-webkit-transform: translate(217.9550018310547px, 162.6449966430664px) rotate(0deg) translate(-217.9550018310547px, -162.6449966430664px);transform: translate(217.9550018310547px, 162.6449966430664px) rotate(0deg) translate(-217.9550018310547px, -162.6449966430664px);}91.11%{-webkit-transform: translate(217.9550018310547px, 162.6449966430664px) rotate(754deg) translate(-217.9550018310547px, -162.6449966430664px);transform: translate(217.9550018310547px, 162.6449966430664px) rotate(754deg) translate(-217.9550018310547px, -162.6449966430664px);}100%{-webkit-transform: translate(217.9550018310547px, 162.6449966430664px) rotate(754deg) translate(-217.9550018310547px, -162.6449966430664px);transform: translate(217.9550018310547px, 162.6449966430664px) rotate(754deg) translate(-217.9550018310547px, -162.6449966430664px);}}@keyframes kf_el_J0Fz1gvtAGo_an_UeWW7e-Au{0%{-webkit-transform: translate(217.9550018310547px, 162.6449966430664px) rotate(0deg) translate(-217.9550018310547px, -162.6449966430664px);transform: translate(217.9550018310547px, 162.6449966430664px) rotate(0deg) translate(-217.9550018310547px, -162.6449966430664px);}91.11%{-webkit-transform: translate(217.9550018310547px, 162.6449966430664px) rotate(754deg) translate(-217.9550018310547px, -162.6449966430664px);transform: translate(217.9550018310547px, 162.6449966430664px) rotate(754deg) translate(-217.9550018310547px, -162.6449966430664px);}100%{-webkit-transform: translate(217.9550018310547px, 162.6449966430664px) rotate(754deg) translate(-217.9550018310547px, -162.6449966430664px);transform: translate(217.9550018310547px, 162.6449966430664px) rotate(754deg) translate(-217.9550018310547px, -162.6449966430664px);}}@-webkit-keyframes kf_el_J0Fz1gvtAGo_an_84IC9sdex{0%{-webkit-transform: translate(217.9550018310547px, 162.6449966430664px) scale(0, 0) translate(-217.9550018310547px, -162.6449966430664px);transform: translate(217.9550018310547px, 162.6449966430664px) scale(0, 0) translate(-217.9550018310547px, -162.6449966430664px);}95.56%{-webkit-transform: translate(217.9550018310547px, 162.6449966430664px) scale(2.5, 2.5) translate(-217.9550018310547px, -162.6449966430664px);transform: translate(217.9550018310547px, 162.6449966430664px) scale(2.5, 2.5) translate(-217.9550018310547px, -162.6449966430664px);}100%{-webkit-transform: translate(217.9550018310547px, 162.6449966430664px) scale(2.5, 2.5) translate(-217.9550018310547px, -162.6449966430664px);transform: translate(217.9550018310547px, 162.6449966430664px) scale(2.5, 2.5) translate(-217.9550018310547px, -162.6449966430664px);}}@keyframes kf_el_J0Fz1gvtAGo_an_84IC9sdex{0%{-webkit-transform: translate(217.9550018310547px, 162.6449966430664px) scale(0, 0) translate(-217.9550018310547px, -162.6449966430664px);transform: translate(217.9550018310547px, 162.6449966430664px) scale(0, 0) translate(-217.9550018310547px, -162.6449966430664px);}95.56%{-webkit-transform: translate(217.9550018310547px, 162.6449966430664px) scale(2.5, 2.5) translate(-217.9550018310547px, -162.6449966430664px);transform: translate(217.9550018310547px, 162.6449966430664px) scale(2.5, 2.5) translate(-217.9550018310547px, -162.6449966430664px);}100%{-webkit-transform: translate(217.9550018310547px, 162.6449966430664px) scale(2.5, 2.5) translate(-217.9550018310547px, -162.6449966430664px);transform: translate(217.9550018310547px, 162.6449966430664px) scale(2.5, 2.5) translate(-217.9550018310547px, -162.6449966430664px);}}@-webkit-keyframes kf_el__NmjT0RdF3b_an__gBp1W1wP{0%{-webkit-transform: translate(55.5px, 52.4900016784668px) rotate(0deg) translate(-55.5px, -52.4900016784668px);transform: translate(55.5px, 52.4900016784668px) rotate(0deg) translate(-55.5px, -52.4900016784668px);}90%{-webkit-transform: translate(55.5px, 52.4900016784668px) rotate(402deg) translate(-55.5px, -52.4900016784668px);transform: translate(55.5px, 52.4900016784668px) rotate(402deg) translate(-55.5px, -52.4900016784668px);}100%{-webkit-transform: translate(55.5px, 52.4900016784668px) rotate(402deg) translate(-55.5px, -52.4900016784668px);transform: translate(55.5px, 52.4900016784668px) rotate(402deg) translate(-55.5px, -52.4900016784668px);}}@keyframes kf_el__NmjT0RdF3b_an__gBp1W1wP{0%{-webkit-transform: translate(55.5px, 52.4900016784668px) rotate(0deg) translate(-55.5px, -52.4900016784668px);transform: translate(55.5px, 52.4900016784668px) rotate(0deg) translate(-55.5px, -52.4900016784668px);}90%{-webkit-transform: translate(55.5px, 52.4900016784668px) rotate(402deg) translate(-55.5px, -52.4900016784668px);transform: translate(55.5px, 52.4900016784668px) rotate(402deg) translate(-55.5px, -52.4900016784668px);}100%{-webkit-transform: translate(55.5px, 52.4900016784668px) rotate(402deg) translate(-55.5px, -52.4900016784668px);transform: translate(55.5px, 52.4900016784668px) rotate(402deg) translate(-55.5px, -52.4900016784668px);}}@-webkit-keyframes kf_el__NmjT0RdF3b_an_MRyWkdv4z{0%{-webkit-transform: translate(55.5px, 52.4900016784668px) scale(0, 0) translate(-55.5px, -52.4900016784668px);transform: translate(55.5px, 52.4900016784668px) scale(0, 0) translate(-55.5px, -52.4900016784668px);}91.11%{-webkit-transform: translate(55.5px, 52.4900016784668px) scale(2.5, 2.5) translate(-55.5px, -52.4900016784668px);transform: translate(55.5px, 52.4900016784668px) scale(2.5, 2.5) translate(-55.5px, -52.4900016784668px);}100%{-webkit-transform: translate(55.5px, 52.4900016784668px) scale(2.5, 2.5) translate(-55.5px, -52.4900016784668px);transform: translate(55.5px, 52.4900016784668px) scale(2.5, 2.5) translate(-55.5px, -52.4900016784668px);}}@keyframes kf_el__NmjT0RdF3b_an_MRyWkdv4z{0%{-webkit-transform: translate(55.5px, 52.4900016784668px) scale(0, 0) translate(-55.5px, -52.4900016784668px);transform: translate(55.5px, 52.4900016784668px) scale(0, 0) translate(-55.5px, -52.4900016784668px);}91.11%{-webkit-transform: translate(55.5px, 52.4900016784668px) scale(2.5, 2.5) translate(-55.5px, -52.4900016784668px);transform: translate(55.5px, 52.4900016784668px) scale(2.5, 2.5) translate(-55.5px, -52.4900016784668px);}100%{-webkit-transform: translate(55.5px, 52.4900016784668px) scale(2.5, 2.5) translate(-55.5px, -52.4900016784668px);transform: translate(55.5px, 52.4900016784668px) scale(2.5, 2.5) translate(-55.5px, -52.4900016784668px);}}@-webkit-keyframes kf_el_I832aA8mqL0_an_1I1wNnxka{0%{-webkit-transform: translate(174.6550064086914px, 237.98499298095703px) rotate(0deg) translate(-174.6550064086914px, -237.98499298095703px);transform: translate(174.6550064086914px, 237.98499298095703px) rotate(0deg) translate(-174.6550064086914px, -237.98499298095703px);}93.33%{-webkit-transform: translate(174.6550064086914px, 237.98499298095703px) rotate(471deg) translate(-174.6550064086914px, -237.98499298095703px);transform: translate(174.6550064086914px, 237.98499298095703px) rotate(471deg) translate(-174.6550064086914px, -237.98499298095703px);}100%{-webkit-transform: translate(174.6550064086914px, 237.98499298095703px) rotate(471deg) translate(-174.6550064086914px, -237.98499298095703px);transform: translate(174.6550064086914px, 237.98499298095703px) rotate(471deg) translate(-174.6550064086914px, -237.98499298095703px);}}@keyframes kf_el_I832aA8mqL0_an_1I1wNnxka{0%{-webkit-transform: translate(174.6550064086914px, 237.98499298095703px) rotate(0deg) translate(-174.6550064086914px, -237.98499298095703px);transform: translate(174.6550064086914px, 237.98499298095703px) rotate(0deg) translate(-174.6550064086914px, -237.98499298095703px);}93.33%{-webkit-transform: translate(174.6550064086914px, 237.98499298095703px) rotate(471deg) translate(-174.6550064086914px, -237.98499298095703px);transform: translate(174.6550064086914px, 237.98499298095703px) rotate(471deg) translate(-174.6550064086914px, -237.98499298095703px);}100%{-webkit-transform: translate(174.6550064086914px, 237.98499298095703px) rotate(471deg) translate(-174.6550064086914px, -237.98499298095703px);transform: translate(174.6550064086914px, 237.98499298095703px) rotate(471deg) translate(-174.6550064086914px, -237.98499298095703px);}}@-webkit-keyframes kf_el_I832aA8mqL0_an_Dkog4yGup{0%{-webkit-transform: translate(174.6550064086914px, 237.98499298095703px) scale(0, 0) translate(-174.6550064086914px, -237.98499298095703px);transform: translate(174.6550064086914px, 237.98499298095703px) scale(0, 0) translate(-174.6550064086914px, -237.98499298095703px);}100%{-webkit-transform: translate(174.6550064086914px, 237.98499298095703px) scale(2, 2) translate(-174.6550064086914px, -237.98499298095703px);transform: translate(174.6550064086914px, 237.98499298095703px) scale(2, 2) translate(-174.6550064086914px, -237.98499298095703px);}}@keyframes kf_el_I832aA8mqL0_an_Dkog4yGup{0%{-webkit-transform: translate(174.6550064086914px, 237.98499298095703px) scale(0, 0) translate(-174.6550064086914px, -237.98499298095703px);transform: translate(174.6550064086914px, 237.98499298095703px) scale(0, 0) translate(-174.6550064086914px, -237.98499298095703px);}100%{-webkit-transform: translate(174.6550064086914px, 237.98499298095703px) scale(2, 2) translate(-174.6550064086914px, -237.98499298095703px);transform: translate(174.6550064086914px, 237.98499298095703px) scale(2, 2) translate(-174.6550064086914px, -237.98499298095703px);}}@-webkit-keyframes kf_el_M5HGsaQ5NX_an_2ZuFwiiSn{0%{-webkit-transform: translate(88.07500076293945px, 86.76000213623047px) scale(0, 0) translate(-88.07500076293945px, -86.76000213623047px);transform: translate(88.07500076293945px, 86.76000213623047px) scale(0, 0) translate(-88.07500076293945px, -86.76000213623047px);}90%{-webkit-transform: translate(88.07500076293945px, 86.76000213623047px) scale(2.5, 2.5) translate(-88.07500076293945px, -86.76000213623047px);transform: translate(88.07500076293945px, 86.76000213623047px) scale(2.5, 2.5) translate(-88.07500076293945px, -86.76000213623047px);}100%{-webkit-transform: translate(88.07500076293945px, 86.76000213623047px) scale(2.5, 2.5) translate(-88.07500076293945px, -86.76000213623047px);transform: translate(88.07500076293945px, 86.76000213623047px) scale(2.5, 2.5) translate(-88.07500076293945px, -86.76000213623047px);}}@keyframes kf_el_M5HGsaQ5NX_an_2ZuFwiiSn{0%{-webkit-transform: translate(88.07500076293945px, 86.76000213623047px) scale(0, 0) translate(-88.07500076293945px, -86.76000213623047px);transform: translate(88.07500076293945px, 86.76000213623047px) scale(0, 0) translate(-88.07500076293945px, -86.76000213623047px);}90%{-webkit-transform: translate(88.07500076293945px, 86.76000213623047px) scale(2.5, 2.5) translate(-88.07500076293945px, -86.76000213623047px);transform: translate(88.07500076293945px, 86.76000213623047px) scale(2.5, 2.5) translate(-88.07500076293945px, -86.76000213623047px);}100%{-webkit-transform: translate(88.07500076293945px, 86.76000213623047px) scale(2.5, 2.5) translate(-88.07500076293945px, -86.76000213623047px);transform: translate(88.07500076293945px, 86.76000213623047px) scale(2.5, 2.5) translate(-88.07500076293945px, -86.76000213623047px);}}@-webkit-keyframes kf_el_M5HGsaQ5NX_an_GPc-b8np5{0%{-webkit-transform: translate(88.07500076293945px, 86.76000213623047px) rotate(0deg) translate(-88.07500076293945px, -86.76000213623047px);transform: translate(88.07500076293945px, 86.76000213623047px) rotate(0deg) translate(-88.07500076293945px, -86.76000213623047px);}96.67%{-webkit-transform: translate(88.07500076293945px, 86.76000213623047px) rotate(420deg) translate(-88.07500076293945px, -86.76000213623047px);transform: translate(88.07500076293945px, 86.76000213623047px) rotate(420deg) translate(-88.07500076293945px, -86.76000213623047px);}100%{-webkit-transform: translate(88.07500076293945px, 86.76000213623047px) rotate(420deg) translate(-88.07500076293945px, -86.76000213623047px);transform: translate(88.07500076293945px, 86.76000213623047px) rotate(420deg) translate(-88.07500076293945px, -86.76000213623047px);}}@keyframes kf_el_M5HGsaQ5NX_an_GPc-b8np5{0%{-webkit-transform: translate(88.07500076293945px, 86.76000213623047px) rotate(0deg) translate(-88.07500076293945px, -86.76000213623047px);transform: translate(88.07500076293945px, 86.76000213623047px) rotate(0deg) translate(-88.07500076293945px, -86.76000213623047px);}96.67%{-webkit-transform: translate(88.07500076293945px, 86.76000213623047px) rotate(420deg) translate(-88.07500076293945px, -86.76000213623047px);transform: translate(88.07500076293945px, 86.76000213623047px) rotate(420deg) translate(-88.07500076293945px, -86.76000213623047px);}100%{-webkit-transform: translate(88.07500076293945px, 86.76000213623047px) rotate(420deg) translate(-88.07500076293945px, -86.76000213623047px);transform: translate(88.07500076293945px, 86.76000213623047px) rotate(420deg) translate(-88.07500076293945px, -86.76000213623047px);}}@-webkit-keyframes kf_el_5__K8TGr24_an_4HBkYhCjm{0%{-webkit-transform: translate(60.165000915527344px, 162.6449966430664px) scale(0, 0) translate(-60.165000915527344px, -162.6449966430664px);transform: translate(60.165000915527344px, 162.6449966430664px) scale(0, 0) translate(-60.165000915527344px, -162.6449966430664px);}93.33%{-webkit-transform: translate(60.165000915527344px, 162.6449966430664px) scale(2, 2) translate(-60.165000915527344px, -162.6449966430664px);transform: translate(60.165000915527344px, 162.6449966430664px) scale(2, 2) translate(-60.165000915527344px, -162.6449966430664px);}100%{-webkit-transform: translate(60.165000915527344px, 162.6449966430664px) scale(2, 2) translate(-60.165000915527344px, -162.6449966430664px);transform: translate(60.165000915527344px, 162.6449966430664px) scale(2, 2) translate(-60.165000915527344px, -162.6449966430664px);}}@keyframes kf_el_5__K8TGr24_an_4HBkYhCjm{0%{-webkit-transform: translate(60.165000915527344px, 162.6449966430664px) scale(0, 0) translate(-60.165000915527344px, -162.6449966430664px);transform: translate(60.165000915527344px, 162.6449966430664px) scale(0, 0) translate(-60.165000915527344px, -162.6449966430664px);}93.33%{-webkit-transform: translate(60.165000915527344px, 162.6449966430664px) scale(2, 2) translate(-60.165000915527344px, -162.6449966430664px);transform: translate(60.165000915527344px, 162.6449966430664px) scale(2, 2) translate(-60.165000915527344px, -162.6449966430664px);}100%{-webkit-transform: translate(60.165000915527344px, 162.6449966430664px) scale(2, 2) translate(-60.165000915527344px, -162.6449966430664px);transform: translate(60.165000915527344px, 162.6449966430664px) scale(2, 2) translate(-60.165000915527344px, -162.6449966430664px);}}@-webkit-keyframes kf_el_5__K8TGr24_an_5306hAq6j{0%{-webkit-transform: translate(60.165000915527344px, 162.6449966430664px) rotate(0deg) translate(-60.165000915527344px, -162.6449966430664px);transform: translate(60.165000915527344px, 162.6449966430664px) rotate(0deg) translate(-60.165000915527344px, -162.6449966430664px);}100%{-webkit-transform: translate(60.165000915527344px, 162.6449966430664px) rotate(385deg) translate(-60.165000915527344px, -162.6449966430664px);transform: translate(60.165000915527344px, 162.6449966430664px) rotate(385deg) translate(-60.165000915527344px, -162.6449966430664px);}}@keyframes kf_el_5__K8TGr24_an_5306hAq6j{0%{-webkit-transform: translate(60.165000915527344px, 162.6449966430664px) rotate(0deg) translate(-60.165000915527344px, -162.6449966430664px);transform: translate(60.165000915527344px, 162.6449966430664px) rotate(0deg) translate(-60.165000915527344px, -162.6449966430664px);}100%{-webkit-transform: translate(60.165000915527344px, 162.6449966430664px) rotate(385deg) translate(-60.165000915527344px, -162.6449966430664px);transform: translate(60.165000915527344px, 162.6449966430664px) rotate(385deg) translate(-60.165000915527344px, -162.6449966430664px);}}@-webkit-keyframes kf_el_sZAtXEkrGt_an_zuzILaQ7g{0%{-webkit-transform: translate(150.0000057220459px, 141.2049674987793px) rotate(-180deg) translate(-150.0000057220459px, -141.2049674987793px);transform: translate(150.0000057220459px, 141.2049674987793px) rotate(-180deg) translate(-150.0000057220459px, -141.2049674987793px);}48.89%{-webkit-transform: translate(150.0000057220459px, 141.2049674987793px) rotate(0deg) translate(-150.0000057220459px, -141.2049674987793px);transform: translate(150.0000057220459px, 141.2049674987793px) rotate(0deg) translate(-150.0000057220459px, -141.2049674987793px);}100%{-webkit-transform: translate(150.0000057220459px, 141.2049674987793px) rotate(0deg) translate(-150.0000057220459px, -141.2049674987793px);transform: translate(150.0000057220459px, 141.2049674987793px) rotate(0deg) translate(-150.0000057220459px, -141.2049674987793px);}}@keyframes kf_el_sZAtXEkrGt_an_zuzILaQ7g{0%{-webkit-transform: translate(150.0000057220459px, 141.2049674987793px) rotate(-180deg) translate(-150.0000057220459px, -141.2049674987793px);transform: translate(150.0000057220459px, 141.2049674987793px) rotate(-180deg) translate(-150.0000057220459px, -141.2049674987793px);}48.89%{-webkit-transform: translate(150.0000057220459px, 141.2049674987793px) rotate(0deg) translate(-150.0000057220459px, -141.2049674987793px);transform: translate(150.0000057220459px, 141.2049674987793px) rotate(0deg) translate(-150.0000057220459px, -141.2049674987793px);}100%{-webkit-transform: translate(150.0000057220459px, 141.2049674987793px) rotate(0deg) translate(-150.0000057220459px, -141.2049674987793px);transform: translate(150.0000057220459px, 141.2049674987793px) rotate(0deg) translate(-150.0000057220459px, -141.2049674987793px);}}@-webkit-keyframes kf_el_sZAtXEkrGt_an_Ca2aV26Gx{0%{opacity: 0;}25.56%{opacity: 1;}94.44%{opacity: 1;}100%{opacity: 0;}}@keyframes kf_el_sZAtXEkrGt_an_Ca2aV26Gx{0%{opacity: 0;}25.56%{opacity: 1;}94.44%{opacity: 1;}100%{opacity: 0;}}@-webkit-keyframes kf_el_Du0-q0l_mC_an_QiqMksmam{0%{-webkit-transform: translate(149.99500274658203px, 149.99500274658203px) rotate(0deg) translate(-149.99500274658203px, -149.99500274658203px);transform: translate(149.99500274658203px, 149.99500274658203px) rotate(0deg) translate(-149.99500274658203px, -149.99500274658203px);}5.56%{-webkit-transform: translate(149.99500274658203px, 149.99500274658203px) rotate(-10deg) translate(-149.99500274658203px, -149.99500274658203px);transform: translate(149.99500274658203px, 149.99500274658203px) rotate(-10deg) translate(-149.99500274658203px, -149.99500274658203px);}11.11%{-webkit-transform: translate(149.99500274658203px, 149.99500274658203px) rotate(10deg) translate(-149.99500274658203px, -149.99500274658203px);transform: translate(149.99500274658203px, 149.99500274658203px) rotate(10deg) translate(-149.99500274658203px, -149.99500274658203px);}16.67%{-webkit-transform: translate(149.99500274658203px, 149.99500274658203px) rotate(-10deg) translate(-149.99500274658203px, -149.99500274658203px);transform: translate(149.99500274658203px, 149.99500274658203px) rotate(-10deg) translate(-149.99500274658203px, -149.99500274658203px);}22.22%{-webkit-transform: translate(149.99500274658203px, 149.99500274658203px) rotate(10deg) translate(-149.99500274658203px, -149.99500274658203px);transform: translate(149.99500274658203px, 149.99500274658203px) rotate(10deg) translate(-149.99500274658203px, -149.99500274658203px);}25.56%{-webkit-transform: translate(149.99500274658203px, 149.99500274658203px) rotate(0deg) translate(-149.99500274658203px, -149.99500274658203px);transform: translate(149.99500274658203px, 149.99500274658203px) rotate(0deg) translate(-149.99500274658203px, -149.99500274658203px);}100%{-webkit-transform: translate(149.99500274658203px, 149.99500274658203px) rotate(0deg) translate(-149.99500274658203px, -149.99500274658203px);transform: translate(149.99500274658203px, 149.99500274658203px) rotate(0deg) translate(-149.99500274658203px, -149.99500274658203px);}}@keyframes kf_el_Du0-q0l_mC_an_QiqMksmam{0%{-webkit-transform: translate(149.99500274658203px, 149.99500274658203px) rotate(0deg) translate(-149.99500274658203px, -149.99500274658203px);transform: translate(149.99500274658203px, 149.99500274658203px) rotate(0deg) translate(-149.99500274658203px, -149.99500274658203px);}5.56%{-webkit-transform: translate(149.99500274658203px, 149.99500274658203px) rotate(-10deg) translate(-149.99500274658203px, -149.99500274658203px);transform: translate(149.99500274658203px, 149.99500274658203px) rotate(-10deg) translate(-149.99500274658203px, -149.99500274658203px);}11.11%{-webkit-transform: translate(149.99500274658203px, 149.99500274658203px) rotate(10deg) translate(-149.99500274658203px, -149.99500274658203px);transform: translate(149.99500274658203px, 149.99500274658203px) rotate(10deg) translate(-149.99500274658203px, -149.99500274658203px);}16.67%{-webkit-transform: translate(149.99500274658203px, 149.99500274658203px) rotate(-10deg) translate(-149.99500274658203px, -149.99500274658203px);transform: translate(149.99500274658203px, 149.99500274658203px) rotate(-10deg) translate(-149.99500274658203px, -149.99500274658203px);}22.22%{-webkit-transform: translate(149.99500274658203px, 149.99500274658203px) rotate(10deg) translate(-149.99500274658203px, -149.99500274658203px);transform: translate(149.99500274658203px, 149.99500274658203px) rotate(10deg) translate(-149.99500274658203px, -149.99500274658203px);}25.56%{-webkit-transform: translate(149.99500274658203px, 149.99500274658203px) rotate(0deg) translate(-149.99500274658203px, -149.99500274658203px);transform: translate(149.99500274658203px, 149.99500274658203px) rotate(0deg) translate(-149.99500274658203px, -149.99500274658203px);}100%{-webkit-transform: translate(149.99500274658203px, 149.99500274658203px) rotate(0deg) translate(-149.99500274658203px, -149.99500274658203px);transform: translate(149.99500274658203px, 149.99500274658203px) rotate(0deg) translate(-149.99500274658203px, -149.99500274658203px);}}#el_-nztR9Gnb *{-webkit-animation-duration: 3s;animation-duration: 3s;-webkit-animation-iteration-count: 1;animation-iteration-count: 1;-webkit-animation-timing-function: cubic-bezier(0, 0, 1, 1);animation-timing-function: cubic-bezier(0, 0, 1, 1);}#el_DDekLQb1V3{fill: url(#linear-gradient);}#el_kjfzZZj_N-{fill: url(#linear-gradient-2);}#el_ii6R9p-Cs7{fill: url(#linear-gradient-3);}#el_b0lQ42anj5{fill: url(#linear-gradient-4);}#el_QdW0AZDDTY{fill: url(#linear-gradient-5);}#el_Ewx8EhbBzu{fill: url(#linear-gradient-6);}#el_kemFtNtAUe{fill: #f2e9d7;}#el_hJDrcS-r5O{fill: #0095aa;}#el_TQa-SNy8_V{fill: #ffc92b;}#el_5__K8TGr24{fill: #ffc92b;}#el_M5HGsaQ5NX{fill: #ffc92b;}#el_8KBJivq1Jb{fill: #0095aa;}#el_I832aA8mqL0{fill: #ffc92b;}#el__NmjT0RdF3b{fill: #ffc92b;}#el_J0Fz1gvtAGo{fill: #ffc92b;}#el_qFnOv3hSgrm{fill: #ffc92b;}#el_1SwV4ODs6tm{fill: #f2e9d7;}#el_OICco9fAfLv{fill: #0095aa;}#el_Ya7-OLuo1XR{fill: #5ac7d2;}#el_Du0-q0l_mC_an_QiqMksmam{-webkit-animation-fill-mode: backwards;animation-fill-mode: backwards;-webkit-transform: translate(149.99500274658203px, 149.99500274658203px) rotate(0deg) translate(-149.99500274658203px, -149.99500274658203px);transform: translate(149.99500274658203px, 149.99500274658203px) rotate(0deg) translate(-149.99500274658203px, -149.99500274658203px);-webkit-animation-name: kf_el_Du0-q0l_mC_an_QiqMksmam;animation-name: kf_el_Du0-q0l_mC_an_QiqMksmam;-webkit-animation-timing-function: cubic-bezier(0, 0, 1, 1);animation-timing-function: cubic-bezier(0, 0, 1, 1);}#el_sZAtXEkrGt{-webkit-animation-fill-mode: backwards;animation-fill-mode: backwards;opacity: 0;-webkit-animation-name: kf_el_sZAtXEkrGt_an_Ca2aV26Gx;animation-name: kf_el_sZAtXEkrGt_an_Ca2aV26Gx;-webkit-animation-timing-function: cubic-bezier(0.42, 0, 1, 1);animation-timing-function: cubic-bezier(0.42, 0, 1, 1);}#el_sZAtXEkrGt_an_zuzILaQ7g{-webkit-animation-fill-mode: backwards;animation-fill-mode: backwards;-webkit-transform: translate(150.0000057220459px, 141.2049674987793px) rotate(-180deg) translate(-150.0000057220459px, -141.2049674987793px);transform: translate(150.0000057220459px, 141.2049674987793px) rotate(-180deg) translate(-150.0000057220459px, -141.2049674987793px);-webkit-animation-name: kf_el_sZAtXEkrGt_an_zuzILaQ7g;animation-name: kf_el_sZAtXEkrGt_an_zuzILaQ7g;-webkit-animation-timing-function: cubic-bezier(0, 0, 0.58, 1);animation-timing-function: cubic-bezier(0, 0, 0.58, 1);}#el_5__K8TGr24_an_5306hAq6j{-webkit-animation-fill-mode: backwards;animation-fill-mode: backwards;-webkit-transform: translate(60.165000915527344px, 162.6449966430664px) rotate(0deg) translate(-60.165000915527344px, -162.6449966430664px);transform: translate(60.165000915527344px, 162.6449966430664px) rotate(0deg) translate(-60.165000915527344px, -162.6449966430664px);-webkit-animation-name: kf_el_5__K8TGr24_an_5306hAq6j;animation-name: kf_el_5__K8TGr24_an_5306hAq6j;-webkit-animation-timing-function: cubic-bezier(0, 0, 0.58, 1);animation-timing-function: cubic-bezier(0, 0, 0.58, 1);}#el_5__K8TGr24_an_4HBkYhCjm{-webkit-animation-fill-mode: backwards;animation-fill-mode: backwards;-webkit-transform: translate(60.165000915527344px, 162.6449966430664px) scale(0, 0) translate(-60.165000915527344px, -162.6449966430664px);transform: translate(60.165000915527344px, 162.6449966430664px) scale(0, 0) translate(-60.165000915527344px, -162.6449966430664px);-webkit-animation-name: kf_el_5__K8TGr24_an_4HBkYhCjm;animation-name: kf_el_5__K8TGr24_an_4HBkYhCjm;-webkit-animation-timing-function: cubic-bezier(0, 0, 0.58, 1);animation-timing-function: cubic-bezier(0, 0, 0.58, 1);}#el_M5HGsaQ5NX_an_GPc-b8np5{-webkit-animation-fill-mode: backwards;animation-fill-mode: backwards;-webkit-transform: translate(88.07500076293945px, 86.76000213623047px) rotate(0deg) translate(-88.07500076293945px, -86.76000213623047px);transform: translate(88.07500076293945px, 86.76000213623047px) rotate(0deg) translate(-88.07500076293945px, -86.76000213623047px);-webkit-animation-name: kf_el_M5HGsaQ5NX_an_GPc-b8np5;animation-name: kf_el_M5HGsaQ5NX_an_GPc-b8np5;-webkit-animation-timing-function: cubic-bezier(0.42, 0, 0.58, 1);animation-timing-function: cubic-bezier(0.42, 0, 0.58, 1);}#el_M5HGsaQ5NX_an_2ZuFwiiSn{-webkit-animation-fill-mode: backwards;animation-fill-mode: backwards;-webkit-transform: translate(88.07500076293945px, 86.76000213623047px) scale(0, 0) translate(-88.07500076293945px, -86.76000213623047px);transform: translate(88.07500076293945px, 86.76000213623047px) scale(0, 0) translate(-88.07500076293945px, -86.76000213623047px);-webkit-animation-name: kf_el_M5HGsaQ5NX_an_2ZuFwiiSn;animation-name: kf_el_M5HGsaQ5NX_an_2ZuFwiiSn;-webkit-animation-timing-function: cubic-bezier(0, 0, 0.58, 1);animation-timing-function: cubic-bezier(0, 0, 0.58, 1);}#el_I832aA8mqL0_an_Dkog4yGup{-webkit-animation-fill-mode: backwards;animation-fill-mode: backwards;-webkit-transform: translate(174.6550064086914px, 237.98499298095703px) scale(0, 0) translate(-174.6550064086914px, -237.98499298095703px);transform: translate(174.6550064086914px, 237.98499298095703px) scale(0, 0) translate(-174.6550064086914px, -237.98499298095703px);-webkit-animation-name: kf_el_I832aA8mqL0_an_Dkog4yGup;animation-name: kf_el_I832aA8mqL0_an_Dkog4yGup;-webkit-animation-timing-function: cubic-bezier(0, 0, 1, 1);animation-timing-function: cubic-bezier(0, 0, 1, 1);}#el_I832aA8mqL0_an_1I1wNnxka{-webkit-animation-fill-mode: backwards;animation-fill-mode: backwards;-webkit-transform: translate(174.6550064086914px, 237.98499298095703px) rotate(0deg) translate(-174.6550064086914px, -237.98499298095703px);transform: translate(174.6550064086914px, 237.98499298095703px) rotate(0deg) translate(-174.6550064086914px, -237.98499298095703px);-webkit-animation-name: kf_el_I832aA8mqL0_an_1I1wNnxka;animation-name: kf_el_I832aA8mqL0_an_1I1wNnxka;-webkit-animation-timing-function: cubic-bezier(0, 0, 0.58, 1);animation-timing-function: cubic-bezier(0, 0, 0.58, 1);}#el__NmjT0RdF3b_an_MRyWkdv4z{-webkit-animation-fill-mode: backwards;animation-fill-mode: backwards;-webkit-transform: translate(55.5px, 52.4900016784668px) scale(0, 0) translate(-55.5px, -52.4900016784668px);transform: translate(55.5px, 52.4900016784668px) scale(0, 0) translate(-55.5px, -52.4900016784668px);-webkit-animation-name: kf_el__NmjT0RdF3b_an_MRyWkdv4z;animation-name: kf_el__NmjT0RdF3b_an_MRyWkdv4z;-webkit-animation-timing-function: cubic-bezier(0, 0, 1, 1);animation-timing-function: cubic-bezier(0, 0, 1, 1);}#el__NmjT0RdF3b_an__gBp1W1wP{-webkit-animation-fill-mode: backwards;animation-fill-mode: backwards;-webkit-transform: translate(55.5px, 52.4900016784668px) rotate(0deg) translate(-55.5px, -52.4900016784668px);transform: translate(55.5px, 52.4900016784668px) rotate(0deg) translate(-55.5px, -52.4900016784668px);-webkit-animation-name: kf_el__NmjT0RdF3b_an__gBp1W1wP;animation-name: kf_el__NmjT0RdF3b_an__gBp1W1wP;-webkit-animation-timing-function: cubic-bezier(0, 0, 0.58, 1);animation-timing-function: cubic-bezier(0, 0, 0.58, 1);}#el_J0Fz1gvtAGo_an_84IC9sdex{-webkit-animation-fill-mode: backwards;animation-fill-mode: backwards;-webkit-transform: translate(217.9550018310547px, 162.6449966430664px) scale(0, 0) translate(-217.9550018310547px, -162.6449966430664px);transform: translate(217.9550018310547px, 162.6449966430664px) scale(0, 0) translate(-217.9550018310547px, -162.6449966430664px);-webkit-animation-name: kf_el_J0Fz1gvtAGo_an_84IC9sdex;animation-name: kf_el_J0Fz1gvtAGo_an_84IC9sdex;-webkit-animation-timing-function: cubic-bezier(0, 0, 0.58, 1);animation-timing-function: cubic-bezier(0, 0, 0.58, 1);}#el_J0Fz1gvtAGo_an_UeWW7e-Au{-webkit-animation-fill-mode: backwards;animation-fill-mode: backwards;-webkit-transform: translate(217.9550018310547px, 162.6449966430664px) rotate(0deg) translate(-217.9550018310547px, -162.6449966430664px);transform: translate(217.9550018310547px, 162.6449966430664px) rotate(0deg) translate(-217.9550018310547px, -162.6449966430664px);-webkit-animation-name: kf_el_J0Fz1gvtAGo_an_UeWW7e-Au;animation-name: kf_el_J0Fz1gvtAGo_an_UeWW7e-Au;-webkit-animation-timing-function: cubic-bezier(0, 0, 0.58, 1);animation-timing-function: cubic-bezier(0, 0, 0.58, 1);}#el_qFnOv3hSgrm_an_jinmPedt-{-webkit-animation-fill-mode: backwards;animation-fill-mode: backwards;-webkit-transform: translate(270.9250030517578px, 234.41500091552734px) scale(0, 0) translate(-270.9250030517578px, -234.41500091552734px);transform: translate(270.9250030517578px, 234.41500091552734px) scale(0, 0) translate(-270.9250030517578px, -234.41500091552734px);-webkit-animation-name: kf_el_qFnOv3hSgrm_an_jinmPedt-;animation-name: kf_el_qFnOv3hSgrm_an_jinmPedt-;-webkit-animation-timing-function: cubic-bezier(0, 0, 0.58, 1);animation-timing-function: cubic-bezier(0, 0, 0.58, 1);}#el_qFnOv3hSgrm_an_Aqp_yqq5I{-webkit-animation-fill-mode: backwards;animation-fill-mode: backwards;-webkit-transform: translate(270.9250030517578px, 234.41500091552734px) rotate(0deg) translate(-270.9250030517578px, -234.41500091552734px);transform: translate(270.9250030517578px, 234.41500091552734px) rotate(0deg) translate(-270.9250030517578px, -234.41500091552734px);-webkit-animation-name: kf_el_qFnOv3hSgrm_an_Aqp_yqq5I;animation-name: kf_el_qFnOv3hSgrm_an_Aqp_yqq5I;-webkit-animation-timing-function: cubic-bezier(0, 0, 0.58, 1);animation-timing-function: cubic-bezier(0, 0, 0.58, 1);}#el_1SwV4ODs6tm_an_pZ8Sg4zUr{-webkit-animation-fill-mode: backwards;animation-fill-mode: backwards;-webkit-transform: translate(92.08000135421753px, 212.31001996994019px) scale(0, 0) translate(-92.08000135421753px, -212.31001996994019px);transform: translate(92.08000135421753px, 212.31001996994019px) scale(0, 0) translate(-92.08000135421753px, -212.31001996994019px);-webkit-animation-name: kf_el_1SwV4ODs6tm_an_pZ8Sg4zUr;animation-name: kf_el_1SwV4ODs6tm_an_pZ8Sg4zUr;-webkit-animation-timing-function: cubic-bezier(0, 0, 1, 1);animation-timing-function: cubic-bezier(0, 0, 1, 1);}#el_jTcAxJ9dvDH_an_quJQldc0u{-webkit-animation-fill-mode: backwards;animation-fill-mode: backwards;-webkit-transform: translate(69.47501182556152px, 209.56491088867188px) rotate(0deg) translate(-69.47501182556152px, -209.56491088867188px);transform: translate(69.47501182556152px, 209.56491088867188px) rotate(0deg) translate(-69.47501182556152px, -209.56491088867188px);-webkit-animation-name: kf_el_jTcAxJ9dvDH_an_quJQldc0u;animation-name: kf_el_jTcAxJ9dvDH_an_quJQldc0u;-webkit-animation-timing-function: cubic-bezier(0, 0, 1, 1);animation-timing-function: cubic-bezier(0, 0, 1, 1);}#el_1MIzvhxP-Lc_an_e5FlsYXly{-webkit-animation-fill-mode: backwards;animation-fill-mode: backwards;-webkit-transform: translate(227.81499481201172px, 70.3349666595459px) rotate(0deg) translate(-227.81499481201172px, -70.3349666595459px);transform: translate(227.81499481201172px, 70.3349666595459px) rotate(0deg) translate(-227.81499481201172px, -70.3349666595459px);-webkit-animation-name: kf_el_1MIzvhxP-Lc_an_e5FlsYXly;animation-name: kf_el_1MIzvhxP-Lc_an_e5FlsYXly;-webkit-animation-timing-function: cubic-bezier(0, 0, 1, 1);animation-timing-function: cubic-bezier(0, 0, 1, 1);}</style><defs><linearGradient id="linear-gradient" x1="150" y1="234.04" x2="150" y2="65.96" gradientUnits="userSpaceOnUse"><stop offset="0" stop-color="#ef4234"/><stop offset="1" stop-color="#f1672f"/></linearGradient><linearGradient id="linear-gradient-2" x1="104.49" y1="118.85" x2="158.13" y2="118.85" gradientUnits="userSpaceOnUse"><stop offset="0" stop-color="#e6e6e5"/><stop offset="1" stop-color="#fff"/></linearGradient><linearGradient id="linear-gradient-3" x1="130.38" y1="151.21" x2="167.07" y2="151.21" xlink:href="#linear-gradient-2"/><linearGradient id="linear-gradient-4" x1="141.93" y1="183.34" x2="194.75" y2="183.34" xlink:href="#linear-gradient-2"/><linearGradient id="linear-gradient-5" x1="164.14" y1="118.85" x2="205.82" y2="118.85" xlink:href="#linear-gradient-2"/><linearGradient id="linear-gradient-6" x1="94.18" y1="183.34" x2="135.86" y2="183.34" xlink:href="#linear-gradient-2"/></defs><title>Juntoscope</title><g id="el_HuB_rklFNu" data-name="Layer 1"><g id="el_Du0-q0l_mC_an_QiqMksmam" data-animator-group="true" data-animator-type="1"><g id="el_Du0-q0l_mC"><rect x="65.96" y="65.96" width="168.07" height="168.07" rx="22.04" ry="22.04" id="el_DDekLQb1V3"/><path d="M155.67,100.13c-9.3-.28-19.72-.06-21.39-.06a7,7,0,0,0-5.4,2c-1.22,1.31-2.16,3.48-2.8,6.51l-8.55,40h-13l8.88-41.59a32.92,32.92,0,0,1,3.77-10.42A14,14,0,0,1,123.23,91,23.32,23.32,0,0,1,133,89.26l25.15-.07Z" id="el_kjfzZZj_N-"/><path d="M137.48,183.29a26.86,26.86,0,0,1-7.1-1V171.68a25.18,25.18,0,0,0,5.8.8,7.06,7.06,0,0,0,5.41-2q1.83-2,2.8-6.5L154,119.14h13l-10,46.5a33.24,33.24,0,0,1-3.77,10.43,14,14,0,0,1-6.09,5.48A23.33,23.33,0,0,1,137.48,183.29Z" id="el_ii6R9p-Cs7"/><path d="M144.11,199.87c5.54,0,19.72.06,21.38.06a7,7,0,0,0,5.41-2c1.22-1.31,2.16-3.48,2.8-6.51l8-35.57h13.05l-8.34,37.21a32.92,32.92,0,0,1-3.77,10.42,14,14,0,0,1-6.09,5.49,23.32,23.32,0,0,1-9.75,1.74l-24.87.07Z" id="el_b0lQ42anj5"/><path d="M192,105.32c.55-3-.27-4.65-3.82-4.92-1.94-.15-24.05-.25-24.05,0l2.46-11.21s21.59,0,31.7.55,7.1,10.93,7.1,10.93L204,108.55l-7.72,40H183.19c.35-3.28,5.66-26.49,8-39.08C191.4,108.32,191.57,107.75,192,105.32Z" id="el_QdW0AZDDTY"/><path d="M108,194.68c-.55,3,.27,4.65,3.82,4.92,1.94.15,22.54,0,24.05,0l-2.46,11.21s-21.59,0-31.7-.55-7.1-10.93-7.1-10.93L96,191.45l6.9-35.57h13c-.35,3.28-4.84,22.11-7.18,34.7C108.6,191.68,108.43,192.25,108,194.68Z" id="el_Ewx8EhbBzu"/></g></g><g id="el_sZAtXEkrGt_an_zuzILaQ7g" data-animator-group="true" data-animator-type="1"><g id="el_sZAtXEkrGt"><circle cx="254.58" cy="110.63" r="4.83" id="el_kemFtNtAUe"/><circle cx="234.34" cy="179.76" r="3.8" id="el_hJDrcS-r5O"/><polygon points="226.83 194.37 228.25 196.96 230.83 198.37 228.25 199.79 226.83 202.38 225.42 199.79 222.83 198.37 225.42 196.96 226.83 194.37" id="el_TQa-SNy8_V"/><g id="el_5__K8TGr24_an_5306hAq6j" data-animator-group="true" data-animator-type="1"><g id="el_5__K8TGr24_an_4HBkYhCjm" data-animator-group="true" data-animator-type="2"><polygon points="60.16 157.09 62.13 160.68 65.72 162.64 62.13 164.61 60.16 168.2 58.2 164.61 54.61 162.64 58.2 160.68 60.16 157.09" id="el_5__K8TGr24"/></g></g><g id="el_M5HGsaQ5NX_an_GPc-b8np5" data-animator-group="true" data-animator-type="1"><g id="el_M5HGsaQ5NX_an_2ZuFwiiSn" data-animator-group="true" data-animator-type="2"><polygon points="88.07 82.76 89.49 85.34 92.08 86.76 89.49 88.17 88.07 90.76 86.66 88.17 84.07 86.76 86.66 85.34 88.07 82.76" id="el_M5HGsaQ5NX"/></g></g><circle cx="27.32" cy="128.87" r="3.8" id="el_8KBJivq1Jb"/><g id="el_I832aA8mqL0_an_1I1wNnxka" data-animator-group="true" data-animator-type="1"><g id="el_I832aA8mqL0_an_Dkog4yGup" data-animator-group="true" data-animator-type="2"><polygon points="174.65 232.43 176.62 236.02 180.21 237.98 176.62 239.95 174.65 243.54 172.69 239.95 169.1 237.98 172.69 236.02 174.65 232.43" id="el_I832aA8mqL0"/></g></g><g id="el__NmjT0RdF3b_an__gBp1W1wP" data-animator-group="true" data-animator-type="1"><g id="el__NmjT0RdF3b_an_MRyWkdv4z" data-animator-group="true" data-animator-type="2"><polygon points="55.5 48.49 56.91 51.07 59.5 52.49 56.91 53.91 55.5 56.49 54.08 53.91 51.5 52.49 54.08 51.07 55.5 48.49" id="el__NmjT0RdF3b"/></g></g><g id="el_J0Fz1gvtAGo_an_UeWW7e-Au" data-animator-group="true" data-animator-type="1"><g id="el_J0Fz1gvtAGo_an_84IC9sdex" data-animator-group="true" data-animator-type="2"><polygon points="217.96 158.64 219.37 161.23 221.96 162.64 219.37 164.06 217.96 166.65 216.54 164.06 213.95 162.64 216.54 161.23 217.96 158.64" id="el_J0Fz1gvtAGo"/></g></g><g id="el_qFnOv3hSgrm_an_Aqp_yqq5I" data-animator-group="true" data-animator-type="1"><g id="el_qFnOv3hSgrm_an_jinmPedt-" data-animator-group="true" data-animator-type="2"><polygon points="270.93 228.86 272.89 232.45 276.48 234.42 272.89 236.38 270.93 239.97 268.96 236.38 265.37 234.42 268.96 232.45 270.93 228.86" id="el_qFnOv3hSgrm"/></g></g><g id="el_1SwV4ODs6tm_an_pZ8Sg4zUr" data-animator-group="true" data-animator-type="2"><circle cx="92.08" cy="212.31" r="5.68" id="el_1SwV4ODs6tm"/></g><g id="el_jTcAxJ9dvDH_an_quJQldc0u" data-animator-group="true" data-animator-type="1"><g id="el_jTcAxJ9dvDH" data-name="el UG-qyrBDaCt"><g id="el_hEo5KPazoed" data-name="el BKmUh3606VV"><path id="el_OICco9fAfLv" data-name="el EWOtLLLbvjA" d="M69.41,221.2h.22a.84.84,0,0,0,.82-.72l.18-1.26a.85.85,0,0,1,.67-.71,6.72,6.72,0,0,0,1.17-.31.83.83,0,0,1,.92.29l.79,1a.81.81,0,0,0,1.07.22l.19-.12a.84.84,0,0,0,.36-1l-.48-1.2a.8.8,0,0,1,.22-.93,11.63,11.63,0,0,0,.86-.86.8.8,0,0,1,.93-.22l1.2.48a.83.83,0,0,0,1-.36l.12-.19a.82.82,0,0,0-.21-1.07l-1-.82a.82.82,0,0,1-.27-.92,12,12,0,0,0,.3-1.18.84.84,0,0,1,.7-.66l1.26-.19a.84.84,0,0,0,.72-.82v-.22a.85.85,0,0,0-.72-.83l-1.26-.17a.85.85,0,0,1-.7-.69,7.91,7.91,0,0,0-.3-1.16.82.82,0,0,1,.27-.92l1-.76a.82.82,0,0,0,.2-1.06l-.2-.21a.81.81,0,0,0-1-.35l-1.2.47a.82.82,0,0,1-.94-.22,9.74,9.74,0,0,0-.85-.85.82.82,0,0,1-.22-.94l.48-1.19a.83.83,0,0,0-.36-1l-.19-.12a.83.83,0,0,0-1.07.2l-.79,1a.81.81,0,0,1-.92.27c-.39-.12-.76-.22-1.17-.31a.82.82,0,0,1-.67-.7l-.19-1.26a.81.81,0,0,0-.81-.71h-.23a.8.8,0,0,0-.81.71l-.19,1.26a.84.84,0,0,1-.67.7l-1.17.31a.84.84,0,0,1-.92-.27l-.79-1a.83.83,0,0,0-1.07-.2l-.19.12a.83.83,0,0,0-.36,1l.48,1.19a.82.82,0,0,1-.22.94,7.58,7.58,0,0,0-.85.85.82.82,0,0,1-.94.22l-1.2-.47a.84.84,0,0,0-1,.35l-.1.19a.83.83,0,0,0,.21,1.08l1,.78a.85.85,0,0,1,.27.92,9.76,9.76,0,0,0-.31,1.18.81.81,0,0,1-.7.66l-1.26.19a.85.85,0,0,0-.72.82v.24a.85.85,0,0,0,.74.82l1.26.18a.84.84,0,0,1,.7.67,9.15,9.15,0,0,0,.31,1.17.85.85,0,0,1-.28.93l-1,.78a.82.82,0,0,0-.21,1.07l.1.19a.84.84,0,0,0,1,.36l1.2-.48a.82.82,0,0,1,.94.22,6.28,6.28,0,0,0,.85.86.87.87,0,0,1,.22.93l-.48,1.2a.82.82,0,0,0,.34,1l.21.12a.85.85,0,0,0,1.07-.21l.79-1a.81.81,0,0,1,.92-.27,11.8,11.8,0,0,0,1.17.3.86.86,0,0,1,.67.7l.17,1.26a.85.85,0,0,0,.83.72Zm.1-5.83a5.83,5.83,0,1,1,5.83-5.83h0A5.83,5.83,0,0,1,69.51,215.37Z"/></g></g></g><g id="el_1MIzvhxP-Lc_an_e5FlsYXly" data-animator-group="true" data-animator-type="1"><g id="el_1MIzvhxP-Lc" data-name="el UG-qyrBDaCt"><g id="el_BYAZwr4Ho7F" data-name="el BKmUh3606VV"><path id="el_Ya7-OLuo1XR" data-name="el EWOtLLLbvjA" d="M227.62,101.8h.6a2.25,2.25,0,0,0,2.21-1.93l.51-3.41a2.29,2.29,0,0,1,1.79-1.93,19.05,19.05,0,0,0,3.18-.83,2.27,2.27,0,0,1,2.49.78l2.12,2.67a2.21,2.21,0,0,0,2.9.6l.5-.32a2.25,2.25,0,0,0,1-2.76l-1.29-3.23a2.21,2.21,0,0,1,.6-2.53,27.73,27.73,0,0,0,2.3-2.3A2.21,2.21,0,0,1,249,86l3.23,1.29a2.25,2.25,0,0,0,2.76-1l.32-.5a2.27,2.27,0,0,0-.55-2.91l-2.72-2.21a2.24,2.24,0,0,1-.73-2.48,32.26,32.26,0,0,0,.82-3.18,2.25,2.25,0,0,1,1.89-1.79l3.41-.51a2.26,2.26,0,0,0,1.93-2.21v-.6a2.3,2.3,0,0,0-1.93-2.26l-3.41-.46a2.25,2.25,0,0,1-1.89-1.84,19,19,0,0,0-.82-3.13,2.2,2.2,0,0,1,.73-2.48l2.81-2.08a2.2,2.2,0,0,0,.55-2.85l-.55-.55a2.2,2.2,0,0,0-2.76-1l-3.22,1.29a2.22,2.22,0,0,1-2.54-.6,27.73,27.73,0,0,0-2.3-2.3,2.21,2.21,0,0,1-.6-2.53L244.75,46a2.25,2.25,0,0,0-1-2.76l-.5-.32a2.25,2.25,0,0,0-2.9.55l-2.12,2.72a2.16,2.16,0,0,1-2.49.73c-1.06-.32-2.07-.59-3.17-.82a2.23,2.23,0,0,1-1.8-1.89l-.51-3.41a2.24,2.24,0,0,0-2.21-1.93h-.59a2.21,2.21,0,0,0-2.21,1.93l-.51,3.41a2.28,2.28,0,0,1-1.8,1.89l-3.17.82a2.26,2.26,0,0,1-2.49-.73l-2.12-2.72a2.25,2.25,0,0,0-2.9-.55l-.5.32a2.25,2.25,0,0,0-1,2.76l1.29,3.23a2.21,2.21,0,0,1-.6,2.53,22.7,22.7,0,0,0-2.3,2.3,2.21,2.21,0,0,1-2.53.6l-3.23-1.29a2.26,2.26,0,0,0-2.81,1l-.27.5a2.2,2.2,0,0,0,.55,2.9l2.67,2.12a2.26,2.26,0,0,1,.74,2.49,26.86,26.86,0,0,0-.83,3.17,2.21,2.21,0,0,1-1.89,1.8l-3.41.51A2.25,2.25,0,0,0,196.27,70v.64a2.25,2.25,0,0,0,2,2.21l3.41.51a2.25,2.25,0,0,1,1.88,1.79,28.55,28.55,0,0,0,.83,3.18,2.26,2.26,0,0,1-.73,2.49l-2.72,2.11a2.27,2.27,0,0,0-.55,2.91l.27.5a2.26,2.26,0,0,0,2.81,1L206.68,86a2.21,2.21,0,0,1,2.53.6,17.85,17.85,0,0,0,2.3,2.3,2.35,2.35,0,0,1,.6,2.53l-1.29,3.23a2.2,2.2,0,0,0,.92,2.76l.55.32a2.3,2.3,0,0,0,2.9-.55l2.12-2.72a2.22,2.22,0,0,1,2.49-.74,31.42,31.42,0,0,0,3.17.83,2.3,2.3,0,0,1,1.8,1.89l.46,3.41a2.3,2.3,0,0,0,2.26,1.93Zm.28-15.74a15.75,15.75,0,1,1,15.75-15.75h0A15.75,15.75,0,0,1,227.9,86.06Z"/></g></g></g></g></g></g></svg>