<svg id="el_RZEGSZIeC" data-name="Layer 1" xmlns="http://www.w3.org/2000/svg" viewBox="0 0 300 300"><style>@-webkit-keyframes el_F1Gb3Z6yzj_Animation{0%{opacity: 1;}26.67%{opacity: 0;}50%{opacity: 1;}80%{opacity: 0;}100%{opacity: 1;}}@keyframes el_F1Gb3Z6yzj_Animation{0%{opacity: 1;}26.67%{opacity: 0;}50%{opacity: 1;}80%{opacity: 0;}100%{opacity: 1;}}@-webkit-keyframes el_40dHlRB9MR_1Yd0SxnCV_Animation{0%{-webkit-transform: translate(149.71000289916992px, 11px) translate(-149.71000289916992px, -11px) translate(0px, 0px);transform: translate(149.71000289916992px, 11px) translate(-149.71000289916992px, -11px) translate(0px, 0px);}30%{-webkit-transform: translate(149.71000289916992px, 11px) translate(-149.71000289916992px, -11px) translate(0px, 5px);transform: translate(149.71000289916992px, 11px) translate(-149.71000289916992px, -11px) translate(0px, 5px);}70%{-webkit-transform: translate(149.71000289916992px, 11px) translate(-149.71000289916992px, -11px) translate(0px, -5px);transform: translate(149.71000289916992px, 11px) translate(-149.71000289916992px, -11px) translate(0px, -5px);}100%{-webkit-transform: translate(149.71000289916992px, 11px) translate(-149.71000289916992px, -11px) translate(0px, 0px);transform: translate(149.71000289916992px, 11px) translate(-149.71000289916992px, -11px) translate(0px, 0px);}}@keyframes el_40dHlRB9MR_1Yd0SxnCV_Animation{0%{-webkit-transform: translate(149.71000289916992px, 11px) translate(-149.71000289916992px, -11px) translate(0px, 0px);transform: translate(149.71000289916992px, 11px) translate(-149.71000289916992px, -11px) translate(0px, 0px);}30%{-webkit-transform: translate(149.71000289916992px, 11px) translate(-149.71000289916992px, -11px) translate(0px, 5px);transform: translate(149.71000289916992px, 11px) translate(-149.71000289916992px, -11px) translate(0px, 5px);}70%{-webkit-transform: translate(149.71000289916992px, 11px) translate(-149.71000289916992px, -11px) translate(0px, -5px);transform: translate(149.71000289916992px, 11px) translate(-149.71000289916992px, -11px) translate(0px, -5px);}100%{-webkit-transform: translate(149.71000289916992px, 11px) translate(-149.71000289916992px, -11px) translate(0px, 0px);transform: translate(149.71000289916992px, 11px) translate(-149.71000289916992px, -11px) translate(0px, 0px);}}#el_RZEGSZIeC *{-webkit-animation-duration: 1s;animation-duration: 1s;-webkit-animation-play-state: running;animation-play-state: running;-webkit-animation-timing-function: cubic-bezier(0, 0, 1, 1);animation-timing-function: cubic-bezier(0, 0, 1, 1);}#el_H0TMsM0dul{fill: #f16b38;}#el_qJrQZCNLvp{fill: #ee363e;}#el_RUfNNq18ue{fill: #fcd0a8;}#el_bvqhAAyzLZ{fill: #f58a30;}#el_elA9M8WNXo{fill: #addee2;}#el_YitLEMayjP{fill: #f58a30;}#el_xKn8fAdgq_{fill: #59c5d1;}#el_uCZXvXoeL0{fill: #f16b38;}#el_1DqTEXUFbv{fill: #f58a30;}#el_219pv6xFsT{fill: #9aa9aa;}#el_hw7SdB3Mbi{fill: #f16b38;}#el_ZppPDwgSnM{fill: #0094a9;}#el_iGexZEbgx21{fill: #f16b38;}#el_lcvdYgty3N0{fill: #fff;}#el_M1VDzOL39Xw{fill: #fff;}#el_RAFzAl-jaHR{fill: #fff;}#el_40dHlRB9MR_1Yd0SxnCV{-webkit-transform: translate(149.71000289916992px, 11px) translate(-149.71000289916992px, -11px) translate(0px, 0px);transform: translate(149.71000289916992px, 11px) translate(-149.71000289916992px, -11px) translate(0px, 0px);}#el_RZEGSZIeC:hover #el_40dHlRB9MR_1Yd0SxnCV{-webkit-animation-name: el_40dHlRB9MR_1Yd0SxnCV_Animation;animation-name: el_40dHlRB9MR_1Yd0SxnCV_Animation;}#el_F1Gb3Z6yzj{opacity: 1;}#el_RZEGSZIeC:hover #el_F1Gb3Z6yzj{-webkit-animation-name: el_F1Gb3Z6yzj_Animation;animation-name: el_F1Gb3Z6yzj_Animation;}</style><defs/><title>rocket</title><g id="el_40dHlRB9MR_1Yd0SxnCV" data-animator-group="true" data-animator-type="0"><g id="el_40dHlRB9MR"><g id="el_F1Gb3Z6yzj"><path d="M151.82,226.63A23.42,23.42,0,0,0,128.42,250c0,11.38,16.54,33.83,19.85,38.22a4.45,4.45,0,0,0,7.09,0c3.31-4.39,19.85-26.84,19.85-38.22A23.41,23.41,0,0,0,151.82,226.63Z" id="el_H0TMsM0dul"/><path d="M128.42,250c0,11.38,16.54,33.83,19.85,38.22a4.44,4.44,0,0,0,3.55,1.76V226.63A23.42,23.42,0,0,0,128.42,250Z" id="el_qJrQZCNLvp"/><path d="M158.92,249.91a7.11,7.11,0,0,0-14.21,0c.28,2.4,3.13,8.1,7.11,14.61C155.8,258,158.64,252.32,158.92,249.91Z" id="el_RUfNNq18ue"/></g><g id="el_xni9c7h5_Q"><path d="M58.38,248.94a3.69,3.69,0,0,1-6.16-2.76l.06-35.43c-.24-5.21,0-6.25,2.64-8.73L85.41,174.5a4.5,4.5,0,0,1,6.87,1.11,3.58,3.58,0,0,1,.53,1.92v33.83c0,3.15.76,7-1.72,9.33C88.11,223.51,63.3,244.54,58.38,248.94Z" id="el_bvqhAAyzLZ"/><path d="M211,86.85H92.59a4.44,4.44,0,0,0-4.44,4.44v85.29A4.44,4.44,0,0,0,92.59,181H211a4.44,4.44,0,0,0,4.45-4.44V91.29A4.44,4.44,0,0,0,211,86.85Z" id="el_elA9M8WNXo"/><path d="M155.32,12.74a4.45,4.45,0,0,0-7,0L89.09,88.55a4.43,4.43,0,0,0-.49,4.69H215a4.46,4.46,0,0,0-.5-4.69Z" id="el_YitLEMayjP"/><path d="M151.82,103.43a30.51,30.51,0,1,0,30.5,30.5A30.54,30.54,0,0,0,151.82,103.43Z" id="el_xKn8fAdgq_"/><path d="M241,247.71A3.7,3.7,0,0,0,247.2,245l-.06-35.43c.24-5.21,0-6.25-2.64-8.73L214,173.27a4.52,4.52,0,0,0-6.88,1.1,3.62,3.62,0,0,0-.53,1.93v33.82c0,3.16-.76,7,1.72,9.34C211.3,222.27,236.12,243.31,241,247.71Z" id="el_uCZXvXoeL0"/><path d="M215.49,172.14H88.15v44.71a4.44,4.44,0,0,0,4.44,4.45H211a4.45,4.45,0,0,0,4.45-4.45Z" id="el_1DqTEXUFbv"/><path d="M92.59,86.85a4.44,4.44,0,0,0-4.44,4.44v85.29A4.44,4.44,0,0,0,92.59,181h59.23V86.85Z" id="el_219pv6xFsT"/><path d="M148.32,12.74,89.09,88.55a4.43,4.43,0,0,0-.49,4.69h63.22V11A4.45,4.45,0,0,0,148.32,12.74Z" id="el_hw7SdB3Mbi"/><path d="M121.31,133.93a30.55,30.55,0,0,0,30.51,30.51v-61A30.54,30.54,0,0,0,121.31,133.93Z" id="el_ZppPDwgSnM"/><path d="M88.15,172.14v44.71a4.44,4.44,0,0,0,4.44,4.45h59.23V172.14Z" id="el_iGexZEbgx21"/><path d="M142.34,140.74a4.44,4.44,0,0,1-3.14-7.58L151,121.32a4.44,4.44,0,0,1,6.29,6.28l-11.85,11.84A4.41,4.41,0,0,1,142.34,140.74Z" id="el_lcvdYgty3N0"/><path d="M154.19,147.85a4.44,4.44,0,0,1-3.15-7.58l7.11-7.11a4.44,4.44,0,0,1,6.28,6.28l-7.1,7.11A4.43,4.43,0,0,1,154.19,147.85Z" id="el_M1VDzOL39Xw"/><path d="M196.83,159.7a4.44,4.44,0,0,1-4.44-4.44V112.61a4.44,4.44,0,1,1,8.88,0v42.65A4.44,4.44,0,0,1,196.83,159.7Z" id="el_RAFzAl-jaHR"/></g></g></g></svg>