<svg id="el_ujdXF9iow" data-name="Layer 1" xmlns="http://www.w3.org/2000/svg" viewBox="0 0 300 300"><style>@-webkit-keyframes el_FJv4SrXYg9_TfKA2_QVa_Animation{20%{-webkit-transform: translate(120.1450424194336px, 121.68601608276367px) scale(1, 1) translate(-120.1450424194336px, -121.68601608276367px);transform: translate(120.1450424194336px, 121.68601608276367px) scale(1, 1) translate(-120.1450424194336px, -121.68601608276367px);}46.67%{-webkit-transform: translate(120.1450424194336px, 121.68601608276367px) scale(0.5, 0.5) translate(-120.1450424194336px, -121.68601608276367px);transform: translate(120.1450424194336px, 121.68601608276367px) scale(0.5, 0.5) translate(-120.1450424194336px, -121.68601608276367px);}100%{-webkit-transform: translate(120.1450424194336px, 121.68601608276367px) scale(1, 1) translate(-120.1450424194336px, -121.68601608276367px);transform: translate(120.1450424194336px, 121.68601608276367px) scale(1, 1) translate(-120.1450424194336px, -121.68601608276367px);}0%{-webkit-transform: translate(120.1450424194336px, 121.68601608276367px) scale(1, 1) translate(-120.1450424194336px, -121.68601608276367px);transform: translate(120.1450424194336px, 121.68601608276367px) scale(1, 1) translate(-120.1450424194336px, -121.68601608276367px);}}@keyframes el_FJv4SrXYg9_TfKA2_QVa_Animation{20%{-webkit-transform: translate(120.1450424194336px, 121.68601608276367px) scale(1, 1) translate(-120.1450424194336px, -121.68601608276367px);transform: translate(120.1450424194336px, 121.68601608276367px) scale(1, 1) translate(-120.1450424194336px, -121.68601608276367px);}46.67%{-webkit-transform: translate(120.1450424194336px, 121.68601608276367px) scale(0.5, 0.5) translate(-120.1450424194336px, -121.68601608276367px);transform: translate(120.1450424194336px, 121.68601608276367px) scale(0.5, 0.5) translate(-120.1450424194336px, -121.68601608276367px);}100%{-webkit-transform: translate(120.1450424194336px, 121.68601608276367px) scale(1, 1) translate(-120.1450424194336px, -121.68601608276367px);transform: translate(120.1450424194336px, 121.68601608276367px) scale(1, 1) translate(-120.1450424194336px, -121.68601608276367px);}0%{-webkit-transform: translate(120.1450424194336px, 121.68601608276367px) scale(1, 1) translate(-120.1450424194336px, -121.68601608276367px);transform: translate(120.1450424194336px, 121.68601608276367px) scale(1, 1) translate(-120.1450424194336px, -121.68601608276367px);}}@-webkit-keyframes el_o7SalROwj6h_L-2FrUkxd_Animation{0%{-webkit-transform: translate(194.67002868652344px, 154.81500244140625px) rotate(0deg) translate(-194.67002868652344px, -154.81500244140625px);transform: translate(194.67002868652344px, 154.81500244140625px) rotate(0deg) translate(-194.67002868652344px, -154.81500244140625px);}20%{-webkit-transform: translate(194.67002868652344px, 154.81500244140625px) rotate(-5deg) translate(-194.67002868652344px, -154.81500244140625px);transform: translate(194.67002868652344px, 154.81500244140625px) rotate(-5deg) translate(-194.67002868652344px, -154.81500244140625px);}33.33%{-webkit-transform: translate(194.67002868652344px, 154.81500244140625px) rotate(0deg) translate(-194.67002868652344px, -154.81500244140625px);transform: translate(194.67002868652344px, 154.81500244140625px) rotate(0deg) translate(-194.67002868652344px, -154.81500244140625px);}100%{-webkit-transform: translate(194.67002868652344px, 154.81500244140625px) rotate(0deg) translate(-194.67002868652344px, -154.81500244140625px);transform: translate(194.67002868652344px, 154.81500244140625px) rotate(0deg) translate(-194.67002868652344px, -154.81500244140625px);}}@keyframes el_o7SalROwj6h_L-2FrUkxd_Animation{0%{-webkit-transform: translate(194.67002868652344px, 154.81500244140625px) rotate(0deg) translate(-194.67002868652344px, -154.81500244140625px);transform: translate(194.67002868652344px, 154.81500244140625px) rotate(0deg) translate(-194.67002868652344px, -154.81500244140625px);}20%{-webkit-transform: translate(194.67002868652344px, 154.81500244140625px) rotate(-5deg) translate(-194.67002868652344px, -154.81500244140625px);transform: translate(194.67002868652344px, 154.81500244140625px) rotate(-5deg) translate(-194.67002868652344px, -154.81500244140625px);}33.33%{-webkit-transform: translate(194.67002868652344px, 154.81500244140625px) rotate(0deg) translate(-194.67002868652344px, -154.81500244140625px);transform: translate(194.67002868652344px, 154.81500244140625px) rotate(0deg) translate(-194.67002868652344px, -154.81500244140625px);}100%{-webkit-transform: translate(194.67002868652344px, 154.81500244140625px) rotate(0deg) translate(-194.67002868652344px, -154.81500244140625px);transform: translate(194.67002868652344px, 154.81500244140625px) rotate(0deg) translate(-194.67002868652344px, -154.81500244140625px);}}#el_ujdXF9iow *{-webkit-animation-duration: 1.5s;animation-duration: 1.5s;-webkit-animation-play-state: running;animation-play-state: running;-webkit-animation-timing-function: cubic-bezier(0, 0, 1, 1);animation-timing-function: cubic-bezier(0, 0, 1, 1);}#el_rsPJIkJRAM{fill: #f2b762;}#el_-qWIRXgNr1{fill: #f2b762;}#el_a0C6Hggw2j{fill: #f2b762;}#el_S2270wGo-W{fill: #e5e9e9;}#el_G03Hgar9Fc{fill: #cdd4d4;}#el_kGvMSofdYn{fill: #9aa9aa;}#el_yMII866loK{fill: #697f82;}#el_BqaKMx2B50{fill: #697f82;}#el_YCJVSE0EUe{fill: #375558;}#el_BYC-V8MRQm{fill: #9aa9aa;}#el_GKDjw8NpVm{fill: #697f82;}#el_tzyCA4ZQaL{fill: #f16b38;}#el_tCWX1lJdRb{fill: #f0594a;}#el_fBYphzPXhJ{fill: #0094a9;}#el_xytFLaq5bEg{fill: #f58a30;opacity: 0.5;}#el_hHBRD1frJ5F{fill: #f2b762;}#el_o7SalROwj6h_L-2FrUkxd{-webkit-transform: translate(194.67002868652344px, 154.81500244140625px) rotate(0deg) translate(-194.67002868652344px, -154.81500244140625px);transform: translate(194.67002868652344px, 154.81500244140625px) rotate(0deg) translate(-194.67002868652344px, -154.81500244140625px);}#el_ujdXF9iow:hover #el_o7SalROwj6h_L-2FrUkxd{-webkit-animation-name: el_o7SalROwj6h_L-2FrUkxd_Animation;animation-name: el_o7SalROwj6h_L-2FrUkxd_Animation;}#el_FJv4SrXYg9_TfKA2_QVa{-webkit-transform: translate(120.1450424194336px, 121.68601608276367px) scale(1, 1) translate(-120.1450424194336px, -121.68601608276367px);transform: translate(120.1450424194336px, 121.68601608276367px) scale(1, 1) translate(-120.1450424194336px, -121.68601608276367px);}#el_ujdXF9iow:hover #el_FJv4SrXYg9_TfKA2_QVa{-webkit-animation-name: el_FJv4SrXYg9_TfKA2_QVa_Animation;animation-name: el_FJv4SrXYg9_TfKA2_QVa_Animation;}</style><defs/><title>phone-01</title><line x1="178.6" y1="35.65" x2="184.54" y2="41.73" id="el_rsPJIkJRAM"/><path d="M181.57,27.77l-3,203.66h51.88V196.15S249.14,138.84,251,127.5s3.6-17.34-.81-26.16-46.53-49.17-46.53-49.17-12.15-14-19.39-14" id="el_-qWIRXgNr1"/><rect x="157.65" y="192.84" width="72.83" height="88.98" id="el_a0C6Hggw2j"/><path d="M174.85,236.81H66a9.45,9.45,0,0,1-9.45-9.45V19.69A12.69,12.69,0,0,1,69.21,7H174.85a9.48,9.48,0,0,1,9.45,9.46v210.9A9.45,9.45,0,0,1,174.85,236.81Z" id="el_S2270wGo-W"/><path d="M65.16,236.81a8.63,8.63,0,0,1-8.63-8.63V18.86C56.53,14.1,60.39,7,65.16,7h55.25V236.81Z" id="el_G03Hgar9Fc"/><path d="M184.3,51.92H56.53V15.19c0-2.74,3.86-8.19,8.63-8.19H175.67c4.77,0,8.63,5.45,8.63,8.19Z" id="el_kGvMSofdYn"/><path d="M56.53,51.92V15.19c0-2.74,3.86-8.19,8.63-8.19h55.25V51.92Z" id="el_yMII866loK"/><path d="M129.62,29.62H111.21c-4.77,0-8.64,2.71-8.64,6.05s3.87,6.06,8.64,6.06h18.41c4.77,0,8.64-2.71,8.64-6.06S134.39,29.62,129.62,29.62Z" id="el_BqaKMx2B50"/><path d="M111.21,41.73c-4.77,0-8.64-2.71-8.64-6.06s3.87-6.05,8.64-6.05h9.2V41.73Z" id="el_YCJVSE0EUe"/><path d="M184.3,212.36H56.53v16.26c0,2.74,3.86,8.19,8.63,8.19H175.67c4.77,0,8.63-5.45,8.63-8.19Z" id="el_BYC-V8MRQm"/><path d="M56.53,212.36v16.26c0,2.74,3.86,8.19,8.63,8.19h55.25V212.36Z" id="el_GKDjw8NpVm"/><g id="el_FJv4SrXYg9_TfKA2_QVa" data-animator-group="true" data-animator-type="2"><g id="el_FJv4SrXYg9"><path d="M153,82.94c-6-3.22-16.51-4.78-32.86,5.06-16.34-9.84-26.82-8.28-32.85-5.06-7.83,4.19-12.13,13.15-12.13,25.23,0,22.61,37.16,50.45,41.39,53.55a6.09,6.09,0,0,0,7.18,0c4.24-3.1,41.4-30.94,41.4-53.55C165.15,96.09,160.84,87.13,153,82.94Z" id="el_tzyCA4ZQaL"/><path d="M120.16,88c-16.34-9.84-26.82-8.28-32.85-5.06-7.83,4.19-12.13,13.15-12.13,25.23,0,22.61,37.16,50.45,41.39,53.55a6.09,6.09,0,0,0,3.59,1.17" id="el_tCWX1lJdRb"/></g></g><rect x="150.89" y="272.58" width="85.66" height="20.65" rx="8.17" ry="8.17" id="el_fBYphzPXhJ"/><path d="M184.3,71.58s15.2,24.63,16.33,32.47-16.33,26.89-16.33,26.89Z" id="el_xytFLaq5bEg"/><g id="el_o7SalROwj6h_L-2FrUkxd" data-animator-group="true" data-animator-type="1"><g id="el_o7SalROwj6h"><path d="M152.49,107.12c-3.3-2.74-6.88-5.4-11.26-5.4a14.3,14.3,0,0,0-10.45,24.06l28.41,33.78c3.5,39.47,28.74,48.35,28.74,48.35l6.74-69.29c-9.32-7-18.71-13.79-28-20.75-3.75-2.8-7.62-5.42-11.27-8.35C154.43,108.76,153.47,107.93,152.49,107.12Z" id="el_hHBRD1frJ5F"/></g></g></svg>