<svg id="el_lkMVyBtfT" data-name="Layer 1" xmlns="http://www.w3.org/2000/svg" viewBox="0 0 351 551"><style>@-webkit-keyframes el_25__oTEaDu_H2mgoibC1_Animation{0%{-webkit-transform: translate(173.31685638427734px, 130.75836944580078px) translate(-173.31685638427734px, -130.75836944580078px) translate(0px, 0px);transform: translate(173.31685638427734px, 130.75836944580078px) translate(-173.31685638427734px, -130.75836944580078px) translate(0px, 0px);}16.67%{-webkit-transform: translate(173.31685638427734px, 130.75836944580078px) translate(-173.31685638427734px, -130.75836944580078px) translate(0px, 5px);transform: translate(173.31685638427734px, 130.75836944580078px) translate(-173.31685638427734px, -130.75836944580078px) translate(0px, 5px);}50%{-webkit-transform: translate(173.31685638427734px, 130.75836944580078px) translate(-173.31685638427734px, -130.75836944580078px) translate(0px, -5px);transform: translate(173.31685638427734px, 130.75836944580078px) translate(-173.31685638427734px, -130.75836944580078px) translate(0px, -5px);}66.67%{-webkit-transform: translate(173.31685638427734px, 130.75836944580078px) translate(-173.31685638427734px, -130.75836944580078px) translate(0px, 5px);transform: translate(173.31685638427734px, 130.75836944580078px) translate(-173.31685638427734px, -130.75836944580078px) translate(0px, 5px);}100%{-webkit-transform: translate(173.31685638427734px, 130.75836944580078px) translate(-173.31685638427734px, -130.75836944580078px) translate(0px, -5px);transform: translate(173.31685638427734px, 130.75836944580078px) translate(-173.31685638427734px, -130.75836944580078px) translate(0px, -5px);}}@keyframes el_25__oTEaDu_H2mgoibC1_Animation{0%{-webkit-transform: translate(173.31685638427734px, 130.75836944580078px) translate(-173.31685638427734px, -130.75836944580078px) translate(0px, 0px);transform: translate(173.31685638427734px, 130.75836944580078px) translate(-173.31685638427734px, -130.75836944580078px) translate(0px, 0px);}16.67%{-webkit-transform: translate(173.31685638427734px, 130.75836944580078px) translate(-173.31685638427734px, -130.75836944580078px) translate(0px, 5px);transform: translate(173.31685638427734px, 130.75836944580078px) translate(-173.31685638427734px, -130.75836944580078px) translate(0px, 5px);}50%{-webkit-transform: translate(173.31685638427734px, 130.75836944580078px) translate(-173.31685638427734px, -130.75836944580078px) translate(0px, -5px);transform: translate(173.31685638427734px, 130.75836944580078px) translate(-173.31685638427734px, -130.75836944580078px) translate(0px, -5px);}66.67%{-webkit-transform: translate(173.31685638427734px, 130.75836944580078px) translate(-173.31685638427734px, -130.75836944580078px) translate(0px, 5px);transform: translate(173.31685638427734px, 130.75836944580078px) translate(-173.31685638427734px, -130.75836944580078px) translate(0px, 5px);}100%{-webkit-transform: translate(173.31685638427734px, 130.75836944580078px) translate(-173.31685638427734px, -130.75836944580078px) translate(0px, -5px);transform: translate(173.31685638427734px, 130.75836944580078px) translate(-173.31685638427734px, -130.75836944580078px) translate(0px, -5px);}}#el_lkMVyBtfT *{-webkit-animation-duration: 3s;animation-duration: 3s;-webkit-animation-play-state: running;animation-play-state: running;-webkit-animation-timing-function: cubic-bezier(0, 0, 1, 1);animation-timing-function: cubic-bezier(0, 0, 1, 1);}#el_bD7ycDl_gc{fill: #fd6a33;}#el_NcP47VOuSC{fill: #f0353d;}#el_-yo84RoPrB{fill: #ff8c29;}#el_1dgxOp8mS-{fill: #aedee2;}#el_sM1n-xYO53{fill: #ff8c29;}#el_xHtDqXQAqg{fill: #4acfd9;}#el_yXdzDrSviB{fill: #ffd1a9;}#el_3TTgC-ssVL{fill: #fd6a33;}#el_CxDSn2nCvT{fill: #ff8c29;}#el_qIcqtrfMHe{fill: #9baaab;}#el_e0rh0taSXf{fill: #fd6a33;}#el_tCfaGP6vHh{fill: #0295aa;}#el_WuByvUtchD{fill: #fd6a33;}#el_E5SzTcFfBW{fill: #fff;}#el_i7TDDMfgjPJ{fill: #fff;}#el_NRHQ2TUuI0b{fill: #fff;}#el_9emWNgst7KO{fill: #ea9d2d;visibility: hidden;}#el_Hjx55yERdKc{fill: #c38325;visibility: hidden;}#el_aPMKjmxgdUR{fill: #f7ba61;visibility: hidden;}#el_1F3HJz_3BMZ{fill: #f7ba61;visibility: hidden;}#el_XjbHa9tieVF{fill: #f0353d;opacity: 0.85;visibility: hidden;}#el_bt4le6WNOKh{fill: #c38325;visibility: hidden;}#el_BpK3oZJiS_Y{fill: #da922a;visibility: hidden;}#el_UmvHQeUdXCI{fill: #fd6a33;visibility: hidden;}#el_92Qj4tMaeIh{fill: #aedee2;visibility: hidden;}#el_z1QsBClvTx-{fill: #4acfd9;visibility: hidden;}#el_25__oTEaDu_H2mgoibC1{-webkit-animation-timing-function: cubic-bezier(0, 0, 0.58, 1);animation-timing-function: cubic-bezier(0, 0, 0.58, 1);-webkit-transform: translate(173.31685638427734px, 130.75836944580078px) translate(-173.31685638427734px, -130.75836944580078px) translate(0px, 0px);transform: translate(173.31685638427734px, 130.75836944580078px) translate(-173.31685638427734px, -130.75836944580078px) translate(0px, 0px);}#el_lkMVyBtfT:hover #el_25__oTEaDu_H2mgoibC1{-webkit-animation-name: el_25__oTEaDu_H2mgoibC1_Animation;animation-name: el_25__oTEaDu_H2mgoibC1_Animation;}#el_oBNXnc5g4GX{visibility: hidden;}</style><defs/><title>Rocket-v2</title><g id="el_25__oTEaDu_H2mgoibC1" data-animator-group="true" data-animator-type="0"><g id="el_25__oTEaDu"><path d="M175,192.48a19,19,0,0,0-19,19c0,9.23,13.41,27.44,16.1,31a3.61,3.61,0,0,0,5.75,0c2.69-3.56,16.1-21.77,16.1-31A19,19,0,0,0,175,192.48Z" id="el_bD7ycDl_gc"/><path d="M156.05,211.46c0,9.23,13.41,27.44,16.1,31a3.59,3.59,0,0,0,2.87,1.43V192.48A19,19,0,0,0,156.05,211.46Z" id="el_NcP47VOuSC"/><path d="M99.24,210.59a3,3,0,0,1-5-2.24l0-28.75c-.19-4.22,0-5.06,2.15-7.08l24.73-22.32a3.65,3.65,0,0,1,5.57.9,2.85,2.85,0,0,1,.43,1.56V180.1c0,2.55.62,5.67-1.39,7.57C123.35,190,103.22,207,99.24,210.59Z" id="el_-yo84RoPrB"/><path d="M223.07,79.1H127a3.61,3.61,0,0,0-3.6,3.61v69.18a3.6,3.6,0,0,0,3.6,3.6h96.09a3.6,3.6,0,0,0,3.6-3.6V82.71A3.61,3.61,0,0,0,223.07,79.1Z" id="el_1dgxOp8mS-"/><path d="M177.86,19a3.61,3.61,0,0,0-5.68,0l-48,61.5a3.61,3.61,0,0,0-.4,3.8H226.3a3.61,3.61,0,0,0-.39-3.8Z" id="el_sM1n-xYO53"/><path d="M175,92.55a24.75,24.75,0,1,0,24.75,24.75A24.77,24.77,0,0,0,175,92.55Z" id="el_xHtDqXQAqg"/><path d="M180.79,211.37a5.77,5.77,0,0,0-11.53,0c.22,1.95,2.54,6.57,5.77,11.85C178.25,218,180.56,213.33,180.79,211.37Z" id="el_yXdzDrSviB"/><path d="M247.39,209.59a3,3,0,0,0,5-2.24l0-28.75c.2-4.22,0-5.06-2.14-7.08L225.47,149.2a3.66,3.66,0,0,0-5.58.9,2.93,2.93,0,0,0-.43,1.56V179.1c0,2.55-.61,5.67,1.4,7.57C223.27,189,243.4,206,247.39,209.59Z" id="el_3TTgC-ssVL"/><path d="M226.67,148.28H123.38v36.28a3.6,3.6,0,0,0,3.6,3.6h96.09a3.6,3.6,0,0,0,3.6-3.6Z" id="el_CxDSn2nCvT"/><path d="M127,79.1a3.61,3.61,0,0,0-3.6,3.61v69.18a3.6,3.6,0,0,0,3.6,3.6h48V79.1Z" id="el_qIcqtrfMHe"/><path d="M172.18,19l-48,61.5a3.61,3.61,0,0,0-.4,3.8H175V17.61A3.62,3.62,0,0,0,172.18,19Z" id="el_e0rh0taSXf"/><path d="M150.28,117.3A24.77,24.77,0,0,0,175,142V92.55A24.77,24.77,0,0,0,150.28,117.3Z" id="el_tCfaGP6vHh"/><path d="M123.38,148.28v36.28a3.6,3.6,0,0,0,3.6,3.6h48V148.28Z" id="el_WuByvUtchD"/><path d="M167.34,122.82a3.6,3.6,0,0,1-2.55-6.15l9.61-9.61a3.6,3.6,0,0,1,5.09,5.1l-9.61,9.61A3.58,3.58,0,0,1,167.34,122.82Z" id="el_E5SzTcFfBW"/><path d="M177,128.59a3.61,3.61,0,0,1-2.55-6.15l5.76-5.77a3.61,3.61,0,0,1,5.1,5.1l-5.77,5.76A3.55,3.55,0,0,1,177,128.59Z" id="el_i7TDDMfgjPJ"/><path d="M211.54,138.2a3.61,3.61,0,0,1-3.61-3.61V100a3.61,3.61,0,0,1,7.21,0v34.59A3.61,3.61,0,0,1,211.54,138.2Z" id="el_NRHQ2TUuI0b"/></g></g></svg>