<svg id="el_D4XYCLFVd" data-name="Layer 1" xmlns="http://www.w3.org/2000/svg" viewBox="0 0 300 300"><style>@-webkit-keyframes el_90oDVt_nJsu_x3k5E8mvk_Animation{66.67%{-webkit-transform: translate(245.74500274658203px, 246.39209747314453px) scale(1, 1) translate(-245.74500274658203px, -246.39209747314453px);transform: translate(245.74500274658203px, 246.39209747314453px) scale(1, 1) translate(-245.74500274658203px, -246.39209747314453px);}84.44%{-webkit-transform: translate(245.74500274658203px, 246.39209747314453px) scale(1.2, 1.2) translate(-245.74500274658203px, -246.39209747314453px);transform: translate(245.74500274658203px, 246.39209747314453px) scale(1.2, 1.2) translate(-245.74500274658203px, -246.39209747314453px);}100%{-webkit-transform: translate(245.74500274658203px, 246.39209747314453px) scale(1, 1) translate(-245.74500274658203px, -246.39209747314453px);transform: translate(245.74500274658203px, 246.39209747314453px) scale(1, 1) translate(-245.74500274658203px, -246.39209747314453px);}0%{-webkit-transform: translate(245.74500274658203px, 246.39209747314453px) scale(1, 1) translate(-245.74500274658203px, -246.39209747314453px);transform: translate(245.74500274658203px, 246.39209747314453px) scale(1, 1) translate(-245.74500274658203px, -246.39209747314453px);}}@keyframes el_90oDVt_nJsu_x3k5E8mvk_Animation{66.67%{-webkit-transform: translate(245.74500274658203px, 246.39209747314453px) scale(1, 1) translate(-245.74500274658203px, -246.39209747314453px);transform: translate(245.74500274658203px, 246.39209747314453px) scale(1, 1) translate(-245.74500274658203px, -246.39209747314453px);}84.44%{-webkit-transform: translate(245.74500274658203px, 246.39209747314453px) scale(1.2, 1.2) translate(-245.74500274658203px, -246.39209747314453px);transform: translate(245.74500274658203px, 246.39209747314453px) scale(1.2, 1.2) translate(-245.74500274658203px, -246.39209747314453px);}100%{-webkit-transform: translate(245.74500274658203px, 246.39209747314453px) scale(1, 1) translate(-245.74500274658203px, -246.39209747314453px);transform: translate(245.74500274658203px, 246.39209747314453px) scale(1, 1) translate(-245.74500274658203px, -246.39209747314453px);}0%{-webkit-transform: translate(245.74500274658203px, 246.39209747314453px) scale(1, 1) translate(-245.74500274658203px, -246.39209747314453px);transform: translate(245.74500274658203px, 246.39209747314453px) scale(1, 1) translate(-245.74500274658203px, -246.39209747314453px);}}@-webkit-keyframes el_1-uTtzkc4E_dcKjavo24_Animation{66.67%{-webkit-transform: translate(51.787553787231445px, 244.49149322509766px) scale(1, 1) translate(-51.787553787231445px, -244.49149322509766px);transform: translate(51.787553787231445px, 244.49149322509766px) scale(1, 1) translate(-51.787553787231445px, -244.49149322509766px);}84.44%{-webkit-transform: translate(51.787553787231445px, 244.49149322509766px) scale(1.2, 1.2) translate(-51.787553787231445px, -244.49149322509766px);transform: translate(51.787553787231445px, 244.49149322509766px) scale(1.2, 1.2) translate(-51.787553787231445px, -244.49149322509766px);}100%{-webkit-transform: translate(51.787553787231445px, 244.49149322509766px) scale(1, 1) translate(-51.787553787231445px, -244.49149322509766px);transform: translate(51.787553787231445px, 244.49149322509766px) scale(1, 1) translate(-51.787553787231445px, -244.49149322509766px);}0%{-webkit-transform: translate(51.787553787231445px, 244.49149322509766px) scale(1, 1) translate(-51.787553787231445px, -244.49149322509766px);transform: translate(51.787553787231445px, 244.49149322509766px) scale(1, 1) translate(-51.787553787231445px, -244.49149322509766px);}}@keyframes el_1-uTtzkc4E_dcKjavo24_Animation{66.67%{-webkit-transform: translate(51.787553787231445px, 244.49149322509766px) scale(1, 1) translate(-51.787553787231445px, -244.49149322509766px);transform: translate(51.787553787231445px, 244.49149322509766px) scale(1, 1) translate(-51.787553787231445px, -244.49149322509766px);}84.44%{-webkit-transform: translate(51.787553787231445px, 244.49149322509766px) scale(1.2, 1.2) translate(-51.787553787231445px, -244.49149322509766px);transform: translate(51.787553787231445px, 244.49149322509766px) scale(1.2, 1.2) translate(-51.787553787231445px, -244.49149322509766px);}100%{-webkit-transform: translate(51.787553787231445px, 244.49149322509766px) scale(1, 1) translate(-51.787553787231445px, -244.49149322509766px);transform: translate(51.787553787231445px, 244.49149322509766px) scale(1, 1) translate(-51.787553787231445px, -244.49149322509766px);}0%{-webkit-transform: translate(51.787553787231445px, 244.49149322509766px) scale(1, 1) translate(-51.787553787231445px, -244.49149322509766px);transform: translate(51.787553787231445px, 244.49149322509766px) scale(1, 1) translate(-51.787553787231445px, -244.49149322509766px);}}@-webkit-keyframes el_YMbU_K0nD7E_kvReTNDht_Animation{0%{-webkit-transform: translate(149.3149757385254px, 118.69500732421875px) rotate(0deg) translate(-149.3149757385254px, -118.69500732421875px);transform: translate(149.3149757385254px, 118.69500732421875px) rotate(0deg) translate(-149.3149757385254px, -118.69500732421875px);}66.67%{-webkit-transform: translate(149.3149757385254px, 118.69500732421875px) rotate(180deg) translate(-149.3149757385254px, -118.69500732421875px);transform: translate(149.3149757385254px, 118.69500732421875px) rotate(180deg) translate(-149.3149757385254px, -118.69500732421875px);}100%{-webkit-transform: translate(149.3149757385254px, 118.69500732421875px) rotate(180deg) translate(-149.3149757385254px, -118.69500732421875px);transform: translate(149.3149757385254px, 118.69500732421875px) rotate(180deg) translate(-149.3149757385254px, -118.69500732421875px);}}@keyframes el_YMbU_K0nD7E_kvReTNDht_Animation{0%{-webkit-transform: translate(149.3149757385254px, 118.69500732421875px) rotate(0deg) translate(-149.3149757385254px, -118.69500732421875px);transform: translate(149.3149757385254px, 118.69500732421875px) rotate(0deg) translate(-149.3149757385254px, -118.69500732421875px);}66.67%{-webkit-transform: translate(149.3149757385254px, 118.69500732421875px) rotate(180deg) translate(-149.3149757385254px, -118.69500732421875px);transform: translate(149.3149757385254px, 118.69500732421875px) rotate(180deg) translate(-149.3149757385254px, -118.69500732421875px);}100%{-webkit-transform: translate(149.3149757385254px, 118.69500732421875px) rotate(180deg) translate(-149.3149757385254px, -118.69500732421875px);transform: translate(149.3149757385254px, 118.69500732421875px) rotate(180deg) translate(-149.3149757385254px, -118.69500732421875px);}}#el_D4XYCLFVd *{-webkit-animation-duration: 1.5s;animation-duration: 1.5s;-webkit-animation-play-state: running;animation-play-state: running;-webkit-animation-timing-function: cubic-bezier(0, 0, 1, 1);animation-timing-function: cubic-bezier(0, 0, 1, 1);}#el_JevjnrtHqa{fill: #f16b38;}#el_PDYS3GNZgH{fill: #2e3f49;}#el_rDyXfkQOyc{fill: #9aa9aa;}#el_oIVyJ2xWYY{fill: #2e3f49;}#el_Bnfn5TwMsM{fill: #9aa9aa;}#el_ayHH-cl5cQ{fill: #cdd4d4;}#el_kbhxT5iiQg{fill: #f58a30;}#el_1-uTtzkc4E{fill: #2e3f49;}#el_pGWmT3LoNl{fill: #e5e9e9;}#el_IdUsSMy-EU{fill: #cdd4d4;}#el_03nny2EOoA{fill: #9aa9aa;}#el_FKIh9NOXeg{fill: #697f82;}#el_VpLEso5Uss{fill: #697f82;}#el_GGfY9R1sk7{fill: #375558;}#el_9txVyX_3ZC{fill: #9aa9aa;}#el_UCv68dbtMuW{fill: #697f82;}#el_29dYA4szmVk{fill: #59c5d1;}#el_nuCOdE89Vqn{fill: #2e3f49;}#el_uEhk99wymNi{fill: #9aa9aa;}#el_5WmoHIytuyC{fill: #2e3f49;}#el_4-XafwIr51x{fill: #9aa9aa;}#el_zwZwU8gcve0{fill: #cdd4d4;}#el_bVoXvWYW3wl{fill: #2e3f49;}#el_YMbU_K0nD7E_kvReTNDht{-webkit-transform: translate(149.3149757385254px, 118.69500732421875px) rotate(0deg) translate(-149.3149757385254px, -118.69500732421875px);transform: translate(149.3149757385254px, 118.69500732421875px) rotate(0deg) translate(-149.3149757385254px, -118.69500732421875px);-webkit-animation-timing-function: cubic-bezier(0.42, 0, 0.58, 1);animation-timing-function: cubic-bezier(0.42, 0, 0.58, 1);}#el_D4XYCLFVd:hover #el_YMbU_K0nD7E_kvReTNDht{-webkit-animation-name: el_YMbU_K0nD7E_kvReTNDht_Animation;animation-name: el_YMbU_K0nD7E_kvReTNDht_Animation;}#el_1-uTtzkc4E_dcKjavo24{-webkit-transform: translate(51.787553787231445px, 244.49149322509766px) scale(1, 1) translate(-51.787553787231445px, -244.49149322509766px);transform: translate(51.787553787231445px, 244.49149322509766px) scale(1, 1) translate(-51.787553787231445px, -244.49149322509766px);}#el_D4XYCLFVd:hover #el_1-uTtzkc4E_dcKjavo24{-webkit-animation-name: el_1-uTtzkc4E_dcKjavo24_Animation;animation-name: el_1-uTtzkc4E_dcKjavo24_Animation;}#el_90oDVt_nJsu_x3k5E8mvk{-webkit-transform: translate(245.74500274658203px, 246.39209747314453px) scale(1, 1) translate(-245.74500274658203px, -246.39209747314453px);transform: translate(245.74500274658203px, 246.39209747314453px) scale(1, 1) translate(-245.74500274658203px, -246.39209747314453px);}#el_D4XYCLFVd:hover #el_90oDVt_nJsu_x3k5E8mvk{-webkit-animation-name: el_90oDVt_nJsu_x3k5E8mvk_Animation;animation-name: el_90oDVt_nJsu_x3k5E8mvk_Animation;}</style><defs/><title>build</title><path d="M108.22,251.31H92.42v-9.75h15.8a16.82,16.82,0,0,0,16.8-16.8V200.84h9.75v23.92A26.58,26.58,0,0,1,108.22,251.31Z" id="el_JevjnrtHqa"/><path d="M19.45,246.43a39.53,39.53,0,0,1,31.44-38.68l2.31,77.76A39.5,39.5,0,0,1,19.45,246.43Z" id="el_PDYS3GNZgH"/><path d="M98.46,246.43a39.27,39.27,0,0,1-5.31,19.8,39.77,39.77,0,0,1-14,14.17,38.45,38.45,0,0,1-13.92,5,40.73,40.73,0,0,1-4.41.49,5.45,5.45,0,0,1-.7,0c-.44-.21.37-1.58.37-2V207A39.49,39.49,0,0,1,98.46,246.43Z" id="el_rDyXfkQOyc"/><path d="M59,206.93h0Z" id="el_oIVyJ2xWYY"/><polygon points="50.86 206.96 58.71 206.93 59.14 206.93 60.47 206.93 60.47 206.97 60.47 285.9 60.47 285.94 53.21 285.94 53.2 285.51 50.88 207.75 50.86 206.96" id="el_Bnfn5TwMsM"/><circle cx="52.46" cy="246.43" r="39.5" id="el_ayHH-cl5cQ"/><path d="M207.53,251.32h-15.8a26.58,26.58,0,0,1-26.55-26.54V200.86h9.75v23.92a16.82,16.82,0,0,0,16.8,16.79h15.8Z" id="el_kbhxT5iiQg"/><g id="el_1-uTtzkc4E_dcKjavo24" data-animator-group="true" data-animator-type="2"><path id="el_1-uTtzkc4E" d="M65.82,246.1a11.64,11.64,0,0,1,5.56-9.79,12,12,0,0,0-9.41-5.1c-4-.41-7.82,2.36-9.85,2.36s-5.17-2.3-8.49-2.24A12.59,12.59,0,0,0,33,237.78c-4.54,7.87-1.16,19.54,3.26,25.93,2.16,3.12,4.74,6.63,8.12,6.51s4.49-2.11,8.43-2.11,5.05,2.11,8.5,2S67,267,69.16,263.83a28.24,28.24,0,0,0,3.57-7.32,11.35,11.35,0,0,1-6.91-10.41ZM59.34,227A11.33,11.33,0,0,0,62,218.76a11.58,11.58,0,0,0-7.58,3.9,10.82,10.82,0,0,0-2.73,8A9.52,9.52,0,0,0,59.34,227Zm0,0"/></g><path d="M194.44,203.69H104.12a7.05,7.05,0,0,1-7.05-7.05V25.58c0-3.9,3.16-9.7,7.05-9.7h90.32c3.9,0,7.05,5.8,7.05,9.7V196.64A7,7,0,0,1,194.44,203.69Z" id="el_pGWmT3LoNl"/><path d="M104.12,203.69a7.05,7.05,0,0,1-7.05-7.05V25.58c0-3.9,3.16-9.7,7.05-9.7h45.16V203.69Z" id="el_IdUsSMy-EU"/><path d="M201.49,52.59H97.07v-30c0-2.23,3.16-6.69,7.05-6.69h90.32c3.9,0,7.05,4.46,7.05,6.69Z" id="el_03nny2EOoA"/><path d="M97.07,52.59v-30c0-2.23,3.16-6.69,7.05-6.69h45.16V52.59Z" id="el_FKIh9NOXeg"/><path d="M156.81,34.36H141.76c-3.9,0-7.06,2.22-7.06,5s3.16,4.95,7.06,4.95h15.05c3.89,0,7.05-2.21,7.05-4.95S160.7,34.36,156.81,34.36Z" id="el_VpLEso5Uss"/><path d="M141.76,44.26c-3.9,0-7.06-2.21-7.06-4.95s3.16-5,7.06-5h7.52v9.9Z" id="el_GGfY9R1sk7"/><path d="M201.49,183.71H97.07V197c0,2.24,3.16,6.69,7.05,6.69h90.32c3.9,0,7.05-4.45,7.05-6.69Z" id="el_9txVyX_3ZC"/><path d="M97.07,183.71V197c0,2.24,3.16,6.69,7.05,6.69h45.16v-20Z" id="el_UCv68dbtMuW"/><g id="el_YMbU_K0nD7E_kvReTNDht" data-animator-group="true" data-animator-type="1"><g id="el_YMbU_K0nD7E"><g id="el_Z1QcPpplKlt"><g id="el_waLvYgHpJMg" data-name="666-gear2.png"><path d="M190.84,118.25a3,3,0,0,0-2.55-2.93l-4.5-.65a3,3,0,0,1-2.49-2.37,34.93,34.93,0,0,0-1.1-4.17,3,3,0,0,1,1-3.3l3.57-2.8a3,3,0,0,0,.74-3.83l-.4-.68a3,3,0,0,0-3.68-1.26L177.17,98a3,3,0,0,1-3.34-.8,32.31,32.31,0,0,0-3-3,3,3,0,0,1-.8-3.34l1.7-4.24a2.94,2.94,0,0,0-1.28-3.67l-.68-.4a3,3,0,0,0-3.81.75l-2.79,3.57a3,3,0,0,1-3.29,1,33.07,33.07,0,0,0-4.19-1.1,3,3,0,0,1-2.38-2.49l-.65-4.51a3,3,0,0,0-2.94-2.59h-.8a3,3,0,0,0-2.94,2.54l-.65,4.51a3,3,0,0,1-2.37,2.49,36.29,36.29,0,0,0-4.19,1.1,3,3,0,0,1-3.29-1l-2.78-3.54a3,3,0,0,0-3.82-.73l-.68.4a3,3,0,0,0-1.27,3.67l1.7,4.24a3,3,0,0,1-.8,3.34,35.35,35.35,0,0,0-3.06,3.06,3,3,0,0,1-3.34.8l-4.24-1.72a3,3,0,0,0-3.67,1.27l-.38.68a3,3,0,0,0,.73,3.82l3.57,2.81a3,3,0,0,1,1,3.29,32,32,0,0,0-1.1,4.17,3,3,0,0,1-2.49,2.38l-4.52.65a2.91,2.91,0,0,0-2.54,2.91v.8a3,3,0,0,0,2.54,2.94l4.52.65a3,3,0,0,1,2.49,2.37,35.6,35.6,0,0,0,1.1,4.18,2.93,2.93,0,0,1-1,3.27l-3.57,2.81a3,3,0,0,0-.73,3.82l.39.68a3,3,0,0,0,3.68,1.27l4.24-1.7a3,3,0,0,1,3.34.8,32.31,32.31,0,0,0,3,3,3,3,0,0,1,.8,3.34l-1.7,4.24a3,3,0,0,0,1.28,3.68l.68.39a2.94,2.94,0,0,0,3.81-.73l2.81-3.57a3,3,0,0,1,3.29-1,31.59,31.59,0,0,0,4.17,1.1,3,3,0,0,1,2.38,2.49l.65,4.52a3,3,0,0,0,2.94,2.54h.8a3,3,0,0,0,2.94-2.54l.65-4.52a3,3,0,0,1,2.37-2.49,35.6,35.6,0,0,0,4.18-1.1,2.93,2.93,0,0,1,3.27,1l2.81,3.57a3,3,0,0,0,3.82.73l.69-.39a3,3,0,0,0,1.26-3.68L170,146.52a3,3,0,0,1,.79-3.34,33.66,33.66,0,0,0,3-3,3,3,0,0,1,3.34-.8l4.24,1.71a3,3,0,0,0,3.67-1.28l.4-.68a3,3,0,0,0-.75-3.82l-3.57-2.79a3,3,0,0,1-1-3.28,37,37,0,0,0,1.09-4.17,3,3,0,0,1,2.5-2.38l4.52-.64a3,3,0,0,0,2.54-3v-.81Zm-41.56,21.18a20.78,20.78,0,1,1,20.78-20.78A20.79,20.79,0,0,1,149.28,139.43Z" id="el_29dYA4szmVk"/></g></g></g></g><path d="M280.5,246.45a39.52,39.52,0,0,0-31.43-38.68l-2.31,77.76A39.51,39.51,0,0,0,280.5,246.45Z" id="el_nuCOdE89Vqn"/><path d="M201.49,246.45a39.6,39.6,0,0,0,1.39,10.39,39.52,39.52,0,0,0,10,17.38,39.56,39.56,0,0,0,17.27,10.22,37.61,37.61,0,0,0,4.57,1,38.43,38.43,0,0,0,4.4.48,4.11,4.11,0,0,0,.7,0c.45-.22-.36-1.58-.36-2V207A39.51,39.51,0,0,0,201.49,246.45Z" id="el_uEhk99wymNi"/><path d="M241,206.94h0Z" id="el_5WmoHIytuyC"/><polygon points="249.09 206.98 241.24 206.95 240.82 206.95 239.49 206.94 239.49 206.98 239.49 285.92 239.49 285.95 246.74 285.95 246.76 285.53 249.07 207.77 249.09 206.98" id="el_4-XafwIr51x"/><circle cx="247.5" cy="246.45" r="39.5" id="el_zwZwU8gcve0"/><g id="el_90oDVt_nJsu_x3k5E8mvk" data-animator-group="true" data-animator-type="2"><g id="el_90oDVt_nJsu"><g id="el_JBLtBy6Ogma"><path d="M227.17,237.26a3.18,3.18,0,0,0-3.18,3.18v13.28a3.18,3.18,0,1,0,6.35,0V240.44a3.16,3.16,0,0,0-3.17-3.18Zm27.79-16a.43.43,0,0,0-.17-.6.44.44,0,0,0-.6.18L252,225a15.4,15.4,0,0,0-12.41,0l-2.25-4.07a.43.43,0,0,0-.59-.18.44.44,0,0,0-.18.6l2.21,4a12.87,12.87,0,0,0-7.17,11.43h28.36a12.87,12.87,0,0,0-7.19-11.42Zm-15.71,10.3a1.2,1.2,0,1,1,1.2-1.19,1.19,1.19,0,0,1-1.2,1.19Zm13,0a1.21,1.21,0,1,1,1.19-1.2,1.2,1.2,0,0,1-1.19,1.2Zm-20.68,6.29v20.59a3.38,3.38,0,0,0,3.38,3.38h2.3v7a3.18,3.18,0,1,0,6.35,0v-7h4.28v7a3.17,3.17,0,1,0,6.34,0v-7h2.32a3.38,3.38,0,0,0,3.38-3.38V237.86Zm35.92,2.56a3.17,3.17,0,1,0-6.34,0v13.28a3.18,3.18,0,1,0,6.35,0Z" id="el_bVoXvWYW3wl"/></g></g></g></svg>