<svg id="el_XkcR3oo_i" data-name="Layer 1" xmlns="http://www.w3.org/2000/svg" viewBox="0 0 300 300"><style>@-webkit-keyframes el_7nYVHCMaJy_8y0rZuLLg_Animation{0%{-webkit-transform: translate(132.90999603271484px, 126.94999694824219px) rotate(0deg) translate(-132.90999603271484px, -126.94999694824219px);transform: translate(132.90999603271484px, 126.94999694824219px) rotate(0deg) translate(-132.90999603271484px, -126.94999694824219px);}100%{-webkit-transform: translate(132.90999603271484px, 126.94999694824219px) rotate(360deg) translate(-132.90999603271484px, -126.94999694824219px);transform: translate(132.90999603271484px, 126.94999694824219px) rotate(360deg) translate(-132.90999603271484px, -126.94999694824219px);}}@keyframes el_7nYVHCMaJy_8y0rZuLLg_Animation{0%{-webkit-transform: translate(132.90999603271484px, 126.94999694824219px) rotate(0deg) translate(-132.90999603271484px, -126.94999694824219px);transform: translate(132.90999603271484px, 126.94999694824219px) rotate(0deg) translate(-132.90999603271484px, -126.94999694824219px);}100%{-webkit-transform: translate(132.90999603271484px, 126.94999694824219px) rotate(360deg) translate(-132.90999603271484px, -126.94999694824219px);transform: translate(132.90999603271484px, 126.94999694824219px) rotate(360deg) translate(-132.90999603271484px, -126.94999694824219px);}}@-webkit-keyframes el_7nYVHCMaJy_IKVqViBx5_Animation{0%{-webkit-transform: translate(132.90999603271484px, 126.94999694824219px) scale(1, 1) translate(-132.90999603271484px, -126.94999694824219px);transform: translate(132.90999603271484px, 126.94999694824219px) scale(1, 1) translate(-132.90999603271484px, -126.94999694824219px);}50%{-webkit-transform: translate(132.90999603271484px, 126.94999694824219px) scale(0.8, 0.8) translate(-132.90999603271484px, -126.94999694824219px);transform: translate(132.90999603271484px, 126.94999694824219px) scale(0.8, 0.8) translate(-132.90999603271484px, -126.94999694824219px);}100%{-webkit-transform: translate(132.90999603271484px, 126.94999694824219px) scale(1, 1) translate(-132.90999603271484px, -126.94999694824219px);transform: translate(132.90999603271484px, 126.94999694824219px) scale(1, 1) translate(-132.90999603271484px, -126.94999694824219px);}}@keyframes el_7nYVHCMaJy_IKVqViBx5_Animation{0%{-webkit-transform: translate(132.90999603271484px, 126.94999694824219px) scale(1, 1) translate(-132.90999603271484px, -126.94999694824219px);transform: translate(132.90999603271484px, 126.94999694824219px) scale(1, 1) translate(-132.90999603271484px, -126.94999694824219px);}50%{-webkit-transform: translate(132.90999603271484px, 126.94999694824219px) scale(0.8, 0.8) translate(-132.90999603271484px, -126.94999694824219px);transform: translate(132.90999603271484px, 126.94999694824219px) scale(0.8, 0.8) translate(-132.90999603271484px, -126.94999694824219px);}100%{-webkit-transform: translate(132.90999603271484px, 126.94999694824219px) scale(1, 1) translate(-132.90999603271484px, -126.94999694824219px);transform: translate(132.90999603271484px, 126.94999694824219px) scale(1, 1) translate(-132.90999603271484px, -126.94999694824219px);}}#el_XkcR3oo_i *{-webkit-animation-duration: 1s;animation-duration: 1s;-webkit-animation-play-state: running;animation-play-state: running;-webkit-animation-timing-function: cubic-bezier(0, 0, 1, 1);animation-timing-function: cubic-bezier(0, 0, 1, 1);}#el_GmfQMsUw6F{fill: #375558;}#el_w737A_YmS5{fill: #59c5d1;}#el_hv1qPbUxlN{fill: #9aa9aa;}#el_4BMCDBZLgX{fill: #697f82;}#el_4vQIPX7BZf{fill: #0094a9;}#el_997TM4tXO-{fill: #e5e9e9;}#el_wVEozb_pFZ{fill: #cdd4d4;}#el_hvBG4VmcyG{fill: #fff;}#el_kGIxVg10ZT{fill: #fff;}#el_fPL7elri0W{fill: #f2b762;}#el_NWiUWi3aEz{fill: #6fbae2;}#el_6TwFQnMykA{fill: #f0594a;}#el_SUQbQoCaQJ{fill: #87af3f;}#el_w6MmqCRTV0{fill: #ed7e55;}#el_Cdw1e2q7P6H{fill: #d770a0;}#el_4vnxD9zQAAm{fill: #59c5d1;}#el_7nYVHCMaJy_IKVqViBx5{-webkit-transform: translate(132.90999603271484px, 126.94999694824219px) scale(1, 1) translate(-132.90999603271484px, -126.94999694824219px);transform: translate(132.90999603271484px, 126.94999694824219px) scale(1, 1) translate(-132.90999603271484px, -126.94999694824219px);-webkit-animation-timing-function: cubic-bezier(0.42, 0, 0.58, 1);animation-timing-function: cubic-bezier(0.42, 0, 0.58, 1);}#el_XkcR3oo_i:hover #el_7nYVHCMaJy_IKVqViBx5{-webkit-animation-name: el_7nYVHCMaJy_IKVqViBx5_Animation;animation-name: el_7nYVHCMaJy_IKVqViBx5_Animation;}#el_7nYVHCMaJy_8y0rZuLLg{-webkit-transform: translate(132.90999603271484px, 126.94999694824219px) rotate(0deg) translate(-132.90999603271484px, -126.94999694824219px);transform: translate(132.90999603271484px, 126.94999694824219px) rotate(0deg) translate(-132.90999603271484px, -126.94999694824219px);-webkit-animation-timing-function: cubic-bezier(0.42, 0, 0.58, 1);animation-timing-function: cubic-bezier(0.42, 0, 0.58, 1);}#el_XkcR3oo_i:hover #el_7nYVHCMaJy_8y0rZuLLg{-webkit-animation-name: el_7nYVHCMaJy_8y0rZuLLg_Animation;animation-name: el_7nYVHCMaJy_8y0rZuLLg_Animation;}</style><defs/><title>design-glass</title><path d="M236.82,240.62a4,4,0,0,1-2.78-1.15L198.48,203.9a3.93,3.93,0,0,1,5.56-5.55l35.56,35.56a3.93,3.93,0,0,1-2.78,6.71Z" id="el_GmfQMsUw6F"/><path d="M207.79,56.87A106.62,106.62,0,0,0,57,207.65,106.62,106.62,0,0,0,207.79,56.87Z" id="el_w737A_YmS5"/><path d="M273,249.51l-29.64-29.64a3.94,3.94,0,0,0-5.56,0L220,237.66a3.93,3.93,0,0,0,0,5.55l29.64,29.64a3.92,3.92,0,0,0,5.55,0L273,255.07A3.94,3.94,0,0,0,273,249.51Z" id="el_hv1qPbUxlN"/><path d="M228.65,229,220,237.66a3.93,3.93,0,0,0,0,5.55l29.64,29.64a3.92,3.92,0,0,0,5.55,0l8.64-8.64Z" id="el_4BMCDBZLgX"/><path d="M56.76,57.13A106.61,106.61,0,0,0,207.53,207.9Z" id="el_4vQIPX7BZf"/><path d="M186.47,78.19a76.44,76.44,0,1,0,0,108.14A76.54,76.54,0,0,0,186.47,78.19Z" id="el_997TM4tXO-"/><path d="M78.08,78.44A76.47,76.47,0,0,0,186.22,186.58Z" id="el_wVEozb_pFZ"/><path d="M219.37,136.19a3.92,3.92,0,0,1-3.93-3.93,82.7,82.7,0,0,0-6.37-32,3.93,3.93,0,0,1,7.25-3,90.39,90.39,0,0,1,7,35A3.92,3.92,0,0,1,219.37,136.19Z" id="el_hvBG4VmcyG"/><path d="M203.38,85.9a4,4,0,0,1-3.21-1.65,83.76,83.76,0,0,0-9.06-10.71A82.49,82.49,0,0,0,132.4,49.22a3.93,3.93,0,0,1,0-7.86A90.29,90.29,0,0,1,196.67,68a91.82,91.82,0,0,1,9.91,11.7,3.94,3.94,0,0,1-3.2,6.21Z" id="el_kGIxVg10ZT"/><g id="el_7nYVHCMaJy_8y0rZuLLg" data-animator-group="true" data-animator-type="1"><g id="el_7nYVHCMaJy_IKVqViBx5" data-animator-group="true" data-animator-type="2"><g id="el_7nYVHCMaJy"><path d="M165.25,110.78a32.34,32.34,0,1,1-32.34-32.34,32.34,32.34,0,0,1,32.34,32.34Zm0,0" id="el_fPL7elri0W"/><path d="M145.85,143.12a32.34,32.34,0,1,1-32.34-32.34,32.34,32.34,0,0,1,32.34,32.34Zm0,0" id="el_NWiUWi3aEz"/><path d="M184.65,143.12a32.34,32.34,0,1,1-32.34-32.34,32.34,32.34,0,0,1,32.34,32.34Zm0,0" id="el_6TwFQnMykA"/><path d="M120.23,140.53a32.13,32.13,0,0,1,12.68-23.13,32,32,0,0,0-32.08-4,32.28,32.28,0,0,0,19.4,27.16Zm0,0" id="el_SUQbQoCaQJ"/><path d="M132.91,117.4a32.13,32.13,0,0,1,12.68,23.13A32.28,32.28,0,0,0,165,113.37a32,32,0,0,0-32.08,4Zm0,0" id="el_w6MmqCRTV0"/><path d="M145.85,143.12c0-.89-.2-1.72-.26-2.59a32.36,32.36,0,0,1-25.36,0c-.06.87-.26,1.7-.26,2.59a32.18,32.18,0,0,0,12.94,25.72,32.18,32.18,0,0,0,12.94-25.72Zm0,0" id="el_Cdw1e2q7P6H"/><path d="M132.91,117.4a32.13,32.13,0,0,0-12.68,23.13,32.36,32.36,0,0,0,25.36,0,32.13,32.13,0,0,0-12.68-23.13Zm0,0" id="el_4vnxD9zQAAm"/></g></g></g></svg>