<svg id="el_M1uyEqmzf" data-name="Layer 1" xmlns="http://www.w3.org/2000/svg" viewBox="0 0 300 300"><style>@-webkit-keyframes el_TDXhos89do_Animation{0%{opacity: 1;}2.22%{opacity: 0;}80%{opacity: 0;}100%{opacity: 1;}}@keyframes el_TDXhos89do_Animation{0%{opacity: 1;}2.22%{opacity: 0;}80%{opacity: 0;}100%{opacity: 1;}}@-webkit-keyframes el_xv2_WMEZMP_Animation{0%{opacity: 1;}2.22%{opacity: 0;}53.33%{opacity: 0;}77.78%{opacity: 1;}100%{opacity: 1;}}@keyframes el_xv2_WMEZMP_Animation{0%{opacity: 1;}2.22%{opacity: 0;}53.33%{opacity: 0;}77.78%{opacity: 1;}100%{opacity: 1;}}@-webkit-keyframes el_5p1nozM8o-_Animation{0%{opacity: 1;}2.22%{opacity: 0;}26.67%{opacity: 0;}51.11%{opacity: 1;}100%{opacity: 1;}}@keyframes el_5p1nozM8o-_Animation{0%{opacity: 1;}2.22%{opacity: 0;}26.67%{opacity: 0;}51.11%{opacity: 1;}100%{opacity: 1;}}@-webkit-keyframes el_sXPlR3DAYo_Animation{0%{opacity: 1;}2.22%{opacity: 0;}24.44%{opacity: 1;}100%{opacity: 1;}}@keyframes el_sXPlR3DAYo_Animation{0%{opacity: 1;}2.22%{opacity: 0;}24.44%{opacity: 1;}100%{opacity: 1;}}#el_M1uyEqmzf *{-webkit-animation-duration: 1.5s;animation-duration: 1.5s;-webkit-animation-play-state: running;animation-play-state: running;-webkit-animation-timing-function: cubic-bezier(0, 0, 1, 1);animation-timing-function: cubic-bezier(0, 0, 1, 1);}#el_gMNR7dOhii{fill: #e5e9e9;}#el_LnhQmKq5cG{fill: #e5e9e9;}#el_5p1nozM8o-{fill: #9aa9aa;opacity: 1;-webkit-animation-timing-function: cubic-bezier(0, 0, 0.58, 1);animation-timing-function: cubic-bezier(0, 0, 0.58, 1);}#el_M1uyEqmzf:hover #el_5p1nozM8o-{-webkit-animation-name: el_5p1nozM8o-_Animation;animation-name: el_5p1nozM8o-_Animation;}#el_sXPlR3DAYo{fill: #cdd4d4;opacity: 1;-webkit-animation-timing-function: cubic-bezier(0, 0, 0.58, 1);animation-timing-function: cubic-bezier(0, 0, 0.58, 1);}#el_M1uyEqmzf:hover #el_sXPlR3DAYo{-webkit-animation-name: el_sXPlR3DAYo_Animation;animation-name: el_sXPlR3DAYo_Animation;}#el_wf67Q8QqpH{fill: #f58a30;}#el_gQ5ke7LkcI{fill: #f16b38;}#el_vysoV8DZ0u{fill: #59c5d1;}#el_5CUocaDIjR{fill: #0094a9;}#el_xv2_WMEZMP{opacity: 1;-webkit-animation-timing-function: cubic-bezier(0, 0, 0.58, 1);animation-timing-function: cubic-bezier(0, 0, 0.58, 1);}#el_M1uyEqmzf:hover #el_xv2_WMEZMP{-webkit-animation-name: el_xv2_WMEZMP_Animation;animation-name: el_xv2_WMEZMP_Animation;}#el_TDXhos89do{opacity: 1;-webkit-animation-timing-function: cubic-bezier(0, 0, 0.58, 1);animation-timing-function: cubic-bezier(0, 0, 0.58, 1);}#el_M1uyEqmzf:hover #el_TDXhos89do{-webkit-animation-name: el_TDXhos89do_Animation;animation-name: el_TDXhos89do_Animation;}</style><defs/><title>triangle</title><g id="el_i75WxXke16"><g id="el_rIKjRHjVmf"><path d="M279.57,276.09,152.84,22.63a4.1,4.1,0,0,0-7.33,0L18.78,276.09A4.1,4.1,0,0,0,22.45,282H275.9a4.1,4.1,0,0,0,3.67-5.93Z" id="el_gMNR7dOhii"/><path d="M149.18,20.37a4.09,4.09,0,0,0-3.67,2.26L82.15,149.36h134L152.84,22.63A4.08,4.08,0,0,0,149.18,20.37Z" id="el_LnhQmKq5cG"/></g><polygon id="el_5p1nozM8o-" points="112.91 87.83 82.15 149.36 216.2 149.36 185.44 87.83 112.91 87.83"/><path id="el_sXPlR3DAYo" d="M251,218.93H47.37L18.78,276.09A4.1,4.1,0,0,0,22.45,282H275.9a4.1,4.1,0,0,0,3.67-5.93Z"/><g id="el_xv2_WMEZMP"><path id="el_wf67Q8QqpH" d="M18.78,276.09A4.1,4.1,0,0,0,22.45,282H149.18l-67-132.66Z"/><path d="M47.37,218.93,18.78,276.09A4.1,4.1,0,0,0,22.45,282H149.18L117.3,218.93Z" id="el_gQ5ke7LkcI"/></g><g id="el_TDXhos89do"><path id="el_vysoV8DZ0u" d="M216.2,149.36,149.18,282H275.9a4.1,4.1,0,0,0,3.67-5.93Z"/><path d="M251,218.93H181.05L149.18,282H275.9a4.1,4.1,0,0,0,3.67-5.93Z" id="el_5CUocaDIjR"/></g></g></svg>