<svg id="el_OkuUOsz1-" data-name="Layer 1" xmlns="http://www.w3.org/2000/svg" viewBox="0 0 300 300" height="300" width="300"><style>@-webkit-keyframes el_rmSuJE-P--_I6Q1F2Jiz_Animation{0%{-webkit-transform: translate(115.98536682128906px, 182.0000078678131px) translate(-115.98536682128906px, -182.0000078678131px) translate(0px, 0px);transform: translate(115.98536682128906px, 182.0000078678131px) translate(-115.98536682128906px, -182.0000078678131px) translate(0px, 0px);}2.22%{-webkit-transform: translate(115.98536682128906px, 182.0000078678131px) translate(-115.98536682128906px, -182.0000078678131px) translate(200px, -200px);transform: translate(115.98536682128906px, 182.0000078678131px) translate(-115.98536682128906px, -182.0000078678131px) translate(200px, -200px);}33.33%{-webkit-transform: translate(115.98536682128906px, 182.0000078678131px) translate(-115.98536682128906px, -182.0000078678131px) translate(0px, 0px);transform: translate(115.98536682128906px, 182.0000078678131px) translate(-115.98536682128906px, -182.0000078678131px) translate(0px, 0px);}100%{-webkit-transform: translate(115.98536682128906px, 182.0000078678131px) translate(-115.98536682128906px, -182.0000078678131px) translate(0px, 0px);transform: translate(115.98536682128906px, 182.0000078678131px) translate(-115.98536682128906px, -182.0000078678131px) translate(0px, 0px);}}@keyframes el_rmSuJE-P--_I6Q1F2Jiz_Animation{0%{-webkit-transform: translate(115.98536682128906px, 182.0000078678131px) translate(-115.98536682128906px, -182.0000078678131px) translate(0px, 0px);transform: translate(115.98536682128906px, 182.0000078678131px) translate(-115.98536682128906px, -182.0000078678131px) translate(0px, 0px);}2.22%{-webkit-transform: translate(115.98536682128906px, 182.0000078678131px) translate(-115.98536682128906px, -182.0000078678131px) translate(200px, -200px);transform: translate(115.98536682128906px, 182.0000078678131px) translate(-115.98536682128906px, -182.0000078678131px) translate(200px, -200px);}33.33%{-webkit-transform: translate(115.98536682128906px, 182.0000078678131px) translate(-115.98536682128906px, -182.0000078678131px) translate(0px, 0px);transform: translate(115.98536682128906px, 182.0000078678131px) translate(-115.98536682128906px, -182.0000078678131px) translate(0px, 0px);}100%{-webkit-transform: translate(115.98536682128906px, 182.0000078678131px) translate(-115.98536682128906px, -182.0000078678131px) translate(0px, 0px);transform: translate(115.98536682128906px, 182.0000078678131px) translate(-115.98536682128906px, -182.0000078678131px) translate(0px, 0px);}}#el_OkuUOsz1- *{-webkit-animation-duration: 1.5s;animation-duration: 1.5s;-webkit-animation-play-state: running;animation-play-state: running;-webkit-animation-timing-function: cubic-bezier(0, 0, 1, 1);animation-timing-function: cubic-bezier(0, 0, 1, 1);}#el_VrGj3rlKQT{fill: #59c5d1;}#el_oFj7cYrCNG{fill: #0094a9;}#el__PUHpq2FXh{fill: #e5e9e9;}#el_-iMcDQHZnI{fill: #cdd4d4;}#el_Q6cJNhb8ab{fill: #cdd4d4;}#el_WEY4s0X_Nq{fill: #9aa9aa;}#el_fTf3o2Kajh{fill: #f16b38;}#el_jlju9vGITc{fill: #ee363e;}#el_nxv0_cvYem{fill: #375558;}#el_LtKW2nZ1g9{fill: #e5e9e9;}#el_46Jz4ieiwWd{fill: #9aa9aa;}#el_79aLgW58I4u{fill: #697f82;}#el_EXHF7sPSOTI{fill: #9aa9aa;}#el_rmSuJE-P--_I6Q1F2Jiz{-webkit-transform: translate(115.98536682128906px, 182.0000078678131px) translate(-115.98536682128906px, -182.0000078678131px) translate(0px, 0px);transform: translate(115.98536682128906px, 182.0000078678131px) translate(-115.98536682128906px, -182.0000078678131px) translate(0px, 0px);-webkit-animation-timing-function: cubic-bezier(0.42, 0, 0.58, 1);animation-timing-function: cubic-bezier(0.42, 0, 0.58, 1);}#el_OkuUOsz1-:hover #el_rmSuJE-P--_I6Q1F2Jiz{-webkit-animation-name: el_rmSuJE-P--_I6Q1F2Jiz_Animation;animation-name: el_rmSuJE-P--_I6Q1F2Jiz_Animation;}</style><defs/><title>target</title><g id="el_7DzbHuROhM" data-name="1ring"><path d="M118.87,67.25A115.77,115.77,0,1,0,234.63,183,115.89,115.89,0,0,0,118.87,67.25Z" id="el_VrGj3rlKQT"/><path d="M3.11,183A115.89,115.89,0,0,0,118.87,298.78V67.25A115.89,115.89,0,0,0,3.11,183Z" id="el_oFj7cYrCNG"/></g><g id="el_erqpysv4g5" data-name="2ring"><path d="M118.87,102a81,81,0,1,0,81,81A81.1,81.1,0,0,0,118.87,102Z" id="el__PUHpq2FXh"/><path d="M37.85,183a81.11,81.11,0,0,0,81,81V102A81.1,81.1,0,0,0,37.85,183Z" id="el_-iMcDQHZnI"/></g><g id="el_w0RTkPubPu" data-name="3ring"><path d="M118.87,131.79A51.23,51.23,0,1,0,170.09,183,51.28,51.28,0,0,0,118.87,131.79Z" id="el_Q6cJNhb8ab"/><path d="M67.65,183a51.28,51.28,0,0,0,51.22,51.22V131.79A51.28,51.28,0,0,0,67.65,183Z" id="el_WEY4s0X_Nq"/></g><g id="el_k-vsgCanJA"><path d="M118.87,153.88A29.14,29.14,0,1,0,148,183,29.17,29.17,0,0,0,118.87,153.88Z" id="el_fTf3o2Kajh"/><path d="M89.73,183a29.17,29.17,0,0,0,29.14,29.13V153.88A29.17,29.17,0,0,0,89.73,183Z" id="el_jlju9vGITc"/></g><g id="el_rmSuJE-P--_I6Q1F2Jiz" data-animator-group="true" data-animator-type="0"><g id="el_rmSuJE-P--"><path d="M120.58,182a4.6,4.6,0,0,1-3.25-7.85L226,65.41a4.6,4.6,0,0,1,6.5,6.5L123.84,180.62A4.6,4.6,0,0,1,120.58,182Z" id="el_nxv0_cvYem"/><path d="M234.49,5.6a4.6,4.6,0,0,0-7.86-3.25l-64.2,64.2a4.59,4.59,0,0,0-1.34,3.25v62.46c0,.07,0,.14,0,.21s0,.24,0,.36,0,.22.05.33,0,.22.08.33.07.22.11.34l.06.19.06.11a2.39,2.39,0,0,0,.16.32c0,.09.1.19.16.28s.13.18.19.28l.21.26.23.24,72.05-72V5.6Z" id="el_LtKW2nZ1g9"/><path d="M296.6,66.3a4.6,4.6,0,0,0-4.25-2.84H234.49l-72.05,72,.24.23.26.21.28.19.28.16.32.16.11,0a2.35,2.35,0,0,0,.37.14h0a5.45,5.45,0,0,0,.58.14l.15,0a4,4,0,0,0,.6,0h62.47a4.59,4.59,0,0,0,3.25-1.34l64.2-64.2A4.61,4.61,0,0,0,296.6,66.3Z" id="el_46Jz4ieiwWd"/><path d="M193.67,104.29a4.58,4.58,0,0,0,3.25,1.34h64.37l9.2-9.2h-69Z" id="el_79aLgW58I4u"/><path d="M201.52,27.46l-9.2,9.2V101a4.59,4.59,0,0,0,1.35,3.26l7.85-7.86Z" id="el_EXHF7sPSOTI"/></g></g></svg>