<svg id="el_iNcLxzx4E" data-name="Layer 1" xmlns="http://www.w3.org/2000/svg" xmlns:xlink="http://www.w3.org/1999/xlink" viewBox="0 0 300 300"><style>@-webkit-keyframes el_8Tn3GMKVASt_xjVSiuP4q_Animation{0%{-webkit-transform: translate(109.38501358032227px, 73.82000350952148px) rotate(0deg) translate(-109.38501358032227px, -73.82000350952148px);transform: translate(109.38501358032227px, 73.82000350952148px) rotate(0deg) translate(-109.38501358032227px, -73.82000350952148px);}100%{-webkit-transform: translate(109.38501358032227px, 73.82000350952148px) rotate(-180deg) translate(-109.38501358032227px, -73.82000350952148px);transform: translate(109.38501358032227px, 73.82000350952148px) rotate(-180deg) translate(-109.38501358032227px, -73.82000350952148px);}}@keyframes el_8Tn3GMKVASt_xjVSiuP4q_Animation{0%{-webkit-transform: translate(109.38501358032227px, 73.82000350952148px) rotate(0deg) translate(-109.38501358032227px, -73.82000350952148px);transform: translate(109.38501358032227px, 73.82000350952148px) rotate(0deg) translate(-109.38501358032227px, -73.82000350952148px);}100%{-webkit-transform: translate(109.38501358032227px, 73.82000350952148px) rotate(-180deg) translate(-109.38501358032227px, -73.82000350952148px);transform: translate(109.38501358032227px, 73.82000350952148px) rotate(-180deg) translate(-109.38501358032227px, -73.82000350952148px);}}@-webkit-keyframes el_EGhE38h_ij7_ZMx0Tepqn_Animation{0%{-webkit-transform: translate(185.2050552368164px, 132.73038482666016px) rotate(0deg) translate(-185.2050552368164px, -132.73038482666016px);transform: translate(185.2050552368164px, 132.73038482666016px) rotate(0deg) translate(-185.2050552368164px, -132.73038482666016px);}100%{-webkit-transform: translate(185.2050552368164px, 132.73038482666016px) rotate(-180deg) translate(-185.2050552368164px, -132.73038482666016px);transform: translate(185.2050552368164px, 132.73038482666016px) rotate(-180deg) translate(-185.2050552368164px, -132.73038482666016px);}}@keyframes el_EGhE38h_ij7_ZMx0Tepqn_Animation{0%{-webkit-transform: translate(185.2050552368164px, 132.73038482666016px) rotate(0deg) translate(-185.2050552368164px, -132.73038482666016px);transform: translate(185.2050552368164px, 132.73038482666016px) rotate(0deg) translate(-185.2050552368164px, -132.73038482666016px);}100%{-webkit-transform: translate(185.2050552368164px, 132.73038482666016px) rotate(-180deg) translate(-185.2050552368164px, -132.73038482666016px);transform: translate(185.2050552368164px, 132.73038482666016px) rotate(-180deg) translate(-185.2050552368164px, -132.73038482666016px);}}@-webkit-keyframes el_F4lL6SdfH25_c4Tc7HrwE_Animation{0%{-webkit-transform: translate(102.44002151489258px, 133.00001525878906px) rotate(0deg) translate(-102.44002151489258px, -133.00001525878906px);transform: translate(102.44002151489258px, 133.00001525878906px) rotate(0deg) translate(-102.44002151489258px, -133.00001525878906px);}100%{-webkit-transform: translate(102.44002151489258px, 133.00001525878906px) rotate(180deg) translate(-102.44002151489258px, -133.00001525878906px);transform: translate(102.44002151489258px, 133.00001525878906px) rotate(180deg) translate(-102.44002151489258px, -133.00001525878906px);}}@keyframes el_F4lL6SdfH25_c4Tc7HrwE_Animation{0%{-webkit-transform: translate(102.44002151489258px, 133.00001525878906px) rotate(0deg) translate(-102.44002151489258px, -133.00001525878906px);transform: translate(102.44002151489258px, 133.00001525878906px) rotate(0deg) translate(-102.44002151489258px, -133.00001525878906px);}100%{-webkit-transform: translate(102.44002151489258px, 133.00001525878906px) rotate(180deg) translate(-102.44002151489258px, -133.00001525878906px);transform: translate(102.44002151489258px, 133.00001525878906px) rotate(180deg) translate(-102.44002151489258px, -133.00001525878906px);}}#el_iNcLxzx4E *{-webkit-animation-duration: 1.5s;animation-duration: 1.5s;-webkit-animation-play-state: running;animation-play-state: running;-webkit-animation-timing-function: cubic-bezier(0, 0, 1, 1);animation-timing-function: cubic-bezier(0, 0, 1, 1);}#el_YH6rkSH629{fill: #2b414f;}#el_d1EjYKrqxp{fill: #cdd4d4;}#el_0uxOfUWo9_{fill: #43b29b;}#el_rNSxcs0rvL{fill: url(#linear-gradient);}#el_OsDmvlWUju{fill: #ecefef;}#el_-TL6aRg6oO{fill: #cbcbca;}#el_Zmb3yvBbQ3{fill: #2b414f;}#el_mTRX8vOBM3{fill: #2b414f;}#el_-3PAkxYf9M{fill: #59c5d1;}#el_a9mw2T4IPo{fill: #ecefef;}#el_omJTqLv4PJ{fill: #ecefef;}#el_MZzoZkvy6e{fill: #ecefef;}#el_6KUaFNK93k{fill: #ecefef;}#el_pZMUAHkN_3{fill: #9aa9aa;}#el_GjhlQA8-Qo{fill: #697f82;}#el_kN52XcAGtFY{opacity: 0.75;}#el_KfhoczIyDH3{-webkit-clip-path: url(#clip-path);clip-path: url(#clip-path);}#el_9ocXZpwmua4{fill: #ef662e;}#el_8vR2YXuLma6{fill: #ee363e;}#el_WMufnSq5YPt{fill: #fff;}#el_F4lL6SdfH25_c4Tc7HrwE{-webkit-transform: translate(102.44002151489258px, 133.00001525878906px) rotate(0deg) translate(-102.44002151489258px, -133.00001525878906px);transform: translate(102.44002151489258px, 133.00001525878906px) rotate(0deg) translate(-102.44002151489258px, -133.00001525878906px);-webkit-animation-timing-function: cubic-bezier(0.42, 0, 0.58, 1);animation-timing-function: cubic-bezier(0.42, 0, 0.58, 1);}#el_iNcLxzx4E:hover #el_F4lL6SdfH25_c4Tc7HrwE{-webkit-animation-name: el_F4lL6SdfH25_c4Tc7HrwE_Animation;animation-name: el_F4lL6SdfH25_c4Tc7HrwE_Animation;}#el_EGhE38h_ij7_ZMx0Tepqn{-webkit-transform: translate(185.2050552368164px, 132.73038482666016px) rotate(0deg) translate(-185.2050552368164px, -132.73038482666016px);transform: translate(185.2050552368164px, 132.73038482666016px) rotate(0deg) translate(-185.2050552368164px, -132.73038482666016px);-webkit-animation-timing-function: cubic-bezier(0.42, 0, 0.58, 1);animation-timing-function: cubic-bezier(0.42, 0, 0.58, 1);}#el_iNcLxzx4E:hover #el_EGhE38h_ij7_ZMx0Tepqn{-webkit-animation-name: el_EGhE38h_ij7_ZMx0Tepqn_Animation;animation-name: el_EGhE38h_ij7_ZMx0Tepqn_Animation;}#el_8Tn3GMKVASt_xjVSiuP4q{-webkit-animation-timing-function: cubic-bezier(0.42, 0, 0.58, 1);animation-timing-function: cubic-bezier(0.42, 0, 0.58, 1);-webkit-transform: translate(109.38501358032227px, 73.82000350952148px) rotate(0deg) translate(-109.38501358032227px, -73.82000350952148px);transform: translate(109.38501358032227px, 73.82000350952148px) rotate(0deg) translate(-109.38501358032227px, -73.82000350952148px);}#el_iNcLxzx4E:hover #el_8Tn3GMKVASt_xjVSiuP4q{-webkit-animation-name: el_8Tn3GMKVASt_xjVSiuP4q_Animation;animation-name: el_8Tn3GMKVASt_xjVSiuP4q_Animation;}</style><defs><linearGradient id="linear-gradient" x1="344.27" y1="-154.16" x2="344.27" y2="-193.61" gradientTransform="translate(-161.43 418.04)" gradientUnits="userSpaceOnUse"><stop offset="0" stop-color="#fff" stop-opacity="0"/><stop offset="1" stop-opacity="0.5"/></linearGradient><clipPath id="clip-path"><path class="cls-1" d="M25.1,47.24V168.78c.08.17,248.81,0,249.4,0V47.24C274.59,47.32,25.1,47.24,25.1,47.24Z"/></clipPath></defs><title>computer</title><rect x="110.45" y="263.94" width="79.04" height="5.44" id="el_YH6rkSH629"/><path d="M8.85,185.15v25.34a13.94,13.94,0,0,0,14,14H123.58c-.17,2.95-.34,5.56-.51,7.91.17-2.35.34-5,.51-7.91H275.09c7.75,0,15.83-6.23,15.83-14V185.15C286.29,185.07,8.85,185.15,8.85,185.15Zm141,29.38a9.77,9.77,0,1,1,9.77-9.77A9.77,9.77,0,0,1,149.84,214.53Z" id="el_d1EjYKrqxp"/><path d="M180.14,252.74s3.88,9.77,9.26,9.77c-5.38,0-9.26-9.77-9.26-9.77s-2.69-5.05-3.87-28.28h0C177.45,247.69,180.14,252.74,180.14,252.74Z" id="el_0uxOfUWo9_"/><path d="M180.14,252.74s3.88,9.77,9.26,9.77c-5.38,0-9.26-9.77-9.26-9.77s-2.69-5.05-3.87-28.28h0C177.45,247.69,180.14,252.74,180.14,252.74Z" id="el_rNSxcs0rvL"/><path d="M180.14,252.74s-2.69-5.05-3.87-28.28H123.58c-.17,2.95-.34,5.56-.51,7.91s-.33,4.46-.58,6.32c-.26,2.77-.59,5.05-.85,6.9a36.78,36.78,0,0,1-1.51,7.15s-4,9.77-9.6,9.77c.17,0,0,1.43,0,1.43H189.4s-.17-1.43,0-1.43C184,262.51,180.14,252.74,180.14,252.74Z" id="el_OsDmvlWUju"/><path d="M180.14,252.74s-2.69-5.05-3.87-28.28H123.58c-.17,2.95-.34,5.56-.51,7.91s-.33,4.46-.58,6.32c-.26,2.77-.59,5.05-.85,6.9a36.78,36.78,0,0,1-1.51,7.15s-4,9.77-9.6,9.77c.17,0,0,1.43,0,1.43H189.4s-.17-1.43,0-1.43C184,262.51,180.14,252.74,180.14,252.74Z" id="el_-TL6aRg6oO"/><path d="M277,31H22.82a13.94,13.94,0,0,0-14,14V185.15s277.52-.08,282.07,0H291V44.83A13.92,13.92,0,0,0,277,31ZM274.5,168.74c-.59,0-249.23.17-249.4,0V47.19s249.4.09,249.4,0Z" id="el_Zmb3yvBbQ3"/><circle cx="149.84" cy="204.76" r="9.76" id="el_mTRX8vOBM3"/><path d="M25.1,47.19V168.74c.08.17,248.81,0,249.4,0V47.19C274.59,47.28,25.1,47.19,25.1,47.19Z" id="el_-3PAkxYf9M"/><path d="M110.45,262.51c.17,0,0,1.43,0,1.43S110.62,262.51,110.45,262.51Z" id="el_a9mw2T4IPo"/><path d="M121.64,245.59c.26-1.85.59-4.13.85-6.9C122.23,241.46,121.9,243.74,121.64,245.59Z" id="el_omJTqLv4PJ"/><path d="M122.49,238.69c.16-1.86.33-4,.58-6.32C122.82,234.65,122.65,236.75,122.49,238.69Z" id="el_MZzoZkvy6e"/><path d="M180.14,252.74s-2.69-5.05-3.87-28.28H123.58c-.17,2.95-.34,5.56-.51,7.91s-.33,4.46-.58,6.32c-.26,2.77-.59,5.05-.85,6.9a36.78,36.78,0,0,1-1.51,7.15s-4,9.77-9.6,9.77c.17,0,0,1.43,0,1.43H189.4s-.17-1.43,0-1.43C184,262.51,180.14,252.74,180.14,252.74Z" id="el_6KUaFNK93k"/><path d="M180.14,252.74s-2.69-5.05-3.87-28.28H123.58c-.17,2.95-.34,5.56-.51,7.91s-.33,4.46-.58,6.32c-.26,2.77-.59,5.05-.85,6.9a36.78,36.78,0,0,1-1.51,7.15s-4,9.77-9.6,9.77c.17,0,0,1.43,0,1.43H189.4s-.17-1.43,0-1.43C184,262.51,180.14,252.74,180.14,252.74Z" id="el_pZMUAHkN_3"/><path d="M176.27,224.46s.17,3.19.24,4.14H123.33l.25-4.14Z" id="el_GjhlQA8-Qo"/><g id="el_kN52XcAGtFY"><g id="el_KfhoczIyDH3"><g id="el_EGhE38h_ij7_ZMx0Tepqn" data-animator-group="true" data-animator-type="1"><g id="el_EGhE38h_ij7"><g id="el_ex-YnzBniub"><g id="el_9dTdGboDaDR" data-name="666-gear2.png"><path d="M129.07,129.13l-.07,1.1a4,4,0,0,0,3.23,4.17l6.06,1.21a4,4,0,0,1,3.2,3.4,48.52,48.52,0,0,0,1.18,5.73,4,4,0,0,1-1.57,4.35l-5,3.52a4,4,0,0,0-1.29,5.11l.49.95a4,4,0,0,0,4.87,2l5.86-2a4,4,0,0,1,4.46,1.32,45.79,45.79,0,0,0,3.89,4.34,4,4,0,0,1,.83,4.58l-2.63,5.61a4,4,0,0,0,1.44,5.06l.89.59a4,4,0,0,0,5.23-.7l4.06-4.63a4,4,0,0,1,4.51-1.08,47.48,47.48,0,0,0,5.56,1.79,4,4,0,0,1,3,3.55l.54,6.16a4,4,0,0,0,3.79,3.66l1.08.06a4,4,0,0,0,4.17-3.22L188,179.7a4,4,0,0,1,3.4-3.2,40.15,40.15,0,0,0,5.73-1.17,4.07,4.07,0,0,1,4.38,1.57l3.53,5a4,4,0,0,0,5.1,1.27l.95-.48a4,4,0,0,0,2-4.88l-2-5.86a4,4,0,0,1,1.33-4.46,44.46,44.46,0,0,0,4.34-3.89,4,4,0,0,1,4.58-.83l5.61,2.61a4,4,0,0,0,5.06-1.44l.59-.89a4,4,0,0,0-.71-5.23l-4.62-4.06a4,4,0,0,1-1.09-4.5,45.86,45.86,0,0,0,1.8-5.57,4,4,0,0,1,3.55-3l6.16-.54a4,4,0,0,0,3.66-3.79l.06-1.08a3.94,3.94,0,0,0-3.23-4.12L232.18,130a4,4,0,0,1-3.2-3.41,43,43,0,0,0-1.17-5.72,4,4,0,0,1,1.57-4.38l5-3.53a4,4,0,0,0,1.27-5.12l-.47-1a4,4,0,0,0-4.87-2l-5.86,2a4,4,0,0,1-4.46-1.33,49.19,49.19,0,0,0-3.91-4.36,4,4,0,0,1-.83-4.58l2.6-5.61a4,4,0,0,0-1.43-5.06l-.89-.59a4,4,0,0,0-5.23.7l-4,4.59a4,4,0,0,1-4.52,1.08,47.93,47.93,0,0,0-5.59-1.8,4,4,0,0,1-3-3.54l-.54-6.15a4,4,0,0,0-3.79-3.65l-1.08-.06a4,4,0,0,0-4.17,3.29l-1.22,6A4,4,0,0,1,179,89a42.61,42.61,0,0,0-5.74,1.17,4.05,4.05,0,0,1-4.38-1.57l-3.51-5a4,4,0,0,0-5.1-1.29l-.95.48a4,4,0,0,0-2,4.88l2,5.86A4,4,0,0,1,158,98a44.46,44.46,0,0,0-4.34,3.89,4.05,4.05,0,0,1-4.58.83l-5.61-2.63a4,4,0,0,0-5.06,1.44l-.59.89a4,4,0,0,0,.71,5.22l4.62,4.07a4,4,0,0,1,1.08,4.52,47.64,47.64,0,0,0-1.79,5.57,4,4,0,0,1-3.55,3l-6.14.54a4,4,0,0,0-3.66,3.77Zm28.05,2.08a28.15,28.15,0,1,1,26.57,29.65A28.16,28.16,0,0,1,157.12,131.21Z" id="el_9ocXZpwmua4"/></g></g></g></g><g id="el_8Tn3GMKVASt_xjVSiuP4q" data-animator-group="true" data-animator-type="1"><g id="el_8Tn3GMKVASt"><g id="el_ajm1O782TCD" data-name="666-gear2.png"><path d="M72.12,73.44v.73a2.66,2.66,0,0,0,2.28,2.64l4.06.58a2.68,2.68,0,0,1,2.24,2.14,31.61,31.61,0,0,0,1,3.74,2.67,2.67,0,0,1-.88,2.94l-3.21,2.51a2.69,2.69,0,0,0-.67,3.43l.36.61a2.67,2.67,0,0,0,3.3,1.15l3.8-1.54a2.67,2.67,0,0,1,3,.72,29.31,29.31,0,0,0,2.73,2.73,2.69,2.69,0,0,1,.72,3l-1.54,3.8a2.68,2.68,0,0,0,1.13,3.3l.62.36a2.66,2.66,0,0,0,3.43-.66L97,102.41a2.64,2.64,0,0,1,2.94-.88,32.58,32.58,0,0,0,3.74,1,2.68,2.68,0,0,1,2.14,2.23l.58,4.06a2.66,2.66,0,0,0,2.64,2.28h.71a2.66,2.66,0,0,0,2.64-2.28l.59-4.06a2.66,2.66,0,0,1,2.13-2.23,26.74,26.74,0,0,0,3.74-1,2.69,2.69,0,0,1,3,.88l2.52,3.21a2.67,2.67,0,0,0,3.42.66l.61-.36a2.66,2.66,0,0,0,1.15-3.3L128,98.82a2.68,2.68,0,0,1,.72-3,29.31,29.31,0,0,0,2.73-2.73,2.68,2.68,0,0,1,3-.72l3.8,1.52a2.65,2.65,0,0,0,3.3-1.13l.36-.61a2.65,2.65,0,0,0-.66-3.43L138,86.2a2.66,2.66,0,0,1-.88-2.94,30.34,30.34,0,0,0,1-3.75,2.66,2.66,0,0,1,2.24-2.13l4-.58a2.68,2.68,0,0,0,2.29-2.64v-.72a2.61,2.61,0,0,0-2.29-2.61l-4-.58a2.68,2.68,0,0,1-2.24-2.14,27.11,27.11,0,0,0-1-3.74,2.7,2.7,0,0,1,.88-3l3.21-2.52a2.69,2.69,0,0,0,.66-3.44l-.35-.61a2.65,2.65,0,0,0-3.29-1.13l-3.81,1.53a2.67,2.67,0,0,1-3-.71,30.92,30.92,0,0,0-2.74-2.75,2.68,2.68,0,0,1-.72-3L129.5,45a2.66,2.66,0,0,0-1.14-3.3l-.61-.35a2.65,2.65,0,0,0-3.43.65l-2.49,3.18a2.66,2.66,0,0,1-3,.88,30.94,30.94,0,0,0-3.76-1A2.68,2.68,0,0,1,113,42.83l-.58-4a2.66,2.66,0,0,0-2.64-2.29H109a2.67,2.67,0,0,0-2.64,2.33l-.58,4a2.67,2.67,0,0,1-2.13,2.24,27.69,27.69,0,0,0-3.76,1,2.7,2.7,0,0,1-3-.89L94.47,42a2.65,2.65,0,0,0-3.42-.67l-.61.35A2.66,2.66,0,0,0,89.29,45l1.52,3.81a2.65,2.65,0,0,1-.71,3,29.31,29.31,0,0,0-2.73,2.73,2.68,2.68,0,0,1-3,.72L80.56,53.7a2.65,2.65,0,0,0-3.29,1.14l-.36.61a2.66,2.66,0,0,0,.65,3.43l3.21,2.52a2.66,2.66,0,0,1,.88,3,30.16,30.16,0,0,0-1,3.74,2.66,2.66,0,0,1-2.24,2.13l-4,.58a2.64,2.64,0,0,0-2.29,2.63Zm18.63.36A18.65,18.65,0,1,1,109.4,92.45,18.66,18.66,0,0,1,90.75,73.8Z" id="el_8vR2YXuLma6"/></g></g></g><g id="el_F4lL6SdfH25_c4Tc7HrwE" data-animator-group="true" data-animator-type="1"><g id="el_F4lL6SdfH25"><g id="el_5WwihMKS5Og" data-name="666-gear2.png"><path d="M80.92,132.85v.42a1.54,1.54,0,0,0,1.32,1.52l2.34.33a1.55,1.55,0,0,1,1.29,1.23,17.55,17.55,0,0,0,.56,2.16,1.54,1.54,0,0,1-.5,1.69l-1.85,1.45a1.54,1.54,0,0,0-.39,2l.21.35a1.54,1.54,0,0,0,1.9.66l2.19-.89a1.55,1.55,0,0,1,1.73.42,16.62,16.62,0,0,0,1.57,1.57,1.55,1.55,0,0,1,.41,1.73l-.88,2.19a1.53,1.53,0,0,0,.65,1.9l.35.21a1.54,1.54,0,0,0,2-.38l1.45-1.85A1.54,1.54,0,0,1,97,149a18.31,18.31,0,0,0,2.15.57,1.52,1.52,0,0,1,1.23,1.29l.34,2.34a1.53,1.53,0,0,0,1.52,1.31h.41a1.53,1.53,0,0,0,1.52-1.31l.34-2.34a1.52,1.52,0,0,1,1.23-1.29,15.82,15.82,0,0,0,2.15-.57,1.57,1.57,0,0,1,1.71.51l1.45,1.85a1.54,1.54,0,0,0,2,.38l.35-.21a1.52,1.52,0,0,0,.66-1.9l-.87-2.19a1.53,1.53,0,0,1,.41-1.73,16.62,16.62,0,0,0,1.57-1.57,1.55,1.55,0,0,1,1.73-.42l2.19.88a1.53,1.53,0,0,0,1.9-.65l.21-.35a1.54,1.54,0,0,0-.38-2l-1.85-1.45a1.54,1.54,0,0,1-.51-1.7,18.85,18.85,0,0,0,.57-2.15,1.52,1.52,0,0,1,1.29-1.23l2.34-.34a1.54,1.54,0,0,0,1.31-1.52v-.41a1.51,1.51,0,0,0-1.31-1.51l-2.34-.33a1.54,1.54,0,0,1-1.29-1.23,16.36,16.36,0,0,0-.57-2.16,1.55,1.55,0,0,1,.51-1.7l1.85-1.45a1.56,1.56,0,0,0,.38-2l-.2-.35a1.54,1.54,0,0,0-1.9-.66l-2.19.89a1.54,1.54,0,0,1-1.73-.41,18.24,18.24,0,0,0-1.58-1.59,1.51,1.51,0,0,1-.41-1.72l.87-2.19a1.52,1.52,0,0,0-.65-1.9l-.35-.21a1.53,1.53,0,0,0-2,.38l-1.44,1.83a1.55,1.55,0,0,1-1.7.51,16,16,0,0,0-2.16-.57,1.53,1.53,0,0,1-1.23-1.29l-.34-2.33a1.54,1.54,0,0,0-1.52-1.32h-.41a1.53,1.53,0,0,0-1.52,1.35l-.34,2.32a1.52,1.52,0,0,1-1.23,1.29,17.13,17.13,0,0,0-2.16.57,1.56,1.56,0,0,1-1.71-.51l-1.44-1.84a1.52,1.52,0,0,0-2-.39l-.35.21a1.51,1.51,0,0,0-.66,1.9l.87,2.19a1.52,1.52,0,0,1-.41,1.72A16.72,16.72,0,0,0,89.71,122a1.55,1.55,0,0,1-1.73.41l-2.19-.88a1.53,1.53,0,0,0-1.9.65l-.21.35a1.54,1.54,0,0,0,.38,2l1.85,1.45a1.55,1.55,0,0,1,.51,1.7,15.58,15.58,0,0,0-.57,2.16A1.55,1.55,0,0,1,84.56,131l-2.33.33a1.53,1.53,0,0,0-1.32,1.52Zm10.74.2A10.75,10.75,0,1,1,102.4,143.8,10.74,10.74,0,0,1,91.66,133.05Z" id="el_WMufnSq5YPt"/></g></g></g></g></g></svg>