<svg id="el_Ib0uWKo0E" data-name="Layer 1" xmlns="http://www.w3.org/2000/svg" viewBox="0 0 300 300"><style>@-webkit-keyframes el_jJMnXqkabbY_Animation{66.67%{opacity: 0;}75.56%{opacity: 1;}84.44%{opacity: 0;}93.33%{opacity: 1;}100%{opacity: 0;}0%{opacity: 0;}}@keyframes el_jJMnXqkabbY_Animation{66.67%{opacity: 0;}75.56%{opacity: 1;}84.44%{opacity: 0;}93.33%{opacity: 1;}100%{opacity: 0;}0%{opacity: 0;}}@-webkit-keyframes el_XowtTBql1i7_Animation{66.67%{opacity: 0;}77.78%{opacity: 1;}88.89%{opacity: 0;}100%{opacity: 1;}0%{opacity: 0;}}@keyframes el_XowtTBql1i7_Animation{66.67%{opacity: 0;}77.78%{opacity: 1;}88.89%{opacity: 0;}100%{opacity: 1;}0%{opacity: 0;}}@-webkit-keyframes el_srLbpysvRd__Animation{66.67%{opacity: 0;}73.33%{opacity: 1;}80%{opacity: 0;}91.11%{opacity: 1;}100%{opacity: 0;}0%{opacity: 0;}}@keyframes el_srLbpysvRd__Animation{66.67%{opacity: 0;}73.33%{opacity: 1;}80%{opacity: 0;}91.11%{opacity: 1;}100%{opacity: 0;}0%{opacity: 0;}}@-webkit-keyframes el_A5W5JXiQKXP_Animation{66.67%{opacity: 0;}75.56%{opacity: 1;}86.67%{opacity: 0;}100%{opacity: 1;}0%{opacity: 0;}}@keyframes el_A5W5JXiQKXP_Animation{66.67%{opacity: 0;}75.56%{opacity: 1;}86.67%{opacity: 0;}100%{opacity: 1;}0%{opacity: 0;}}@-webkit-keyframes el_mYOJmDDB7Lr_Animation{66.67%{opacity: 0;}80%{opacity: 0;}88.89%{opacity: 1;}100%{opacity: 0;}0%{opacity: 0;}}@keyframes el_mYOJmDDB7Lr_Animation{66.67%{opacity: 0;}80%{opacity: 0;}88.89%{opacity: 1;}100%{opacity: 0;}0%{opacity: 0;}}@-webkit-keyframes el_J_J3imT6tK_l8DoaovTr_Animation{0%{-webkit-transform: translate(148.6850242614746px, 153.82500839233398px) scale(1, 1) translate(-148.6850242614746px, -153.82500839233398px);transform: translate(148.6850242614746px, 153.82500839233398px) scale(1, 1) translate(-148.6850242614746px, -153.82500839233398px);}33.33%{-webkit-transform: translate(148.6850242614746px, 153.82500839233398px) scale(0.8, 0.8) translate(-148.6850242614746px, -153.82500839233398px);transform: translate(148.6850242614746px, 153.82500839233398px) scale(0.8, 0.8) translate(-148.6850242614746px, -153.82500839233398px);}66.67%{-webkit-transform: translate(148.6850242614746px, 153.82500839233398px) scale(1, 1) translate(-148.6850242614746px, -153.82500839233398px);transform: translate(148.6850242614746px, 153.82500839233398px) scale(1, 1) translate(-148.6850242614746px, -153.82500839233398px);}100%{-webkit-transform: translate(148.6850242614746px, 153.82500839233398px) scale(1, 1) translate(-148.6850242614746px, -153.82500839233398px);transform: translate(148.6850242614746px, 153.82500839233398px) scale(1, 1) translate(-148.6850242614746px, -153.82500839233398px);}}@keyframes el_J_J3imT6tK_l8DoaovTr_Animation{0%{-webkit-transform: translate(148.6850242614746px, 153.82500839233398px) scale(1, 1) translate(-148.6850242614746px, -153.82500839233398px);transform: translate(148.6850242614746px, 153.82500839233398px) scale(1, 1) translate(-148.6850242614746px, -153.82500839233398px);}33.33%{-webkit-transform: translate(148.6850242614746px, 153.82500839233398px) scale(0.8, 0.8) translate(-148.6850242614746px, -153.82500839233398px);transform: translate(148.6850242614746px, 153.82500839233398px) scale(0.8, 0.8) translate(-148.6850242614746px, -153.82500839233398px);}66.67%{-webkit-transform: translate(148.6850242614746px, 153.82500839233398px) scale(1, 1) translate(-148.6850242614746px, -153.82500839233398px);transform: translate(148.6850242614746px, 153.82500839233398px) scale(1, 1) translate(-148.6850242614746px, -153.82500839233398px);}100%{-webkit-transform: translate(148.6850242614746px, 153.82500839233398px) scale(1, 1) translate(-148.6850242614746px, -153.82500839233398px);transform: translate(148.6850242614746px, 153.82500839233398px) scale(1, 1) translate(-148.6850242614746px, -153.82500839233398px);}}#el_Ib0uWKo0E *{-webkit-animation-duration: 1.5s;animation-duration: 1.5s;-webkit-animation-play-state: running;animation-play-state: running;-webkit-animation-timing-function: cubic-bezier(0, 0, 1, 1);animation-timing-function: cubic-bezier(0, 0, 1, 1);}#el_bf29iMfPUh{fill: #375558;}#el_-zdQA9id4B{fill: #e5e9e9;}#el_HWk_asIg-Y{fill: #f58a30;}#el_u6fqCyclsv{fill: #cdd4d4;}#el_zZMmkUehmK{fill: #f16b38;}#el_cXIM3aCE8K{fill: #59c5d1;}#el_2KteYpggob{fill: #59c5d1;}#el_7NijxkUJc5{fill: #59c5d1;}#el_-N3inDlI_D{fill: #e5e9e9;}#el_CX9K8-cdto{fill: #cdd4d4;}#el_EhAmDj-C1u{fill: #59c5d1;}#el_AAqLKqhuXO{fill: #0094a9;}#el_oqWzNy1m3o{fill: #697f82;}#el_FIlIp_B4il{fill: #375558;}#el_IJU3B9KTdIW{fill: #375558;}#el_pG4_oGiI3NG{fill: #375558;}#el_9r0DaFNsc7N{fill: #e5e9e9;}#el_Bw8BYz2JjvF{fill: #cdd4d4;}#el_4ANmJa8g5AU{fill: #9aa9aa;}#el_Vv3f5lNsiKG{fill: #697f82;}#el_SRw2Hlt73-b{fill: #697f82;}#el_B1mw9De55Lc{fill: #375558;}#el_84zv8tdHVwe{fill: #9aa9aa;}#el_Tbg1TnTWi-0{fill: #697f82;}#el_q3En0k-DcIU{fill: #375558;}#el_XowtTBql1i7{fill: #ffc829;opacity: 0;-webkit-animation-timing-function: cubic-bezier(0.42, 0, 0.58, 1);animation-timing-function: cubic-bezier(0.42, 0, 0.58, 1);}#el_Ib0uWKo0E:hover #el_XowtTBql1i7{-webkit-animation-name: el_XowtTBql1i7_Animation;animation-name: el_XowtTBql1i7_Animation;}#el_A5W5JXiQKXP{fill: #ffc829;opacity: 0;-webkit-animation-timing-function: cubic-bezier(0.42, 0, 0.58, 1);animation-timing-function: cubic-bezier(0.42, 0, 0.58, 1);}#el_Ib0uWKo0E:hover #el_A5W5JXiQKXP{-webkit-animation-name: el_A5W5JXiQKXP_Animation;animation-name: el_A5W5JXiQKXP_Animation;}#el_srLbpysvRd_{fill: #ffc829;opacity: 0;-webkit-animation-timing-function: cubic-bezier(0.42, 0, 0.58, 1);animation-timing-function: cubic-bezier(0.42, 0, 0.58, 1);}#el_Ib0uWKo0E:hover #el_srLbpysvRd_{-webkit-animation-name: el_srLbpysvRd__Animation;animation-name: el_srLbpysvRd__Animation;}#el_jJMnXqkabbY{fill: #ffc829;opacity: 0;-webkit-animation-timing-function: cubic-bezier(0.42, 0, 0.58, 1);animation-timing-function: cubic-bezier(0.42, 0, 0.58, 1);}#el_Ib0uWKo0E:hover #el_jJMnXqkabbY{-webkit-animation-name: el_jJMnXqkabbY_Animation;animation-name: el_jJMnXqkabbY_Animation;}#el_mYOJmDDB7Lr{fill: #ffc829;opacity: 0;-webkit-animation-timing-function: cubic-bezier(0.42, 0, 0.58, 1);animation-timing-function: cubic-bezier(0.42, 0, 0.58, 1);}#el_Ib0uWKo0E:hover #el_mYOJmDDB7Lr{-webkit-animation-name: el_mYOJmDDB7Lr_Animation;animation-name: el_mYOJmDDB7Lr_Animation;}#el_J_J3imT6tK_l8DoaovTr{-webkit-transform: translate(148.6850242614746px, 153.82500839233398px) scale(1, 1) translate(-148.6850242614746px, -153.82500839233398px);transform: translate(148.6850242614746px, 153.82500839233398px) scale(1, 1) translate(-148.6850242614746px, -153.82500839233398px);-webkit-animation-timing-function: cubic-bezier(0, 0, 0.58, 1);animation-timing-function: cubic-bezier(0, 0, 0.58, 1);}#el_Ib0uWKo0E:hover #el_J_J3imT6tK_l8DoaovTr{-webkit-animation-name: el_J_J3imT6tK_l8DoaovTr_Animation;animation-name: el_J_J3imT6tK_l8DoaovTr_Animation;}</style><defs/><title>PWA</title><g id="el_J_J3imT6tK_l8DoaovTr" data-animator-group="true" data-animator-type="2"><g id="el_J_J3imT6tK"><path d="M159.48,202.27a80.23,80.23,0,1,1,11.77-.86A79.95,79.95,0,0,1,159.48,202.27Zm0-153A72.76,72.76,0,1,0,232.22,122,72.86,72.86,0,0,0,159.48,49.25Z" id="el_bf29iMfPUh"/><path d="M209.45,204.81H48.8a4.23,4.23,0,0,1-4.43-4V77.55a4.23,4.23,0,0,1,4.43-4H209.45a4.23,4.23,0,0,1,4.43,4V200.83A4.23,4.23,0,0,1,209.45,204.81Z" id="el_-zdQA9id4B"/><path d="M213.88,98.54H44.37v-21a4,4,0,0,1,4-4H209.89a4,4,0,0,1,4,4Z" id="el_HWk_asIg-Y"/><path d="M48.8,204.81a4.23,4.23,0,0,1-4.43-4V77.55a4.23,4.23,0,0,1,4.43-4h82.69V204.81Z" id="el_u6fqCyclsv"/><path d="M44.37,98.54v-21a4,4,0,0,1,4-4h82.89v25Z" id="el_zZMmkUehmK"/><circle cx="54.45" cy="86.76" r="4.03" id="el_cXIM3aCE8K"/><circle cx="68.49" cy="86.76" r="4.03" id="el_2KteYpggob"/><circle cx="83.78" cy="86.76" r="4.03" id="el_7NijxkUJc5"/><path d="M253,111V236.37a3.91,3.91,0,0,1-3.92,3.92h-92a3.91,3.91,0,0,1-3.91-3.92V111a3.91,3.91,0,0,1,3.91-3.92h92A3.91,3.91,0,0,1,253,111Z" id="el_-N3inDlI_D"/><path d="M205.2,240.29H157.13a3.91,3.91,0,0,1-3.91-3.92V111a3.91,3.91,0,0,1,3.91-3.92H205.2Z" id="el_CX9K8-cdto"/><path d="M253,111v29H153.22V111a3.91,3.91,0,0,1,3.91-3.92h92A3.91,3.91,0,0,1,253,111Z" id="el_EhAmDj-C1u"/><path d="M205.2,140h-52V111a3.91,3.91,0,0,1,3.91-3.92H205.2Z" id="el_AAqLKqhuXO"/><path d="M195,123.53a3.91,3.91,0,0,0,3.92,3.91h12.54a3.92,3.92,0,0,0,0-7.83H198.93A3.91,3.91,0,0,0,195,123.53Z" id="el_oqWzNy1m3o"/><path d="M205.2,127.44h-6.27a3.92,3.92,0,1,1,0-7.83h6.27Z" id="el_FIlIp_B4il"/><path d="M240.25,122.57A80.24,80.24,0,0,1,160,202.86v-7.55a72.71,72.71,0,0,0,72.74-72.74Z" id="el_IJU3B9KTdIW"/><path d="M111.16,187.24a80.34,80.34,0,0,1-26.32-36l8-.31A72.79,72.79,0,0,0,109.72,176" id="el_pG4_oGiI3NG"/><path d="M166.9,265.84H109.56a4.49,4.49,0,0,1-4.48-4.48V152.76c0-2.48,2-6.16,4.48-6.16H166.9c2.47,0,4.48,3.68,4.48,6.16v108.6A4.49,4.49,0,0,1,166.9,265.84Z" id="el_9r0DaFNsc7N"/><path d="M109.56,265.84a4.49,4.49,0,0,1-4.48-4.48V152.76c0-2.48,2-6.16,4.48-6.16h28.67V265.84Z" id="el_Bw8BYz2JjvF"/><path d="M171.38,169.91h-66.3V150.85c0-1.42,2-4.25,4.48-4.25H166.9c2.47,0,4.48,2.83,4.48,4.25Z" id="el_4ANmJa8g5AU"/><path d="M105.08,169.91V150.85c0-1.42,2-4.25,4.48-4.25h28.67v23.31Z" id="el_Vv3f5lNsiKG"/><path d="M143,158.33h-9.56c-2.47,0-4.48,1.41-4.48,3.15s2,3.14,4.48,3.14H143c2.47,0,4.48-1.41,4.48-3.14S145.48,158.33,143,158.33Z" id="el_SRw2Hlt73-b"/><path d="M133.45,164.62c-2.47,0-4.48-1.41-4.48-3.14s2-3.15,4.48-3.15h4.78v6.29Z" id="el_B1mw9De55Lc"/><path d="M171.38,253.15h-66.3v8.44c0,1.42,2,4.25,4.48,4.25H166.9c2.47,0,4.48-2.83,4.48-4.25Z" id="el_84zv8tdHVwe"/><path d="M105.08,253.15v8.44c0,1.42,2,4.25,4.48,4.25h28.67V253.15Z" id="el_Tbg1TnTWi-0"/><polygon points="86.43 142.95 79.43 155.55 99.22 149.58 86.43 142.95" id="el_q3En0k-DcIU"/></g></g><polygon id="el_XowtTBql1i7" points="77.3 6.34 84.97 20.36 99 28.03 84.97 35.7 77.3 49.73 69.63 35.7 55.6 28.03 69.63 20.36 77.3 6.34"/><polygon id="el_A5W5JXiQKXP" data-name="start1" points="245.3 270 247.67 274.12 252 276.37 247.67 278.62 245.3 282.73 242.93 278.62 238.6 276.37 242.93 274.12 245.3 270"/><polygon id="el_srLbpysvRd_" data-name="start1" points="253.3 242.34 256.73 248.6 263 252.03 256.73 255.46 253.3 261.73 249.87 255.46 243.6 252.03 249.87 248.6 253.3 242.34"/><polygon id="el_jJMnXqkabbY" data-name="start1" points="50.3 45.34 53.73 51.6 60 55.03 53.73 58.46 50.3 64.73 46.87 58.46 40.6 55.03 46.87 51.6 50.3 45.34"/><polygon id="el_mYOJmDDB7Lr" data-name="start1" points="219.3 250.34 224.5 259.84 234 265.03 224.5 270.23 219.3 279.73 214.11 270.23 204.6 265.03 214.11 259.84 219.3 250.34"/></svg>