<?xml version="1.0" encoding="UTF-8"?>
<svg width="102px" height="114px" viewBox="0 0 102 114" version="1.1" xmlns="http://www.w3.org/2000/svg" xmlns:xlink="http://www.w3.org/1999/xlink">
    <!-- Generator: Sketch 61.2 (89653) - https://sketch.com -->
    <title>Group 7</title>
    <desc>Created with Sketch.</desc>
    <defs>
        <polygon id="path-1" points="0.0652376789 0.0260790052 39.0507393 0.0260790052 39.0507393 36.1124086 0.0652376789 36.1124086"></polygon>
    </defs>
    <g id="Symbols" stroke="none" stroke-width="1" fill="none" fill-rule="evenodd">
        <g id="icons-/-app-listing-loudcloud" transform="translate(-8.000000, -10.000000)">
            <g id="Group-12" transform="translate(7.000000, 11.000000)">
                <g id="Group-7">
                    <g id="Group-6">
                        <g id="Group-5">
                            <g id="icon-/-social-media" transform="translate(13.000000, 0.000000)" fill="#FFFFFF" stroke="#292A2D" stroke-width="2">
                                <g id="Group">
                                    <rect id="Rectangle" x="0" y="0" width="82" height="82" rx="7"></rect>
                                </g>
                            </g>
                            <text id="Calling-&amp;-SMS" font-family="Muli-Regular, Muli" font-size="16" font-weight="normal" line-spacing="32" fill="#292A2D">
                                <tspan x="0.5" y="103">Calling &amp; SMS</tspan>
                            </text>
                        </g>
                        <path d="M61.6091192,60.0468124 C61.6013688,60.0468124 61.6013688,60.0545628 61.6091192,60.0468124 C61.305097,60.3742925 60.9931176,60.6705644 60.6577838,60.9981479 C60.1510111,61.481566 59.6362814,61.988442 59.1527599,62.5577345 C58.3652162,63.399841 57.4373386,63.7975914 56.2208362,63.7975914 C56.1039603,63.7975914 55.9791272,63.7975914 55.8621479,63.7897377 C53.5462258,63.6415501 51.3939921,62.737027 49.7798426,61.9649841 C45.3662496,59.8284579 41.4907409,56.7950556 38.2701924,52.9507552 C35.6110827,49.7458108 33.8332448,46.7826789 32.6557011,43.601089 C31.9305739,41.6594595 31.665407,40.1466852 31.7823863,38.719682 C31.860407,37.8073052 32.2112417,37.0509698 32.8584515,36.4037599 L35.5175612,33.7446502 C35.8996041,33.3859618 36.3051049,33.1909618 36.7028553,33.1909618 C37.1941272,33.1909618 37.5917742,33.487337 37.841337,33.7367965 C37.8490874,33.7446502 37.8569412,33.7524006 37.8646916,33.7602544 C38.3403593,34.2047138 38.7926725,34.6647774 39.2683402,35.1560493 C39.5100493,35.4056121 39.7596121,35.6550715 40.0091749,35.9124881 L42.1379507,38.0412639 C42.9645564,38.8678696 42.9645564,39.6320588 42.1379507,40.4585612 C41.9118458,40.6847695 41.6934913,40.9108744 41.467283,41.1292289 C40.8123227,41.7997933 40.1884674,42.4236486 39.5100493,43.0318998 C39.4944452,43.047504 39.478841,43.0552544 39.4710906,43.0708585 C38.8004229,43.7415262 38.925256,44.3964865 39.0655898,44.8409459 C39.0733402,44.8644038 39.081194,44.8877583 39.0889444,44.9111129 C39.6426328,46.2524483 40.4224261,47.5155564 41.6077202,49.0206836 L41.6154706,49.028434 C43.7677043,51.67969 46.0369173,53.7460493 48.5399857,55.3290938 C48.8597154,55.5318442 49.1871955,55.6956359 49.4990715,55.8514706 C49.7798426,55.9919078 50.0449062,56.1244913 50.2711145,56.2648251 C50.3022194,56.2804293 50.3334277,56.3037838 50.3646359,56.3194913 C50.6298029,56.4519714 50.8792623,56.5142846 51.1366789,56.5142846 C51.7838887,56.5142846 52.1893895,56.1088871 52.3218696,55.9763037 L54.9888331,53.3094436 C55.2538967,53.0442766 55.6750016,52.7246502 56.1662734,52.7246502 C56.6497949,52.7246502 57.0473386,53.0287758 57.289151,53.2938394 L57.3047552,53.3094436 L61.6013688,57.6060572 C62.4045167,58.4014547 62.4045167,59.2202067 61.6091192,60.0468124 L61.6091192,60.0468124 Z M58.8175294,51.835628 C58.0610906,51.0480843 57.1488172,50.6269793 56.1817742,50.6269793 C55.2226884,50.6269793 54.3025612,51.0403339 53.5150175,51.8278776 L51.0509078,54.2841335 C50.8481574,54.1750079 50.645407,54.0736328 50.450407,53.9722576 C50.1697393,53.8318203 49.9045723,53.6993402 49.6784674,53.5590064 C47.3702957,52.0929412 45.2727281,50.1825199 43.2608283,47.7105564 C42.2861383,46.4785533 41.6310747,45.4414467 41.155407,44.3887361 C41.7948665,43.8038394 42.3875135,43.1956916 42.9645564,42.6107949 C43.1828076,42.3924404 43.4011622,42.1663355 43.6195167,41.9479809 C45.257124,40.3104769 45.257124,38.1894515 43.6195167,36.5518442 L41.4907409,34.4230684 C41.2490318,34.1813593 40.999469,33.9317965 40.7655103,33.6822337 C40.2976963,33.1988156 39.8064245,32.69969 39.2995485,32.231876 C38.5431097,31.4832909 37.6385866,31.0855405 36.6872512,31.0855405 C35.7359157,31.0855405 34.8157886,31.4832909 34.0359952,32.231876 C34.0281415,32.2396264 34.0281415,32.2396264 34.0203911,32.2474801 L31.3691351,34.9220906 C30.3709873,35.9202385 29.8016948,37.1367409 29.676965,38.5481399 C29.4898188,40.8251033 30.1603831,42.9461288 30.6751129,44.33407 C31.9383243,47.7417647 33.8253911,50.8998967 36.6404388,54.2841335 C40.0558839,58.3623927 44.1653514,61.5829412 48.8597154,63.8521542 C50.6531574,64.7021145 53.0471002,65.7080127 55.7217107,65.8795548 C55.8855024,65.8874086 56.0570445,65.895159 56.2129825,65.895159 C58.0143816,65.895159 59.5271558,65.2479491 60.7123466,63.9612798 C60.7202003,63.9456757 60.7358045,63.9379253 60.7435548,63.9223211 C61.1490556,63.4310493 61.616973,62.9865898 62.1082448,62.5109221 C62.4434754,62.1911924 62.786663,61.8558585 63.1219968,61.5049205 C63.8938331,60.7017727 64.2994372,59.7660413 64.2994372,58.8069555 C64.2994372,57.8400159 63.8860827,56.912035 63.098539,56.1322417 L58.8175294,51.835628 Z" id="Fill-1" fill="#292A2D"></path>
                        <g id="Group-5" transform="translate(47.937997, 8.077297)">
                            <mask id="mask-2" fill="white">
                                <use xlink:href="#path-1"></use>
                            </mask>
                            <g id="Clip-4"></g>
                            <path d="M0.0652376789,18.0399285 C0.711620827,26.8569873 9.04526153,33.8565262 19.1986955,33.8565262 C21.8745461,33.8565262 24.8023362,33.3929491 27.046438,32.6280366 C29.3499595,34.8509539 32.4500151,36.1124086 35.6669467,36.1124086 C36.1233935,36.1124086 36.5344746,35.8375278 36.7090135,35.4162162 C36.8834491,34.9944913 36.7869308,34.5094197 36.4643076,34.1868998 C34.7719308,32.4945231 34.0899992,30.0399205 34.6516447,27.7239984 C37.4909769,24.6979332 39.0507703,20.878744 39.0507703,16.9370986 C39.0507703,7.5049682 29.9561439,0.531470588 20.2851979,0.0462957075 C19.5751582,-0.00165341812 18.0235286,0.0507392687 18.0235286,0.0507392687 C15.0644269,0.210190779 12.1894428,0.970246423 9.6291248,2.2736566 C9.6291248,2.2736566 8.00226471,2.80120032 6.16376709,4.52953895 C2.52604054,7.50620827 0.398401431,11.5153339 0.0687511924,15.7809459 L0.0652376789,18.0399285 Z M2.27926789,16.9370986 C2.27926789,8.53690779 10.1917003,2.2736566 19.1986955,2.2736566 C28.7369547,2.2736566 36.7948879,8.98849762 36.7948879,16.9370986 C36.7948879,20.3839587 35.385349,23.7338871 32.8262711,26.3696423 C32.6963744,26.5031558 32.6016129,26.6670509 32.5504603,26.8463434 C31.9036638,29.1216534 32.1751343,31.5230366 33.2382822,33.5599444 C31.3088466,33.0827266 29.5380358,32.04469 28.1760326,30.5558903 C27.8592997,30.2100159 27.3618275,30.09593 26.9265652,30.2694356 C24.8945143,31.0779571 21.8608021,31.6005405 19.1986955,31.6005405 C9.86918045,31.6005405 2.27926789,25.0227266 2.27926789,16.9370986 L2.27926789,16.9370986 Z" id="Fill-3" fill="#292A2D" mask="url(#mask-2)"></path>
                        </g>
                    </g>
                    <path d="M47.2107409,24.7224642 C41.0012258,24.7224642 35.163213,27.1405882 30.7724579,31.5314467 C26.3815994,35.9223052 23.9634754,41.7602146 23.9634754,47.9698331 C23.9634754,54.1794515 26.3815994,60.0173609 30.7724579,64.4081161 C35.163213,68.7989746 41.0012258,71.2172019 47.2107409,71.2172019 C53.4203593,71.2172019 59.2582687,68.7989746 63.6490238,64.4081161 C68.0398824,60.0173609 70.4581097,54.1794515 70.4581097,47.9698331 C70.4581097,41.7602146 68.0398824,35.9223052 63.6490238,31.5314467 C59.2582687,27.1405882 53.4203593,24.7224642 47.2107409,24.7224642 M47.2107409,73.1806359 C40.4766789,73.1806359 34.1457409,70.5582114 29.3841033,65.7965739 C24.6223625,61.0349364 22.0000413,54.7038951 22.0000413,47.9698331 C22.0000413,41.2357711 24.6223625,34.9048331 29.3841033,30.1430922 C34.1457409,25.3813514 40.4766789,22.7590302 47.2107409,22.7590302 C53.9448029,22.7590302 60.2758442,25.3813514 65.0374817,30.1430922 C69.7991192,34.9048331 72.4215437,41.2357711 72.4215437,47.9698331 C72.4215437,54.7038951 69.7991192,61.0349364 65.0374817,65.7965739 C60.2758442,70.5582114 53.9448029,73.1806359 47.2107409,73.1806359" id="Fill-6" fill="#292A2D"></path>
                </g>
            </g>
        </g>
    </g>
</svg>