<?xml version="1.0" encoding="UTF-8"?>
<svg width="84px" height="111px" viewBox="0 0 84 111" version="1.1" xmlns="http://www.w3.org/2000/svg" xmlns:xlink="http://www.w3.org/1999/xlink">
    <!-- Generator: Sketch 61.2 (89653) - https://sketch.com -->
    <title>Group 6</title>
    <desc>Created with Sketch.</desc>
    <defs>
        <polygon id="path-1" points="0 0 51 0 51 45 0 45"></polygon>
    </defs>
    <g id="Symbols" stroke="none" stroke-width="1" fill="none" fill-rule="evenodd">
        <g id="icons-/-app-listing-voyage" transform="translate(-19.000000, -10.000000)">
            <g id="Group-12" transform="translate(20.000000, 11.000000)">
                <g id="Group-6">
                    <g id="Group-5">
                        <g id="icon-/-social-media" fill="#FFFFFF" stroke="#292A2D" stroke-width="2">
                            <g id="Group">
                                <rect id="Rectangle" x="0" y="0" width="82" height="82" rx="7"></rect>
                            </g>
                        </g>
                        <text id="Health" font-family="Muli-Regular, Muli" font-size="16" font-weight="normal" line-spacing="32" fill="#292A2D">
                            <tspan x="16" y="103">Health</tspan>
                        </text>
                    </g>
                    <g id="Group-3" transform="translate(15.000000, 21.000000)">
                        <mask id="mask-2" fill="white">
                            <use xlink:href="#path-1"></use>
                        </mask>
                        <g id="Clip-2"></g>
                        <path d="M35.3281814,31.9661614 L25.7007355,41.6147218 C25.6452493,41.6703297 25.5555269,41.6703297 25.4988602,41.6147218 L9.37952886,25.4588552 C9.28862594,25.3677529 9.3535566,25.2139438 9.47987625,25.2139438 L12.7382148,25.2139438 C13.4583548,25.2139438 14.242245,24.8578167 14.7711347,24.3242176 C14.8478709,24.2461299 14.97301,24.2721592 15.0048851,24.3774592 L16.3778734,28.9810826 C16.6954433,30.0423651 17.4864168,30.1736943 17.7213477,30.1890752 C17.9586398,30.2044562 18.7590577,30.1736943 19.2076696,29.1573714 L22.2204521,22.3223336 C22.2735772,22.2004695 22.4494803,22.2111178 22.4884387,22.3388976 L26.1139306,34.4531355 C26.4315005,35.5132349 27.2212935,35.6445642 27.4562244,35.6611282 C27.4774744,35.6623114 27.5046272,35.6634945 27.5329606,35.6634945 C27.8340028,35.6634945 28.5340733,35.5581945 28.9472684,34.6400727 L33.0804,25.4316428 C33.1901919,25.360654 33.3070671,25.2849326 33.4168589,25.2127607 L37.5263794,25.2127607 C37.9950607,25.2127607 38.3763807,24.8317875 38.3763807,24.3620783 L38.3763807,23.7018825 C38.3763807,23.2309902 37.9950607,22.8488338 37.5263794,22.8488338 L33.4074144,22.8488338 C32.3401905,22.8488338 31.3721334,23.4759015 30.9341466,24.4508143 L27.8812251,31.2515409 C27.8269194,31.3722218 27.6533775,31.3603904 27.6144191,31.2326105 L23.9759411,19.0828782 C23.6583711,18.0204126 22.8662171,17.8890833 22.6312861,17.8748856 C22.3951746,17.8606878 21.5923956,17.8914496 21.1461449,18.9065894 L18.1345428,25.7380778 C18.0814178,25.8599419 17.9055147,25.8492936 17.8665563,25.7215137 L16.7639157,22.0241807 C16.5608598,21.3438714 16.0768312,20.8895431 15.4700247,20.8067228 C14.8832877,20.727452 14.3178006,21.0137735 13.9412028,21.5734018 L13.1844655,22.5376663 L13.1466877,22.583809 L13.1124515,22.6394169 C13.0510625,22.7234203 12.836201,22.8441012 12.7370342,22.8488338 L6.83424702,22.8488338 C6.79646918,22.8488338 6.7598719,22.8346361 6.73271908,22.8074237 L6.21799604,22.2915718 C4.0859093,20.1536259 2.67986539,17.3247224 2.56771243,14.3041492 C2.44729557,11.0682433 3.64910305,8.00744304 5.92049556,5.73225216 C8.19188808,3.45469498 11.251893,2.25025175 14.4830787,2.373299 C17.4970418,2.48806422 20.316213,3.8995581 22.4471192,6.03632083 L25.4988602,9.09357161 C25.5543464,9.15036265 25.6452493,9.15036265 25.7007355,9.09357161 L28.7501153,6.03750398 C30.8822021,3.90074124 33.7025538,2.48924736 36.7153364,2.373299 C39.9465221,2.24906861 43.006527,3.45351183 45.2791001,5.73225216 C47.9672294,8.42509379 49.1560507,12.2170786 48.4311884,16.0954331 C47.9967433,18.419133 46.7536163,20.5144856 45.0866692,22.1862717 L38.8167286,28.4711464 C38.5074226,28.7811308 38.5027004,29.282785 38.8072842,29.5986851 L39.2983961,30.1074381 C39.6289522,30.4493675 40.1743697,30.4541001 40.5108286,30.1169033 L46.6367411,23.9787388 C48.9341059,21.6751524 50.5491085,18.7066376 50.9103591,15.4707317 C51.3884848,11.1770927 49.9375797,7.05382689 46.9495888,4.06046603 C43.9592369,1.06237258 39.8402719,-0.391714573 35.556029,0.0910092339 C32.3307461,0.454235236 29.3758108,2.07041347 27.0796266,4.36926729 L25.7007355,5.74999936 C25.6452493,5.80560725 25.5543464,5.80560725 25.4988602,5.74999936 L24.1223302,4.37163358 C21.8237848,2.06686403 18.8594051,0.44950265 15.6282194,0.0898260874 C11.3463376,-0.388165134 7.23681711,1.06710517 4.25000679,4.06046603 C1.63861373,6.67758628 0.199514207,10.1584035 0.199514207,13.8616524 C0.199514207,17.0928257 1.29507151,20.154809 3.31028306,22.6216697 C3.38583874,22.7151383 3.32444975,22.850017 3.20521345,22.850017 L0.850001357,22.850017 C0.381320053,22.850017 0,23.2309902 0,23.7018825 L0,24.3620783 C0,24.8329706 0.381320053,25.2139438 0.850001357,25.2139438 L5.73868972,25.2139438 C5.77646756,25.2139438 5.81306484,25.2293248 5.8390371,25.2565371 L25.4988602,44.9582941 C25.5555269,45.013902 25.6452493,45.013902 25.7007355,44.9582941 L37.025823,33.609552 C37.3729069,33.2617069 37.3551985,32.6926134 36.9880452,32.3684313 L36.492211,31.9294839 C36.1557522,31.6313309 35.6457514,31.647895 35.3281814,31.9661614" id="Fill-1" fill="#020303" mask="url(#mask-2)"></path>
                    </g>
                </g>
            </g>
        </g>
    </g>
</svg>