<?xml version="1.0" encoding="UTF-8"?>
<svg width="322px" height="321px" viewBox="0 0 322 321" version="1.1" xmlns="http://www.w3.org/2000/svg" xmlns:xlink="http://www.w3.org/1999/xlink">
    <!-- Generator: Sketch 61.2 (89653) - https://sketch.com -->
    <title>Group 8</title>
    <desc>Created with Sketch.</desc>
    <defs>
        <filter x="-27.9%" y="-27.9%" width="155.7%" height="155.7%" filterUnits="objectBoundingBox" id="filter-1">
            <feOffset dx="0" dy="8" in="SourceAlpha" result="shadowOffsetOuter1"></feOffset>
            <feGaussianBlur stdDeviation="15" in="shadowOffsetOuter1" result="shadowBlurOuter1"></feGaussianBlur>
            <feColorMatrix values="0 0 0 0 0   0 0 0 0 0   0 0 0 0 0  0 0 0 0.5 0" type="matrix" in="shadowBlurOuter1" result="shadowMatrixOuter1"></feColorMatrix>
            <feMerge>
                <feMergeNode in="shadowMatrixOuter1"></feMergeNode>
                <feMergeNode in="SourceGraphic"></feMergeNode>
            </feMerge>
        </filter>
        <polygon id="path-2" points="6.75697517e-05 0.144653521 261.829034 0.144653521 261.829034 261.261972 6.75697517e-05 261.261972"></polygon>
        <linearGradient x1="92.8796466%" y1="6.64917679%" x2="6.63383622%" y2="93.366056%" id="linearGradient-4">
            <stop stop-color="#EF373F" offset="0%"></stop>
            <stop stop-color="#97111D" offset="100%"></stop>
        </linearGradient>
    </defs>
    <g id="Symbols" stroke="none" stroke-width="1" fill="none" fill-rule="evenodd">
        <g id="Our-Work-/-Desktop-/-Loudcloud" transform="translate(-439.000000, -208.000000)">
            <g id="project-header-/-loudcloud">
                <g id="Group-8" filter="url(#filter-1)" transform="translate(469.000000, 230.000000)">
                    <g id="Group-3">
                        <mask id="mask-3" fill="white">
                            <use xlink:href="#path-2"></use>
                        </mask>
                        <g id="Clip-2"></g>
                        <path d="M131.272658,63.7643054 C130.164708,63.7643054 129.024934,63.5952969 127.956211,63.7967786 C125.177087,64.3237307 122.38316,64.8588011 119.676567,65.6625138 C102.40455,70.7895955 91.9186294,82.147849 88.235087,99.7822941 C87.5267989,103.175748 88.608104,104.767674 92.0836746,105.161043 C96.533974,105.665117 100.690449,107.252615 104.538296,109.510981 C107.030256,110.973015 108.009426,111.083719 107.912471,107.572181 C107.649731,98.1128744 111.919443,90.8314885 120.255336,86.5265701 C136.088573,78.34848 154.156951,89.6558096 153.990426,107.49026 C153.962302,110.540531 154.598799,110.8815 157.134426,109.457843 C161.35233,107.090249 165.923268,105.599432 170.710319,104.900519 C173.169714,104.540362 173.998641,103.487934 173.576776,100.955021 C169.765934,78.0407223 153.219968,65.7636237 131.272658,63.7643054 L131.272658,63.7643054 Z M41.003296,155.355077 C41.1083921,156.872463 41.2356915,158.83488 41.3874147,160.795083 C41.4340418,161.40617 41.5050927,162.020948 41.6353525,162.619488 C45.2160192,179.111466 54.7804994,190.488908 71.0082169,195.605657 C87.9775277,200.956362 102.942612,196.863257 115.524533,184.51826 C130.545867,169.7791 145.345166,154.815579 160.252522,139.960548 C162.435855,137.784103 164.722805,135.731646 167.561138,134.395077 C176.972415,129.963218 187.966053,132.203134 194.88611,139.97826 C201.320652,147.207984 202.269477,158.896874 197.090166,167.139911 C191.580025,175.9099 180.866149,180.00448 170.635567,177.07377 C162.593499,174.769646 156.924974,169.501601 153.185183,162.18479 C151.841138,159.553719 150.793878,159.25777 148.702319,161.466688 C146.084539,164.231342 143.292833,166.869055 140.338302,169.270598 C138.012127,171.160688 138.177912,172.798373 139.510115,175.220581 C153.381313,200.436052 186.889189,205.539517 207.667121,185.526407 C223.398963,170.37395 224.864386,144.547393 210.919918,128.207449 C193.623477,107.940457 165.339319,106.748542 146.325076,125.566784 C130.576951,141.152463 114.956127,156.865083 99.2006011,172.442643 C92.3849006,179.181579 84.1481831,179.380846 75.8167311,176.253083 C67.4534542,173.114987 62.3355729,166.801894 61.2875729,157.837066 C60.0626859,147.354852 65.1058158,138.593719 74.2913582,134.380317 C84.0926746,129.884249 93.2560136,131.641494 100.912482,139.621793 C103.808545,142.63959 106.517358,145.83599 109.27872,148.979252 C110.301556,150.14386 111.207454,150.787421 112.611449,149.388857 C116.100341,145.914221 119.654364,142.503793 123.226149,139.113291 C124.599799,137.809934 124.448816,136.66599 123.314223,135.291043 C121.20342,132.733038 119.310211,129.990525 117.132059,127.494514 C104.989025,113.580469 86.1953356,108.690294 69.0965051,114.915562 C52.3040814,121.029387 41.1609401,136.894779 41.003296,155.355077 L41.003296,155.355077 Z M131.039522,261.206029 C110.563556,261.206029 90.0868497,261.294593 69.6116237,261.165438 C60.6207311,261.10861 51.600974,260.820041 42.8217537,258.532153 C20.6635107,252.755607 7.17717175,238.578086 2.22285537,216.364176 C0.314103955,207.806739 0.0365615819,199.053725 0.027680226,190.320638 C-0.0115457627,150.591105 -0.00710508475,110.860835 0.029160452,71.1313025 C0.0380418079,62.1494997 0.41179887,53.1684349 2.34349379,44.3600687 C7.51984407,20.76088 25.4831266,4.59215887 49.6544768,1.52786592 C57.378296,0.548502535 65.1302395,0.187606761 72.8984655,0.180226479 C111.5072,0.14450514 150.115934,0.118232113 188.723929,0.190558873 C198.827951,0.209747606 208.975641,0.324141972 218.848008,2.85926873 C241.337821,8.63433915 254.880409,23.0295786 259.722968,45.6088124 C261.301629,52.9728575 261.726454,60.48008 261.741997,67.9754941 C261.823409,109.057832 261.899641,150.140908 261.714612,191.223246 C261.677607,199.343032 261.255742,207.483483 259.838426,215.582604 C255.766324,238.86075 236.386466,257.244294 212.016025,259.921122 C203.418872,260.86506 194.812098,261.229646 186.1772,261.256215 C185.437087,261.258429 184.696974,261.262119 183.957601,261.262119 C166.317748,261.262119 148.678635,261.262119 131.039522,261.262119 L131.039522,261.206029 Z" id="Fill-1" fill="url(#linearGradient-4)" mask="url(#mask-3)"></path>
                    </g>
                    <path d="M41,155.305018 C41.1572145,136.782753 52.2699915,120.864106 69.0166571,114.729759 C86.0688946,108.483595 104.811372,113.389444 116.921318,127.350935 C119.094273,129.855324 120.981585,132.607043 123.086635,135.172894 C124.218137,136.553197 124.369447,137.70098 122.998802,139.008713 C119.43675,142.410595 115.892411,145.832471 112.413026,149.318771 C111.012857,150.722029 110.109427,150.075568 109.089378,148.90779 C106.336279,145.753978 103.634109,142.546848 100.746676,139.518921 C93.1110709,131.511835 83.9719632,129.748691 74.1973547,134.259851 C65.0368422,138.487397 60.0074544,147.277938 61.2297418,157.795338 C62.274148,166.790258 67.3780835,173.123802 75.718571,176.273172 C84.0273204,179.411434 92.2415935,179.211498 99.0387218,172.449942 C114.751315,156.820092 130.329574,141.05473 146.034786,125.416734 C164.997954,106.535325 193.204302,107.731241 210.453611,128.066263 C224.360083,144.460314 222.898652,170.374305 207.209678,185.577623 C186.488365,205.657911 153.071795,200.537316 139.239134,175.237204 C137.909822,172.806865 137.745227,171.163684 140.064325,169.266509 C143.010805,166.857644 145.794904,164.211077 148.406289,161.437144 C150.492149,159.220811 151.535817,159.517753 152.876938,162.157656 C156.6058,169.499027 162.259617,174.784756 170.279033,177.096614 C180.481737,180.037161 191.167157,175.928837 196.661545,167.12941 C201.826743,158.858704 200.880503,147.130577 194.463494,139.876585 C187.562295,132.07536 176.598613,129.827925 167.213719,134.274661 C164.382382,135.615717 162.101665,137.675062 159.925019,139.858813 C145.057546,154.763708 130.298574,169.777457 115.318172,184.566093 C102.770536,196.952529 87.8462304,201.059372 70.9238978,195.690707 C54.7396615,190.556042 45.2012438,179.141149 41.6303342,162.593813 C41.5011673,161.993263 41.4303101,161.376422 41.3830719,160.763284 C41.2317622,158.796501 41.1055478,156.827497 41,155.305018" id="Fill-4" fill="#FBF7F8"></path>
                    <path d="M131.418829,63.0666656 C153.4552,65.0756618 170.068308,77.412189 173.894614,100.437407 C174.318191,102.98258 173.4859,104.040103 171.016525,104.402004 C166.210048,105.1043 161.620562,106.602333 157.385542,108.981388 C154.839626,110.411936 154.200546,110.069316 154.228784,107.004281 C154.395985,89.0835004 136.254287,77.7214365 120.356799,85.9391136 C111.98708,90.2648703 107.700042,97.5815026 107.963849,107.086598 C108.061197,110.615134 107.078054,110.503894 104.575981,109.034783 C100.71252,106.765485 96.5391783,105.170302 92.0708199,104.663789 C88.5811457,104.268516 87.4954528,102.668883 88.2066151,99.2590033 C91.905105,81.5391968 102.433577,70.1259624 119.775682,64.9740625 C122.493259,64.1664594 125.298523,63.6287989 128.088925,63.099296 C129.161985,62.896839 130.306384,63.0666656 131.418829,63.0666656" id="Fill-6" fill="#FBF7F8"></path>
                </g>
            </g>
        </g>
    </g>
</svg>