<?xml version="1.0" encoding="UTF-8"?>
<svg width="84px" height="114px" viewBox="0 0 84 114" version="1.1" xmlns="http://www.w3.org/2000/svg" xmlns:xlink="http://www.w3.org/1999/xlink">
    <!-- Generator: Sketch 61.2 (89653) - https://sketch.com -->
    <title>Group 2</title>
    <desc>Created with Sketch.</desc>
    <defs>
        <polygon id="path-1" points="0 0 46 0 46 68 0 68"></polygon>
    </defs>
    <g id="Symbols" stroke="none" stroke-width="1" fill="none" fill-rule="evenodd">
        <g id="icons-/-app-listing-voyage" transform="translate(-257.000000, -10.000000)">
            <g id="Group-12" transform="translate(20.000000, 11.000000)">
                <g id="Group-2" transform="translate(238.000000, 0.000000)">
                    <rect id="Rectangle-Copy-4" stroke="#292A2D" stroke-width="2" fill="#FFFFFF" x="0" y="0" width="82" height="82" rx="7"></rect>
                    <text id="Lifestyle" font-family="Muli-Regular, Muli" font-size="16" font-weight="normal" line-spacing="32" fill="#292A2D">
                        <tspan x="10" y="103">Lifestyle</tspan>
                    </text>
                    <g id="Group-3" transform="translate(18.000000, 7.000000)">
                        <mask id="mask-2" fill="white">
                            <use xlink:href="#path-1"></use>
                        </mask>
                        <g id="Clip-2"></g>
                        <path d="M32.4048721,20.9250645 C33.5584452,20.795183 34.3108549,19.8887444 34.2740258,18.725274 C34.2396316,17.6397932 33.464394,16.7925294 32.4048721,16.7175745 L32.4048721,20.9250645 Z M13.3623938,20.9305268 L13.3623938,16.7382098 C12.2225175,16.9591296 11.4338875,17.8770998 11.4786303,18.88975 C11.5264168,19.9703754 12.2736522,20.7930588 13.3623938,20.9305268 L13.3623938,20.9305268 Z M21.0088484,41.1480244 C21.7840861,42.4025331 21.7895648,42.4604942 23.7472909,42.282059 C24.207807,42.2398779 24.6199279,41.6642119 25.1410142,41.2684985 C24.3858652,40.7295513 23.8480383,40.317451 23.2770349,39.9572425 C23.1351971,39.8677214 22.8384336,39.8710595 22.6956827,39.9611875 C22.1258968,40.3216994 21.5886787,40.7334963 21.0088484,41.1480244 L21.0088484,41.1480244 Z M15.1088852,35.0108244 C16.0694859,36.9235406 17.0285647,38.8329186 18.0186896,40.8038993 C19.2163968,39.9545113 20.3562731,39.1454837 21.5348047,38.309448 C20.289311,36.7781826 19.099822,35.315196 17.9085066,33.8506921 C17.0063455,34.2048314 16.1614065,34.5353007 15.317685,34.869715 C15.250723,34.8964195 15.1950227,34.9516495 15.1088852,35.0108244 L15.1088852,35.0108244 Z M30.8537881,35.0083967 C30.742692,34.9270691 30.7064717,34.8873157 30.6611201,34.869715 C30.1692536,34.6745894 29.6764739,34.481588 29.1827812,34.2904075 C28.066646,33.8588856 28.0620804,33.8561544 27.3093663,34.7780697 C26.3585056,35.9418435 25.4152541,37.11199 24.4418698,38.3124826 C25.6474906,39.1661191 26.7770182,39.9663463 27.969551,40.8105755 C28.9432398,38.8514298 29.8931874,36.9408379 30.8537881,35.0083967 L30.8537881,35.0083967 Z M19.305578,30.4749894 C19.054166,31.6496878 19.2815325,32.5330635 20.0610314,33.3490707 C20.9324509,34.2606683 21.6696419,35.2991126 22.4683162,36.2798993 C22.6311557,36.4801837 22.8058657,36.6707574 23.0034037,36.8983533 C24.0680999,35.589525 24.9967415,34.3171121 26.066612,33.1767047 C26.8467196,32.344614 26.829066,31.4569899 26.7130999,30.3966964 C24.2312437,31.38598 21.7798249,31.3547235 19.305578,30.4749894 L19.305578,30.4749894 Z M22.0963726,44.3374019 C22.0431074,44.5121956 21.9834503,44.6530016 21.9584917,44.7998768 C21.0502431,50.145043 20.1392552,55.4892987 19.2577915,60.8387133 C19.2136574,61.1066695 19.3497121,61.4841753 19.534162,61.6962947 C20.5282437,62.8403436 21.562807,63.9491909 22.5876304,65.0662317 C22.715467,65.2058239 22.867349,65.3229599 23.0253185,65.4655867 C24.2300263,64.1494753 25.4024705,62.8940562 26.5350418,61.6034356 C26.6978813,61.4180208 26.7554077,61.0490119 26.7127956,60.7892491 C26.038001,56.6837221 25.3409871,52.5818366 24.6439733,48.4799512 C24.4089975,47.0970783 24.1603249,45.7160263 23.9186528,44.3374019 L22.0963726,44.3374019 Z M12.5615889,14.9177459 C12.9685354,14.659197 13.3806562,14.5305294 13.5684542,14.2513451 C14.0426671,13.5464046 14.6453254,13.2690411 15.4832638,13.2720757 C16.6191833,13.2763241 17.7639295,13.2626684 18.8888916,13.1258074 C21.7189503,12.7819858 24.3216425,11.7769222 26.7426241,10.2808583 C27.7427933,9.66301124 28.5545556,9.73311079 29.2841373,10.4884258 C30.1272501,11.3608768 30.9472306,12.2560875 31.7577755,13.1585812 C31.9726627,13.3980121 32.2259009,13.6856933 32.2691218,13.9791403 C32.3552594,14.5669447 32.6593278,14.71382 33.2011115,14.6601073 C33.6083624,10.2914795 32.5759297,6.48273754 28.7880096,3.89178555 C25.3129848,1.51447026 21.5661551,1.29476433 17.8832437,3.33948611 C13.4491401,5.80177054 12.1330319,9.86147489 12.5615889,14.9177459 L12.5615889,14.9177459 Z M15.4251286,15.48886 C15.4930037,15.3935731 15.4656102,15.414512 15.4659146,15.4348439 C15.4884381,18.0057674 15.2902914,20.6030921 15.5907074,23.1415453 C16.0244387,26.8100881 19.570078,29.3621971 23.4423093,29.1379392 C27.0993491,28.9264267 30.1153796,25.9846736 30.3095695,22.3652915 C30.3963157,20.752395 30.2176489,19.1170424 30.4042294,17.5202294 C30.655337,15.3683859 30.0070229,13.7114875 28.3354072,12.3635127 C27.9485493,12.0515546 27.7266615,11.9960212 27.3099751,12.2497148 C25.3285079,13.4556697 23.2024635,14.353915 20.9230153,14.7808849 C19.1418254,15.1143888 17.323502,15.2521602 15.4251286,15.48886 L15.4251286,15.48886 Z M25.2858957,65.9741877 L36.0536938,65.9741877 L36.0536938,65.0865636 C36.0536938,59.0935077 36.0536938,53.1004519 36.0543025,47.107396 C36.0543025,46.8546128 36.0500413,46.6009192 36.071043,46.3496533 C36.1218733,45.7488001 36.488947,45.4067993 37.0623854,45.4083166 C37.64252,45.4101374 37.9840264,45.7840016 38.0512928,46.3651299 C38.0771645,46.5899946 38.0610327,46.8197148 38.0610327,47.0473107 C38.0613371,53.0403666 38.0613371,59.0334224 38.0613371,65.0264783 L38.0613371,65.9917884 C39.8845304,65.9917884 41.6279781,66.0018027 43.3705126,65.9857192 C43.9311674,65.9805604 43.9704315,65.5602666 43.9698227,65.1226755 C43.9649528,62.3915244 43.9664746,59.6606768 43.9686053,56.9295257 C43.9689096,56.6011806 43.8757715,56.207288 44.0227836,55.9602705 C44.2279309,55.6155386 44.5797859,55.2246805 44.9392503,55.1357664 C45.4609453,55.0067953 45.8237577,55.4028122 45.9543337,55.9347798 C45.9780748,56.0312805 45.9738136,56.1359746 45.9738136,56.2367237 C45.9744223,59.2965233 45.9932934,62.3563229 45.9658999,65.415819 C45.9518987,66.9771271 44.8375897,67.9912945 43.1954982,67.9931153 C37.159176,68 31.1225493,67.9958464 25.0862271,67.9958464 C22.423269,67.9958464 19.7600067,67.9976672 17.0970486,67.994936 C16.239326,67.9940257 15.7465463,67.6292653 15.7435026,67.008687 C15.7407632,66.3787015 16.2177155,66.0060511 17.0787863,65.9978577 C18.2189669,65.9872365 19.3591476,65.99543 20.6767777,65.99543 C20.2536994,65.5068574 19.9255855,65.1156959 19.5840791,64.7366728 C19.007597,64.0975834 18.4442028,63.4454453 17.8357615,62.8382193 C17.238582,62.2425249 17.0839606,61.5536679 17.2197109,60.7555649 C18.1520049,55.2780897 19.056601,49.7960625 20.0354641,44.3270842 C20.1916073,43.4546332 19.7922702,42.9584741 19.3579301,42.376132 C19.0258594,42.5415183 18.7470538,42.7181328 18.4432897,42.8243442 C17.5861758,43.123557 16.7695435,42.7536377 16.3126798,41.8523579 C15.2848127,39.8249334 14.2718599,37.7902258 13.2102074,35.6732803 C12.8309588,35.8207625 12.4663202,35.9636927 12.1013771,36.1044987 C10.1658702,36.8513168 8.22427583,37.5829618 6.29576948,38.3479876 C3.7186446,39.3706519 2.02480972,41.8487164 2.02176599,44.6017166 C2.01415667,51.4041036 2.01841789,58.2064906 2.02024413,65.0085741 C2.0205485,65.9141024 2.10333791,65.9923954 3.03441445,65.9939127 C4.62811066,65.9969473 6.22211125,65.9948231 7.92538169,65.9948231 L7.92538169,65.0647144 C7.92538169,59.0461678 7.92507732,53.0279246 7.92629481,47.0096815 C7.92629481,46.7572018 7.9028581,46.497439 7.95277525,46.2534561 C8.06174073,45.7202747 8.40933452,45.3867708 8.96146686,45.4089235 C9.50294615,45.4304693 9.85267055,45.7506209 9.91141451,46.3117207 C9.94002555,46.5872635 9.93211186,46.8670547 9.93211186,47.1450252 C9.93332935,53.0877065 9.93302498,59.0300843 9.93302498,64.9724622 L9.93302498,65.9966438 C10.6087327,65.9966438 11.2311752,65.9838985 11.8533133,65.9999819 C12.6182022,66.0194034 13.0577166,66.3774877 13.0744571,66.9640782 C13.0924151,67.5770699 12.6130279,67.9919014 11.8417471,67.9934187 C8.79832301,67.9991845 5.75459456,68.0055572 2.71117049,67.991598 C1.10103814,67.9840114 0.0208189085,66.9331252 0.0180795529,65.3360087 C0.00499152056,58.4076854 -0.0181408157,51.4787551 0.0247757555,44.5504317 C0.0476037189,40.8309074 2.29083159,37.7519897 5.78746683,36.4015872 C9.37510955,35.0159833 12.9563604,33.6136889 16.5497863,32.2438649 C17.0364784,32.0584501 17.2087535,31.8390476 17.2611056,31.2913001 C17.3852897,29.9879341 17.0157811,29.0505424 15.9784784,28.1595802 C14.6258455,26.9976272 13.9175699,25.3616677 13.5952391,23.6046271 C13.5164065,23.1752295 13.3386527,23.030175 12.93475,22.9445989 C9.83806065,22.2885158 8.52560494,19.0311629 10.269357,16.4135063 C10.4340227,16.1664889 10.4863748,15.8141704 10.5043328,15.5058538 C10.6145158,13.5931376 10.4653731,11.6324746 10.836708,9.77377459 C12.0508512,3.69696344 17.754494,-0.480787335 23.8541258,0.0445040566 C30.1226845,0.584361587 34.9570384,5.5820646 35.2446708,11.8285106 C35.2793693,12.5853429 35.305241,13.3442994 35.2915442,14.1017387 C35.2726731,15.1602114 35.3874216,16.1252182 35.893898,17.136351 C37.0779084,19.4994036 35.5934821,22.3507253 32.991703,22.9097009 C32.4094377,23.0347269 32.2322927,23.2884205 32.1236316,23.8191742 C31.7319038,25.7337111 30.778608,27.3544976 29.3294889,28.6602912 C28.9161506,29.0323347 28.7307875,29.3876878 28.7396143,29.949698 C28.7718778,31.9762121 28.7502674,31.976819 30.662642,32.7154437 C33.8962991,33.9635797 37.1585672,35.143437 40.3563083,36.4774526 C43.7875034,37.9088792 45.7540564,40.52077 45.9369844,44.2715508 C46.0511243,46.6176096 45.9768573,48.9733791 45.969248,51.3249002 C45.9674217,52.0025291 45.5540834,52.4291956 44.9751663,52.4328372 C44.4044672,52.4361752 43.9841283,52.0119364 43.9780408,51.3309694 C43.9597784,49.181857 43.9686053,47.0321376 43.9673878,44.8830252 C43.9658659,41.7470568 42.330775,39.3715623 39.3847502,38.2299412 C37.1966138,37.3820705 35.0078687,36.5360206 32.7792507,35.6735838 C31.7909521,37.640316 30.8273077,39.5563702 29.8645764,41.4730313 C29.0585971,43.0774309 28.241356,43.3162549 26.6656178,42.368242 C26.1143985,42.9402664 25.7957202,43.5047043 25.958864,44.415088 C26.9334659,49.858879 27.8310614,55.3163258 28.7606161,60.7680068 C28.8978882,61.5712687 28.7195257,62.2428284 28.1381736,62.8476266 C27.2000965,63.8247718 26.3095015,64.8471327 25.2858957,65.9741877 L25.2858957,65.9741877 Z" id="Fill-1" fill="#292A2D" mask="url(#mask-2)"></path>
                    </g>
                </g>
            </g>
        </g>
    </g>
</svg>