<?xml version="1.0" encoding="UTF-8"?>
<svg width="84px" height="111px" viewBox="0 0 84 111" version="1.1" xmlns="http://www.w3.org/2000/svg" xmlns:xlink="http://www.w3.org/1999/xlink">
    <!-- Generator: Sketch 61.2 (89653) - https://sketch.com -->
    <title>Group 7</title>
    <desc>Created with Sketch.</desc>
    <defs>
        <polygon id="path-1" points="0 0 45.9999 0 45.9999 60.0497 0 60.0497"></polygon>
    </defs>
    <g id="Symbols" stroke="none" stroke-width="1" fill="none" fill-rule="evenodd">
        <g id="icons-/-app-listing-mobile-measures" transform="translate(-138.000000, -9.000000)">
            <g id="Group-12" transform="translate(20.000000, 10.000000)">
                <g id="Group-4" transform="translate(119.000000, 0.000000)">
                    <g id="Group-7">
                        <rect id="Rectangle-Copy" stroke="#292A2D" stroke-width="2" fill="#FFFFFF" x="0" y="0" width="82" height="82" rx="7"></rect>
                        <text id="Medical" font-family="Muli-Regular, Muli" font-size="16" font-weight="normal" line-spacing="32" fill="#292A2D">
                            <tspan x="12" y="103">Medical</tspan>
                        </text>
                        <g id="Group-3" transform="translate(18.000000, 11.000000)">
                            <mask id="mask-2" fill="white">
                                <use xlink:href="#path-1"></use>
                            </mask>
                            <g id="Clip-2"></g>
                            <path d="M37.9999,37.058 C37.9999,37.747 37.3189,38.229 36.6699,38 L29.6659,35.53 C29.2669,35.389 28.9999,35.012 28.9999,34.588 L28.9999,30.837 C28.9999,30.537 29.1419,30.258 29.3749,30.068 C31.5839,28.266 33.1429,25.783 33.7999,23 L33.9999,23 C34.3379,22.996 34.6739,22.948 34.9999,22.858 L34.9999,29.879 C34.9949,31.831 35.9289,33.689 37.5509,34.849 C37.8229,35.043 37.9999,35.342 37.9999,35.676 L37.9999,37.058 Z M35.9999,51 C35.9999,52.104 35.1039,53 33.9999,53 C32.8959,53 31.9999,52.104 31.9999,51 C31.9999,49.895 32.8959,49 33.9999,49 C35.1039,49 35.9999,49.895 35.9999,51 L35.9999,51 Z M28.9729,38.618 L23.7059,43.884 C23.3159,44.274 22.6839,44.274 22.2939,43.884 L17.0279,38.618 C16.6009,38.19 16.6019,37.465 17.0779,37.093 C18.2699,36.162 18.9949,34.724 18.9999,33.17 L18.9999,31.718 C20.1769,32.45 21.5119,32.886 22.8919,32.993 C22.9629,32.998 23.0369,32.997 23.1079,32.992 C24.4879,32.876 25.8219,32.436 26.9999,31.707 L26.9999,33.17 C27.0059,34.724 27.7299,36.162 28.9219,37.093 C29.3979,37.465 29.3999,38.19 28.9729,38.618 L28.9729,38.618 Z M16.3339,35.529 L9.3309,38 C8.6809,38.23 7.9999,37.748 7.9999,37.059 L7.9999,35.676 C7.9999,35.342 8.1769,35.042 8.4489,34.848 C10.0719,33.689 11.0049,31.831 10.9999,29.879 L10.9999,22.858 C11.3259,22.948 11.6619,22.996 11.9999,23 L12.1839,23 C12.7859,25.53 14.1399,27.817 16.0679,29.562 C16.2519,29.735 16.4429,29.903 16.6349,30.064 C16.8639,30.256 16.9999,30.535 16.9999,30.833 L16.9999,34.588 C16.9999,35.011 16.7329,35.389 16.3339,35.529 L16.3339,35.529 Z M11.9519,16.652 L11.9519,21.532 C10.6039,21.532 9.5119,20.439 9.5119,19.092 C9.5119,17.744 10.6039,16.652 11.9519,16.652 L11.9519,16.652 Z M31.9999,16.148 L31.9999,21.2 C31.9999,26.464 25.9629,31 22.9999,31 C21.8159,31 19.5689,30.092 17.4359,28.1 C16.1529,26.893 13.9999,24.389 13.9999,21.2 L13.9999,16.757 C13.9999,16.261 14.3699,15.848 14.8599,15.772 C20.4899,14.902 24.0629,12.804 25.9899,11.3 C26.4249,10.96 27.0649,11.032 27.3959,11.474 C28.5309,12.991 29.9329,14.292 31.5319,15.313 C31.8199,15.496 31.9999,15.807 31.9999,16.148 L31.9999,16.148 Z M22.9999,2 C31.4649,2 34.6999,8.886 34.9729,15.134 C34.6549,15.049 34.3289,15.004 33.9999,15 C33.9999,14.621 33.7859,14.274 33.4469,14.105 C31.1049,12.82 29.1789,10.893 27.8939,8.551 C27.7409,8.248 27.4449,8.044 27.1069,8.008 C26.7699,7.974 26.4379,8.111 26.2219,8.372 C26.1839,8.419 22.3019,13.065 12.8999,14.005 C12.3869,14.057 11.9979,14.49 11.9999,15.005 C11.6719,15.009 11.3459,15.054 11.0289,15.138 C11.2999,8.885 14.5349,2 22.9999,2 L22.9999,2 Z M36.3539,19.092 C36.3539,20.439 35.2619,21.532 33.9129,21.532 L33.9129,16.652 C35.2619,16.652 36.3539,17.744 36.3539,19.092 L36.3539,19.092 Z M45.9999,47.66 C45.9959,44.074 43.8709,40.856 40.6289,39.425 C40.2549,39.26 39.9999,38.907 39.9999,38.499 L39.9999,34.502 C39.9999,34.135 39.7919,33.793 39.4559,33.644 C37.9129,32.959 36.9959,31.466 36.9999,29.879 L36.9999,21.964 C36.9999,21.74 37.0859,21.529 37.2209,21.349 C38.3289,19.867 38.2559,17.786 36.9999,16.382 L36.9999,16 C36.9999,4.19 29.4579,0 22.9999,0 C16.5419,0 8.9999,4.19 8.9999,16 L8.9999,16.382 C7.7449,17.786 7.6709,19.867 8.7799,21.349 C8.9149,21.529 8.9999,21.74 8.9999,21.964 L8.9999,29.879 C9.0039,31.466 8.0869,32.959 6.5439,33.644 C6.2079,33.793 5.9999,34.135 5.9999,34.502 L5.9999,38.499 C5.9999,38.907 5.7449,39.26 5.3719,39.425 C2.1289,40.856 0.0039,44.074 -0.0001,47.66 L-0.0001,59.001 C-0.0001,59.553 0.4469,60 0.9989,60 L1.0019,60 C1.0379,60 1.0689,59.983 1.1039,59.979 C1.2129,60.02 1.3289,60.05 1.4519,60.05 L13.4889,60.05 C14.0409,60.05 14.4889,59.602 14.4889,59.05 C14.4889,58.497 14.0409,58.05 13.4889,58.05 L1.9999,58.05 L1.9999,47.66 C2.0039,44.694 3.8739,42.051 6.6699,41.06 L9.6689,40.001 C10.3189,39.771 10.9999,40.253 10.9999,40.942 L10.9999,42.285 C10.9999,42.723 10.7189,43.122 10.2959,43.236 C7.1689,44.082 4.9599,46.95 4.9999,50.25 L4.9999,54.001 C4.9999,54.553 5.4469,55 5.9989,55 L7.0019,55 C7.5529,55 7.9999,54.553 7.9999,54.001 L7.9999,53 L6.9999,53 L6.9999,50.25 C6.9359,47.421 9.1719,45.074 11.9999,45 C14.8289,45.074 17.0639,47.421 16.9999,50.25 L16.9999,53 L15.9999,53 L15.9999,54.001 C15.9999,54.553 16.4469,55 16.9989,55 L18.0019,55 C18.5529,55 18.9999,54.553 18.9999,54.001 L18.9999,50.25 C19.0399,46.95 16.8319,44.082 13.7039,43.236 C13.2809,43.122 12.9999,42.723 12.9999,42.285 L12.9999,38.825 L14.0429,38.457 L21.7079,46.121 C21.8949,46.309 21.9999,46.563 21.9999,46.828 L21.9999,59.001 C21.9999,59.553 22.4469,60 22.9989,60 L23.0019,60 C23.5529,60 23.9999,59.553 23.9999,59.001 L23.9999,46.828 C23.9999,46.563 24.1049,46.309 24.2919,46.121 L31.9569,38.457 L32.9999,38.825 L32.9999,46.417 C32.9999,46.823 32.7609,47.19 32.3899,47.353 C29.8359,48.472 28.8959,52.076 31.7489,54.465 C31.8429,54.544 31.9569,54.611 32.0709,54.656 C35.8079,56.097 38.6469,53.014 37.8729,50.015 C37.5579,48.794 36.6899,47.806 35.5479,47.327 C35.2099,47.185 34.9999,46.844 34.9999,46.478 L34.9999,40.942 C34.9999,40.253 35.6819,39.771 36.3309,40 L39.3299,41.059 C42.1269,42.05 43.9969,44.693 43.9999,47.66 L43.9999,58.05 L32.9509,58.05 C32.3979,58.05 31.9509,58.497 31.9509,59.05 C31.9509,59.602 32.3979,60.05 32.9509,60.05 L44.9879,60.05 C45.4189,60.05 45.7769,59.775 45.9189,59.394 C45.9709,59.274 45.9999,59.141 45.9999,59.001 L45.9999,47.66 Z" id="Fill-1" fill="#020303" mask="url(#mask-2)"></path>
                        </g>
                    </g>
                </g>
            </g>
        </g>
    </g>
</svg>