<svg id="Layer_1" data-name="Layer 1" xmlns="http://www.w3.org/2000/svg" viewBox="0 0 1200 499.39"><defs><style>.cls-1{opacity:0.8;}.cls-2{fill:#9aaaab;}.cls-3{fill:#f36b39;}.cls-4{fill:#f3b863;}.cls-5{fill:#5b5b5b;}.cls-6{fill:#9ad9e5;}.cls-7{fill:#f68c31;}.cls-8{fill:#fff;}.cls-9{fill:#57bcc1;}.cls-10{fill:#0095aa;}.cls-11{fill:#5ac7d2;}.cls-12{fill:#e6eaea;}.cls-13{fill:#ced5d5;}.cls-14{fill:#9baaab;}.cls-15{fill:#ef373f;}.cls-16{fill:#375659;}.cls-17{fill:#698083;}.cls-18{fill:#f78f22;}.cls-19{fill:#fabe13;}.cls-20{fill:#e4a424;}.cls-21{fill:#f1594b;}.cls-22{fill:#faa734;}.cls-23{fill:#454545;}</style></defs><title>our work header image</title><g id="el_UG-qyrBDaCt" data-name="el UG-qyrBDaCt" class="cls-1"><g id="el_BKmUh3606VV" data-name="el BKmUh3606VV"><path id="el_EWOtLLLbvjA" data-name="el EWOtLLLbvjA" class="cls-2" d="M993.54,241.32h1.68a6.31,6.31,0,0,0,6.18-5.42l1.42-9.53a6.45,6.45,0,0,1,5-5.42,52.6,52.6,0,0,0,8.89-2.32,6.32,6.32,0,0,1,7,2.2l5.93,7.47a6.19,6.19,0,0,0,8.12,1.68l1.41-.91a6.31,6.31,0,0,0,2.71-7.73l-3.61-9a6.18,6.18,0,0,1,1.68-7.09,78.27,78.27,0,0,0,6.44-6.44,6.18,6.18,0,0,1,7.09-1.68l9,3.61a6.31,6.31,0,0,0,7.73-2.71l.91-1.41a6.32,6.32,0,0,0-1.55-8.12l-7.6-6.19a6.32,6.32,0,0,1-2.07-7,88,88,0,0,0,2.32-8.89,6.33,6.33,0,0,1,5.29-5l9.53-1.42a6.31,6.31,0,0,0,5.42-6.18v-1.68a6.44,6.44,0,0,0-5.42-6.31l-9.53-1.29a6.32,6.32,0,0,1-5.29-5.16,51.17,51.17,0,0,0-2.32-8.76,6.19,6.19,0,0,1,2.07-7l7.86-5.8a6.18,6.18,0,0,0,1.54-8l-1.54-1.55a6.19,6.19,0,0,0-7.74-2.7l-9,3.61a6.2,6.2,0,0,1-7.09-1.68,73.85,73.85,0,0,0-6.44-6.44,6.18,6.18,0,0,1-1.67-7.09l3.6-9a6.32,6.32,0,0,0-2.7-7.74l-1.42-.9a6.32,6.32,0,0,0-8.12,1.55l-5.93,7.6a6,6,0,0,1-7,2.06c-3-.9-5.8-1.67-8.89-2.32a6.18,6.18,0,0,1-5-5.28L1001,70.42A6.33,6.33,0,0,0,994.83,65h-1.68A6.19,6.19,0,0,0,987,70.42L985.55,80a6.3,6.3,0,0,1-5,5.28l-8.89,2.32a6.3,6.3,0,0,1-7-2.06l-5.93-7.6a6.32,6.32,0,0,0-8.12-1.55l-1.41.9A6.32,6.32,0,0,0,946.5,85l3.61,9a6.19,6.19,0,0,1-1.68,7.09,60.24,60.24,0,0,0-6.44,6.44,6.2,6.2,0,0,1-7.09,1.68l-9-3.61a6.31,6.31,0,0,0-7.86,2.7l-.78,1.42a6.19,6.19,0,0,0,1.55,8.12l7.48,5.93a6.34,6.34,0,0,1,2.06,7,77.93,77.93,0,0,0-2.32,8.89,6.19,6.19,0,0,1-5.29,5l-9.53,1.42a6.31,6.31,0,0,0-5.42,6.18v1.81a6.31,6.31,0,0,0,5.55,6.18l9.53,1.42a6.33,6.33,0,0,1,5.29,5,74.47,74.47,0,0,0,2.32,8.89,6.33,6.33,0,0,1-2.07,7l-7.6,5.93a6.32,6.32,0,0,0-1.55,8.12L918,198a6.31,6.31,0,0,0,7.86,2.71l9-3.61a6.18,6.18,0,0,1,7.09,1.68,51.55,51.55,0,0,0,6.44,6.44,6.58,6.58,0,0,1,1.68,7.09l-3.61,9a6.18,6.18,0,0,0,2.58,7.73l1.54.91a6.45,6.45,0,0,0,8.12-1.55l5.93-7.6a6.19,6.19,0,0,1,7-2.07,88,88,0,0,0,8.89,2.32,6.46,6.46,0,0,1,5,5.29l1.29,9.53a6.44,6.44,0,0,0,6.31,5.42Zm.77-44.08a44.08,44.08,0,1,1,44.08-44.08h0A44.07,44.07,0,0,1,994.31,197.24Z"/></g></g><g id="el_UG-qyrBDaCt-2" data-name="el UG-qyrBDaCt" class="cls-1"><g id="el_BKmUh3606VV-2" data-name="el BKmUh3606VV"><path id="el_EWOtLLLbvjA-2" data-name="el EWOtLLLbvjA" class="cls-2" d="M1018.63,375.22h1.2a4.53,4.53,0,0,0,4.44-3.89l1-6.84a4.63,4.63,0,0,1,3.61-3.89,37.9,37.9,0,0,0,6.38-1.67,4.56,4.56,0,0,1,5,1.58l4.25,5.36a4.44,4.44,0,0,0,5.83,1.21l1-.65a4.53,4.53,0,0,0,1.94-5.55l-2.59-6.48a4.44,4.44,0,0,1,1.21-5.09,56,56,0,0,0,4.62-4.62,4.44,4.44,0,0,1,5.09-1.21l6.48,2.59a4.53,4.53,0,0,0,5.55-1.94l.65-1a4.55,4.55,0,0,0-1.11-5.83l-5.46-4.44a4.51,4.51,0,0,1-1.48-5,63.76,63.76,0,0,0,1.66-6.39,4.54,4.54,0,0,1,3.8-3.61l6.84-1a4.55,4.55,0,0,0,3.89-4.44v-1.21a4.63,4.63,0,0,0-3.89-4.53l-6.84-.93a4.53,4.53,0,0,1-3.8-3.7,37.12,37.12,0,0,0-1.66-6.29,4.43,4.43,0,0,1,1.48-5l5.64-4.17a4.43,4.43,0,0,0,1.11-5.73l-1.11-1.11a4.44,4.44,0,0,0-5.55-1.95l-6.48,2.59a4.44,4.44,0,0,1-5.09-1.2,54.55,54.55,0,0,0-4.62-4.63,4.43,4.43,0,0,1-1.2-5.08l2.59-6.48a4.53,4.53,0,0,0-2-5.55l-1-.65a4.53,4.53,0,0,0-5.83,1.11l-4.26,5.46a4.35,4.35,0,0,1-5,1.48c-2.12-.65-4.16-1.2-6.38-1.67a4.43,4.43,0,0,1-3.61-3.79l-1-6.85a4.53,4.53,0,0,0-4.44-3.88h-1.2a4.44,4.44,0,0,0-4.44,3.88l-1,6.85a4.53,4.53,0,0,1-3.61,3.79l-6.38,1.67a4.53,4.53,0,0,1-5-1.48l-4.25-5.46a4.53,4.53,0,0,0-5.83-1.11l-1,.65a4.52,4.52,0,0,0-1.94,5.55l2.59,6.48a4.44,4.44,0,0,1-1.2,5.08,43.06,43.06,0,0,0-4.63,4.63,4.44,4.44,0,0,1-5.09,1.2l-6.48-2.59a4.54,4.54,0,0,0-5.64,1.95l-.56,1a4.44,4.44,0,0,0,1.12,5.83l5.36,4.26a4.52,4.52,0,0,1,1.48,5,56.57,56.57,0,0,0-1.66,6.39,4.45,4.45,0,0,1-3.8,3.61l-6.84,1a4.54,4.54,0,0,0-3.89,4.45v1.29a4.53,4.53,0,0,0,4,4.44l6.85,1a4.53,4.53,0,0,1,3.79,3.61A53.85,53.85,0,0,0,971.9,328a4.53,4.53,0,0,1-1.48,5L965,337.28a4.54,4.54,0,0,0-1.12,5.83l.56,1a4.52,4.52,0,0,0,5.64,1.94l6.48-2.59a4.44,4.44,0,0,1,5.09,1.21,36.74,36.74,0,0,0,4.63,4.62,4.72,4.72,0,0,1,1.2,5.09l-2.59,6.48a4.44,4.44,0,0,0,1.85,5.55l1.11.65a4.64,4.64,0,0,0,5.83-1.11l4.25-5.46a4.45,4.45,0,0,1,5-1.48,64.28,64.28,0,0,0,6.38,1.66,4.64,4.64,0,0,1,3.61,3.8l.93,6.84a4.62,4.62,0,0,0,4.53,3.89Zm.55-31.64a31.65,31.65,0,1,1,31.65-31.65h0A31.65,31.65,0,0,1,1019.18,343.58Z"/></g></g><g id="el_UG-qyrBDaCt-3" data-name="el UG-qyrBDaCt" class="cls-1"><g id="el_BKmUh3606VV-3" data-name="el BKmUh3606VV"><path id="el_EWOtLLLbvjA-3" data-name="el EWOtLLLbvjA" class="cls-2" d="M923.76,434.38h.79a3,3,0,0,0,2.91-2.55l.67-4.49a3,3,0,0,1,2.37-2.55,24.25,24.25,0,0,0,4.18-1.09,3,3,0,0,1,3.28,1l2.79,3.52a2.91,2.91,0,0,0,3.82.79l.67-.43a3,3,0,0,0,1.27-3.64l-1.7-4.24a2.91,2.91,0,0,1,.79-3.34,36.1,36.1,0,0,0,3-3,2.92,2.92,0,0,1,3.34-.79l4.25,1.7a3,3,0,0,0,3.64-1.28l.42-.66a3,3,0,0,0-.73-3.82L956,406.59a3,3,0,0,1-1-3.27c.44-1.38.8-2.78,1.1-4.19a3,3,0,0,1,2.48-2.36l4.49-.67a3,3,0,0,0,2.55-2.91v-.79a3,3,0,0,0-2.55-3l-4.49-.61a3,3,0,0,1-2.48-2.43,24.55,24.55,0,0,0-1.1-4.12,2.94,2.94,0,0,1,1-3.28l3.71-2.73a2.91,2.91,0,0,0,.72-3.76l-.72-.73A2.91,2.91,0,0,0,956,370.5l-4.25,1.7a2.92,2.92,0,0,1-3.34-.79,36.22,36.22,0,0,0-3-3,2.9,2.9,0,0,1-.79-3.33l1.7-4.25a3,3,0,0,0-1.27-3.64l-.67-.42a3,3,0,0,0-3.82.72L937.78,361a2.85,2.85,0,0,1-3.28,1c-1.4-.42-2.73-.78-4.19-1.09a2.9,2.9,0,0,1-2.36-2.48l-.67-4.49a3,3,0,0,0-2.91-2.55h-.79a2.9,2.9,0,0,0-2.91,2.55l-.67,4.49a3,3,0,0,1-2.37,2.48L913.45,362a3,3,0,0,1-3.28-1l-2.79-3.58a3,3,0,0,0-3.82-.72l-.67.42a3,3,0,0,0-1.27,3.64l1.7,4.25a2.9,2.9,0,0,1-.79,3.33,28.05,28.05,0,0,0-3,3,2.92,2.92,0,0,1-3.34.79l-4.25-1.7a3,3,0,0,0-3.7,1.27l-.36.67a2.9,2.9,0,0,0,.73,3.82l3.51,2.79a3,3,0,0,1,1,3.28,37.79,37.79,0,0,0-1.1,4.18,2.9,2.9,0,0,1-2.48,2.37l-4.49.67a3,3,0,0,0-2.55,2.91v.85a3,3,0,0,0,2.61,2.91l4.49.67a3,3,0,0,1,2.48,2.36,35.35,35.35,0,0,0,1.1,4.19,3,3,0,0,1-1,3.27l-3.58,2.8a3,3,0,0,0-.73,3.82l.36.66a3,3,0,0,0,3.7,1.28l4.25-1.7a2.92,2.92,0,0,1,3.34.79,23.44,23.44,0,0,0,3,3,3.11,3.11,0,0,1,.79,3.34l-1.7,4.24a2.9,2.9,0,0,0,1.21,3.64l.73.43a3,3,0,0,0,3.82-.73l2.79-3.58a2.91,2.91,0,0,1,3.28-1,40.1,40.1,0,0,0,4.18,1.09,3,3,0,0,1,2.37,2.49l.61,4.49a3,3,0,0,0,3,2.55Zm.37-20.75a20.75,20.75,0,1,1,20.74-20.75h0A20.75,20.75,0,0,1,924.13,413.63Z"/></g></g><rect class="cls-3" x="1093.22" y="230.98" width="22.5" height="22.5" rx="4.55"/><rect class="cls-4" x="971.82" y="408.89" width="18.65" height="18.65" rx="3.77"/><rect class="cls-5" x="930.21" y="162.2" width="74.86" height="74.86" rx="15.14"/><rect class="cls-6" x="926.18" y="157.42" width="74.86" height="74.86" rx="15.14"/><rect class="cls-3" x="901.08" y="302.72" width="18.43" height="18.43" rx="3.73"/><path class="cls-7" d="M968.75,187.92H940.6a.62.62,0,0,0-.62.62V215a.62.62,0,0,0,.62.62h8v5.66a.64.64,0,0,0,.38.58.6.6,0,0,0,.67-.13l6.27-6.11h12.82a.62.62,0,0,0,.62-.62V188.54A.62.62,0,0,0,968.75,187.92Z"/><path class="cls-3" d="M940.6,187.92a.62.62,0,0,0-.62.62V215a.62.62,0,0,0,.62.62h8v5.66a.64.64,0,0,0,.38.58.6.6,0,0,0,.67-.13l6.18-6V187.92Z"/><path class="cls-8" d="M964.12,195.16H945.23a.59.59,0,0,0-.62.56v1.79a.59.59,0,0,0,.62.56h18.89a.59.59,0,0,0,.62-.56v-1.79A.59.59,0,0,0,964.12,195.16Z"/><path class="cls-8" d="M964.12,201.13H945.23a.59.59,0,0,0-.62.56v1.79a.59.59,0,0,0,.62.56h18.89a.59.59,0,0,0,.62-.56v-1.79A.59.59,0,0,0,964.12,201.13Z"/><path class="cls-8" d="M964.12,207.1H945.23a.59.59,0,0,0-.62.56v1.79a.59.59,0,0,0,.62.56h18.89a.59.59,0,0,0,.62-.56v-1.79A.59.59,0,0,0,964.12,207.1Z"/><path class="cls-9" d="M983.58,199.9a17,17,0,0,0,7.3-13.77c0-9.56-8.35-17.34-18.63-17.34s-18.63,7.78-18.63,17.34,8.36,17.34,18.63,17.34a20,20,0,0,0,4.64-.54l8.18,3.07a.92.92,0,0,0,.28.05.77.77,0,0,0,.6-.27.8.8,0,0,0,.12-.9Z"/><path class="cls-10" d="M953.62,186.13c0,9.56,8.36,17.34,18.63,17.34V168.79C962,168.79,953.62,176.57,953.62,186.13Z"/><path class="cls-8" d="M986.86,186.94a.81.81,0,0,1-.81-.81,11.47,11.47,0,0,0-1.36-5.42.8.8,0,1,1,1.42-.75,13,13,0,0,1,1.55,6.17A.8.8,0,0,1,986.86,186.94Z"/><path class="cls-8" d="M982.78,177.71a.81.81,0,0,1-.56-.22,14.4,14.4,0,0,0-10-3.87.81.81,0,0,1,0-1.61,16,16,0,0,1,11.08,4.31.81.81,0,0,1,0,1.14A.79.79,0,0,1,982.78,177.71Z"/><path class="cls-8" d="M971.39,184.25a3.17,3.17,0,1,0,3.17,3.17A3.17,3.17,0,0,0,971.39,184.25Z"/><path class="cls-8" d="M980,184.25a3.17,3.17,0,1,0,3.17,3.17A3.17,3.17,0,0,0,980,184.25Z"/><path class="cls-8" d="M962.8,184.25a3.17,3.17,0,1,0,3.17,3.17A3.17,3.17,0,0,0,962.8,184.25Z"/><g id="el_UG-qyrBDaCt-4" data-name="el UG-qyrBDaCt" class="cls-1"><g id="el_BKmUh3606VV-4" data-name="el BKmUh3606VV"><path id="el_EWOtLLLbvjA-4" data-name="el EWOtLLLbvjA" class="cls-2" d="M179.23,241.36a6.44,6.44,0,0,0,6.31-5.41l1.29-9.54a6.44,6.44,0,0,1,5-5.28c3-.63,6-1.4,8.89-2.32a6.18,6.18,0,0,1,7,2.06l5.93,7.6a6.45,6.45,0,0,0,8.12,1.55l1.54-.9a6.19,6.19,0,0,0,2.58-7.74l-3.61-9a6.58,6.58,0,0,1,1.68-7.09,50.88,50.88,0,0,0,6.44-6.44,6.18,6.18,0,0,1,7.09-1.68l9,3.61a6.31,6.31,0,0,0,7.86-2.7l.78-1.42a6.32,6.32,0,0,0-1.55-8.12l-7.6-5.93a6.32,6.32,0,0,1-2.07-7,73.49,73.49,0,0,0,2.32-8.89,6.33,6.33,0,0,1,5.29-5l9.53-1.42a6.3,6.3,0,0,0,5.55-6.18V152.3a6.32,6.32,0,0,0-5.42-6.18l-9.53-1.42a6.19,6.19,0,0,1-5.29-5,78.48,78.48,0,0,0-2.32-8.89,6.32,6.32,0,0,1,2.06-7l7.48-5.93a6.19,6.19,0,0,0,1.55-8.12l-.78-1.41a6.31,6.31,0,0,0-7.86-2.71l-9,3.61a6.18,6.18,0,0,1-7.09-1.68,61.18,61.18,0,0,0-6.44-6.44,6.18,6.18,0,0,1-1.68-7.09l3.61-9a6.31,6.31,0,0,0-2.71-7.73l-1.41-.91a6.32,6.32,0,0,0-8.12,1.55l-5.93,7.6a6.33,6.33,0,0,1-7,2.07l-8.89-2.32a6.33,6.33,0,0,1-5-5.29l-1.42-9.54a6.19,6.19,0,0,0-6.18-5.41h-1.68a6.33,6.33,0,0,0-6.19,5.41L170,80a6.2,6.2,0,0,1-5,5.29c-3.09.64-5.93,1.41-8.89,2.32a6.06,6.06,0,0,1-7-2.07l-5.93-7.6A6.32,6.32,0,0,0,135,76.39l-1.42.91A6.31,6.31,0,0,0,130.9,85l3.6,9a6.18,6.18,0,0,1-1.67,7.09,75.26,75.26,0,0,0-6.44,6.44,6.19,6.19,0,0,1-7.09,1.68l-9-3.61a6.19,6.19,0,0,0-7.74,2.71L101,109.9a6.18,6.18,0,0,0,1.54,8l7.86,5.8a6.19,6.19,0,0,1,2.07,7,51,51,0,0,0-2.32,8.77,6.32,6.32,0,0,1-5.29,5.15l-9.53,1.29a6.44,6.44,0,0,0-5.42,6.31v1.68A6.33,6.33,0,0,0,95.33,160l9.53,1.41a6.33,6.33,0,0,1,5.29,5,88,88,0,0,0,2.32,8.89,6.32,6.32,0,0,1-2.07,7l-7.6,6.19a6.32,6.32,0,0,0-1.55,8.12l.91,1.42a6.32,6.32,0,0,0,7.73,2.7l9-3.61a6.18,6.18,0,0,1,7.09,1.68,76.74,76.74,0,0,0,6.44,6.44,6.19,6.19,0,0,1,1.68,7.09l-3.61,9a6.32,6.32,0,0,0,2.71,7.74l1.41.9a6.19,6.19,0,0,0,8.12-1.68l5.93-7.47a6.32,6.32,0,0,1,7-2.19,53.56,53.56,0,0,0,8.89,2.32,6.44,6.44,0,0,1,5,5.41L171,236a6.31,6.31,0,0,0,6.18,5.41h2.07ZM134,153.21h0a44.08,44.08,0,1,1,44.08,44.07A44.07,44.07,0,0,1,134,153.21Z"/></g></g><g id="el_UG-qyrBDaCt-5" data-name="el UG-qyrBDaCt" class="cls-1"><g id="el_BKmUh3606VV-5" data-name="el BKmUh3606VV"><path id="el_EWOtLLLbvjA-5" data-name="el EWOtLLLbvjA" class="cls-2" d="M154,375.26a4.62,4.62,0,0,0,4.53-3.89l.93-6.84a4.64,4.64,0,0,1,3.61-3.8,64.28,64.28,0,0,0,6.38-1.66,4.45,4.45,0,0,1,5,1.48l4.25,5.46a4.63,4.63,0,0,0,5.83,1.11l1.11-.65a4.44,4.44,0,0,0,1.85-5.55l-2.59-6.48a4.72,4.72,0,0,1,1.2-5.09,36.09,36.09,0,0,0,4.63-4.62,4.44,4.44,0,0,1,5.09-1.21l6.48,2.6a4.54,4.54,0,0,0,5.64-1.95l.55-1a4.52,4.52,0,0,0-1.11-5.82L202,333.07a4.53,4.53,0,0,1-1.48-5,53.85,53.85,0,0,0,1.66-6.38,4.53,4.53,0,0,1,3.79-3.61l6.85-1a4.53,4.53,0,0,0,4-4.44v-1.29a4.53,4.53,0,0,0-3.89-4.44l-6.84-1a4.45,4.45,0,0,1-3.8-3.61,55.86,55.86,0,0,0-1.66-6.38,4.53,4.53,0,0,1,1.48-5l5.36-4.26a4.42,4.42,0,0,0,1.11-5.82l-.55-1a4.54,4.54,0,0,0-5.64-1.95l-6.48,2.6a4.44,4.44,0,0,1-5.09-1.21,43,43,0,0,0-4.63-4.62,4.46,4.46,0,0,1-1.2-5.09l2.59-6.48a4.52,4.52,0,0,0-1.94-5.55l-1-.65a4.54,4.54,0,0,0-5.83,1.11l-4.25,5.46a4.53,4.53,0,0,1-5,1.48l-6.38-1.66a4.55,4.55,0,0,1-3.61-3.8l-1-6.84a4.44,4.44,0,0,0-4.44-3.89h-1.2a4.53,4.53,0,0,0-4.44,3.89l-1,6.84a4.45,4.45,0,0,1-3.61,3.8c-2.22.46-4.26,1-6.38,1.66a4.35,4.35,0,0,1-5-1.48l-4.26-5.46a4.54,4.54,0,0,0-5.83-1.11l-1,.65a4.53,4.53,0,0,0-2,5.55l2.59,6.48a4.44,4.44,0,0,1-1.2,5.09,53,53,0,0,0-4.62,4.62,4.45,4.45,0,0,1-5.09,1.21l-6.48-2.6A4.44,4.44,0,0,0,99,279.78l-1.11,1.11A4.43,4.43,0,0,0,99,286.62l5.64,4.17a4.43,4.43,0,0,1,1.48,5,37,37,0,0,0-1.66,6.3,4.54,4.54,0,0,1-3.8,3.7l-6.84.92a4.63,4.63,0,0,0-3.89,4.53v1.21a4.53,4.53,0,0,0,3.89,4.44l6.84,1a4.52,4.52,0,0,1,3.8,3.6,63.76,63.76,0,0,0,1.66,6.39,4.51,4.51,0,0,1-1.48,5l-5.46,4.45a4.53,4.53,0,0,0-1.11,5.82l.65,1a4.53,4.53,0,0,0,5.55,1.95l6.48-2.6a4.44,4.44,0,0,1,5.09,1.21,54.44,54.44,0,0,0,4.62,4.62,4.44,4.44,0,0,1,1.21,5.09l-2.59,6.48a4.52,4.52,0,0,0,1.94,5.55l1,.65a4.45,4.45,0,0,0,5.83-1.2l4.25-5.37a4.54,4.54,0,0,1,5-1.57,38.85,38.85,0,0,0,6.38,1.66,4.63,4.63,0,0,1,3.61,3.89l1,6.84a4.53,4.53,0,0,0,4.44,3.89H154ZM121.55,312h0a31.65,31.65,0,1,1,31.65,31.65A31.65,31.65,0,0,1,121.55,312Z"/></g></g><g id="el_UG-qyrBDaCt-6" data-name="el UG-qyrBDaCt" class="cls-1"><g id="el_BKmUh3606VV-6" data-name="el BKmUh3606VV"><path id="el_EWOtLLLbvjA-6" data-name="el EWOtLLLbvjA" class="cls-2" d="M248.8,434.42a3,3,0,0,0,3-2.55l.61-4.49a3,3,0,0,1,2.37-2.48,42.81,42.81,0,0,0,4.18-1.1,2.93,2.93,0,0,1,3.28,1l2.79,3.58a3,3,0,0,0,3.82.73l.73-.42a2.91,2.91,0,0,0,1.21-3.64l-1.7-4.25a3.11,3.11,0,0,1,.79-3.34,22.83,22.83,0,0,0,3-3,2.92,2.92,0,0,1,3.34-.79l4.25,1.7a3,3,0,0,0,3.7-1.27l.36-.67a3,3,0,0,0-.73-3.82l-3.58-2.79a3,3,0,0,1-1-3.28,35.35,35.35,0,0,0,1.1-4.19,3,3,0,0,1,2.48-2.36l4.49-.67a3,3,0,0,0,2.61-2.91v-.85a3,3,0,0,0-2.55-2.91l-4.49-.67a2.9,2.9,0,0,1-2.48-2.36,37.39,37.39,0,0,0-1.1-4.19,3,3,0,0,1,1-3.28l3.51-2.79a2.9,2.9,0,0,0,.73-3.82l-.36-.67a3,3,0,0,0-3.7-1.27l-4.25,1.7a2.92,2.92,0,0,1-3.34-.79,27.09,27.09,0,0,0-3-3,2.92,2.92,0,0,1-.79-3.34l1.7-4.25a3,3,0,0,0-1.27-3.64l-.67-.42a3,3,0,0,0-3.82.73l-2.79,3.58a3,3,0,0,1-3.28,1l-4.18-1.1a3,3,0,0,1-2.37-2.48l-.67-4.49a2.9,2.9,0,0,0-2.91-2.55H248A3,3,0,0,0,245.1,354l-.67,4.49a2.9,2.9,0,0,1-2.36,2.48c-1.46.31-2.79.67-4.19,1.1a2.86,2.86,0,0,1-3.28-1l-2.79-3.58a3,3,0,0,0-3.82-.73l-.67.42a3,3,0,0,0-1.27,3.64l1.7,4.25a2.92,2.92,0,0,1-.79,3.34,36.1,36.1,0,0,0-3,3,2.92,2.92,0,0,1-3.34.79l-4.25-1.7a2.91,2.91,0,0,0-3.64,1.27l-.72.73a2.91,2.91,0,0,0,.72,3.76l3.71,2.73a2.94,2.94,0,0,1,1,3.28,24.55,24.55,0,0,0-1.1,4.12,3,3,0,0,1-2.48,2.43l-4.49.61a3,3,0,0,0-2.55,3v.79a3,3,0,0,0,2.55,2.91l4.49.67a3,3,0,0,1,2.48,2.36,43,43,0,0,0,1.1,4.19,3,3,0,0,1-1,3.28l-3.58,2.91a3,3,0,0,0-.73,3.82l.42.67a3,3,0,0,0,3.64,1.27l4.25-1.7a2.92,2.92,0,0,1,3.34.79,34.66,34.66,0,0,0,3,3,2.92,2.92,0,0,1,.79,3.34l-1.7,4.25a3,3,0,0,0,1.27,3.64l.67.42a2.9,2.9,0,0,0,3.82-.79l2.79-3.52a3,3,0,0,1,3.28-1,24.25,24.25,0,0,0,4.18,1.09,3,3,0,0,1,2.37,2.55l.67,4.49a3,3,0,0,0,2.91,2.55h1Zm-21.29-41.5h0a20.75,20.75,0,1,1,20.74,20.75A20.75,20.75,0,0,1,227.51,392.92Z"/></g></g><rect class="cls-4" x="239.02" y="311.82" width="18.65" height="18.65" rx="3.77"/><rect class="cls-3" x="143.98" y="390.49" width="18.43" height="18.43" rx="3.73"/><rect class="cls-11" x="214.85" y="253.24" width="25.32" height="25.32" rx="5.12"/><rect class="cls-4" x="303.64" y="118.25" width="25.32" height="25.32" rx="5.12"/><rect class="cls-11" x="297.87" y="414.38" width="18.43" height="18.43" rx="3.73"/><rect class="cls-3" x="280.72" y="167.47" width="18.43" height="18.43" rx="3.73"/><rect class="cls-11" x="95.56" y="217.24" width="18.43" height="18.43" rx="3.73"/><rect class="cls-11" x="926.3" y="253.4" width="25.32" height="25.32" rx="5.12"/><rect class="cls-4" x="857.13" y="181.9" width="25.32" height="25.32" rx="5.12"/><rect class="cls-3" x="1017.71" y="383.6" width="18.65" height="18.65" rx="3.77"/><rect class="cls-11" x="873.85" y="124.95" width="18.43" height="18.43" rx="3.73"/><rect class="cls-5" x="970.53" y="311.28" width="63.93" height="63.93" rx="12.93"/><rect class="cls-3" x="967.08" y="307.2" width="63.93" height="63.93" rx="12.93"/><path class="cls-11" d="M998.64,321.67a17.94,17.94,0,1,0,17.94,17.94A18,18,0,0,0,998.64,321.67Z"/><path class="cls-10" d="M980.7,339.61a18,18,0,0,0,17.94,17.94V321.67A18,18,0,0,0,980.7,339.61Z"/><path class="cls-12" d="M998.64,327.05a12.56,12.56,0,1,0,12.55,12.56A12.57,12.57,0,0,0,998.64,327.05Z"/><path class="cls-13" d="M986.08,339.61a12.57,12.57,0,0,0,12.56,12.55V327.05A12.57,12.57,0,0,0,986.08,339.61Z"/><path class="cls-13" d="M998.64,331.67a7.94,7.94,0,1,0,7.93,7.94A7.95,7.95,0,0,0,998.64,331.67Z"/><path class="cls-14" d="M990.7,339.61a7.94,7.94,0,0,0,7.94,7.93V331.67A8,8,0,0,0,990.7,339.61Z"/><path class="cls-3" d="M998.64,335.09a4.52,4.52,0,1,0,4.51,4.52A4.53,4.53,0,0,0,998.64,335.09Z"/><path class="cls-15" d="M994.12,339.61a4.52,4.52,0,0,0,4.52,4.51v-9A4.53,4.53,0,0,0,994.12,339.61Z"/><path class="cls-16" d="M998.9,339.44a.74.74,0,0,1-.5-.2.71.71,0,0,1,0-1l16.84-16.85a.71.71,0,0,1,1,1l-16.84,16.85A.76.76,0,0,1,998.9,339.44Z"/><path class="cls-12" d="M1016.55,312.11a.71.71,0,0,0-.44-.66.69.69,0,0,0-.77.16l-10,9.95a.67.67,0,0,0-.21.5v9.77a.09.09,0,0,1,0,.05l0,.05a.43.43,0,0,0,0,.05,0,0,0,0,1,0,0v0l0,.05,0,0,0,.05,0,0,0,0,11.16-11.16v-9Z"/><path class="cls-14" d="M1026.18,321.52a.71.71,0,0,0-.66-.44h-9l-11.16,11.16,0,0,0,0,0,0,0,0,.05,0h0l.06,0h0l.09,0h9.8a.74.74,0,0,0,.51-.2l9.94-9.95A.71.71,0,0,0,1026.18,321.52Z"/><path class="cls-17" d="M1010.23,327.41a.73.73,0,0,0,.5.2h10l1.42-1.42h-10.69Z"/><path class="cls-14" d="M1011.44,315.5l-1.42,1.43v10a.72.72,0,0,0,.21.51l1.21-1.22Z"/><rect class="cls-5" x="191.22" y="162.11" width="60.5" height="60.5" rx="12.23"/><rect class="cls-18" x="187.97" y="158.25" width="60.5" height="60.5" rx="12.23"/><rect class="cls-5" x="145.09" y="300.55" width="79.16" height="79.16" rx="16"/><rect class="cls-6" x="140.83" y="295.5" width="79.16" height="79.16" rx="16"/><g id="cloud"><path class="cls-11" d="M232.58,186.77a9.28,9.28,0,0,0-1.82.18c0-.33.05-.66.05-1a10.68,10.68,0,0,0-21.35-.17,10,10,0,0,0-3.31-.55,10.1,10.1,0,0,0-1.29,20.12.77.77,0,0,0,.34.08h27.38a9.34,9.34,0,0,0,0-18.67Z"/><path class="cls-10" d="M209.6,185.79a9.89,9.89,0,0,0-3.3-.55A10.1,10.1,0,0,0,205,205.36a.73.73,0,0,0,.33.08h13.79v-30.1A10.7,10.7,0,0,0,209.6,185.79Z"/></g><path class="cls-3" d="M232.21,192.34l-5.14-4.87a1.52,1.52,0,0,0-2.16.06,1.5,1.5,0,0,0-.41,1.09,1.53,1.53,0,0,0,.47,1.06l3.94,3.73-3.91,3.5a1.52,1.52,0,0,0-.5,1.05,1.48,1.48,0,0,0,.39,1.1,1.52,1.52,0,0,0,1.13.51h0a1.52,1.52,0,0,0,1-.39l5.15-4.6a1.52,1.52,0,0,0,.5-1.11A1.5,1.5,0,0,0,232.21,192.34Z"/><path class="cls-3" d="M222.18,187.8a1.52,1.52,0,0,0-2.08.56L215,197.29a1.52,1.52,0,0,0,.56,2.08,1.53,1.53,0,0,0,2.08-.56l5.14-8.93a1.57,1.57,0,0,0,.15-1.16A1.53,1.53,0,0,0,222.18,187.8Z"/><path class="cls-15" d="M215,197.29a1.52,1.52,0,0,0,.56,2.08,1.53,1.53,0,0,0,2.08-.56L219,196.4v-6.1Z"/><path class="cls-15" d="M213.47,188.62a1.54,1.54,0,0,0-1.48-1.57,1.52,1.52,0,0,0-1.09.42l-5.14,4.87a1.54,1.54,0,0,0-.48,1.13,1.56,1.56,0,0,0,.51,1.11l5.14,4.6a1.53,1.53,0,0,0,1,.39h0a1.52,1.52,0,0,0,1-2.66l-3.91-3.5,3.94-3.73A1.5,1.5,0,0,0,213.47,188.62Z"/><path class="cls-19" d="M209.92,322,169.65,365.2a2.42,2.42,0,0,1-3.46.12l-10.73-10a2.41,2.41,0,0,1-.12-3.46l5-5.37,4.53.68-1.19-4.25,3.34-3.58,2.5.26.83-3.84,3.45-3.7,3.66.67-.32-4.25,3.34-3.57h4l-.61-3.58,3.33-3.58,3.71,0-.37-3.55,5.12-5.49a2.43,2.43,0,0,1,3.46-.12l10.73,10A2.41,2.41,0,0,1,209.92,322Z"/><path class="cls-20" d="M209.92,322,169.65,365.2a2.42,2.42,0,0,1-3.46.12l-5.37-5,43.61-46.76,5.37,5A2.41,2.41,0,0,1,209.92,322Z"/><path class="cls-21" d="M196,322.63a2.43,2.43,0,0,1-3.46.12l-5.37-5,3.34-3.58,5.37,5A2.43,2.43,0,0,1,196,322.63Z"/><path class="cls-21" d="M189.3,329.78a2.41,2.41,0,0,1-3.45.12l-5.37-5,3.34-3.58,5.36,5A2.41,2.41,0,0,1,189.3,329.78Z"/><path class="cls-21" d="M182.63,336.94a2.43,2.43,0,0,1-3.46.12l-5.37-5,3.34-3.58,5.37,5A2.43,2.43,0,0,1,182.63,336.94Z"/><path class="cls-21" d="M175.84,344.21a2.41,2.41,0,0,1-3.46.12l-5.36-5,3.33-3.58,5.37,5A2.41,2.41,0,0,1,175.84,344.21Z"/><path class="cls-21" d="M169.17,351.37a2.42,2.42,0,0,1-3.46.12l-5.37-5,3.34-3.57,5.37,5A2.43,2.43,0,0,1,169.17,351.37Z"/><path class="cls-19" d="M163.9,330.1a2.86,2.86,0,0,1-.63-.75l-8.69-15.67a2.62,2.62,0,0,1,3.48-3.67l16.11,7.85a3.27,3.27,0,0,1,.78.59l-.61,4.7-6,6.29Z"/><path class="cls-22" d="M168.37,329.44l-4.47.66a2.86,2.86,0,0,1-.63-.75l-8.69-15.67a2.64,2.64,0,0,1,.33-3.17l16.54,15.69Z"/><polygon class="cls-11" points="190.82 355.72 163.82 330.1 174.94 318.37 201.95 343.99 203.3 350.85 198.44 355.97 190.82 355.72"/><polygon class="cls-10" points="190.82 355.72 163.82 330.1 169.38 324.24 200.52 353.78 198.44 355.97 190.82 355.72"/><path class="cls-5" d="M208.93,361.75a8.31,8.31,0,0,0-.64-11.74L202,344l-11.12,11.73,6.33,6A8.31,8.31,0,0,0,208.93,361.75Z"/><path class="cls-23" d="M197.16,361.73l-6.33-6,5.56-5.86,12.54,11.89A8.31,8.31,0,0,1,197.16,361.73Z"/></svg>