<?xml version="1.0" encoding="UTF-8"?>
<svg width="87px" height="114px" viewBox="0 0 87 114" version="1.1" xmlns="http://www.w3.org/2000/svg" xmlns:xlink="http://www.w3.org/1999/xlink">
    <!-- Generator: Sketch 61.2 (89653) - https://sketch.com -->
    <title>Group 6</title>
    <desc>Created with Sketch.</desc>
    <defs>
        <polygon id="path-1" points="0 0.537431034 34.4001724 0.537431034 34.4001724 35 0 35"></polygon>
    </defs>
    <g id="Symbols" stroke="none" stroke-width="1" fill="none" fill-rule="evenodd">
        <g id="icons-/-app-listing-digi" transform="translate(-138.000000, -10.000000)">
            <g id="Group-12" transform="translate(20.000000, 11.000000)">
                <g id="Group-6" transform="translate(117.000000, 0.000000)">
                    <g id="Group-4">
                        <rect id="Rectangle-Copy" stroke="#292A2D" stroke-width="2" fill="#FFFFFF" x="3" y="0" width="82" height="82" rx="7"></rect>
                        <text id="Productivity" font-family="Muli-Regular, Muli" font-size="16" font-weight="normal" line-spacing="32" fill="#292A2D">
                            <tspan x="0" y="103">Productivity</tspan>
                        </text>
                    </g>
                    <g id="Group-16" transform="translate(15.000000, 13.000000)">
                        <path d="M19.1192626,39.3341493 L16.2041002,42.3255814 L14.9471035,41.0526316 C14.5484815,40.6070991 13.8200093,40.6070991 13.3564361,40.9889841 C12.8928628,41.372093 12.8928628,42.0709914 13.2902113,42.5177479 L15.344452,44.6817625 C15.5418527,44.872705 15.87425,45 16.139149,45 C16.4702727,45 16.7351717,44.872705 16.9338459,44.6817625 L20.70993,40.8616891 C21.1072785,40.4161567 21.1072785,39.7796818 20.6424317,39.3341493 C20.2450832,38.8886169 19.5828358,38.8886169 19.1192626,39.3341493" id="Fill-1" fill="#020303"></path>
                        <g id="Group-5" transform="translate(0.000000, 24.000000)">
                            <mask id="mask-2" fill="white">
                                <use xlink:href="#path-1"></use>
                            </mask>
                            <g id="Clip-4"></g>
                            <path d="M32.2651724,19.1188103 L31.3237931,19.4326034 C29.8791379,19.8091552 28.6239655,20.8760517 28.0591379,22.3195 C27.4943103,23.7641552 27.557069,25.3331207 28.372931,26.6510517 L28.8122414,27.5296724 L26.8039655,29.4763966 L26.0508621,29.0370862 C24.732931,28.2827759 23.1627586,28.1572586 21.7193103,28.7232931 C20.3386207,29.2881207 19.2705172,30.5432931 18.8939655,31.9867414 L18.5174138,32.8026034 L15.7560345,32.7398448 L15.5677586,31.8612241 C15.1912069,30.4177759 14.1243103,29.1626034 12.6796552,28.5977759 C12.052069,28.3467414 11.4244828,28.2212241 10.7968966,28.2212241 C9.91827586,28.2212241 9.10241379,28.4722586 8.34931034,28.911569 L7.47068966,29.3508793 L5.52396552,27.3413966 L5.96327586,26.5882931 C6.77913793,25.2703621 6.84189655,23.7013966 6.27706897,22.2579483 C5.71224138,20.8132931 4.45706897,19.8091552 3.01362069,19.4326034 L2.07103448,19.1188103 L2.19655172,16.3562241 L3.07517241,16.1679483 C4.51982759,15.7913966 5.775,14.7245 6.33982759,13.2810517 C6.90465517,11.9003621 6.84189655,10.267431 6.02603448,8.9495 L5.58672414,8.07087931 L7.5962069,6.12415517 L8.34931034,6.56467241 C9.66724138,7.31777586 11.2362069,7.4432931 12.6796552,6.87725862 C14.0615517,6.31363793 15.1284483,5.05725862 15.505,3.61381034 L15.8187931,2.67243103 L18.5813793,2.73518966 L18.7684483,3.61381034 C19.145,5.05725862 20.2131034,6.31363793 21.6565517,6.87725862 C23.1,7.4432931 24.6701724,7.37932759 25.9881034,6.56467241 L26.8667241,6.12415517 L28.8122414,8.13363793 L28.372931,8.88674138 C27.557069,10.2046724 27.4943103,11.7748448 28.0591379,13.2182931 C28.6239655,14.6617414 29.8791379,15.6658793 31.3237931,16.042431 L32.2651724,16.3562241 L32.2651724,19.1188103 Z M32.7044828,14.2851897 L31.8258621,14.0969138 C31.0087931,13.9086379 30.3196552,13.2810517 30.0046552,12.4651897 C29.692069,11.6493276 29.7536207,10.7707069 30.1941379,10.0163966 L30.6322414,9.2632931 C31.1355172,8.38467241 31.0087931,7.31777586 30.3196552,6.56467241 L28.4356897,4.6807069 C27.7453448,3.99036207 26.6156897,3.80208621 25.737069,4.36691379 L24.9839655,4.80622414 C24.2296552,5.24553448 23.3510345,5.3082931 22.5351724,4.93174138 C21.7193103,4.61794828 21.1544828,3.92760345 20.9662069,3.11174138 L20.777931,2.23312069 C20.5268966,1.22898276 19.647069,0.537431034 18.642931,0.537431034 L15.9443103,0.537431034 C14.9401724,0.537431034 14.0615517,1.22898276 13.8093103,2.23312069 L13.4967241,3.11174138 C13.3072414,3.92760345 12.6796552,4.61794828 11.8637931,4.93174138 C11.047931,5.24553448 10.1693103,5.18277586 9.4162069,4.74346552 L8.66310345,4.30415517 C7.78327586,3.80208621 6.71637931,3.92760345 5.96327586,4.61794828 L4.08051724,6.5007069 C3.39017241,7.19225862 3.20068966,8.32191379 3.76672414,9.20053448 L4.20603448,9.95363793 C4.64534483,10.7067414 4.70810345,11.5853621 4.33155172,12.402431 C4.01775862,13.2182931 3.3262069,13.7831207 2.51155172,13.9713966 L1.63172414,14.1596724 C0.690344828,14.5362241 0,15.4148448 0,16.4189828 L0,19.1188103 C0,20.1229483 0.690344828,21.001569 1.69448276,21.2526034 L2.51155172,21.4408793 C3.3262069,21.6291552 4.01775862,22.2579483 4.33155172,23.0726034 C4.64534483,23.8896724 4.58258621,24.7682931 4.14327586,25.5213966 L3.70275862,26.2745 C3.20068966,27.1531207 3.39017241,28.2212241 4.08051724,28.9743276 L5.96327586,30.8570862 C6.65362069,31.547431 7.78327586,31.7357069 8.66310345,31.1708793 L9.4162069,30.731569 C10.1693103,30.2922586 11.047931,30.2295 11.8637931,30.6060517 C12.6796552,30.9198448 13.2444828,31.6101897 13.4327586,32.4260517 L13.6222414,33.3046724 C13.8732759,34.3088103 14.7518966,35.0003621 15.7560345,35.0003621 L18.5174138,35.0003621 C19.5215517,35.0003621 20.4013793,34.3088103 20.6524138,33.3046724 L20.8406897,32.4260517 C21.0289655,31.6101897 21.6565517,30.9198448 22.4724138,30.6060517 C23.2894828,30.2922586 24.1681034,30.3550172 24.9212069,30.7943276 L25.6743103,31.2336379 C26.552931,31.7357069 27.6198276,31.6101897 28.372931,30.9198448 L30.2556897,29.0370862 C30.9472414,28.3467414 31.1355172,27.2158793 30.5706897,26.3372586 L30.1301724,25.5841552 C29.692069,24.8310517 29.6281034,23.952431 30.0046552,23.136569 C30.3196552,22.3195 31.0087931,21.7546724 31.8258621,21.5663966 L32.7044828,21.3781207 C33.7086207,21.1270862 34.4001724,20.2484655 34.4001724,19.2443276 L34.4001724,16.4189828 C34.3362069,15.4148448 33.6458621,14.5362241 32.7044828,14.2851897 L32.7044828,14.2851897 Z" id="Fill-3" fill="#020303" mask="url(#mask-2)"></path>
                        </g>
                        <path d="M17.5,48.8754378 C13.9783713,48.8754378 11.064886,45.960585 11.064886,42.4398819 C11.064886,38.9180114 13.9783713,36.004326 17.5,36.004326 C21.0216287,36.004326 23.935114,38.9180114 23.935114,42.4398819 C23.935114,46.0224542 21.0216287,48.8754378 17.5,48.8754378 M17.5,34 C12.8251167,34 9,37.8253794 9,42.5005837 C9,47.175788 12.8251167,51 17.5,51 C22.1748833,51 26,47.175788 26,42.5005837 C26,37.8253794 22.1748833,34 17.5,34" id="Fill-6" fill="#020303"></path>
                        <path d="M9.05674211,23 C9.61619382,23 10.1134842,22.5042064 10.1134842,21.9464386 L10.1134842,14.1972799 C10.1134842,12.9577958 11.108065,11.9662086 12.3524865,11.9662086 L19.4400701,11.9662086 L17.2644246,14.1353057 C16.8281001,14.5691251 16.8281001,15.1888671 17.2644246,15.6238783 C17.4497131,15.8086091 17.761715,15.9325575 18.0103602,15.9325575 C18.2590054,15.9325575 18.5698119,15.8086091 18.7562958,15.6238783 L22.6736532,11.7183118 C23.1087823,11.2844924 23.1087823,10.6635586 22.6736532,10.230931 L18.7562958,6.32536455 C18.3211667,5.89154515 17.6995537,5.89154515 17.2644246,6.32536455 C16.8281001,6.75918396 16.8281001,7.37892597 17.2644246,7.81274537 L19.4400701,9.98303421 L12.3524865,9.98303421 C9.98916162,9.98303421 8,11.9042344 8,14.3212283 L8,22.070387 C8,22.5042064 8.4972904,23 9.05674211,23" id="Fill-8" fill="#020303"></path>
                        <path d="M50.9420775,35 C50.382001,35 49.8841551,35.4962459 49.8841551,36.0545225 L49.8841551,43.8107501 C49.8841551,45.0513648 48.8884634,46.0438566 47.6438487,46.0438566 L40.5471517,46.0438566 L42.7264241,43.871588 C43.1620393,43.4385657 43.1620393,42.8170655 42.7264241,42.3828503 C42.290809,41.9486352 41.6673049,41.9486352 41.2316898,42.3828503 L37.3111537,46.2919795 C37.1244615,46.4780717 37,46.7261947 37,47.0363483 C37,47.346502 37.1244615,47.5946249 37.3111537,47.7807171 L41.2316898,51.6898463 C41.418382,51.8759385 41.7307324,52 41.9796553,52 C42.2285783,52 42.5397319,51.8759385 42.7264241,51.6898463 C43.1620393,51.2556312 43.1620393,50.6353238 42.7264241,50.2011087 L40.5471517,48.0288401 L47.6438487,48.0288401 C50.0086166,48.0288401 52,46.1058873 52,43.6866887 L52,36.0545225 C51.938966,35.4342151 51.5021541,35 50.9420775,35" id="Fill-10" fill="#020303"></path>
                        <path d="M54.6337695,16.5453956 L56.8476329,16.5453956 C56.601648,19.4982834 55.4332202,22.1425193 53.6486476,24.2333104 L52.0497463,22.6344701 C51.6192729,22.2040131 51.0043108,22.2040131 50.5738374,22.6344701 C50.143364,23.0649271 50.143364,23.6798657 50.5738374,24.1103227 L52.1727387,25.7103456 C50.0818678,27.4936675 47.3748522,28.6620508 44.4845306,28.9080262 L44.4845306,26.6942473 C44.4845306,26.1408026 43.9925609,25.6488518 43.4390951,25.6488518 C42.8844466,25.6488518 42.392477,26.1408026 42.392477,26.6942473 L42.392477,28.9080262 C39.4406592,28.6620508 36.7963224,27.4936675 34.7042689,25.7103456 L36.3031702,24.1103227 C36.7336436,23.6798657 36.7336436,23.0649271 36.3031702,22.6344701 C35.8726968,22.2040131 35.2577347,22.2040131 34.8272613,22.6344701 L33.22836,24.2333104 C31.4449701,22.1425193 30.2753596,19.4356069 30.0293747,16.5453956 L32.2432381,16.5453956 C32.7978865,16.5453956 33.2898562,16.0534447 33.2898562,15.5 C33.2898562,14.9453727 32.920879,14.4534218 32.3662305,14.4534218 L30.1523671,14.4534218 C30.398352,11.5017166 31.5679625,8.85748074 33.3513524,6.76550698 L34.9502537,8.36552987 C35.1347423,8.54882887 35.4422233,8.67181659 35.6882081,8.67181659 C35.934193,8.67181659 36.241674,8.54882887 36.4261626,8.36552987 C36.856636,7.93389029 36.856636,7.31895171 36.4261626,6.8884947 L34.8272613,5.28965438 C36.9193148,3.50633249 39.6251478,2.33676661 42.5154694,2.09079118 L42.5154694,4.30457008 C42.5154694,4.85919738 43.0074391,5.35114824 43.5620875,5.35114824 C44.1155534,5.35114824 44.607523,4.85919738 44.607523,4.30457008 L44.607523,2.09079118 C47.5605234,2.33676661 50.2048602,3.50633249 52.2957311,5.28965438 L50.6968298,6.8884947 C50.2663564,7.31895171 50.2663564,7.93389029 50.6968298,8.36552987 C50.8813184,8.54882887 51.1887995,8.67181659 51.4347843,8.67181659 C51.6807691,8.67181659 51.9882501,8.54882887 52.1727387,8.36552987 L53.77164,6.76550698 C55.5562126,8.85748074 56.7246404,11.5632105 56.9706253,14.4534218 L54.7567619,14.4534218 C54.2032961,14.4534218 53.7113264,14.9453727 53.7113264,15.5 C53.7113264,16.0534447 54.0803037,16.5453956 54.6337695,16.5453956 M43.4994087,0 C34.9502537,0 28,6.94998856 28,15.5 C28,24.0488289 34.9502537,31 43.4994087,31 C52.0497463,31 59,24.0488289 59,15.5 C59,6.94998856 52.0497463,0 43.4994087,0" id="Fill-12" fill="#020303"></path>
                        <path d="M48.9033959,14.8136501 L44.1932082,14.8136501 L44.1932082,9.09255699 C44.1932082,8.51414447 43.6771592,8 43.0966041,8 C42.516049,8 42,8.51414447 42,9.09255699 L42,15.9062071 C42,16.4858555 42.516049,17 43.0966041,17 L48.9033959,17 C49.483951,17 50,16.4858555 50,15.9062071 C50,15.3277946 49.5484571,14.8136501 48.9033959,14.8136501" id="Fill-14" fill="#020303"></path>
                    </g>
                </g>
            </g>
        </g>
    </g>
</svg>