<?xml version="1.0" encoding="UTF-8"?>
<svg width="84px" height="111px" viewBox="0 0 84 111" version="1.1" xmlns="http://www.w3.org/2000/svg" xmlns:xlink="http://www.w3.org/1999/xlink">
    <!-- Generator: Sketch 61.2 (89653) - https://sketch.com -->
    <title>Group 8</title>
    <desc>Created with Sketch.</desc>
    <defs>
        <polygon id="path-1" points="0 0.64155814 55.4468571 0.64155814 55.4468571 48.999886 0 48.999886"></polygon>
    </defs>
    <g id="Symbols" stroke="none" stroke-width="1" fill="none" fill-rule="evenodd">
        <g id="icons-/-app-listing-mobile-measures" transform="translate(-257.000000, -9.000000)">
            <g id="Group-12" transform="translate(20.000000, 10.000000)">
                <g id="Group-2" transform="translate(238.000000, 0.000000)">
                    <g id="Group-8">
                        <rect id="Rectangle-Copy-4" stroke="#292A2D" stroke-width="2" fill="#FFFFFF" x="0" y="0" width="82" height="82" rx="7"></rect>
                        <text id="Reference" font-family="Muli-Regular, Muli" font-size="16" font-weight="normal" line-spacing="32" fill="#292A2D">
                            <tspan x="4.444" y="103">Reference</tspan>
                        </text>
                        <g id="Group-24" transform="translate(13.000000, 19.000000)">
                            <g id="Group-3">
                                <mask id="mask-2" fill="white">
                                    <use xlink:href="#path-1"></use>
                                </mask>
                                <g id="Clip-2"></g>
                                <path d="M-0.000457142857,16.4308395 L-0.000457142857,43.9882116 C-0.000457142857,44.5374674 0.447542857,44.981886 0.997257143,44.981886 L22.8212571,44.981886 C23.2692571,47.2689326 25.2944,48.999886 27.7161143,48.999886 C30.1286857,48.999886 32.1481143,47.282607 32.6064,44.981886 L54.4498286,44.981886 C54.9995429,44.981886 55.4475429,44.5374674 55.4475429,43.9882116 L55.4475429,16.4308395 L55.4475429,14.4423512 L55.4475429,11.4317 L55.4475429,9.44207209 L55.4475429,6.61830465 C55.4475429,6.06904884 54.9995429,5.6234907 54.4498286,5.6234907 L51.0441143,5.6234907 L51.0441143,1.6579093 C51.0441143,1.12232791 50.6178286,0.682467442 50.0795429,0.664234884 C41.9732571,0.387327907 34.8578286,2.66297907 27.7321143,6.47358372 C20.7241143,2.69260698 13.5172571,0.394165116 5.40525714,0.664234884 C4.86811429,0.682467442 4.44182857,1.12232791 4.44182857,1.6579093 L4.44182857,5.6234907 L0.997257143,5.6234907 C0.447542857,5.6234907 -0.000457142857,6.06904884 -0.000457142857,6.61830465 L-0.000457142857,9.44207209 L-0.000457142857,11.4317 L-0.000457142857,14.4423512 L-0.000457142857,16.4308395 Z M1.99497143,7.6131186 L4.44182857,7.6131186 L4.44182857,37.9532349 C4.44182857,38.2187465 4.54811429,38.4728628 4.73782857,38.6597465 C5.13325714,39.0517465 5.5824,38.9229791 5.78354286,38.9469093 C13.5721143,38.9469093 20.2429714,41.238514 27.3972571,43.6041884 C27.5012571,43.6383744 27.6086857,43.656607 27.7161143,43.656607 L27.7298286,43.656607 C27.7309714,43.656607 27.7309714,43.6554674 27.7309714,43.6554674 C27.7332571,43.6554674 27.7344,43.656607 27.7366857,43.656607 C27.7378286,43.656607 27.7378286,43.6554674 27.7389714,43.6554674 C27.7401143,43.6554674 27.7412571,43.656607 27.7435429,43.656607 C29.0429714,43.656607 39.0384,38.9469093 49.7024,38.9469093 C49.7378286,38.9469093 49.5744,38.9457698 50.0464,38.9480488 C50.3092571,38.9480488 50.5618286,38.8443512 50.7481143,38.6597465 C50.9366857,38.4728628 51.0441143,38.2187465 51.0441143,37.9532349 L51.0441143,7.6131186 L53.4521143,7.6131186 L53.4521143,42.9933977 L31.7058286,42.9933977 C31.1561143,42.9933977 30.7081143,43.4777 30.7081143,44.0269558 C30.7081143,45.6724442 29.3652571,47.0102581 27.7161143,47.0102581 C26.1001143,47.0102581 24.7812571,45.7282814 24.7252571,44.1306535 C24.7332571,44.082793 24.7378286,44.0349326 24.7378286,43.9882116 C24.7378286,42.1022814 22.8052571,43.4002116 1.99497143,42.9933977 L1.99497143,7.6131186 Z M6.43725714,2.63335116 C6.51268571,2.63221163 6.58925714,2.63221163 6.66354286,2.63221163 C13.8258286,2.63221163 20.3549714,4.75288605 26.7321143,8.19086279 C26.7161143,25.6952581 26.7184,-6.8943 26.7184,28.3788628 L26.7184,41.2761186 C19.9766857,39.0152814 13.5412571,37.0723744 6.43725714,36.9629791 L6.43725714,2.63335116 Z M49.0486857,2.63335116 L49.0486857,36.9629791 C41.8966857,37.0769326 35.5241143,39.0175605 28.7401143,41.2806767 C28.7401143,-1.62964884 28.7469714,44.4611186 28.7275429,8.19200233 C35.1252571,4.78365349 41.6486857,2.5592814 49.0486857,2.63335116 L49.0486857,2.63335116 Z" id="Fill-1" fill="#020303" mask="url(#mask-2)"></path>
                            </g>
                            <path d="M32.4040632,13.9028355 C36.9766354,11.6705814 41.5807194,10.363698 46.0902682,10.0204527 C46.6315941,9.97986628 47.0367445,9.49398863 46.9973549,8.93737462 C46.9579653,8.37960099 46.5077982,7.97141738 45.9439639,8.0015673 C41.1947011,8.36336641 36.3565303,9.73402843 31.5622508,12.0729669 C31.0715686,12.3118471 30.8622409,12.9160052 31.0952024,13.4215963 C31.3292893,13.9306662 31.9201336,14.1393964 32.4040632,13.9028355" id="Fill-4" fill="#020303"></path>
                            <path d="M32.4040632,19.9023327 C36.97551,17.6701115 41.5795939,16.3644071 46.0902682,16.0200072 C46.6315941,15.9794214 47.0367445,15.4935509 46.9973549,14.9369451 C46.9579653,14.3791797 46.5077982,13.9652042 45.9439639,14.0023112 C41.1935757,14.364105 36.3542794,15.7335872 31.5622508,18.0724911 C31.0715686,18.3125274 30.8622409,18.915517 31.0952024,19.4211006 C31.3292893,19.9301629 31.9201336,20.1400497 32.4040632,19.9023327" id="Fill-6" fill="#020303"></path>
                            <path d="M32.4040632,25.9024817 C36.9766354,23.6704739 41.5807194,22.3648943 46.0902682,22.0205274 C46.6315941,21.9799454 47.0367445,21.4952809 46.9973549,20.9375688 C46.9579653,20.3786973 46.5077982,19.9601233 45.9439639,20.0030243 C41.1958265,20.3647835 36.3565303,21.7341347 31.5622508,24.072815 C31.0715686,24.3128284 30.8622409,24.9157603 31.0952024,25.4201361 C31.3292893,25.9326283 31.921259,26.1390165 32.4040632,25.9024817" id="Fill-8" fill="#020303"></path>
                            <path d="M32.4040632,30.9024638 C36.9766354,28.6712071 41.5807194,27.3642288 46.0902682,27.0209585 C46.6315941,26.9792094 47.0367445,26.4944561 46.9973549,25.9366419 C46.9579653,25.3788278 46.5077982,24.9682951 45.9439639,25.0019263 C41.1958265,25.3637517 36.3565303,26.7333537 31.5622508,29.0736219 C31.0715686,29.3125194 30.8622409,29.9155618 31.0952024,30.4200299 C31.3292893,30.9326159 31.921259,31.139042 32.4040632,30.9024638" id="Fill-10" fill="#020303"></path>
                            <path d="M46.0902743,33.0250674 C46.6304751,32.9832442 47.036751,32.4976303 46.9973614,31.9388258 C46.9579718,31.3800213 46.5078045,30.9641127 45.94397,31.0024507 C41.1947052,31.3649185 36.3576579,32.7357902 31.562251,35.081375 C31.0715687,35.3206967 30.8622409,35.9248096 31.0952024,36.4313351 C32.0934484,38.6154359 35.0926878,33.8626932 46.0902743,33.0250674" id="Fill-12" fill="#020303"></path>
                            <path d="M9.90972566,10.0205316 C14.4192763,10.3626105 19.0233621,11.6694679 23.5959362,13.9028374 C24.0809914,14.1393937 24.6707106,13.9306676 24.9047976,13.4216077 C25.1377591,12.9160267 24.9284313,12.3118805 24.437749,12.0730051 C19.6434675,9.73295338 14.8064202,8.36347812 10.05603,8.00168618 C9.50795137,7.97037726 9.04427908,8.37855278 9.0026386,8.93631536 C8.96324897,9.49407793 9.36952493,9.97878636 9.90972566,10.0205316" id="Fill-14" fill="#020303"></path>
                            <path d="M9.90972566,16.0209461 C14.4204017,16.3653083 19.0244875,17.6708702 23.5959362,19.9028475 C24.0809914,20.1393792 24.6707106,19.9306748 24.9047976,19.421668 C25.1377591,18.9161396 24.9284313,18.3132158 24.437749,18.0732058 C19.6457184,15.7345573 14.8075456,14.3652247 10.05603,14.002311 C9.50795137,13.965208 9.04427908,14.3791383 9.0026386,14.9368428 C8.96324897,15.4945473 9.36952493,15.9792052 9.90972566,16.0209461" id="Fill-16" fill="#020303"></path>
                            <path d="M9.90972566,22.0212914 C14.4192763,22.3644329 19.0233621,23.6709211 23.5959362,25.9025004 C24.0787406,26.1389898 24.6707106,25.9326412 24.9047976,25.4202474 C25.1377591,24.9159685 24.9284313,24.3131523 24.437749,24.073185 C19.6434675,21.7349537 14.8052948,20.3658653 10.05603,20.0030163 C9.50795137,19.9601236 9.04427908,20.3797764 9.0026386,20.9373814 C8.96324897,21.4949864 9.36952493,21.9795579 9.90972566,22.0212914" id="Fill-18" fill="#020303"></path>
                            <path d="M9.90972566,27.02095 C14.4192763,27.3642188 19.0233621,28.6711917 23.5959362,30.902439 C24.0787406,31.1390162 24.6707106,30.932591 24.9047976,30.4211668 C25.1377591,29.9167008 24.9284313,29.3125013 24.437749,29.0736048 C19.6434675,26.7333464 14.8052948,25.3637502 10.05603,25.0019263 C9.50795137,24.9682952 9.04427908,25.3788262 9.0026386,25.936638 C8.96324897,26.4944498 9.36952493,26.9792011 9.90972566,27.02095" id="Fill-20" fill="#020303"></path>
                            <path d="M9.90972566,33.0214801 C14.4170255,33.3635436 19.0233621,34.6703424 23.5959362,36.902452 C24.0787406,37.1389977 24.6707106,36.9326 24.9047976,36.421244 C25.1377591,35.9156856 24.9284313,35.3127261 24.437749,35.0738614 C19.6423421,32.7327552 14.8052948,31.364501 10.05603,31.0027253 C9.50795137,30.9621415 9.04427908,31.379575 9.0026386,31.9373125 C8.96324897,32.49505 9.36952493,32.9797367 9.90972566,33.0214801" id="Fill-22" fill="#020303"></path>
                        </g>
                    </g>
                </g>
            </g>
        </g>
    </g>
</svg>