<?xml version="1.0" encoding="UTF-8"?>
<svg width="84px" height="114px" viewBox="0 0 84 114" version="1.1" xmlns="http://www.w3.org/2000/svg" xmlns:xlink="http://www.w3.org/1999/xlink">
    <!-- Generator: Sketch 61.2 (89653) - https://sketch.com -->
    <title>Group 6</title>
    <desc>Created with Sketch.</desc>
    <defs>
        <polygon id="path-1" points="5.92192823e-05 0.153 55.447 0.153 55.447 45 5.92192823e-05 45"></polygon>
    </defs>
    <g id="Symbols" stroke="none" stroke-width="1" fill="none" fill-rule="evenodd">
        <g id="icons-/-app-listing-mobile-measures" transform="translate(-19.000000, -9.000000)">
            <g id="Group-12" transform="translate(20.000000, 10.000000)">
                <g id="Group-6">
                    <g id="Group-5">
                        <g id="icon-/-social-media" fill="#FFFFFF" stroke="#292A2D" stroke-width="2">
                            <g id="Group">
                                <rect id="Rectangle" x="0" y="0" width="82" height="82" rx="7"></rect>
                            </g>
                        </g>
                        <text id="Utility" font-family="Muli-Regular, Muli" font-size="16" font-weight="normal" line-spacing="32" fill="#292A2D">
                            <tspan x="20" y="103">Utility</tspan>
                        </text>
                    </g>
                    <g id="Group-10" transform="translate(13.000000, 16.000000)">
                        <path d="M21.943,36.8803 L34.966,36.8803 C35.662,36.8803 36.226,36.3163 36.226,35.6203 C36.226,34.9253 35.662,34.3613 34.966,34.3613 L21.943,34.3613 C21.248,34.3613 20.684,34.9253 20.684,35.6203 C20.697,36.3103 21.253,36.8663 21.943,36.8803" id="Fill-1" fill="#020303"></path>
                        <path d="M12.3454,35.6205 C12.3454,36.6505 11.5114,37.4845 10.4814,37.4845 C9.4514,37.4845 8.6174,36.6505 8.6174,35.6205 C8.6174,34.5915 9.4514,33.7565 10.4814,33.7565 C11.5114,33.7565 12.3454,34.5915 12.3454,35.6205 M6.0984,35.6205 C6.0984,38.0415 8.0604,40.0035 10.4814,40.0035 C12.9024,40.0035 14.8644,38.0415 14.8644,35.6205 C14.8644,33.1995 12.9024,31.2375 10.4814,31.2375 C8.0604,31.2375 6.0984,33.1995 6.0984,35.6205" id="Fill-3" fill="#020303"></path>
                        <path d="M43.8087,35.6205 C43.8087,34.5915 44.6447,33.7575 45.6747,33.7584991 C46.7027,33.7584991 47.5357,34.5925 47.5367,35.6205 C47.5357,36.6505 46.7007,37.4835 45.6707,37.4835 C44.6427,37.4825 43.8087,36.6485 43.8087,35.6205 M50.0557749,35.6205 C50.0697,33.2005 48.1187,31.2265 45.6977,31.2124251 C43.2777,31.1985 41.3037,33.1495 41.2896251,35.5705 C41.2757,37.9915 43.2267,39.9645 45.6477,39.9785 L45.6727,39.9785 C48.0837,39.9785 50.0417,38.0315 50.0557749,35.6205" id="Fill-5" fill="#020303"></path>
                        <g id="Group-9" transform="translate(0.000000, 0.847300)">
                            <mask id="mask-2" fill="white">
                                <use xlink:href="#path-1"></use>
                            </mask>
                            <g id="Clip-8"></g>
                            <path d="M14.5622,10.6887 C14.8062,10.1887 15.4092,10.0657 15.8952,10.3347 C16.8682,10.8737 17.7182,11.3677 18.2522,11.6827 C18.6372,11.9097 18.8372,12.3417 18.7602,12.7817 C18.5372,14.0417 17.9162,15.7477 17.7462,16.1847 C17.7002,16.2957 17.0892,16.2207 16.9712,16.2097 C16.3482,16.1547 15.7362,16.2667 15.2152,16.6277 C14.5992,17.0547 14.3282,17.6997 14.1012,18.3847 C13.8262,19.2137 13.8342,19.7827 14.1702,20.6037 C14.3962,21.1567 14.7552,21.6837 15.2122,22.0867 C15.4452,22.2927 15.6952,22.4997 15.9872,22.6067 C16.2082,22.6887 16.6072,22.7967 16.7532,22.8097 C16.7532,22.8097 16.6172,23.7757 16.4812,24.2697 L10.5822,24.2687 C9.8782,24.2657 9.1772,24.3407 8.4912,24.4957 L14.5622,10.6887 Z M44.8672,24.3697 L39.5262,24.3697 L33.9592,14.2927 C32.6262,11.1027 33.5782,5.5207 34.4122,3.8387 C36.3052,6.6247 37.6902,9.1377 39.2242,11.3967 L46.4032,24.5207 C45.9072,24.3877 45.3772,24.4217 44.8672,24.3697 L44.8672,24.3697 Z M49.9302,25.5277 L41.0672,10.1957 C39.1532,6.7197 34.3482,0.1777 34.2222,0.152612314 C33.7132,0.1197 28.6152,9.4087 32.1202,15.2917 L37.0322,24.2347 L22.9252,24.2437 C22.2302,24.2437 21.6662,24.8077 21.6662,25.5027 C21.6662,26.1987 22.2302,26.7627 22.9252,26.7627 L44.8922,26.7627 C49.3092,26.5147 53.0912,29.8947 53.3392,34.3117 C53.5872,38.7287 50.2072,42.5107 45.7902,42.7587 C45.4912,42.7757 45.1912,42.7757 44.8922,42.7587 L10.5822,42.7587 C6.1652,43.0067 2.3832,39.6267 2.1352,35.2097 C1.8872,30.7927 5.2672,27.0107 9.6842,26.7627 C9.9832,26.7457 10.2832,26.7457 10.5822,26.7627 L17.1572,26.7627 C17.7932,26.7557 18.1472,26.2947 18.2342,25.6647 C18.3852,24.6317 18.5622,23.4227 18.7632,22.2637 C18.8542,21.7417 18.4912,21.1057 18.0112,20.8897 C17.7962,20.7927 17.5532,20.7837 17.3192,20.7507 C16.6002,20.6477 16.0742,19.9747 16.0742,19.2557 C16.0742,18.7357 16.3452,18.2337 16.7962,17.9687 C17.3252,17.6587 17.9352,17.8397 18.5132,17.8337 C19.1842,17.8277 19.4142,17.7027 19.5872,17.0197 C19.9212,15.6977 20.8012,11.3837 20.2982,10.9417 C18.9472,9.7557 14.4192,7.3487 14.3842,7.3787 C14.2552,7.4887 12.1122,11.6187 12.0432,11.7737 C12.0432,11.7737 6.7282,22.3797 4.9142,25.8807 C0.0032,28.9687 -1.4748,35.4537 1.6132,40.3647 C3.5502,43.4457 6.9302,45.0257 10.5692,45.0000157 L44.8782,45.0000157 C50.6802,45.0277 55.4192,40.6257 55.4473265,34.8247 C55.4662,30.9447 53.3442,27.3707 49.9302,25.5277 L49.9302,25.5277 Z" id="Fill-7" fill="#020303" mask="url(#mask-2)"></path>
                        </g>
                    </g>
                </g>
            </g>
        </g>
    </g>
</svg>